<?xml version="1.0" encoding="UTF-8"?>
<svg id="Layer_1" xmlns="http://www.w3.org/2000/svg" width="67.588mm" height="13.688mm" version="1.1" viewBox="0 0 191.589 38.801">
  <defs>
    <style type="text/css">
      <![CDATA[
        @font-face {
          font-family: "OCR-B";
          src: url('fonts/OCR-B.otf') format('opentype');
          font-weight: normal;
          font-style: normal;
        }
        .serial {
          font-family: "OCR-B";
          font-size: 10.427px;
          letter-spacing: -0.023em;
          text-transform: uppercase;
        }
      ]]>
    </style>
  </defs>
  <g fill="#231f20" data-background="background">
    <path d="M187.495.125H4.093C1.902.125.125,1.902.125,4.093v8.81c0,1.113.168,2.219.498,3.282l6.653,21.404c.201.647.8,1.088,1.477,1.088h59.279c2.192,0,3.969-1.777,3.969-3.969v-.419c0-2.192,1.777-3.969,3.969-3.969h39.078c2.192,0,3.969,1.777,3.969,3.969v.419c0,2.192,1.777,3.969,3.969,3.969h59.852c.677,0,1.276-.441,1.477-1.088l6.653-21.404c.33-1.062.498-2.169.498-3.281V4.093c-.002-2.191-1.779-3.968-3.971-3.968Z"/>
  </g>
  <g fill="none" stroke="none" stroke-width="0.25pt" stroke-dasharray="0.9pt" data-stroke="stroke">
    <path d="M187.495.125H4.093C1.902.125.125,1.902.125,4.093v8.81c0,1.113.168,2.219.498,3.282l6.653,21.404c.201.647.8,1.088,1.477,1.088h59.279c2.192,0,3.969-1.777,3.969-3.969v-.419c0-2.192,1.777-3.969,3.969-3.969h39.078c2.192,0,3.969,1.777,3.969,3.969v.419c0,2.192,1.777,3.969,3.969,3.969h59.852c.677,0,1.276-.441,1.477-1.088l6.653-21.404c.33-1.062.498-2.169.498-3.281V4.093c-.002-2.191-1.779-3.968-3.971-3.968Z"/>
  </g>
  <g fill="#ffffff" data-foreground="foreground">
    <g>
      <rect x="3.316" y="11.461" width="112.523" height=".5" />
      <g>
        <path d="M11.195,34.194c-.011-.326-.021-.722-.021-1.116h-.007c-.075.347-.171.733-.26,1.052l-.28,1.06h-.406l-.246-1.048c-.076-.322-.15-.709-.209-1.063h-.007c-.011.366-.024.786-.038,1.124l-.044,1.031h-.481l.146-2.715h.693l.227.906c.074.314.143.652.194.971h.014c.062-.314.14-.673.219-.975l.243-.902h.684l.123,2.715h-.506l-.038-1.039h0Z" />
        <path d="M12.714,34.536l-.164.697h-.537l.701-2.715h.684l.717,2.715h-.563l-.178-.697h-.66ZM13.298,34.077l-.144-.576c-.041-.161-.082-.362-.116-.523h-.007c-.034.161-.068.366-.106.523l-.137.576h.51Z" />
        <path d="M14.469,32.558c.191-.036.44-.061.7-.061.441,0,.729.097.947.29.239.21.39.544.39,1.023,0,.52-.161.878-.38,1.1-.242.237-.615.351-1.066.351-.27,0-.465-.021-.591-.04v-2.663ZM14.988,34.77c.044.012.12.012.181.012.476.004.787-.302.787-.951,0-.563-.281-.861-.732-.861-.112,0-.191.012-.235.023v1.777h0Z" />
        <path d="M18.268,34.085h-.848v.645h.946v.504h-1.466v-2.715h1.418v.503h-.898v.564h.848v.499Z" />
        <path d="M20.04,32.518v2.715h-.52v-2.715h.52Z" />
        <path d="M20.544,35.233v-2.715h.608l.479.995c.137.286.271.624.376.931h.007c-.03-.359-.041-.726-.041-1.137v-.789h.479v2.715h-.547l-.492-1.047c-.137-.291-.29-.641-.399-.959h-.014c.017.362.023.745.023,1.188v.817h-.479,0Z" />
        <path d="M24.146,32.518h.52v1.716c0,.773-.314,1.043-.817,1.043-.123,0-.279-.023-.383-.064l.059-.495c.072.028.164.049.267.049.219,0,.355-.117.355-.536v-1.712h-.001Z" />
        <path d="M25.688,34.536l-.164.697h-.537l.701-2.715h.684l.717,2.715h-.563l-.178-.697h-.66ZM26.272,34.077l-.144-.576c-.041-.161-.082-.362-.116-.523h-.007c-.034.161-.068.366-.106.523l-.137.576h.51Z" />
        <path d="M27.443,32.554c.161-.032.386-.057.704-.057.321,0,.551.072.704.218.15.137.246.362.246.628s-.071.496-.212.645c-.178.193-.441.286-.748.286-.068,0-.131-.004-.178-.016v.975h-.517v-2.679h0ZM27.96,33.787c.044.013.096.017.174.017.277,0,.447-.166.447-.439,0-.25-.146-.398-.41-.398-.102,0-.174.008-.211.02v.802-.002Z" />
        <path d="M29.811,34.536l-.164.697h-.536l.7-2.715h.684l.719,2.715h-.564l-.178-.697h-.661ZM30.396,34.077l-.144-.576c-.041-.161-.082-.362-.116-.523h-.007c-.034.161-.068.366-.105.523l-.137.576h.509Z" />
        <path d="M31.567,35.233v-2.715h.608l.479.995c.137.286.271.624.376.931h.007c-.03-.359-.041-.726-.041-1.137v-.789h.479v2.715h-.547l-.492-1.047c-.137-.291-.29-.641-.399-.959h-.014c.017.362.023.745.023,1.188v.817h-.479,0Z" />
      </g>
      <g>
        <path d="M56.771,3.689v1.255l-1.601-1.255h-6.472l-.792,1.519-.892-1.535-9.741.017.512-.809h-7.759c-.578,0-1.156.165-1.667.495-.215.132-.396.281-.578.446-.495-.594-1.007-.958-1.849-.958h-13.125l-.429,1.304-.215-1.288h-2.873l-.099.231-.281-.099c-1.502-.528-2.955-.347-4.326.495-1.42.875-2.097,2.262-1.915,3.995.099,1.04.759,1.965,1.75,2.493.726.363,1.535.479,2.344.347h2.559l.627-1.403.248,1.403,15.337-.016c.677,0,1.387-.347,1.915-.859.396.429.925.759,1.519.892.776.182,1.601.033,2.328-.413.033-.016.066-.05.099-.066l-.066.446h3.12l.126-.809h8.921c1.469,0,2.361-.446,2.856-1.007l.611,1.007h9.113v-1.271l1.634,1.271h11.243V3.689h-12.184.002Z" />
        <g fill="#231f20" data-background="background">
          <path d="M43.315,7.602h-1.024v-2.08h1.453c.776,0,1.156.314,1.156.991,0,.825-.413,1.09-1.585,1.09M50.464,4.647h-1.189l-.033.066-1.337,2.46-1.436-2.46-.033-.05h-1.271l.099.165.248.396c-.396-.38-.991-.578-1.767-.578h-2.559v3.203l-1.899-3.137-.033-.05h-.974l-.033.05-2.163,3.632-.099.165h2.724v-.858h-1.106l1.106-1.998,1.568,2.79.033.05h3.186c1.667,0,2.526-.66,2.526-1.948,0-.231-.033-.429-.083-.611l1.519,2.509.033.05h.743l.033-.05,2.097-3.632.099-.165"/>
          <polyline points="57.844 4.647 57.728 4.647 57.728 6.942 54.839 4.68 54.806 4.647 54.047 4.647 54.047 7.85 52.148 4.713 52.115 4.647 51.141 4.647 51.108 4.713 48.945 8.328 48.846 8.51 50.002 8.51 50.002 8.51 51.587 8.51 51.587 7.651 50.481 7.651 51.587 5.654 53.155 8.444 53.188 8.51 54.443 8.51 54.443 8.51 55.07 8.51 55.07 6.182 57.959 8.477 57.992 8.51 58.752 8.51 58.752 4.647 57.844 4.647"/>
          <path d="M62.417,4.647h-2.262c-.792,0-1.057.248-1.057.974v1.915c0,.726.264.974,1.057.974h2.262c.792,0,1.057-.248,1.057-.974v-.545h-1.123v.594h-2.163v-2.031h2.163v.528h1.123v-.462c0-.743-.264-.974-1.057-.974"/>
          <polyline points="67.882 7.602 64.943 7.602 64.943 6.925 66.71 6.925 66.71 6.083 64.943 6.083 64.943 5.522 67.948 5.522 67.948 4.647 63.837 4.647 63.837 8.51 67.997 8.51 67.997 7.602 67.882 7.602"/>
          <path d="M9.867,6.611l.479-1.073.215,1.073h-.693M16.454,3.821l-1.288,3.021-.545-3.021h-1.123l-1.453,4.458-.743-4.458h-1.387l-2.113,4.788.314-1.998h-2.097l-.165,1.024h.875l-.099.545c-.495.215-1.354.149-1.717-.512-.231-.413-.446-1.337.528-2.179.792-.693,2.163-.809,2.955-.446,0,0,.099-.578.182-1.123-1.519-.528-2.708-.083-3.5.396-1.073.66-1.585,1.684-1.453,3.071.165,1.601,2.229,2.609,3.995,1.601.017-.017.033-.017.033-.017l-.165.38h1.189l.743-1.651h1.304l.281,1.651h1.915l.974-3.071.627,3.071h.759l1.469-3.401.149,3.401h1.123l-.215-5.531h-1.354"/>
          <polyline points="18.138 9.335 21.292 9.335 21.473 8.147 19.492 8.147 19.657 7.173 21.374 7.173 21.556 5.984 19.822 5.984 19.971 5.01 21.952 5.01 22.134 3.821 19.013 3.821 18.138 9.335"/>
          <polyline points="33.525 5.621 32.832 3.821 31.528 3.821 32.865 6.727 32.452 9.335 33.591 9.335 33.938 7.024 35.969 3.821 34.648 3.821 33.525 5.621"/>
          <path d="M30.884,7.107c-.297.908-1.04,1.436-1.634,1.172-.594-.264-.825-1.222-.528-2.146.297-.908,1.04-1.436,1.634-1.172.611.281.842,1.238.528,2.146M30.454,3.871c-1.255-.281-2.559.71-2.906,2.229-.347,1.519.38,2.988,1.634,3.285,1.255.297,2.559-.71,2.906-2.229s-.396-2.988-1.634-3.285"/>
          <path d="M25.436,6.034h-.792l.182-1.024h.726c.809,0,.66,1.024-.116,1.024M25.304,8.262h-.991l.182-1.09h.941c.892-.017.875,1.09-.132,1.09M25.964,3.854c-.611-.017-2.113,0-2.113,0h.017l-.875,5.465h2.542c1.04,0,2.575-1.535,1.189-2.807,1.42-1.486,0-2.642-.759-2.658"/>
        </g>
        <g>
          <path d="M70.095,8.105h-.53v-.179h1.272v.179h-.53v1.412h-.211v-1.412h-.001Z" />
          <path d="M71.014,7.926h.29l.501,1.337.503-1.337h.29v1.591h-.201v-1.323h-.004l-.497,1.323h-.181l-.497-1.323h-.004v1.323h-.201v-1.591h0Z" />
        </g>
      </g>
      <g>
        <path d="M129.578,22.634h.54v-2.975h-.54v2.975h0ZM126.063,19.659l-1.682,2.975h-.841v-2.975h.54v2.435l1.381-2.435h.603,0ZM128.084,20.099c.188,0,.364.038.515.126l-.251.427c-.082-.041-.172-.063-.264-.063-.289,0-.527.239-.527.527s.238.527.527.527c.088,0,.176-.025.251-.063l.251.427c-.151.088-.314.126-.502.126-.559.002-1.015-.449-1.017-1.008v-.009c-.002-.559.449-1.015,1.008-1.017h.009Z"  fill-rule="evenodd"/>
        <path d="M128.837,19.822c-.226-.126-.477-.201-.753-.201-.816,0-1.494.665-1.494,1.494s.678,1.494,1.494,1.494c.276,0,.527-.075.741-.188l.251.414c-.289.176-.628.264-.992.264-1.092,0-1.984-.891-1.984-1.983s.891-1.983,1.984-1.983c.364,0,.703.1,1.004.264l-.251.427h0v-.002Z"  fill-rule="evenodd"/>
        <path d="M126.828,25.81c1.594,0,4.494-.126,4.946-.163,1.255-.1,1.356-.615,1.419-1.506l.012-.063c.063-.929.088-2.875.088-2.963v-.088c0-.088-.025-2.034-.088-2.95l-.012-.075c-.063-.891-.163-1.406-1.419-1.506-.427-.025-3.276-.163-4.934-.163-1.67,0-4.519.138-4.946.163-1.255.1-1.356.615-1.419,1.506l-.012.075c-.063.916-.088,2.862-.088,2.95v.088c0,.088.025,2.034.088,2.963l.013.063c.063.891.163,1.406,1.419,1.506.452.038,3.352.163,4.933.163h0ZM126.841,16.822c1.569,0,4.444.126,4.896.163.904.075.916.264.967,1.055l.013.075c.063.904.088,2.9.088,2.912v.088c0,.025-.025,2.008-.088,2.925l-.013.063c-.05.804-.063.992-.967,1.055-.452.038-3.327.163-4.896.163-1.582,0-4.456-.125-4.908-.163-.904-.063-.916-.251-.967-1.055l-.013-.063c-.063-.916-.088-2.9-.088-2.925v-.088c0-.012.025-2.009.088-2.912l.013-.075c.05-.791.063-.979.967-1.055.452-.038,3.327-.163,4.908-.163h0ZM126.841,16.333h-.013.013Z"  fill-rule="evenodd"/>
        <path d="M126.828,24.467c1.142,0,3.578-.1,3.892-.125.942-.063,1.017-.465,1.055-1.117l.012-.05c.038-.64.063-2.009.063-2.071v-.063c0-.063-.025-1.419-.063-2.071l-.012-.05c-.038-.64-.113-1.042-1.055-1.117-.314-.025-2.749-.113-3.879-.113-1.142,0-3.578.088-3.879.113-.954.075-1.029.477-1.067,1.117l-.012.05c-.038.653-.063,2.009-.063,2.071v.063c0,.063.025,1.431.063,2.071l.013.05c.038.653.113,1.054,1.067,1.117.301.025,2.737.125,3.866.125h0ZM126.841,18.165c1.117,0,3.528.1,3.841.126.565.038.577.113.615.665v.05c.038.628.063,2.021.063,2.034v.063c0,.013-.025,1.406-.063,2.046v.038c-.038.552-.05.628-.615.678-.314.025-2.724.113-3.841.113-1.13,0-3.54-.088-3.854-.113-.565-.05-.565-.126-.615-.678v-.038c-.038-.64-.063-2.034-.063-2.046v-.063c0-.013.025-1.406.063-2.034v-.05c.05-.552.05-.628.615-.665.314-.025,2.724-.126,3.854-.126h0ZM126.841,17.688h-.013.013Z"  fill-rule="evenodd"/>
      </g>
      <g>
        <g>
          <path d="M6.475,19.959c.174-.038.425-.063.688-.063.358,0,.598.067.768.227.137.131.215.328.215.571,0,.365-.218.612-.454.705v.013c.181.075.287.272.347.545.081.353.147.68.195.789h-.465c-.037-.084-.1-.314-.166-.667-.074-.369-.188-.487-.447-.495h-.229v1.162h-.451v-2.786h0ZM6.927,21.205h.27c.307,0,.495-.185.495-.466,0-.307-.188-.453-.484-.453-.144,0-.236.013-.28.025v.894h0Z" />
          <path d="M8.993,21.943l-.214.802h-.47l.798-2.828h.58l.809,2.828h-.491l-.226-.802h-.786ZM9.706,21.553l-.196-.697c-.048-.172-.088-.364-.125-.528h-.008c-.037.164-.077.361-.118.528l-.191.697h.639,0Z" />
          <path d="M10.912,20.348h-.709v-.432h1.88v.432h-.717v2.396h-.454v-2.396Z" />
          <path d="M12.722,19.917v2.828h-.455v-2.828h.455Z" />
          <path d="M13.129,22.745v-2.828h.521l.643,1.213c.162.314.31.642.425.948h.007c-.033-.378-.04-.743-.04-1.175v-.986h.421v2.828h-.473l-.65-1.246c-.158-.311-.321-.654-.443-.974l-.015.004c.019.365.026.738.026,1.204v1.012h-.422Z" />
          <path d="M17.515,22.615c-.158.067-.469.159-.797.159-.421,0-.742-.122-.979-.378-.222-.239-.348-.612-.348-1.04.004-.898.562-1.469,1.385-1.469.307,0,.547.071.661.134l-.1.416c-.137-.071-.303-.122-.565-.122-.531,0-.904.356-.904,1.016,0,.642.347,1.023.864,1.023.166,0,.284-.024.343-.054v-.71h-.439v-.406h.879v1.431Z" />
          <path d="M18.453,21.05c0-.193.114-.331.28-.331s.277.134.277.331c0,.185-.111.327-.284.327-.159,0-.273-.143-.273-.327ZM18.453,22.464c0-.193.114-.331.28-.331s.277.134.277.331c0,.185-.111.327-.284.327-.159,0-.273-.143-.273-.327Z" />
          <path d="M19.931,22.212c.093.063.317.168.547.168.347,0,.483-.223.483-.437,0-.323-.27-.461-.547-.461h-.206v-.378h.206c.207,0,.473-.109.473-.378,0-.188-.118-.344-.384-.344-.195,0-.392.097-.491.172l-.104-.373c.137-.105.406-.21.691-.21.498,0,.749.311.749.667,0,.285-.147.521-.443.638v.009c.292.062.524.311.528.68,0,.461-.34.826-.935.826-.291,0-.542-.092-.672-.188l.104-.391h.001Z" />
          <path d="M22.383,22.745l-.806-2.828h.495l.34,1.288c.096.356.181.684.244,1.028h.007c.066-.336.159-.68.255-1.024l.362-1.292h.483l-.86,2.828h-.521.001Z" />
        </g>
        <g>
          <path d="M38.67,19.948c.145-.034.406-.063.665-.063.332,0,.543.05.709.181.155.105.259.291.259.535,0,.261-.145.497-.414.61v.013c.263.076.503.312.503.699,0,.253-.097.451-.236.59-.178.172-.47.261-.928.261-.251,0-.439-.021-.558-.038,0,0,0-2.788,0-2.788ZM39.121,21.068h.232c.317,0,.491-.168.491-.408,0-.27-.178-.392-.466-.392-.133,0-.21.009-.258.021v.779h0ZM39.121,22.369c.059.013.137.013.24.013.291,0,.554-.122.554-.472,0-.333-.255-.467-.569-.467h-.225v.926Z" />
          <path d="M41.177,21.94l-.214.804h-.47l.798-2.838h.58l.809,2.838h-.491l-.226-.804h-.786ZM41.89,21.548l-.196-.699c-.048-.173-.088-.367-.125-.531h-.008c-.037.164-.077.362-.118.531l-.191.699h.639,0Z" />
          <path d="M43.096,20.34h-.709v-.434h1.88v.434h-.717v2.405h-.454v-2.405Z" />
          <path d="M45.034,20.34h-.709v-.434h1.88v.434h-.717v2.405h-.454v-2.405Z" />
          <path d="M47.78,21.485h-.938v.834h1.048v.425h-1.503v-2.838h1.448v.425h-.993v.733h.938v.421Z" />
          <path d="M48.181,19.948c.174-.038.425-.063.688-.063.358,0,.598.067.768.227.137.131.215.329.215.573,0,.367-.218.615-.454.708v.013c.181.076.287.274.347.547.081.354.147.683.195.792h-.465c-.037-.084-.1-.316-.166-.669-.074-.371-.188-.489-.447-.497h-.229v1.167h-.451v-2.798ZM48.632,21.199h.27c.307,0,.495-.186.495-.468,0-.307-.188-.455-.484-.455-.144,0-.236.013-.28.025v.897h0Z" />
          <path d="M50.684,22.744v-1.184l-.786-1.655h.521l.295.729c.085.21.148.371.218.564h.008c.059-.181.129-.358.214-.564l.299-.729h.514l-.827,1.642v1.196h-.456Z" />
          <path d="M52.678,21.043c0-.194.114-.333.28-.333s.277.135.277.333c0,.185-.111.328-.284.328-.159,0-.273-.143-.273-.328ZM52.678,22.462c0-.194.114-.333.28-.333s.277.135.277.333c0,.186-.111.329-.284.329-.159,0-.273-.143-.273-.329Z" />
          <path d="M54.093,19.906h.455v2.405h1.022v.434h-1.478v-2.838h0Z" />
          <path d="M55.805,19.948c.174-.038.425-.063.688-.063.358,0,.598.067.768.227.137.131.215.329.215.573,0,.367-.219.615-.455.708v.013c.182.076.288.274.348.547.081.354.147.683.195.792h-.465c-.037-.084-.1-.316-.166-.669-.074-.371-.188-.489-.447-.497h-.229v1.167h-.451v-2.798ZM56.256,21.199h.27c.307,0,.494-.186.494-.468,0-.307-.188-.455-.483-.455-.144,0-.236.013-.28.025v.897h0Z" />
          <path d="M59.154,20.378c-.066-.004-.14,0-.229.013-.506.067-.746.417-.806.796h.012c.118-.156.299-.266.539-.266.413,0,.734.337.734.893,0,.522-.336.977-.846.977-.583,0-.904-.505-.904-1.184,0-.526.166-.952.417-1.221.218-.24.51-.375.854-.404.1-.017.173-.017.229-.013v.409ZM58.944,21.843c0-.32-.151-.543-.418-.543-.17,0-.321.118-.391.282-.019.042-.03.092-.03.164.008.362.155.657.454.657.233,0,.385-.231.385-.56Z" />
          <path d="M61.07,19.666c-.236.4-.413.956-.413,1.714,0,.745.181,1.297.413,1.701h-.328c-.215-.337-.451-.889-.451-1.701.004-.826.236-1.373.451-1.714h.328Z" />
          <path d="M61.825,21.94l-.214.804h-.47l.798-2.838h.58l.809,2.838h-.491l-.226-.804h-.786ZM62.537,21.548l-.196-.699c-.048-.173-.088-.367-.125-.531h-.008c-.037.164-.077.362-.118.531l-.191.699h.639,0Z" />
          <path d="M64.066,21.94l-.214.804h-.47l.798-2.838h.58l.809,2.838h-.491l-.226-.804h-.786ZM64.779,21.548l-.196-.699c-.048-.173-.088-.367-.125-.531h-.008c-.037.164-.077.362-.118.531l-.191.699h.639,0Z" />
          <path d="M65.65,23.081c.232-.4.413-.96.413-1.71s-.181-1.301-.413-1.706h.328c.215.333.451.88.451,1.706-.004.821-.236,1.369-.451,1.71h-.328Z" />
          <path d="M67.612,20.474h-.007l-.439.253-.078-.392.588-.328h.376v2.737h-.439v-2.27h0Z" />
          <path d="M68.8,22.458c0-.194.118-.333.28-.333.166,0,.281.135.281.333,0,.189-.111.333-.285.333-.162,0-.276-.143-.276-.333Z" />
          <path d="M71.061,20.437h-.923l-.07.547c.052-.008.1-.013.17-.013.21,0,.425.055.583.177.182.13.314.362.314.695,0,.522-.381.948-.968.948-.28,0-.514-.08-.639-.16l.092-.392c.104.063.311.143.528.143.266,0,.521-.172.521-.497,0-.315-.203-.522-.68-.522-.136,0-.236.013-.328.025l.155-1.381h1.244v.43h0Z" />
          <path d="M71.953,22.744l-.806-2.838h.495l.34,1.293c.096.358.181.686.244,1.032h.007c.066-.337.159-.683.255-1.028l.362-1.297h.483l-.86,2.838h-.521,0Z" />
          <path d="M73.781,20.694l.214.387c.059.109.11.21.162.316h.008c.052-.114.104-.219.158-.324l.2-.379h.494l-.602.985.613,1.065h-.518l-.218-.409c-.059-.109-.11-.219-.162-.333h-.008c-.052.118-.106.219-.162.333l-.207.409h-.502l.624-1.044-.602-1.006h.508Z" />
          <path d="M75.109,22.744v-.316l.284-.299c.564-.598.831-.927.834-1.289,0-.245-.114-.459-.428-.459-.215,0-.392.123-.514.228l-.133-.366c.174-.16.436-.282.738-.282.532,0,.79.383.79.83,0,.48-.303.868-.724,1.31l-.206.207v.008h.981v.43h-1.624l.002-.002Z" />
          <path d="M79.428,21.7c0,.754-.465,1.091-.923,1.091-.506,0-.901-.396-.901-1.057,0-.674.388-1.086.931-1.086.536,0,.894.429.894,1.053h0ZM78.074,21.721c0,.396.173.695.446.695.259,0,.439-.286.439-.703,0-.32-.125-.691-.436-.691-.321,0-.45.358-.45.699h0Z" />
          <path d="M79.694,21.355c0-.278-.004-.48-.016-.661h.392l.019.387h.012c.088-.286.299-.434.494-.434.045,0,.07.004.107.013v.484c-.041-.008-.081-.012-.137-.012-.214,0-.365.156-.406.392-.008.046-.011.101-.011.156v1.065h-.454v-1.39Z" />
          <path d="M81.568,22.744v-2.838h.521l.643,1.217c.162.316.31.645.425.952h.007c-.033-.379-.04-.746-.04-1.179v-.99h.421v2.838h-.473l-.65-1.251c-.158-.312-.321-.657-.443-.977l-.015.004c.019.366.026.741.026,1.208v1.015h-.422Z" />
          <path d="M84.448,20.121c0,.151-.1.278-.259.278-.151,0-.251-.126-.251-.278,0-.16.104-.282.255-.282.155,0,.251.122.255.282ZM83.964,22.744v-2.051h.454v2.051h-.454Z" />
          <path d="M86.919,21.586c-.015-.366-.033-.809-.029-1.192h-.012c-.081.345-.185.729-.295,1.086l-.365,1.23h-.348l-.332-1.213c-.097-.362-.185-.75-.251-1.104h-.008c-.011.371-.025.821-.044,1.209l-.056,1.141h-.425l.166-2.838h.599l.325,1.141c.088.333.166.67.229.985h.011c.066-.307.151-.657.248-.989l.343-1.137h.591l.145,2.838h-.443l-.048-1.158h0Z" />
          <path d="M88.22,19.906v1.137h1.052v-1.137h.454v2.838h-.454v-1.251h-1.052v1.251h-.455v-2.838h.455Z" />
          <path d="M90.885,19.826c-.236.4-.413.956-.413,1.714,0,.746.181,1.297.413,1.702h-.328c-.215-.337-.451-.889-.451-1.702.004-.825.236-1.373.451-1.714h.328Z" />
          <path d="M91.58,21.94l-.214.804h-.47l.798-2.838h.58l.809,2.838h-.491l-.226-.804h-.786ZM92.293,21.548l-.196-.699c-.048-.173-.088-.367-.125-.531h-.008c-.037.164-.077.362-.118.531l-.191.699h.639,0Z" />
          <path d="M95.239,22.614c-.158.067-.469.16-.797.16-.421,0-.742-.122-.979-.379-.222-.24-.348-.615-.348-1.044.004-.901.562-1.474,1.385-1.474.307,0,.547.072.661.135l-.1.417c-.137-.071-.303-.122-.565-.122-.531,0-.904.358-.904,1.019,0,.645.347,1.028.864,1.028.166,0,.284-.025.343-.055v-.712h-.439v-.408h.879v1.436h0Z" />
          <path d="M95.596,19.948c.145-.034.406-.063.665-.063.332,0,.543.05.709.181.155.105.259.291.259.535,0,.261-.145.497-.414.61v.013c.263.076.503.312.503.699,0,.253-.097.451-.236.59-.178.172-.47.261-.928.261-.251,0-.439-.021-.558-.038v-2.788ZM96.047,21.068h.232c.317,0,.491-.168.491-.408,0-.27-.178-.392-.466-.392-.133,0-.21.009-.258.021v.779h.001ZM96.047,22.369c.059.013.137.013.24.013.291,0,.554-.122.554-.472,0-.333-.255-.467-.569-.467h-.225v.926Z" />
          <path d="M98.44,21.443v.358h-.942v-.358h.942Z" />
          <path d="M100.294,21.355c0,.884-.303,1.436-.879,1.436-.55,0-.846-.573-.849-1.407,0-.855.317-1.423.879-1.423.579,0,.849.589.849,1.394ZM99.024,21.38c0,.669.159,1.015.406,1.015.27,0,.406-.371.406-1.027,0-.636-.129-1.011-.402-1.011-.24,0-.41.341-.41,1.023Z" />
          <path d="M102.165,21.355c0,.884-.303,1.436-.879,1.436-.55,0-.846-.573-.849-1.407,0-.855.317-1.423.879-1.423.579,0,.849.589.849,1.394ZM100.895,21.38c0,.669.159,1.015.406,1.015.27,0,.406-.371.406-1.027,0-.636-.129-1.011-.402-1.011-.24,0-.41.341-.41,1.023Z" />
          <path d="M102.434,22.21c.093.063.317.168.547.168.347,0,.483-.224.483-.438,0-.325-.27-.463-.547-.463h-.206v-.379h.206c.207,0,.473-.11.473-.379,0-.189-.118-.345-.384-.345-.195,0-.392.097-.491.173l-.104-.375c.137-.105.406-.21.691-.21.498,0,.749.312.749.669,0,.287-.147.522-.443.64v.008c.292.063.524.312.528.683,0,.463-.34.83-.935.83-.291,0-.542-.093-.672-.189l.104-.392h0Z" />
          <path d="M104.158,23.241c.232-.4.413-.96.413-1.71s-.181-1.301-.413-1.706h.328c.215.333.451.88.451,1.706-.004.821-.236,1.369-.451,1.71h-.328Z" />
          <path d="M105.215,22.744v-.316l.284-.299c.564-.598.831-.927.834-1.289,0-.245-.114-.459-.428-.459-.215,0-.392.123-.514.228l-.133-.366c.174-.16.436-.282.738-.282.532,0,.79.383.79.83,0,.48-.303.868-.724,1.31l-.206.207v.008h.981v.43h-1.624l.002-.002Z" />
          <path d="M107.116,22.458c0-.194.118-.333.28-.333.166,0,.281.135.281.333,0,.189-.111.333-.285.333-.162,0-.276-.143-.276-.333Z" />
          <path d="M108.848,22.744v-.695h-1.089v-.337l.982-1.706h.535v1.651h.311v.392h-.311v.695h-.429,0ZM108.848,21.658v-.746c0-.156.008-.312.015-.476h-.015c-.073.172-.137.312-.21.463l-.443.75v.008h.653Z" />
          <path d="M110.391,22.744l-.806-2.838h.495l.34,1.293c.096.358.181.686.244,1.032h.007c.066-.337.159-.683.255-1.028l.362-1.297h.483l-.86,2.838h-.521,0Z" />
          <path d="M114.279,21.7c0,.754-.465,1.091-.923,1.091-.506,0-.901-.396-.901-1.057,0-.674.388-1.086.931-1.086.535,0,.894.429.894,1.053h0ZM112.924,21.721c0,.396.173.695.446.695.259,0,.439-.286.439-.703,0-.32-.126-.691-.436-.691-.321,0-.45.358-.45.699h0Z" />
          <path d="M114.544,21.355c0-.278-.004-.48-.016-.661h.392l.019.387h.011c.089-.286.3-.434.495-.434.045,0,.07.004.107.013v.484c-.041-.008-.081-.012-.137-.012-.214,0-.365.156-.406.392-.008.046-.011.101-.011.156v1.065h-.454v-1.39Z" />
        </g>
        <g>
          <path d="M6.974,26.134l-.214.804h-.47l.798-2.838h.58l.809,2.838h-.491l-.226-.804h-.786ZM7.687,25.741l-.196-.699c-.048-.173-.088-.367-.125-.531h-.008c-.037.164-.077.362-.118.531l-.191.699h.639,0Z" />
          <path d="M8.716,24.137c.203-.034.455-.059.725-.059.465,0,.782.109,1.012.328.243.224.391.564.391,1.044,0,.51-.151.885-.388,1.129-.247.257-.643.387-1.126.387-.262,0-.462-.017-.613-.038v-2.792h0ZM9.171,26.546c.062.013.158.013.251.013.591.004.941-.371.941-1.091.004-.624-.314-.985-.883-.985-.144,0-.243.013-.31.029v2.034h.001Z" />
          <path d="M11.574,26.134l-.214.804h-.47l.798-2.838h.58l.809,2.838h-.491l-.226-.804h-.786ZM12.286,25.741l-.196-.699c-.048-.173-.088-.367-.125-.531h-.008c-.037.164-.077.362-.118.531l-.191.699h.639,0Z" />
          <path d="M13.316,24.137c.167-.034.392-.059.694-.059.333,0,.572.08.731.231.147.139.244.362.244.627,0,.27-.074.489-.211.64-.185.207-.465.308-.786.308-.085,0-.159-.004-.222-.021v1.074h-.451v-2.801h.001ZM13.767,25.455c.059.021.129.025.222.025.34,0,.546-.194.546-.522,0-.316-.191-.48-.506-.48-.125,0-.214.013-.262.025v.952Z" />
          <path d="M15.748,24.533h-.709v-.434h1.88v.434h-.717v2.405h-.454v-2.405Z" />
          <path d="M18.494,25.678h-.938v.834h1.048v.425h-1.503v-2.838h1.448v.425h-.993v.733h.938v.421Z" />
          <path d="M18.896,24.141c.174-.038.425-.063.688-.063.358,0,.598.067.768.227.137.131.215.329.215.573,0,.367-.218.615-.454.708v.013c.181.076.287.274.347.547.081.354.147.683.195.792h-.465c-.037-.084-.1-.316-.166-.669-.074-.371-.188-.489-.447-.497h-.229v1.167h-.451v-2.798ZM19.347,25.392h.27c.307,0,.495-.186.495-.468,0-.307-.188-.455-.484-.455-.144,0-.236.013-.28.025v.897h-.001Z" />
          <path d="M21.998,24.099v2.838h-.455v-2.838h.455Z" />
          <path d="M22.406,26.938v-2.838h.521l.643,1.217c.162.316.31.645.425.952h.007c-.033-.379-.04-.746-.04-1.179v-.99h.421v2.838h-.473l-.65-1.251c-.158-.312-.321-.657-.443-.977l-.015.004c.019.366.026.741.026,1.208v1.015h-.422Z" />
          <path d="M24.797,24.137c.167-.034.392-.059.694-.059.333,0,.572.08.731.231.147.139.244.362.244.627,0,.27-.074.489-.211.64-.185.207-.465.308-.786.308-.085,0-.159-.004-.222-.021v1.074h-.451v-2.801h0ZM25.248,25.455c.059.021.129.025.222.025.34,0,.546-.194.546-.522,0-.316-.191-.48-.506-.48-.125,0-.214.013-.262.025v.952Z" />
          <path d="M27.204,24.099v1.655c0,.556.203.813.51.813.328,0,.524-.257.524-.813v-1.655h.454v1.621c0,.876-.396,1.264-.994,1.264-.575,0-.948-.367-.948-1.259v-1.625h.454,0Z" />
          <path d="M29.581,24.533h-.709v-.434h1.88v.434h-.717v2.405h-.454v-2.405Z" />
          <path d="M31.517,25.237c0-.194.114-.333.28-.333s.277.135.277.333c0,.185-.111.328-.284.328-.159,0-.273-.143-.273-.328ZM31.517,26.655c0-.194.114-.333.28-.333s.277.135.277.333c0,.186-.111.329-.284.329-.159,0-.273-.143-.273-.329Z" />
          <path d="M32.995,26.403c.093.063.317.168.547.168.347,0,.483-.224.483-.438,0-.325-.27-.463-.547-.463h-.206v-.379h.206c.207,0,.473-.11.473-.379,0-.189-.118-.345-.384-.345-.195,0-.392.097-.491.173l-.104-.375c.137-.105.406-.21.691-.21.498,0,.749.312.749.669,0,.287-.147.522-.443.64v.008c.292.063.524.312.528.683,0,.463-.34.83-.935.83-.291,0-.542-.093-.672-.189l.104-.392h0Z" />
          <path d="M34.804,26.652c0-.194.118-.333.28-.333.166,0,.281.135.281.333,0,.189-.111.333-.285.333-.162,0-.276-.143-.276-.333Z" />
          <path d="M35.628,26.403c.093.063.317.168.547.168.347,0,.483-.224.483-.438,0-.325-.27-.463-.547-.463h-.206v-.379h.206c.207,0,.473-.11.473-.379,0-.189-.118-.345-.384-.345-.195,0-.392.097-.491.173l-.104-.375c.137-.105.406-.21.691-.21.498,0,.749.312.749.669,0,.287-.147.522-.443.64v.008c.292.063.524.312.528.683,0,.463-.34.83-.935.83-.291,0-.542-.093-.672-.189l.104-.392h.001Z" />
          <path d="M38.079,26.938l-.806-2.838h.495l.34,1.293c.096.358.181.686.244,1.032h.007c.066-.337.159-.683.255-1.028l.362-1.297h.483l-.86,2.838h-.521,0Z" />
          <path d="M43.437,26.403c.093.063.317.168.547.168.347,0,.483-.224.483-.438,0-.325-.27-.463-.547-.463h-.206v-.379h.206c.207,0,.473-.11.473-.379,0-.189-.118-.345-.384-.345-.195,0-.392.097-.491.173l-.104-.375c.137-.105.406-.21.691-.21.498,0,.749.312.749.669,0,.287-.147.522-.443.64v.008c.292.063.524.312.528.683,0,.463-.34.83-.935.83-.291,0-.542-.093-.672-.189l.104-.392h0Z" />
          <path d="M46.744,24.63h-.923l-.07.547c.052-.008.1-.013.17-.013.21,0,.425.055.583.177.182.13.314.362.314.695,0,.522-.381.948-.968.948-.28,0-.514-.08-.639-.16l.092-.392c.104.063.311.143.528.143.266,0,.521-.172.521-.497,0-.315-.203-.522-.68-.522-.136,0-.236.013-.328.025l.155-1.381h1.244v.43h.001Z" />
          <path d="M48.782,25.548c0,.884-.303,1.436-.879,1.436-.55,0-.846-.573-.849-1.407,0-.855.317-1.423.878-1.423.58,0,.85.589.85,1.394ZM47.511,25.573c0,.669.159,1.015.406,1.015.27,0,.406-.371.406-1.027,0-.636-.129-1.011-.402-1.011-.24,0-.41.341-.41,1.023Z" />
          <path d="M49.043,25.497c0-.236-.008-.434-.016-.61h.388l.022.303h.012c.084-.16.247-.35.554-.35.236,0,.421.151.498.379h.008c.062-.114.137-.198.218-.257.104-.08.218-.122.369-.122.295,0,.598.231.598.889v1.208h-.442v-1.133c0-.341-.104-.543-.321-.543-.155,0-.27.126-.317.274-.016.046-.022.114-.022.173v1.229h-.443v-1.188c0-.287-.1-.489-.31-.489-.17,0-.285.152-.329.291-.015.055-.022.114-.022.173v1.213h-.442v-1.44h-.003Z" />
          <path d="M52.585,26.134l-.214.804h-.47l.798-2.838h.58l.809,2.838h-.491l-.226-.804h-.786ZM53.298,25.741l-.196-.699c-.048-.173-.088-.367-.125-.531h-.008c-.037.164-.077.362-.118.531l-.191.699h.639,0Z" />
          <path d="M54.253,26.652c0-.194.118-.333.28-.333.166,0,.281.135.281.333,0,.189-.111.333-.285.333-.162,0-.276-.143-.276-.333Z" />
          <path d="M55.935,24.099v1.655c0,.556.203.813.51.813.328,0,.524-.257.524-.813v-1.655h.454v1.621c0,.876-.396,1.264-.994,1.264-.575,0-.948-.367-.948-1.259v-1.625h.454Z" />
          <path d="M57.828,26.373c.144.097.369.181.602.181.288,0,.451-.156.451-.387,0-.215-.126-.341-.439-.472-.414-.168-.676-.417-.676-.826,0-.467.34-.817.882-.817.27,0,.466.067.595.143l-.107.417c-.092-.055-.266-.135-.498-.135-.288,0-.41.173-.41.341,0,.219.145.32.477.467.432.185.639.434.639.842,0,.459-.303.855-.941.855-.266,0-.539-.084-.676-.181l.104-.43-.003.002Z" />
          <path d="M61.036,25.678h-.938v.834h1.048v.425h-1.503v-2.838h1.448v.425h-.993v.733h.938v.421Z" />
          <path d="M64.301,25.489c0,.952-.506,1.495-1.189,1.495-.705,0-1.148-.615-1.148-1.445,0-.876.483-1.491,1.186-1.491.724,0,1.152.627,1.152,1.44h0ZM62.444,25.527c0,.581.255,1.04.69,1.04.439,0,.687-.467.687-1.061,0-.535-.232-1.041-.687-1.041-.451,0-.69.476-.69,1.062Z" />
          <path d="M64.581,26.938v-2.838h.521l.643,1.217c.162.316.31.645.425.952h.007c-.033-.379-.04-.746-.04-1.179v-.99h.421v2.838h-.473l-.65-1.251c-.158-.312-.321-.657-.443-.977l-.015.004c.019.366.026.741.026,1.208v1.015h-.422Z" />
          <path d="M66.973,24.099h.455v2.405h1.022v.434h-1.478v-2.838h0Z" />
          <path d="M68.929,26.938v-1.184l-.786-1.655h.521l.295.729c.085.21.147.371.218.564h.008c.059-.181.129-.358.214-.564l.3-.729h.513l-.827,1.642v1.196h-.456Z" />
          <path d="M71.532,26.134l-.214.804h-.47l.798-2.838h.58l.809,2.838h-.491l-.226-.804h-.786ZM72.244,25.741l-.196-.699c-.048-.173-.088-.367-.125-.531h-.008c-.037.164-.077.362-.118.531l-.191.699h.639,0Z" />
          <path d="M75.19,26.807c-.158.067-.469.16-.797.16-.421,0-.742-.122-.979-.379-.222-.24-.348-.615-.348-1.044.004-.901.562-1.474,1.385-1.474.307,0,.547.072.661.135l-.1.417c-.137-.071-.303-.122-.565-.122-.531,0-.904.358-.904,1.019,0,.645.347,1.028.864,1.028.166,0,.284-.025.343-.055v-.712h-.439v-.408h.879v1.436h0Z" />
          <path d="M75.548,24.141c.145-.034.406-.063.665-.063.332,0,.543.05.709.181.155.105.259.291.259.535,0,.261-.145.497-.414.61v.013c.263.076.503.312.503.699,0,.253-.097.451-.236.59-.178.172-.47.261-.928.261-.251,0-.439-.021-.558-.038v-2.788ZM75.999,25.261h.232c.317,0,.491-.168.491-.408,0-.27-.178-.392-.466-.392-.133,0-.21.009-.258.021v.779h.001ZM75.999,26.563c.059.013.137.013.24.013.291,0,.554-.122.554-.472,0-.333-.255-.467-.569-.467h-.225v.926Z" />
          <path d="M78.358,25.321v.358h-.942v-.358h.942Z" />
          <path d="M80.212,25.548c0,.884-.303,1.436-.879,1.436-.55,0-.846-.573-.849-1.407,0-.855.317-1.423.879-1.423.579,0,.849.589.849,1.394ZM78.942,25.573c0,.669.159,1.015.406,1.015.27,0,.406-.371.406-1.027,0-.636-.129-1.011-.402-1.011-.24,0-.41.341-.41,1.023Z" />
          <path d="M82.083,25.548c0,.884-.303,1.436-.879,1.436-.55,0-.846-.573-.849-1.407,0-.855.317-1.423.879-1.423.579,0,.849.589.849,1.394ZM80.813,25.573c0,.669.159,1.015.406,1.015.27,0,.406-.371.406-1.027,0-.636-.129-1.011-.402-1.011-.24,0-.41.341-.41,1.023Z" />
          <path d="M82.677,25.51c-.251-.139-.365-.366-.365-.606,0-.446.347-.75.801-.75.521,0,.753.354.753.69,0,.232-.106.472-.369.619v.013c.263.114.458.35.458.691,0,.488-.361.817-.875.817-.562,0-.853-.371-.853-.754,0-.337.173-.568.45-.708v-.013h0ZM83.494,26.209c0-.278-.178-.43-.447-.514-.226.071-.354.252-.354.476-.008.236.147.446.402.446.24,0,.399-.172.399-.408ZM82.744,24.883c0,.223.162.358.392.43.166-.055.299-.207.299-.413,0-.19-.1-.388-.344-.388-.229,0-.347.173-.347.371Z" />
        </g>
        <g>
          <path d="M29.182,21.355c0,.884-.303,1.436-.879,1.436-.55,0-.846-.573-.849-1.407,0-.855.317-1.423.878-1.423.58,0,.85.589.85,1.394ZM27.912,21.381c0,.669.159,1.015.406,1.015.27,0,.406-.371.406-1.027,0-.636-.129-1.011-.402-1.011-.24,0-.41.341-.41,1.023Z" />
          <path d="M29.389,22.459c0-.194.118-.333.28-.333.166,0,.281.135.281.333,0,.189-.111.333-.285.333-.162,0-.276-.143-.276-.333Z" />
          <path d="M31.579,20.378c-.066-.004-.141,0-.229.013-.506.067-.746.417-.806.796h.012c.118-.156.299-.266.539-.266.413,0,.734.337.734.893,0,.522-.336.977-.846.977-.583,0-.904-.505-.904-1.184,0-.526.166-.952.417-1.221.218-.24.51-.375.854-.404.1-.017.173-.017.229-.013v.409ZM31.369,21.843c0-.32-.151-.543-.418-.543-.17,0-.321.118-.391.282-.019.042-.03.092-.03.164.008.362.155.657.454.657.233,0,.385-.231.385-.56Z" />
          <path d="M32.498,22.745l-.609-2.838h.483l.236,1.289c.062.345.122.708.162.99h.008c.041-.299.11-.636.181-.994l.27-1.284h.477l.247,1.305c.06.337.115.653.151.96h.008c.044-.312.104-.636.17-.985l.259-1.28h.461l-.672,2.838h-.483l-.259-1.335c-.062-.324-.107-.594-.141-.901h-.007c-.041.303-.089.577-.163.901l-.287,1.335h-.492Z" />
        </g>
        <rect x="24.283" y="19.895" width="2.291" height=".4" />
        <rect x="24.283" y="21.691" width=".386" height=".4" />
        <rect x="26.188" y="21.691" width=".386" height=".4" />
        <rect x="25.236" y="21.691" width=".386" height=".4" />
        <g>
          <path d="M13.2,17.584v-.377l.34-.356c.675-.712.992-1.104.996-1.536,0-.291-.137-.547-.511-.547-.256,0-.468.146-.613.271l-.159-.437c.208-.191.521-.336.882-.336.636,0,.944.457.944.989,0,.572-.361,1.034-.864,1.561l-.247.246v.011h1.173v.512h-1.941Z" />
          <path d="M17.455,15.927c0,1.054-.361,1.712-1.05,1.712-.657,0-1.01-.684-1.014-1.677,0-1.019.379-1.697,1.049-1.697.692,0,1.015.703,1.015,1.662ZM15.938,15.957c0,.798.19,1.209.485,1.209.322,0,.485-.441.485-1.225,0-.758-.154-1.205-.48-1.205-.287,0-.49.406-.49,1.22h0Z" />
          <path d="M19.687,15.927c0,1.054-.361,1.712-1.05,1.712-.657,0-1.01-.684-1.014-1.677,0-1.019.379-1.697,1.049-1.697.692,0,1.015.703,1.015,1.662ZM18.169,15.957c0,.798.19,1.209.485,1.209.322,0,.485-.441.485-1.225,0-.758-.154-1.205-.48-1.205-.287,0-.49.406-.49,1.22h0Z" />
          <path d="M21.917,15.927c0,1.054-.361,1.712-1.05,1.712-.657,0-1.01-.684-1.014-1.677,0-1.019.379-1.697,1.049-1.697.692,0,1.015.703,1.015,1.662ZM20.4,15.957c0,.798.19,1.209.485,1.209.322,0,.485-.441.485-1.225,0-.758-.154-1.205-.48-1.205-.287,0-.49.406-.49,1.22h0Z" />
          <path d="M23.244,17.584v-3.384h.622l.768,1.451c.193.376.37.768.507,1.135h.009c-.04-.452-.049-.889-.049-1.406v-1.18h.503v3.384h-.564l-.776-1.491c-.189-.371-.384-.783-.529-1.165l-.018.005c.022.437.031.883.031,1.44v1.21h-.504Z" />
          <path d="M26.706,14.456c0,.181-.119.331-.31.331-.181,0-.3-.15-.3-.331,0-.191.124-.336.305-.336.186,0,.3.146.305.336ZM26.128,17.584v-2.445h.542v2.445h-.542Z" />
          <path d="M27.152,15.867c0-.281-.009-.517-.018-.728h.472l.026.367h.014c.097-.191.33-.422.688-.422.375,0,.763.276.763,1.049v1.451h-.542v-1.38c0-.352-.114-.618-.41-.618-.216,0-.366.176-.423.361-.019.05-.027.125-.027.196v1.441h-.542v-1.717h0Z" />
          <path d="M30.168,14.511v.627h.516v.462h-.516v1.08c0,.301.07.451.277.451.098,0,.15-.005.212-.024l.009.467c-.079.035-.225.065-.393.065-.203,0-.366-.076-.468-.201-.118-.141-.172-.366-.172-.688v-1.15h-.304v-.462h.304v-.457l.534-.17h0Z" />
          <path d="M31.345,16.535c.013.441.312.632.661.632.252,0,.428-.045.596-.11l.079.422c-.186.091-.44.155-.75.155-.696,0-1.106-.486-1.106-1.234,0-.678.361-1.315,1.05-1.315.696,0,.926.652.926,1.19,0,.115-.009.206-.018.261h-1.438,0ZM32.288,16.103c.005-.226-.084-.597-.445-.597-.335,0-.477.346-.498.597h.943Z" />
          <path d="M33.131,15.867c0-.281-.009-.517-.018-.728h.472l.026.367h.014c.097-.191.33-.422.688-.422.375,0,.763.276.763,1.049v1.451h-.542v-1.38c0-.352-.114-.618-.41-.618-.216,0-.366.176-.423.361-.019.05-.027.125-.027.196v1.441h-.542v-1.717h0Z" />
          <path d="M37.528,14.019v2.877c0,.251.009.521.018.688h-.481l-.026-.387h-.009c-.128.271-.388.442-.696.442-.517,0-.922-.497-.922-1.25-.004-.818.445-1.305.961-1.305.296,0,.508.136.604.316h.009v-1.381h.543,0ZM36.985,16.158c0-.05-.004-.115-.013-.166-.049-.236-.221-.432-.468-.432-.349,0-.542.351-.542.803s.193.778.537.778c.221,0,.415-.171.468-.438.014-.055.018-.115.018-.181v-.366.002Z" />
          <path d="M40.045,16.339c0,.898-.556,1.301-1.103,1.301-.604,0-1.076-.473-1.076-1.261,0-.803.463-1.295,1.111-1.295.64,0,1.067.512,1.067,1.255h0ZM38.427,16.364c0,.472.207.828.533.828.309,0,.524-.342.524-.838,0-.381-.149-.823-.521-.823-.383,0-.537.427-.537.833h0Z" />
        </g>
        <g>
          <path d="M41.805,14.208c.198-.04.467-.07.829-.07.396,0,.683.095.873.276.176.166.291.432.291.748,0,.321-.089.583-.252.763-.221.246-.556.367-.939.367-.101,0-.189-.005-.264-.025v1.28h-.538v-3.338h0ZM42.343,15.779c.07.025.154.03.264.03.406,0,.653-.231.653-.623,0-.376-.229-.572-.604-.572-.149,0-.256.015-.312.03v1.135h0Z" />
          <path d="M45.747,16.959c0,.221.009.437.035.587h-.489l-.04-.271h-.013c-.128.191-.354.326-.636.326-.432,0-.674-.356-.674-.728,0-.612.48-.929,1.274-.923v-.041c0-.161-.058-.427-.438-.427-.211,0-.432.076-.577.181l-.105-.402c.158-.11.437-.216.775-.216.688,0,.887.497.887,1.034v.88ZM45.218,16.351c-.384-.005-.75.085-.75.457,0,.241.137.351.309.351.221,0,.375-.161.429-.336.013-.045.013-.091.013-.136v-.336h0Z" />
          <path d="M46.841,14.474v.627h.516v.462h-.516v1.079c0,.301.07.452.277.452.098,0,.15-.005.212-.025l.009.467c-.079.035-.225.065-.393.065-.203,0-.366-.075-.468-.201-.118-.141-.172-.367-.172-.688v-1.149h-.304v-.462h.304v-.457l.534-.17h0Z" />
          <path d="M48.049,16.497c.013.442.313.633.661.633.252,0,.428-.045.596-.111l.079.422c-.186.09-.44.156-.75.156-.696,0-1.106-.487-1.106-1.235,0-.678.361-1.315,1.05-1.315.696,0,.926.652.926,1.19,0,.115-.009.206-.018.261h-1.438,0ZM48.993,16.065c.005-.226-.084-.597-.445-.597-.335,0-.477.346-.498.597h.943Z" />
          <path d="M49.866,15.829c0-.281-.009-.517-.018-.728h.472l.026.367h.014c.097-.191.33-.422.688-.422.375,0,.763.276.763,1.049v1.451h-.542v-1.38c0-.352-.114-.618-.41-.618-.216,0-.366.176-.423.361-.019.05-.027.125-.027.196v1.441h-.542v-1.717h0Z" />
          <path d="M52.912,14.474v.627h.516v.462h-.516v1.079c0,.301.07.452.277.452.098,0,.15-.005.212-.025l.009.467c-.079.035-.225.065-.393.065-.203,0-.366-.075-.468-.201-.118-.141-.172-.367-.172-.688v-1.149h-.304v-.462h.304v-.457l.534-.17h0Z" />
          <path d="M53.741,16.974c.119.085.354.181.547.181.238,0,.345-.115.345-.276,0-.166-.089-.246-.354-.356-.419-.161-.591-.422-.591-.713,0-.432.313-.763.812-.763.238,0,.445.065.573.146l-.11.432c-.088-.06-.265-.141-.454-.141-.194,0-.3.111-.3.261,0,.156.102.226.375.341.393.156.568.382.573.743,0,.447-.305.768-.873.768-.261,0-.494-.07-.652-.171,0,0,.109-.452.109-.452Z" />
          <path d="M56.943,14.419c0,.181-.119.331-.31.331-.181,0-.3-.15-.3-.331,0-.191.124-.336.305-.336.186,0,.3.146.305.336ZM56.365,17.546v-2.445h.542v2.445h-.542Z" />
          <path d="M57.397,16.974c.119.085.354.181.547.181.238,0,.345-.115.345-.276,0-.166-.089-.246-.354-.356-.419-.161-.591-.422-.591-.713,0-.432.313-.763.812-.763.238,0,.445.065.573.146l-.11.432c-.088-.06-.265-.141-.454-.141-.194,0-.3.111-.3.261,0,.156.102.226.375.341.393.156.568.382.573.743,0,.447-.305.768-.873.768-.261,0-.494-.07-.652-.171,0,0,.109-.452.109-.452Z" />
          <path d="M59.161,16.974c.119.085.354.181.547.181.238,0,.345-.115.345-.276,0-.166-.089-.246-.354-.356-.419-.161-.591-.422-.591-.713,0-.432.313-.763.812-.763.238,0,.445.065.573.146l-.11.432c-.088-.06-.265-.141-.454-.141-.194,0-.3.111-.3.261,0,.156.102.226.375.341.393.156.568.382.573.743,0,.447-.305.768-.873.768-.261,0-.494-.07-.652-.171,0,0,.109-.452.109-.452Z" />
          <path d="M62.869,16.813c0,.291.009.532.018.733h-.472l-.026-.367h-.014c-.093.171-.304.422-.692.422s-.745-.266-.745-1.064v-1.436h.542v1.331c0,.406.115.667.401.667.221,0,.362-.171.415-.332.021-.05.03-.12.03-.19v-1.476h.543v1.712Z" />
          <path d="M63.764,16.497c.013.442.313.633.661.633.252,0,.428-.045.596-.111l.079.422c-.186.09-.44.156-.75.156-.696,0-1.106-.487-1.106-1.235,0-.678.361-1.315,1.05-1.315.696,0,.926.652.926,1.19,0,.115-.009.206-.018.261h-1.438ZM64.707,16.065c.005-.226-.084-.597-.445-.597-.335,0-.477.346-.498.597h.943Z" />
          <path d="M67.562,13.982v2.876c0,.251.009.522.018.688h-.481l-.026-.387h-.009c-.128.271-.388.442-.696.442-.517,0-.922-.497-.922-1.25-.004-.818.445-1.305.961-1.305.296,0,.508.136.604.316h.009v-1.381h.543,0ZM67.019,16.12c0-.05-.004-.115-.013-.166-.049-.236-.221-.432-.468-.432-.349,0-.543.351-.543.803s.194.778.538.778c.221,0,.415-.17.468-.437.014-.055.018-.116.018-.181v-.367.002Z" />
          <path d="M70.573,16.959c0,.221.009.437.035.587h-.489l-.04-.271h-.013c-.128.191-.354.326-.636.326-.432,0-.675-.356-.675-.728,0-.612.481-.929,1.275-.923v-.041c0-.161-.058-.427-.438-.427-.211,0-.432.076-.577.181l-.105-.402c.158-.11.437-.216.775-.216.688,0,.887.497.887,1.034v.88ZM70.043,16.351c-.384-.005-.75.085-.75.457,0,.241.137.351.31.351.22,0,.374-.161.428-.336.013-.045.013-.091.013-.136v-.336h0Z" />
          <path d="M71.071,15.829c0-.281-.009-.517-.018-.728h.472l.026.367h.014c.097-.191.33-.422.688-.422.375,0,.763.276.763,1.049v1.451h-.542v-1.38c0-.352-.114-.618-.41-.618-.216,0-.366.176-.423.361-.019.05-.027.125-.027.196v1.441h-.542v-1.717h-.001Z" />
          <path d="M75.498,13.982v2.876c0,.251.009.522.018.688h-.481l-.026-.387h-.009c-.128.271-.388.442-.696.442-.517,0-.922-.497-.922-1.25-.004-.818.445-1.305.961-1.305.296,0,.508.136.604.316h.009v-1.381h.543,0ZM74.955,16.12c0-.05-.004-.115-.013-.166-.049-.236-.221-.432-.468-.432-.349,0-.542.351-.542.803s.193.778.537.778c.221,0,.415-.17.468-.437.014-.055.018-.116.018-.181v-.367.002Z" />
          <path d="M76.839,14.208c.198-.04.467-.07.829-.07.396,0,.683.095.873.276.176.166.291.432.291.748,0,.321-.089.583-.252.763-.22.246-.556.367-.939.367-.101,0-.189-.005-.264-.025v1.28h-.538v-3.338h0ZM77.377,15.779c.07.025.154.03.264.03.406,0,.653-.231.653-.623,0-.376-.229-.572-.604-.572-.149,0-.256.015-.312.03v1.135h-.001Z" />
          <path d="M79.48,16.497c.013.442.312.633.661.633.252,0,.428-.045.596-.111l.079.422c-.186.09-.44.156-.75.156-.696,0-1.106-.487-1.106-1.235,0-.678.361-1.315,1.05-1.315.696,0,.926.652.926,1.19,0,.115-.009.206-.018.261h-1.438ZM80.423,16.065c.005-.226-.084-.597-.445-.597-.335,0-.477.346-.498.597h.943Z" />
          <path d="M81.296,15.829c0-.281-.009-.517-.018-.728h.472l.026.367h.014c.097-.191.33-.422.688-.422.375,0,.763.276.763,1.049v1.451h-.542v-1.38c0-.352-.114-.618-.41-.618-.216,0-.366.176-.423.361-.019.05-.027.125-.027.196v1.441h-.542v-1.717h-.001Z" />
          <path d="M85.724,13.982v2.876c0,.251.009.522.018.688h-.481l-.026-.387h-.009c-.128.271-.388.442-.696.442-.517,0-.922-.497-.922-1.25-.004-.818.445-1.305.961-1.305.296,0,.508.136.604.316h.009v-1.381h.543,0ZM85.181,16.12c0-.05-.004-.115-.013-.166-.049-.236-.221-.432-.468-.432-.349,0-.543.351-.543.803s.194.778.538.778c.221,0,.415-.17.468-.437.014-.055.018-.116.018-.181v-.367.002Z" />
          <path d="M86.809,14.419c0,.181-.119.331-.31.331-.181,0-.3-.15-.3-.331,0-.191.124-.336.305-.336.186,0,.3.146.305.336ZM86.231,17.546v-2.445h.542v2.445h-.542Z" />
          <path d="M87.285,15.829c0-.281-.009-.517-.018-.728h.472l.026.367h.014c.097-.191.33-.422.688-.422.375,0,.763.276.763,1.049v1.451h-.542v-1.38c0-.352-.114-.618-.41-.618-.216,0-.366.176-.423.361-.019.05-.027.125-.027.196v1.441h-.542v-1.717h-.001Z" />
          <path d="M91.676,17.19c0,.512-.092.878-.317,1.109-.22.226-.533.296-.829.296-.273,0-.564-.07-.749-.196l.119-.467c.137.09.365.186.626.186.353,0,.617-.211.617-.738v-.211h-.009c-.123.216-.34.361-.626.361-.534,0-.913-.502-.913-1.195,0-.803.459-1.29.975-1.29.331,0,.521.181.622.381h.009l.021-.326h.472c-.009.166-.018.367-.018.703v1.386h0ZM91.134,16.08c0-.061-.005-.116-.018-.166-.058-.226-.212-.397-.441-.397-.304,0-.529.301-.529.798,0,.417.186.753.525.753.203,0,.379-.15.44-.376.018-.06.022-.146.022-.216v-.396h0Z" />
          <path d="M91.858,18.154c.119-.381.238-.909.296-1.325l.568-.05c-.128.472-.321,1.014-.494,1.335,0,0-.37.04-.37.04Z" />
          <path d="M93.551,16.873c.172.116.44.216.719.216.344,0,.538-.186.538-.461,0-.256-.15-.407-.525-.562-.494-.201-.807-.497-.807-.984,0-.557.405-.974,1.054-.974.322,0,.556.081.71.171l-.128.497c-.11-.065-.317-.161-.595-.161-.345,0-.49.206-.49.407,0,.261.172.381.569.557.516.221.763.517.763,1.004,0,.547-.361,1.019-1.125,1.019-.317,0-.644-.101-.807-.216l.124-.512h0Z" />
          <path d="M96.161,16.497c.013.442.312.633.661.633.252,0,.428-.045.596-.111l.079.422c-.186.09-.44.156-.75.156-.696,0-1.106-.487-1.106-1.235,0-.678.361-1.315,1.05-1.315.696,0,.926.652.926,1.19,0,.115-.009.206-.018.261h-1.438ZM97.105,16.065c.005-.226-.084-.597-.445-.597-.335,0-.477.346-.498.597h.943Z" />
          <path d="M98.362,16.497c.013.442.313.633.661.633.252,0,.428-.045.596-.111l.079.422c-.186.09-.44.156-.75.156-.696,0-1.106-.487-1.106-1.235,0-.678.361-1.315,1.05-1.315.696,0,.926.652.926,1.19,0,.115-.009.206-.018.261h-1.438ZM99.305,16.065c.005-.226-.084-.597-.445-.597-.335,0-.477.346-.498.597h.943Z" />
          <path d="M101.016,13.982h.542v1.456h.009c.133-.236.366-.392.688-.392.524,0,.899.497.896,1.24,0,.879-.49,1.315-.975,1.315-.278,0-.525-.121-.68-.422h-.009l-.026.367h-.463c.009-.166.018-.437.018-.688,0,0,0-2.876,0-2.876ZM101.558,16.537c0,.05.005.101.014.146.058.251.247.432.48.432.34,0,.547-.306.547-.803,0-.432-.181-.783-.542-.783-.221,0-.424.181-.48.452-.01.045-.019.101-.019.161v.396h0Z" />
          <path d="M105.563,16.301c0,.899-.556,1.3-1.103,1.3-.604,0-1.076-.472-1.076-1.26,0-.803.463-1.295,1.111-1.295.64,0,1.067.512,1.067,1.255h0ZM103.945,16.326c0,.472.207.828.533.828.309,0,.524-.341.524-.838,0-.381-.149-.823-.521-.823-.383,0-.537.427-.537.833h.001Z" />
          <path d="M107.975,16.301c0,.899-.556,1.3-1.103,1.3-.604,0-1.076-.472-1.076-1.26,0-.803.463-1.295,1.111-1.295.64,0,1.067.512,1.067,1.255h0ZM106.357,16.326c0,.472.207.828.533.828.309,0,.524-.341.524-.838,0-.381-.149-.823-.521-.823-.383,0-.537.427-.537.833h.001Z" />
          <path d="M108.886,16.175h.009c.054-.095.115-.201.168-.286l.524-.788h.653l-.799.999.909,1.446h-.666l-.617-1.079-.182.246v.833h-.542v-3.564h.542v2.194h0Z" />
          <path d="M110.576,13.982h.542v3.564h-.542v-3.564Z" />
          <path d="M112.018,16.497c.013.442.313.633.661.633.252,0,.428-.045.596-.111l.079.422c-.186.09-.44.156-.75.156-.696,0-1.106-.487-1.106-1.235,0-.678.361-1.315,1.05-1.315.696,0,.926.652.926,1.19,0,.115-.009.206-.018.261h-1.438ZM112.961,16.065c.005-.226-.084-.597-.445-.597-.335,0-.477.346-.498.597h.943Z" />
          <path d="M114.456,14.474v.627h.516v.462h-.516v1.079c0,.301.07.452.277.452.098,0,.15-.005.212-.025l.009.467c-.079.035-.225.065-.393.065-.203,0-.366-.075-.468-.201-.118-.141-.172-.367-.172-.688v-1.149h-.304v-.462h.304v-.457l.534-.17h0Z" />
          <path d="M115.214,17.205c0-.231.142-.396.335-.396.199,0,.336.161.336.396,0,.226-.133.396-.34.396-.194,0-.331-.17-.331-.396Z" />
        </g>
        <path d="M5.473,13.941c1.039,0,1.885.846,1.885,1.885s-.846,1.885-1.885,1.885-1.885-.846-1.885-1.885.846-1.885,1.885-1.885M5.473,13.67c-1.191,0-2.156.966-2.156,2.157s.966,2.157,2.156,2.157,2.157-.966,2.157-2.157-.966-2.157-2.157-2.157h0Z" />
        <path d="M6.195,17.023c-.103.053-.333.113-.627.113-.767,0-1.233-.504-1.233-1.279,0-.836.556-1.34,1.294-1.34.291,0,.495.064.585.113l-.094.369c-.115-.053-.275-.098-.473-.098-.49,0-.845.324-.845.934,0,.56.309.914.842.914.175,0,.362-.038.481-.09l.071.365h0Z" />
        <path d="M10.598,13.941c1.04,0,1.886.846,1.886,1.886s-.846,1.886-1.886,1.886-1.886-.846-1.886-1.886.846-1.886,1.886-1.886M10.598,13.67c-1.191,0-2.157.966-2.157,2.157s.966,2.157,2.157,2.157,2.157-.966,2.157-2.157-.966-2.157-2.157-2.157h0Z" />
        <path d="M11.313,16.05c-.013-.313-.028-.691-.025-1.019h-.009c-.07.296-.159.623-.253.929l-.313,1.052h-.297l-.285-1.037c-.082-.31-.157-.641-.215-.944h-.006c-.009.317-.022.702-.038,1.033l-.048.976h-.363l.142-2.427h.512l.278.976c.076.284.142.573.196.843h.009c.056-.263.129-.562.212-.846l.294-.972h.506l.123,2.427h-.38l-.041-.99h.001Z" />
        <rect x="40.045" y="24.845" width="2.291" height=".4" />
        <rect x="40.045" y="25.885" width=".386" height=".4" />
        <rect x="41.95" y="25.885" width=".386" height=".4" />
        <rect x="40.997" y="25.885" width=".386" height=".4" />
      </g>
      <g>
        <path d="M169.879,34.506l-.138.56h-.447l.585-2.181h.57l.6,2.181h-.472l-.148-.56h-.55ZM170.367,34.137l-.119-.462c-.035-.13-.069-.292-.098-.421h-.006c-.028.129-.057.294-.088.421l-.114.462h.425Z" />
        <path d="M173.007,34.965c-.134.052-.389.123-.643.123-.351,0-.604-.1-.781-.291-.174-.19-.271-.476-.271-.796.003-.725.468-1.139,1.099-1.139.248,0,.439.056.534.104l-.092.398c-.105-.056-.234-.094-.445-.094-.362,0-.639.229-.639.705,0,.452.251.715.607.715.097,0,.177-.013.211-.029v-.459h-.297v-.386h.717v1.148h0Z" />
        <path d="M173.516,32.914c.114-.022.342-.045.562-.045.266,0,.429.029.571.123.134.08.229.229.229.43,0,.191-.101.369-.317.463v.007c.22.064.383.255.383.533,0,.2-.08.356-.2.466-.14.126-.374.197-.756.197-.214,0-.374-.016-.471-.032v-2.142h-.001ZM173.947,33.749h.143c.231,0,.352-.106.352-.269,0-.165-.111-.252-.309-.252-.097,0-.151.006-.186.013v.508ZM173.947,34.716c.043.007.094.007.168.007.197,0,.371-.088.371-.317,0-.217-.174-.304-.391-.304h-.148v.614Z" />
        <path d="M176.053,33.811v.326h-.747v-.326h.747Z" />
        <path d="M176.874,32.885h.434v1.379c0,.621-.263.837-.683.837-.103,0-.233-.019-.319-.052l.049-.397c.06.022.137.039.223.039.183,0,.297-.094.297-.431v-1.375h-.001Z" />
        <path d="M177.839,32.914c.134-.025.322-.045.588-.045.268,0,.459.058.588.175.125.109.205.291.205.504s-.06.398-.177.518c-.148.155-.368.23-.625.23-.057,0-.108-.004-.148-.014v.783h-.431v-2.151ZM178.27,33.904c.037.01.08.013.146.013.231,0,.374-.133.374-.353,0-.2-.123-.32-.343-.32-.085,0-.146.007-.177.017v.644h0Z" />
        <path d="M179.666,35.066v-2.181h.508l.399.8c.114.229.226.501.313.747h.006c-.025-.288-.034-.582-.034-.912v-.635h.399v2.181h-.456l-.411-.841c-.114-.233-.242-.515-.334-.771h-.012c.015.292.021.599.021.955v.656h-.399Z" />
      </g>
      <g>
        <g>
          <path d="M76.858,8.432c-.012-.392-.024-.866-.024-1.34h-.008c-.09.416-.204.88-.31,1.263l-.334,1.272h-.485l-.293-1.258c-.09-.387-.18-.851-.249-1.277h-.008c-.012.44-.028.943-.045,1.35l-.053,1.238h-.574l.175-3.26h.827l.269,1.088c.09.377.172.784.232,1.166h.017c.073-.377.167-.808.261-1.17l.289-1.083h.814l.147,3.26h-.604l-.045-1.248h0Z" />
          <path d="M80.494,8.016c0,1.074-.541,1.717-1.348,1.717-.812,0-1.292-.73-1.292-1.664,0-.977.529-1.708,1.336-1.708.844,0,1.304.75,1.304,1.654h0ZM78.51,8.054c0,.644.252,1.093.668,1.093.42,0,.66-.474.66-1.107,0-.59-.232-1.093-.66-1.093-.424,0-.668.474-.668,1.107Z" />
          <path d="M80.9,6.468c.229-.043.526-.072.836-.072.525,0,.867.116,1.128.348.285.251.465.653.465,1.229,0,.624-.191,1.055-.452,1.32-.289.286-.733.421-1.271.421-.322,0-.554-.024-.705-.048v-3.197h0ZM81.519,9.124c.054.015.143.015.217.015.565.004.937-.363.937-1.142,0-.677-.334-1.035-.872-1.035-.134,0-.228.014-.281.029v2.133h0Z" />
          <path d="M85.368,8.301h-1.01v.774h1.128v.604h-1.747v-3.26h1.69v.604h-1.071v.677h1.01v.6h0Z" />
          <path d="M85.912,6.42h.619v2.641h1.092v.619h-1.711s0-3.26,0-3.26Z" />
          <path d="M88.811,9.68v-3.26h.726l.57,1.195c.163.343.322.75.448,1.117h.008c-.036-.43-.049-.871-.049-1.364v-.948h.57v3.26h-.651l-.587-1.258c-.163-.348-.347-.769-.477-1.151h-.017c.021.435.028.895.028,1.427v.982h-.57,0Z" />
          <path d="M94.134,8.016c0,1.074-.541,1.717-1.348,1.717-.812,0-1.292-.73-1.292-1.664,0-.977.529-1.708,1.336-1.708.844,0,1.304.75,1.304,1.654h0ZM92.151,8.054c0,.644.252,1.093.668,1.093.42,0,.66-.474.66-1.107,0-.59-.232-1.093-.66-1.093-.424,0-.668.474-.668,1.107Z" />
          <path d="M94.195,9.588c0-.266.15-.45.366-.45.212,0,.358.179.362.45,0,.256-.146.445-.37.445-.208,0-.358-.188-.358-.445Z" />
        </g>
        <g>
          <path d="M96.247,8.72l-.245.958h-.8l1.045-3.733h1.02l1.069,3.733h-.841l-.265-.958h-.983,0ZM97.119,8.088l-.214-.792c-.062-.222-.122-.499-.173-.72h-.011c-.051.222-.102.504-.158.72l-.203.792s.759,0,.759,0Z" />
          <path d="M101.535,9.506c-.24.089-.693.21-1.147.21-.627,0-1.08-.171-1.396-.499-.311-.327-.483-.814-.483-1.362.005-1.241.836-1.95,1.962-1.95.443,0,.785.094.953.177l-.163.681c-.188-.094-.418-.161-.795-.161-.647,0-1.142.394-1.142,1.208,0,.775.448,1.224,1.085,1.224.174,0,.316-.022.377-.05v-.787h-.529v-.659h1.279v1.968Z" />
          <path d="M102.142,5.994c.204-.039.612-.077,1.005-.077.474,0,.764.05,1.019.21.24.138.408.393.408.736,0,.327-.179.632-.566.792v.011c.393.111.684.438.684.914,0,.343-.143.609-.357.797-.249.216-.667.338-1.35.338-.383,0-.668-.027-.842-.055v-3.667h0ZM102.911,7.424h.255c.413,0,.627-.183.627-.459,0-.283-.198-.432-.55-.432-.174,0-.271.011-.332.022v.87h0ZM102.911,9.08c.077.011.169.011.301.011.352,0,.663-.15.663-.543,0-.371-.312-.521-.698-.521h-.266v1.052h0Z" />
        </g>
        <rect x="105.054" y="8.046" width="1.257" height=".463" />
        <g>
          <path d="M109.906,7.788c0,1.219-.668,1.95-1.662,1.95s-1.591-.83-1.591-1.89c0-1.11.652-1.939,1.646-1.939,1.039,0,1.606.851,1.606,1.878h0ZM107.461,7.832c0,.73.311,1.242.823,1.242.517,0,.812-.539.812-1.258,0-.67-.286-1.241-.812-1.241-.522,0-.823.538-.823,1.258h0Z" />
          <path d="M113.506,7.788c0,1.219-.668,1.95-1.661,1.95-.999,0-1.592-.83-1.592-1.89,0-1.11.652-1.939,1.646-1.939,1.039,0,1.606.851,1.606,1.878h0ZM111.062,7.832c0,.73.311,1.242.823,1.242.517,0,.812-.539.812-1.258,0-.67-.286-1.241-.812-1.241-.522,0-.823.538-.823,1.258h0Z" />
          <path d="M115.011,6.77h-.011l-.7.333-.142-.644.978-.452h.705v3.67h-.83v-2.908h0Z" />
        </g>
        <rect x="117.701" y="2.778" width="70.752" height="10.861"/>
      </g>
      <g fill="#231f20" data-background="background">
        <text transform="translate(119.225 12.297) scale(.81 1)" class="serial" style="letter-spacing: -1.2pt;" data-serial-part="prefix">AB</text>
        <text transform="translate(128.684 12.297)" class="serial" style="letter-spacing: -0.87pt;" data-serial-part="numbers">123456789</text>
      </g>
    </g>
  </g>
</svg>