<?xml version="1.0" encoding="UTF-8"?>
<svg id="Layer_1" xmlns="http://www.w3.org/2000/svg" width="67.588mm" height="13.688mm" version="1.1" viewBox="0 0 191.588 38.801">
  <g fill="#595a5c" data-background="background">
    <path d="M187.495.125H4.093C1.901.125.125,1.901.125,4.093v8.81c0,1.113.168,2.219.498,3.281l6.653,21.404c.201.647.8,1.088,1.477,1.088h59.279c2.192,0,3.969-1.777,3.969-3.969v-.419c0-2.192,1.777-3.969,3.969-3.969h39.078c2.192,0,3.969,1.777,3.969,3.969v.419c0,2.192,1.777,3.969,3.969,3.969h59.852c.677,0,1.276-.441,1.477-1.088l6.653-21.404c.33-1.062.498-2.169.498-3.281V4.093c0-2.192-1.777-3.969-3.969-3.969Z"/>
  </g>
  <g fill="none" stroke="none" stroke-width="0.25pt" stroke-dasharray="0.9pt" data-stroke="stroke">
    <path d="M187.495.125H4.093C1.901.125.125,1.901.125,4.093v8.81c0,1.113.168,2.219.498,3.281l6.653,21.404c.201.647.8,1.088,1.477,1.088h59.279c2.192,0,3.969-1.777,3.969-3.969v-.419c0-2.192,1.777-3.969,3.969-3.969h39.078c2.192,0,3.969,1.777,3.969,3.969v.419c0,2.192,1.777,3.969,3.969,3.969h59.852c.677,0,1.276-.441,1.477-1.088l6.653-21.404c.33-1.062.498-2.169.498-3.281V4.093c0-2.192-1.777-3.969-3.969-3.969Z"/>
  </g>
  <g fill="#ffffff" data-foreground="foreground">
    <rect x="2.914" y="10.296" width="185.761" height=".5"/>
    <g>
      <path d="M48.303,7.352h-1.174v-2.386h1.667c.89,0,1.326.36,1.326,1.136,0,.947-.473,1.25-1.818,1.25M56.504,3.962h-1.364l-.038.076-1.534,2.822-1.648-2.822-.038-.057h-1.458l.114.189.284.455c-.455-.436-1.136-.663-2.027-.663h-2.936v3.674l-2.178-3.599-.038-.057h-1.117l-.038.057-2.481,4.167-.114.189h3.125v-.985h-1.269l1.269-2.292,1.799,3.201.038.057h3.655c1.913,0,2.898-.758,2.898-2.235,0-.265-.038-.492-.095-.701l1.742,2.879.038.057h.852l.038-.057,2.405-4.167.114-.189"/>
      <polyline points="64.97 3.962 64.837 3.962 64.837 6.594 61.523 3.999 61.485 3.962 60.614 3.962 60.614 7.636 58.436 4.037 58.398 3.962 57.28 3.962 57.243 4.037 54.761 8.185 54.648 8.394 55.974 8.394 55.974 8.394 57.792 8.394 57.792 7.409 56.523 7.409 57.792 5.117 59.591 8.318 59.629 8.394 61.068 8.394 61.068 8.394 61.788 8.394 61.788 5.723 65.103 8.356 65.14 8.394 66.012 8.394 66.012 3.962 64.97 3.962"/>
      <path d="M70.216,3.962h-2.595c-.909,0-1.212.284-1.212,1.117v2.197c0,.833.303,1.117,1.212,1.117h2.595c.909,0,1.212-.284,1.212-1.117v-.625h-1.288v.682h-2.481v-2.33h2.481v.606h1.288v-.53c0-.852-.303-1.117-1.212-1.117"/>
      <polyline points="76.485 7.352 73.114 7.352 73.114 6.575 75.141 6.575 75.141 5.609 73.114 5.609 73.114 4.965 76.561 4.965 76.561 3.962 71.845 3.962 71.845 8.394 76.618 8.394 76.618 7.352 76.485 7.352"/>
      <path d="M9.931,6.215l.549-1.231.246,1.231h-.795M17.488,3.015l-1.477,3.466-.625-3.466h-1.288l-1.667,5.114-.852-5.114h-1.591l-2.424,5.493.36-2.292h-2.405l-.189,1.174h1.004l-.114.625c-.568.246-1.553.17-1.97-.587-.265-.473-.511-1.534.606-2.5.909-.795,2.481-.928,3.39-.511,0,0,.114-.663.208-1.288-1.742-.606-3.106-.095-4.015.455-1.231.758-1.818,1.932-1.667,3.523.189,1.837,2.557,2.993,4.583,1.837.019-.019.038-.019.038-.019l-.189.436h1.364l.852-1.894h1.496l.322,1.894h2.197l1.117-3.523.72,3.523h.871l1.686-3.902.17,3.902h1.288l-.246-6.345h-1.553"/>
      <polyline points="19.42 9.341 23.037 9.341 23.245 7.977 20.973 7.977 21.162 6.859 23.132 6.859 23.34 5.496 21.351 5.496 21.522 4.378 23.795 4.378 24.003 3.015 20.423 3.015 19.42 9.341"/>
      <polyline points="37.072 5.079 36.276 3.015 34.78 3.015 36.314 6.348 35.84 9.341 37.147 9.341 37.545 6.689 39.875 3.015 38.359 3.015 37.072 5.079"/>
      <path d="M34.041,6.784c-.341,1.042-1.193,1.648-1.875,1.345-.682-.303-.947-1.402-.606-2.462.341-1.042,1.193-1.648,1.875-1.345.701.322.966,1.42.606,2.462M33.549,3.071c-1.439-.322-2.936.814-3.333,2.557-.398,1.742.436,3.428,1.875,3.769,1.439.341,2.936-.814,3.333-2.557s-.455-3.428-1.875-3.769"/>
      <path d="M27.791,5.553h-.909l.208-1.174h.833c.928,0,.758,1.174-.133,1.174M27.639,8.109h-1.136l.208-1.25h1.08c1.023-.019,1.004,1.25-.152,1.25M28.397,3.052c-.701-.019-2.424,0-2.424,0h.019l-1.004,6.269h2.917c1.193,0,2.955-1.761,1.364-3.22,1.629-1.705,0-3.03-.871-3.049"/>
      <path d="M38.351,8.399v-.397h.336c.153,0,.275.031.275.183,0,.245-.245.214-.397.214h-.214M38.749,8.521c.214,0,.367-.092.367-.336,0-.092-.061-.214-.122-.245-.092-.061-.183-.061-.275-.061h-.52v1.192h.153v-.52h.245l.336.52h.183l-.367-.55"/>
      <path d="M38.62,7.572c.503,0,.913.41.913.913s-.41.913-.913.913-.913-.41-.913-.913.41-.913.913-.913M38.62,7.452c-.571,0-1.033.463-1.033,1.033s.463,1.033,1.033,1.033,1.033-.463,1.033-1.033-.463-1.033-1.033-1.033h0Z"/>
    </g>
    <g>
      <path d="M92.058,7.2c-.014-.393-.027-.869-.027-1.344h-.009c-.098.417-.223.883-.339,1.267l-.365,1.276h-.53l-.32-1.262c-.098-.388-.196-.854-.271-1.281h-.009c-.014.442-.031.946-.05,1.354l-.058,1.242h-.628l.191-3.271h.904l.294,1.092c.099.378.188.786.254,1.169h.018c.081-.378.184-.811.285-1.174l.316-1.087h.892l.16,3.271h-.659l-.049-1.252Z"/>
      <path d="M96.035,6.782c0,1.078-.593,1.723-1.475,1.723-.887,0-1.412-.732-1.412-1.669,0-.98.579-1.713,1.461-1.713.923,0,1.426.752,1.426,1.659ZM93.865,6.821c0,.646.276,1.097.731,1.097.458,0,.722-.476.722-1.111,0-.592-.254-1.097-.722-1.097-.464,0-.731.476-.731,1.111Z"/>
      <path d="M96.481,5.23c.25-.043.575-.073.913-.073.575,0,.949.117,1.234.35.312.252.508.655.508,1.232,0,.626-.209,1.058-.494,1.325-.316.286-.802.422-1.391.422-.352,0-.605-.024-.771-.049v-3.208ZM97.158,7.894c.058.015.155.015.235.015.62.005,1.025-.364,1.025-1.145,0-.679-.365-1.039-.954-1.039-.146,0-.249.015-.307.029v2.14Z"/>
      <path d="M101.369,7.069h-1.105v.776h1.234v.606h-1.911v-3.271h1.849v.606h-1.172v.68h1.105v.602Z"/>
      <path d="M101.966,5.181h.677v2.649h1.194v.621h-1.871v-3.271Z"/>
      <path d="M105.137,8.452v-3.271h.793l.624,1.199c.178.344.352.752.49,1.121h.009c-.04-.432-.054-.874-.054-1.368v-.951h.624v3.271h-.713l-.642-1.262c-.178-.349-.379-.771-.521-1.155h-.018c.022.437.031.898.031,1.432v.985h-.624Z"/>
      <path d="M110.96,6.782c0,1.078-.593,1.723-1.475,1.723-.887,0-1.412-.732-1.412-1.669,0-.98.579-1.713,1.461-1.713.923,0,1.426.752,1.426,1.659ZM108.79,6.821c0,.646.276,1.097.73,1.097.459,0,.723-.476.723-1.111,0-.592-.254-1.097-.723-1.097-.463,0-.73.476-.73,1.111Z"/>
      <path d="M111.156,8.059c0-.267.165-.451.401-.451.231,0,.392.18.396.451,0,.257-.16.446-.405.446-.228,0-.393-.189-.393-.446Z"/>
    </g>
    <g>
      <path d="M11.481,34.481c-.011-.338-.022-.748-.022-1.157h-.007c-.081.359-.184.761-.279,1.091l-.302,1.1h-.438l-.265-1.087c-.081-.335-.162-.736-.225-1.104h-.008c-.011.38-.025.814-.04,1.166l-.048,1.07h-.519l.158-2.818h.746l.243.941c.081.326.154.677.21,1.007h.015c.065-.325.15-.697.235-1.012l.261-.937h.735l.133,2.818h-.545l-.04-1.079Z"/>
      <path d="M13.127,34.836l-.177.724h-.577l.754-2.818h.735l.772,2.818h-.607l-.19-.724h-.71ZM13.756,34.36l-.155-.598c-.044-.167-.088-.376-.125-.543h-.007c-.037.167-.073.38-.114.543l-.146.598h.548Z"/>
      <path d="M15.025,32.783c.205-.037.474-.062.753-.062.475,0,.784.101,1.02.301.257.218.419.564.419,1.062,0,.539-.173.911-.408,1.141-.261.247-.662.364-1.147.364-.291,0-.5-.021-.636-.042v-2.764ZM15.584,35.079c.048.013.129.013.194.013.512.004.847-.314.847-.987,0-.585-.302-.895-.787-.895-.122,0-.206.013-.254.025v1.844Z"/>
      <path d="M19.123,34.368h-.912v.669h1.019v.522h-1.578v-2.818h1.526v.523h-.967v.585h.912v.519Z"/>
      <path d="M21.04,32.741v2.818h-.56v-2.818h.56Z"/>
      <path d="M21.587,35.56v-2.818h.654l.515,1.033c.147.297.29.647.404.966h.008c-.033-.372-.044-.753-.044-1.179v-.82h.515v2.818h-.589l-.529-1.087c-.147-.301-.312-.665-.431-.995h-.015c.019.376.026.773.026,1.233v.849h-.515Z"/>
      <path d="M26.807,35.485c-.1.055-.335.121-.633.121-.856,0-1.298-.61-1.298-1.413,0-.962.603-1.492,1.354-1.492.29,0,.511.062.61.125l-.118.502c-.11-.055-.269-.104-.471-.104-.441,0-.787.305-.787.932,0,.564.295.92.791.92.173,0,.356-.037.471-.092l.081.502Z"/>
      <path d="M27.804,32.741v1.083h.923v-1.083h.559v2.818h-.559v-1.179h-.923v1.179h-.56v-2.818h.56Z"/>
      <path d="M30.401,32.741v2.818h-.56v-2.818h.56Z"/>
      <path d="M30.947,35.56v-2.818h.654l.515,1.033c.147.297.29.647.404.966h.008c-.033-.372-.044-.753-.044-1.179v-.82h.515v2.818h-.589l-.529-1.087c-.147-.301-.312-.665-.431-.995h-.015c.019.376.026.773.026,1.233v.849h-.515Z"/>
      <path d="M34.125,34.836l-.177.724h-.577l.754-2.818h.735l.772,2.818h-.607l-.19-.724h-.71ZM34.754,34.36l-.155-.598c-.044-.167-.088-.376-.125-.543h-.007c-.037.167-.073.38-.114.543l-.146.598h.548Z"/>
    </g>
    <g>
      <path d="M2.914,12.226c.183-.04.447-.066.724-.066.377,0,.63.071.81.239.144.137.226.345.226.602,0,.385-.229.646-.479.744v.013c.19.08.304.288.365.575.086.372.156.717.206.832h-.49c-.038-.088-.104-.332-.175-.704-.078-.389-.198-.513-.471-.522h-.241v1.226h-.475v-2.938ZM3.389,13.541h.284c.323,0,.521-.195.521-.491,0-.323-.198-.478-.51-.478-.152,0-.249.014-.296.027v.942Z"/>
      <path d="M5.562,14.32l-.226.845h-.494l.84-2.982h.611l.852,2.982h-.517l-.238-.845h-.828ZM6.313,13.908l-.206-.734c-.051-.182-.094-.385-.133-.558h-.008c-.039.172-.082.38-.124.558l-.203.734h.674Z"/>
      <path d="M7.579,12.638h-.747v-.456h1.98v.456h-.755v2.527h-.479v-2.527Z"/>
      <path d="M9.481,12.182v2.982h-.479v-2.982h.479Z"/>
      <path d="M9.907,15.165v-2.982h.549l.677,1.279c.171.332.327.677.447,1h.008c-.035-.398-.043-.783-.043-1.239v-1.04h.444v2.982h-.498l-.686-1.314c-.167-.327-.338-.69-.467-1.026l-.016.004c.02.385.027.779.027,1.27v1.066h-.443Z"/>
      <path d="M14.523,15.028c-.167.071-.494.168-.84.168-.443,0-.782-.128-1.031-.398-.233-.252-.366-.646-.366-1.098.004-.947.592-1.549,1.46-1.549.322,0,.575.075.696.142l-.105.438c-.144-.075-.319-.128-.595-.128-.561,0-.954.376-.954,1.071,0,.677.366,1.08.911,1.08.175,0,.3-.026.361-.058v-.748h-.463v-.429h.926v1.509Z"/>
      <path d="M15.505,13.377c0-.204.121-.35.296-.35s.292.142.292.35c0,.195-.117.345-.3.345-.167,0-.288-.15-.288-.345ZM15.505,14.868c0-.204.121-.35.296-.35s.292.142.292.35c0,.195-.117.345-.3.345-.167,0-.288-.15-.288-.345Z"/>
      <path d="M17.061,14.603c.098.066.335.177.576.177.365,0,.51-.235.51-.46,0-.341-.284-.487-.576-.487h-.218v-.398h.218c.218,0,.498-.115.498-.398,0-.199-.125-.363-.404-.363-.207,0-.413.102-.518.181l-.109-.394c.144-.111.428-.221.728-.221.525,0,.79.327.79.704,0,.301-.155.548-.467.672v.009c.308.066.553.328.557.717,0,.487-.358.872-.984.872-.308,0-.572-.098-.709-.199l.109-.412Z"/>
      <path d="M19.638,15.165l-.848-2.982h.521l.357,1.358c.102.376.191.721.257,1.084h.008c.07-.354.168-.717.269-1.08l.382-1.363h.51l-.907,2.982h-.549Z"/>
    </g>
    <g>
      <path d="M39.392,12.226c.151-.035.428-.066.7-.066.351,0,.572.053.747.19.163.111.272.306.272.562,0,.274-.151.522-.436.642v.013c.276.08.529.328.529.735,0,.266-.102.473-.249.62-.188.181-.494.274-.977.274-.265,0-.464-.022-.588-.04v-2.93ZM39.867,13.403h.245c.335,0,.518-.177.518-.429,0-.283-.187-.412-.49-.412-.141,0-.222.009-.272.022v.818ZM39.867,14.771c.062.014.144.014.253.014.308,0,.584-.128.584-.496,0-.35-.269-.491-.6-.491h-.237v.973Z"/>
      <path d="M42.029,14.32l-.226.845h-.494l.84-2.982h.611l.852,2.982h-.518l-.237-.845h-.828ZM42.78,13.908l-.206-.734c-.051-.182-.094-.385-.133-.558h-.008c-.039.172-.082.38-.124.558l-.203.734h.674Z"/>
      <path d="M44.045,12.638h-.747v-.456h1.98v.456h-.755v2.527h-.479v-2.527Z"/>
      <path d="M46.083,12.638h-.747v-.456h1.98v.456h-.755v2.527h-.479v-2.527Z"/>
      <path d="M48.972,13.841h-.988v.876h1.105v.447h-1.584v-2.982h1.525v.447h-1.047v.77h.988v.442Z"/>
      <path d="M49.39,12.226c.183-.04.447-.066.724-.066.377,0,.63.071.81.239.144.137.226.345.226.602,0,.385-.229.646-.479.744v.013c.19.08.304.288.365.575.086.372.156.717.206.832h-.49c-.038-.088-.104-.332-.175-.704-.078-.389-.198-.513-.471-.522h-.241v1.226h-.475v-2.938ZM49.865,13.541h.284c.323,0,.521-.195.521-.491,0-.323-.198-.478-.51-.478-.152,0-.249.014-.296.027v.942Z"/>
      <path d="M52.022,15.165v-1.244l-.828-1.739h.549l.311.766c.09.221.156.389.229.593h.008c.062-.19.137-.376.227-.593l.314-.766h.541l-.871,1.726v1.257h-.479Z"/>
      <path d="M54.273,13.377c0-.204.121-.35.296-.35s.292.142.292.35c0,.195-.117.345-.3.345-.167,0-.288-.15-.288-.345ZM54.273,14.868c0-.204.121-.35.296-.35s.292.142.292.35c0,.195-.117.345-.3.345-.167,0-.288-.15-.288-.345Z"/>
      <path d="M56.073,12.182h.479v2.527h1.078v.456h-1.557v-2.982Z"/>
      <path d="M57.873,12.226c.183-.04.447-.066.724-.066.377,0,.63.071.81.239.144.137.226.345.226.602,0,.385-.229.646-.479.744v.013c.19.08.304.288.365.575.086.372.156.717.206.832h-.49c-.038-.088-.104-.332-.175-.704-.078-.389-.198-.513-.471-.522h-.241v1.226h-.475v-2.938ZM58.347,13.541h.284c.323,0,.521-.195.521-.491,0-.323-.198-.478-.51-.478-.152,0-.249.014-.296.027v.942Z"/>
      <path d="M61.396,12.678c-.07-.004-.147,0-.241.013-.533.071-.786.438-.848.836h.011c.125-.164.315-.279.568-.279.436,0,.774.354.774.938,0,.549-.354,1.027-.891,1.027-.615,0-.953-.531-.953-1.244,0-.553.175-1,.439-1.283.229-.252.537-.394.898-.425.105-.018.183-.018.241-.013v.429ZM61.174,14.218c0-.336-.159-.571-.439-.571-.179,0-.339.124-.413.296-.019.044-.03.097-.03.172.008.381.163.69.479.69.245,0,.404-.243.404-.588Z"/>
      <path d="M63.41,11.93c-.249.42-.437,1.004-.437,1.801,0,.783.191,1.363.437,1.788h-.347c-.226-.354-.475-.934-.475-1.788.004-.867.249-1.443.475-1.801h.347Z"/>
      <path d="M64.202,14.32l-.226.845h-.494l.84-2.982h.611l.852,2.982h-.517l-.238-.845h-.828ZM64.953,13.908l-.206-.734c-.051-.182-.094-.385-.133-.558h-.008c-.039.172-.082.38-.124.558l-.203.734h.674Z"/>
      <path d="M66.558,14.32l-.226.845h-.494l.84-2.982h.611l.852,2.982h-.518l-.237-.845h-.828ZM67.309,13.908l-.206-.734c-.051-.182-.094-.385-.133-.558h-.008c-.039.172-.082.38-.124.558l-.203.734h.674Z"/>
      <path d="M68.221,15.519c.245-.42.436-1.009.436-1.796s-.19-1.368-.436-1.792h.346c.226.35.475.925.475,1.792-.004.863-.249,1.438-.475,1.796h-.346Z"/>
      <path d="M70.286,12.779h-.008l-.463.266-.081-.412.618-.345h.396v2.876h-.463v-2.385Z"/>
      <path d="M71.533,14.864c0-.204.125-.35.296-.35.175,0,.296.142.296.35,0,.199-.117.35-.3.35-.171,0-.292-.15-.292-.35Z"/>
      <path d="M73.914,12.74h-.973l-.074.575c.055-.009.105-.013.179-.013.222,0,.448.057.615.186.19.137.331.381.331.73,0,.548-.401.996-1.02.996-.296,0-.541-.084-.674-.168l.098-.412c.109.066.327.151.557.151.28,0,.549-.182.549-.522,0-.332-.215-.548-.717-.548-.144,0-.249.013-.346.026l.163-1.452h1.312v.452Z"/>
      <path d="M75.145,15.165l-.848-2.982h.521l.357,1.358c.102.376.191.721.257,1.084h.008c.07-.354.168-.717.269-1.08l.382-1.363h.51l-.907,2.982h-.549Z"/>
      <path d="M77.066,13.01l.226.407c.062.115.116.221.171.332h.008c.055-.12.109-.23.167-.341l.211-.398h.521l-.634,1.035.646,1.12h-.544l-.229-.429c-.062-.115-.117-.23-.172-.35h-.008c-.055.124-.112.23-.171.35l-.218.429h-.529l.657-1.098-.634-1.057h.533Z"/>
      <path d="M78.46,15.165v-.332l.3-.314c.596-.628.876-.974.88-1.354,0-.257-.121-.482-.452-.482-.226,0-.412.128-.54.239l-.141-.385c.183-.168.459-.296.778-.296.561,0,.833.402.833.872,0,.504-.319.912-.763,1.376l-.218.217v.009h1.034v.451h-1.712Z"/>
    </g>
    <g>
      <path d="M93.73,15.165v-.332l.3-.314c.596-.628.876-.974.88-1.354,0-.257-.121-.482-.452-.482-.226,0-.412.128-.54.239l-.141-.385c.183-.168.459-.296.778-.296.561,0,.833.402.833.872,0,.504-.319.912-.763,1.376l-.218.217v.009h1.034v.451h-1.712Z"/>
      <path d="M97.482,13.704c0,.929-.319,1.509-.926,1.509-.58,0-.892-.602-.896-1.478,0-.898.335-1.496.927-1.496.61,0,.895.619.895,1.464ZM96.145,13.731c0,.704.167,1.066.428,1.066.284,0,.428-.39.428-1.08,0-.668-.136-1.062-.424-1.062-.253,0-.432.358-.432,1.075Z"/>
      <path d="M99.45,13.704c0,.929-.319,1.509-.926,1.509-.58,0-.892-.602-.896-1.478,0-.898.335-1.496.927-1.496.61,0,.895.619.895,1.464ZM98.112,13.731c0,.704.167,1.066.428,1.066.284,0,.428-.39.428-1.08,0-.668-.136-1.062-.424-1.062-.253,0-.432.358-.432,1.075Z"/>
      <path d="M101.417,13.704c0,.929-.319,1.509-.926,1.509-.58,0-.892-.602-.896-1.478,0-.898.335-1.496.927-1.496.61,0,.895.619.895,1.464ZM100.079,13.731c0,.704.167,1.066.428,1.066.284,0,.428-.39.428-1.08,0-.668-.136-1.062-.424-1.062-.253,0-.432.358-.432,1.075Z"/>
      <path d="M102.586,15.165v-2.982h.549l.677,1.279c.171.332.327.677.447,1h.008c-.035-.398-.043-.783-.043-1.239v-1.04h.444v2.982h-.498l-.686-1.314c-.167-.327-.338-.69-.467-1.026l-.016.004c.02.385.027.779.027,1.27v1.066h-.443Z"/>
      <path d="M105.638,12.408c0,.159-.105.292-.272.292-.159,0-.265-.133-.265-.292,0-.168.109-.296.269-.296.163,0,.265.128.269.296ZM105.128,15.165v-2.155h.479v2.155h-.479Z"/>
      <path d="M106.029,13.652c0-.248-.008-.456-.016-.642h.416l.023.323h.012c.086-.168.292-.372.607-.372.33,0,.673.243.673.925v1.279h-.479v-1.217c0-.31-.102-.544-.362-.544-.19,0-.322.155-.373.319-.016.044-.023.11-.023.172v1.27h-.479v-1.513Z"/>
      <path d="M108.689,12.457v.553h.455v.407h-.455v.952c0,.265.062.398.245.398.085,0,.132-.004.187-.022l.008.412c-.07.031-.198.058-.347.058-.179,0-.322-.066-.412-.177-.105-.124-.151-.323-.151-.606v-1.014h-.269v-.407h.269v-.403l.471-.15Z"/>
      <path d="M109.728,14.24c.012.389.276.558.583.558.222,0,.378-.04.525-.098l.07.372c-.163.08-.39.137-.661.137-.615,0-.978-.429-.978-1.089,0-.597.319-1.159.927-1.159.614,0,.816.575.816,1.049,0,.102-.008.181-.015.23h-1.269ZM110.56,13.86c.004-.199-.073-.527-.393-.527-.296,0-.42.305-.439.527h.832Z"/>
      <path d="M111.301,13.652c0-.248-.008-.456-.016-.642h.416l.023.323h.012c.086-.168.292-.372.607-.372.33,0,.673.243.673.925v1.279h-.479v-1.217c0-.31-.102-.544-.362-.544-.19,0-.322.155-.373.319-.016.044-.023.11-.023.172v1.27h-.479v-1.513Z"/>
      <path d="M115.179,12.023v2.535c0,.222.008.46.016.606h-.424l-.023-.341h-.008c-.113.239-.343.39-.615.39-.455,0-.813-.438-.813-1.102-.004-.721.394-1.15.849-1.15.261,0,.447.12.533.279h.008v-1.217h.479ZM114.7,13.908c0-.044-.004-.102-.012-.146-.043-.208-.194-.38-.412-.38-.308,0-.479.31-.479.708s.172.686.476.686c.194,0,.365-.15.412-.385.012-.049.016-.102.016-.159v-.323Z"/>
      <path d="M117.398,14.067c0,.792-.49,1.146-.973,1.146-.533,0-.95-.416-.95-1.111,0-.708.409-1.142.981-1.142.563,0,.941.451.941,1.106ZM115.97,14.09c0,.416.184.73.472.73.271,0,.463-.301.463-.739,0-.336-.133-.726-.459-.726-.339,0-.476.376-.476.735Z"/>
    </g>
    <g>
      <path d="M123.147,12.222c.175-.035.412-.062.731-.062.351,0,.604.084.771.243.155.146.257.38.257.659,0,.283-.078.514-.222.673-.194.217-.49.323-.829.323-.09,0-.167-.004-.233-.022v1.128h-.475v-2.943ZM123.622,13.607c.062.022.136.026.233.026.358,0,.576-.203.576-.548,0-.332-.202-.504-.533-.504-.133,0-.226.013-.276.026v1Z"/>
      <path d="M126.624,14.647c0,.194.008.385.031.518h-.432l-.035-.239h-.012c-.113.168-.312.288-.561.288-.381,0-.595-.314-.595-.642,0-.54.424-.819,1.124-.814v-.035c0-.142-.051-.376-.385-.376-.188,0-.382.066-.51.16l-.094-.354c.14-.098.385-.19.685-.19.607,0,.782.438.782.912v.774ZM126.157,14.111c-.339-.004-.661.075-.661.403,0,.212.12.31.271.31.195,0,.331-.142.378-.296.012-.04.012-.08.012-.12v-.296Z"/>
      <path d="M127.587,12.457v.553h.455v.407h-.455v.952c0,.265.062.398.245.398.085,0,.132-.004.187-.022l.008.412c-.07.031-.198.058-.347.058-.179,0-.322-.066-.412-.177-.105-.124-.151-.323-.151-.606v-1.014h-.269v-.407h.269v-.403l.471-.15Z"/>
      <path d="M128.652,14.24c.012.389.275.558.583.558.222,0,.378-.04.525-.098l.07.372c-.163.08-.39.137-.661.137-.615,0-.978-.429-.978-1.089,0-.597.319-1.159.927-1.159.614,0,.816.575.816,1.049,0,.102-.008.181-.015.23h-1.269ZM129.484,13.86c.004-.199-.073-.527-.393-.527-.296,0-.42.305-.439.527h.832Z"/>
      <path d="M130.253,13.652c0-.248-.008-.456-.016-.642h.416l.023.323h.012c.086-.168.292-.372.607-.372.33,0,.673.243.673.925v1.279h-.479v-1.217c0-.31-.102-.544-.362-.544-.19,0-.322.155-.373.319-.016.044-.023.11-.023.172v1.27h-.479v-1.513Z"/>
      <path d="M132.94,12.457v.553h.455v.407h-.455v.952c0,.265.062.398.245.398.085,0,.132-.004.187-.022l.008.412c-.07.031-.198.058-.347.058-.179,0-.322-.066-.412-.177-.105-.124-.151-.323-.151-.606v-1.014h-.269v-.407h.269v-.403l.471-.15Z"/>
      <path d="M133.67,14.66c.105.075.312.159.482.159.21,0,.304-.102.304-.243,0-.146-.078-.217-.312-.314-.369-.142-.521-.372-.521-.628,0-.38.276-.672.716-.672.211,0,.394.058.506.128l-.097.38c-.078-.053-.233-.124-.401-.124-.171,0-.265.098-.265.23,0,.137.09.199.331.301.347.137.502.336.506.655,0,.394-.269.677-.771.677-.229,0-.436-.062-.576-.151l.098-.398Z"/>
      <path d="M136.493,12.408c0,.159-.105.292-.272.292-.159,0-.265-.133-.265-.292,0-.168.109-.296.269-.296.163,0,.265.128.269.296ZM135.983,15.165v-2.155h.479v2.155h-.479Z"/>
      <path d="M136.893,14.66c.105.075.312.159.482.159.21,0,.304-.102.304-.243,0-.146-.078-.217-.312-.314-.369-.142-.521-.372-.521-.628,0-.38.276-.672.716-.672.211,0,.394.058.506.128l-.097.38c-.078-.053-.233-.124-.401-.124-.171,0-.265.098-.265.23,0,.137.09.199.331.301.347.137.502.336.506.655,0,.394-.269.677-.771.677-.229,0-.436-.062-.576-.151l.098-.398Z"/>
      <path d="M138.448,14.66c.105.075.312.159.482.159.21,0,.304-.102.304-.243,0-.146-.078-.217-.312-.314-.369-.142-.521-.372-.521-.628,0-.38.276-.672.716-.672.211,0,.394.058.506.128l-.097.38c-.078-.053-.233-.124-.401-.124-.171,0-.265.098-.265.23,0,.137.09.199.331.301.347.137.502.336.506.655,0,.394-.269.677-.771.677-.229,0-.436-.062-.576-.151l.098-.398Z"/>
      <path d="M141.718,14.519c0,.256.008.469.016.646h-.416l-.023-.323h-.012c-.082.151-.269.372-.611.372s-.657-.235-.657-.938v-1.265h.479v1.172c0,.358.102.588.354.588.194,0,.318-.15.365-.292.02-.044.027-.106.027-.168v-1.301h.479v1.509Z"/>
      <path d="M142.507,14.24c.012.389.275.558.583.558.222,0,.378-.04.525-.098l.07.372c-.163.08-.39.137-.661.137-.615,0-.978-.429-.978-1.089,0-.597.319-1.159.927-1.159.614,0,.816.575.816,1.049,0,.102-.008.181-.015.23h-1.269ZM143.339,13.86c.004-.199-.073-.527-.393-.527-.296,0-.42.305-.439.527h.832Z"/>
      <path d="M145.855,12.023v2.535c0,.222.008.46.016.606h-.424l-.023-.341h-.008c-.113.239-.343.39-.615.39-.455,0-.813-.438-.813-1.102-.004-.721.394-1.15.849-1.15.261,0,.447.12.533.279h.008v-1.217h.479ZM145.377,13.908c0-.044-.004-.102-.012-.146-.043-.208-.194-.38-.412-.38-.308,0-.479.31-.479.708s.171.686.475.686c.194,0,.365-.15.412-.385.012-.049.016-.102.016-.159v-.323Z"/>
      <path d="M148.509,14.647c0,.194.008.385.031.518h-.432l-.035-.239h-.012c-.113.168-.312.288-.561.288-.381,0-.596-.314-.596-.642,0-.54.425-.819,1.125-.814v-.035c0-.142-.051-.376-.385-.376-.188,0-.382.066-.51.16l-.094-.354c.14-.098.385-.19.685-.19.607,0,.782.438.782.912v.774ZM148.043,14.111c-.339-.004-.661.075-.661.403,0,.212.12.31.272.31.194,0,.33-.142.377-.296.012-.04.012-.08.012-.12v-.296Z"/>
      <path d="M148.948,13.652c0-.248-.008-.456-.016-.642h.416l.023.323h.012c.086-.168.292-.372.607-.372.33,0,.673.243.673.925v1.279h-.479v-1.217c0-.31-.102-.544-.362-.544-.19,0-.322.155-.373.319-.016.044-.023.11-.023.172v1.27h-.479v-1.513Z"/>
      <path d="M152.852,12.023v2.535c0,.222.008.46.016.606h-.424l-.023-.341h-.008c-.113.239-.343.39-.615.39-.455,0-.813-.438-.813-1.102-.004-.721.394-1.15.849-1.15.261,0,.447.12.533.279h.008v-1.217h.479ZM152.374,13.908c0-.044-.004-.102-.012-.146-.043-.208-.194-.38-.412-.38-.308,0-.479.31-.479.708s.172.686.476.686c.194,0,.365-.15.412-.385.012-.049.016-.102.016-.159v-.323Z"/>
      <path d="M154.056,12.222c.175-.035.412-.062.731-.062.351,0,.604.084.771.243.155.146.257.38.257.659,0,.283-.078.514-.222.673-.195.217-.49.323-.829.323-.09,0-.167-.004-.233-.022v1.128h-.475v-2.943ZM154.531,13.607c.062.022.136.026.233.026.358,0,.576-.203.576-.548,0-.332-.202-.504-.533-.504-.133,0-.226.013-.276.026v1Z"/>
      <path d="M156.385,14.24c.012.389.276.558.583.558.222,0,.378-.04.525-.098l.07.372c-.163.08-.39.137-.661.137-.615,0-.978-.429-.978-1.089,0-.597.319-1.159.927-1.159.614,0,.816.575.816,1.049,0,.102-.008.181-.015.23h-1.269ZM157.217,13.86c.004-.199-.073-.527-.393-.527-.296,0-.42.305-.439.527h.832Z"/>
      <path d="M157.986,13.652c0-.248-.008-.456-.016-.642h.416l.023.323h.012c.086-.168.292-.372.607-.372.33,0,.673.243.673.925v1.279h-.479v-1.217c0-.31-.102-.544-.362-.544-.19,0-.322.155-.373.319-.016.044-.023.11-.023.172v1.27h-.479v-1.513Z"/>
      <path d="M161.89,12.023v2.535c0,.222.008.46.016.606h-.424l-.023-.341h-.008c-.113.239-.343.39-.615.39-.455,0-.813-.438-.813-1.102-.004-.721.394-1.15.849-1.15.261,0,.447.12.533.279h.008v-1.217h.479ZM161.412,13.908c0-.044-.004-.102-.012-.146-.043-.208-.194-.38-.412-.38-.308,0-.479.31-.479.708s.171.686.475.686c.194,0,.365-.15.412-.385.012-.049.016-.102.016-.159v-.323Z"/>
      <path d="M162.846,12.408c0,.159-.105.292-.272.292-.159,0-.265-.133-.265-.292,0-.168.109-.296.269-.296.163,0,.265.128.269.296ZM162.336,15.165v-2.155h.479v2.155h-.479Z"/>
      <path d="M163.265,13.652c0-.248-.008-.456-.016-.642h.416l.023.323h.012c.086-.168.292-.372.607-.372.33,0,.673.243.673.925v1.279h-.479v-1.217c0-.31-.102-.544-.362-.544-.19,0-.322.155-.373.319-.016.044-.023.11-.023.172v1.27h-.479v-1.513Z"/>
      <path d="M167.138,14.851c0,.451-.082.774-.28.978-.194.199-.471.261-.731.261-.241,0-.498-.062-.661-.172l.104-.412c.121.08.323.164.553.164.312,0,.545-.186.545-.65v-.186h-.008c-.109.19-.3.319-.553.319-.471,0-.806-.442-.806-1.053,0-.708.405-1.137.86-1.137.292,0,.459.159.549.336h.008l.02-.288h.416c-.008.146-.016.323-.016.619v1.222ZM166.66,13.873c0-.053-.004-.102-.016-.146-.051-.199-.187-.35-.389-.35-.269,0-.467.265-.467.704,0,.367.163.664.463.664.179,0,.334-.133.389-.332.016-.053.02-.128.02-.19v-.35Z"/>
      <path d="M167.296,15.7c.104-.336.21-.801.261-1.168l.502-.044c-.113.416-.284.894-.436,1.177l-.327.036Z"/>
      <path d="M169.124,14.572c.151.102.389.19.634.19.304,0,.475-.164.475-.407,0-.226-.132-.358-.463-.496-.436-.177-.712-.438-.712-.868,0-.491.358-.858.93-.858.284,0,.49.071.627.15l-.113.438c-.097-.058-.279-.142-.524-.142-.304,0-.433.181-.433.358,0,.23.152.336.502.491.455.194.674.456.674.885,0,.482-.319.898-.993.898-.279,0-.567-.089-.712-.19l.109-.451Z"/>
      <path d="M171.425,14.24c.012.389.275.558.583.558.222,0,.378-.04.525-.098l.07.372c-.163.08-.39.137-.661.137-.615,0-.978-.429-.978-1.089,0-.597.319-1.159.927-1.159.614,0,.816.575.816,1.049,0,.102-.008.181-.015.23h-1.269ZM172.257,13.86c.004-.199-.073-.527-.393-.527-.296,0-.42.305-.439.527h.832Z"/>
      <path d="M173.365,14.24c.012.389.275.558.583.558.222,0,.378-.04.525-.098l.07.372c-.163.08-.39.137-.661.137-.615,0-.978-.429-.978-1.089,0-.597.319-1.159.927-1.159.614,0,.816.575.816,1.049,0,.102-.008.181-.015.23h-1.269ZM174.197,13.86c.004-.199-.073-.527-.393-.527-.296,0-.42.305-.439.527h.832Z"/>
      <path d="M175.705,12.023h.479v1.283h.008c.117-.208.323-.345.607-.345.463,0,.793.438.789,1.093,0,.774-.432,1.16-.859,1.16-.245,0-.463-.106-.6-.372h-.008l-.023.323h-.408c.008-.146.016-.385.016-.606v-2.535ZM176.183,14.275c0,.044.004.089.012.128.051.221.218.381.424.381.3,0,.482-.27.482-.708,0-.381-.159-.69-.479-.69-.194,0-.373.159-.424.398-.008.04-.016.089-.016.142v.35Z"/>
      <path d="M179.714,14.067c0,.792-.49,1.146-.973,1.146-.533,0-.95-.416-.95-1.111,0-.708.409-1.142.981-1.142.563,0,.941.451.941,1.106ZM178.286,14.09c0,.416.184.73.472.73.271,0,.463-.301.463-.739,0-.336-.133-.726-.459-.726-.339,0-.476.376-.476.735Z"/>
      <path d="M181.841,14.067c0,.792-.49,1.146-.973,1.146-.533,0-.95-.416-.95-1.111,0-.708.409-1.142.981-1.142.563,0,.941.451.941,1.106ZM180.413,14.09c0,.416.184.73.472.73.271,0,.463-.301.463-.739,0-.336-.133-.726-.459-.726-.339,0-.476.376-.476.735Z"/>
      <path d="M182.644,13.957h.008c.047-.084.102-.177.147-.252l.464-.694h.575l-.704.88.802,1.274h-.588l-.545-.951-.159.217v.734h-.479v-3.142h.479v1.934Z"/>
      <path d="M184.132,12.023h.479v3.142h-.479v-3.142Z"/>
      <path d="M185.405,14.24c.012.389.276.558.583.558.222,0,.378-.04.525-.098l.07.372c-.163.08-.39.137-.661.137-.615,0-.978-.429-.978-1.089,0-.597.319-1.159.927-1.159.614,0,.816.575.816,1.049,0,.102-.008.181-.015.23h-1.269ZM186.237,13.86c.004-.199-.073-.527-.393-.527-.296,0-.42.305-.439.527h.832Z"/>
      <path d="M187.554,12.457v.553h.455v.407h-.455v.952c0,.265.062.398.245.398.085,0,.132-.004.187-.022l.008.412c-.07.031-.198.058-.347.058-.179,0-.322-.066-.412-.177-.105-.124-.151-.323-.151-.606v-1.014h-.269v-.407h.269v-.403l.471-.15Z"/>
      <path d="M188.222,14.864c0-.204.125-.35.296-.35.175,0,.296.142.296.35,0,.199-.117.35-.3.35-.171,0-.292-.15-.292-.35Z"/>
    </g>
    <g>
      <path d="M28.684,13.704c0,.929-.319,1.509-.926,1.509-.58,0-.892-.602-.896-1.478,0-.898.335-1.496.927-1.496.61,0,.895.619.895,1.464ZM27.346,13.731c0,.704.167,1.066.428,1.066.284,0,.428-.39.428-1.08,0-.668-.136-1.062-.424-1.062-.253,0-.432.358-.432,1.075Z"/>
      <path d="M28.896,14.864c0-.204.125-.35.296-.35.175,0,.296.142.296.35,0,.199-.117.35-.3.35-.171,0-.292-.15-.292-.35Z"/>
      <path d="M31.202,12.678c-.07-.004-.147,0-.241.013-.533.071-.786.438-.848.836h.011c.125-.164.315-.279.568-.279.436,0,.774.354.774.938,0,.549-.354,1.027-.891,1.027-.615,0-.953-.531-.953-1.244,0-.553.175-1,.439-1.283.229-.252.537-.394.898-.425.105-.018.183-.018.241-.013v.429ZM30.981,14.218c0-.336-.159-.571-.439-.571-.179,0-.339.124-.413.296-.019.044-.03.097-.03.172.008.381.163.69.479.69.245,0,.404-.243.404-.588Z"/>
      <path d="M32.166,15.165l-.642-2.982h.51l.249,1.354c.065.363.128.744.171,1.04h.008c.043-.314.117-.668.19-1.044l.284-1.35h.502l.261,1.372c.062.354.121.686.159,1.009h.008c.047-.328.109-.668.18-1.036l.272-1.345h.486l-.709,2.982h-.51l-.271-1.403c-.066-.341-.113-.624-.148-.947h-.008c-.043.318-.093.606-.171.947l-.304,1.403h-.518Z"/>
    </g>
    <g>
      <rect x="21.711" y="13.078" width="4.188" height=".4"/>
      <rect x="21.711" y="14.096" width=".991" height=".4"/>
      <rect x="23.31" y="14.096" width=".992" height=".4"/>
      <rect x="24.908" y="14.096" width=".992" height=".4"/>
    </g>
    <g>
      <path d="M86.269,11.865c.974,0,1.766.792,1.766,1.766s-.792,1.766-1.766,1.766-1.766-.792-1.766-1.766.792-1.766,1.766-1.766M86.269,11.611c-1.116,0-2.02.904-2.02,2.02s.904,2.02,2.02,2.02,2.02-.904,2.02-2.02-.904-2.02-2.02-2.02h0Z"/>
      <path d="M86.946,14.752c-.097.049-.312.105-.587.105-.719,0-1.155-.472-1.155-1.198,0-.783.521-1.255,1.212-1.255.272,0,.464.06.548.106l-.088.345c-.107-.049-.258-.092-.443-.092-.459,0-.792.303-.792.875,0,.525.289.856.789.856.164,0,.339-.035.45-.084l.066.342Z"/>
    </g>
    <g>
      <path d="M90.942,11.865c.974,0,1.766.792,1.766,1.766s-.792,1.766-1.766,1.766-1.766-.792-1.766-1.766.792-1.766,1.766-1.766M90.942,11.611c-1.116,0-2.02.904-2.02,2.02s.904,2.02,2.02,2.02,2.02-.904,2.02-2.02-.904-2.02-2.02-2.02h0Z"/>
      <path d="M91.612,13.84c-.012-.293-.026-.647-.023-.955h-.009c-.065.277-.148.583-.237.87l-.293.985h-.278l-.267-.971c-.077-.29-.147-.601-.201-.884h-.006c-.009.297-.021.658-.035.968l-.045.914h-.34l.133-2.273h.479l.261.914c.071.266.133.536.184.789h.009c.053-.246.121-.526.198-.792l.275-.911h.474l.115,2.273h-.355l-.038-.927Z"/>
    </g>
    <g>
      <g>
        <path d="M114.764,7.365l-.278,1.087h-.907l1.186-4.237h1.156l1.215,4.237h-.955l-.3-1.087h-1.116ZM115.752,6.648l-.243-.899c-.069-.251-.139-.566-.196-.817h-.012c-.058.251-.115.572-.179.817l-.231.899h.861Z"/>
        <path d="M120.764,8.257c-.271.101-.787.239-1.302.239-.711,0-1.226-.195-1.584-.566-.353-.371-.55-.924-.55-1.546.006-1.408.948-2.213,2.227-2.213.503,0,.891.107,1.082.201l-.186.773c-.214-.107-.475-.183-.902-.183-.734,0-1.295.447-1.295,1.371,0,.88.509,1.39,1.231,1.39.196,0,.358-.025.428-.057v-.893h-.602v-.748h1.452v2.232Z"/>
        <path d="M121.456,4.272c.231-.044.693-.088,1.139-.088.538,0,.868.057,1.157.239.271.157.463.446.463.836,0,.371-.203.717-.643.899v.012c.445.126.775.497.775,1.038,0,.39-.162.691-.405.905-.283.245-.758.383-1.532.383-.434,0-.758-.031-.954-.063v-4.162ZM122.329,5.894h.289c.469,0,.712-.208.712-.522,0-.32-.226-.49-.625-.49-.196,0-.307.013-.376.025v.987ZM122.329,7.773c.087.013.19.013.341.013.399,0,.752-.169.752-.616,0-.421-.353-.591-.792-.591h-.301v1.194Z"/>
      </g>
      <rect x="124.759" y="6.6" width="1.426" height=".526"/>
      <g>
        <path d="M130.272,6.305c0,1.386-.759,2.216-1.889,2.216-1.136,0-1.809-.942-1.809-2.147,0-1.261.741-2.203,1.871-2.203,1.182,0,1.826.967,1.826,2.134ZM127.492,6.355c0,.83.354,1.411.937,1.411.588,0,.924-.612.924-1.429,0-.761-.325-1.41-.924-1.41-.594,0-.937.611-.937,1.429Z"/>
        <path d="M134.358,6.305c0,1.386-.759,2.216-1.889,2.216-1.136,0-1.809-.942-1.809-2.147,0-1.261.741-2.203,1.871-2.203,1.182,0,1.826.967,1.826,2.134ZM131.579,6.355c0,.83.354,1.411.937,1.411.588,0,.924-.612.924-1.429,0-.761-.325-1.41-.924-1.41-.594,0-.937.611-.937,1.429Z"/>
        <path d="M136.057,5.159h-.013l-.793.377-.16-.729,1.106-.512h.799v4.156h-.939v-3.292Z"/>
      </g>
    </g>
    <g>
      <path d="M165.654,35.501c-.077.042-.26.094-.49.094-.665,0-1.008-.472-1.008-1.093,0-.744.468-1.155,1.051-1.155.225,0,.396.049.474.098l-.092.388c-.086-.042-.208-.081-.365-.081-.343,0-.61.236-.61.722,0,.437.229.712.613.712.134,0,.276-.029.365-.071l.062.388Z"/>
      <path d="M165.969,35.685l.61-2.345h.288l-.61,2.345h-.288Z"/>
      <path d="M167.674,35l-.138.56h-.447l.585-2.181h.57l.6,2.181h-.472l-.148-.56h-.55ZM168.162,34.631l-.119-.462c-.035-.13-.069-.292-.098-.421h-.006c-.028.129-.057.294-.088.421l-.114.462h.425Z"/>
      <path d="M170.802,35.459c-.134.052-.389.123-.643.123-.351,0-.604-.1-.781-.291-.174-.19-.271-.476-.271-.796.003-.725.468-1.139,1.099-1.139.248,0,.439.056.534.104l-.092.398c-.105-.056-.234-.094-.445-.094-.362,0-.639.229-.639.705,0,.452.251.715.607.715.097,0,.177-.013.211-.029v-.459h-.297v-.386h.717v1.148Z"/>
      <path d="M171.311,33.408c.114-.022.342-.045.562-.045.266,0,.429.029.571.123.134.08.229.229.229.43,0,.191-.101.369-.317.463v.007c.22.064.383.255.383.533,0,.2-.08.356-.2.466-.14.126-.374.197-.756.197-.214,0-.374-.016-.471-.032v-2.142ZM171.742,34.243h.143c.231,0,.352-.106.352-.269,0-.165-.111-.252-.309-.252-.097,0-.151.006-.186.013v.508ZM171.742,35.21c.043.007.094.007.168.007.197,0,.371-.088.371-.317,0-.217-.174-.304-.391-.304h-.148v.614Z"/>
      <path d="M173.848,34.604v.326h-.747v-.326h.747Z"/>
      <path d="M174.726,33.379v1.252c0,.379.128.569.348.569.229,0,.354-.181.354-.569v-1.252h.434v1.223c0,.674-.3.993-.802.993-.485,0-.768-.307-.768-.999v-1.217h.434Z"/>
      <path d="M176.42,35.051c.114.067.297.136.482.136.2,0,.306-.094.306-.236,0-.136-.092-.213-.322-.304-.32-.13-.531-.33-.531-.647,0-.372.277-.653.728-.653.22,0,.377.049.491.11l-.097.395c-.074-.042-.215-.104-.4-.104-.188,0-.279.101-.279.21,0,.14.105.201.356.308.34.143.497.343.497.65,0,.365-.245.676-.773.676-.22,0-.437-.067-.545-.136l.088-.404Z"/>
      <path d="M178.566,35l-.138.56h-.447l.585-2.181h.57l.6,2.181h-.472l-.147-.56h-.551ZM179.053,34.631l-.12-.462c-.034-.13-.068-.292-.097-.421h-.006c-.028.129-.057.294-.088.421l-.114.462h.425Z"/>
      <path d="M180.803,34.604v.326h-.747v-.326h.747Z"/>
      <path d="M181.733,33.893h-.006l-.354.19-.071-.368.494-.259h.356v2.103h-.419v-1.666Z"/>
    </g>
    <g>
      <path d="M4.799,17.198h-.595v-.405h1.577v.405h-.601v2.248h-.382v-2.248Z"/>
      <path d="M6.404,16.793v1.062h.883v-1.062h.381v2.653h-.381v-1.169h-.883v1.169h-.381v-2.653h.381Z"/>
      <path d="M8.482,16.793v2.653h-.381v-2.653h.381Z"/>
      <path d="M8.912,18.919c.121.091.31.169.505.169.241,0,.378-.146.378-.362,0-.2-.105-.318-.369-.44-.347-.157-.566-.39-.566-.771,0-.438.285-.764.74-.764.227,0,.391.062.499.134l-.09.39c-.078-.052-.224-.126-.418-.126-.242,0-.345.161-.345.318,0,.205.121.3.4.438.362.173.535.405.535.787,0,.429-.254.799-.79.799-.223,0-.452-.078-.566-.169l.087-.401Z"/>
      <path d="M11.63,16.828c.171-.031.381-.055.607-.055.391,0,.656.103.849.307.204.209.328.527.328.977,0,.477-.127.827-.325,1.055-.207.24-.539.362-.944.362-.22,0-.388-.016-.515-.035v-2.61ZM12.011,19.08c.053.012.134.012.211.012.496.004.79-.347.79-1.02.003-.583-.264-.921-.74-.921-.121,0-.205.012-.261.027v1.901Z"/>
      <path d="M14.911,18.27h-.787v.779h.88v.397h-1.261v-2.653h1.215v.397h-.834v.686h.787v.394Z"/>
      <path d="M15.838,19.446l-.676-2.653h.415l.285,1.209c.081.334.151.642.204.964h.007c.056-.314.133-.638.214-.96l.303-1.213h.406l-.722,2.653h-.437Z"/>
      <path d="M17.6,16.793v2.653h-.381v-2.653h.381Z"/>
      <path d="M19.531,19.371c-.09.056-.288.118-.542.118-.663,0-1.065-.527-1.065-1.338,0-.874.48-1.401,1.118-1.401.251,0,.428.066.505.118l-.08.386c-.1-.056-.239-.103-.409-.103-.425,0-.731.338-.731.977,0,.586.267.956.729.956.151,0,.312-.039.415-.095l.062.382Z"/>
      <path d="M21.023,18.27h-.787v.779h.88v.397h-1.261v-2.653h1.215v.397h-.834v.686h.787v.394Z"/>
      <path d="M24.197,19.371c-.092.056-.294.118-.553.118-.676,0-1.087-.527-1.087-1.338,0-.874.49-1.401,1.141-1.401.256,0,.436.066.515.118l-.082.386c-.102-.056-.243-.103-.417-.103-.433,0-.745.338-.745.977,0,.586.271.956.742.956.154,0,.318-.039.423-.095l.063.382Z"/>
      <path d="M26.34,18.092c0,.89-.433,1.397-1.018,1.397-.603,0-.982-.574-.982-1.35,0-.819.414-1.394,1.015-1.394.619,0,.985.586.985,1.346ZM24.751,18.128c0,.543.218.972.591.972.376,0,.587-.437.587-.992,0-.5-.198-.972-.587-.972-.386,0-.591.444-.591.992Z"/>
      <path d="M28.477,18.363c-.013-.342-.028-.756-.025-1.113h-.01c-.069.322-.157.681-.252,1.016l-.313,1.149h-.297l-.284-1.134c-.082-.339-.157-.701-.215-1.031h-.006c-.01.346-.022.768-.038,1.13l-.047,1.066h-.363l.142-2.653h.512l.278,1.066c.075.312.142.626.195.922h.01c.057-.288.13-.614.212-.926l.294-1.062h.505l.123,2.653h-.379l-.041-1.083Z"/>
      <path d="M29.298,16.828c.142-.031.334-.055.594-.055.284,0,.489.074.625.216.126.131.209.339.209.587,0,.252-.063.457-.181.599-.157.192-.397.287-.673.287-.072,0-.136-.004-.189-.02v1.004h-.385v-2.618ZM29.683,18.061c.051.02.11.023.189.023.291,0,.468-.181.468-.488,0-.295-.164-.448-.433-.448-.107,0-.184.012-.225.023v.89Z"/>
      <path d="M31.067,16.793h.388v2.248h.875v.405h-1.263v-2.653Z"/>
      <path d="M33.016,16.793v2.653h-.388v-2.653h.388Z"/>
      <path d="M34.654,18.27h-.803v.779h.897v.397h-1.285v-2.653h1.238v.397h-.851v.686h.803v.394Z"/>
      <path d="M35.087,18.919c.123.091.316.169.515.169.247,0,.386-.146.386-.362,0-.2-.107-.318-.376-.44-.354-.157-.578-.39-.578-.771,0-.438.291-.764.755-.764.23,0,.398.062.509.134l-.092.39c-.079-.052-.228-.126-.427-.126-.246,0-.351.161-.351.318,0,.205.124.3.408.438.369.173.546.405.546.787,0,.429-.259.799-.805.799-.228,0-.462-.078-.578-.169l.088-.401Z"/>
      <path d="M38.192,19.446l-.511-2.653h.405l.198,1.204c.053.323.103.662.137.926h.006c.034-.279.093-.595.151-.93l.227-1.2h.399l.208,1.221c.049.314.096.609.127.897h.006c.037-.292.087-.595.143-.922l.217-1.196h.387l-.563,2.653h-.405l-.217-1.248c-.053-.303-.09-.555-.118-.843h-.006c-.034.284-.074.54-.137.843l-.241,1.248h-.412Z"/>
      <path d="M40.923,16.793v2.653h-.381v-2.653h.381Z"/>
      <path d="M41.758,17.198h-.595v-.405h1.577v.405h-.601v2.248h-.382v-2.248Z"/>
      <path d="M43.363,16.793v1.062h.883v-1.062h.381v2.653h-.381v-1.169h-.883v1.169h-.381v-2.653h.381Z"/>
      <path d="M46.288,16.828c.14-.031.328-.055.583-.055.278,0,.479.074.613.216.123.131.204.339.204.587,0,.252-.062.457-.177.599-.155.192-.391.287-.66.287-.07,0-.133-.004-.186-.02v1.004h-.378v-2.618ZM46.666,18.061c.05.02.108.023.186.023.285,0,.459-.181.459-.488,0-.295-.161-.448-.425-.448-.104,0-.18.012-.22.023v.89Z"/>
      <path d="M48.216,18.695l-.18.752h-.393l.669-2.653h.486l.678,2.653h-.411l-.189-.752h-.66ZM48.814,18.328l-.165-.653c-.04-.161-.074-.343-.104-.496h-.007c-.03.153-.064.339-.099.496l-.161.653h.536Z"/>
      <path d="M49.765,16.832c.146-.035.356-.059.576-.059.301,0,.502.062.645.212.114.122.18.308.18.536,0,.342-.183.574-.381.661v.012c.151.071.241.256.291.512.068.331.124.638.164.74h-.391c-.03-.079-.083-.295-.139-.626-.062-.347-.158-.457-.375-.465h-.192v1.091h-.378v-2.614ZM50.143,18.002h.227c.257,0,.415-.174.415-.438,0-.287-.158-.425-.406-.425-.12,0-.198.012-.235.023v.839Z"/>
      <path d="M51.939,17.198h-.595v-.405h1.577v.405h-.601v2.248h-.382v-2.248Z"/>
      <path d="M54.88,17.324h-.007l-.368.236-.065-.366.492-.307h.316v2.559h-.368v-2.122Z"/>
      <path d="M57.223,17.289h-.774l-.06.512c.044-.008.084-.012.143-.012.177,0,.356.051.489.165.152.122.264.339.264.649,0,.488-.319.886-.812.886-.235,0-.431-.074-.536-.149l.078-.366c.086.06.26.134.442.134.223,0,.437-.161.437-.464,0-.296-.17-.488-.569-.488-.115,0-.198.012-.276.023l.131-1.291h1.044v.401Z"/>
      <path d="M60.749,18.092c0,.89-.425,1.397-.997,1.397-.592,0-.964-.574-.964-1.35,0-.819.406-1.394.994-1.394.607,0,.967.586.967,1.346ZM59.191,18.128c0,.543.213.972.579.972.368,0,.576-.437.576-.992,0-.5-.195-.972-.576-.972-.378,0-.579.444-.579.992Z"/>
      <path d="M61.074,16.793h1.208v.397h-.827v.732h.769v.394h-.769v1.13h-.381v-2.653Z"/>
      <path d="M64.026,17.198h-.595v-.405h1.577v.405h-.601v2.248h-.382v-2.248Z"/>
      <path d="M65.632,16.793v1.062h.883v-1.062h.381v2.653h-.381v-1.169h-.883v1.169h-.381v-2.653h.381Z"/>
      <path d="M68.497,18.27h-.787v.779h.88v.397h-1.261v-2.653h1.215v.397h-.834v.686h.787v.394Z"/>
      <path d="M70.127,16.793h1.208v.397h-.827v.732h.769v.394h-.769v1.13h-.381v-2.653Z"/>
      <path d="M73.197,19.371c-.09.056-.288.118-.542.118-.663,0-1.065-.527-1.065-1.338,0-.874.48-1.401,1.118-1.401.251,0,.428.066.505.118l-.08.386c-.1-.056-.239-.103-.409-.103-.425,0-.731.338-.731.977,0,.586.267.956.729.956.151,0,.312-.039.415-.095l.062.382Z"/>
      <path d="M74.936,19.371c-.09.056-.288.118-.542.118-.663,0-1.065-.527-1.065-1.338,0-.874.48-1.401,1.118-1.401.251,0,.428.066.505.118l-.08.386c-.1-.056-.239-.103-.409-.103-.425,0-.731.338-.731.977,0,.586.267.956.729.956.151,0,.312-.039.415-.095l.062.382Z"/>
      <path d="M76.521,16.832c.148-.035.363-.059.587-.059.307,0,.512.062.657.212.117.122.184.308.184.536,0,.342-.187.574-.389.661v.012c.154.071.246.256.297.512.069.331.126.638.167.74h-.397c-.032-.079-.086-.295-.143-.626-.063-.347-.161-.457-.382-.465h-.196v1.091h-.385v-2.614ZM76.905,18.002h.23c.263,0,.424-.174.424-.438,0-.287-.161-.425-.414-.425-.123,0-.202.012-.24.023v.839Z"/>
      <path d="M78.694,16.793v1.547c0,.52.174.76.437.76.28,0,.448-.24.448-.76v-1.547h.389v1.516c0,.818-.338,1.181-.85,1.181-.493,0-.812-.342-.812-1.177v-1.52h.389Z"/>
      <path d="M80.418,16.793h.388v2.248h.875v.405h-1.263v-2.653Z"/>
      <path d="M83.169,18.27h-.803v.779h.897v.397h-1.285v-2.653h1.238v.397h-.851v.686h.803v.394Z"/>
      <path d="M83.602,18.919c.123.091.316.169.515.169.247,0,.386-.146.386-.362,0-.2-.107-.318-.376-.44-.354-.157-.578-.39-.578-.771,0-.438.291-.764.755-.764.23,0,.398.062.509.134l-.092.39c-.079-.052-.228-.126-.426-.126-.247,0-.352.161-.352.318,0,.205.124.3.408.438.369.173.546.405.546.787,0,.429-.259.799-.806.799-.227,0-.461-.078-.577-.169l.088-.401Z"/>
      <path d="M85.186,19.179c0-.182.099-.312.235-.312.14,0,.235.126.235.312,0,.177-.093.311-.238.311-.137,0-.232-.134-.232-.311Z"/>
      <path d="M88.733,18.092c0,.89-.425,1.397-.997,1.397-.592,0-.964-.574-.964-1.35,0-.819.406-1.394.994-1.394.607,0,.967.586.967,1.346ZM87.176,18.128c0,.543.213.972.579.972.368,0,.576-.437.576-.992,0-.5-.195-.972-.576-.972-.378,0-.579.444-.579.992Z"/>
      <path d="M89.07,16.828c.14-.031.328-.055.583-.055.278,0,.479.074.613.216.123.131.204.339.204.587,0,.252-.062.457-.177.599-.154.192-.391.287-.66.287-.07,0-.133-.004-.186-.02v1.004h-.378v-2.618ZM89.448,18.061c.05.02.108.023.186.023.285,0,.459-.181.459-.488,0-.295-.161-.448-.425-.448-.104,0-.18.012-.22.023v.89Z"/>
      <path d="M91.98,18.27h-.787v.779h.88v.397h-1.261v-2.653h1.215v.397h-.834v.686h.787v.394Z"/>
      <path d="M92.417,16.832c.146-.035.356-.059.576-.059.301,0,.502.062.645.212.114.122.18.308.18.536,0,.342-.183.574-.381.661v.012c.151.071.241.256.291.512.068.331.124.638.164.74h-.391c-.03-.079-.083-.295-.139-.626-.062-.347-.158-.457-.375-.465h-.192v1.091h-.378v-2.614ZM92.795,18.002h.227c.257,0,.415-.174.415-.438,0-.287-.158-.425-.406-.425-.12,0-.198.012-.235.023v.839Z"/>
      <path d="M94.629,18.695l-.18.752h-.393l.669-2.653h.486l.678,2.653h-.412l-.188-.752h-.66ZM95.228,18.328l-.165-.653c-.04-.161-.074-.343-.104-.496h-.007c-.03.153-.064.339-.099.496l-.161.653h.536Z"/>
      <path d="M96.339,17.198h-.595v-.405h1.577v.405h-.601v2.248h-.382v-2.248Z"/>
      <path d="M97.956,16.793v2.653h-.381v-2.653h.381Z"/>
      <path d="M100.257,18.092c0,.89-.425,1.397-.997,1.397-.592,0-.964-.574-.964-1.35,0-.819.406-1.394.994-1.394.607,0,.967.586.967,1.346ZM98.699,18.128c0,.543.213.972.579.972.368,0,.576-.437.576-.992,0-.5-.195-.972-.576-.972-.378,0-.579.444-.579.992Z"/>
      <path d="M100.591,19.446v-2.653h.437l.539,1.138c.137.295.261.603.356.89h.006c-.027-.354-.034-.696-.034-1.103v-.925h.354v2.653h-.396l-.545-1.169c-.134-.292-.27-.614-.372-.914l-.013.005c.016.342.022.692.022,1.129v.949h-.354Z"/>
      <path d="M104.283,16.793v2.653h-.381v-2.653h.381Z"/>
      <path d="M104.713,18.919c.121.091.31.169.505.169.241,0,.378-.146.378-.362,0-.2-.105-.318-.369-.44-.347-.157-.566-.39-.566-.771,0-.438.285-.764.74-.764.227,0,.391.062.499.134l-.09.39c-.078-.052-.224-.126-.418-.126-.242,0-.345.161-.345.318,0,.205.121.3.4.438.362.173.535.405.535.787,0,.429-.254.799-.79.799-.223,0-.452-.078-.566-.169l.087-.401Z"/>
      <path d="M107.493,18.919c.121.091.31.169.505.169.241,0,.378-.146.378-.362,0-.2-.105-.318-.369-.44-.347-.157-.566-.39-.566-.771,0-.438.285-.764.74-.764.227,0,.391.062.499.134l-.09.39c-.078-.052-.224-.126-.419-.126-.241,0-.344.161-.344.318,0,.205.121.3.4.438.362.173.535.405.535.787,0,.429-.254.799-.789.799-.224,0-.453-.078-.567-.169l.087-.401Z"/>
      <path d="M109.482,16.793v1.547c0,.52.171.76.428.76.275,0,.439-.24.439-.76v-1.547h.381v1.516c0,.818-.331,1.181-.833,1.181-.483,0-.796-.342-.796-1.177v-1.52h.381Z"/>
      <path d="M111.164,16.832c.121-.031.341-.059.558-.059.279,0,.455.047.595.169.13.099.217.271.217.5,0,.244-.121.465-.347.571v.012c.22.07.421.291.421.653,0,.236-.08.421-.198.551-.148.162-.394.244-.777.244-.211,0-.368-.02-.468-.035v-2.606ZM111.542,17.88h.195c.267,0,.412-.158.412-.382,0-.252-.148-.366-.391-.366-.111,0-.177.008-.217.02v.729ZM111.542,19.096c.05.012.115.012.201.012.245,0,.465-.114.465-.44,0-.312-.214-.438-.477-.438h-.189v.866Z"/>
      <path d="M113.36,16.793h.381v1.721c0,.731-.278.976-.69.976-.108,0-.238-.023-.322-.062l.047-.39c.062.027.146.047.235.047.217,0,.35-.126.35-.587v-1.704Z"/>
      <path d="M115.326,18.27h-.787v.779h.88v.397h-1.261v-2.653h1.215v.397h-.834v.686h.787v.394Z"/>
      <path d="M117.247,19.371c-.09.056-.288.118-.542.118-.663,0-1.065-.527-1.065-1.338,0-.874.48-1.401,1.118-1.401.251,0,.428.066.505.118l-.08.386c-.1-.056-.239-.103-.409-.103-.425,0-.731.338-.731.977,0,.586.267.956.729.956.151,0,.312-.039.415-.095l.062.382Z"/>
      <path d="M118.03,17.198h-.595v-.405h1.577v.405h-.601v2.248h-.382v-2.248Z"/>
      <path d="M120.709,17.198h-.595v-.405h1.577v.405h-.601v2.248h-.382v-2.248Z"/>
      <path d="M123.699,18.092c0,.89-.425,1.397-.997,1.397-.592,0-.964-.574-.964-1.35,0-.819.406-1.394.994-1.394.607,0,.967.586.967,1.346ZM122.142,18.128c0,.543.213.972.579.972.368,0,.576-.437.576-.992,0-.5-.195-.972-.576-.972-.378,0-.579.444-.579.992Z"/>
      <path d="M125.492,17.198h-.601v-.405h1.592v.405h-.606v2.248h-.385v-2.248Z"/>
      <path d="M127.115,16.793v1.062h.892v-1.062h.385v2.653h-.385v-1.169h-.892v1.169h-.385v-2.653h.385Z"/>
      <path d="M130.013,18.27h-.795v.779h.889v.397h-1.273v-2.653h1.227v.397h-.842v.686h.795v.394Z"/>
      <path d="M131.57,16.793h1.231v.397h-.844v.732h.784v.394h-.784v1.13h-.388v-2.653Z"/>
      <path d="M135.076,18.092c0,.89-.433,1.397-1.018,1.397-.603,0-.982-.574-.982-1.35,0-.819.414-1.394,1.015-1.394.619,0,.985.586.985,1.346ZM133.487,18.128c0,.543.218.972.591.972.376,0,.587-.437.587-.992,0-.5-.198-.972-.587-.972-.386,0-.591.444-.591.992Z"/>
      <path d="M135.423,16.793h.388v2.248h.875v.405h-1.263v-2.653Z"/>
      <path d="M136.989,16.793h.388v2.248h.875v.405h-1.263v-2.653Z"/>
      <path d="M140.321,18.092c0,.89-.433,1.397-1.018,1.397-.603,0-.982-.574-.982-1.35,0-.819.414-1.394,1.015-1.394.619,0,.985.586.985,1.346ZM138.732,18.128c0,.543.218.972.591.972.376,0,.587-.437.587-.992,0-.5-.198-.972-.587-.972-.386,0-.591.444-.591.992Z"/>
      <path d="M141.002,19.446l-.521-2.653h.413l.202,1.204c.054.323.104.662.14.926h.006c.035-.279.095-.595.154-.93l.231-1.2h.407l.212,1.221c.05.314.098.609.129.897h.007c.037-.292.088-.595.145-.922l.222-1.196h.395l-.575,2.653h-.413l-.222-1.248c-.054-.303-.091-.555-.12-.843h-.006c-.035.284-.076.54-.139.843l-.247,1.248h-.42Z"/>
      <path d="M143.804,16.793v2.653h-.388v-2.653h.388Z"/>
      <path d="M144.254,19.446v-2.653h.445l.55,1.138c.14.295.266.603.363.89h.007c-.028-.354-.035-.696-.035-1.103v-.925h.36v2.653h-.404l-.556-1.169c-.137-.292-.275-.614-.38-.914l-.013.005c.017.342.022.692.022,1.129v.949h-.36Z"/>
      <path d="M148.109,19.324c-.136.063-.401.149-.682.149-.36,0-.636-.114-.838-.354-.189-.224-.297-.574-.297-.976.004-.843.48-1.378,1.185-1.378.263,0,.468.066.565.126l-.085.39c-.117-.067-.259-.114-.483-.114-.455,0-.773.335-.773.952,0,.603.297.961.739.961.142,0,.243-.023.293-.051v-.666h-.376v-.382h.752v1.343Z"/>
      <path d="M149.99,17.198h-.615v-.405h1.631v.405h-.621v2.248h-.395v-2.248Z"/>
      <path d="M151.716,19.446l-.529-2.653h.42l.205,1.204c.055.323.105.662.141.926h.007c.035-.279.096-.595.157-.93l.233-1.2h.414l.214,1.221c.052.314.1.609.132.897h.007c.038-.292.089-.595.146-.922l.225-1.196h.4l-.583,2.653h-.42l-.224-1.248c-.055-.303-.094-.555-.122-.843h-.007c-.035.284-.076.54-.141.843l-.25,1.248h-.426Z"/>
      <path d="M156.049,18.092c0,.89-.438,1.397-1.031,1.397-.612,0-.997-.574-.997-1.35,0-.819.42-1.394,1.028-1.394.629,0,1,.586,1,1.346ZM154.438,18.128c0,.543.221.972.599.972.382,0,.597-.437.597-.992,0-.5-.202-.972-.597-.972-.391,0-.599.444-.599.992Z"/>
      <path d="M159.007,19.371c-.091.056-.291.118-.548.118-.669,0-1.076-.527-1.076-1.338,0-.874.485-1.401,1.129-1.401.254,0,.432.066.511.118l-.082.386c-.1-.056-.24-.103-.413-.103-.428,0-.737.338-.737.977,0,.586.269.956.734.956.153,0,.316-.039.419-.095l.063.382Z"/>
      <path d="M161.126,18.092c0,.89-.429,1.397-1.008,1.397-.597,0-.973-.574-.973-1.35,0-.819.41-1.394,1.005-1.394.612,0,.976.586.976,1.346ZM159.552,18.128c0,.543.216.972.585.972.372,0,.581-.437.581-.992,0-.5-.196-.972-.581-.972-.382,0-.585.444-.585.992Z"/>
      <path d="M161.455,19.446v-2.653h.441l.544,1.138c.138.295.263.603.36.89h.006c-.028-.354-.034-.696-.034-1.103v-.925h.356v2.653h-.4l-.551-1.169c-.135-.292-.272-.614-.375-.914l-.013.005c.016.342.021.692.021,1.129v.949h-.356Z"/>
      <path d="M163.573,16.828c.173-.031.385-.055.613-.055.395,0,.663.103.857.307.206.209.331.527.331.977,0,.477-.128.827-.328,1.055-.21.24-.544.362-.954.362-.222,0-.391-.016-.52-.035v-2.61ZM163.958,19.08c.054.012.135.012.213.012.501.004.798-.347.798-1.02.003-.583-.266-.921-.748-.921-.121,0-.206.012-.263.027v1.901Z"/>
      <path d="M166.095,16.793v2.653h-.385v-2.653h.385Z"/>
      <path d="M166.941,17.198h-.601v-.405h1.592v.405h-.606v2.248h-.385v-2.248Z"/>
      <path d="M168.564,16.793v2.653h-.385v-2.653h.385Z"/>
      <path d="M170.877,18.092c0,.89-.429,1.397-1.008,1.397-.597,0-.973-.574-.973-1.35,0-.819.41-1.394,1.005-1.394.612,0,.976.586.976,1.346ZM169.303,18.128c0,.543.216.972.585.972.372,0,.581-.437.581-.992,0-.5-.196-.972-.581-.972-.382,0-.585.444-.585.992Z"/>
      <path d="M171.206,19.446v-2.653h.441l.544,1.138c.138.295.263.603.36.89h.006c-.028-.354-.034-.696-.034-1.103v-.925h.356v2.653h-.4l-.551-1.169c-.135-.292-.272-.614-.375-.914l-.013.005c.016.342.021.692.021,1.129v.949h-.356Z"/>
      <path d="M173.318,18.919c.122.091.312.169.51.169.244,0,.382-.146.382-.362,0-.2-.106-.318-.372-.44-.351-.157-.572-.39-.572-.771,0-.438.287-.764.747-.764.229,0,.395.062.504.134l-.091.39c-.078-.052-.226-.126-.422-.126-.244,0-.348.161-.348.318,0,.205.122.3.403.438.366.173.541.405.541.787,0,.429-.256.799-.798.799-.225,0-.456-.078-.572-.169l.088-.401Z"/>
      <path d="M174.885,17.856c0-.181.098-.311.238-.311s.234.126.234.311c0,.174-.094.308-.241.308-.134,0-.231-.134-.231-.308ZM174.885,19.183c0-.182.098-.312.238-.312s.234.126.234.312c0,.173-.094.307-.241.307-.134,0-.231-.134-.231-.307Z"/>
      <path d="M177.29,16.569c-.198.374-.347.894-.347,1.603,0,.696.151,1.213.347,1.59h-.275c-.18-.314-.378-.83-.378-1.59.003-.771.198-1.283.378-1.603h.275Z"/>
      <path d="M178.106,17.324h-.007l-.368.236-.065-.366.492-.307h.316v2.559h-.368v-2.122Z"/>
      <path d="M179.12,19.761c.195-.373.347-.897.347-1.598s-.151-1.217-.347-1.595h.275c.18.312.378.823.378,1.595-.003.768-.198,1.279-.378,1.598h-.275Z"/>
      <path d="M181.69,17.198h-.595v-.405h1.577v.405h-.601v2.248h-.382v-2.248Z"/>
      <path d="M183.294,16.793v1.062h.883v-1.062h.381v2.653h-.381v-1.169h-.883v1.169h-.381v-2.653h.381Z"/>
      <path d="M185.374,16.793v2.653h-.381v-2.653h.381Z"/>
      <path d="M185.803,18.919c.121.091.31.169.505.169.241,0,.378-.146.378-.362,0-.2-.105-.318-.369-.44-.347-.157-.566-.39-.566-.771,0-.438.285-.764.74-.764.227,0,.391.062.499.134l-.09.39c-.078-.052-.224-.126-.418-.126-.242,0-.345.161-.345.318,0,.205.121.3.4.438.362.173.535.405.535.787,0,.429-.254.799-.79.799-.223,0-.452-.078-.566-.169l.087-.401Z"/>
    </g>
    <g>
      <path d="M5.46,20.825c.178-.031.398-.055.634-.055.408,0,.687.103.887.307.214.209.343.527.343.977,0,.477-.133.827-.34,1.055-.217.24-.562.362-.986.362-.229,0-.404-.016-.537-.035v-2.61ZM5.859,23.077c.055.012.139.012.22.012.518.004.825-.347.825-1.02.003-.583-.275-.921-.773-.921-.126,0-.214.012-.271.027v1.901Z"/>
      <path d="M8.811,22.266h-.821v.779h.918v.397h-1.316v-2.653h1.269v.397h-.87v.686h.821v.394Z"/>
      <path d="M9.702,23.443l-.705-2.653h.434l.298,1.209c.084.334.158.642.213.964h.007c.059-.314.14-.638.224-.96l.316-1.213h.424l-.754,2.653h-.456Z"/>
      <path d="M11.468,20.79v2.653h-.398v-2.653h.398Z"/>
      <path d="M13.406,23.368c-.094.056-.301.118-.566.118-.691,0-1.112-.527-1.112-1.338,0-.874.501-1.401,1.168-1.401.262,0,.446.066.527.118l-.084.386c-.104-.056-.249-.103-.428-.103-.442,0-.763.338-.763.977,0,.586.277.956.76.956.158,0,.327-.039.434-.095l.064.382Z"/>
      <path d="M14.886,22.266h-.821v.779h.918v.397h-1.316v-2.653h1.269v.397h-.87v.686h.821v.394Z"/>
      <path d="M18.247,22.36c-.013-.342-.029-.756-.026-1.113h-.009c-.071.322-.162.681-.259,1.016l-.32,1.149h-.305l-.291-1.134c-.084-.339-.162-.701-.22-1.031h-.007c-.01.346-.022.768-.039,1.13l-.048,1.066h-.372l.146-2.653h.524l.284,1.066c.078.312.146.626.2.922h.01c.059-.288.133-.614.217-.926l.301-1.062h.518l.127,2.653h-.389l-.042-1.083Z"/>
      <path d="M19.419,22.691l-.188.752h-.41l.698-2.653h.508l.709,2.653h-.431l-.197-.752h-.689ZM20.044,22.325l-.172-.653c-.042-.161-.077-.343-.109-.496h-.007c-.032.153-.068.339-.104.496l-.168.653h.56Z"/>
      <path d="M21.172,23.443v-1.106l-.689-1.547h.456l.26.681c.074.197.129.347.19.528h.007c.052-.17.113-.335.188-.528l.262-.681h.449l-.725,1.535v1.118h-.397Z"/>
      <path d="M23.547,23.443v-2.653h.456l.562,1.138c.143.295.272.603.372.89h.007c-.029-.354-.036-.696-.036-1.103v-.925h.369v2.653h-.414l-.569-1.169c-.139-.292-.281-.614-.388-.914l-.014.005c.017.342.022.692.022,1.129v.949h-.368Z"/>
      <path d="M27.593,22.089c0,.89-.443,1.397-1.042,1.397-.617,0-1.006-.574-1.006-1.35,0-.819.424-1.394,1.039-1.394.634,0,1.009.586,1.009,1.346ZM25.966,22.125c0,.543.223.972.604.972.386,0,.602-.437.602-.992,0-.5-.203-.972-.602-.972-.395,0-.604.444-.604.992Z"/>
      <path d="M28.187,21.195h-.621v-.405h1.647v.405h-.628v2.248h-.398v-2.248Z"/>
      <path d="M32.104,23.368c-.094.056-.301.118-.566.118-.691,0-1.112-.527-1.112-1.338,0-.874.501-1.401,1.168-1.401.262,0,.446.066.527.118l-.084.386c-.104-.056-.25-.103-.428-.103-.443,0-.763.338-.763.977,0,.586.277.956.76.956.158,0,.327-.039.434-.095l.064.382Z"/>
      <path d="M32.824,22.691l-.188.752h-.41l.698-2.653h.508l.709,2.653h-.431l-.197-.752h-.689ZM33.449,22.325l-.172-.653c-.042-.161-.077-.343-.109-.496h-.007c-.032.153-.068.339-.104.496l-.168.653h.56Z"/>
      <path d="M34.657,20.79v1.547c0,.52.179.76.446.76.288,0,.46-.24.46-.76v-1.547h.397v1.516c0,.818-.346,1.181-.87,1.181-.505,0-.831-.342-.831-1.177v-1.52h.397Z"/>
      <path d="M36.333,22.916c.126.091.323.169.526.169.253,0,.396-.146.396-.362,0-.2-.11-.318-.386-.44-.362-.157-.592-.39-.592-.771,0-.438.298-.764.773-.764.236,0,.407.062.521.134l-.094.39c-.081-.052-.232-.126-.437-.126-.252,0-.359.161-.359.318,0,.205.127.3.418.438.378.173.56.405.56.787,0,.429-.266.799-.825.799-.232,0-.473-.078-.592-.169l.091-.401Z"/>
      <path d="M39.158,22.266h-.821v.779h.918v.397h-1.316v-2.653h1.269v.397h-.87v.686h.821v.394Z"/>
      <path d="M41.03,20.79v1.062h.922v-1.062h.397v2.653h-.397v-1.169h-.922v1.169h-.398v-2.653h.398Z"/>
      <path d="M43.209,22.691l-.188.752h-.41l.698-2.653h.508l.709,2.653h-.431l-.197-.752h-.689ZM43.834,22.325l-.172-.653c-.042-.161-.077-.343-.109-.496h-.007c-.032.153-.068.339-.104.496l-.168.653h.56Z"/>
      <path d="M44.795,20.829c.152-.035.372-.059.602-.059.314,0,.524.062.673.212.12.122.188.308.188.536,0,.342-.19.574-.397.661v.012c.158.071.252.256.304.512.071.331.13.638.172.74h-.407c-.033-.079-.088-.295-.146-.626-.065-.347-.165-.457-.392-.465h-.201v1.091h-.395v-2.614ZM45.19,21.999h.236c.269,0,.434-.174.434-.438,0-.287-.165-.425-.424-.425-.126,0-.207.012-.246.023v.839Z"/>
      <path d="M48.443,22.36c-.013-.342-.029-.756-.025-1.113h-.01c-.071.322-.162.681-.259,1.016l-.32,1.149h-.305l-.291-1.134c-.084-.339-.161-.701-.22-1.031h-.007c-.01.346-.022.768-.038,1.13l-.049,1.066h-.372l.146-2.653h.524l.284,1.066c.078.312.146.626.2.922h.01c.059-.288.133-.614.217-.926l.301-1.062h.518l.127,2.653h-.389l-.042-1.083Z"/>
      <path d="M49.245,20.79h1.262v.397h-.863v.732h.802v.394h-.802v1.13h-.398v-2.653Z"/>
      <path d="M51.252,20.79v1.547c0,.52.179.76.446.76.288,0,.46-.24.46-.76v-1.547h.397v1.516c0,.818-.346,1.181-.87,1.181-.505,0-.831-.342-.831-1.177v-1.52h.397Z"/>
      <path d="M52.979,20.79h.398v2.248h.896v.405h-1.294v-2.653Z"/>
      <path d="M55.938,20.79v2.653h-.398v-2.653h.398Z"/>
      <path d="M56.33,23.443v-2.653h.456l.562,1.138c.143.295.272.603.372.89h.007c-.029-.354-.036-.696-.036-1.103v-.925h.369v2.653h-.414l-.569-1.169c-.139-.292-.281-.614-.388-.914l-.014.005c.017.342.023.692.023,1.129v.949h-.369Z"/>
      <path d="M58.878,21.195h-.621v-.405h1.646v.405h-.628v2.248h-.397v-2.248Z"/>
      <path d="M61.319,22.266h-.821v.779h.918v.397h-1.316v-2.653h1.269v.397h-.87v.686h.821v.394Z"/>
      <path d="M61.706,20.829c.152-.035.372-.059.602-.059.314,0,.524.062.673.212.12.122.188.308.188.536,0,.342-.19.574-.397.661v.012c.158.071.252.256.304.512.071.331.13.638.172.74h-.407c-.033-.079-.088-.295-.146-.626-.065-.347-.165-.457-.392-.465h-.201v1.091h-.395v-2.614ZM62.1,21.999h.236c.269,0,.434-.174.434-.438,0-.287-.165-.425-.424-.425-.126,0-.207.012-.246.023v.839Z"/>
      <path d="M63.487,20.79h1.262v.397h-.863v.732h.802v.394h-.802v1.13h-.398v-2.653Z"/>
      <path d="M66.294,22.266h-.821v.779h.918v.397h-1.316v-2.653h1.269v.397h-.87v.686h.821v.394Z"/>
      <path d="M66.679,20.829c.152-.035.372-.059.602-.059.314,0,.524.062.673.212.12.122.188.308.188.536,0,.342-.19.574-.397.661v.012c.158.071.252.256.304.512.071.331.13.638.172.74h-.407c-.033-.079-.088-.295-.146-.626-.064-.347-.164-.457-.391-.465h-.201v1.091h-.395v-2.614ZM67.074,21.999h.236c.269,0,.434-.174.434-.438,0-.287-.165-.425-.424-.425-.126,0-.207.012-.246.023v.839Z"/>
      <path d="M69.68,22.266h-.821v.779h.918v.397h-1.316v-2.653h1.269v.397h-.87v.686h.821v.394Z"/>
      <path d="M70.064,23.443v-2.653h.456l.562,1.138c.143.295.272.603.372.89h.007c-.029-.354-.036-.696-.036-1.103v-.925h.369v2.653h-.414l-.569-1.169c-.139-.292-.281-.614-.388-.914l-.014.005c.017.342.023.692.023,1.129v.949h-.369Z"/>
      <path d="M73.757,23.368c-.094.056-.301.118-.566.118-.691,0-1.112-.527-1.112-1.338,0-.874.501-1.401,1.168-1.401.262,0,.446.066.527.118l-.084.386c-.104-.056-.249-.103-.428-.103-.442,0-.763.338-.763.977,0,.586.277.956.76.956.158,0,.327-.039.434-.095l.064.382Z"/>
      <path d="M75.257,22.266h-.821v.779h.918v.397h-1.316v-2.653h1.269v.397h-.87v.686h.821v.394Z"/>
      <path d="M77.584,22.691l-.188.752h-.41l.698-2.653h.508l.709,2.653h-.431l-.197-.752h-.689ZM78.209,22.325l-.172-.653c-.042-.161-.077-.343-.109-.496h-.007c-.032.153-.068.339-.104.496l-.168.653h.56Z"/>
      <path d="M79.123,23.443v-2.653h.456l.562,1.138c.143.295.272.603.372.89h.007c-.029-.354-.036-.696-.036-1.103v-.925h.369v2.653h-.414l-.569-1.169c-.139-.292-.281-.614-.388-.914l-.014.005c.017.342.023.692.023,1.129v.949h-.369Z"/>
      <path d="M81.234,20.825c.178-.031.398-.055.634-.055.408,0,.687.103.887.307.214.209.343.527.343.977,0,.477-.133.827-.34,1.055-.217.24-.562.362-.986.362-.229,0-.404-.016-.537-.035v-2.61ZM81.632,23.077c.055.012.139.012.22.012.518.004.825-.347.825-1.02.003-.583-.275-.921-.773-.921-.126,0-.214.012-.271.027v1.901Z"/>
      <path d="M85.276,20.565c-.207.374-.362.894-.362,1.603,0,.696.159,1.213.362,1.59h-.288c-.188-.314-.395-.83-.395-1.59.004-.771.207-1.283.395-1.603h.288Z"/>
      <path d="M85.425,23.443v-.295l.25-.28c.494-.559.728-.865.73-1.204,0-.229-.101-.43-.375-.43-.188,0-.343.114-.45.213l-.116-.343c.152-.149.382-.264.647-.264.466,0,.692.358.692.776,0,.448-.266.811-.635,1.224l-.181.193v.008h.86v.401h-1.424Z"/>
      <path d="M87.033,23.757c.203-.373.362-.897.362-1.598s-.159-1.217-.362-1.595h.288c.188.312.395.823.395,1.595-.004.768-.207,1.279-.395,1.598h-.288Z"/>
      <path d="M89.431,21.195h-.621v-.405h1.647v.405h-.628v2.248h-.398v-2.248Z"/>
      <path d="M91.032,20.79v1.062h.922v-1.062h.397v2.653h-.397v-1.169h-.922v1.169h-.398v-2.653h.398Z"/>
      <path d="M93.127,20.79v2.653h-.398v-2.653h.398Z"/>
      <path d="M93.497,22.916c.126.091.323.169.526.169.253,0,.396-.146.396-.362,0-.2-.11-.318-.386-.44-.362-.157-.592-.39-.592-.771,0-.438.298-.764.773-.764.236,0,.407.062.521.134l-.094.39c-.081-.052-.232-.126-.437-.126-.252,0-.359.161-.359.318,0,.205.127.3.418.438.378.173.56.405.56.787,0,.429-.266.799-.825.799-.232,0-.473-.078-.592-.169l.091-.401Z"/>
      <path d="M96.254,20.825c.178-.031.398-.055.634-.055.408,0,.687.103.887.307.214.209.343.527.343.977,0,.477-.133.827-.34,1.055-.217.24-.562.362-.986.362-.229,0-.404-.016-.537-.035v-2.61ZM96.653,23.077c.055.012.139.012.22.012.518.004.825-.347.825-1.02.003-.583-.275-.921-.773-.921-.126,0-.214.012-.271.027v1.901Z"/>
      <path d="M99.605,22.266h-.821v.779h.918v.397h-1.316v-2.653h1.269v.397h-.87v.686h.821v.394Z"/>
      <path d="M100.496,23.443l-.705-2.653h.434l.298,1.209c.084.334.158.642.213.964h.007c.059-.314.139-.638.224-.96l.316-1.213h.424l-.754,2.653h-.456Z"/>
      <path d="M102.261,20.79v2.653h-.398v-2.653h.398Z"/>
      <path d="M104.2,23.368c-.094.056-.301.118-.566.118-.691,0-1.112-.527-1.112-1.338,0-.874.501-1.401,1.168-1.401.262,0,.446.066.527.118l-.084.386c-.104-.056-.25-.103-.428-.103-.443,0-.763.338-.763.977,0,.586.277.956.76.956.158,0,.327-.039.434-.095l.064.382Z"/>
      <path d="M105.68,22.266h-.821v.779h.918v.397h-1.316v-2.653h1.269v.397h-.87v.686h.821v.394Z"/>
      <path d="M109.055,22.36c-.013-.342-.029-.756-.026-1.113h-.009c-.071.322-.162.681-.259,1.016l-.32,1.149h-.305l-.291-1.134c-.084-.339-.162-.701-.22-1.031h-.007c-.01.346-.022.768-.039,1.13l-.048,1.066h-.372l.146-2.653h.524l.284,1.066c.078.312.146.626.2.922h.01c.059-.288.133-.614.217-.926l.301-1.062h.518l.127,2.653h-.389l-.042-1.083Z"/>
      <path d="M110.207,20.79v1.547c0,.52.178.76.446.76.288,0,.46-.24.46-.76v-1.547h.397v1.516c0,.818-.346,1.181-.87,1.181-.505,0-.831-.342-.831-1.177v-1.52h.397Z"/>
      <path d="M111.881,22.916c.126.091.323.169.526.169.253,0,.396-.146.396-.362,0-.2-.11-.318-.386-.44-.362-.157-.592-.39-.592-.771,0-.438.298-.764.773-.764.236,0,.407.062.521.134l-.094.39c-.081-.052-.232-.126-.437-.126-.252,0-.359.161-.359.318,0,.205.127.3.418.438.378.173.56.405.56.787,0,.429-.266.799-.825.799-.232,0-.473-.078-.592-.169l.091-.401Z"/>
      <path d="M113.906,21.195h-.621v-.405h1.646v.405h-.628v2.248h-.397v-2.248Z"/>
      <path d="M116.563,22.691l-.188.752h-.41l.698-2.653h.508l.709,2.653h-.431l-.197-.752h-.689ZM117.188,22.325l-.172-.653c-.042-.161-.077-.343-.11-.496h-.006c-.032.153-.068.339-.104.496l-.168.653h.56Z"/>
      <path d="M119.638,23.368c-.094.056-.301.118-.566.118-.691,0-1.112-.527-1.112-1.338,0-.874.501-1.401,1.168-1.401.262,0,.446.066.527.118l-.084.386c-.104-.056-.249-.103-.428-.103-.442,0-.763.338-.763.977,0,.586.277.956.76.956.158,0,.327-.039.434-.095l.064.382Z"/>
      <path d="M121.417,23.368c-.094.056-.301.118-.566.118-.691,0-1.112-.527-1.112-1.338,0-.874.501-1.401,1.168-1.401.262,0,.446.066.527.118l-.084.386c-.104-.056-.25-.103-.428-.103-.443,0-.763.338-.763.977,0,.586.277.956.76.956.158,0,.327-.039.434-.095l.064.382Z"/>
      <path d="M122.936,22.266h-.821v.779h.918v.397h-1.316v-2.653h1.269v.397h-.87v.686h.821v.394Z"/>
      <path d="M123.341,20.825c.146-.031.343-.055.608-.055.291,0,.501.074.641.216.129.131.213.339.213.587,0,.252-.064.457-.184.599-.162.192-.408.287-.689.287-.074,0-.139-.004-.194-.02v1.004h-.395v-2.618ZM123.736,22.057c.052.02.113.023.194.023.298,0,.479-.181.479-.488,0-.295-.168-.448-.442-.448-.11,0-.188.012-.23.023v.89Z"/>
      <path d="M125.527,21.195h-.621v-.405h1.647v.405h-.628v2.248h-.398v-2.248Z"/>
      <path d="M128.252,22.691l-.188.752h-.41l.698-2.653h.508l.709,2.653h-.431l-.197-.752h-.689ZM128.877,22.325l-.172-.653c-.042-.161-.077-.343-.109-.496h-.007c-.032.153-.068.339-.104.496l-.168.653h.56Z"/>
      <path d="M129.839,23.443v-2.653h.456l.562,1.138c.143.295.272.603.372.89h.007c-.029-.354-.036-.696-.036-1.103v-.925h.369v2.653h-.414l-.569-1.169c-.139-.292-.281-.614-.388-.914l-.014.005c.017.342.023.692.023,1.129v.949h-.369Z"/>
      <path d="M132.452,23.443v-1.106l-.689-1.547h.456l.26.681c.074.197.129.347.19.528h.007c.052-.17.113-.335.188-.528l.262-.681h.449l-.725,1.535v1.118h-.397Z"/>
      <path d="M135.171,20.79v2.653h-.398v-2.653h.398Z"/>
      <path d="M135.58,23.443v-2.653h.456l.562,1.138c.143.295.272.603.372.89h.007c-.029-.354-.036-.696-.036-1.103v-.925h.369v2.653h-.414l-.569-1.169c-.139-.292-.281-.614-.388-.914l-.014.005c.017.342.023.692.023,1.129v.949h-.369Z"/>
      <path d="M138.144,21.195h-.621v-.405h1.646v.405h-.628v2.248h-.397v-2.248Z"/>
      <path d="M140.601,22.266h-.821v.779h.918v.397h-1.316v-2.653h1.269v.397h-.87v.686h.821v.394Z"/>
      <path d="M141.003,20.829c.152-.035.372-.059.602-.059.314,0,.524.062.673.212.12.122.188.308.188.536,0,.342-.19.574-.397.661v.012c.158.071.252.256.304.512.071.331.13.638.172.74h-.407c-.033-.079-.088-.295-.146-.626-.064-.347-.164-.457-.391-.465h-.201v1.091h-.395v-2.614ZM141.398,21.999h.236c.269,0,.434-.174.434-.438,0-.287-.165-.425-.424-.425-.126,0-.207.012-.246.023v.839Z"/>
      <path d="M142.801,20.79h1.262v.397h-.863v.732h.802v.394h-.802v1.13h-.398v-2.653Z"/>
      <path d="M145.624,22.266h-.821v.779h.918v.397h-1.316v-2.653h1.269v.397h-.87v.686h.821v.394Z"/>
      <path d="M146.026,20.829c.152-.035.372-.059.602-.059.314,0,.524.062.673.212.12.122.188.308.188.536,0,.342-.19.574-.397.661v.012c.158.071.252.256.304.512.071.331.13.638.172.74h-.407c-.033-.079-.088-.295-.146-.626-.065-.347-.165-.457-.392-.465h-.201v1.091h-.395v-2.614ZM146.42,21.999h.236c.269,0,.434-.174.434-.438,0-.287-.165-.425-.424-.425-.126,0-.207.012-.246.023v.839Z"/>
      <path d="M149.044,22.266h-.821v.779h.918v.397h-1.316v-2.653h1.269v.397h-.87v.686h.821v.394Z"/>
      <path d="M149.443,23.443v-2.653h.456l.562,1.138c.143.295.272.603.372.89h.007c-.029-.354-.036-.696-.036-1.103v-.925h.369v2.653h-.414l-.569-1.169c-.139-.292-.281-.614-.388-.914l-.014.005c.017.342.023.692.023,1.129v.949h-.369Z"/>
      <path d="M153.152,23.368c-.094.056-.301.118-.566.118-.691,0-1.112-.527-1.112-1.338,0-.874.501-1.401,1.168-1.401.262,0,.446.066.527.118l-.084.386c-.104-.056-.249-.103-.428-.103-.442,0-.763.338-.763.977,0,.586.277.956.76.956.158,0,.327-.039.434-.095l.064.382Z"/>
      <path d="M154.669,22.266h-.821v.779h.918v.397h-1.316v-2.653h1.269v.397h-.87v.686h.821v.394Z"/>
      <path d="M156.087,20.829c.152-.035.372-.059.602-.059.314,0,.524.062.673.212.12.122.188.308.188.536,0,.342-.19.574-.397.661v.012c.158.071.252.256.304.512.071.331.13.638.172.74h-.407c-.033-.079-.088-.295-.146-.626-.064-.347-.164-.457-.391-.465h-.201v1.091h-.395v-2.614ZM156.482,21.999h.236c.269,0,.434-.174.434-.438,0-.287-.165-.425-.424-.425-.126,0-.207.012-.246.023v.839Z"/>
      <path d="M159.083,22.266h-.821v.779h.918v.397h-1.316v-2.653h1.269v.397h-.87v.686h.821v.394Z"/>
      <path d="M161.025,23.368c-.094.056-.301.118-.566.118-.691,0-1.112-.527-1.112-1.338,0-.874.501-1.401,1.168-1.401.262,0,.446.066.527.118l-.084.386c-.104-.056-.249-.103-.428-.103-.442,0-.763.338-.763.977,0,.586.277.956.76.956.158,0,.327-.039.434-.095l.064.382Z"/>
      <path d="M162.518,22.266h-.821v.779h.918v.397h-1.316v-2.653h1.269v.397h-.87v.686h.821v.394Z"/>
      <path d="M163.296,20.79v2.653h-.398v-2.653h.398Z"/>
      <path d="M164.183,23.443l-.705-2.653h.434l.298,1.209c.084.334.158.642.213.964h.007c.059-.314.139-.638.224-.96l.316-1.213h.424l-.754,2.653h-.456Z"/>
      <path d="M166.783,22.266h-.821v.779h.918v.397h-1.316v-2.653h1.269v.397h-.87v.686h.821v.394Z"/>
      <path d="M167.164,20.825c.178-.031.398-.055.634-.055.408,0,.687.103.887.307.214.209.343.527.343.977,0,.477-.133.827-.34,1.055-.217.24-.562.362-.986.362-.229,0-.404-.016-.537-.035v-2.61ZM167.562,23.077c.055.012.139.012.22.012.518.004.825-.347.825-1.02.003-.583-.275-.921-.773-.921-.126,0-.214.012-.271.027v1.901Z"/>
      <path d="M168.984,23.92c.087-.3.174-.713.216-1.039l.418-.04c-.094.37-.236.796-.362,1.048l-.271.031Z"/>
      <path d="M171.043,20.79v2.653h-.398v-2.653h.398Z"/>
      <path d="M171.454,23.443v-2.653h.456l.562,1.138c.143.295.272.603.372.89h.007c-.029-.354-.036-.696-.036-1.103v-.925h.369v2.653h-.414l-.569-1.169c-.139-.292-.281-.614-.388-.914l-.014.005c.017.342.022.692.022,1.129v.949h-.368Z"/>
      <path d="M175.167,23.368c-.094.056-.301.118-.566.118-.691,0-1.112-.527-1.112-1.338,0-.874.501-1.401,1.168-1.401.262,0,.446.066.527.118l-.084.386c-.104-.056-.25-.103-.428-.103-.443,0-.763.338-.763.977,0,.586.277.956.76.956.158,0,.327-.039.434-.095l.064.382Z"/>
      <path d="M175.466,20.79h.398v2.248h.896v.405h-1.294v-2.653Z"/>
      <path d="M177.308,20.79v1.547c0,.52.178.76.446.76.288,0,.46-.24.46-.76v-1.547h.397v1.516c0,.818-.346,1.181-.87,1.181-.505,0-.831-.342-.831-1.177v-1.52h.397Z"/>
      <path d="M179.028,20.825c.178-.031.398-.055.634-.055.408,0,.687.103.887.307.214.209.343.527.343.977,0,.477-.133.827-.34,1.055-.217.24-.562.362-.986.362-.229,0-.404-.016-.537-.035v-2.61ZM179.426,23.077c.055.012.139.012.22.012.518.004.825-.347.825-1.02.003-.583-.275-.921-.773-.921-.126,0-.214.012-.271.027v1.901Z"/>
      <path d="M181.596,20.79v2.653h-.398v-2.653h.398Z"/>
      <path d="M182.008,23.443v-2.653h.456l.562,1.138c.143.295.272.603.372.89h.007c-.029-.354-.036-.696-.036-1.103v-.925h.369v2.653h-.414l-.569-1.169c-.139-.292-.281-.614-.388-.914l-.014.005c.017.342.022.692.022,1.129v.949h-.368Z"/>
      <path d="M185.905,23.321c-.14.063-.411.149-.699.149-.368,0-.649-.114-.856-.354-.194-.224-.305-.574-.305-.976.004-.843.492-1.378,1.213-1.378.269,0,.479.066.579.126l-.087.39c-.12-.067-.266-.114-.495-.114-.466,0-.792.335-.792.952,0,.603.304.961.757.961.146,0,.249-.023.301-.051v-.666h-.385v-.382h.77v1.343Z"/>
    </g>
    <g>
      <path d="M7.096,24.768v2.653h-.385v-2.653h.385Z"/>
      <path d="M7.528,27.422v-2.653h.441l.544,1.138c.138.295.263.603.36.89h.006c-.028-.354-.034-.696-.034-1.103v-.925h.356v2.653h-.4l-.551-1.169c-.135-.292-.272-.614-.375-.914l-.013.005c.016.342.021.692.021,1.129v.949h-.356Z"/>
      <path d="M10.044,25.174h-.601v-.405h1.592v.405h-.606v2.248h-.385v-2.248Z"/>
      <path d="M12.456,26.245h-.795v.779h.889v.397h-1.273v-2.653h1.227v.397h-.842v.686h.795v.394Z"/>
      <path d="M12.882,24.807c.147-.035.36-.059.582-.059.304,0,.507.062.65.212.116.122.182.308.182.536,0,.342-.185.574-.385.661v.012c.153.071.244.256.294.512.069.331.125.638.166.74h-.394c-.032-.079-.085-.295-.142-.626-.062-.347-.159-.457-.378-.465h-.194v1.091h-.382v-2.614ZM13.264,25.977h.229c.26,0,.419-.174.419-.438,0-.287-.159-.425-.409-.425-.122,0-.2.012-.238.023v.839Z"/>
      <path d="M14.656,24.768h1.221v.397h-.836v.732h.776v.394h-.776v1.13h-.385v-2.653Z"/>
      <path d="M17.422,26.245h-.795v.779h.889v.397h-1.273v-2.653h1.227v.397h-.842v.686h.795v.394Z"/>
      <path d="M17.848,24.807c.147-.035.36-.059.582-.059.304,0,.507.062.65.212.116.122.182.308.182.536,0,.342-.185.574-.385.661v.012c.153.071.244.256.294.512.069.331.125.638.166.74h-.394c-.032-.079-.085-.295-.142-.626-.062-.347-.159-.457-.378-.465h-.194v1.091h-.382v-2.614ZM18.23,25.977h.229c.26,0,.419-.174.419-.438,0-.287-.159-.425-.409-.425-.122,0-.2.012-.238.023v.839Z"/>
      <path d="M20.802,26.245h-.795v.779h.889v.397h-1.273v-2.653h1.227v.397h-.842v.686h.795v.394Z"/>
      <path d="M21.225,27.422v-2.653h.441l.544,1.138c.138.295.263.603.36.89h.006c-.028-.354-.034-.696-.034-1.103v-.925h.356v2.653h-.4l-.551-1.169c-.135-.292-.272-.614-.375-.914l-.013.005c.016.342.021.692.021,1.129v.949h-.356Z"/>
      <path d="M24.849,27.346c-.091.056-.291.118-.548.118-.669,0-1.076-.527-1.076-1.338,0-.874.485-1.401,1.129-1.401.254,0,.432.066.511.118l-.082.386c-.1-.056-.24-.103-.413-.103-.428,0-.737.338-.737.977,0,.586.269.956.734.956.153,0,.316-.039.419-.095l.063.382Z"/>
      <path d="M26.35,26.245h-.795v.779h.889v.397h-1.273v-2.653h1.227v.397h-.842v.686h.795v.394Z"/>
      <path d="M27.737,25.174h-.601v-.405h1.592v.405h-.606v2.248h-.385v-2.248Z"/>
      <path d="M29.367,24.768v1.062h.892v-1.062h.385v2.653h-.385v-1.169h-.892v1.169h-.385v-2.653h.385Z"/>
      <path d="M31.514,26.67l-.182.752h-.397l.676-2.653h.491l.686,2.653h-.416l-.191-.752h-.666ZM32.117,26.303l-.166-.653c-.04-.161-.075-.343-.106-.496h-.006c-.031.153-.065.339-.101.496l-.162.653h.541Z"/>
      <path d="M33.238,25.174h-.601v-.405h1.592v.405h-.606v2.248h-.385v-2.248Z"/>
      <path d="M37.005,26.339c-.013-.342-.028-.756-.025-1.113h-.009c-.069.322-.156.681-.25,1.016l-.311,1.149h-.294l-.281-1.134c-.081-.339-.156-.701-.213-1.031h-.006c-.01.346-.022.768-.038,1.13l-.047,1.066h-.359l.141-2.653h.507l.275,1.066c.075.312.141.626.193.922h.01c.057-.288.128-.614.21-.926l.291-1.062h.5l.122,2.653h-.375l-.041-1.083Z"/>
      <path d="M38.235,26.67l-.182.752h-.397l.676-2.653h.491l.686,2.653h-.417l-.19-.752h-.666ZM38.839,26.303l-.166-.653c-.04-.161-.075-.343-.106-.496h-.006c-.031.153-.065.339-.101.496l-.162.653h.541Z"/>
      <path d="M40.025,27.422v-1.106l-.667-1.547h.441l.25.681c.072.197.125.347.185.528h.007c.05-.17.109-.335.181-.528l.254-.681h.435l-.701,1.535v1.118h-.384Z"/>
      <path d="M43.548,27.346c-.091.056-.291.118-.548.118-.669,0-1.076-.527-1.076-1.338,0-.874.485-1.401,1.129-1.401.254,0,.432.066.511.118l-.082.386c-.1-.056-.24-.103-.413-.103-.428,0-.737.338-.737.977,0,.586.269.956.734.956.153,0,.316-.039.419-.095l.063.382Z"/>
      <path d="M44.361,26.67l-.182.752h-.397l.676-2.653h.491l.686,2.653h-.416l-.191-.752h-.666ZM44.965,26.303l-.166-.653c-.04-.161-.075-.343-.106-.496h-.006c-.031.153-.065.339-.101.496l-.162.653h.541Z"/>
      <path d="M46.251,24.768v1.547c0,.52.172.76.432.76.278,0,.444-.24.444-.76v-1.547h.385v1.516c0,.818-.335,1.181-.842,1.181-.487,0-.804-.342-.804-1.177v-1.52h.385Z"/>
      <path d="M47.987,26.894c.122.091.312.169.51.169.244,0,.382-.146.382-.362,0-.2-.106-.318-.372-.44-.351-.157-.572-.39-.572-.771,0-.438.287-.764.747-.764.229,0,.395.062.504.134l-.091.39c-.078-.052-.226-.126-.423-.126-.243,0-.347.161-.347.318,0,.205.122.3.403.438.366.173.541.405.541.787,0,.429-.256.799-.797.799-.226,0-.457-.078-.573-.169l.088-.401Z"/>
      <path d="M50.838,26.245h-.795v.779h.889v.397h-1.273v-2.653h1.227v.397h-.842v.686h.795v.394Z"/>
      <path d="M52.334,24.768v1.547c0,.52.172.76.432.76.278,0,.444-.24.444-.76v-1.547h.385v1.516c0,.818-.335,1.181-.842,1.181-.487,0-.804-.342-.804-1.177v-1.52h.385Z"/>
      <path d="M54.027,27.422v-2.653h.441l.544,1.138c.138.295.263.603.36.89h.006c-.028-.354-.034-.696-.034-1.103v-.925h.356v2.653h-.4l-.551-1.169c-.135-.292-.272-.614-.375-.914l-.013.005c.016.342.021.692.021,1.129v.949h-.356Z"/>
      <path d="M56.139,24.803c.173-.031.385-.055.613-.055.395,0,.663.103.857.307.206.209.331.527.331.977,0,.477-.128.827-.328,1.055-.21.24-.544.362-.954.362-.222,0-.391-.016-.52-.035v-2.61ZM56.523,27.055c.054.012.135.012.213.012.501.004.798-.347.798-1.02.003-.583-.266-.921-.748-.921-.121,0-.206.012-.263.027v1.901Z"/>
      <path d="M59.449,26.245h-.795v.779h.889v.397h-1.273v-2.653h1.227v.397h-.842v.686h.795v.394Z"/>
      <path d="M59.869,26.894c.122.091.312.169.51.169.244,0,.382-.146.382-.362,0-.2-.106-.318-.372-.44-.351-.157-.572-.39-.572-.771,0-.438.287-.764.747-.764.229,0,.395.062.504.134l-.091.39c-.078-.052-.226-.126-.422-.126-.244,0-.348.161-.348.318,0,.205.122.3.403.438.366.173.541.405.541.787,0,.429-.256.799-.798.799-.225,0-.456-.078-.572-.169l.088-.401Z"/>
      <path d="M61.878,24.768v2.653h-.385v-2.653h.385Z"/>
      <path d="M62.313,24.807c.147-.035.36-.059.582-.059.304,0,.507.062.65.212.116.122.182.308.182.536,0,.342-.185.574-.385.661v.012c.153.071.244.256.294.512.069.331.125.638.166.74h-.394c-.032-.079-.085-.295-.142-.626-.062-.347-.159-.457-.378-.465h-.194v1.091h-.382v-2.614ZM62.694,25.977h.229c.26,0,.419-.174.419-.438,0-.287-.159-.425-.409-.425-.122,0-.2.012-.238.023v.839Z"/>
      <path d="M65.267,26.245h-.795v.779h.889v.397h-1.273v-2.653h1.227v.397h-.842v.686h.795v.394Z"/>
      <path d="M65.692,24.803c.173-.031.385-.055.613-.055.395,0,.663.103.857.307.206.209.331.527.331.977,0,.477-.128.827-.328,1.055-.21.24-.544.362-.954.362-.222,0-.391-.016-.52-.035v-2.61ZM66.077,27.055c.054.012.135.012.213.012.501.004.798-.347.798-1.02.003-.583-.266-.921-.748-.921-.121,0-.206.012-.263.027v1.901Z"/>
      <path d="M70.419,26.067c0,.89-.429,1.397-1.008,1.397-.597,0-.973-.574-.973-1.35,0-.819.41-1.394,1.005-1.394.612,0,.976.586.976,1.346ZM68.846,26.103c0,.543.216.972.585.972.372,0,.581-.437.581-.992,0-.5-.196-.972-.581-.972-.382,0-.585.444-.585.992Z"/>
      <path d="M70.744,24.803c.142-.031.332-.055.589-.055.281,0,.484.074.619.216.125.131.206.339.206.587,0,.252-.062.457-.178.599-.156.192-.395.287-.667.287-.071,0-.134-.004-.188-.02v1.004h-.382v-2.618ZM71.126,26.036c.05.02.109.023.188.023.288,0,.463-.181.463-.488,0-.295-.162-.448-.428-.448-.106,0-.182.012-.223.023v.89Z"/>
      <path d="M73.667,26.245h-.795v.779h.889v.397h-1.273v-2.653h1.227v.397h-.842v.686h.795v.394Z"/>
      <path d="M74.093,24.807c.147-.035.36-.059.582-.059.304,0,.507.062.65.212.116.122.182.308.182.536,0,.342-.185.574-.385.661v.012c.153.071.244.256.294.512.069.331.125.638.166.74h-.394c-.032-.079-.085-.295-.142-.626-.062-.347-.159-.457-.378-.465h-.194v1.091h-.382v-2.614ZM74.475,25.977h.229c.26,0,.419-.174.419-.438,0-.287-.159-.425-.409-.425-.122,0-.2.012-.238.023v.839Z"/>
      <path d="M76.312,26.67l-.182.752h-.397l.676-2.653h.491l.686,2.653h-.417l-.19-.752h-.666ZM76.915,26.303l-.166-.653c-.04-.161-.075-.343-.106-.496h-.006c-.031.153-.065.339-.101.496l-.162.653h.541Z"/>
      <path d="M78.023,25.174h-.601v-.405h1.592v.405h-.606v2.248h-.385v-2.248Z"/>
      <path d="M79.641,24.768v2.653h-.385v-2.653h.385Z"/>
      <path d="M81.947,26.067c0,.89-.429,1.397-1.008,1.397-.597,0-.973-.574-.973-1.35,0-.819.41-1.394,1.005-1.394.612,0,.976.586.976,1.346ZM80.374,26.103c0,.543.216.972.585.972.372,0,.581-.437.581-.992,0-.5-.196-.972-.581-.972-.382,0-.585.444-.585.992Z"/>
      <path d="M82.27,27.422v-2.653h.441l.544,1.138c.138.295.263.603.36.89h.006c-.028-.354-.034-.696-.034-1.103v-.925h.356v2.653h-.4l-.551-1.169c-.135-.292-.272-.614-.375-.914l-.013.005c.016.342.021.692.021,1.129v.949h-.356Z"/>
      <path d="M84.319,27.154c0-.182.101-.312.238-.312.141,0,.237.126.237.312,0,.177-.094.311-.24.311-.138,0-.235-.134-.235-.311Z"/>
      <path d="M85.559,25.174h-.601v-.405h1.592v.405h-.606v2.248h-.385v-2.248Z"/>
      <path d="M87.176,24.768v1.062h.892v-1.062h.385v2.653h-.385v-1.169h-.892v1.169h-.385v-2.653h.385Z"/>
      <path d="M89.273,24.768v2.653h-.385v-2.653h.385Z"/>
      <path d="M89.702,26.894c.122.091.312.169.51.169.244,0,.382-.146.382-.362,0-.2-.106-.318-.372-.44-.351-.157-.572-.39-.572-.771,0-.438.287-.764.747-.764.229,0,.395.062.504.134l-.091.39c-.078-.052-.226-.126-.423-.126-.243,0-.347.161-.347.318,0,.205.122.3.403.438.366.173.541.405.541.787,0,.429-.256.799-.797.799-.226,0-.457-.078-.573-.169l.088-.401Z"/>
      <path d="M93.579,27.346c-.091.056-.291.118-.548.118-.669,0-1.076-.527-1.076-1.338,0-.874.485-1.401,1.129-1.401.254,0,.432.066.511.118l-.082.386c-.1-.056-.24-.103-.413-.103-.428,0-.737.338-.737.977,0,.586.269.956.734.956.153,0,.316-.039.419-.095l.063.382Z"/>
      <path d="M93.9,24.768h.385v2.248h.867v.405h-1.252v-2.653Z"/>
      <path d="M95.873,26.67l-.182.752h-.397l.676-2.653h.491l.686,2.653h-.416l-.191-.752h-.666ZM96.477,26.303l-.166-.653c-.04-.161-.075-.343-.106-.496h-.006c-.031.153-.065.339-.101.496l-.162.653h.541Z"/>
      <path d="M97.428,26.894c.122.091.312.169.51.169.244,0,.382-.146.382-.362,0-.2-.106-.318-.372-.44-.351-.157-.572-.39-.572-.771,0-.438.287-.764.747-.764.229,0,.395.062.504.134l-.091.39c-.078-.052-.226-.126-.422-.126-.244,0-.348.161-.348.318,0,.205.122.3.403.438.366.173.541.405.541.787,0,.429-.256.799-.798.799-.225,0-.456-.078-.572-.169l.088-.401Z"/>
      <path d="M99.046,26.894c.122.091.312.169.51.169.244,0,.382-.146.382-.362,0-.2-.106-.318-.372-.44-.351-.157-.572-.39-.572-.771,0-.438.287-.764.747-.764.229,0,.395.062.504.134l-.091.39c-.078-.052-.226-.126-.423-.126-.243,0-.347.161-.347.318,0,.205.122.3.403.438.366.173.541.405.541.787,0,.429-.256.799-.797.799-.226,0-.457-.078-.573-.169l.088-.401Z"/>
      <path d="M101.416,24.807c.122-.031.345-.059.563-.059.281,0,.46.047.601.169.132.099.219.271.219.5,0,.244-.122.465-.351.571v.012c.223.07.426.291.426.653,0,.236-.081.421-.2.551-.15.162-.397.244-.785.244-.213,0-.372-.02-.473-.035v-2.606ZM101.798,25.855h.197c.269,0,.416-.158.416-.382,0-.252-.15-.366-.395-.366-.112,0-.178.008-.219.02v.729ZM101.798,27.071c.05.012.116.012.203.012.247,0,.47-.114.47-.44,0-.312-.216-.438-.481-.438h-.191v.866Z"/>
      <path d="M103.937,24.803c.173-.031.385-.055.613-.055.395,0,.663.103.857.307.206.209.331.527.331.977,0,.477-.128.827-.328,1.055-.21.24-.544.362-.954.362-.222,0-.391-.016-.52-.035v-2.61ZM104.321,27.055c.054.012.135.012.213.012.501.004.798-.347.798-1.02.003-.583-.266-.921-.748-.921-.121,0-.206.012-.263.027v1.901Z"/>
      <path d="M106.452,24.768v2.653h-.385v-2.653h.385Z"/>
      <path d="M108.577,27.299c-.135.063-.397.149-.676.149-.356,0-.629-.114-.829-.354-.188-.224-.294-.574-.294-.976.004-.843.476-1.378,1.173-1.378.26,0,.464.066.561.126l-.085.39c-.115-.067-.256-.114-.479-.114-.45,0-.766.335-.766.952,0,.603.294.961.731.961.141,0,.241-.023.291-.051v-.666h-.372v-.382h.744v1.343Z"/>
      <path d="M109.35,24.768v2.653h-.385v-2.653h.385Z"/>
      <path d="M110.189,25.174h-.601v-.405h1.592v.405h-.606v2.248h-.385v-2.248Z"/>
      <path d="M111.616,26.67l-.182.752h-.397l.676-2.653h.491l.686,2.653h-.417l-.19-.752h-.666ZM112.22,26.303l-.166-.653c-.04-.161-.075-.343-.106-.496h-.006c-.031.153-.065.339-.101.496l-.162.653h.541Z"/>
      <path d="M113.177,24.768h.385v2.248h.867v.405h-1.252v-2.653Z"/>
      <path d="M115.785,26.67l-.182.752h-.397l.676-2.653h.491l.686,2.653h-.416l-.191-.752h-.666ZM116.389,26.303l-.166-.653c-.04-.161-.075-.343-.106-.496h-.006c-.031.153-.065.339-.101.496l-.162.653h.541Z"/>
      <path d="M117.353,24.803c.142-.031.332-.055.589-.055.281,0,.484.074.619.216.125.131.206.339.206.587,0,.252-.062.457-.178.599-.157.192-.395.287-.667.287-.071,0-.134-.004-.188-.02v1.004h-.382v-2.618ZM117.734,26.036c.05.02.109.023.188.023.288,0,.463-.181.463-.488,0-.295-.162-.448-.428-.448-.106,0-.182.012-.223.023v.89Z"/>
      <path d="M119.102,24.803c.142-.031.332-.055.589-.055.281,0,.484.074.619.216.125.131.206.339.206.587,0,.252-.062.457-.178.599-.156.192-.395.287-.667.287-.071,0-.134-.004-.188-.02v1.004h-.382v-2.618ZM119.483,26.036c.05.02.109.023.188.023.288,0,.463-.181.463-.488,0-.295-.162-.448-.428-.448-.106,0-.182.012-.223.023v.89Z"/>
      <path d="M121.052,26.67l-.182.752h-.397l.676-2.653h.491l.686,2.653h-.417l-.19-.752h-.666ZM121.655,26.303l-.166-.653c-.04-.161-.075-.343-.106-.496h-.006c-.031.153-.065.339-.101.496l-.162.653h.541Z"/>
      <path d="M122.619,24.807c.147-.035.36-.059.582-.059.304,0,.507.062.65.212.116.122.182.308.182.536,0,.342-.185.574-.385.661v.012c.153.071.244.256.294.512.069.331.125.638.166.74h-.394c-.032-.079-.085-.295-.142-.626-.062-.347-.159-.457-.378-.465h-.194v1.091h-.382v-2.614ZM123.001,25.977h.229c.26,0,.419-.174.419-.438,0-.287-.159-.425-.409-.425-.122,0-.2.012-.238.023v.839Z"/>
      <path d="M124.845,26.67l-.182.752h-.397l.676-2.653h.491l.686,2.653h-.417l-.19-.752h-.666ZM125.448,26.303l-.166-.653c-.04-.161-.075-.343-.106-.496h-.006c-.031.153-.065.339-.101.496l-.162.653h.541Z"/>
      <path d="M126.563,25.174h-.601v-.405h1.592v.405h-.606v2.248h-.385v-2.248Z"/>
      <path d="M128.183,24.768v1.547c0,.52.172.76.432.76.278,0,.444-.24.444-.76v-1.547h.385v1.516c0,.818-.335,1.181-.842,1.181-.487,0-.804-.342-.804-1.177v-1.52h.385Z"/>
      <path d="M129.879,26.894c.122.091.312.169.51.169.244,0,.382-.146.382-.362,0-.2-.106-.318-.372-.44-.351-.157-.572-.39-.572-.771,0-.438.287-.764.747-.764.229,0,.395.062.504.134l-.091.39c-.078-.052-.226-.126-.422-.126-.244,0-.348.161-.348.318,0,.205.122.3.403.438.366.173.541.405.541.787,0,.429-.256.799-.798.799-.225,0-.456-.078-.572-.169l.088-.401Z"/>
      <path d="M133.737,27.346c-.091.056-.291.118-.548.118-.669,0-1.076-.527-1.076-1.338,0-.874.485-1.401,1.129-1.401.254,0,.432.066.511.118l-.082.386c-.1-.056-.24-.103-.413-.103-.428,0-.737.338-.737.977,0,.586.269.956.734.956.153,0,.316-.039.419-.095l.063.382Z"/>
      <path d="M135.871,26.067c0,.89-.429,1.397-1.008,1.397-.597,0-.973-.574-.973-1.35,0-.819.41-1.394,1.005-1.394.612,0,.976.586.976,1.346ZM134.298,26.103c0,.543.216.972.585.972.372,0,.581-.437.581-.992,0-.5-.196-.972-.581-.972-.382,0-.585.444-.585.992Z"/>
      <path d="M137.998,26.339c-.013-.342-.028-.756-.025-1.113h-.009c-.069.322-.156.681-.25,1.016l-.311,1.149h-.294l-.281-1.134c-.081-.339-.156-.701-.213-1.031h-.006c-.01.346-.022.768-.038,1.13l-.047,1.066h-.359l.141-2.653h.507l.275,1.066c.075.312.141.626.193.922h.01c.057-.288.128-.614.21-.926l.291-1.062h.5l.122,2.653h-.375l-.041-1.083Z"/>
      <path d="M138.822,24.803c.142-.031.332-.055.589-.055.281,0,.484.074.619.216.125.131.206.339.206.587,0,.252-.062.457-.178.599-.156.192-.395.287-.667.287-.071,0-.134-.004-.188-.02v1.004h-.382v-2.618ZM139.204,26.036c.05.02.109.023.188.023.288,0,.463-.181.463-.488,0-.295-.162-.448-.428-.448-.106,0-.182.012-.223.023v.89Z"/>
      <path d="M140.587,24.768h.385v2.248h.867v.405h-1.252v-2.653Z"/>
      <path d="M142.53,24.768v2.653h-.385v-2.653h.385Z"/>
      <path d="M144.166,26.245h-.795v.779h.889v.397h-1.273v-2.653h1.227v.397h-.842v.686h.795v.394Z"/>
      <path d="M144.608,26.894c.122.091.312.169.51.169.244,0,.382-.146.382-.362,0-.2-.106-.318-.372-.44-.351-.157-.572-.39-.572-.771,0-.438.287-.764.747-.764.229,0,.395.062.504.134l-.091.39c-.078-.052-.226-.126-.423-.126-.243,0-.347.161-.347.318,0,.205.122.3.403.438.366.173.541.405.541.787,0,.429-.256.799-.797.799-.226,0-.457-.078-.573-.169l.088-.401Z"/>
      <path d="M147.252,27.422l-.517-2.653h.41l.2,1.204c.053.323.103.662.138.926h.006c.034-.279.094-.595.153-.93l.229-1.2h.403l.21,1.221c.05.314.097.609.128.897h.006c.038-.292.088-.595.145-.922l.218-1.196h.391l-.569,2.653h-.409l-.22-1.248c-.053-.303-.09-.555-.118-.843h-.007c-.034.284-.075.54-.138.843l-.243,1.248h-.416Z"/>
      <path d="M150.007,24.768v2.653h-.385v-2.653h.385Z"/>
      <path d="M150.846,25.174h-.601v-.405h1.592v.405h-.606v2.248h-.385v-2.248Z"/>
      <path d="M152.463,24.768v1.062h.892v-1.062h.385v2.653h-.385v-1.169h-.892v1.169h-.385v-2.653h.385Z"/>
      <path d="M156.509,27.346c-.091.056-.291.118-.548.118-.669,0-1.076-.527-1.076-1.338,0-.874.485-1.401,1.129-1.401.254,0,.432.066.511.118l-.082.386c-.1-.056-.24-.103-.413-.103-.428,0-.737.338-.737.977,0,.586.269.956.734.956.153,0,.316-.039.419-.095l.063.382Z"/>
      <path d="M157.282,26.67l-.182.752h-.397l.676-2.653h.491l.686,2.653h-.417l-.19-.752h-.666ZM157.885,26.303l-.166-.653c-.04-.161-.075-.343-.106-.496h-.006c-.031.153-.065.339-.101.496l-.162.653h.541Z"/>
      <path d="M158.846,27.422v-2.653h.441l.544,1.138c.138.295.263.603.36.89h.006c-.028-.354-.034-.696-.034-1.103v-.925h.356v2.653h-.4l-.551-1.169c-.135-.292-.272-.614-.375-.914l-.013.005c.016.342.021.692.021,1.129v.949h-.356Z"/>
      <path d="M161.387,26.67l-.182.752h-.397l.676-2.653h.491l.686,2.653h-.417l-.19-.752h-.666ZM161.991,26.303l-.166-.653c-.04-.161-.075-.343-.106-.496h-.006c-.031.153-.065.339-.101.496l-.162.653h.541Z"/>
      <path d="M162.955,24.803c.173-.031.385-.055.613-.055.395,0,.663.103.857.307.206.209.331.527.331.977,0,.477-.128.827-.328,1.055-.21.24-.544.362-.954.362-.222,0-.391-.016-.52-.035v-2.61ZM163.339,27.055c.054.012.135.012.213.012.501.004.798-.347.798-1.02.003-.583-.266-.921-.748-.921-.121,0-.206.012-.263.027v1.901Z"/>
      <path d="M165.477,24.768v2.653h-.385v-2.653h.385Z"/>
      <path d="M166.341,26.67l-.182.752h-.397l.676-2.653h.491l.686,2.653h-.416l-.191-.752h-.666ZM166.945,26.303l-.166-.653c-.04-.161-.075-.343-.106-.496h-.006c-.031.153-.065.339-.101.496l-.162.653h.541Z"/>
      <path d="M167.906,27.422v-2.653h.441l.544,1.138c.138.295.263.603.36.89h.006c-.028-.354-.034-.696-.034-1.103v-.925h.356v2.653h-.4l-.551-1.169c-.135-.292-.272-.614-.375-.914l-.013.005c.016.342.021.692.021,1.129v.949h-.356Z"/>
      <path d="M171.154,24.768v2.653h-.385v-2.653h.385Z"/>
      <path d="M173.1,27.346c-.091.056-.291.118-.548.118-.669,0-1.076-.527-1.076-1.338,0-.874.485-1.401,1.129-1.401.254,0,.432.066.511.118l-.082.386c-.1-.056-.24-.103-.413-.103-.428,0-.737.338-.737.977,0,.586.269.956.734.956.153,0,.316-.039.419-.095l.063.382Z"/>
      <path d="M174.601,26.245h-.795v.779h.889v.397h-1.273v-2.653h1.227v.397h-.842v.686h.795v.394Z"/>
      <path d="M175.019,26.894c.122.091.312.169.51.169.244,0,.382-.146.382-.362,0-.2-.106-.318-.372-.44-.351-.157-.572-.39-.572-.771,0-.438.287-.764.747-.764.229,0,.395.062.504.134l-.091.39c-.078-.052-.226-.126-.422-.126-.244,0-.348.161-.348.318,0,.205.122.3.403.438.366.173.541.405.541.787,0,.429-.256.799-.798.799-.225,0-.456-.078-.572-.169l.088-.401Z"/>
      <path d="M177.355,26.21v.335h-.836v-.335h.836Z"/>
      <path d="M179.186,26.123c0,.826-.257,1.342-.744,1.342-.467,0-.717-.535-.72-1.314,0-.799.269-1.331.744-1.331.491,0,.72.552.72,1.304ZM178.11,26.146c0,.626.135.948.344.948.229,0,.345-.346.345-.96,0-.595-.109-.945-.341-.945-.204,0-.348.319-.348.957Z"/>
      <path d="M180.857,26.123c0,.826-.257,1.342-.744,1.342-.467,0-.717-.535-.72-1.314,0-.799.269-1.331.744-1.331.491,0,.72.552.72,1.304ZM179.781,26.146c0,.626.135.948.344.948.229,0,.345-.346.345-.96,0-.595-.109-.945-.341-.945-.204,0-.348.319-.348.957Z"/>
      <path d="M181.17,26.922c.078.059.269.157.463.157.294,0,.409-.208.409-.409,0-.303-.228-.433-.463-.433h-.175v-.354h.175c.176,0,.4-.103.4-.354,0-.177-.1-.323-.325-.323-.165,0-.331.091-.416.162l-.087-.351c.115-.099.344-.197.585-.197.422,0,.635.292.635.626,0,.268-.125.488-.376.599v.008c.247.06.444.291.447.638,0,.434-.287.775-.791.775-.247,0-.46-.086-.569-.177l.088-.366Z"/>
      <path d="M182.788,27.154c0-.182.101-.312.238-.312.141,0,.237.126.237.312,0,.177-.094.311-.24.311-.138,0-.235-.134-.235-.311Z"/>
    </g>
  </g>
</svg>