<?xml version="1.0" encoding="UTF-8"?>
<svg id="Layer_1" xmlns="http://www.w3.org/2000/svg" width="6.75cm" height="1.36cm" version="1.1" viewBox="0 0 191.339 38.551">
  <defs>
    <style type="text/css">
      <![CDATA[
        @font-face {
          font-family: "OCR-B";
          src: url('fonts/OCR-B.otf') format('opentype');
          font-weight: normal;
          font-style: normal;
        }
        .serial {
          font-family: "OCR-B";
          font-size: 10.427px;
          letter-spacing: -0.023em;
          text-transform: uppercase;
          font-variant-numeric: slashed-zero;
        }
      ]]>
    </style>
  </defs>
  <path d="M187.37,0H3.969C1.777,0,0,1.777,0,3.969v8.81c0,1.113.168,2.219.498,3.281l6.653,21.404c.201.647.8,1.088,1.477,1.088h59.279c2.192,0,3.969-1.777,3.969-3.969v-.419c0-2.192,1.777-3.969,3.969-3.969h39.078c2.192,0,3.969,1.777,3.969,3.969v.419c0,2.192,1.777,3.969,3.969,3.969h59.852c.677,0,1.276-.441,1.477-1.088l6.653-21.404c.33-1.062.498-2.169.498-3.281V3.969c0-2.192-1.777-3.969-3.969-3.969Z" fill="#231f20" data-background="background"/>
  <g fill="#fff" data-foreground="foreground">
    <g>
      <path d="M11.071,34.069c-.011-.326-.021-.722-.021-1.116h-.007c-.075.347-.171.733-.26,1.052l-.28,1.06h-.406l-.246-1.048c-.076-.322-.15-.709-.209-1.063h-.007c-.011.366-.024.786-.038,1.124l-.044,1.031h-.481l.146-2.715h.693l.227.906c.074.314.143.652.194.971h.014c.062-.314.14-.673.219-.975l.243-.902h.684l.123,2.715h-.506l-.038-1.039Z"/>
      <path d="M12.589,34.411l-.164.697h-.537l.701-2.715h.684l.717,2.715h-.563l-.178-.697h-.659ZM13.173,33.952l-.144-.576c-.041-.161-.082-.362-.116-.523h-.007c-.034.161-.068.366-.106.523l-.137.576h.51Z"/>
      <path d="M14.344,32.433c.191-.036.44-.061.7-.061.441,0,.729.097.947.29.239.21.39.544.39,1.023,0,.52-.161.878-.38,1.1-.242.237-.615.351-1.066.351-.27,0-.465-.021-.591-.04v-2.663ZM14.864,34.645c.044.012.12.012.181.012.476.004.787-.302.787-.951,0-.563-.281-.861-.732-.861-.112,0-.191.012-.235.023v1.777Z"/>
      <path d="M18.144,33.96h-.848v.645h.946v.504h-1.466v-2.715h1.418v.503h-.898v.564h.848v.499Z"/>
      <path d="M19.915,32.393v2.715h-.52v-2.715h.52Z"/>
      <path d="M20.419,35.108v-2.715h.608l.479.995c.137.286.271.624.376.931h.007c-.03-.359-.041-.726-.041-1.137v-.789h.479v2.715h-.547l-.492-1.047c-.137-.291-.29-.641-.399-.959h-.014c.017.362.023.745.023,1.188v.817h-.479Z"/>
      <path d="M25.259,35.036c-.092.052-.311.116-.588.116-.797,0-1.207-.588-1.207-1.361,0-.927.561-1.438,1.258-1.438.271,0,.476.061.568.121l-.109.483c-.104-.052-.25-.101-.438-.101-.41,0-.732.294-.732.898,0,.544.273.887.735.887.161,0,.331-.037.438-.089l.075.483Z"/>
      <path d="M26.177,32.393v1.043h.858v-1.043h.52v2.715h-.52v-1.136h-.858v1.136h-.52v-2.715h.52Z"/>
      <path d="M28.581,32.393v2.715h-.52v-2.715h.52Z"/>
      <path d="M29.085,35.108v-2.715h.608l.479.995c.137.286.271.624.376.931h.007c-.03-.359-.041-.726-.041-1.137v-.789h.479v2.715h-.547l-.492-1.047c-.137-.291-.29-.641-.399-.959h-.014c.017.362.023.745.023,1.188v.817h-.479Z"/>
      <path d="M32.031,34.411l-.164.697h-.537l.701-2.715h.684l.717,2.715h-.563l-.178-.697h-.659ZM32.615,33.952l-.144-.576c-.041-.161-.082-.362-.116-.523h-.007c-.034.161-.068.366-.106.523l-.137.576h.51Z"/>
    </g>
    <g>
      <path d="M122.107,32.109c.212-.041.488-.067.775-.067.488,0,.807.107,1.049.321.265.231.431.602.431,1.131,0,.575-.178.972-.42,1.217-.269.263-.681.388-1.181.388-.299,0-.515-.022-.654-.045v-2.944ZM122.682,34.554c.049.014.132.014.2.014.526.005.87-.334.87-1.052,0-.624-.31-.953-.81-.953-.125,0-.212.014-.261.026v1.965Z" />
      <path d="M125.701,33.672v.45h-.992v-.45h.992Z" />
      <path d="M127.603,32.652c-.064-.004-.133,0-.224.009-.511.049-.737.356-.802.69h.011c.121-.143.296-.227.522-.227.412,0,.761.343.761.944,0,.575-.375,1.047-.904,1.047-.658,0-.98-.574-.98-1.266,0-.543.171-.998.439-1.292.242-.263.563-.4.946-.423.105-.014.178-.009.23-.005v.521ZM127.288,34.105c0-.268-.121-.5-.367-.5-.154,0-.283.112-.336.255-.02.04-.027.093-.027.173.012.308.137.584.401.584.2,0,.329-.218.329-.512Z" />
      <path d="M128.294,34.403c.103.067.337.179.572.179.299,0,.45-.17.45-.384,0-.289-.242-.419-.496-.419h-.234v-.485h.227c.193,0,.436-.089.436-.334,0-.174-.117-.303-.363-.303-.2,0-.413.103-.511.174l-.117-.49c.147-.111.438-.219.76-.219.522,0,.814.325.814.722,0,.308-.148.553-.451.673v.009c.296.062.534.325.534.709,0,.508-.382.882-1.007.882-.317,0-.586-.098-.73-.2l.117-.513Z" />
      <path d="M132.115,32.17v.428l-1.014,2.469h-.609l1.015-2.33v-.009h-1.128v-.558h1.736Z" />
      <path d="M134.082,32.652c-.064-.004-.133,0-.224.009-.511.049-.737.356-.802.69h.011c.121-.143.296-.227.522-.227.413,0,.761.343.761.944,0,.575-.375,1.047-.904,1.047-.658,0-.98-.574-.98-1.266,0-.543.171-.998.439-1.292.242-.263.563-.4.945-.423.106-.014.179-.009.231-.005v.521ZM133.768,34.105c0-.268-.121-.5-.367-.5-.155,0-.283.112-.337.255-.019.04-.026.093-.026.173.012.308.137.584.401.584.201,0,.329-.218.329-.512Z" />
      <path d="M136.488,33.605c0,.892-.307,1.511-.932,1.511-.635,0-.915-.673-.919-1.492,0-.843.299-1.502.935-1.502.654,0,.916.69.916,1.483ZM135.212,33.623c0,.664.136.979.355.979.224,0,.345-.329.345-.988,0-.642-.117-.98-.349-.98-.208,0-.352.312-.352.989Z" />
      <path d="M139.513,34.929c-.178.071-.515.169-.852.169-.465,0-.802-.138-1.036-.401-.231-.263-.359-.654-.359-1.096.003-.998.62-1.568,1.456-1.568.33,0,.583.076.708.143l-.121.548c-.14-.075-.311-.129-.59-.129-.481,0-.848.316-.848.971,0,.624.333.985.806.985.129,0,.234-.018.28-.04v-.633h-.394v-.53h.949v1.582Z" />
      <path d="M140.015,33.605c0-.32-.004-.529-.015-.717h.492l.022.401h.015c.095-.321.318-.455.5-.455.053,0,.079.005.121.014v.637c-.046-.009-.091-.018-.155-.018-.212,0-.355.134-.394.343-.008.045-.012.099-.012.152v1.104h-.575v-1.462Z" />
      <path d="M143.311,33.952c0,.798-.48,1.163-.977,1.163-.541,0-.957-.419-.957-1.123,0-.708.394-1.158.991-1.158.564,0,.942.459.942,1.118ZM141.971,33.975c0,.374.133.655.379.655.227,0,.367-.263.367-.659,0-.321-.106-.651-.367-.651-.272,0-.379.335-.379.655Z" />
      <path d="M143.726,35.067v-1.92c0-.509.106-.812.292-1.012.162-.183.39-.281.681-.281.458,0,.813.321.813.825,0,.133-.034.28-.087.365-.151.084-.219.2-.219.312,0,.103.041.183.128.294.129.16.299.361.299.699,0,.455-.276.767-.761.767-.14,0-.303-.022-.408-.071l.072-.499c.067.04.162.062.265.062.163,0,.253-.098.253-.228,0-.111-.045-.191-.136-.307-.121-.152-.291-.344-.291-.633,0-.223.105-.428.306-.553.02-.049.027-.098.027-.16,0-.201-.114-.356-.296-.356-.212,0-.363.178-.363.717v1.979h-.575Z" />
      <path d="M147.883,33.952c0,.798-.48,1.163-.977,1.163-.541,0-.957-.419-.957-1.123,0-.708.394-1.158.991-1.158.564,0,.942.459.942,1.118ZM146.543,33.975c0,.374.133.655.379.655.227,0,.367-.263.367-.659,0-.321-.106-.651-.367-.651-.272,0-.379.335-.379.655Z" />
      <path d="M148.294,34.479c.106.075.326.16.496.16.174,0,.246-.066.246-.179,0-.115-.057-.169-.269-.254-.386-.151-.534-.396-.53-.654,0-.41.296-.718.754-.718.215,0,.404.062.518.13l-.098.468c-.084-.054-.246-.125-.401-.125-.14,0-.22.066-.22.174,0,.106.072.16.299.254.353.143.496.356.5.673,0,.41-.269.708-.799.708-.242,0-.458-.066-.598-.155l.102-.481Z" />
      <path d="M150.644,32.3v.588h.412v.499h-.412v.788c0,.264.057.384.228.384.079,0,.117-.005.17-.018l.004.512c-.072.031-.212.059-.371.059-.186,0-.341-.076-.435-.188-.106-.129-.159-.339-.159-.646v-.891h-.246v-.499h.246v-.405l.563-.183Z" />
      <path d="M151.449,31.904h.575v1.247h.008c.061-.098.137-.174.228-.228.087-.053.192-.084.299-.084.367,0,.646.298.646.958v1.27h-.575v-1.198c0-.285-.083-.481-.299-.481-.151,0-.246.116-.287.24-.016.04-.02.099-.02.147v1.292h-.575v-3.163Z" />
      <path d="M154.169,34.194c.015.28.253.414.521.414.197,0,.356-.031.512-.094l.075.459c-.189.094-.42.139-.67.139-.628,0-.987-.428-.987-1.109,0-.553.291-1.163.935-1.163.598,0,.825.548.825,1.087,0,.116-.012.219-.02.268h-1.191ZM154.846,33.73c0-.165-.061-.44-.325-.44-.242,0-.341.263-.355.44h.681Z" />
      <path d="M156.378,32.281c0,.188-.117.339-.311.339-.182,0-.299-.151-.299-.339,0-.191.121-.338.307-.338s.299.146.303.338ZM155.784,35.067v-2.179h.575v2.179h-.575Z" />
      <path d="M156.88,33.583c0-.272-.007-.499-.015-.695h.488l.022.294h.012c.079-.143.246-.348.56-.348.242,0,.428.147.507.374h.008c.072-.115.151-.204.242-.267.103-.067.216-.107.352-.107.356,0,.625.294.625.949v1.283h-.561v-1.186c0-.316-.087-.499-.272-.499-.136,0-.227.107-.269.236-.011.049-.019.116-.019.174v1.274h-.561v-1.226c0-.271-.083-.459-.269-.459-.147,0-.234.134-.269.241-.019.054-.022.115-.022.174v1.27h-.561v-1.483Z" />
    </g>
    <g>
      <g fill="#231f20" data-background="background">
        <g fill="#fff" data-foreground="foreground">
          <path d="M56.646,3.564v1.255l-1.601-1.255h-6.472l-.792,1.519-.892-1.535-9.741.017.512-.809h-7.759c-.578,0-1.156.165-1.667.495-.215.132-.396.281-.578.446-.495-.594-1.007-.958-1.849-.958h-13.125l-.429,1.304-.215-1.288h-2.873l-.099.231-.281-.099c-1.502-.528-2.955-.347-4.326.495-1.42.875-2.097,2.262-1.915,3.995.099,1.04.759,1.965,1.75,2.493.726.363,1.535.479,2.344.347h2.559l.627-1.403.248,1.403,15.337-.016c.677,0,1.387-.347,1.915-.859.396.429.925.759,1.519.892.776.182,1.601.033,2.328-.413.033-.016.066-.05.099-.066l-.066.446h3.12l.126-.809h8.921c1.469,0,2.361-.446,2.856-1.007l.611,1.007h9.113v-1.271l1.634,1.271h11.243V3.564h-12.184Z" />
        </g>
        <path d="M43.19,7.477h-1.024v-2.08h1.453c.776,0,1.156.314,1.156.991,0,.825-.413,1.09-1.585,1.09M50.339,4.522h-1.189l-.033.066-1.337,2.46-1.436-2.46-.033-.05h-1.271l.099.165.248.396c-.396-.38-.991-.578-1.767-.578h-2.559v3.203l-1.899-3.137-.033-.05h-.974l-.033.05-2.163,3.632-.099.165h2.724v-.858h-1.106l1.106-1.998,1.568,2.79.033.05h3.186c1.667,0,2.526-.66,2.526-1.948,0-.231-.033-.429-.083-.611l1.519,2.509.033.05h.743l.033-.05,2.097-3.632.099-.165"/>
        <polyline points="57.719 4.522 57.603 4.522 57.603 6.817 54.714 4.555 54.681 4.522 53.922 4.522 53.922 7.725 52.023 4.588 51.99 4.522 51.016 4.522 50.983 4.588 48.82 8.203 48.721 8.385 49.877 8.385 49.877 8.385 51.462 8.385 51.462 7.526 50.356 7.526 51.462 5.529 53.03 8.319 53.063 8.385 54.318 8.385 54.318 8.385 54.945 8.385 54.945 6.057 57.834 8.352 57.867 8.385 58.627 8.385 58.627 4.522 57.719 4.522"/>
        <path d="M62.292,4.522h-2.262c-.792,0-1.057.248-1.057.974v1.915c0,.726.264.974,1.057.974h2.262c.792,0,1.057-.248,1.057-.974v-.545h-1.123v.594h-2.163v-2.031h2.163v.528h1.123v-.462c0-.743-.264-.974-1.057-.974"/>
        <polyline points="67.757 7.477 64.818 7.477 64.818 6.8 66.585 6.8 66.585 5.958 64.818 5.958 64.818 5.397 67.823 5.397 67.823 4.522 63.712 4.522 63.712 8.385 67.872 8.385 67.872 7.477 67.757 7.477"/>
        <path d="M9.742,6.486l.479-1.073.215,1.073h-.693M16.329,3.696l-1.288,3.021-.545-3.021h-1.123l-1.453,4.458-.743-4.458h-1.387l-2.113,4.788.314-1.998h-2.097l-.165,1.024h.875l-.099.545c-.495.215-1.354.149-1.717-.512-.231-.413-.446-1.337.528-2.179.792-.693,2.163-.809,2.955-.446,0,0,.099-.578.182-1.123-1.519-.528-2.708-.083-3.5.396-1.073.66-1.585,1.684-1.453,3.071.165,1.601,2.229,2.609,3.995,1.601.017-.017.033-.017.033-.017l-.165.38h1.189l.743-1.651h1.304l.281,1.651h1.915l.974-3.071.627,3.071h.759l1.469-3.401.149,3.401h1.123l-.215-5.531h-1.354"/>
        <polyline points="18.013 9.21 21.167 9.21 21.348 8.022 19.367 8.022 19.532 7.048 21.249 7.048 21.431 5.859 19.697 5.859 19.846 4.885 21.827 4.885 22.009 3.696 18.888 3.696 18.013 9.21"/>
        <polyline points="33.4 5.496 32.707 3.696 31.403 3.696 32.74 6.602 32.327 9.21 33.466 9.21 33.813 6.899 35.844 3.696 34.523 3.696 33.4 5.496"/>
        <path d="M30.759,6.982c-.297.908-1.04,1.436-1.634,1.172-.594-.264-.825-1.222-.528-2.146.297-.908,1.04-1.436,1.634-1.172.611.281.842,1.238.528,2.146M30.329,3.746c-1.255-.281-2.559.71-2.906,2.229-.347,1.519.38,2.988,1.634,3.285,1.255.297,2.559-.71,2.906-2.229s-.396-2.988-1.634-3.285"/>
        <path d="M25.311,5.909h-.792l.182-1.024h.726c.809,0,.66,1.024-.116,1.024M25.179,8.137h-.991l.182-1.09h.941c.892-.017.875,1.09-.132,1.09M25.839,3.729c-.611-.017-2.113,0-2.113,0h.017l-.875,5.465h2.542c1.04,0,2.575-1.535,1.189-2.807,1.42-1.486,0-2.642-.759-2.658"/>
      </g>
      <g>
        <path d="M69.969,7.98h-.529v-.178h1.271v.178h-.53v1.413h-.212v-1.413Z" />
        <path d="M70.889,7.801h.289l.501,1.337.504-1.337h.289v1.591h-.2v-1.323h-.004l-.497,1.323h-.181l-.497-1.323h-.004v1.323h-.2v-1.591Z" />
      </g>
    </g>
    <g>
      <path d="M167.372,34.882c-.077.042-.26.094-.49.094-.665,0-1.008-.472-1.008-1.093,0-.744.468-1.155,1.051-1.155.225,0,.396.049.474.098l-.092.388c-.086-.042-.208-.081-.365-.081-.343,0-.61.236-.61.722,0,.437.229.712.613.712.134,0,.276-.029.365-.071l.062.388Z" />
      <path d="M167.687,35.067l.61-2.345h.288l-.61,2.345h-.288Z" />
      <path d="M169.392,34.381l-.138.56h-.447l.585-2.181h.57l.6,2.181h-.472l-.147-.56h-.551ZM169.88,34.012l-.12-.462c-.034-.13-.068-.292-.097-.421h-.006c-.028.129-.057.294-.088.421l-.114.462h.425Z" />
      <path d="M172.52,34.84c-.134.052-.389.123-.643.123-.351,0-.604-.1-.781-.291-.174-.19-.271-.476-.271-.796.003-.725.468-1.139,1.099-1.139.248,0,.439.056.534.104l-.092.398c-.105-.056-.234-.094-.445-.094-.362,0-.639.229-.639.705,0,.452.251.715.607.715.097,0,.177-.013.211-.029v-.459h-.297v-.386h.717v1.148Z" />
      <path d="M173.029,32.789c.114-.022.342-.045.562-.045.266,0,.429.029.571.123.134.08.229.229.229.43,0,.191-.101.369-.317.463v.007c.22.064.383.255.383.533,0,.2-.08.356-.2.466-.14.126-.374.197-.756.197-.214,0-.374-.016-.471-.032v-2.142ZM173.46,33.624h.143c.231,0,.352-.106.352-.269,0-.165-.111-.252-.309-.252-.097,0-.151.006-.186.013v.508ZM173.46,34.591c.043.007.094.007.168.007.197,0,.371-.088.371-.317,0-.217-.174-.304-.391-.304h-.148v.614Z" />
      <path d="M175.566,33.986v.326h-.747v-.326h.747Z" />
      <path d="M177.155,34.019h-.708v.518h.79v.404h-1.224v-2.181h1.184v.404h-.75v.453h.708v.401Z" />
      <path d="M178.137,32.76v1.252c0,.379.128.569.348.569.229,0,.354-.181.354-.569v-1.252h.434v1.223c0,.674-.3.993-.802.993-.485,0-.768-.307-.768-.999v-1.217h.434Z" />
      <path d="M179.818,32.789c.14-.025.345-.045.579-.045.285,0,.485.049.622.171.117.104.18.259.18.46,0,.274-.174.466-.34.533v.01c.135.062.209.204.257.404.061.249.117.534.154.618h-.445c-.028-.064-.077-.239-.131-.508-.055-.275-.137-.347-.316-.35h-.129v.857h-.431v-2.151ZM180.249,33.728h.171c.217,0,.346-.123.346-.313,0-.198-.12-.302-.319-.302-.105,0-.166.007-.197.017v.599Z" />
    </g>
    <g>
      <g>
        <path d="M6.35,19.834c.174-.038.425-.063.688-.063.358,0,.598.067.768.227.137.131.215.328.215.571,0,.365-.218.612-.454.705v.013c.181.075.287.272.347.545.081.353.147.68.195.789h-.465c-.037-.084-.1-.314-.166-.667-.074-.369-.188-.487-.447-.495h-.229v1.162h-.451v-2.786ZM6.802,21.08h.27c.307,0,.495-.185.495-.466,0-.307-.188-.453-.484-.453-.144,0-.236.013-.28.025v.894Z" />
        <path d="M8.868,21.818l-.214.802h-.47l.798-2.828h.58l.809,2.828h-.491l-.226-.802h-.786ZM9.581,21.428l-.196-.697c-.048-.172-.088-.364-.125-.528h-.008c-.037.164-.077.361-.118.528l-.191.697h.639Z" />
        <path d="M10.787,20.223h-.709v-.432h1.88v.432h-.717v2.396h-.454v-2.396Z" />
        <path d="M12.597,19.792v2.828h-.455v-2.828h.455Z" />
        <path d="M13.004,22.62v-2.828h.521l.643,1.213c.162.314.31.642.425.948h.007c-.033-.378-.04-.743-.04-1.175v-.986h.421v2.828h-.473l-.65-1.246c-.158-.311-.321-.654-.443-.974l-.015.004c.019.365.026.738.026,1.204v1.012h-.421Z" />
        <path d="M17.39,22.49c-.158.067-.469.159-.797.159-.421,0-.742-.122-.979-.378-.222-.239-.348-.612-.348-1.04.004-.898.562-1.469,1.385-1.469.307,0,.547.071.661.134l-.1.416c-.137-.071-.303-.122-.565-.122-.531,0-.904.356-.904,1.016,0,.642.347,1.023.864,1.023.166,0,.284-.024.343-.054v-.71h-.439v-.406h.879v1.431Z" />
        <path d="M18.328,20.925c0-.193.114-.331.28-.331s.277.134.277.331c0,.185-.111.327-.284.327-.159,0-.273-.143-.273-.327ZM18.328,22.339c0-.193.114-.331.28-.331s.277.134.277.331c0,.185-.111.327-.284.327-.159,0-.273-.143-.273-.327Z" />
        <path d="M19.806,22.087c.093.063.317.168.547.168.347,0,.483-.223.483-.437,0-.323-.27-.461-.547-.461h-.206v-.378h.206c.207,0,.473-.109.473-.378,0-.188-.118-.344-.384-.344-.195,0-.392.097-.491.172l-.104-.373c.137-.105.406-.21.691-.21.498,0,.749.311.749.667,0,.285-.147.521-.443.638v.009c.292.062.524.311.528.68,0,.461-.34.826-.935.826-.291,0-.542-.092-.672-.188l.104-.391Z" />
        <path d="M22.258,22.62l-.806-2.828h.495l.34,1.288c.096.356.181.684.244,1.028h.007c.066-.336.159-.68.255-1.024l.362-1.292h.483l-.86,2.828h-.521Z" />
      </g>
      <g>
        <path d="M37.905,19.823c.145-.034.406-.063.665-.063.332,0,.543.05.709.181.155.105.259.291.259.535,0,.261-.145.497-.414.61v.013c.263.076.503.312.503.699,0,.253-.097.451-.236.59-.178.172-.47.261-.928.261-.251,0-.439-.021-.558-.038v-2.788ZM38.356,20.943h.232c.317,0,.491-.168.491-.408,0-.27-.178-.392-.466-.392-.133,0-.21.009-.258.021v.779ZM38.356,22.244c.059.013.137.013.24.013.291,0,.554-.122.554-.472,0-.333-.255-.467-.569-.467h-.225v.926Z" />
        <path d="M40.412,21.815l-.214.804h-.47l.798-2.838h.58l.809,2.838h-.491l-.226-.804h-.786ZM41.125,21.423l-.196-.699c-.048-.173-.088-.367-.125-.531h-.008c-.037.164-.077.362-.118.531l-.191.699h.639Z" />
        <path d="M42.331,20.215h-.709v-.434h1.88v.434h-.717v2.405h-.454v-2.405Z" />
        <path d="M44.268,20.215h-.709v-.434h1.88v.434h-.717v2.405h-.454v-2.405Z" />
        <path d="M47.015,21.36h-.938v.834h1.048v.425h-1.503v-2.838h1.448v.425h-.993v.733h.938v.421Z" />
        <path d="M47.416,19.823c.174-.038.425-.063.688-.063.358,0,.598.067.768.227.137.131.215.329.215.573,0,.367-.218.615-.454.708v.013c.181.076.287.274.347.547.081.354.147.683.195.792h-.465c-.037-.084-.1-.316-.166-.669-.074-.371-.188-.489-.447-.497h-.229v1.167h-.451v-2.796ZM47.867,21.074h.27c.307,0,.495-.186.495-.468,0-.307-.188-.455-.484-.455-.144,0-.236.013-.28.025v.897Z" />
        <path d="M49.919,22.619v-1.184l-.786-1.655h.521l.295.729c.085.21.148.371.218.564h.008c.059-.181.129-.358.214-.564l.299-.729h.514l-.827,1.642v1.196h-.454Z" />
        <path d="M51.913,20.918c0-.194.114-.333.28-.333s.277.135.277.333c0,.185-.111.328-.284.328-.159,0-.273-.143-.273-.328ZM51.913,22.337c0-.194.114-.333.28-.333s.277.135.277.333c0,.186-.111.329-.284.329-.159,0-.273-.143-.273-.329Z" />
        <path d="M53.328,19.781h.455v2.405h1.022v.434h-1.478v-2.838Z" />
        <path d="M55.04,19.823c.174-.038.425-.063.688-.063.358,0,.598.067.768.227.137.131.215.329.215.573,0,.367-.219.615-.455.708v.013c.182.076.288.274.348.547.081.354.147.683.195.792h-.465c-.037-.084-.1-.316-.166-.669-.074-.371-.188-.489-.447-.497h-.229v1.167h-.451v-2.796ZM55.491,21.074h.27c.307,0,.494-.186.494-.468,0-.307-.188-.455-.483-.455-.144,0-.236.013-.28.025v.897Z" />
        <path d="M58.389,20.253c-.066-.004-.14,0-.229.013-.506.067-.746.417-.806.796h.012c.118-.156.299-.266.539-.266.413,0,.734.337.734.893,0,.522-.336.977-.846.977-.583,0-.904-.505-.904-1.184,0-.526.166-.952.417-1.221.218-.24.51-.375.854-.404.1-.017.173-.017.229-.013v.409ZM58.179,21.718c0-.32-.151-.543-.418-.543-.17,0-.321.118-.391.282-.019.042-.03.092-.03.164.008.362.155.657.454.657.233,0,.385-.231.385-.56Z" />
        <path d="M60.305,19.541c-.236.4-.413.956-.413,1.714,0,.745.181,1.297.413,1.701h-.328c-.215-.337-.451-.889-.451-1.701.004-.826.236-1.373.451-1.714h.328Z" />
        <path d="M61.059,21.815l-.214.804h-.47l.798-2.838h.58l.809,2.838h-.491l-.226-.804h-.786ZM61.772,21.423l-.196-.699c-.048-.173-.088-.367-.125-.531h-.008c-.037.164-.077.362-.118.531l-.191.699h.639Z" />
        <path d="M63.301,21.815l-.214.804h-.47l.798-2.838h.58l.809,2.838h-.491l-.226-.804h-.786ZM64.014,21.423l-.196-.699c-.048-.173-.088-.367-.125-.531h-.008c-.037.164-.077.362-.118.531l-.191.699h.639Z" />
        <path d="M64.885,22.956c.232-.4.413-.96.413-1.71s-.181-1.301-.413-1.706h.328c.215.333.451.88.451,1.706-.004.821-.236,1.369-.451,1.71h-.328Z" />
        <path d="M66.847,20.349h-.007l-.439.253-.078-.392.588-.328h.376v2.737h-.439v-2.27Z" />
        <path d="M68.035,22.333c0-.194.118-.333.28-.333.166,0,.281.135.281.333,0,.189-.111.333-.285.333-.162,0-.276-.143-.276-.333Z" />
        <path d="M70.296,20.312h-.923l-.07.547c.052-.008.1-.013.17-.013.21,0,.425.055.583.177.182.13.314.362.314.695,0,.522-.381.948-.968.948-.28,0-.514-.08-.639-.16l.092-.392c.104.063.311.143.528.143.266,0,.521-.172.521-.497,0-.315-.203-.522-.68-.522-.136,0-.236.013-.328.025l.155-1.381h1.244v.43Z" />
        <path d="M71.188,22.619l-.806-2.838h.495l.34,1.293c.096.358.181.686.244,1.032h.007c.066-.337.159-.683.255-1.028l.362-1.297h.483l-.86,2.838h-.521Z" />
        <path d="M73.015,20.569l.214.387c.059.109.11.21.162.316h.008c.052-.114.104-.219.158-.324l.2-.379h.494l-.602.985.613,1.065h-.518l-.218-.409c-.059-.109-.11-.219-.162-.333h-.008c-.052.118-.106.219-.162.333l-.207.409h-.502l.624-1.044-.602-1.006h.506Z" />
        <path d="M74.344,22.619v-.316l.284-.299c.564-.598.831-.927.834-1.289,0-.245-.114-.459-.428-.459-.215,0-.392.123-.514.228l-.133-.366c.174-.16.436-.282.738-.282.532,0,.79.383.79.83,0,.48-.303.868-.724,1.31l-.206.207v.008h.981v.43h-1.624Z" />
        <path d="M78.663,21.575c0,.754-.465,1.091-.923,1.091-.506,0-.901-.396-.901-1.057,0-.674.388-1.086.931-1.086.536,0,.894.429.894,1.053ZM77.308,21.596c0,.396.173.695.446.695.259,0,.439-.286.439-.703,0-.32-.125-.691-.436-.691-.321,0-.45.358-.45.699Z" />
        <path d="M78.929,21.23c0-.278-.004-.48-.016-.661h.392l.019.387h.012c.088-.286.299-.434.494-.434.045,0,.07.004.107.013v.484c-.041-.008-.081-.012-.137-.012-.214,0-.365.156-.406.392-.008.046-.011.101-.011.156v1.065h-.454v-1.39Z" />
      </g>
      <g>
        <path d="M6.849,26.009l-.214.804h-.47l.798-2.838h.58l.809,2.838h-.491l-.226-.804h-.786ZM7.562,25.616l-.196-.699c-.048-.173-.088-.367-.125-.531h-.008c-.037.164-.077.362-.118.531l-.191.699h.639Z" />
        <path d="M8.592,24.012c.203-.034.455-.059.725-.059.465,0,.782.109,1.012.328.243.224.391.564.391,1.044,0,.51-.151.885-.388,1.129-.247.257-.643.387-1.126.387-.262,0-.462-.017-.613-.038v-2.792ZM9.047,26.421c.062.013.158.013.251.013.591.004.941-.371.941-1.091.004-.624-.314-.985-.883-.985-.144,0-.243.013-.31.029v2.034Z" />
        <path d="M11.449,26.009l-.214.804h-.47l.798-2.838h.58l.809,2.838h-.491l-.226-.804h-.786ZM12.162,25.616l-.196-.699c-.048-.173-.088-.367-.125-.531h-.008c-.037.164-.077.362-.118.531l-.191.699h.639Z" />
        <path d="M13.191,24.012c.167-.034.392-.059.694-.059.333,0,.572.08.731.231.147.139.244.362.244.627,0,.27-.074.489-.211.64-.185.207-.465.308-.786.308-.085,0-.159-.004-.222-.021v1.074h-.451v-2.801ZM13.642,25.33c.059.021.129.025.222.025.34,0,.546-.194.546-.522,0-.316-.191-.48-.506-.48-.125,0-.214.013-.262.025v.952Z" />
        <path d="M15.624,24.408h-.709v-.434h1.88v.434h-.717v2.405h-.454v-2.405Z" />
        <path d="M18.37,25.553h-.938v.834h1.048v.425h-1.503v-2.838h1.448v.425h-.993v.733h.938v.421Z" />
        <path d="M18.771,24.016c.174-.038.425-.063.688-.063.358,0,.598.067.768.227.137.131.215.329.215.573,0,.367-.218.615-.454.708v.013c.181.076.287.274.347.547.081.354.147.683.195.792h-.465c-.037-.084-.1-.316-.166-.669-.074-.371-.188-.489-.447-.497h-.229v1.167h-.451v-2.796ZM19.223,25.267h.27c.307,0,.495-.186.495-.468,0-.307-.188-.455-.484-.455-.144,0-.236.013-.28.025v.897Z" />
        <path d="M21.874,23.974v2.838h-.455v-2.838h.455Z" />
        <path d="M22.281,26.813v-2.838h.521l.643,1.217c.162.316.31.645.425.952h.007c-.033-.379-.04-.746-.04-1.179v-.99h.421v2.838h-.473l-.65-1.251c-.158-.312-.321-.657-.443-.977l-.015.004c.019.366.026.741.026,1.208v1.015h-.421Z" />
        <path d="M24.673,24.012c.167-.034.392-.059.694-.059.333,0,.572.08.731.231.147.139.244.362.244.627,0,.27-.074.489-.211.64-.185.207-.465.308-.786.308-.085,0-.159-.004-.222-.021v1.074h-.451v-2.801ZM25.124,25.33c.059.021.129.025.222.025.34,0,.546-.194.546-.522,0-.316-.191-.48-.506-.48-.125,0-.214.013-.262.025v.952Z" />
        <path d="M27.08,23.974v1.655c0,.556.203.813.51.813.328,0,.524-.257.524-.813v-1.655h.454v1.621c0,.876-.396,1.264-.994,1.264-.575,0-.948-.367-.948-1.259v-1.625h.454Z" />
        <path d="M29.457,24.408h-.709v-.434h1.88v.434h-.717v2.405h-.454v-2.405Z" />
        <path d="M31.392,25.112c0-.194.114-.333.28-.333s.277.135.277.333c0,.185-.111.328-.284.328-.159,0-.273-.143-.273-.328ZM31.392,26.53c0-.194.114-.333.28-.333s.277.135.277.333c0,.186-.111.329-.284.329-.159,0-.273-.143-.273-.329Z" />
        <path d="M32.871,26.278c.093.063.317.168.547.168.347,0,.483-.224.483-.438,0-.325-.27-.463-.547-.463h-.206v-.379h.206c.207,0,.473-.11.473-.379,0-.189-.118-.345-.384-.345-.195,0-.392.097-.491.173l-.104-.375c.137-.105.406-.21.691-.21.498,0,.749.312.749.669,0,.287-.147.522-.443.64v.008c.292.063.524.312.528.683,0,.463-.34.83-.935.83-.291,0-.542-.093-.672-.189l.104-.392Z" />
        <path d="M34.68,26.527c0-.194.118-.333.28-.333.166,0,.281.135.281.333,0,.189-.111.333-.285.333-.162,0-.276-.143-.276-.333Z" />
        <path d="M35.504,26.278c.093.063.317.168.547.168.347,0,.483-.224.483-.438,0-.325-.27-.463-.547-.463h-.206v-.379h.206c.207,0,.473-.11.473-.379,0-.189-.118-.345-.384-.345-.195,0-.392.097-.491.173l-.104-.375c.137-.105.406-.21.691-.21.498,0,.749.312.749.669,0,.287-.147.522-.443.64v.008c.292.063.524.312.528.683,0,.463-.34.83-.935.83-.291,0-.542-.093-.672-.189l.104-.392Z" />
        <path d="M37.955,26.813l-.806-2.838h.495l.34,1.293c.096.358.181.686.244,1.032h.007c.066-.337.159-.683.255-1.028l.362-1.297h.483l-.86,2.838h-.521Z" />
        <path d="M44.844,26.278c.093.063.317.168.547.168.347,0,.483-.224.483-.438,0-.325-.27-.463-.547-.463h-.206v-.379h.206c.207,0,.473-.11.473-.379,0-.189-.118-.345-.384-.345-.195,0-.392.097-.491.173l-.104-.375c.137-.105.406-.21.691-.21.498,0,.749.312.749.669,0,.287-.147.522-.443.64v.008c.292.063.524.312.528.683,0,.463-.34.83-.935.83-.291,0-.542-.093-.672-.189l.104-.392Z" />
        <path d="M48.151,24.505h-.923l-.07.547c.052-.008.1-.013.17-.013.21,0,.425.055.583.177.182.13.314.362.314.695,0,.522-.381.948-.968.948-.28,0-.514-.08-.639-.16l.092-.392c.104.063.311.143.528.143.266,0,.521-.172.521-.497,0-.315-.203-.522-.68-.522-.136,0-.236.013-.328.025l.155-1.381h1.244v.43Z" />
        <path d="M50.188,25.423c0,.884-.303,1.436-.879,1.436-.55,0-.846-.573-.849-1.407,0-.855.317-1.423.878-1.423.58,0,.85.589.85,1.394ZM48.918,25.448c0,.669.159,1.015.406,1.015.27,0,.406-.371.406-1.027,0-.636-.129-1.011-.402-1.011-.24,0-.41.341-.41,1.023Z" />
        <path d="M50.45,25.372c0-.236-.008-.434-.016-.61h.388l.022.303h.012c.084-.16.247-.35.554-.35.236,0,.421.151.498.379h.008c.062-.114.137-.198.218-.257.104-.08.218-.122.369-.122.295,0,.598.231.598.889v1.208h-.442v-1.133c0-.341-.104-.543-.321-.543-.155,0-.27.126-.317.274-.016.046-.022.114-.022.173v1.229h-.443v-1.188c0-.287-.1-.489-.31-.489-.17,0-.285.152-.329.291-.015.055-.022.114-.022.173v1.213h-.442v-1.44Z" />
        <path d="M53.991,26.009l-.214.804h-.47l.798-2.838h.58l.809,2.838h-.491l-.226-.804h-.786ZM54.704,25.616l-.196-.699c-.048-.173-.088-.367-.125-.531h-.008c-.037.164-.077.362-.118.531l-.191.699h.639Z" />
        <path d="M55.66,26.527c0-.194.118-.333.28-.333.166,0,.281.135.281.333,0,.189-.111.333-.285.333-.162,0-.276-.143-.276-.333Z" />
        <path d="M57.342,23.974v1.655c0,.556.203.813.51.813.328,0,.524-.257.524-.813v-1.655h.454v1.621c0,.876-.396,1.264-.994,1.264-.575,0-.948-.367-.948-1.259v-1.625h.454Z" />
        <path d="M59.161,26.248c.144.097.369.181.602.181.288,0,.451-.156.451-.387,0-.215-.126-.341-.439-.472-.414-.168-.676-.417-.676-.826,0-.467.34-.817.882-.817.27,0,.466.067.595.143l-.107.417c-.092-.055-.266-.135-.498-.135-.288,0-.41.173-.41.341,0,.219.145.32.477.467.432.185.639.434.639.842,0,.459-.303.855-.941.855-.266,0-.539-.084-.676-.181l.104-.43Z" />
        <path d="M62.295,25.553h-.938v.834h1.048v.425h-1.503v-2.838h1.448v.425h-.993v.733h.938v.421Z" />
        <path d="M65.411,25.364c0,.952-.506,1.495-1.189,1.495-.705,0-1.148-.615-1.148-1.445,0-.876.483-1.491,1.186-1.491.724,0,1.152.627,1.152,1.44ZM63.554,25.402c0,.581.255,1.04.69,1.04.439,0,.687-.467.687-1.061,0-.535-.232-1.041-.687-1.041-.451,0-.69.476-.69,1.062Z" />
        <path d="M65.618,26.813v-2.838h.521l.643,1.217c.162.316.31.645.425.952h.007c-.033-.379-.04-.746-.04-1.179v-.99h.421v2.838h-.473l-.65-1.251c-.158-.312-.321-.657-.443-.977l-.015.004c.019.366.026.741.026,1.208v1.015h-.421Z" />
        <path d="M67.935,23.974h.455v2.405h1.022v.434h-1.478v-2.838Z" />
        <path d="M69.817,26.813v-1.184l-.786-1.655h.521l.295.729c.085.21.148.371.218.564h.008c.059-.181.129-.358.214-.564l.299-.729h.514l-.827,1.642v1.196h-.454Z" />
        <path d="M72.272,26.009l-.214.804h-.47l.798-2.838h.58l.809,2.838h-.491l-.226-.804h-.786ZM72.985,25.616l-.196-.699c-.048-.173-.088-.367-.125-.531h-.008c-.037.164-.077.362-.118.531l-.191.699h.639Z" />
        <path d="M75.857,26.682c-.158.067-.469.16-.797.16-.421,0-.742-.122-.979-.379-.222-.24-.348-.615-.348-1.044.004-.901.562-1.474,1.385-1.474.307,0,.547.072.661.135l-.1.417c-.137-.071-.303-.122-.565-.122-.531,0-.904.358-.904,1.019,0,.645.347,1.028.864,1.028.166,0,.284-.025.343-.055v-.712h-.439v-.408h.879v1.436Z" />
        <path d="M76.14,24.016c.145-.034.406-.063.665-.063.332,0,.543.05.709.181.155.105.259.291.259.535,0,.261-.145.497-.414.61v.013c.263.076.503.312.503.699,0,.253-.097.451-.236.59-.178.172-.47.261-.928.261-.251,0-.439-.021-.558-.038v-2.788ZM76.592,25.136h.232c.317,0,.491-.168.491-.408,0-.27-.178-.392-.466-.392-.133,0-.21.009-.258.021v.779ZM76.592,26.438c.059.013.137.013.24.013.291,0,.554-.122.554-.472,0-.333-.255-.467-.569-.467h-.225v.926Z" />
        <path d="M78.877,25.196v.358h-.942v-.358h.942Z" />
        <path d="M80.657,25.423c0,.884-.303,1.436-.879,1.436-.55,0-.846-.573-.849-1.407,0-.855.317-1.423.878-1.423.58,0,.85.589.85,1.394ZM79.387,25.448c0,.669.159,1.015.406,1.015.27,0,.406-.371.406-1.027,0-.636-.129-1.011-.402-1.011-.24,0-.41.341-.41,1.023Z" />
        <path d="M82.454,25.423c0,.884-.303,1.436-.879,1.436-.55,0-.846-.573-.849-1.407,0-.855.317-1.423.878-1.423.58,0,.85.589.85,1.394ZM81.183,25.448c0,.669.159,1.015.406,1.015.27,0,.406-.371.406-1.027,0-.636-.129-1.011-.402-1.011-.24,0-.41.341-.41,1.023Z" />
        <path d="M82.974,25.385c-.251-.139-.365-.366-.365-.606,0-.446.347-.75.801-.75.521,0,.753.354.753.69,0,.232-.106.472-.369.619v.013c.263.114.458.35.458.691,0,.488-.361.817-.875.817-.562,0-.853-.371-.853-.754,0-.337.173-.568.45-.708v-.013ZM83.791,26.084c0-.278-.178-.43-.447-.514-.226.071-.354.252-.354.476-.008.236.147.446.402.446.24,0,.399-.172.399-.408ZM83.041,24.758c0,.223.162.358.392.43.166-.055.299-.207.299-.413,0-.19-.1-.388-.344-.388-.229,0-.347.173-.347.371Z" />
        <path d="M85.203,23.734c-.236.4-.413.956-.413,1.714,0,.745.181,1.297.413,1.701h-.328c-.215-.337-.451-.889-.451-1.701.004-.826.236-1.373.451-1.714h.328Z" />
        <path d="M85.385,24.012c.203-.034.455-.059.725-.059.465,0,.782.109,1.012.328.243.224.391.564.391,1.044,0,.51-.151.885-.388,1.129-.247.257-.643.387-1.126.387-.262,0-.462-.017-.613-.038v-2.792ZM85.84,26.421c.062.013.158.013.251.013.591.004.941-.371.941-1.091.004-.624-.314-.985-.883-.985-.144,0-.243.013-.31.029v2.034Z" />
        <path d="M89.51,26.733c-.107.059-.344.126-.646.126-.79,0-1.271-.564-1.271-1.432,0-.935.572-1.499,1.333-1.499.3,0,.51.071.603.126l-.097.413c-.118-.059-.284-.109-.487-.109-.506,0-.871.362-.871,1.044,0,.627.317,1.023.867,1.023.182,0,.373-.042.495-.101l.074.408Z" />
        <path d="M90.296,24.012c.167-.034.392-.059.694-.059.333,0,.572.08.731.231.147.139.244.362.244.627,0,.27-.074.489-.211.64-.185.207-.465.308-.786.308-.085,0-.159-.004-.222-.021v1.074h-.451v-2.801ZM90.747,25.33c.059.021.129.025.222.025.34,0,.546-.194.546-.522,0-.316-.191-.48-.506-.48-.125,0-.214.013-.262.025v.952Z" />
        <path d="M94.387,25.364c0,.952-.506,1.495-1.189,1.495-.705,0-1.148-.615-1.148-1.445,0-.876.483-1.491,1.186-1.491.724,0,1.152.627,1.152,1.44ZM92.529,25.402c0,.581.255,1.04.69,1.04.439,0,.687-.467.687-1.061,0-.535-.232-1.041-.687-1.041-.451,0-.69.476-.69,1.062Z" />
        <path d="M94.988,26.813l-.609-2.838h.483l.236,1.289c.062.345.122.708.162.99h.008c.041-.299.11-.636.181-.994l.27-1.284h.477l.247,1.305c.06.337.115.653.151.96h.008c.044-.312.104-.636.17-.985l.259-1.28h.461l-.672,2.838h-.483l-.259-1.335c-.062-.324-.107-.594-.141-.901h-.007c-.041.303-.089.577-.163.901l-.287,1.335h-.491Z" />
        <path d="M99.006,25.553h-.938v.834h1.048v.425h-1.503v-2.838h1.448v.425h-.993v.733h.938v.421Z" />
        <path d="M99.333,24.016c.174-.038.425-.063.688-.063.358,0,.598.067.768.227.137.131.215.329.215.573,0,.367-.219.615-.455.708v.013c.182.076.288.274.348.547.081.354.147.683.195.792h-.465c-.037-.084-.1-.316-.166-.669-.074-.371-.188-.489-.447-.497h-.229v1.167h-.451v-2.796ZM99.784,25.267h.27c.307,0,.494-.186.494-.468,0-.307-.188-.455-.483-.455-.144,0-.236.013-.28.025v.897Z" />
        <path d="M103.933,25.654c-.015-.366-.033-.809-.029-1.192h-.012c-.081.345-.185.729-.295,1.086l-.365,1.23h-.348l-.332-1.213c-.097-.362-.185-.75-.251-1.104h-.008c-.011.371-.025.821-.044,1.209l-.056,1.141h-.425l.166-2.838h.599l.325,1.141c.088.333.166.67.229.985h.011c.066-.307.151-.657.248-.989l.343-1.137h.591l.145,2.838h-.443l-.048-1.158Z" />
        <path d="M106.915,25.364c0,.952-.506,1.495-1.189,1.495-.705,0-1.148-.615-1.148-1.445,0-.876.483-1.491,1.186-1.491.724,0,1.152.627,1.152,1.44ZM105.057,25.402c0,.581.255,1.04.69,1.04.439,0,.687-.467.687-1.061,0-.535-.232-1.041-.687-1.041-.451,0-.69.476-.69,1.062Z" />
        <path d="M107.124,24.012c.203-.034.455-.059.725-.059.465,0,.782.109,1.012.328.243.224.391.564.391,1.044,0,.51-.151.885-.388,1.129-.247.257-.642.387-1.126.387-.262,0-.461-.017-.613-.038v-2.792ZM107.579,26.421c.062.013.158.013.251.013.591.004.941-.371.941-1.091.004-.624-.313-.985-.883-.985-.144,0-.243.013-.31.029v2.034Z" />
        <path d="M109.916,23.974v1.655c0,.556.203.813.51.813.328,0,.524-.257.524-.813v-1.655h.454v1.621c0,.876-.396,1.264-.994,1.264-.575,0-.948-.367-.948-1.259v-1.625h.454Z" />
        <path d="M111.742,23.974h.455v2.405h1.022v.434h-1.478v-2.838Z" />
        <path d="M114.773,25.553h-.938v.834h1.048v.425h-1.503v-2.838h1.448v.425h-.993v.733h.938v.421Z" />
        <path d="M114.941,27.15c.232-.4.413-.96.413-1.71s-.181-1.301-.413-1.706h.328c.215.333.451.88.451,1.706-.004.821-.236,1.369-.451,1.71h-.328Z" />
      </g>
      <g>
        <path d="M30.547,21.23c0,.884-.303,1.436-.879,1.436-.55,0-.846-.573-.849-1.407,0-.855.317-1.423.878-1.423.58,0,.85.589.85,1.394ZM29.276,21.256c0,.669.159,1.015.406,1.015.27,0,.406-.371.406-1.027,0-.636-.129-1.011-.402-1.011-.24,0-.41.341-.41,1.023Z" />
        <path d="M30.753,22.334c0-.194.118-.333.28-.333.166,0,.281.135.281.333,0,.189-.111.333-.285.333-.162,0-.276-.143-.276-.333Z" />
        <path d="M32.943,20.253c-.066-.004-.141,0-.229.013-.506.067-.746.417-.806.796h.012c.118-.156.299-.266.539-.266.413,0,.734.337.734.893,0,.522-.336.977-.846.977-.583,0-.904-.505-.904-1.184,0-.526.166-.952.417-1.221.218-.24.51-.375.854-.404.1-.017.173-.017.229-.013v.409ZM32.733,21.718c0-.32-.151-.543-.418-.543-.17,0-.321.118-.391.282-.019.042-.03.092-.03.164.008.362.155.657.454.657.233,0,.385-.231.385-.56Z" />
        <path d="M33.862,22.62l-.609-2.838h.483l.236,1.289c.062.345.122.708.162.99h.008c.041-.299.11-.636.181-.994l.27-1.284h.477l.247,1.305c.06.337.115.653.151.96h.008c.044-.312.104-.636.17-.985l.259-1.28h.461l-.672,2.838h-.483l-.259-1.335c-.062-.324-.107-.594-.141-.901h-.007c-.041.303-.089.577-.163.901l-.287,1.335h-.491Z" />
      </g>
      <g>
        <rect x="24.038" y="20.529" width="3.936" height=".4" />
        <rect x="24.038" y="21.566" width=".832" height=".4" />
        <rect x="25.59" y="21.566" width=".833" height=".4" />
        <rect x="27.142" y="21.566" width=".832" height=".4" />
      </g>
      <g>
        <path d="M13.075,17.459v-.377l.34-.356c.675-.712.992-1.104.996-1.536,0-.291-.137-.547-.511-.547-.256,0-.468.146-.613.271l-.159-.437c.208-.191.521-.336.882-.336.636,0,.944.457.944.989,0,.572-.361,1.034-.864,1.561l-.247.246v.011h1.173v.512h-1.94Z" />
        <path d="M17.33,15.802c0,1.054-.361,1.712-1.05,1.712-.657,0-1.01-.684-1.014-1.677,0-1.019.379-1.697,1.049-1.697.692,0,1.015.703,1.015,1.662ZM15.813,15.832c0,.798.19,1.209.485,1.209.322,0,.485-.441.485-1.225,0-.758-.154-1.205-.48-1.205-.287,0-.49.406-.49,1.22Z" />
        <path d="M19.562,15.802c0,1.054-.361,1.712-1.05,1.712-.657,0-1.01-.684-1.014-1.677,0-1.019.379-1.697,1.049-1.697.692,0,1.015.703,1.015,1.662ZM18.044,15.832c0,.798.19,1.209.485,1.209.322,0,.485-.441.485-1.225,0-.758-.154-1.205-.48-1.205-.287,0-.49.406-.49,1.22Z" />
        <path d="M21.792,15.802c0,1.054-.361,1.712-1.05,1.712-.657,0-1.01-.684-1.014-1.677,0-1.019.379-1.697,1.049-1.697.692,0,1.015.703,1.015,1.662ZM20.275,15.832c0,.798.19,1.209.485,1.209.322,0,.485-.441.485-1.225,0-.758-.154-1.205-.48-1.205-.287,0-.49.406-.49,1.22Z" />
        <path d="M23.119,17.459v-3.384h.622l.768,1.451c.193.376.37.768.507,1.135h.009c-.04-.452-.049-.889-.049-1.406v-1.18h.503v3.384h-.564l-.776-1.491c-.189-.371-.384-.783-.529-1.165l-.018.005c.022.437.031.883.031,1.44v1.21h-.503Z" />
        <path d="M26.581,14.331c0,.181-.119.331-.31.331-.181,0-.3-.15-.3-.331,0-.191.124-.336.305-.336.186,0,.3.146.305.336ZM26.003,17.459v-2.445h.542v2.445h-.542Z" />
        <path d="M27.027,15.742c0-.281-.009-.517-.018-.728h.472l.026.367h.014c.097-.191.33-.422.688-.422.375,0,.763.276.763,1.049v1.451h-.542v-1.38c0-.352-.114-.618-.41-.618-.216,0-.366.176-.423.361-.019.05-.027.125-.027.196v1.441h-.542v-1.717Z" />
        <path d="M30.043,14.386v.627h.516v.462h-.516v1.08c0,.301.07.451.277.451.098,0,.15-.005.212-.024l.009.467c-.079.035-.225.065-.393.065-.203,0-.366-.076-.468-.201-.118-.141-.172-.366-.172-.688v-1.15h-.304v-.462h.304v-.457l.534-.17Z" />
        <path d="M31.22,16.41c.013.441.312.632.661.632.252,0,.428-.045.596-.11l.079.422c-.186.091-.44.155-.75.155-.696,0-1.106-.486-1.106-1.234,0-.678.361-1.315,1.05-1.315.696,0,.926.652.926,1.19,0,.115-.009.206-.018.261h-1.438ZM32.163,15.978c.005-.226-.084-.597-.445-.597-.335,0-.477.346-.498.597h.943Z" />
        <path d="M33.006,15.742c0-.281-.009-.517-.018-.728h.472l.026.367h.014c.097-.191.33-.422.688-.422.375,0,.763.276.763,1.049v1.451h-.542v-1.38c0-.352-.114-.618-.41-.618-.216,0-.366.176-.423.361-.019.05-.027.125-.027.196v1.441h-.542v-1.717Z" />
        <path d="M37.403,13.894v2.877c0,.251.009.521.018.688h-.481l-.026-.387h-.009c-.128.271-.388.442-.696.442-.517,0-.922-.497-.922-1.25-.004-.818.445-1.305.961-1.305.296,0,.508.136.604.316h.009v-1.381h.543ZM36.86,16.033c0-.05-.004-.115-.013-.166-.049-.236-.221-.432-.468-.432-.349,0-.542.351-.542.803s.193.778.537.778c.221,0,.415-.171.468-.438.014-.055.018-.115.018-.181v-.366Z" />
        <path d="M39.92,16.214c0,.898-.556,1.301-1.103,1.301-.604,0-1.076-.473-1.076-1.261,0-.803.463-1.295,1.111-1.295.64,0,1.067.512,1.067,1.255ZM38.302,16.239c0,.472.207.828.533.828.309,0,.524-.342.524-.838,0-.381-.149-.823-.521-.823-.383,0-.537.427-.537.833Z" />
      </g>
      <g>
        <path d="M41.68,14.083c.198-.04.467-.07.829-.07.396,0,.683.095.873.276.176.166.291.432.291.748,0,.321-.089.583-.252.763-.221.246-.556.367-.939.367-.101,0-.189-.005-.264-.025v1.28h-.538v-3.338ZM42.218,15.654c.07.025.154.03.264.03.406,0,.653-.231.653-.623,0-.376-.229-.572-.604-.572-.149,0-.256.015-.312.03v1.135Z" />
        <path d="M45.622,16.834c0,.221.009.437.035.587h-.489l-.04-.271h-.013c-.128.191-.354.326-.636.326-.432,0-.674-.356-.674-.728,0-.612.48-.929,1.274-.923v-.041c0-.161-.058-.427-.438-.427-.211,0-.432.076-.577.181l-.105-.402c.158-.11.437-.216.775-.216.688,0,.887.497.887,1.034v.878ZM45.093,16.226c-.384-.005-.75.085-.75.457,0,.241.137.351.309.351.221,0,.375-.161.429-.336.013-.045.013-.091.013-.136v-.336Z" />
        <path d="M46.716,14.349v.627h.516v.462h-.516v1.079c0,.301.07.452.277.452.098,0,.15-.005.212-.025l.009.467c-.079.035-.225.065-.393.065-.203,0-.366-.075-.468-.201-.118-.141-.172-.367-.172-.688v-1.149h-.304v-.462h.304v-.457l.534-.17Z" />
        <path d="M47.924,16.372c.013.442.313.633.661.633.252,0,.428-.045.596-.111l.079.422c-.186.09-.44.156-.75.156-.696,0-1.106-.487-1.106-1.235,0-.678.361-1.315,1.05-1.315.696,0,.926.652.926,1.19,0,.115-.009.206-.018.261h-1.438ZM48.868,15.94c.005-.226-.084-.597-.445-.597-.335,0-.477.346-.498.597h.943Z" />
        <path d="M49.741,15.704c0-.281-.009-.517-.018-.728h.472l.026.367h.014c.097-.191.33-.422.688-.422.375,0,.763.276.763,1.049v1.451h-.542v-1.38c0-.352-.114-.618-.41-.618-.216,0-.366.176-.423.361-.019.05-.027.125-.027.196v1.441h-.542v-1.717Z" />
        <path d="M52.787,14.349v.627h.516v.462h-.516v1.079c0,.301.07.452.277.452.098,0,.15-.005.212-.025l.009.467c-.079.035-.225.065-.393.065-.203,0-.366-.075-.468-.201-.118-.141-.172-.367-.172-.688v-1.149h-.304v-.462h.304v-.457l.534-.17Z" />
        <path d="M53.616,16.849c.119.085.354.181.547.181.238,0,.345-.115.345-.276,0-.166-.089-.246-.354-.356-.419-.161-.591-.422-.591-.713,0-.432.313-.763.812-.763.238,0,.445.065.573.146l-.11.432c-.088-.06-.265-.141-.454-.141-.194,0-.3.111-.3.261,0,.156.102.226.375.341.393.156.568.382.573.743,0,.447-.305.768-.873.768-.261,0-.494-.07-.652-.171l.109-.452Z" />
        <path d="M56.818,14.294c0,.181-.119.331-.31.331-.181,0-.3-.15-.3-.331,0-.191.124-.336.305-.336.186,0,.3.146.305.336ZM56.24,17.421v-2.445h.542v2.445h-.542Z" />
        <path d="M57.272,16.849c.119.085.354.181.547.181.238,0,.345-.115.345-.276,0-.166-.089-.246-.354-.356-.419-.161-.591-.422-.591-.713,0-.432.313-.763.812-.763.238,0,.445.065.573.146l-.11.432c-.088-.06-.265-.141-.454-.141-.194,0-.3.111-.3.261,0,.156.102.226.375.341.393.156.568.382.573.743,0,.447-.305.768-.873.768-.261,0-.494-.07-.652-.171l.109-.452Z" />
        <path d="M59.036,16.849c.119.085.354.181.547.181.238,0,.345-.115.345-.276,0-.166-.089-.246-.354-.356-.419-.161-.591-.422-.591-.713,0-.432.313-.763.812-.763.238,0,.445.065.573.146l-.11.432c-.088-.06-.265-.141-.454-.141-.194,0-.3.111-.3.261,0,.156.102.226.375.341.393.156.568.382.573.743,0,.447-.305.768-.873.768-.261,0-.494-.07-.652-.171l.109-.452Z" />
        <path d="M62.744,16.688c0,.291.009.532.018.733h-.472l-.026-.367h-.014c-.093.171-.304.422-.692.422s-.745-.266-.745-1.064v-1.436h.542v1.331c0,.406.115.667.401.667.221,0,.362-.171.415-.332.021-.05.03-.12.03-.19v-1.476h.543v1.712Z" />
        <path d="M63.639,16.372c.013.442.313.633.661.633.252,0,.428-.045.596-.111l.079.422c-.186.09-.44.156-.75.156-.696,0-1.106-.487-1.106-1.235,0-.678.361-1.315,1.05-1.315.696,0,.926.652.926,1.19,0,.115-.009.206-.018.261h-1.438ZM64.582,15.94c.005-.226-.084-.597-.445-.597-.335,0-.477.346-.498.597h.943Z" />
        <path d="M67.437,13.857v2.876c0,.251.009.522.018.688h-.481l-.026-.387h-.009c-.128.271-.388.442-.696.442-.517,0-.922-.497-.922-1.25-.004-.818.445-1.305.961-1.305.296,0,.508.136.604.316h.009v-1.381h.543ZM66.894,15.995c0-.05-.004-.115-.013-.166-.049-.236-.221-.432-.468-.432-.349,0-.543.351-.543.803s.194.778.538.778c.221,0,.415-.17.468-.437.014-.055.018-.116.018-.181v-.367Z" />
        <path d="M70.448,16.834c0,.221.009.437.035.587h-.489l-.04-.271h-.013c-.128.191-.354.326-.636.326-.432,0-.675-.356-.675-.728,0-.612.481-.929,1.275-.923v-.041c0-.161-.058-.427-.438-.427-.211,0-.432.076-.577.181l-.105-.402c.158-.11.437-.216.775-.216.688,0,.887.497.887,1.034v.878ZM69.918,16.226c-.384-.005-.75.085-.75.457,0,.241.137.351.31.351.22,0,.374-.161.428-.336.013-.045.013-.091.013-.136v-.336Z" />
        <path d="M70.946,15.704c0-.281-.009-.517-.018-.728h.472l.026.367h.014c.097-.191.33-.422.688-.422.375,0,.763.276.763,1.049v1.451h-.542v-1.38c0-.352-.114-.618-.41-.618-.216,0-.366.176-.423.361-.019.05-.027.125-.027.196v1.441h-.542v-1.717Z" />
        <path d="M75.373,13.857v2.876c0,.251.009.522.018.688h-.481l-.026-.387h-.009c-.128.271-.388.442-.696.442-.517,0-.922-.497-.922-1.25-.004-.818.445-1.305.961-1.305.296,0,.508.136.604.316h.009v-1.381h.543ZM74.83,15.995c0-.05-.004-.115-.013-.166-.049-.236-.221-.432-.468-.432-.349,0-.542.351-.542.803s.193.778.537.778c.221,0,.415-.17.468-.437.014-.055.018-.116.018-.181v-.367Z" />
        <path d="M76.714,14.083c.198-.04.467-.07.829-.07.396,0,.683.095.873.276.176.166.291.432.291.748,0,.321-.089.583-.252.763-.22.246-.556.367-.939.367-.101,0-.189-.005-.264-.025v1.28h-.538v-3.338ZM77.252,15.654c.07.025.154.03.264.03.406,0,.653-.231.653-.623,0-.376-.229-.572-.604-.572-.149,0-.256.015-.312.03v1.135Z" />
        <path d="M79.355,16.372c.013.442.312.633.661.633.252,0,.428-.045.596-.111l.079.422c-.186.09-.44.156-.75.156-.696,0-1.106-.487-1.106-1.235,0-.678.361-1.315,1.05-1.315.696,0,.926.652.926,1.19,0,.115-.009.206-.018.261h-1.438ZM80.298,15.94c.005-.226-.084-.597-.445-.597-.335,0-.477.346-.498.597h.943Z" />
        <path d="M81.171,15.704c0-.281-.009-.517-.018-.728h.472l.026.367h.014c.097-.191.33-.422.688-.422.375,0,.763.276.763,1.049v1.451h-.542v-1.38c0-.352-.114-.618-.41-.618-.216,0-.366.176-.423.361-.019.05-.027.125-.027.196v1.441h-.542v-1.717Z" />
        <path d="M85.599,13.857v2.876c0,.251.009.522.018.688h-.481l-.026-.387h-.009c-.128.271-.388.442-.696.442-.517,0-.922-.497-.922-1.25-.004-.818.445-1.305.961-1.305.296,0,.508.136.604.316h.009v-1.381h.543ZM85.056,15.995c0-.05-.004-.115-.013-.166-.049-.236-.221-.432-.468-.432-.349,0-.543.351-.543.803s.194.778.538.778c.221,0,.415-.17.468-.437.014-.055.018-.116.018-.181v-.367Z" />
        <path d="M86.684,14.294c0,.181-.119.331-.31.331-.181,0-.3-.15-.3-.331,0-.191.124-.336.305-.336.186,0,.3.146.305.336ZM86.106,17.421v-2.445h.542v2.445h-.542Z" />
        <path d="M87.16,15.704c0-.281-.009-.517-.018-.728h.472l.026.367h.014c.097-.191.33-.422.688-.422.375,0,.763.276.763,1.049v1.451h-.542v-1.38c0-.352-.114-.618-.41-.618-.216,0-.366.176-.423.361-.019.05-.027.125-.027.196v1.441h-.542v-1.717Z" />
        <path d="M91.551,17.065c0,.512-.092.878-.317,1.109-.22.226-.533.296-.829.296-.273,0-.564-.07-.749-.196l.119-.467c.137.09.365.186.626.186.353,0,.617-.211.617-.738v-.211h-.009c-.123.216-.34.361-.626.361-.534,0-.913-.502-.913-1.195,0-.803.459-1.29.975-1.29.331,0,.521.181.622.381h.009l.021-.326h.472c-.009.166-.018.367-.018.703v1.386ZM91.009,15.955c0-.061-.005-.116-.018-.166-.058-.226-.212-.397-.441-.397-.304,0-.529.301-.529.798,0,.417.186.753.525.753.203,0,.379-.15.44-.376.018-.06.022-.146.022-.216v-.396Z" />
        <path d="M91.733,18.029c.119-.381.238-.909.296-1.325l.568-.05c-.128.472-.321,1.014-.494,1.335l-.37.04Z" />
        <path d="M93.426,16.748c.172.116.44.216.719.216.344,0,.538-.186.538-.461,0-.256-.15-.407-.525-.562-.494-.201-.807-.497-.807-.984,0-.557.405-.974,1.054-.974.322,0,.556.081.71.171l-.128.497c-.11-.065-.317-.161-.595-.161-.345,0-.49.206-.49.407,0,.261.172.381.569.557.516.221.763.517.763,1.004,0,.547-.361,1.019-1.125,1.019-.317,0-.644-.101-.807-.216l.124-.512Z" />
        <path d="M96.036,16.372c.013.442.312.633.661.633.252,0,.428-.045.596-.111l.079.422c-.186.09-.44.156-.75.156-.696,0-1.106-.487-1.106-1.235,0-.678.361-1.315,1.05-1.315.696,0,.926.652.926,1.19,0,.115-.009.206-.018.261h-1.438ZM96.98,15.94c.005-.226-.084-.597-.445-.597-.335,0-.477.346-.498.597h.943Z" />
        <path d="M98.237,16.372c.013.442.313.633.661.633.252,0,.428-.045.596-.111l.079.422c-.186.09-.44.156-.75.156-.696,0-1.106-.487-1.106-1.235,0-.678.361-1.315,1.05-1.315.696,0,.926.652.926,1.19,0,.115-.009.206-.018.261h-1.438ZM99.18,15.94c.005-.226-.084-.597-.445-.597-.335,0-.477.346-.498.597h.943Z" />
        <path d="M100.891,13.857h.542v1.456h.009c.133-.236.366-.392.688-.392.524,0,.899.497.896,1.24,0,.879-.49,1.315-.975,1.315-.278,0-.525-.121-.68-.422h-.009l-.026.367h-.463c.009-.166.018-.437.018-.688v-2.876ZM101.433,16.412c0,.05.005.101.014.146.058.251.247.432.48.432.34,0,.547-.306.547-.803,0-.432-.181-.783-.542-.783-.221,0-.424.181-.48.452-.01.045-.019.101-.019.161v.396Z" />
        <path d="M105.438,16.176c0,.899-.556,1.3-1.103,1.3-.604,0-1.076-.472-1.076-1.26,0-.803.463-1.295,1.111-1.295.64,0,1.067.512,1.067,1.255ZM103.82,16.201c0,.472.207.828.533.828.309,0,.524-.341.524-.838,0-.381-.149-.823-.521-.823-.383,0-.537.427-.537.833Z" />
        <path d="M107.85,16.176c0,.899-.556,1.3-1.103,1.3-.604,0-1.076-.472-1.076-1.26,0-.803.463-1.295,1.111-1.295.64,0,1.067.512,1.067,1.255ZM106.232,16.201c0,.472.207.828.533.828.309,0,.524-.341.524-.838,0-.381-.149-.823-.521-.823-.383,0-.537.427-.537.833Z" />
        <path d="M108.761,16.05h.009c.054-.095.115-.201.168-.286l.524-.788h.653l-.799.999.909,1.446h-.666l-.617-1.079-.182.246v.833h-.542v-3.564h.542v2.194Z" />
        <path d="M110.451,13.857h.542v3.564h-.542v-3.564Z" />
        <path d="M111.893,16.372c.013.442.313.633.661.633.252,0,.428-.045.596-.111l.079.422c-.186.09-.44.156-.75.156-.696,0-1.106-.487-1.106-1.235,0-.678.361-1.315,1.05-1.315.696,0,.926.652.926,1.19,0,.115-.009.206-.018.261h-1.438ZM112.836,15.94c.005-.226-.084-.597-.445-.597-.335,0-.477.346-.498.597h.943Z" />
        <path d="M114.331,14.349v.627h.516v.462h-.516v1.079c0,.301.07.452.277.452.098,0,.15-.005.212-.025l.009.467c-.079.035-.225.065-.393.065-.203,0-.366-.075-.468-.201-.118-.141-.172-.367-.172-.688v-1.149h-.304v-.462h.304v-.457l.534-.17Z" />
        <path d="M115.089,17.08c0-.231.142-.396.335-.396.199,0,.336.161.336.396,0,.226-.133.396-.34.396-.194,0-.331-.17-.331-.396Z" />
      </g>
      <g>
        <path d="M5.348,13.816c1.039,0,1.885.846,1.885,1.885s-.846,1.885-1.885,1.885-1.885-.846-1.885-1.885.846-1.885,1.885-1.885M5.348,13.545c-1.191,0-2.156.966-2.156,2.157s.966,2.157,2.156,2.157,2.157-.966,2.157-2.157-.966-2.157-2.157-2.157h0Z" />
        <path d="M6.07,16.898c-.103.053-.333.113-.627.113-.767,0-1.233-.504-1.233-1.279,0-.836.556-1.34,1.294-1.34.291,0,.495.064.585.113l-.094.369c-.115-.053-.275-.098-.473-.098-.49,0-.845.324-.845.934,0,.56.309.914.842.914.175,0,.362-.038.481-.09l.071.365Z" />
      </g>
      <g>
        <path d="M10.473,13.816c1.04,0,1.886.846,1.886,1.886s-.846,1.886-1.886,1.886-1.886-.846-1.886-1.886.846-1.886,1.886-1.886M10.473,13.545c-1.191,0-2.157.966-2.157,2.157s.966,2.157,2.157,2.157,2.157-.966,2.157-2.157-.966-2.157-2.157-2.157h0Z" />
        <path d="M11.188,15.925c-.013-.313-.028-.691-.025-1.019h-.009c-.07.296-.159.623-.253.929l-.313,1.052h-.297l-.285-1.037c-.082-.31-.157-.641-.215-.944h-.006c-.009.317-.022.702-.038,1.033l-.048.976h-.363l.142-2.427h.512l.278.976c.076.284.142.573.196.843h.009c.056-.263.129-.562.212-.846l.294-.972h.506l.123,2.427h-.38l-.041-.99Z" />
      </g>
      <g>
        <rect x="39.92" y="24.72" width="3.936" height=".4" />
        <rect x="39.92" y="25.757" width=".832" height=".4" />
        <rect x="41.472" y="25.757" width=".832" height=".4" />
        <rect x="43.024" y="25.757" width=".832" height=".4" />
      </g>
    </g>
    <rect x="3.191" y="11.336" width="112.523" height=".5"/>
    <g>
      <g>
        <path d="M50.749,34.856c.371,0,.672.301.672.672s-.301.672-.672.672-.672-.301-.672-.672.301-.672.672-.672M50.749,34.606c-.508,0-.922.414-.922.922s.414.922.922.922.922-.414.922-.922-.414-.922-.922-.922h0Z" />
        <path d="M54.042,34.856c.371,0,.672.301.672.672s-.301.672-.672.672-.672-.301-.672-.672.301-.672.672-.672M54.042,34.606c-.508,0-.922.414-.922.922s.414.922.922.922.922-.414.922-.922-.414-.922-.922-.922h0Z" />
      </g>
      <path d="M52.396,29.164l1.382.973-1.382.973-1.382-.973,1.382-.973M52.396,28.858l-.144.101-1.382.973-.29.204.29.204,1.382.973.144.101.144-.101,1.382-.973.29-.204-.29-.204-1.382-.973-.144-.101h0Z" />
      <g>
        <rect x="48.99" y="31.236" width="6.812" height="3.495" fill="#231f20" data-background="background"/>
        <path d="M55.677,31.361v3.245h-6.562v-3.245h6.562M55.927,31.111h-7.062v3.745h7.062v-3.745h0Z" />
      </g>
    </g>
    <g>
      <g>
        <path d="M76.733,8.307c-.012-.392-.024-.866-.024-1.34h-.008c-.09.416-.204.88-.31,1.263l-.334,1.272h-.485l-.293-1.258c-.09-.387-.18-.851-.249-1.277h-.008c-.012.44-.028.943-.045,1.35l-.053,1.238h-.574l.175-3.26h.827l.269,1.088c.09.377.172.784.232,1.166h.017c.073-.377.167-.808.261-1.17l.289-1.083h.814l.147,3.26h-.604l-.045-1.248Z" />
        <path d="M80.369,7.891c0,1.074-.541,1.717-1.348,1.717-.812,0-1.292-.73-1.292-1.664,0-.977.529-1.708,1.336-1.708.844,0,1.304.75,1.304,1.654ZM78.385,7.929c0,.644.252,1.093.668,1.093.42,0,.66-.474.66-1.107,0-.59-.232-1.093-.66-1.093-.424,0-.668.474-.668,1.107Z" />
        <path d="M80.775,6.343c.229-.043.526-.072.836-.072.525,0,.867.116,1.128.348.285.251.465.653.465,1.229,0,.624-.191,1.055-.452,1.32-.289.286-.733.421-1.271.421-.322,0-.554-.024-.705-.048v-3.197ZM81.394,8.999c.054.015.143.015.217.015.565.004.937-.363.937-1.142,0-.677-.334-1.035-.872-1.035-.134,0-.228.014-.281.029v2.133Z" />
        <path d="M85.243,8.176h-1.01v.774h1.128v.604h-1.747v-3.26h1.69v.604h-1.071v.677h1.01v.6Z" />
        <path d="M85.787,6.295h.619v2.641h1.092v.619h-1.711v-3.26Z" />
        <path d="M88.686,9.555v-3.26h.726l.57,1.195c.163.343.322.75.448,1.117h.008c-.036-.43-.049-.871-.049-1.364v-.948h.57v3.26h-.651l-.587-1.258c-.163-.348-.347-.769-.477-1.151h-.017c.021.435.028.895.028,1.427v.982h-.57Z" />
        <path d="M94.009,7.891c0,1.074-.541,1.717-1.348,1.717-.812,0-1.292-.73-1.292-1.664,0-.977.529-1.708,1.336-1.708.844,0,1.304.75,1.304,1.654ZM92.026,7.929c0,.644.252,1.093.668,1.093.42,0,.66-.474.66-1.107,0-.59-.232-1.093-.66-1.093-.424,0-.668.474-.668,1.107Z" />
        <path d="M94.07,9.463c0-.266.15-.45.366-.45.212,0,.358.179.362.45,0,.256-.146.445-.37.445-.208,0-.358-.188-.358-.445Z" />
      </g>
      <g>
        <g>
          <path d="M96.122,8.595l-.245.958h-.8l1.045-3.733h1.02l1.069,3.733h-.841l-.265-.958h-.983ZM96.994,7.963l-.214-.792c-.062-.222-.122-.499-.173-.72h-.011c-.051.222-.102.504-.158.72l-.203.792h.759Z" />
          <path d="M101.41,9.381c-.24.089-.693.21-1.147.21-.627,0-1.08-.171-1.396-.499-.311-.327-.483-.814-.483-1.362.005-1.241.836-1.95,1.962-1.95.443,0,.785.094.953.177l-.163.681c-.188-.094-.418-.161-.795-.161-.647,0-1.142.394-1.142,1.208,0,.775.448,1.224,1.085,1.224.174,0,.316-.022.377-.05v-.787h-.529v-.659h1.279v1.966Z" />
          <path d="M102.017,5.869c.204-.039.612-.077,1.005-.077.474,0,.764.05,1.019.21.24.138.408.393.408.736,0,.327-.179.632-.566.792v.011c.393.111.684.438.684.914,0,.343-.143.609-.357.797-.249.216-.667.338-1.35.338-.383,0-.668-.027-.842-.055v-3.667ZM102.786,7.299h.255c.413,0,.627-.183.627-.459,0-.283-.198-.432-.55-.432-.174,0-.271.011-.332.022v.87ZM102.786,8.955c.077.011.169.011.301.011.352,0,.663-.15.663-.543,0-.371-.312-.521-.698-.521h-.266v1.052Z" />
        </g>
        <rect x="104.929" y="7.921" width="1.257" height=".463" />
        <g>
          <path d="M109.781,7.663c0,1.219-.668,1.95-1.662,1.95s-1.591-.83-1.591-1.89c0-1.11.652-1.939,1.646-1.939,1.039,0,1.606.851,1.606,1.878ZM107.336,7.707c0,.73.311,1.242.823,1.242.517,0,.812-.539.812-1.258,0-.67-.286-1.241-.812-1.241-.522,0-.823.538-.823,1.258Z" />
          <path d="M113.381,7.663c0,1.219-.668,1.95-1.661,1.95-.999,0-1.592-.83-1.592-1.89,0-1.11.652-1.939,1.646-1.939,1.039,0,1.606.851,1.606,1.878ZM110.937,7.707c0,.73.311,1.242.823,1.242.517,0,.812-.539.812-1.258,0-.67-.286-1.241-.812-1.241-.522,0-.823.538-.823,1.258Z" />
          <path d="M114.886,6.645h-.011l-.7.333-.142-.644.978-.452h.705v3.67h-.83v-2.908Z" />
        </g>
      </g>
    </g>
    <g>
      <g>
        <path d="M125.899,27.031v2.105h0c-.23.023-.465.035-.703.035-3.914,0-7.106-3.192-7.106-7.103s3.192-7.103,7.106-7.103c.238,0,.473.013.703.035h0v2.105h0c-.23-.033-.465-.051-.703-.051-2.762,0-5.016,2.254-5.016,5.013s2.254,5.013,5.016,5.013c.238,0,.473-.018.703-.051h0Z"  fill-rule="evenodd"/>
        <path d="M132.509,20.984h4.104v2.171h-4.104c.498,2.241,2.504,3.927,4.895,3.927.238,0,.475-.018.705-.051h0v2.105h0c-.232.023-.467.035-.705.035-3.914,0-7.103-3.192-7.103-7.103s3.189-7.103,7.103-7.103c.238,0,.473.013.705.035h0v2.105h0c-.232-.033-.467-.051-.705-.051-2.391,0-4.397,1.685-4.895,3.929h0Z"  fill-rule="evenodd"/>
      </g>
      <g>
        <path id="_77021000" d="M175.115,27.648c0,.227.132.336.393.336.18,0,.385-.086.385-.312,0-.169-.104-.226-.253-.264-.065-.016-.225-.04-.225-.134,0-.087.086-.118.165-.118.097,0,.173.037.169.143h.197c0-.218-.161-.304-.354-.304-.182,0-.374.083-.374.294,0,.163.119.217.238.254.118.036.239.054.239.147,0,.094-.096.134-.18.134-.119,0-.21-.041-.204-.175h-.197ZM175.95,27.962h.189l.145-.684h-.189l-.145.684ZM176.341,27.018h-.189l-.034.155h.189l.034-.155ZM177.015,27.515c-.004-.181-.14-.255-.307-.255-.246,0-.386.194-.386.427,0,.2.114.294.304.294.177,0,.296-.098.353-.268h-.188c-.021.067-.069.127-.152.127-.095,0-.13-.066-.13-.148,0-.118.049-.29.192-.29.082,0,.126.033.126.114h.188ZM177.029,27.962h.188l.077-.364c.02-.095.078-.19.192-.19.044,0,.09.029.09.07,0,.019-.007.063-.012.083l-.083.401h.188l.085-.401c.005-.024.02-.09.02-.118,0-.119-.07-.184-.2-.184-.123,0-.197.058-.226.098h-.003l.07-.34h-.188l-.197.944ZM178.552,27.666c.007-.033.011-.07.011-.107,0-.198-.128-.299-.319-.299-.233,0-.377.204-.377.422,0,.194.122.299.304.299.197,0,.295-.082.354-.235h-.188c-.028.044-.065.094-.14.094-.102,0-.151-.054-.151-.134,0-.011,0-.022.001-.04h.504ZM178.068,27.547c.028-.077.081-.145.186-.145.11,0,.127.075.127.145h-.313ZM178.597,27.962h.188l.064-.303c.025-.116.077-.225.221-.225.026,0,.053.007.079.012l.038-.182c-.02-.003-.038-.004-.058-.004-.101,0-.193.05-.235.144l-.003-.003.028-.123h-.179l-.143.684ZM179.112,27.962h.188l.077-.364c.02-.095.078-.19.192-.19.044,0,.09.029.09.07,0,.019-.007.063-.012.083l-.083.401h.188l.085-.401c.005-.024.02-.09.02-.118,0-.119-.07-.184-.2-.184-.123,0-.197.058-.226.098h-.003l.07-.34h-.188l-.197.944ZM180.635,27.666c.007-.033.011-.07.011-.107,0-.198-.128-.299-.319-.299-.233,0-.377.204-.377.422,0,.194.122.299.304.299.197,0,.295-.082.354-.235h-.188c-.028.044-.065.094-.14.094-.102,0-.151-.054-.151-.134,0-.011,0-.022.001-.04h.504ZM180.151,27.547c.028-.077.081-.145.186-.145.11,0,.127.075.127.145h-.313ZM180.68,27.962h.189l.145-.684h-.189l-.145.684ZM181.071,27.018h-.189l-.034.155h.189l.034-.155ZM181.449,27.07h-.188l-.042.208h-.12l-.029.126h.123l-.077.366c-.005.024-.009.048-.009.065-.003.111.091.139.179.139.04,0,.079-.003.118-.007l.032-.145c-.022.003-.045.004-.067.004-.028,0-.063-.001-.063-.05,0-.005.003-.017.005-.032l.07-.34h.134l.029-.126h-.135l.042-.208ZM175.511,26.077c.091,0,.135.062.135.148,0,.116-.065.261-.2.261-.087,0-.127-.07-.127-.151,0-.11.066-.258.192-.258ZM175.889,25.954h-.18l-.021.104h-.003c-.038-.09-.115-.123-.209-.123-.22,0-.345.213-.345.413,0,.168.101.279.263.279.077,0,.139-.032.188-.097l.003.003c-.037.134-.071.238-.19.238-.061,0-.126-.029-.123-.098h-.188c0,.164.153.224.292.224.226,0,.331-.087.377-.295l.136-.648ZM176.615,26.341c.007-.033.011-.07.011-.107,0-.198-.128-.299-.319-.299-.233,0-.377.204-.377.422,0,.194.122.299.304.299.197,0,.295-.082.354-.235h-.188c-.028.044-.065.094-.14.094-.102,0-.151-.054-.151-.134,0-.011,0-.022.001-.04h.504ZM176.131,26.222c.028-.077.081-.145.186-.145.11,0,.127.075.127.145h-.313ZM177.104,26.077c.089,0,.134.07.134.152,0,.12-.063.286-.205.286-.091,0-.135-.061-.135-.148,0-.118.066-.29.206-.29ZM176.599,26.878h.188l.071-.332h.004c.029.075.112.11.192.11.253,0,.372-.226.372-.451,0-.164-.095-.27-.259-.27-.083,0-.163.032-.205.106l-.003-.003.019-.085h-.181l-.197.924ZM177.47,26.638h.188l.063-.303c.025-.116.077-.225.221-.225.026,0,.053.007.079.012l.038-.182c-.02-.003-.038-.004-.058-.004-.101,0-.193.05-.235.144l-.003-.003.028-.123h-.179l-.143.684ZM178.532,25.848h.173l.032-.155h-.173l-.032.155ZM178.273,25.848h.173l.032-.155h-.173l-.032.155ZM178.775,25.954h-.188l-.077.364c-.02.095-.078.19-.192.19-.044,0-.09-.029-.09-.07,0-.019.007-.063.012-.083l.083-.401h-.188l-.085.401c-.005.024-.02.09-.02.118,0,.119.07.184.2.184.098,0,.179-.038.239-.114h.003l-.021.095h.18l.143-.684ZM178.831,26.638h.188l.118-.558h.135l.026-.126h-.134c.02-.079.019-.127.111-.127.02,0,.041.003.061.004l.029-.135c-.041-.007-.082-.011-.123-.011-.197,0-.229.094-.266.268h-.112l-.026.126h.111l-.118.558ZM179.684,25.746h-.188l-.042.208h-.12l-.029.126h.123l-.077.366c-.005.024-.009.048-.009.065-.003.111.091.139.179.139.04,0,.079-.003.118-.007l.032-.145c-.022.003-.045.004-.067.004-.028,0-.063-.001-.063-.05,0-.005.003-.017.005-.032l.07-.34h.134l.029-.126h-.135l.042-.208ZM180.462,26.341c.007-.033.011-.07.011-.107,0-.198-.128-.299-.319-.299-.233,0-.377.204-.377.422,0,.194.122.299.304.299.197,0,.295-.082.354-.235h-.188c-.028.044-.065.094-.14.094-.102,0-.151-.054-.151-.134,0-.011,0-.022.001-.04h.504ZM179.978,26.222c.028-.077.081-.145.186-.145.11,0,.127.075.127.145h-.313ZM171.342,28.537h0c-.34-.026-.67-.087-.986-.181-.316-.094-.618-.22-.902-.375-1.462-.797-2.454-2.347-2.454-4.13h0s0,0,0,0c0-.347.038-.685.109-1.01.071-.325.176-.638.311-.934.693-1.523,2.175-2.611,3.924-2.742h0s.161-.013.161-.013h3.112s.028,0,.028,0l.003.027h0c.009.079.021.156.036.233.015.077.032.153.053.228.104.387.28.749.506,1.06l.006.008v1.204h-3.452s0,0,0,0h0c-.548,0-1.043.223-1.402.584-.359.361-.581.859-.581,1.41h0s0,0,0,0c0,.551.222,1.049.581,1.41.359.361.855.584,1.402.584h0s0,0,0,0h.225v-.546h-.129c-.379,0-.723-.154-.971-.402-.249-.249-.402-.592-.402-.971h0s0,0,0,0c0-.38.17-.724.435-.972.264-.248.624-.402,1.003-.402h0s0,0,0,0h2.877v5.946h-.031s-3.325,0-3.325,0h-.003s-.129-.013-.129-.013h0ZM178.092,19.044h0s0,0,0,0h0s2.624.01,2.624.01h.003c1.159.106,2.138.829,2.595,1.841.089.197.158.405.205.621.047.216.072.441.072.672h0c0,1.188-.654,2.222-1.621,2.764-.188.105-.388.192-.597.257-.209.065-.428.11-.653.131h0s-.003,0-.003,0l-5.597.013h-.031s0-.031,0-.031v-2.717s.031,0,.031,0h5.308c.097,0,.186-.039.249-.102.064-.063.103-.15.103-.245h0s0,0,0,0c0-.094-.054-.183-.133-.249-.08-.067-.185-.109-.284-.109h0s0,0,0,0h-3.2s-.031-.003-.031-.003l-.007-.002c-.84-.279-1.527-.892-1.904-1.682-.073-.153-.135-.314-.184-.48-.086-.291-.132-.599-.132-.918h0s0,0,0,0c0-.896.363-1.707.949-2.294.582-.583,1.384-.945,2.271-.95h0s.02,0,.02,0h0s0,0,0,0h0s2.314,0,2.314,0h.031v2.78h-2.397c-.097,0-.186.039-.249.102-.064.063-.103.15-.103.245h0s0,0,0,0c0,.096.039.182.103.245.064.063.152.102.25.102h0Z"  fill-rule="evenodd"/>
        <g>
          <path d="M178.998,15.156c2.846,0,5.161,2.315,5.161,5.161v3.63c0,2.846-2.315,5.161-5.161,5.161h-7.374c-2.846,0-5.161-2.315-5.161-5.161v-8.791h12.535M178.998,14.956h-12.735v8.991c0,2.961,2.4,5.361,5.361,5.361h7.374c2.961,0,5.361-2.4,5.361-5.361v-3.63c0-2.961-2.4-5.361-5.361-5.361h0Z" />
          <path d="M178.998,15.156c2.846,0,5.161,2.315,5.161,5.161v3.63c0,2.846-2.315,5.161-5.161,5.161h-33.931c-2.846,0-5.161-2.315-5.161-5.161v-3.63c0-2.846,2.315-5.161,5.161-5.161h33.931M178.998,14.956h-33.931c-2.961,0-5.361,2.4-5.361,5.361v3.63c0,2.961,2.4,5.361,5.361,5.361h33.931c2.961,0,5.361-2.4,5.361-5.361v-3.63c0-2.961-2.4-5.361-5.361-5.361h0Z" />
        </g>
        <g>
          <path id="path13052" d="M141.991,24.34h.792v-.096h-.676v-1.047h-.116v1.143" />
          <path id="path13056" d="M143.024,23.767c.005-.143.103-.19.234-.19.125,0,.228.024.228.167,0,.096-.05.108-.137.108-.229.035-.468.035-.468.273,0,.167.132.239.293.239.167,0,.242-.06.318-.167h.002c0,.083.018.143.127.143.028,0,.045,0,.067-.012v-.084c-.008.012-.021.012-.033.012-.041,0-.063-.024-.063-.059v-.441c0-.226-.168-.274-.319-.274-.201,0-.345.096-.355.286h.105ZM143.486,24.018c.001.167-.141.261-.304.261-.1,0-.195-.059-.195-.167,0-.167.225-.155.406-.19.028,0,.077-.012.091-.035h.002v.131"  fill-rule="evenodd"/>
          <path id="path13060" d="M143.854,24.34h.108v-.488c.004-.155.104-.274.273-.274.173,0,.222.108.222.251v.512h.105v-.536c0-.192-.073-.322-.319-.322-.123,0-.239.071-.278.167h-.004v-.143h-.108v.833" />
          <path id="path13064" d="M145.582,23.196h-.106v.476h-.005c-.045-.119-.171-.19-.303-.19-.264,0-.391.214-.391.441,0,.238.128.44.391.44.128,0,.266-.071.312-.179h.002v.155h.099v-1.143ZM144.885,23.923c0-.168.082-.345.284-.345.228,0,.307.177.307.345,0,.179-.079.357-.307.357-.202,0-.284-.179-.284-.357M145.899,23.863c.017-.143.112-.285.286-.285.173,0,.272.142.278.285h-.564ZM146.57,23.947c.008-.227-.104-.465-.384-.465-.277,0-.394.226-.394.441,0,.238.117.44.394.44.22,0,.336-.108.381-.298h-.108c-.033.131-.117.215-.273.215-.205,0-.285-.179-.286-.333h.67"  fill-rule="evenodd"/>
          <path id="path13068" d="M147.392,23.756c-.007-.179-.147-.274-.32-.274-.154,0-.327.072-.327.239,0,.143.105.19.245.226l.136.024c.097.025.192.06.192.155,0,.108-.138.155-.239.155-.143,0-.247-.071-.257-.202h-.106c.017.202.155.286.357.286.163,0,.351-.072.351-.251,0-.143-.128-.214-.249-.226l-.141-.035c-.073-.012-.181-.048-.181-.131,0-.108.11-.143.206-.143.122,0,.222.047.228.179h.106" />
          <path id="path13072" d="M148.365,23.506h-.108v.143h-.005c-.04-.084-.149-.167-.275-.167-.252,0-.395.19-.395.429,0,.226.116.416.395.416.124,0,.228-.071.275-.167h.005v.108c0,.202-.084.322-.28.322-.118,0-.232-.048-.255-.167h-.106c.015.179.188.249.362.249.284,0,.384-.155.388-.404v-.763ZM147.978,24.244c-.196,0-.287-.167-.287-.332,0-.168.084-.333.287-.333.201,0,.28.177.28.333,0,.177-.097.332-.28.332M148.681,23.863c.017-.143.112-.285.286-.285.173,0,.272.142.278.285h-.564ZM149.35,23.947c.009-.227-.103-.465-.383-.465-.277,0-.394.226-.394.441,0,.238.117.44.394.44.221,0,.336-.106.381-.298h-.108c-.032.131-.117.215-.273.215-.205,0-.285-.179-.286-.333h.669"  fill-rule="evenodd"/>
          <path id="path13076" d="M149.755,24.34h.116l.214-.702h.002l.214.702h.117l.281-.833h-.112l-.223.714h-.004l-.214-.714h-.119l-.213.714h-.004l-.223-.714h-.113l.281.833" />
          <path id="path13080" d="M150.927,23.863c.018-.143.113-.286.287-.286.173,0,.272.143.277.286h-.564ZM151.598,23.946c.008-.226-.103-.463-.383-.463-.277,0-.395.226-.395.44,0,.239.118.441.395.441.219,0,.335-.108.381-.298h-.108c-.033.131-.118.215-.273.215-.205,0-.286-.18-.287-.335h.67"  fill-rule="evenodd"/>
          <path id="path13084" d="M151.793,24.34h.106v-.441c0-.167.131-.31.325-.298v-.106c-.158,0-.275.083-.33.214h-.004v-.202h-.098v.833" />
          <path id="path13088" d="M152.41,24.34h.098v-.155h.004c.047.108.17.179.31.179.266,0,.393-.202.393-.441,0-.226-.127-.44-.393-.44-.129,0-.257.071-.301.19h-.004v-.476h-.106v1.143ZM153.106,23.922c0,.18-.082.358-.285.358-.226,0-.305-.179-.305-.358,0-.167.079-.345.305-.345.203,0,.285.179.285.345M153.493,23.863c.017-.143.113-.286.287-.286.173,0,.272.143.277.286h-.564ZM154.164,23.947c.008-.227-.103-.465-.384-.465-.277,0-.394.226-.394.44,0,.239.117.441.394.441.22,0,.335-.108.38-.298h-.105c-.034.131-.119.215-.274.215-.203,0-.285-.179-.287-.333h.672M154.488,23.767c.004-.142.1-.19.233-.19.124,0,.228.024.228.167,0,.096-.05.108-.137.108-.229.035-.467.035-.467.274,0,.167.13.238.291.238.168,0,.244-.059.317-.167h.005c0,.084.017.143.124.143.03,0,.046,0,.071-.012v-.084c-.008.012-.022.012-.035.012-.041,0-.06-.024-.06-.059v-.441c0-.226-.169-.273-.323-.273-.2,0-.343.095-.352.285h.106ZM154.949,24.018c.001.167-.143.262-.303.262-.1,0-.196-.06-.196-.167,0-.167.226-.155.407-.192.028,0,.074-.012.087-.035h.005v.131"  fill-rule="evenodd"/>
          <path id="path13092" d="M155.335,24.34h.108v-.488c.002-.155.103-.274.273-.274.171,0,.221.108.221.251v.512h.105v-.536c0-.192-.073-.322-.319-.322-.122,0-.239.071-.278.167h-.002v-.143h-.108v.833M156.941,23.756c-.007-.179-.147-.273-.32-.273-.154,0-.327.071-.327.238,0,.143.104.19.242.227l.137.024c.097.024.19.059.19.155,0,.106-.138.155-.238.155-.142,0-.248-.072-.258-.203h-.105c.017.203.155.286.358.286.162,0,.35-.071.35-.249,0-.143-.128-.215-.249-.227l-.141-.035c-.073-.012-.181-.047-.181-.131,0-.108.111-.143.206-.143.121,0,.222.048.228.179h.108M157.345,23.268h-.106v.238h-.151v.095h.151v.56c-.001.143.047.19.189.19h.093v-.096c-.03.013-.059.013-.09.013-.077-.013-.086-.048-.086-.108v-.56h.176v-.095h-.176v-.238" />
          <path id="path13096" d="M157.84,23.767c.002-.143.102-.19.232-.19.125,0,.229.024.229.167,0,.096-.048.108-.136.108-.231.035-.469.035-.469.273,0,.167.132.239.292.239.167,0,.244-.06.318-.167h.004c0,.083.017.143.125.143.028,0,.045,0,.07-.012v-.084c-.008.012-.022.012-.034.012-.043,0-.064-.024-.064-.059v-.441c0-.226-.167-.274-.32-.274-.2,0-.344.096-.353.286h.108ZM158.301,24.018c.002.167-.142.261-.305.261-.099,0-.194-.059-.194-.167,0-.167.226-.155.406-.19.028,0,.077-.012.09-.035h.004v.131"  fill-rule="evenodd"/>
          <path id="path13098" d="M158.689,24.34h.106v-1.143h-.106v1.143ZM159.236,23.267h-.106v.239h-.153v.095h.153v.56c0,.143.047.19.19.19h.093v-.096c-.031.012-.061.012-.091.012-.076-.012-.086-.047-.086-.106v-.56h.177v-.095h-.177v-.239" />
          <path id="path13102" d="M160.359,23.291h.395c.179,0,.271.072.271.214,0,.108-.087.192-.271.192h-.395v-.406ZM160.243,24.338h.511c.393,0,.433-.214.433-.32,0-.155-.1-.262-.257-.286.127-.024.21-.143.21-.262,0-.202-.183-.274-.387-.274h-.511v1.143ZM160.359,23.791h.395c.202,0,.318.072.318.214,0,.192-.149.239-.318.239h-.395v-.453M161.532,23.767c.002-.143.102-.19.232-.19.125,0,.229.024.229.167,0,.096-.048.108-.137.108-.229.035-.468.035-.468.273,0,.167.132.238.292.238.169,0,.244-.059.318-.166h.004c0,.083.017.142.125.142.028,0,.045,0,.07-.012v-.083c-.008.012-.022.012-.034.012-.043,0-.064-.024-.064-.059v-.441c0-.226-.167-.274-.319-.274-.201,0-.345.096-.355.286h.108ZM161.993,24.018c.001.166-.142.261-.305.261-.099,0-.193-.059-.193-.167,0-.167.223-.155.404-.19.028,0,.076-.012.09-.035h.004v.131"  fill-rule="evenodd"/>
          <path id="path13106" d="M162.596,24.34l-.037.096c-.037.071-.058.13-.151.13-.024,0-.05-.012-.073-.012v.084c.017.012.039.012.082.012.134,0,.169-.035.229-.179l.38-.965h-.108l-.268.714-.286-.714h-.115l.348.833" />
          <path id="path13110" d="M163.207,23.863c.018-.143.115-.286.288-.286.173,0,.271.143.275.286h-.564ZM163.879,23.946c.007-.226-.104-.463-.383-.463s-.395.226-.395.44c0,.239.117.441.395.441.219,0,.333-.108.38-.298h-.106c-.034.131-.117.215-.273.215-.206,0-.287-.18-.288-.335h.672"  fill-rule="evenodd"/>
          <path id="path13114" d="M164.09,24.34h.106v-.441c0-.167.132-.31.325-.298v-.106c-.157,0-.275.083-.33.214h-.004v-.202h-.098v.833M164.721,24.34h.105v-.488c.002-.155.105-.274.273-.274.173,0,.221.108.221.251v.512h.108v-.536c0-.192-.073-.322-.319-.322-.123,0-.24.071-.28.167h-.002v-.143h-.105v.833" />
          <polygon points="143.671 27.215 142.585 25.528 142.574 25.51 142.202 25.51 142.202 27.878 142.566 27.878 142.566 26.171 143.653 27.86 143.665 27.878 144.035 27.878 144.035 25.51 143.671 25.51 143.671 27.215" />
          <path d="M146.91,27.107c0,.12-.014.215-.043.281-.028.063-.073.113-.136.152-.064.038-.139.057-.223.057-.101,0-.176-.027-.23-.083-.052-.055-.079-.138-.079-.248v-1.123h-.358v1.161c0,.193.053.345.157.452.105.107.26.161.463.161.111,0,.214-.025.305-.074.061-.032.114-.073.162-.124v.159h.339v-1.735h-.358v.964Z" />
          <rect x="146.666" y="25.573" width=".358" height=".396" />
          <rect x="146.08" y="25.573" width=".359" height=".396" />
          <path d="M149.917,26.125c-.046-.013-.097-.019-.15-.019-.098,0-.182.024-.252.072-.043.03-.086.072-.127.127v-.162h-.339v1.735h.358v-.922c0-.155.029-.278.088-.364.056-.082.135-.121.243-.121.07,0,.133.015.186.044l.039.021.124-.331-.028-.016c-.047-.029-.095-.05-.141-.063Z" />
          <path d="M152.433,26.106c-.113,0-.218.026-.311.077-.059.032-.113.073-.158.121v-.161h-.339v1.735h.358v-.962c0-.174.036-.301.106-.377.071-.077.169-.115.298-.115.1,0,.175.027.228.083.053.055.08.138.08.248v1.123h.359v-1.161c0-.194-.053-.345-.159-.452-.105-.106-.26-.16-.461-.16Z" />
          <path d="M156.045,26.216c-.113-.073-.248-.111-.401-.111-.182,0-.337.058-.462.174v-.77h-.358v2.368h.339v-.144c.045.048.098.086.158.116.091.045.191.068.301.068.148,0,.283-.037.402-.111.119-.074.213-.183.279-.322.066-.138.1-.306.1-.498,0-.172-.031-.326-.091-.457-.062-.134-.151-.239-.266-.312ZM155.616,26.412c.089,0,.162.022.225.069.063.047.111.113.145.202.035.091.053.201.053.325s-.019.235-.055.326c-.037.091-.086.158-.15.205-.064.047-.138.069-.226.069-.147,0-.254-.049-.33-.152-.077-.104-.116-.259-.116-.46,0-.117.02-.222.058-.31.038-.088.092-.156.161-.204.069-.047.148-.071.236-.071Z" />
          <path d="M159.206,26.214c-.118-.072-.26-.108-.42-.108-.165,0-.311.038-.433.113-.123.075-.218.183-.284.323-.064.136-.097.299-.097.482,0,.178.034.336.099.47.066.135.162.241.286.314.124.073.269.11.433.11.187,0,.351-.049.486-.148.135-.098.229-.237.278-.412l.012-.042-.352-.054-.009.032c-.028.095-.077.172-.148.229s-.153.085-.252.085c-.089,0-.169-.021-.236-.061-.067-.04-.12-.1-.159-.179-.035-.07-.057-.154-.067-.25h1.238v-.096c0-.19-.032-.356-.096-.493-.064-.139-.158-.246-.277-.317ZM158.783,26.412c.122,0,.217.036.289.112.066.068.109.165.128.288h-.846c.014-.071.037-.135.071-.191.041-.067.092-.119.152-.155.06-.036.129-.054.205-.054Z" />
          <path d="M162.119,26.125c-.046-.013-.097-.019-.15-.019-.098,0-.182.024-.252.072-.043.03-.086.072-.127.127v-.162h-.339v1.735h.358v-.922c0-.155.029-.278.088-.364.056-.082.135-.121.243-.121.07,0,.133.015.186.044l.039.021.124-.331-.028-.016c-.047-.029-.095-.05-.141-.063Z" />
          <path d="M164.909,26.143v.143c-.049-.049-.104-.088-.163-.117-.085-.042-.189-.064-.31-.064-.157,0-.293.038-.404.114-.113.075-.199.182-.257.317-.056.132-.085.288-.085.461,0,.169.031.322.093.453.062.134.153.239.268.313.114.076.249.114.401.114.172,0,.318-.054.436-.16-.005.208-.041.348-.105.416-.068.073-.178.11-.327.11-.106,0-.189-.02-.245-.058-.055-.037-.087-.093-.099-.173l-.004-.028-.346-.054.003.048c.012.183.079.325.199.424.12.098.287.147.497.147.267,0,.468-.073.595-.217.126-.141.19-.355.19-.635v-1.555h-.339ZM164.481,27.572c-.087,0-.164-.023-.227-.067-.063-.046-.112-.113-.147-.2-.035-.09-.053-.198-.053-.323,0-.121.018-.227.053-.313.035-.086.081-.149.141-.192.061-.043.129-.064.209-.064.094,0,.173.022.241.067.066.044.119.111.155.197.037.087.056.192.056.312,0,.124-.017.231-.051.317-.035.087-.083.153-.147.198-.063.045-.141.068-.23.068Z" />
          <path id="path13018" d="M141.995,22.541h4.117v-1.155h-2.633v-5.12h-1.484s0,6.275,0,6.275" />
          <path id="path13028" d="M150.956,22.541h.897v-3.393h-2.788v1.036h1.494c-.086.869-.753,1.416-1.717,1.416-1.334,0-1.786-1.107-1.786-2.155,0-1.107.434-2.132,1.896-2.167.698-.024,1.257.357,1.426,1.049h1.419c-.162-1.418-1.465-2.216-2.844-2.216-2.09,0-3.319,1.453-3.319,3.322,0,1.81,1.12,3.298,3.209,3.298.651,0,1.442-.274,1.963-.904l.15.714" />
          <path id="path13038" d="M155.232,17.814h.019l.85,2.298h-1.747l.878-2.298ZM151.932,22.541h1.503l.53-1.394h2.524l.511,1.394h1.54l-2.524-6.275h-1.522l-2.562,6.275"  fill-rule="evenodd"/>
          <rect x="158.756" y="16.278" width=".894" height="6.299" />
          <path d="M164.294,16.278h-4.449v6.299h4.449v-6.299ZM162.057,22.493c-1.143,0-2.069-.904-2.069-2.036,0-1.12.926-2.036,2.069-2.036s2.067.916,2.067,2.036c0,1.131-.926,2.036-2.067,2.036Z" />
          <rect x="164.488" y="16.278" width=".847" height="6.299" />
        </g>
      </g>
    </g>
  </g>
  <g>
    <rect x="117.576" y="2.653" width="70.752" height="10.861" fill="#ffffff" data-foreground="foreground"/>
    <g fill="#231f20" data-background="background">
      <text transform="translate(119.1 12.172) scale(.81 1)" class="serial" style="letter-spacing: -1.2pt;" data-serial-part="prefix">AB</text>
      <text transform="translate(128.559 12.172)" class="serial" style="letter-spacing: -0.87pt;" data-serial-part="numbers">123456789</text>
    </g>
  </g>
</svg>