<?xml version="1.0" encoding="UTF-8"?>
<svg id="Layer_1" xmlns="http://www.w3.org/2000/svg" width="67.588mm" height="13.688mm" version="1.1" viewBox="0 0 191.588 38.801">
  <g fill="#595a5c" data-background="background">
    <path d="M187.492.125H4.093C1.901.125.125,1.901.125,4.093v8.81c0,1.113.168,2.219.498,3.281l6.653,21.404c.201.647.8,1.088,1.477,1.088h59.277c2.192,0,3.969-1.777,3.969-3.969v-.419c0-2.192,1.777-3.969,3.969-3.969h39.078c2.192,0,3.969,1.777,3.969,3.969v.419c0,2.192,1.777,3.969,3.969,3.969h59.85c.677,0,1.276-.441,1.477-1.088l6.653-21.404c.33-1.062.498-2.169.498-3.281V4.093c0-2.192-1.777-3.969-3.969-3.969h-.002,0Z"/>
  </g>
  <g fill="none" stroke="none" stroke-width="0.25pt" stroke-dasharray="0.9pt" data-stroke="stroke">
    <path d="M187.492.125H4.093C1.901.125.125,1.901.125,4.093v8.81c0,1.113.168,2.219.498,3.281l6.653,21.404c.201.647.8,1.088,1.477,1.088h59.277c2.192,0,3.969-1.777,3.969-3.969v-.419c0-2.192,1.777-3.969,3.969-3.969h39.078c2.192,0,3.969,1.777,3.969,3.969v.419c0,2.192,1.777,3.969,3.969,3.969h59.85c.677,0,1.276-.441,1.477-1.088l6.653-21.404c.33-1.062.498-2.169.498-3.281V4.093c0-2.192-1.777-3.969-3.969-3.969h-.002,0Z"/>
  </g>
  <g fill="#ffffff" data-foreground="foreground">
    <g>
      <path d="M23.672,7.502c-.2.613-.516,1.323-.825,1.773-.171-.085-.334-.14-.541-.171.479-.668.826-1.481.96-2.301.212.078.443.133.583.151.157.019.17.091.018.176-.061.037-.121.152-.194.371h0ZM25.264,5.905v4.032c0,.511-.079.59-1.069.717-.03-.2-.091-.389-.243-.619.699.03.766-.036.766-.255v-3.462c0-.462-.019-.808-.049-.978.188.024.479.018.687.006.115-.006.127.091.036.152-.109.061-.127.188-.127.406h0ZM27.11,9.208c-.261-.723-.692-1.572-1.093-2.18l.485-.207c.383.589.845,1.403,1.185,2.132l-.577.255Z"/>
      <path d="M29.528,9.719c0,.364.006.644.03,1.014h-.559c.037-.37.049-.649.049-1.014v-1.337c-.2.249-.413.498-.626.723-.055-.206-.157-.395-.285-.54.316-.188.966-.851,1.385-1.628-.771,0-1.075.019-1.287.049v-.534c.225.03.553.049.904.049.553,0,.838-.019,1.081-.043-.042.146-.115.328-.285.638-.104.188-.243.413-.407.644v1.98h0ZM29.274,6.293c-.091-.298-.188-.57-.34-.838l.534-.219c.115.292.243.577.401.845l-.596.212s0,0,.001,0ZM30.009,8.778c-.128-.219-.298-.45-.443-.626l.304-.267c.163.206.346.376.51.51l-.37.383h0ZM30.968,9.688h-.504c.024-.188.036-.419.036-.637v-2.302c0-.152-.012-.383-.042-.565.23.03.583.049,1.245.055-.007-.54-.03-.856-.073-1.093.2.042.425.066.583.055.109-.006.134.03.03.134-.036.036-.055.133-.055.425v.479c.717-.006,1.015-.018,1.245-.055-.024.164-.043.413-.043.565v2.198c0,.212.019.431.043.625h-.517v-.4h-.729v.57c0,.273.019.747.055,1.094h-.589c.03-.347.049-.82.049-1.094v-.57h-.735v.516h.001ZM30.968,6.64v.874h.735v-.874s-.735,0-.735,0ZM30.968,8.789h.735v-.893h-.735v.893ZM32.917,6.64h-.729v.874h.729s0-.874,0-.874ZM32.917,7.897h-.729v.893h.729v-.893Z"/>
      <path d="M34.997,7.933c-.236-.23-.468-.4-.747-.553l.286-.419c.272.164.546.347.795.541,0,0-.334.431-.334.431ZM35.04,9.493c-.109.456-.158.754-.225,1.209-.207-.158-.371-.261-.553-.353.127-.261.206-.491.328-.989.078-.316.121-.505.176-.851.109.098.273.17.455.206-.042.201-.097.432-.182.777h0ZM35.076,6.482c-.17-.206-.419-.407-.668-.583l.298-.377c.267.183.479.353.71.577l-.34.383ZM35.356,6.731v-.492c.243.03.534.043.966.043s.717-.013.953-.043v.492c-.255-.03-.528-.043-1.051-.043.007.171.007.413-.006.692.553,0,.856-.018.96-.042l-.049,2.478c-.012.577-.079.662-.68.796-.019-.152-.128-.395-.249-.541.449.037.485-.012.491-.358l.049-1.913h-.534c-.03,1.397-.183,2.102-.687,2.946-.109-.194-.249-.341-.4-.443.327-.407.516-1.003.57-1.598.049-.479.104-1.354.104-2.01-.17.006-.31.018-.438.036h.001ZM36.212,6.129c-.024-.219-.14-.564-.225-.71l.492-.14c.103.236.194.491.261.698l-.528.151h0ZM39.473,5.929v.522c-.218-.019-.559-.036-.91-.036h-.547c-.146.346-.298.644-.553,1.104-.073-.14-.194-.321-.31-.4.364-.559.595-1.032.717-1.932.225.092.413.146.528.164.091.013.103.043.006.104-.049.03-.151.249-.23.54.808-.006,1.087-.03,1.299-.066ZM39.57,8.37v.517c-.23-.024-.498-.037-.875-.043v1.196c0,.547-.048.589-.795.741-.024-.219-.079-.358-.249-.596.564.067.589.043.589-.218v-1.124c-.407.006-.687.012-.911.036v-.51c.225.03.504.049.911.055v-.479l.51-.547c-.606,0-.771.006-.978.049v-.456c.207.024.449.024.76.024.357,0,.576-.012.795-.024v.45c-.072.018-.104.042-.212.17l-.42.455v.358c.377-.006.65-.024.875-.055h0Z"/>
      <path d="M41.255,7.356c-.062-.146-.152-.23-.426-.352.79-.407,1.391-1.166,1.567-1.755.219.091.431.17.625.2.104.018.122.072,0,.121-.091.036-.219.152-.382.347h1.025c.711,0,1.215-.013,1.549-.049-.662.966-1.062,1.293-2.18,1.883.157.066.352.115.479.127.085.007.098.049.006.104-.085.049-.164.104-.261.183h.941c.607,0,1.014-.013,1.3-.049-.528,1.166-1.033,1.743-1.92,2.095-.855.341-1.682.492-2.708.504-.055-.225-.128-.376-.298-.564.443.134,1.913-.03,2.751-.334-.249-.243-.613-.534-.983-.789-.279.225-.596.431-.936.606-.079-.133-.219-.261-.474-.382.747-.262,1.646-.924,2.053-1.476-.462.261-1.245.559-1.974.723-.055-.194-.121-.311-.322-.48.559-.091,1.209-.273,1.816-.521-.2-.183-.443-.389-.717-.577-.152.14-.334.291-.534.437,0,0,.003-.002.003-.002ZM42.08,6.627c.311.207.59.419.887.662.498-.255,1.1-.723,1.27-.99h-1.889c-.073.104-.164.213-.268.328ZM42.676,8.735c.395.279.783.596,1.099.862.443-.273.796-.698.911-1.026h-1.834c-.055.055-.115.109-.176.164Z"/>
      <path d="M47.007,5.322c.182.073.413.122.602.134.121.006.133.03.018.14-.03.03-.091.23-.261,1.038.461-.006.704-.023.838-.048-.098,1.123-.206,1.882-.443,2.489.194.134.389.273.626.443-.164.122-.286.249-.389.396-.134-.128-.28-.262-.443-.401-.226.401-.535.753-.972,1.142-.104-.14-.207-.23-.438-.34.443-.285.783-.638,1.038-1.093-.219-.158-.468-.311-.753-.456.183-.638.316-1.238.401-1.725-.286.006-.48.019-.638.049v-.498c.14.024.315.036.704.042.079-.552.109-.972.109-1.312h0ZM46.971,8.576c.146.079.272.158.4.237.188-.479.298-1.057.334-1.773h-.425c-.079.395-.183.898-.31,1.536h0ZM48.75,5.334c.176.03.389.036.553.018.097-.012.097.055.018.104-.042.024-.085.098-.085.249v.194h1.288c-.007-.243-.019-.479-.037-.589.158.03.347.036.528.018.092-.006.104.049.024.104-.066.043-.091.128-.091.249v.219c.213-.012.407-.03.602-.055v.492c-.194-.024-.389-.043-.602-.049v1.73c-.255-.024-.553-.03-.941-.03v.528c.704,0,1.208-.018,1.585-.055v.468c-.279-.019-.796-.03-1.257-.036.395.54.887.887,1.385,1.026-.213.182-.328.358-.364.54-.638-.376-.984-.753-1.349-1.566v1.123c0,.183.019.559.049.753h-.528c.036-.2.048-.443.048-.644v-1.014c-.334.583-.729,1.057-1.238,1.5-.091-.152-.237-.262-.449-.353.589-.273,1.014-.753,1.378-1.366-.31.006-.674.012-.972.036v-.468c.328.03.729.049,1.281.055v-.528c-.327.006-.564.013-.771.03v-1.73c-.188.006-.364.024-.535.049v-.492c.171.024.347.036.528.049-.006-.213-.023-.419-.048-.559ZM49.236,6.749h1.288v-.468h-1.288v.468ZM49.236,7.618h1.288v-.504h-1.288v.504Z"/>
      <path d="M52.415,8.31c-.104-.146-.237-.285-.377-.395.334-.371.638-.924.813-1.488.134-.425.243-.862.298-1.166.207.079.479.151.638.183.098.018.104.055.006.133-.042.037-.17.249-.449.869v4.336h-.54c.042-.419.072-.851.072-1.288v-2.028c-.151.298-.297.565-.461.845h0ZM55.153,6.834c-.109,1.184-.504,2.059-1.323,3.006-.115-.17-.237-.304-.377-.419.65-.589,1.117-1.464,1.33-2.581-.425.006-.771.024-1.068.049v-.528c.412.03.917.048,1.615.055,0-.692-.013-.96-.055-1.228.17.03.389.043.546.037.122-.007.14.036.037.121-.055.043-.073.134-.073.213v.856c.747,0,1.287-.019,1.713-.055v.528c-.358-.03-.796-.049-1.366-.055.115.504.321,1.044.559,1.391.279.406.649.74,1.062.953-.158.164-.292.353-.413.577-.468-.407-.881-.899-1.068-1.3-.201-.431-.347-.996-.432-1.621h-.055v2.38c.322-.006.589-.018.771-.048v.491c-.183-.024-.449-.042-.771-.048.006.364.03.734.066,1.117h-.589c.037-.383.061-.753.067-1.117-.377.006-.681.023-.887.048v-.491c.212.03.51.042.887.048v-2.38h-.177,0Z"/>
      <path d="M63.445,9.804v.546c-.607-.042-1.391-.061-2.521-.061s-1.913.019-2.521.061v-.546c.771.048,1.562.055,3.304.055l.116-.979-1.288.043c-.516.019-.868.036-1.129.061.055-.2.085-.328.176-.826l.346-1.919c-.528.013-.898.024-1.306.055v-.547c.632.049,1.16.062,2.326.062s1.688-.019,2.313-.062v.547c-.723-.049-1.469-.061-2.817-.061l-.146.826h1.196c.54,0,.813-.013,1.075-.037-.055.201-.073.328-.128.826l-.225,2.004c.485-.006.881-.023,1.227-.048,0,0,.002,0,.002,0ZM60.027,8.546l1.84-.066.115-1.015h-1.755l-.2,1.081Z"/>
      <path d="M64.2,7.697v-.498c.316.042.638.055,1.27.055.455,0,.819-.013,1.196-.049v.492c-.279-.024-.607-.043-.996-.049-.273.723-.583,1.47-.74,1.7l1.251-.291c-.098-.237-.201-.462-.292-.602l.432-.2c.115.321.4.917.57,1.251l-.485.23c-.019-.091-.055-.206-.098-.328-1.16.286-1.597.474-1.821.65-.049-.188-.158-.432-.262-.596.225-.097.328-.225.504-.631.17-.401.334-.851.413-1.185-.438.012-.734.024-.941.049v.002h0ZM65.585,6.354c-.638,0-.862.019-1.062.049v-.534c.206.036.438.055,1.068.055.468,0,.698-.019.93-.049v.528c-.231-.03-.492-.049-.936-.049ZM67.613,5.237c.207.055.401.085.638.085.122,0,.134.024.049.122-.073.085-.134.249-.176,1.026.474-.013,1.196-.062,1.372-.098-.043.164-.085.425-.098.741l-.103,2.313c-.043.941-.2,1.093-1.057,1.232-.043-.249-.152-.461-.334-.661.686.055.862-.007.887-.401l.157-2.727h-.85c-.024.51-.061.929-.128,1.415-.146,1.051-.407,1.628-1.47,2.436-.121-.158-.298-.279-.589-.364.953-.505,1.349-.875,1.524-1.78.079-.389.151-1.05.188-1.7-.364.013-.796.049-1.039.079v-.522c.255.03.602.043,1.063.043.018-.504.012-.966-.037-1.239h.003,0Z"/>
      <path d="M71.971,9.361c-.079.018-.771.638-1.245,1.093-.103-.151-.242-.255-.455-.346.583-.304,1.19-.966,1.293-1.252.146.171.341.304.475.377.108.055.108.085-.067.128h0ZM70.733,6.276c-.037-.213-.098-.377-.177-.505.419.03,1.239,0,2.107-.103.813-.098,1.604-.225,2.168-.347.091.207.183.353.249.432.098.109.073.127-.042.115-.092-.013-.273,0-2.399.219.091.091.158.127.268.164.17.055.17.085-.006.133-.073.019-.225.122-.401.262-.151.115-.449.298-.844.468l1.676-.122c.456-.327.613-.479.741-.655.182.146.34.261.438.315.163.091.157.158-.037.164-.03,0-.157.066-.887.522-.328.2-1.166.662-1.749.917l2.49-.104c-.176-.182-.377-.346-.571-.479l.401-.285c.376.346.893.819,1.227,1.129l-.492.383c-.072-.134-.157-.268-.255-.395l-1.391.079v1.561c0,.438-.134.54-1.021.577-.042-.256-.134-.498-.255-.662.668.14.759.121.759-.164v-1.287c-1.317.042-1.633.091-1.87.176-.03-.17-.115-.419-.206-.564.419.042,1.457-.401,2.168-.875l-1.032.109c-.316.03-.56.085-.656.151-.006-.182-.055-.382-.146-.528.437-.103.941-.395,1.433-.972-1.008.092-1.548.146-1.688.171ZM74.977,10.387c-.206-.328-.88-.972-1.221-1.143l.371-.357c.431.395.972.795,1.366,1.05l-.517.45h0Z"/>
      <path d="M78.252,9.889c-1.142.194-1.651.315-1.949.419-.03-.194-.079-.371-.158-.596.353.013.905-.036,2.126-.249-.049.128-.036.286-.019.426ZM77.785,6.378c.212.164.334.231.479.268.121.03.134.104,0,.14-.098.024-.188.164-1.257,1.768l1.172-.134c-.037.14-.079.34-.079.485-.983.006-1.458.067-1.652.134-.03-.14-.091-.315-.176-.449.207-.061.479-.377.996-1.185-.564.037-.777.061-.947.104-.03-.152-.085-.315-.14-.432.212-.164.589-.832.862-1.767.291.121.443.17.559.188.134.018.151.085.019.127-.049.019-.115.121-.905,1.451l.766-.036c.127-.23.23-.462.304-.662h0ZM80.165,7.144l.377-.194c.31.346.638.747.881,1.068l-.438.298c-.055-.104-.122-.206-.188-.315l-.431.03v1.87c0,.255.023.279.37.279.194,0,.268-.085.395-.589.134.151.273.237.462.285-.231.65-.347.76-.875.76-.783,0-.826-.122-.826-.498v-2.071l-.437.036c-.067,1.519-.279,2.065-1.105,2.69-.121-.151-.298-.285-.504-.376.911-.377,1.123-.972,1.129-2.271-.261.024-.406.049-.485.073-.036-.128-.098-.322-.158-.462.115-.013.219-.091.358-.249.486-.553.613-.747.674-.96.249.116.383.152.48.171.146.03.157.072,0,.176-.073.049-.341.291-.808.826l1.524-.067c-.128-.176-.262-.346-.396-.51h0ZM79.455,5.346l.564-.115c.043.291.104.589.176.874.571-.006,1.015-.023,1.337-.061v.528c-.377-.042-.911-.061-1.616-.061s-1.238.019-1.615.061v-.528c.34.037.802.055,1.403.061-.073-.279-.17-.589-.249-.759Z"/>
    </g>
    <g>
      <path d="M9.204,15.167c-.031.176-.043.413-.043.687v1.688c0,.285.019.631.061.941h-.57v-.365h-1.337v.747c0,.243.104.292.832.316.219.006.784-.013.948-.03.37-.043.455-.109.504-.735.115.262.304.37.51.37-.206.699-.298.754-.972.802-.273.019-.819.024-1.057.019-1.136-.03-1.263-.121-1.263-.51v-.979h-1.27v.62h-.559c.055-.371.066-.583.066-1.002v-1.883c0-.273-.019-.528-.042-.687.406.043.965.066,1.804.073,0-.449-.024-.753-.067-.947.176.023.504.042.65.036.127-.006.146.091.03.134-.062.024-.116.134-.116.206v.571c.887-.007,1.494-.03,1.89-.073h.001ZM5.548,15.677v.802h1.27v-.802h-1.27ZM5.548,17.706h1.27v-.82h-1.27v.82ZM8.652,15.677h-1.337v.802h1.337v-.802ZM8.652,16.886h-1.337v.82h1.337v-.82Z"/>
      <path d="M11.635,17.032c-.255-.23-.687-.485-.966-.595l.279-.474c.286.157.662.376.947.553l-.261.516h0ZM11.599,18.684c-.104.352-.177.674-.231,1.057-.236-.158-.467-.273-.68-.353.146-.236.2-.37.449-1.021.122-.321.219-.638.304-.953.121.128.279.225.468.285-.085.225-.176.522-.31.984h0ZM11.927,15.701c-.292-.267-.626-.521-.917-.704l.334-.419c.297.194.68.462.947.662,0,0-.364.461-.364.461ZM15.546,15.41l-.066,2.04c-.024.419-.092.528-.771.753-.03-.188-.128-.4-.273-.583.479.013.583-.055.589-.346l.024-1.16-.729.255v1.367c0,.218.012.595.036.855h-.57c.03-.255.048-.638.048-.855v-1.196l-.638.218v2.011c0,.328.037.364.334.389.334.024.941.012,1.306-.019.413-.036.486-.061.656-.887.134.183.334.31.564.358-.291.838-.443.936-1.051.996-.497.049-.995.079-1.578.024-.632-.055-.711-.115-.711-.632v-2.07c-.31.097-.602.206-.717.261l-.121-.528c.151-.024.4-.091.838-.23,0-.486-.012-1.039-.061-1.282.188.031.455.049.632.037.133-.013.146.085.03.134-.067.023-.122.146-.122.218v.735l.638-.213v-.959c0-.328-.03-.613-.066-.723.236.03.413.042.644.042.152,0,.164.049.043.098-.092.036-.134.151-.134.346v1.032c.564-.182.923-.321,1.227-.485h-.001Z"/>
      <path d="M18.094,16.82c.382-.007.686-.024.832-.049v.492c-.146-.019-.462-.031-.875-.037-.018.146-.042.286-.066.419.431.298.723.535,1.111.887l-.419.358c-.243-.321-.492-.583-.79-.832-.194.711-.528,1.227-.996,1.646-.121-.146-.272-.268-.467-.347.746-.613,1.05-1.142,1.159-2.132-.474.006-.753.019-.935.037v-.492c.2.024.51.042.972.049.018-.298.03-.662.03-.979-.419.007-.675.024-.826.043v-.492c.17.024.432.043.832.049,0-.577-.006-.862-.036-1.1.261.055.449.079.631.079.098,0,.109.036.019.085-.055.03-.085.128-.104.279-.018.17-.024.341-.03.656.322-.006.589-.024.711-.049v.492c-.128-.013-.383-.03-.723-.043,0,.304-.006.675-.03.979,0,0,0,.002,0,.002ZM20.528,16.728c-.133,1.719-.691,2.479-1.985,3.109-.109-.176-.237-.304-.413-.4,1.275-.438,1.768-1.154,1.9-2.277.067-.577.079-1.288.043-1.458.134.062.395.079.577.067.055-.006.066.049.018.103-.054.062-.091.243-.14.856ZM21.179,17.907v-2.715h-1.549v2.702h-.522c.043-.364.061-.576.061-.965v-1.707c0-.2-.012-.364-.042-.522.236.037.498.061,1.293.061.809,0,1.088-.023,1.294-.061-.03.128-.036.262-.036.522v1.719c0,.4.018.656.055.966,0,0-.554,0-.554,0ZM21.094,19.722c-.565,0-.602-.03-.602-.613v-1.051c0-.157-.012-.321-.036-.455.146.018.37.018.474.012.115-.006.146.024.055.092-.043.03-.067.078-.067.151v1.245c0,.146.019.164.226.164.412,0,.467-.115.51-.62.176.188.304.249.498.292-.249.734-.364.783-1.057.783,0,0,0,0-.001,0Z"/>
      <path d="M22.809,18.562c-.092-.219-.207-.395-.328-.57.358-.426.71-1.021,1.008-1.943v-.109c-.346.006-.602.03-.802.055v-.504c.207.03.462.048.802.055,0-.668-.024-.941-.066-1.221.206.03.37.03.559.012.121-.012.14.03.036.134-.042.042-.049.109-.049.243v.832c.298-.013.528-.024.711-.055v.504c-.183-.024-.413-.043-.711-.049v2.77c0,.321.007.638.043,1.142h-.571c.037-.486.049-.82.049-1.142v-1.652c-.188.553-.4,1.009-.68,1.5v-.002h0ZM24.284,17.372c-.073-.243-.194-.462-.304-.656l.395-.194c.079.176.225.419.346.602l-.437.249h0ZM27.722,15.009c-.311.766-.583,1.27-1.045,1.719.353.237.802.371,1.402.449-.103.207-.176.396-.23.577-.115-.03-.225-.066-.334-.103-.019.109-.03.236-.03.455v.893c0,.249.019.443.055.753h-.528v-.413h-1.481v.48h-.528c.036-.298.042-.48.042-.753v-.96c0-.146-.006-.268-.019-.37-.097.042-.194.085-.279.121-.085-.128-.225-.273-.364-.4.468-.122,1.117-.377,1.628-.741-.249-.268-.425-.559-.534-.868-.158.285-.311.528-.443.729-.109-.073-.286-.146-.438-.183.51-.516.887-1.47,1.068-2.101.177.085.383.151.547.182.098.019.091.073.006.122-.066.042-.176.182-.304.412h1.811s-.002,0-.002,0ZM25.213,17.645c.219.024.517.03,1.057.03.753,0,1.002-.012,1.19-.042-.443-.164-.819-.377-1.123-.619-.243.163-.705.425-1.124.631ZM27.011,18.082h-1.481v.838h1.481s0-.838,0-.838ZM27.041,15.41h-1.306c.17.443.364.777.595,1.026.286-.273.541-.632.711-1.026Z"/>
      <path d="M35.065,19.874c-.134-.134-.334-.273-.553-.358.668-.389,1.36-1.081,1.707-1.67.194.121.395.218.631.291.092.03.092.085.013.104-.091.024-.243.14-1.798,1.634h0ZM37.191,17.56c-.851,0-1.354.019-1.816.055.049-.383.073-.911.073-1.457s-.024-1.039-.073-1.452c.468.043.954.062,1.816.062.85,0,1.385-.019,1.834-.062-.03.358-.049.881-.049,1.415,0,.56.019,1.105.049,1.488-.456-.036-.984-.049-1.834-.049ZM38.417,15.246h-2.417v1.84h2.417v-1.84ZM39.37,19.777c-.425-.54-.989-1.081-1.7-1.579l.413-.352c.607.431,1.3.995,1.81,1.5l-.522.431h0Z"/>
      <path d="M41.408,16.248c-.256.024-.426.049-.596.121-.03-.17-.085-.364-.14-.516.17-.073.249-.122.364-.255.286-.328.559-.82.698-1.148.237.128.383.183.511.207.14.024.157.061,0,.164-.073.048-.164.133-.316.315-.261.315-.376.449-.606.717l1.317-.024c-.121-.213-.261-.425-.364-.559l.37-.194c.286.376.522.717.735,1.068l-.438.255c-.024-.061-.073-.157-.134-.272l-1.402.121h0ZM41.396,19.741h-.516c.042-.432.048-.687.048-.954v-1.621c0-.225-.012-.4-.042-.559.279.036.71.049,1.087.049s.838-.013,1.093-.049c-.03.158-.042.334-.042.559v2.107c0,.358-.128.449-.82.51-.012-.188-.072-.358-.194-.534.401.073.547.043.547-.146v-.419h-1.16v1.057s0,0-.001,0ZM42.556,17.512v-.475h-1.16v.475h1.16ZM41.396,17.852v.479h1.16v-.479h-1.16ZM45.186,17.409c.115.176.225.298.346.406.073.062.036.116-.049.104-.066-.012-.534.14-1.457.517v.613c0,.151.03.2.632.2.4,0,.564-.128.613-.68.146.206.315.304.504.346-.2.698-.279.759-1.111.759-1.015,0-1.075-.042-1.075-.583v-1.378c0-.268-.019-.504-.049-.668.188.03.383.042.565.036.109,0,.134.043.024.128-.073.055-.104.097-.104.194v.644c.485-.2.904-.438,1.16-.638,0,0,0,0,.001,0ZM45.202,14.864c.115.17.243.316.377.407.079.055.055.121-.067.109-.103-.013-.461.097-1.433.485v.328c0,.152.049.237.638.237.413,0,.492-.062.577-.59.103.158.291.273.479.316-.207.631-.31.655-1.051.655-1.014,0-1.081-.036-1.081-.576v-1.063c0-.273-.012-.491-.042-.668.188.03.376.043.559.037.109,0,.133.042.024.127-.073.055-.104.109-.104.194v.638c.431-.17.881-.431,1.123-.638v.002h.001Z"/>
      <path d="M46.698,17.396c-.091-.146-.243-.31-.376-.406.358-.432.564-.826.747-1.385.121-.377.218-.808.279-1.19.206.079.4.14.606.183.128.023.128.085-.006.157-.048.024-.121.158-.34.705v4.385h-.553c.055-.432.079-.766.079-1.185v-2.053c-.14.304-.273.54-.438.789h.002ZM51.921,19.067c-.151.23-.225.449-.249.644-.898-.109-1.585-.292-2.138-.59-.334.322-.813.602-1.281.784-.091-.158-.219-.292-.413-.413.486-.128.947-.34,1.281-.632-.279-.213-.521-.462-.74-.765l.37-.249c.152.272.377.51.656.698.127-.183.194-.419.23-.917-.607.006-1.045.024-1.372.048.03-.261.048-.559.048-.88,0-.298-.018-.571-.048-.802.321.03.777.049,1.396.055-.006-.188-.006-.401-.012-.626-.662.007-1.166.024-1.555.061v-.528c.389.037.88.055,1.536.062-.013-.279-.043-.565-.067-.699.183.031.358.043.62.037.134,0,.151.061.049.134-.049.03-.092.261-.104.528.704-.007,1.221-.024,1.621-.062v.528c-.4-.036-.917-.054-1.621-.061.006.225.012.432.018.626.645-.006,1.063-.024,1.415-.055-.03.2-.048.485-.048.777-.007.315.018.662.048.904-.334-.03-.789-.042-1.451-.048-.042.589-.134.904-.291,1.147.57.249,1.287.358,2.101.292v.002h.001ZM49.662,16.431h-.887v.801h.881c.006-.225.006-.491.006-.801ZM50.136,17.232h.898v-.801h-.887c0,.304,0,.57-.012.801h.001Z"/>
      <path d="M55.428,18.32c0,.376.012.674.042,1.038h-.583c.03-.37.043-.674.043-1.038v-.443h-1.203c-.078.795-.37,1.512-.649,1.955-.176-.151-.304-.23-.534-.322.455-.521.704-1.312.704-2.41v-1.562c0-.376-.019-.686-.049-.862.632.03,1.209.043,2.071.043,1.105,0,1.524-.013,2.083-.043-.03.17-.055.486-.055.862v3.626c0,.443-.03.486-.983.632-.049-.219-.098-.377-.194-.583.564.012.674-.055.674-.262v-1.074h-1.366v.443h0ZM54.93,16.06v-.893h-1.185v.893h1.185ZM53.745,16.503v.93h1.185v-.93h-1.185ZM56.794,16.06v-.893h-1.366v.893h1.366ZM55.428,16.503v.93h1.366v-.93h-1.366Z"/>
    </g>
    <g>
      <path d="M92.221,9.433c-.092-.219-.183-.37-.304-.559.406-.443.655-.904.947-1.889v-.079c-.37.006-.65.024-.856.049v-.479c.213.03.486.042.856.048,0-.686-.019-.971-.055-1.238.206.024.376.03.564.012.122-.012.146.049.03.152-.055.049-.061.091-.061.164v.91c.37-.006.656-.018.862-.048v.479c-.206-.024-.492-.043-.862-.049v2.648c0,.321.019.753.055,1.142h-.602c.043-.389.067-.82.067-1.142v-1.567c-.164.504-.347.93-.644,1.445h.003,0ZM93.91,8.704c-.104-.279-.249-.553-.48-.905l.371-.188c.206.304.382.595.534.855l-.425.237h0ZM96.647,10.52c-.51,0-.644-.042-.644-.74l.042-3.705h-.978c.019.613.013,1.245-.006,1.822-.036,1.251-.213,1.992-.972,2.885-.158-.152-.328-.255-.577-.334.662-.522.924-.966,1.039-2.053.072-.681.042-1.476-.019-2.812.243.03.638.048,1.051.048s.783-.012,1.032-.042c-.042.176-.073.395-.073.783l-.042,3.401c0,.225.091.272.291.272.188,0,.237-.14.249-.765.116.206.316.334.535.376-.219.814-.273.862-.93.862l.002.002h0Z"/>
      <path d="M98.343,9.676c-.109-.213-.219-.377-.346-.517.328-.261.832-1.081,1.021-1.761-.377.006-.656.019-.875.036v-.479c.23.024.517.036.911.036v-.868c-.298.061-.511.104-.759.146-.037-.17-.104-.346-.158-.443.358-.036.723-.103,1.087-.2.279-.072.583-.17.832-.255.055.194.158.346.273.431.127.098.097.158-.019.134-.097-.018-.273-.006-.813.098v.959c.31-.006.54-.018.729-.036v.479c-.188-.012-.419-.03-.729-.03v2.205c0,.297.019.68.049,1.044h-.541c.03-.364.049-.747.049-1.044v-1.385c-.17.498-.364.893-.711,1.451h0ZM99.922,8.88c-.121-.249-.236-.431-.389-.631l.353-.262c.176.249.261.371.395.583l-.358.31h0ZM102.036,8.868v.819c0,.273.019.76.055,1.094h-.54c.024-.358.036-.82.036-1.094v-.819h-.638v.559h-.479c.018-.273.024-.534.024-.789v-1.671c0-.212-.013-.474-.03-.631.176.03.54.048,1.123.066v-.285c0-.371-.024-.705-.055-.868.17.036.389.061.559.061.098,0,.104.048.013.127-.043.037-.067.116-.067.268v.698c.626-.006.996-.03,1.185-.066-.019.188-.024.419-.024.631v1.604c0,.322.006.553.03.796h-.504v-.498h-.687v-.002h-.001ZM101.587,8.474v-1.67h-.638v1.67h.638ZM102.722,8.474v-1.67h-.687v1.67h.687Z"/>
    </g>
    <g>
      <path d="M111.69,7.026c-.021-.392-.167-.73-.62-.73-.637,0-.721.699-.721,1.56s.084,1.561.721,1.561.684-.762.684-1.258h-.736v-.376h1.153v1.937h-.345v-.506h-.01c-.1.318-.396.579-.804.579-.971,0-1.144-.935-1.144-1.937,0-.939.173-1.936,1.201-1.936,1.069,0,1.096.913,1.101,1.106h-.48,0Z"/>
      <path d="M113.046,5.993h1.143c.485,0,.955.229.955.954,0,.34-.203.679-.543.778v.01c.46.11.663.46.663.919,0,.757-.428,1.064-1.205,1.064h-1.013v-3.726h0ZM113.505,7.599h.527c.193,0,.631-.047.631-.62,0-.387-.192-.611-.642-.611h-.517v1.231h0ZM113.505,9.342h.626c.485,0,.652-.328.652-.688,0-.512-.328-.71-.73-.71h-.548v1.398Z"/>
      <path d="M116.808,5.993h.616l1.002,3.726h-.48l-.267-1.022h-1.189l-.276,1.022h-.48l1.075-3.726h0ZM116.583,8.32h1.002l-.475-1.801h-.011l-.517,1.801h0Z"/>
      <path d="M123.859,7.026c-.021-.392-.167-.73-.62-.73-.637,0-.721.699-.721,1.56s.084,1.561.721,1.561.684-.762.684-1.258h-.736v-.376h1.153v1.937h-.345v-.506h-.01c-.1.318-.396.579-.804.579-.971,0-1.143-.935-1.143-1.937,0-.939.172-1.936,1.2-1.936,1.069,0,1.096.913,1.101,1.106h-.48,0Z"/>
      <path d="M125.147,5.993h1.143c.485,0,.955.229.955.954,0,.34-.203.679-.543.778v.01c.46.11.663.46.663.919,0,.757-.428,1.064-1.205,1.064h-1.013v-3.726h0ZM125.606,7.599h.527c.193,0,.632-.047.632-.62,0-.387-.193-.611-.643-.611h-.517v1.231h0ZM125.606,9.342h.626c.485,0,.652-.328.652-.688,0-.512-.328-.71-.73-.71h-.548v1.398Z"/>
      <path d="M128.841,5.993h.616l1.002,3.726h-.48l-.267-1.022h-1.189l-.276,1.022h-.48l1.075-3.726s-.001,0-.001,0ZM128.616,8.32h1.002l-.475-1.801h-.011l-.517,1.801h.001Z"/>
      <path d="M130.672,7.648h2.609v.376h-2.609v-.376Z"/>
      <path d="M133.896,7.923c0-.814.058-1.899,1.055-1.899s1.054.991,1.054,1.899c0,.782-.058,1.868-1.054,1.868s-1.055-.992-1.055-1.868ZM134.95,9.447c.563,0,.595-.746.595-1.523,0-.814-.031-1.556-.595-1.556s-.596.741-.596,1.556c0,.777.031,1.523.596,1.523Z"/>
      <path d="M136.938,7.923c0-.814.058-1.899,1.054-1.899s1.055.991,1.055,1.899c0,.782-.058,1.868-1.055,1.868s-1.054-.992-1.054-1.868ZM137.991,9.447c.564,0,.596-.746.596-1.523,0-.814-.031-1.556-.596-1.556s-.595.741-.595,1.556c0,.777.031,1.523.595,1.523Z"/>
      <path d="M140.131,6.629c.465-.026.893-.084.913-.605h.313v3.694h-.438v-2.776h-.788v-.312h0Z"/>
    </g>
    <g>
      <path d="M165.536,7.484h.246c.421,0,.605-.303.605-.7,0-.364-.135-.66-.516-.66-.521,0-.571.481-.571.772h-.492c0-.678.319-1.143,1.053-1.143.828,0,1.019.588,1.019,1.03,0,.397-.201.751-.615.852v.011c.447.09.733.375.733.924,0,.723-.364,1.227-1.126,1.227-1.063,0-1.125-.93-1.125-1.103v-.051h.492c0,.364.18.784.633.784.291,0,.633-.146.633-.817,0-.465-.224-.757-.717-.757h-.252v-.369h0Z"/>
      <path d="M167.485,5.72h.515l.784,3.433h.011l.784-3.433h.516l-1.008,3.998h-.628s-.974-3.998-.974-3.998Z"/>
    </g>
    <g>
      <path d="M58.443,15.038h.492v3.562h1.624v.437h-2.116v-3.998h0Z"/>
      <path d="M61.288,15.038h1.293c.627,0,1.025.369,1.025,1.002,0,.437-.151.896-.616,1.008v.012c.347.039.543.324.565.666l.033.684c.022.442.096.554.213.627h-.594c-.084-.084-.123-.381-.134-.577l-.034-.621c-.039-.549-.341-.583-.593-.583h-.667v1.781h-.492v-3.998h0ZM61.78,16.852h.487c.291,0,.823,0,.823-.773,0-.392-.263-.638-.723-.638h-.588v1.411h0Z"/>
      <path d="M66.136,16.023c0-.33-.185-.582-.521-.582-.661,0-.7.985-.7,1.192v.313h.012c.078-.146.319-.442.756-.442.688,0,1.036.51,1.036,1.255,0,.767-.381,1.354-1.12,1.354-1.098,0-1.176-1.059-1.176-1.881,0-.907.056-2.162,1.204-2.162.924,0,1.002.768,1.002.952h-.493ZM65.599,18.745c.493,0,.627-.504.627-.919s-.101-.918-.627-.918-.627.504-.627.918.134.919.627.919Z"/>
      <path d="M69.827,19.477h-.427c-.284-.323-.497-.684-.638-1.082-.142-.397-.212-.833-.212-1.306s.07-.912.212-1.316c.141-.403.354-.773.638-1.108h.433c-.284.348-.498.724-.642,1.126-.143.403-.215.834-.215,1.294,0,.455.071.883.214,1.281.142.397.354.769.637,1.111Z"/>
      <path d="M71.247,15.038h.661l1.075,3.998h-.516l-.285-1.098h-1.276l-.297,1.098h-.516l1.153-3.998h0ZM71.006,17.535h1.075l-.51-1.932h-.011l-.555,1.932h.001Z"/>
      <path d="M74.215,15.038h.661l1.075,3.998h-.515l-.286-1.098h-1.276l-.297,1.098h-.516l1.153-3.998h0ZM73.974,17.535h1.075l-.51-1.932h-.011l-.555,1.932h.001Z"/>
      <path d="M76.773,19.477h-.427c.283-.343.495-.714.638-1.111.142-.398.213-.826.213-1.281,0-.46-.071-.891-.215-1.294-.143-.402-.356-.778-.641-1.126h.432c.284.335.498.705.642,1.108.143.404.214.843.214,1.316s-.071.908-.214,1.306c-.144.398-.357.759-.642,1.082Z"/>
      <path d="M79.464,15.721c.499-.027.958-.09.98-.649h.336v3.965h-.471v-2.979h-.846v-.336h0Z"/>
      <path d="M82.471,18.442h.516v.594h-.516v-.594Z"/>
      <path d="M85.64,15.149h1.77v.438h-1.395l-.156,1.147.011.012c.163-.196.426-.297.694-.297.594,0,.997.47.997,1.305,0,.739-.324,1.36-1.153,1.36-.941,0-1.087-.778-1.087-1.098h.493c0,.208.078.729.604.729.561,0,.65-.627.65-1.03,0-.438-.163-.896-.661-.896-.342,0-.561.291-.561.387l-.425-.022.218-2.033v-.002h0Z"/>
      <path d="M88.055,15.038h.515l.784,3.433h.011l.784-3.433h.516l-1.008,3.998h-.628s-.974-3.998-.974-3.998Z"/>
      <path d="M91.023,16.394h.515l.544.941.549-.941h.515l-.784,1.267.812,1.375h-.516l-.599-1.045-.577,1.045h-.516l.823-1.375-.767-1.267h0Z"/>
      <path d="M96.386,19.036h-2.218c0-.739.414-1.243.856-1.624l.325-.274c.319-.274.526-.516.526-.952,0-.342-.151-.711-.577-.711-.61,0-.627.633-.627.856h-.493c0-.75.313-1.26,1.126-1.26.918,0,1.063.711,1.063,1.059,0,.604-.252.924-.694,1.305l-.56.487c-.219.185-.375.414-.432.678h1.703v.437h.002,0Z"/>
    </g>
    <path d="M58.935,24.306c-.079-.311-.279-.537-.674-.537-.578,0-.82.511-.82,1.029s.242,1.029.82,1.029c.421,0,.651-.314.689-.708h.461c-.037.647-.495,1.094-1.15,1.094-.81,0-1.294-.644-1.294-1.415s.484-1.416,1.294-1.416c.609.004,1.09.341,1.147.924h-.474s0,0,.001,0Z"/>
    <path d="M63.028,23.447h.666l.745,2.115h.008l.727-2.115h.658v2.702h-.45v-2.085h-.008l-.749,2.085h-.39l-.749-2.085h-.008v2.085h-.45s0-2.702,0-2.702Z"/>
    <g>
      <path d="M68.094,24.134c-.043-.867.47-1.513,1.374-1.513.747,0,1.338.435,1.338,1.229,0,.754-.507,1.134-1.037,1.465-.536.325-1.097.597-1.199,1.127h2.194v.452h-2.791c.085-1.013.597-1.374,1.199-1.748.724-.446,1.091-.711,1.091-1.302,0-.464-.373-.771-.825-.771-.597,0-.85.549-.832,1.061,0,0-.512,0-.512,0Z"/>
      <path d="M72.857,22.621c1.338,0,1.422,1.229,1.422,2.176,0,.94-.084,2.17-1.422,2.17s-1.423-1.229-1.423-2.17c0-.946.085-2.176,1.423-2.176ZM72.857,26.515c.874,0,.88-1.085.88-1.724,0-.633-.006-1.718-.88-1.718s-.88,1.085-.88,1.718c0,.639.006,1.724.88,1.724Z"/>
      <path d="M76.208,22.621c1.338,0,1.422,1.229,1.422,2.176,0,.94-.084,2.17-1.422,2.17s-1.423-1.229-1.423-2.17c0-.946.085-2.176,1.423-2.176ZM76.208,26.515c.874,0,.88-1.085.88-1.724,0-.633-.006-1.718-.88-1.718s-.88,1.085-.88,1.718c0,.639.006,1.724.88,1.724Z"/>
      <path d="M79.561,22.621c1.338,0,1.422,1.229,1.422,2.176,0,.94-.084,2.17-1.422,2.17s-1.423-1.229-1.423-2.17c0-.946.085-2.176,1.423-2.176ZM79.561,26.515c.874,0,.88-1.085.88-1.724,0-.633-.006-1.718-.88-1.718s-.88,1.085-.88,1.718c0,.639.006,1.724.88,1.724Z"/>
      <path d="M83.376,22.591h.609l2.266,3.49h.013v-3.49h.542v4.304h-.627l-2.248-3.453h-.012v3.453h-.543v-4.304Z"/>
      <path d="M88.097,23.218h-.512v-.627h.512v.627ZM87.585,23.779h.512v3.116h-.512v-3.116Z"/>
      <path d="M88.797,23.779h.482v.494h.012c.217-.386.566-.566,1.013-.566.819,0,1.073.47,1.073,1.14v2.049h-.513v-2.109c0-.38-.241-.627-.633-.627-.621,0-.922.416-.922.977v1.76h-.513v-3.118h0Z"/>
      <path d="M92.764,23.779h.621v.452h-.621v1.935c0,.235.066.277.386.277h.235v.452h-.392c-.53,0-.741-.108-.741-.681v-1.983h-.53v-.452h.53v-.935h.512s0,.935,0,.935Z"/>
      <path d="M96.513,25.907c-.139.687-.633,1.061-1.332,1.061-.995,0-1.465-.688-1.495-1.64,0-.934.615-1.621,1.465-1.621,1.103,0,1.44,1.03,1.41,1.784h-2.332c-.019.542.289,1.024.97,1.024.422,0,.718-.205.808-.608h.507,0ZM96.02,25.038c-.024-.488-.392-.88-.898-.88-.536,0-.855.403-.892.88h1.79Z"/>
      <path d="M96.995,23.779h.482v.494h.012c.217-.386.566-.566,1.013-.566.819,0,1.073.47,1.073,1.14v2.049h-.513v-2.109c0-.38-.241-.627-.633-.627-.621,0-.922.416-.922.977v1.76h-.513v-3.118h0Z"/>
      <path d="M103.035,26.895h-.512v-.422h-.013c-.168.344-.566.494-.994.494-.958,0-1.435-.76-1.435-1.64s.471-1.621,1.423-1.621c.319,0,.777.121,1.006.488h.013v-1.604h.512v4.304h0ZM101.589,26.515c.688,0,.952-.591.952-1.175,0-.615-.277-1.182-.982-1.182-.699,0-.934.597-.934,1.205,0,.585.301,1.151.964,1.151h0Z"/>
      <path d="M105.073,23.706c.989,0,1.513.718,1.513,1.634,0,.91-.523,1.627-1.513,1.627s-1.513-.717-1.513-1.627c0-.916.524-1.634,1.513-1.634ZM105.073,26.515c.537,0,.971-.422.971-1.175,0-.76-.434-1.182-.971-1.182s-.97.422-.97,1.182c0,.753.434,1.175.97,1.175Z"/>
      <path d="M108.757,22.591h1.887c.856,0,1.32.477,1.32,1.272s-.464,1.277-1.32,1.271h-1.313v1.76h-.573v-4.304h0ZM109.33,24.653h1.121c.645.006.94-.277.94-.789s-.296-.79-.94-.79h-1.121v1.579Z"/>
      <path d="M115.329,26.883c-.091.054-.205.084-.368.084-.265,0-.434-.145-.434-.482-.283.332-.663.482-1.097.482-.567,0-1.031-.253-1.031-.874,0-.705.524-.855,1.055-.958.566-.108,1.049-.072,1.049-.458,0-.446-.367-.519-.693-.519-.434,0-.753.133-.777.591h-.512c.029-.771.627-1.043,1.319-1.043.561,0,1.17.127,1.17.855v1.604c0,.241,0,.35.162.35.042,0,.091-.006.157-.03,0,0,0,.398,0,.398ZM114.497,25.285c-.199.145-.585.15-.928.211-.338.061-.627.181-.627.561,0,.338.289.458.603.458.675,0,.952-.422.952-.705v-.524h0Z"/>
      <path d="M116.505,23.779h.621v.452h-.621v1.935c0,.235.066.277.386.277h.235v.452h-.392c-.53,0-.741-.108-.741-.681v-1.983h-.53v-.452h.53v-.935h.512s0,.935,0,.935Z"/>
      <path d="M120.339,25.907c-.139.687-.633,1.061-1.332,1.061-.995,0-1.465-.688-1.495-1.64,0-.934.615-1.621,1.465-1.621,1.103,0,1.44,1.03,1.41,1.784h-2.332c-.019.542.289,1.024.97,1.024.422,0,.718-.205.808-.608h.507,0ZM119.845,25.038c-.024-.488-.392-.88-.898-.88-.536,0-.855.403-.892.88h1.79Z"/>
      <path d="M120.906,23.779h.482v.494h.012c.217-.386.566-.566,1.013-.566.819,0,1.073.47,1.073,1.14v2.049h-.513v-2.109c0-.38-.241-.627-.633-.627-.621,0-.922.416-.922.977v1.76h-.513v-3.118h0Z"/>
      <path d="M124.957,23.779h.621v.452h-.621v1.935c0,.235.066.277.386.277h.235v.452h-.392c-.53,0-.741-.108-.741-.681v-1.983h-.53v-.452h.53v-.935h.512s0,.935,0,.935Z"/>
      <path d="M126.446,25.912c.018.458.416.603.838.603.319,0,.753-.072.753-.464,0-.397-.506-.464-1.019-.579-.506-.114-1.019-.283-1.019-.88,0-.627.621-.886,1.163-.886.688,0,1.236.217,1.278.977h-.513c-.036-.397-.386-.524-.723-.524-.308,0-.663.084-.663.397,0,.368.542.429,1.019.543.512.114,1.019.283,1.019.886,0,.741-.693.982-1.326.982-.699,0-1.29-.283-1.32-1.055h.513,0Z"/>
      <path d="M131.257,23.218h-.512v-.627h.512v.627ZM130.745,23.779h.512v3.116h-.512v-3.116Z"/>
      <path d="M132.356,25.912c.018.458.416.603.838.603.319,0,.753-.072.753-.464,0-.397-.506-.464-1.019-.579-.506-.114-1.019-.283-1.019-.88,0-.627.621-.886,1.163-.886.688,0,1.236.217,1.278.977h-.513c-.036-.397-.386-.524-.723-.524-.308,0-.663.084-.663.397,0,.368.542.429,1.019.543.512.114,1.019.283,1.019.886,0,.741-.693.982-1.326.982-.699,0-1.29-.283-1.32-1.055h.513Z"/>
      <path d="M135.358,25.912c.018.458.416.603.838.603.319,0,.753-.072.753-.464,0-.397-.506-.464-1.019-.579-.506-.114-1.019-.283-1.019-.88,0-.627.621-.886,1.163-.886.688,0,1.236.217,1.278.977h-.513c-.036-.397-.386-.524-.723-.524-.308,0-.663.084-.663.397,0,.368.542.429,1.019.543.512.114,1.019.283,1.019.886,0,.741-.693.982-1.326.982-.699,0-1.29-.283-1.32-1.055h.513Z"/>
      <path d="M140.627,26.895h-.482v-.494h-.013c-.217.386-.566.566-1.012.566-.82,0-1.073-.47-1.073-1.139v-2.05h.513v2.109c0,.38.24.627.633.627.62,0,.922-.416.922-.977v-1.76h.513v3.118h-.001Z"/>
      <path d="M144.045,25.907c-.139.687-.633,1.061-1.332,1.061-.995,0-1.464-.688-1.495-1.64,0-.934.615-1.621,1.464-1.621,1.103,0,1.44,1.03,1.41,1.784h-2.332c-.019.542.289,1.024.97,1.024.422,0,.718-.205.808-.608h.507,0ZM143.55,25.038c-.024-.488-.392-.88-.898-.88-.536,0-.855.403-.892.88h1.79Z"/>
      <path d="M147.396,26.895h-.512v-.422h-.013c-.168.344-.566.494-.994.494-.958,0-1.435-.76-1.435-1.64s.471-1.621,1.423-1.621c.319,0,.777.121,1.006.488h.013v-1.604h.512v4.304h0ZM145.95,26.515c.688,0,.952-.591.952-1.175,0-.615-.277-1.182-.982-1.182-.699,0-.934.597-.934,1.205,0,.585.301,1.151.964,1.151h0Z"/>
      <path d="M152.604,26.883c-.091.054-.205.084-.368.084-.265,0-.434-.145-.434-.482-.283.332-.663.482-1.097.482-.567,0-1.031-.253-1.031-.874,0-.705.524-.855,1.055-.958.566-.108,1.049-.072,1.049-.458,0-.446-.367-.519-.693-.519-.434,0-.753.133-.777.591h-.512c.029-.771.626-1.043,1.319-1.043.561,0,1.17.127,1.17.855v1.604c0,.241,0,.35.162.35.042,0,.091-.006.157-.03v.398ZM151.772,25.285c-.199.145-.585.15-.928.211-.338.061-.627.181-.627.561,0,.338.289.458.603.458.675,0,.952-.422.952-.705v-.524h0Z"/>
      <path d="M153.009,23.779h.482v.494h.012c.217-.386.566-.566,1.013-.566.819,0,1.073.47,1.073,1.14v2.049h-.513v-2.109c0-.38-.241-.627-.633-.627-.621,0-.922.416-.922.977v1.76h-.513v-3.118h.001Z"/>
      <path d="M159.073,26.895h-.512v-.422h-.013c-.168.344-.566.494-.994.494-.958,0-1.435-.76-1.435-1.64s.471-1.621,1.423-1.621c.319,0,.777.121,1.006.488h.013v-1.604h.512v4.304h0ZM157.627,26.515c.688,0,.952-.591.952-1.175,0-.615-.277-1.182-.982-1.182-.699,0-.934.597-.934,1.205,0,.585.301,1.151.964,1.151h0Z"/>
      <path d="M161.455,22.591h1.887c.856,0,1.32.477,1.32,1.272s-.464,1.277-1.32,1.271h-1.313v1.76h-.573v-4.304h0ZM162.028,24.653h1.121c.645.006.94-.277.94-.789s-.296-.79-.94-.79h-1.121v1.579Z"/>
      <path d="M167.912,25.907c-.139.687-.633,1.061-1.332,1.061-.995,0-1.465-.688-1.495-1.64,0-.934.615-1.621,1.465-1.621,1.103,0,1.44,1.03,1.41,1.784h-2.332c-.019.542.289,1.024.97,1.024.422,0,.718-.205.808-.608h.507s-.001,0-.001,0ZM167.418,25.038c-.024-.488-.392-.88-.898-.88-.536,0-.855.403-.892.88h1.79Z"/>
      <path d="M168.467,23.779h.482v.494h.012c.217-.386.566-.566,1.013-.566.819,0,1.073.47,1.073,1.14v2.049h-.513v-2.109c0-.38-.241-.627-.633-.627-.621,0-.922.416-.922.977v1.76h-.513v-3.118h.001Z"/>
      <path d="M174.58,26.895h-.512v-.422h-.013c-.168.344-.566.494-.994.494-.958,0-1.435-.76-1.435-1.64s.471-1.621,1.423-1.621c.319,0,.777.121,1.006.488h.013v-1.604h.512v4.304h0ZM173.133,26.515c.688,0,.952-.591.952-1.175,0-.615-.277-1.182-.982-1.182-.699,0-.934.597-.934,1.205,0,.585.301,1.151.964,1.151h0Z"/>
      <path d="M175.888,23.218h-.512v-.627h.512v.627ZM175.377,23.779h.512v3.116h-.512v-3.116Z"/>
      <path d="M176.661,23.779h.482v.494h.012c.217-.386.566-.566,1.013-.566.819,0,1.073.47,1.073,1.14v2.049h-.513v-2.109c0-.38-.241-.627-.633-.627-.621,0-.922.416-.922.977v1.76h-.513v-3.118h.001Z"/>
      <path d="M182.677,26.629c0,1.013-.465,1.531-1.447,1.531-.584,0-1.26-.235-1.289-.916h.512c.024.374.471.506.808.506.669,0,.935-.481.935-1.181v-.205h-.012c-.169.38-.579.566-.971.566-.929,0-1.393-.729-1.393-1.579,0-.735.361-1.646,1.44-1.646.392,0,.741.175.929.519h.006v-.446h.482v2.851h0ZM182.171,25.274c0-.549-.241-1.115-.886-1.115-.657,0-.922.536-.922,1.133,0,.561.205,1.188.88,1.188s.928-.621.928-1.205h0Z"/>
      <path d="M183.54,26.226h.669v.669h-.669v-.669Z"/>
    </g>
    <g>
      <path d="M143.574,31.348h.659l.637,2.997h.01l.637-2.997h.659v3.78h-.392v-3.304h-.009l-.704,3.304h-.393l-.704-3.304h-.009v3.304h-.392v-3.78h.001Z"/>
      <path d="M147.489,31.348h.624l1.017,3.78h-.487l-.27-1.038h-1.207l-.281,1.038h-.486l1.091-3.78h0ZM147.26,33.71h1.017l-.481-1.827h-.011l-.524,1.827h0Z"/>
      <path d="M149.626,31.348h1.012c1.175,0,1.323.847,1.323,1.89,0,.953-.238,1.891-1.275,1.891h-1.06v-3.78h0ZM150.091,34.748h.487c.805,0,.896-.826.896-1.504,0-.73-.048-1.515-.896-1.515h-.487v3.019Z"/>
      <path d="M152.704,31.348h1.954v.413h-1.487v1.186h1.402v.413h-1.402v1.355h1.551v.413h-2.018v-3.78h0Z"/>
      <path d="M159.663,31.348h.467v3.78h-.467v-3.78Z"/>
      <path d="M161.644,31.348h.604l1.249,3.155h.011v-3.155h.466v3.78h-.641l-1.213-3.061h-.01v3.061h-.467v-3.78h0Z"/>
      <path d="M170.007,33.832c-.043.715-.323,1.371-1.149,1.371-1.074,0-1.218-1.012-1.218-1.965s.175-1.964,1.218-1.964c.773,0,1.097.434,1.117,1.176h-.487c-.01-.43-.147-.795-.63-.795-.646,0-.73.71-.73,1.583s.085,1.584.73,1.584c.566,0,.646-.53.662-.99,0,0,.487,0,.487,0Z"/>
      <path d="M172.991,35.129h-.466v-1.821h-1.297v1.821h-.467v-3.78h.467v1.546h1.297v-1.546h.466v3.78Z"/>
      <path d="M174.561,31.348h.467v3.78h-.467v-3.78Z"/>
      <path d="M176.671,31.348h.604l1.249,3.155h.011v-3.155h.466v3.78h-.641l-1.213-3.061h-.01v3.061h-.467v-3.78h0Z"/>
      <path d="M180.504,31.348h.624l1.017,3.78h-.487l-.27-1.038h-1.207l-.281,1.038h-.486l1.091-3.78h0ZM180.275,33.71h1.017l-.481-1.827h-.011l-.524,1.827h0Z"/>
    </g>
    <g>
      <path d="M176.616,7.909c0-.873.062-2.038,1.131-2.038s1.132,1.064,1.132,2.038c0,.841-.062,2.005-1.132,2.005s-1.131-1.063-1.131-2.005ZM177.747,9.544c.605,0,.639-.801.639-1.636,0-.873-.033-1.668-.639-1.668s-.638.795-.638,1.668c0,.835.033,1.636.638,1.636Z"/>
      <path d="M179.841,9.242h.516v.594h-.516v-.594Z"/>
      <path d="M184.414,6.823c0-.33-.185-.582-.521-.582-.661,0-.7.985-.7,1.192v.313h.012c.078-.146.319-.442.756-.442.688,0,1.036.51,1.036,1.255,0,.767-.381,1.354-1.12,1.354-1.098,0-1.176-1.059-1.176-1.881,0-.907.056-2.162,1.204-2.162.924,0,1.002.768,1.002.952h-.493ZM183.877,9.544c.493,0,.627-.504.627-.919s-.101-.918-.627-.918-.627.504-.627.918.134.919.627.919Z"/>
      <path d="M185.218,5.837h.482l.395,3.107h.008l.395-3.107h.504l.402,3.124h.009l.391-3.124h.474l-.596,3.998h-.554l-.386-3.013h-.009l-.382,3.013h-.554s-.579-3.998-.579-3.998Z"/>
    </g>
    <g>
      <path d="M148.958,8.784c-.055.158-.055.346-.037.547-.352.066-1.561.419-2.186.668-.024-.225-.092-.474-.194-.668.285-.013.644-.067,1.002-.14v-2.715c-.358.006-.626.024-.832.061v-.595c.249.036.583.054,1.044.054s.808-.018,1.051-.054v.595c-.188-.03-.443-.049-.765-.061v2.599c.352-.091.68-.194.917-.291ZM148.933,6.986v-.559c.242.024.479.03.929.036,0-.717-.012-1.117-.036-1.306.219.055.407.079.674.061.146-.012.164.024.024.14-.061.049-.104.298-.146,1.105.698,0,1.251-.012,1.542-.036l-.236,3.334c-.055.783-.152.845-1.094.99-.023-.2-.091-.383-.279-.65.681.085.832,0,.875-.625l.182-2.539h-1.014c-.134,2.345-.438,2.849-1.762,3.887-.133-.176-.261-.279-.528-.382,1.228-.705,1.773-1.664,1.798-3.505-.438.007-.692.019-.929.049h0Z"/>
      <path d="M154.825,7.593c-.255.036-.4.055-.528.097,0-.115-.036-.291-.091-.4.188-.061.425-.315.789-1.014.158.103.31.182.413.212.146.043.146.067-.019.122-.078.03-.206.14-.304.267-.121.164-.23.279-.346.389l.759-.055c.188-.212.358-.431.462-.595.146.151.315.261.425.31.11.049.122.115-.018.128-.086.006-.475.267-.735.534-.261.273-.504.491-.844.753l1.123-.079c-.085-.14-.17-.268-.243-.358l.371-.23c.17.304.4.674.619,1.002l-.431.2c-.037-.091-.086-.182-.134-.279l-.517.03v.602c.972,0,1.877-.019,2.405-.055v.528c-.528-.036-1.428-.055-2.405-.055.006.346.03.887.061,1.202h-.601c.03-.304.055-.856.055-1.202-.941.006-1.798.024-2.314.055v-.528c.522.03,1.379.049,2.32.055v-.564c-.34.023-.626.066-.813.115-.024-.158-.067-.316-.152-.45.255-.012.364-.078,1.057-.783l-.364.049v-.003h0ZM155.019,5.304l.626-.098c.012.2.036.4.085.602.959-.007,1.542-.024,2.106-.062v.541c-.631-.043-1.281-.061-2.447-.061s-1.785.018-2.447.061v-.541c.626.043,1.215.062,2.266.062-.055-.183-.115-.353-.188-.504h-.001ZM153.683,8.535c-.104.091-.237.213-.413.376-.085-.188-.183-.352-.304-.51.213-.085.353-.164.474-.255.243-.176.413-.315.564-.479.024.17.086.31.194.467-.121.062-.23.152-.516.401h.001ZM153.804,7.49c-.236-.267-.425-.437-.674-.625l.328-.334c.243.242.419.382.698.589l-.353.37h0ZM157.673,6.98c-.098,0-.311.097-.438.188-.073.048-.23.188-.425.364-.098-.122-.219-.225-.353-.298.315-.206.649-.51.819-.741.128.171.286.311.438.401.073.042.067.085-.042.085h.001ZM157.436,8.784c-.255-.292-.595-.564-.905-.766l.347-.364c.268.231.619.492.936.705l-.377.425h-.001Z"/>
    </g>
    <path d="M9.31,4.098c1.375.016,2.719.775,3.098,2.323h1.628v2.308c0,.332.016.774.427.869.056.013.112.02.169.02.348,0,.708-.229.953-.446l.032-.127v-1.344c0-.173.015-.347-.048-.521-.047-.142-.143-.237-.269-.3-.063-.032-.142-.048-.237-.063v-.395h1.517v2.624c0,.316.143.395.348.411.063,0,.143.016.221.016v.395l-1.532.285v-.569c-.364.3-.79.537-1.265.569-.047.003-.094.005-.138.005-.778,0-1.174-.507-1.174-1.27v-1.66c-.016-.205-.174-.363-.601-.363.016.759-.095,1.454-.569,2.055-.458.585-1.154.98-1.865,1.154.253.174.854.443,1.153.459.069.01.138.015.207.015.361,0,.721-.13,1.026-.316l.158.253-.933,1.17c-.901,0-1.628-.379-2.307-.932l-.095-.079c-.19-.159-.363-.348-.538-.538-1.391-.095-2.386-1.502-2.482-2.672-.062-.743.111-1.423.459-1.992.49-.759,1.312-1.281,2.387-1.344h.269M9.31,9.757c.11,0,.221,0,.332-.016,1.565-.205,1.833-2.133,1.486-3.382-.253-.885-.853-1.786-1.818-1.865-.042,0-.084-.007-.127-.007-.021,0-.042.002-.064.007-1.581.032-1.96,1.897-1.691,3.098.221.98.807,2.103,1.881,2.166M5.058,4.256c.379,0,.695.3.695.664,0,.379-.316.679-.695.679-.395,0-.711-.3-.711-.679,0-.364.316-.664.711-.664M5.405,6.343l.159.095v2.75c0,.221.047.347.158.411.078.048.205.063.379.063v.379h-1.96v-.379c.111,0,.253-.016.348-.111.095-.079.111-.19.111-.333v-1.58c0-.284-.222-.474-.459-.569v-.284l1.264-.442M18.996,6.344c.125,0,.24.017.24.017.85.122,1.33.854,1.359,1.626l.002.159v.032h-2.547c.016.441.332.901.743,1.09.111.065.237.095.364.095h.041c.474,0,.915-.261,1.223-.506l.158.285c-.316.6-.917.996-1.628,1.012h-.159c-1.012-.063-1.644-.886-1.612-1.897.015-.918.664-1.802,1.612-1.897,0,0,.103-.015.202-.015M18.067,7.749h1.454c-.016-.426-.158-.948-.649-.964h-.079c-.458.032-.695.553-.727.964M9.313,3.598h-.272c-1.211.07-2.197.628-2.807,1.572-.004.007-.009.014-.013.022.021-.087.032-.178.032-.272,0-.642-.536-1.164-1.195-1.164-.668,0-1.211.522-1.211,1.164,0,.536.37.99.874,1.132l-.745.26-.335.117v.978l.314.126c.095.038.145.088.145.105v1.524h-.459v1.379h2.96v-1.017c.476.543,1.11.949,1.836,1.057.143.153.292.306.457.444l.098.081c.879.715,1.712,1.047,2.626,1.047h.241l.15-.188.933-1.17.221-.277-.188-.3-.158-.253-.262-.419-.422.258c-.256.156-.528.242-.766.242h-.025c.361-.226.677-.504.924-.819.108-.137.199-.277.276-.418v.078c0,1.075.657,1.77,1.674,1.77.056,0,.115-.002.174-.006.243-.017.487-.076.729-.177v.28l.592-.11,1.532-.285.409-.076v-.005c.315.214.693.347,1.113.373h.19c.889-.019,1.658-.497,2.07-1.278l.126-.239-.131-.237-.123-.221h.203v-.5l-.002-.197c-.041-1.104-.776-1.969-1.788-2.114h0s-.15-.022-.311-.022c-.134,0-.274.02-.274.02-.681.068-1.273.465-1.641,1.042v-.984h-2.517v1.319l.418.069c.039.006.074.01.103.021.035.079.034.171.033.278v1.299c-.179.131-.36.21-.485.21-.019,0-.037-.002-.052-.006-.028-.034-.044-.165-.044-.383v-2.808h-1.758c-.511-1.406-1.83-2.305-3.463-2.323h-.006,0ZM9.326,9.257c-.756-.054-1.223-.951-1.41-1.776-.141-.629-.068-1.541.344-2.066.217-.277.501-.415.869-.422h.055l.017-.005c.046.004.077.005.108.005.675.057,1.14.814,1.337,1.503.177.636.183,1.605-.225,2.222-.203.307-.479.48-.845.527-.075.011-.146.012-.215.012h-.036s.001,0,.001,0ZM5.682,5.926c.111-.067.21-.152.294-.251-.048.115-.091.232-.127.35l-.028-.017-.139-.083h0ZM18.815,8.677h.985c-.214.121-.42.186-.601.186-.071,0-.115-.005-.154-.028-.085-.04-.163-.094-.23-.158h0ZM6.064,9.162v-.435c.076.149.162.295.257.435h-.257Z"/>
    <g>
      <circle cx="104.713" cy="8.153" r=".377"/>
      <circle cx="104.713" cy="9.52" r=".377"/>
    </g>
    <g>
      <circle cx="29.344" cy="17.252" r=".377"/>
      <circle cx="29.344" cy="18.618" r=".377"/>
    </g>
    <g>
      <circle cx="159.507" cy="8.153" r=".377"/>
      <circle cx="159.507" cy="9.52" r=".377"/>
    </g>
    <g>
      <rect x="170.765" y="6.881" width="5.162" height=".6"/>
      <rect x="170.765" y="8.409" width="1.023" height=".6"/>
      <rect x="172.835" y="8.409" width="1.023" height=".6"/>
      <rect x="174.904" y="8.409" width="1.023" height=".6"/>
    </g>
    <path d="M58.188,22.693c1.18,0,2.14.96,2.14,2.14s-.96,2.14-2.14,2.14-2.14-.96-2.14-2.14.96-2.14,2.14-2.14M58.188,22.293c-1.403,0-2.54,1.137-2.54,2.54s1.137,2.54,2.54,2.54,2.54-1.137,2.54-2.54-1.137-2.54-2.54-2.54h0Z"/>
    <path d="M64.429,22.693c1.18,0,2.14.96,2.14,2.14s-.96,2.14-2.14,2.14-2.14-.96-2.14-2.14.96-2.14,2.14-2.14M64.429,22.293c-1.403,0-2.54,1.137-2.54,2.54s1.137,2.54,2.54,2.54,2.54-1.137,2.54-2.54-1.137-2.54-2.54-2.54h0Z"/>
  </g>
</svg>