<?xml version="1.0" encoding="UTF-8"?>
<svg id="Layer_1" xmlns="http://www.w3.org/2000/svg" version="1.1" viewBox="0 0 191.339 38.551">
  <path d="M187.37,0H3.969C1.777,0,0,1.777,0,3.969v8.81c0,1.113.168,2.219.498,3.281l6.653,21.404c.201.647.8,1.088,1.477,1.088h59.279c2.192,0,3.969-1.777,3.969-3.969v-.419c0-2.192,1.777-3.969,3.969-3.969h39.078c2.192,0,3.969,1.777,3.969,3.969v.419c0,2.192,1.777,3.969,3.969,3.969h59.852c.677,0,1.276-.441,1.477-1.088l6.653-21.404c.33-1.062.498-2.169.498-3.281V3.969c0-2.192-1.777-3.969-3.969-3.969Z" fill="#231f20"/>
  <rect x="1.593" y="10.171" width="185.761" height=".5" fill="#fff"/>
  <g>
    <path d="M46.982,7.227h-1.174v-2.386h1.667c.89,0,1.326.36,1.326,1.136,0,.947-.473,1.25-1.818,1.25M55.183,3.837h-1.364l-.038.076-1.534,2.822-1.648-2.822-.038-.057h-1.458l.114.189.284.455c-.455-.436-1.136-.663-2.027-.663h-2.936v3.674l-2.178-3.599-.038-.057h-1.117l-.038.057-2.481,4.167-.114.189h3.125v-.985h-1.269l1.269-2.292,1.799,3.201.038.057h3.655c1.913,0,2.898-.758,2.898-2.235,0-.265-.038-.492-.095-.701l1.742,2.879.038.057h.852l.038-.057,2.405-4.167.114-.189" fill="#fff"/>
    <polyline points="63.649 3.837 63.517 3.837 63.517 6.47 60.202 3.875 60.164 3.837 59.293 3.837 59.293 7.511 57.115 3.913 57.077 3.837 55.96 3.837 55.922 3.913 53.441 8.06 53.327 8.269 54.653 8.269 54.653 8.269 56.471 8.269 56.471 7.284 55.202 7.284 56.471 4.992 58.27 8.193 58.308 8.269 59.748 8.269 59.748 8.269 60.467 8.269 60.467 5.598 63.782 8.231 63.82 8.269 64.691 8.269 64.691 3.837 63.649 3.837" fill="#fff"/>
    <path d="M68.896,3.837h-2.595c-.909,0-1.212.284-1.212,1.117v2.197c0,.833.303,1.117,1.212,1.117h2.595c.909,0,1.212-.284,1.212-1.117v-.625h-1.288v.682h-2.481v-2.33h2.481v.606h1.288v-.53c0-.852-.303-1.117-1.212-1.117" fill="#fff"/>
    <polyline points="75.165 7.227 71.793 7.227 71.793 6.451 73.82 6.451 73.82 5.485 71.793 5.485 71.793 4.841 75.24 4.841 75.24 3.837 70.524 3.837 70.524 8.269 75.297 8.269 75.297 7.227 75.165 7.227" fill="#fff"/>
    <path d="M8.61,6.091l.549-1.231.246,1.231h-.795M16.167,2.89l-1.477,3.466-.625-3.466h-1.288l-1.667,5.114-.852-5.114h-1.591l-2.424,5.493.36-2.292h-2.405l-.189,1.174h1.004l-.114.625c-.568.246-1.553.17-1.97-.587-.265-.473-.511-1.534.606-2.5.909-.795,2.481-.928,3.39-.511,0,0,.114-.663.208-1.288-1.742-.606-3.106-.095-4.015.455-1.231.758-1.818,1.932-1.667,3.523.189,1.837,2.557,2.993,4.583,1.837.019-.019.038-.019.038-.019l-.189.436h1.364l.852-1.894h1.496l.322,1.894h2.197l1.117-3.523.72,3.523h.871l1.686-3.902.17,3.902h1.288l-.246-6.345h-1.553" fill="#fff"/>
    <polyline points="18.099 9.216 21.716 9.216 21.925 7.852 19.652 7.852 19.841 6.735 21.811 6.735 22.019 5.371 20.031 5.371 20.201 4.254 22.474 4.254 22.682 2.89 19.103 2.89 18.099 9.216" fill="#fff"/>
    <polyline points="35.751 4.954 34.955 2.89 33.459 2.89 34.993 6.223 34.52 9.216 35.827 9.216 36.224 6.564 38.554 2.89 37.039 2.89 35.751 4.954" fill="#fff"/>
    <path d="M32.72,6.659c-.341,1.042-1.193,1.648-1.875,1.345-.682-.303-.947-1.402-.606-2.462.341-1.042,1.193-1.648,1.875-1.345.701.322.966,1.42.606,2.462M32.228,2.947c-1.439-.322-2.936.814-3.333,2.557-.398,1.742.436,3.428,1.875,3.769,1.439.341,2.936-.814,3.333-2.557s-.455-3.428-1.875-3.769" fill="#fff"/>
    <path d="M26.47,5.428h-.909l.208-1.174h.833c.928,0,.758,1.174-.133,1.174M26.319,7.985h-1.136l.208-1.25h1.08c1.023-.019,1.004,1.25-.152,1.25M27.076,2.928c-.701-.019-2.424,0-2.424,0h.019l-1.004,6.269h2.917c1.193,0,2.955-1.761,1.364-3.22,1.629-1.705,0-3.03-.871-3.049" fill="#fff"/>
    <path d="M37.03,8.274v-.397h.336c.153,0,.275.031.275.183,0,.245-.245.214-.397.214h-.214M37.428,8.396c.214,0,.367-.092.367-.336,0-.092-.061-.214-.122-.245-.092-.061-.183-.061-.275-.061h-.52v1.192h.153v-.52h.245l.336.52h.183l-.367-.55" fill="#fff"/>
    <path d="M37.3,7.447c.503,0,.913.41.913.913s-.41.913-.913.913-.913-.41-.913-.913.41-.913.913-.913M37.3,7.327c-.571,0-1.033.463-1.033,1.033s.463,1.033,1.033,1.033,1.033-.463,1.033-1.033-.463-1.033-1.033-1.033h0Z" fill="#fff"/>
  </g>
  <g>
    <path d="M90.737,7.075c-.014-.393-.027-.869-.027-1.344h-.009c-.098.417-.223.883-.339,1.267l-.365,1.276h-.53l-.32-1.262c-.098-.388-.196-.854-.271-1.281h-.009c-.014.442-.031.946-.05,1.354l-.058,1.242h-.628l.191-3.271h.904l.294,1.092c.099.378.188.786.254,1.169h.018c.081-.378.184-.811.285-1.174l.316-1.087h.892l.16,3.271h-.659l-.049-1.252Z" fill="#fff"/>
    <path d="M94.714,6.658c0,1.078-.593,1.723-1.475,1.723-.887,0-1.412-.732-1.412-1.669,0-.98.579-1.713,1.461-1.713.923,0,1.426.752,1.426,1.659ZM92.544,6.697c0,.646.276,1.097.731,1.097.458,0,.722-.476.722-1.111,0-.592-.254-1.097-.722-1.097-.464,0-.731.476-.731,1.111Z" fill="#fff"/>
    <path d="M95.16,5.105c.25-.043.575-.073.913-.073.575,0,.949.117,1.234.35.312.252.508.655.508,1.232,0,.626-.209,1.058-.494,1.325-.316.286-.802.422-1.391.422-.352,0-.605-.024-.771-.049v-3.208ZM95.837,7.769c.058.015.155.015.235.015.62.005,1.025-.364,1.025-1.145,0-.679-.365-1.039-.954-1.039-.146,0-.249.015-.307.029v2.14Z" fill="#fff"/>
    <path d="M100.048,6.945h-1.105v.776h1.234v.606h-1.911v-3.271h1.849v.606h-1.172v.68h1.105v.602Z" fill="#fff"/>
    <path d="M100.645,5.057h.677v2.649h1.194v.621h-1.871v-3.271Z" fill="#fff"/>
    <path d="M103.816,8.327v-3.271h.793l.624,1.199c.178.344.352.752.49,1.121h.009c-.04-.432-.054-.874-.054-1.368v-.951h.624v3.271h-.713l-.642-1.262c-.178-.349-.379-.771-.521-1.155h-.018c.022.437.031.898.031,1.432v.985h-.624Z" fill="#fff"/>
    <path d="M109.639,6.658c0,1.078-.593,1.723-1.475,1.723-.887,0-1.412-.732-1.412-1.669,0-.98.579-1.713,1.461-1.713.923,0,1.426.752,1.426,1.659ZM107.469,6.697c0,.646.276,1.097.73,1.097.459,0,.723-.476.723-1.111,0-.592-.254-1.097-.723-1.097-.463,0-.73.476-.73,1.111Z" fill="#fff"/>
    <path d="M109.835,7.934c0-.267.165-.451.401-.451.231,0,.392.18.396.451,0,.257-.16.446-.405.446-.228,0-.393-.189-.393-.446Z" fill="#fff"/>
  </g>
  <g>
    <path d="M10.161,34.356c-.011-.338-.022-.748-.022-1.157h-.007c-.081.359-.184.761-.279,1.091l-.302,1.1h-.438l-.265-1.087c-.081-.335-.162-.736-.225-1.104h-.008c-.011.38-.025.814-.04,1.166l-.048,1.07h-.519l.158-2.818h.746l.243.941c.081.326.154.677.21,1.007h.015c.065-.325.15-.697.235-1.012l.261-.937h.735l.133,2.818h-.545l-.04-1.079Z" fill="#fff"/>
    <path d="M11.806,34.711l-.177.724h-.577l.754-2.818h.735l.772,2.818h-.607l-.19-.724h-.71ZM12.435,34.235l-.155-.598c-.044-.167-.088-.376-.125-.543h-.007c-.037.167-.073.38-.114.543l-.146.598h.548Z" fill="#fff"/>
    <path d="M13.704,32.658c.205-.037.474-.062.753-.062.475,0,.784.101,1.02.301.257.218.419.564.419,1.062,0,.539-.173.911-.408,1.141-.261.247-.662.364-1.147.364-.291,0-.5-.021-.636-.042v-2.764ZM14.263,34.954c.048.013.129.013.194.013.512.004.847-.314.847-.987,0-.585-.302-.895-.787-.895-.122,0-.206.013-.254.025v1.844Z" fill="#fff"/>
    <path d="M17.802,34.243h-.912v.669h1.019v.522h-1.578v-2.818h1.526v.523h-.967v.585h.912v.519Z" fill="#fff"/>
    <path d="M19.719,32.616v2.818h-.56v-2.818h.56Z" fill="#fff"/>
    <path d="M20.266,35.435v-2.818h.654l.515,1.033c.147.297.29.647.404.966h.008c-.033-.372-.044-.753-.044-1.179v-.82h.515v2.818h-.589l-.529-1.087c-.147-.301-.312-.665-.431-.995h-.015c.019.376.026.773.026,1.233v.849h-.515Z" fill="#fff"/>
    <path d="M25.486,35.36c-.1.055-.335.121-.633.121-.856,0-1.298-.61-1.298-1.413,0-.962.603-1.492,1.354-1.492.29,0,.511.062.61.125l-.118.502c-.11-.055-.269-.104-.471-.104-.441,0-.787.305-.787.932,0,.564.295.92.791.92.173,0,.356-.037.471-.092l.081.502Z" fill="#fff"/>
    <path d="M26.483,32.616v1.083h.923v-1.083h.559v2.818h-.559v-1.179h-.923v1.179h-.56v-2.818h.56Z" fill="#fff"/>
    <path d="M29.08,32.616v2.818h-.56v-2.818h.56Z" fill="#fff"/>
    <path d="M29.626,35.435v-2.818h.654l.515,1.033c.147.297.29.647.404.966h.008c-.033-.372-.044-.753-.044-1.179v-.82h.515v2.818h-.589l-.529-1.087c-.147-.301-.312-.665-.431-.995h-.015c.019.376.026.773.026,1.233v.849h-.515Z" fill="#fff"/>
    <path d="M32.804,34.711l-.177.724h-.577l.754-2.818h.735l.772,2.818h-.607l-.19-.724h-.71ZM33.433,34.235l-.155-.598c-.044-.167-.088-.376-.125-.543h-.007c-.037.167-.073.38-.114.543l-.146.598h.548Z" fill="#fff"/>
  </g>
  <g>
    <path d="M1.593,12.101c.183-.04.447-.066.724-.066.377,0,.63.071.81.239.144.137.226.345.226.602,0,.385-.229.646-.479.744v.013c.19.08.304.288.365.575.086.372.156.717.206.832h-.49c-.038-.088-.104-.332-.175-.704-.078-.389-.198-.513-.471-.522h-.241v1.226h-.475v-2.938ZM2.068,13.416h.284c.323,0,.521-.195.521-.491,0-.323-.198-.478-.51-.478-.152,0-.249.014-.296.027v.942Z" fill="#fff"/>
    <path d="M4.241,14.195l-.226.845h-.494l.84-2.982h.611l.852,2.982h-.517l-.238-.845h-.828ZM4.992,13.783l-.206-.734c-.051-.182-.094-.385-.133-.558h-.008c-.039.172-.082.38-.124.558l-.203.734h.674Z" fill="#fff"/>
    <path d="M6.258,12.513h-.747v-.456h1.98v.456h-.755v2.527h-.479v-2.527Z" fill="#fff"/>
    <path d="M8.16,12.057v2.982h-.479v-2.982h.479Z" fill="#fff"/>
    <path d="M8.586,15.04v-2.982h.549l.677,1.279c.171.332.327.677.447,1h.008c-.035-.398-.043-.783-.043-1.239v-1.04h.444v2.982h-.498l-.686-1.314c-.167-.327-.338-.69-.467-1.026l-.016.004c.02.385.027.779.027,1.27v1.066h-.443Z" fill="#fff"/>
    <path d="M13.202,14.903c-.167.071-.494.168-.84.168-.443,0-.782-.128-1.031-.398-.233-.252-.366-.646-.366-1.098.004-.947.592-1.549,1.46-1.549.322,0,.575.075.696.142l-.105.438c-.144-.075-.319-.128-.595-.128-.561,0-.954.376-.954,1.071,0,.677.366,1.08.911,1.08.175,0,.3-.026.361-.058v-.748h-.463v-.429h.926v1.509Z" fill="#fff"/>
    <path d="M14.184,13.252c0-.204.121-.35.296-.35s.292.142.292.35c0,.195-.117.345-.3.345-.167,0-.288-.15-.288-.345ZM14.184,14.743c0-.204.121-.35.296-.35s.292.142.292.35c0,.195-.117.345-.3.345-.167,0-.288-.15-.288-.345Z" fill="#fff"/>
    <path d="M15.74,14.478c.098.066.335.177.576.177.365,0,.51-.235.51-.46,0-.341-.284-.487-.576-.487h-.218v-.398h.218c.218,0,.498-.115.498-.398,0-.199-.125-.363-.404-.363-.207,0-.413.102-.518.181l-.109-.394c.144-.111.428-.221.728-.221.525,0,.79.327.79.704,0,.301-.155.548-.467.672v.009c.308.066.553.328.557.717,0,.487-.358.872-.984.872-.308,0-.572-.098-.709-.199l.109-.412Z" fill="#fff"/>
    <path d="M18.317,15.04l-.848-2.982h.521l.357,1.358c.102.376.191.721.257,1.084h.008c.07-.354.168-.717.269-1.08l.382-1.363h.51l-.907,2.982h-.549Z" fill="#fff"/>
  </g>
  <g>
    <path d="M38.071,12.101c.151-.035.428-.066.7-.066.351,0,.572.053.747.19.163.111.272.306.272.562,0,.274-.151.522-.436.642v.013c.276.08.529.328.529.735,0,.266-.102.473-.249.62-.188.181-.494.274-.977.274-.265,0-.464-.022-.588-.04v-2.93ZM38.546,13.279h.245c.335,0,.518-.177.518-.429,0-.283-.187-.412-.49-.412-.141,0-.222.009-.272.022v.818ZM38.546,14.646c.062.014.144.014.253.014.308,0,.584-.128.584-.496,0-.35-.269-.491-.6-.491h-.237v.973Z" fill="#fff"/>
    <path d="M40.708,14.195l-.226.845h-.494l.84-2.982h.611l.852,2.982h-.518l-.237-.845h-.828ZM41.459,13.783l-.206-.734c-.051-.182-.094-.385-.133-.558h-.008c-.039.172-.082.38-.124.558l-.203.734h.674Z" fill="#fff"/>
    <path d="M42.724,12.513h-.747v-.456h1.98v.456h-.755v2.527h-.479v-2.527Z" fill="#fff"/>
    <path d="M44.762,12.513h-.747v-.456h1.98v.456h-.755v2.527h-.479v-2.527Z" fill="#fff"/>
    <path d="M47.651,13.717h-.988v.876h1.105v.447h-1.584v-2.982h1.525v.447h-1.047v.77h.988v.442Z" fill="#fff"/>
    <path d="M48.069,12.101c.183-.04.447-.066.724-.066.377,0,.63.071.81.239.144.137.226.345.226.602,0,.385-.229.646-.479.744v.013c.19.08.304.288.365.575.086.372.156.717.206.832h-.49c-.038-.088-.104-.332-.175-.704-.078-.389-.198-.513-.471-.522h-.241v1.226h-.475v-2.938ZM48.544,13.416h.284c.323,0,.521-.195.521-.491,0-.323-.198-.478-.51-.478-.152,0-.249.014-.296.027v.942Z" fill="#fff"/>
    <path d="M50.701,15.04v-1.244l-.828-1.739h.549l.311.766c.09.221.156.389.229.593h.008c.062-.19.137-.376.227-.593l.314-.766h.541l-.871,1.726v1.257h-.479Z" fill="#fff"/>
    <path d="M52.952,13.252c0-.204.121-.35.296-.35s.292.142.292.35c0,.195-.117.345-.3.345-.167,0-.288-.15-.288-.345ZM52.952,14.743c0-.204.121-.35.296-.35s.292.142.292.35c0,.195-.117.345-.3.345-.167,0-.288-.15-.288-.345Z" fill="#fff"/>
    <path d="M54.752,12.057h.479v2.527h1.078v.456h-1.557v-2.982Z" fill="#fff"/>
    <path d="M56.552,12.101c.183-.04.447-.066.724-.066.377,0,.63.071.81.239.144.137.226.345.226.602,0,.385-.229.646-.479.744v.013c.19.08.304.288.365.575.086.372.156.717.206.832h-.49c-.038-.088-.104-.332-.175-.704-.078-.389-.198-.513-.471-.522h-.241v1.226h-.475v-2.938ZM57.026,13.416h.284c.323,0,.521-.195.521-.491,0-.323-.198-.478-.51-.478-.152,0-.249.014-.296.027v.942Z" fill="#fff"/>
    <path d="M60.075,12.553c-.07-.004-.147,0-.241.013-.533.071-.786.438-.848.836h.011c.125-.164.315-.279.568-.279.436,0,.774.354.774.938,0,.549-.354,1.027-.891,1.027-.615,0-.953-.531-.953-1.244,0-.553.175-1,.439-1.283.229-.252.537-.394.898-.425.105-.018.183-.018.241-.013v.429ZM59.853,14.093c0-.336-.159-.571-.439-.571-.179,0-.339.124-.413.296-.019.044-.03.097-.03.172.008.381.163.69.479.69.245,0,.404-.243.404-.588Z" fill="#fff"/>
    <path d="M62.089,11.805c-.249.42-.437,1.004-.437,1.801,0,.783.191,1.363.437,1.788h-.347c-.226-.354-.475-.934-.475-1.788.004-.867.249-1.443.475-1.801h.347Z" fill="#fff"/>
    <path d="M62.881,14.195l-.226.845h-.494l.84-2.982h.611l.852,2.982h-.517l-.238-.845h-.828ZM63.632,13.783l-.206-.734c-.051-.182-.094-.385-.133-.558h-.008c-.039.172-.082.38-.124.558l-.203.734h.674Z" fill="#fff"/>
    <path d="M65.237,14.195l-.226.845h-.494l.84-2.982h.611l.852,2.982h-.518l-.237-.845h-.828ZM65.988,13.783l-.206-.734c-.051-.182-.094-.385-.133-.558h-.008c-.039.172-.082.38-.124.558l-.203.734h.674Z" fill="#fff"/>
    <path d="M66.9,15.394c.245-.42.436-1.009.436-1.796s-.19-1.368-.436-1.792h.346c.226.35.475.925.475,1.792-.004.863-.249,1.438-.475,1.796h-.346Z" fill="#fff"/>
    <path d="M68.965,12.654h-.008l-.463.266-.081-.412.618-.345h.396v2.876h-.463v-2.385Z" fill="#fff"/>
    <path d="M70.212,14.739c0-.204.125-.35.296-.35.175,0,.296.142.296.35,0,.199-.117.35-.3.35-.171,0-.292-.15-.292-.35Z" fill="#fff"/>
    <path d="M72.593,12.615h-.973l-.074.575c.055-.009.105-.013.179-.013.222,0,.448.057.615.186.19.137.331.381.331.73,0,.548-.401.996-1.02.996-.296,0-.541-.084-.674-.168l.098-.412c.109.066.327.151.557.151.28,0,.549-.182.549-.522,0-.332-.215-.548-.717-.548-.144,0-.249.013-.346.026l.163-1.452h1.312v.452Z" fill="#fff"/>
    <path d="M73.824,15.04l-.848-2.982h.521l.357,1.358c.102.376.191.721.257,1.084h.008c.07-.354.168-.717.269-1.08l.382-1.363h.51l-.907,2.982h-.549Z" fill="#fff"/>
    <path d="M75.745,12.885l.226.407c.062.115.116.221.171.332h.008c.055-.12.109-.23.167-.341l.211-.398h.521l-.634,1.035.646,1.12h-.544l-.229-.429c-.062-.115-.117-.23-.172-.35h-.008c-.055.124-.112.23-.171.35l-.218.429h-.529l.657-1.098-.634-1.057h.533Z" fill="#fff"/>
    <path d="M77.14,15.04v-.332l.3-.314c.596-.628.876-.974.88-1.354,0-.257-.121-.482-.452-.482-.226,0-.412.128-.54.239l-.141-.385c.183-.168.459-.296.778-.296.561,0,.833.402.833.872,0,.504-.319.912-.763,1.376l-.218.217v.009h1.034v.451h-1.712Z" fill="#fff"/>
  </g>
  <g>
    <path d="M92.409,15.04v-.332l.3-.314c.596-.628.876-.974.88-1.354,0-.257-.121-.482-.452-.482-.226,0-.412.128-.54.239l-.141-.385c.183-.168.459-.296.778-.296.561,0,.833.402.833.872,0,.504-.319.912-.763,1.376l-.218.217v.009h1.034v.451h-1.712Z" fill="#fff"/>
    <path d="M96.161,13.579c0,.929-.319,1.509-.926,1.509-.58,0-.892-.602-.896-1.478,0-.898.335-1.496.927-1.496.61,0,.895.619.895,1.464ZM94.824,13.606c0,.704.167,1.066.428,1.066.284,0,.428-.39.428-1.08,0-.668-.136-1.062-.424-1.062-.253,0-.432.358-.432,1.075Z" fill="#fff"/>
    <path d="M98.129,13.579c0,.929-.319,1.509-.926,1.509-.58,0-.892-.602-.896-1.478,0-.898.335-1.496.927-1.496.61,0,.895.619.895,1.464ZM96.791,13.606c0,.704.167,1.066.428,1.066.284,0,.428-.39.428-1.08,0-.668-.136-1.062-.424-1.062-.253,0-.432.358-.432,1.075Z" fill="#fff"/>
    <path d="M100.096,13.579c0,.929-.319,1.509-.926,1.509-.58,0-.892-.602-.896-1.478,0-.898.335-1.496.927-1.496.61,0,.895.619.895,1.464ZM98.758,13.606c0,.704.167,1.066.428,1.066.284,0,.428-.39.428-1.08,0-.668-.136-1.062-.424-1.062-.253,0-.432.358-.432,1.075Z" fill="#fff"/>
    <path d="M101.265,15.04v-2.982h.549l.677,1.279c.171.332.327.677.447,1h.008c-.035-.398-.043-.783-.043-1.239v-1.04h.444v2.982h-.498l-.686-1.314c-.167-.327-.338-.69-.467-1.026l-.016.004c.02.385.027.779.027,1.27v1.066h-.443Z" fill="#fff"/>
    <path d="M104.317,12.283c0,.159-.105.292-.272.292-.159,0-.265-.133-.265-.292,0-.168.109-.296.269-.296.163,0,.265.128.269.296ZM103.807,15.04v-2.155h.479v2.155h-.479Z" fill="#fff"/>
    <path d="M104.708,13.527c0-.248-.008-.456-.016-.642h.416l.023.323h.012c.086-.168.292-.372.607-.372.33,0,.673.243.673.925v1.279h-.479v-1.217c0-.31-.102-.544-.362-.544-.19,0-.322.155-.373.319-.016.044-.023.11-.023.172v1.27h-.479v-1.513Z" fill="#fff"/>
    <path d="M107.369,12.332v.553h.455v.407h-.455v.952c0,.265.062.398.245.398.085,0,.132-.004.187-.022l.008.412c-.07.031-.198.058-.347.058-.179,0-.322-.066-.412-.177-.105-.124-.151-.323-.151-.606v-1.014h-.269v-.407h.269v-.403l.471-.15Z" fill="#fff"/>
    <path d="M108.407,14.115c.012.389.276.558.583.558.222,0,.378-.04.525-.098l.07.372c-.163.08-.39.137-.661.137-.615,0-.978-.429-.978-1.089,0-.597.319-1.159.927-1.159.614,0,.816.575.816,1.049,0,.102-.008.181-.015.23h-1.269ZM109.239,13.735c.004-.199-.073-.527-.393-.527-.296,0-.42.305-.439.527h.832Z" fill="#fff"/>
    <path d="M109.98,13.527c0-.248-.008-.456-.016-.642h.416l.023.323h.012c.086-.168.292-.372.607-.372.33,0,.673.243.673.925v1.279h-.479v-1.217c0-.31-.102-.544-.362-.544-.19,0-.322.155-.373.319-.016.044-.023.11-.023.172v1.27h-.479v-1.513Z" fill="#fff"/>
    <path d="M113.858,11.898v2.535c0,.222.008.46.016.606h-.424l-.023-.341h-.008c-.113.239-.343.39-.615.39-.455,0-.813-.438-.813-1.102-.004-.721.394-1.15.849-1.15.261,0,.447.12.533.279h.008v-1.217h.479ZM113.379,13.783c0-.044-.004-.102-.012-.146-.043-.208-.194-.38-.412-.38-.308,0-.479.31-.479.708s.172.686.476.686c.194,0,.365-.15.412-.385.012-.049.016-.102.016-.159v-.323Z" fill="#fff"/>
    <path d="M116.077,13.942c0,.792-.49,1.146-.973,1.146-.533,0-.95-.416-.95-1.111,0-.708.409-1.142.981-1.142.563,0,.941.451.941,1.106ZM114.649,13.965c0,.416.184.73.472.73.271,0,.463-.301.463-.739,0-.336-.133-.726-.459-.726-.339,0-.476.376-.476.735Z" fill="#fff"/>
  </g>
  <g>
    <path d="M121.826,12.097c.175-.035.412-.062.731-.062.351,0,.604.084.771.243.155.146.257.38.257.659,0,.283-.078.514-.222.673-.194.217-.49.323-.829.323-.09,0-.167-.004-.233-.022v1.128h-.475v-2.943ZM122.301,13.482c.062.022.136.026.233.026.358,0,.576-.203.576-.548,0-.332-.202-.504-.533-.504-.133,0-.226.013-.276.026v1Z" fill="#fff"/>
    <path d="M125.303,14.522c0,.194.008.385.031.518h-.432l-.035-.239h-.012c-.113.168-.312.288-.561.288-.381,0-.595-.314-.595-.642,0-.54.424-.819,1.124-.814v-.035c0-.142-.051-.376-.385-.376-.188,0-.382.066-.51.16l-.094-.354c.14-.098.385-.19.685-.19.607,0,.782.438.782.912v.774ZM124.836,13.987c-.339-.004-.661.075-.661.403,0,.212.12.31.271.31.195,0,.331-.142.378-.296.012-.04.012-.08.012-.12v-.296Z" fill="#fff"/>
    <path d="M126.266,12.332v.553h.455v.407h-.455v.952c0,.265.062.398.245.398.085,0,.132-.004.187-.022l.008.412c-.07.031-.198.058-.347.058-.179,0-.322-.066-.412-.177-.105-.124-.151-.323-.151-.606v-1.014h-.269v-.407h.269v-.403l.471-.15Z" fill="#fff"/>
    <path d="M127.331,14.115c.012.389.275.558.583.558.222,0,.378-.04.525-.098l.07.372c-.163.08-.39.137-.661.137-.615,0-.978-.429-.978-1.089,0-.597.319-1.159.927-1.159.614,0,.816.575.816,1.049,0,.102-.008.181-.015.23h-1.269ZM128.163,13.735c.004-.199-.073-.527-.393-.527-.296,0-.42.305-.439.527h.832Z" fill="#fff"/>
    <path d="M128.932,13.527c0-.248-.008-.456-.016-.642h.416l.023.323h.012c.086-.168.292-.372.607-.372.33,0,.673.243.673.925v1.279h-.479v-1.217c0-.31-.102-.544-.362-.544-.19,0-.322.155-.373.319-.016.044-.023.11-.023.172v1.27h-.479v-1.513Z" fill="#fff"/>
    <path d="M131.619,12.332v.553h.455v.407h-.455v.952c0,.265.062.398.245.398.085,0,.132-.004.187-.022l.008.412c-.07.031-.198.058-.347.058-.179,0-.322-.066-.412-.177-.105-.124-.151-.323-.151-.606v-1.014h-.269v-.407h.269v-.403l.471-.15Z" fill="#fff"/>
    <path d="M132.349,14.535c.105.075.312.159.482.159.21,0,.304-.102.304-.243,0-.146-.078-.217-.312-.314-.369-.142-.521-.372-.521-.628,0-.38.276-.672.716-.672.211,0,.394.058.506.128l-.097.38c-.078-.053-.233-.124-.401-.124-.171,0-.265.098-.265.23,0,.137.09.199.331.301.347.137.502.336.506.655,0,.394-.269.677-.771.677-.229,0-.436-.062-.576-.151l.098-.398Z" fill="#fff"/>
    <path d="M135.172,12.283c0,.159-.105.292-.272.292-.159,0-.265-.133-.265-.292,0-.168.109-.296.269-.296.163,0,.265.128.269.296ZM134.662,15.04v-2.155h.479v2.155h-.479Z" fill="#fff"/>
    <path d="M135.572,14.535c.105.075.312.159.482.159.21,0,.304-.102.304-.243,0-.146-.078-.217-.312-.314-.369-.142-.521-.372-.521-.628,0-.38.276-.672.716-.672.211,0,.394.058.506.128l-.097.38c-.078-.053-.233-.124-.401-.124-.171,0-.265.098-.265.23,0,.137.09.199.331.301.347.137.502.336.506.655,0,.394-.269.677-.771.677-.229,0-.436-.062-.576-.151l.098-.398Z" fill="#fff"/>
    <path d="M137.127,14.535c.105.075.312.159.482.159.21,0,.304-.102.304-.243,0-.146-.078-.217-.312-.314-.369-.142-.521-.372-.521-.628,0-.38.276-.672.716-.672.211,0,.394.058.506.128l-.097.38c-.078-.053-.233-.124-.401-.124-.171,0-.265.098-.265.23,0,.137.09.199.331.301.347.137.502.336.506.655,0,.394-.269.677-.771.677-.229,0-.436-.062-.576-.151l.098-.398Z" fill="#fff"/>
    <path d="M140.397,14.394c0,.256.008.469.016.646h-.416l-.023-.323h-.012c-.082.151-.269.372-.611.372s-.657-.235-.657-.938v-1.265h.479v1.172c0,.358.102.588.354.588.194,0,.318-.15.365-.292.02-.044.027-.106.027-.168v-1.301h.479v1.509Z" fill="#fff"/>
    <path d="M141.186,14.115c.012.389.275.558.583.558.222,0,.378-.04.525-.098l.07.372c-.163.08-.39.137-.661.137-.615,0-.978-.429-.978-1.089,0-.597.319-1.159.927-1.159.614,0,.816.575.816,1.049,0,.102-.008.181-.015.23h-1.269ZM142.018,13.735c.004-.199-.073-.527-.393-.527-.296,0-.42.305-.439.527h.832Z" fill="#fff"/>
    <path d="M144.534,11.898v2.535c0,.222.008.46.016.606h-.424l-.023-.341h-.008c-.113.239-.343.39-.615.39-.455,0-.813-.438-.813-1.102-.004-.721.394-1.15.849-1.15.261,0,.447.12.533.279h.008v-1.217h.479ZM144.056,13.783c0-.044-.004-.102-.012-.146-.043-.208-.194-.38-.412-.38-.308,0-.479.31-.479.708s.171.686.475.686c.194,0,.365-.15.412-.385.012-.049.016-.102.016-.159v-.323Z" fill="#fff"/>
    <path d="M147.188,14.522c0,.194.008.385.031.518h-.432l-.035-.239h-.012c-.113.168-.312.288-.561.288-.381,0-.596-.314-.596-.642,0-.54.425-.819,1.125-.814v-.035c0-.142-.051-.376-.385-.376-.188,0-.382.066-.51.16l-.094-.354c.14-.098.385-.19.685-.19.607,0,.782.438.782.912v.774ZM146.722,13.987c-.339-.004-.661.075-.661.403,0,.212.12.31.272.31.194,0,.33-.142.377-.296.012-.04.012-.08.012-.12v-.296Z" fill="#fff"/>
    <path d="M147.627,13.527c0-.248-.008-.456-.016-.642h.416l.023.323h.012c.086-.168.292-.372.607-.372.33,0,.673.243.673.925v1.279h-.479v-1.217c0-.31-.102-.544-.362-.544-.19,0-.322.155-.373.319-.016.044-.023.11-.023.172v1.27h-.479v-1.513Z" fill="#fff"/>
    <path d="M151.531,11.898v2.535c0,.222.008.46.016.606h-.424l-.023-.341h-.008c-.113.239-.343.39-.615.39-.455,0-.813-.438-.813-1.102-.004-.721.394-1.15.849-1.15.261,0,.447.12.533.279h.008v-1.217h.479ZM151.053,13.783c0-.044-.004-.102-.012-.146-.043-.208-.194-.38-.412-.38-.308,0-.479.31-.479.708s.172.686.476.686c.194,0,.365-.15.412-.385.012-.049.016-.102.016-.159v-.323Z" fill="#fff"/>
    <path d="M152.735,12.097c.175-.035.412-.062.731-.062.351,0,.604.084.771.243.155.146.257.38.257.659,0,.283-.078.514-.222.673-.195.217-.49.323-.829.323-.09,0-.167-.004-.233-.022v1.128h-.475v-2.943ZM153.21,13.482c.062.022.136.026.233.026.358,0,.576-.203.576-.548,0-.332-.202-.504-.533-.504-.133,0-.226.013-.276.026v1Z" fill="#fff"/>
    <path d="M155.064,14.115c.012.389.276.558.583.558.222,0,.378-.04.525-.098l.07.372c-.163.08-.39.137-.661.137-.615,0-.978-.429-.978-1.089,0-.597.319-1.159.927-1.159.614,0,.816.575.816,1.049,0,.102-.008.181-.015.23h-1.269ZM155.896,13.735c.004-.199-.073-.527-.393-.527-.296,0-.42.305-.439.527h.832Z" fill="#fff"/>
    <path d="M156.665,13.527c0-.248-.008-.456-.016-.642h.416l.023.323h.012c.086-.168.292-.372.607-.372.33,0,.673.243.673.925v1.279h-.479v-1.217c0-.31-.102-.544-.362-.544-.19,0-.322.155-.373.319-.016.044-.023.11-.023.172v1.27h-.479v-1.513Z" fill="#fff"/>
    <path d="M160.569,11.898v2.535c0,.222.008.46.016.606h-.424l-.023-.341h-.008c-.113.239-.343.39-.615.39-.455,0-.813-.438-.813-1.102-.004-.721.394-1.15.849-1.15.261,0,.447.12.533.279h.008v-1.217h.479ZM160.091,13.783c0-.044-.004-.102-.012-.146-.043-.208-.194-.38-.412-.38-.308,0-.479.31-.479.708s.171.686.475.686c.194,0,.365-.15.412-.385.012-.049.016-.102.016-.159v-.323Z" fill="#fff"/>
    <path d="M161.525,12.283c0,.159-.105.292-.272.292-.159,0-.265-.133-.265-.292,0-.168.109-.296.269-.296.163,0,.265.128.269.296ZM161.015,15.04v-2.155h.479v2.155h-.479Z" fill="#fff"/>
    <path d="M161.944,13.527c0-.248-.008-.456-.016-.642h.416l.023.323h.012c.086-.168.292-.372.607-.372.33,0,.673.243.673.925v1.279h-.479v-1.217c0-.31-.102-.544-.362-.544-.19,0-.322.155-.373.319-.016.044-.023.11-.023.172v1.27h-.479v-1.513Z" fill="#fff"/>
    <path d="M165.817,14.726c0,.451-.082.774-.28.978-.194.199-.471.261-.731.261-.241,0-.498-.062-.661-.172l.104-.412c.121.08.323.164.553.164.312,0,.545-.186.545-.65v-.186h-.008c-.109.19-.3.319-.553.319-.471,0-.806-.442-.806-1.053,0-.708.405-1.137.86-1.137.292,0,.459.159.549.336h.008l.02-.288h.416c-.008.146-.016.323-.016.619v1.222ZM165.339,13.748c0-.053-.004-.102-.016-.146-.051-.199-.187-.35-.389-.35-.269,0-.467.265-.467.704,0,.367.163.664.463.664.179,0,.334-.133.389-.332.016-.053.02-.128.02-.19v-.35Z" fill="#fff"/>
    <path d="M165.975,15.575c.104-.336.21-.801.261-1.168l.502-.044c-.113.416-.284.894-.436,1.177l-.327.036Z" fill="#fff"/>
    <path d="M167.803,14.447c.151.102.389.19.634.19.304,0,.475-.164.475-.407,0-.226-.132-.358-.463-.496-.436-.177-.712-.438-.712-.868,0-.491.358-.858.93-.858.284,0,.49.071.627.15l-.113.438c-.097-.058-.279-.142-.524-.142-.304,0-.433.181-.433.358,0,.23.152.336.502.491.455.194.674.456.674.885,0,.482-.319.898-.993.898-.279,0-.567-.089-.712-.19l.109-.451Z" fill="#fff"/>
    <path d="M170.104,14.115c.012.389.275.558.583.558.222,0,.378-.04.525-.098l.07.372c-.163.08-.39.137-.661.137-.615,0-.978-.429-.978-1.089,0-.597.319-1.159.927-1.159.614,0,.816.575.816,1.049,0,.102-.008.181-.015.23h-1.269ZM170.936,13.735c.004-.199-.073-.527-.393-.527-.296,0-.42.305-.439.527h.832Z" fill="#fff"/>
    <path d="M172.044,14.115c.012.389.275.558.583.558.222,0,.378-.04.525-.098l.07.372c-.163.08-.39.137-.661.137-.615,0-.978-.429-.978-1.089,0-.597.319-1.159.927-1.159.614,0,.816.575.816,1.049,0,.102-.008.181-.015.23h-1.269ZM172.876,13.735c.004-.199-.073-.527-.393-.527-.296,0-.42.305-.439.527h.832Z" fill="#fff"/>
    <path d="M174.384,11.898h.479v1.283h.008c.117-.208.323-.345.607-.345.463,0,.793.438.789,1.093,0,.774-.432,1.16-.859,1.16-.245,0-.463-.106-.6-.372h-.008l-.023.323h-.408c.008-.146.016-.385.016-.606v-2.535ZM174.862,14.15c0,.044.004.089.012.128.051.221.218.381.424.381.3,0,.482-.27.482-.708,0-.381-.159-.69-.479-.69-.194,0-.373.159-.424.398-.008.04-.016.089-.016.142v.35Z" fill="#fff"/>
    <path d="M178.393,13.942c0,.792-.49,1.146-.973,1.146-.533,0-.95-.416-.95-1.111,0-.708.409-1.142.981-1.142.563,0,.941.451.941,1.106ZM176.965,13.965c0,.416.184.73.472.73.271,0,.463-.301.463-.739,0-.336-.133-.726-.459-.726-.339,0-.476.376-.476.735Z" fill="#fff"/>
    <path d="M180.52,13.942c0,.792-.49,1.146-.973,1.146-.533,0-.95-.416-.95-1.111,0-.708.409-1.142.981-1.142.563,0,.941.451.941,1.106ZM179.092,13.965c0,.416.184.73.472.73.271,0,.463-.301.463-.739,0-.336-.133-.726-.459-.726-.339,0-.476.376-.476.735Z" fill="#fff"/>
    <path d="M181.323,13.832h.008c.047-.084.102-.177.147-.252l.464-.694h.575l-.704.88.802,1.274h-.588l-.545-.951-.159.217v.734h-.479v-3.142h.479v1.934Z" fill="#fff"/>
    <path d="M182.811,11.898h.479v3.142h-.479v-3.142Z" fill="#fff"/>
    <path d="M184.084,14.115c.012.389.276.558.583.558.222,0,.378-.04.525-.098l.07.372c-.163.08-.39.137-.661.137-.615,0-.978-.429-.978-1.089,0-.597.319-1.159.927-1.159.614,0,.816.575.816,1.049,0,.102-.008.181-.015.23h-1.269ZM184.916,13.735c.004-.199-.073-.527-.393-.527-.296,0-.42.305-.439.527h.832Z" fill="#fff"/>
    <path d="M186.233,12.332v.553h.455v.407h-.455v.952c0,.265.062.398.245.398.085,0,.132-.004.187-.022l.008.412c-.07.031-.198.058-.347.058-.179,0-.322-.066-.412-.177-.105-.124-.151-.323-.151-.606v-1.014h-.269v-.407h.269v-.403l.471-.15Z" fill="#fff"/>
    <path d="M186.901,14.739c0-.204.125-.35.296-.35.175,0,.296.142.296.35,0,.199-.117.35-.3.35-.171,0-.292-.15-.292-.35Z" fill="#fff"/>
  </g>
  <g>
    <path d="M27.363,13.579c0,.929-.319,1.509-.926,1.509-.58,0-.892-.602-.896-1.478,0-.898.335-1.496.927-1.496.61,0,.895.619.895,1.464ZM26.025,13.606c0,.704.167,1.066.428,1.066.284,0,.428-.39.428-1.08,0-.668-.136-1.062-.424-1.062-.253,0-.432.358-.432,1.075Z" fill="#fff"/>
    <path d="M27.575,14.739c0-.204.125-.35.296-.35.175,0,.296.142.296.35,0,.199-.117.35-.3.35-.171,0-.292-.15-.292-.35Z" fill="#fff"/>
    <path d="M29.882,12.553c-.07-.004-.147,0-.241.013-.533.071-.786.438-.848.836h.011c.125-.164.315-.279.568-.279.436,0,.774.354.774.938,0,.549-.354,1.027-.891,1.027-.615,0-.953-.531-.953-1.244,0-.553.175-1,.439-1.283.229-.252.537-.394.898-.425.105-.018.183-.018.241-.013v.429ZM29.66,14.093c0-.336-.159-.571-.439-.571-.179,0-.339.124-.413.296-.019.044-.03.097-.03.172.008.381.163.69.479.69.245,0,.404-.243.404-.588Z" fill="#fff"/>
    <path d="M30.846,15.04l-.642-2.982h.51l.249,1.354c.065.363.128.744.171,1.04h.008c.043-.314.117-.668.19-1.044l.284-1.35h.502l.261,1.372c.062.354.121.686.159,1.009h.008c.047-.328.109-.668.18-1.036l.272-1.345h.486l-.709,2.982h-.51l-.271-1.403c-.066-.341-.113-.624-.148-.947h-.008c-.043.318-.093.606-.171.947l-.304,1.403h-.518Z" fill="#fff"/>
  </g>
  <g>
    <rect x="20.39" y="12.953" width="4.188" height=".4" fill="#fff"/>
    <rect x="20.39" y="13.971" width=".992" height=".4" fill="#fff"/>
    <rect x="21.989" y="13.971" width=".991" height=".4" fill="#fff"/>
    <rect x="23.588" y="13.971" width=".991" height=".4" fill="#fff"/>
  </g>
  <g>
    <path d="M84.948,11.741c.974,0,1.766.792,1.766,1.766s-.792,1.766-1.766,1.766-1.766-.792-1.766-1.766.792-1.766,1.766-1.766M84.948,11.486c-1.116,0-2.02.904-2.02,2.02s.904,2.02,2.02,2.02,2.02-.904,2.02-2.02-.904-2.02-2.02-2.02h0Z" fill="#fff"/>
    <path d="M85.625,14.628c-.097.049-.312.105-.587.105-.719,0-1.155-.472-1.155-1.198,0-.783.521-1.255,1.212-1.255.272,0,.464.06.548.106l-.088.345c-.107-.049-.258-.092-.443-.092-.459,0-.792.303-.792.875,0,.525.289.856.789.856.164,0,.339-.035.45-.084l.066.342Z" fill="#fff"/>
  </g>
  <g>
    <path d="M89.621,11.741c.974,0,1.766.792,1.766,1.766s-.792,1.766-1.766,1.766-1.766-.792-1.766-1.766.792-1.766,1.766-1.766M89.621,11.486c-1.116,0-2.02.904-2.02,2.02s.904,2.02,2.02,2.02,2.02-.904,2.02-2.02-.904-2.02-2.02-2.02h0Z" fill="#fff"/>
    <path d="M90.291,13.716c-.012-.293-.026-.647-.023-.955h-.009c-.065.277-.148.583-.237.87l-.293.985h-.278l-.267-.971c-.077-.29-.147-.601-.201-.884h-.006c-.009.297-.021.658-.035.968l-.045.914h-.34l.133-2.273h.479l.261.914c.071.266.133.536.184.789h.009c.053-.246.121-.526.198-.792l.275-.911h.474l.115,2.273h-.355l-.038-.927Z" fill="#fff"/>
  </g>
  <g>
    <g>
      <path d="M113.638,7.24l-.278,1.087h-.907l1.186-4.237h1.156l1.215,4.237h-.955l-.3-1.087h-1.116ZM114.626,6.523l-.243-.899c-.069-.251-.139-.566-.196-.817h-.012c-.058.251-.115.572-.179.817l-.231.899h.861Z" fill="#fff"/>
      <path d="M119.638,8.133c-.271.101-.787.239-1.302.239-.711,0-1.226-.195-1.584-.566-.353-.371-.55-.924-.55-1.546.006-1.408.948-2.213,2.227-2.213.503,0,.891.107,1.082.201l-.186.773c-.214-.107-.475-.183-.902-.183-.734,0-1.295.447-1.295,1.371,0,.88.509,1.39,1.231,1.39.196,0,.358-.025.428-.057v-.893h-.602v-.748h1.452v2.232Z" fill="#fff"/>
      <path d="M120.329,4.147c.231-.044.693-.088,1.139-.088.538,0,.868.057,1.157.239.271.157.463.446.463.836,0,.371-.203.717-.643.899v.012c.445.126.775.497.775,1.038,0,.39-.162.691-.405.905-.283.245-.758.383-1.532.383-.434,0-.758-.031-.954-.063v-4.162ZM121.202,5.769h.289c.469,0,.712-.208.712-.522,0-.32-.226-.49-.625-.49-.196,0-.307.013-.376.025v.987ZM121.202,7.648c.087.013.19.013.341.013.399,0,.752-.169.752-.616,0-.421-.353-.591-.792-.591h-.301v1.194Z" fill="#fff"/>
    </g>
    <rect x="123.632" y="6.476" width="1.426" height=".526" fill="#fff"/>
    <g>
      <path d="M129.145,6.18c0,1.386-.759,2.216-1.889,2.216-1.136,0-1.809-.942-1.809-2.147,0-1.261.741-2.203,1.871-2.203,1.182,0,1.826.967,1.826,2.134ZM126.366,6.23c0,.83.354,1.411.937,1.411.588,0,.924-.612.924-1.429,0-.761-.325-1.41-.924-1.41-.594,0-.937.611-.937,1.429Z" fill="#fff"/>
      <path d="M133.232,6.18c0,1.386-.759,2.216-1.889,2.216-1.136,0-1.809-.942-1.809-2.147,0-1.261.741-2.203,1.871-2.203,1.182,0,1.826.967,1.826,2.134ZM130.453,6.23c0,.83.354,1.411.937,1.411.588,0,.924-.612.924-1.429,0-.761-.325-1.41-.924-1.41-.594,0-.937.611-.937,1.429Z" fill="#fff"/>
      <path d="M134.931,5.034h-.013l-.793.377-.16-.729,1.106-.512h.799v4.156h-.939v-3.292Z" fill="#fff"/>
    </g>
  </g>
  <g>
    <path d="M164.333,35.376c-.077.042-.26.094-.49.094-.665,0-1.008-.472-1.008-1.093,0-.744.468-1.155,1.051-1.155.225,0,.396.049.474.098l-.092.388c-.086-.042-.208-.081-.365-.081-.343,0-.61.236-.61.722,0,.437.229.712.613.712.134,0,.276-.029.365-.071l.062.388Z" fill="#fff"/>
    <path d="M164.648,35.561l.61-2.345h.288l-.61,2.345h-.288Z" fill="#fff"/>
    <path d="M166.353,34.875l-.138.56h-.447l.585-2.181h.57l.6,2.181h-.472l-.148-.56h-.55ZM166.841,34.506l-.119-.462c-.035-.13-.069-.292-.098-.421h-.006c-.028.129-.057.294-.088.421l-.114.462h.425Z" fill="#fff"/>
    <path d="M169.481,35.334c-.134.052-.389.123-.643.123-.351,0-.604-.1-.781-.291-.174-.19-.271-.476-.271-.796.003-.725.468-1.139,1.099-1.139.248,0,.439.056.534.104l-.092.398c-.105-.056-.234-.094-.445-.094-.362,0-.639.229-.639.705,0,.452.251.715.607.715.097,0,.177-.013.211-.029v-.459h-.297v-.386h.717v1.148Z" fill="#fff"/>
    <path d="M169.99,33.283c.114-.022.342-.045.562-.045.266,0,.429.029.571.123.134.08.229.229.229.43,0,.191-.101.369-.317.463v.007c.22.064.383.255.383.533,0,.2-.08.356-.2.466-.14.126-.374.197-.756.197-.214,0-.374-.016-.471-.032v-2.142ZM170.421,34.118h.143c.231,0,.352-.106.352-.269,0-.165-.111-.252-.309-.252-.097,0-.151.006-.186.013v.508ZM170.421,35.085c.043.007.094.007.168.007.197,0,.371-.088.371-.317,0-.217-.174-.304-.391-.304h-.148v.614Z" fill="#fff"/>
    <path d="M172.527,34.48v.326h-.747v-.326h.747Z" fill="#fff"/>
    <path d="M173.405,33.254v1.252c0,.379.128.569.348.569.229,0,.354-.181.354-.569v-1.252h.434v1.223c0,.674-.3.993-.802.993-.485,0-.768-.307-.768-.999v-1.217h.434Z" fill="#fff"/>
    <path d="M175.099,34.927c.114.067.297.136.482.136.2,0,.306-.094.306-.236,0-.136-.092-.213-.322-.304-.32-.13-.531-.33-.531-.647,0-.372.277-.653.728-.653.22,0,.377.049.491.11l-.097.395c-.074-.042-.215-.104-.4-.104-.188,0-.279.101-.279.21,0,.14.105.201.356.308.34.143.497.343.497.65,0,.365-.245.676-.773.676-.22,0-.437-.067-.545-.136l.088-.404Z" fill="#fff"/>
    <path d="M177.245,34.875l-.138.56h-.447l.585-2.181h.57l.6,2.181h-.472l-.147-.56h-.551ZM177.732,34.506l-.12-.462c-.034-.13-.068-.292-.097-.421h-.006c-.028.129-.057.294-.088.421l-.114.462h.425Z" fill="#fff"/>
    <path d="M179.482,34.48v.326h-.747v-.326h.747Z" fill="#fff"/>
    <path d="M180.412,33.769h-.006l-.354.19-.071-.368.494-.259h.356v2.103h-.419v-1.666Z" fill="#fff"/>
  </g>
  <g>
    <path d="M3.533,17.074h-.665v-.405h1.764v.405h-.672v2.248h-.427v-2.248Z" fill="#fff"/>
    <path d="M5.268,16.669v1.062h.987v-1.062h.426v2.653h-.426v-1.169h-.987v1.169h-.426v-2.653h.426Z" fill="#fff"/>
    <path d="M7.533,16.669v2.653h-.426v-2.653h.426Z" fill="#fff"/>
    <path d="M7.953,18.795c.135.091.346.169.564.169.271,0,.423-.146.423-.362,0-.2-.118-.318-.412-.44-.389-.157-.635-.39-.635-.771,0-.438.319-.764.828-.764.253,0,.437.062.558.134l-.101.39c-.086-.052-.249-.126-.467-.126-.271,0-.385.161-.385.318,0,.205.135.3.446.438.405.173.6.405.6.787,0,.429-.284.799-.884.799-.249,0-.505-.078-.634-.169l.098-.401Z" fill="#fff"/>
    <path d="M10.246,16.704c.19-.031.426-.055.679-.055.437,0,.734.103.949.307.229.209.367.527.367.977,0,.477-.143.827-.364,1.055-.231.24-.603.362-1.056.362-.246,0-.434-.016-.575-.035v-2.61ZM10.672,18.956c.059.012.149.012.235.012.555.004.884-.347.884-1.02.003-.583-.295-.921-.828-.921-.135,0-.229.012-.291.027v1.901Z" fill="#fff"/>
    <path d="M13.853,18.145h-.88v.779h.983v.397h-1.409v-2.653h1.357v.397h-.932v.686h.88v.394Z" fill="#fff"/>
    <path d="M14.83,19.322l-.755-2.653h.464l.318,1.209c.091.334.17.642.229.964h.007c.062-.314.148-.638.238-.96l.34-1.213h.454l-.808,2.653h-.488Z" fill="#fff"/>
    <path d="M16.741,16.669v2.653h-.426v-2.653h.426Z" fill="#fff"/>
    <path d="M18.842,19.247c-.101.056-.322.118-.606.118-.741,0-1.191-.527-1.191-1.338,0-.874.537-1.401,1.251-1.401.28,0,.478.066.564.118l-.091.386c-.11-.056-.267-.103-.457-.103-.475,0-.817.338-.817.977,0,.586.298.956.814.956.17,0,.35-.039.464-.095l.069.382Z" fill="#fff"/>
    <path d="M20.448,18.145h-.88v.779h.983v.397h-1.409v-2.653h1.357v.397h-.932v.686h.88v.394Z" fill="#fff"/>
    <path d="M23.087,19.247c-.101.056-.322.118-.606.118-.741,0-1.191-.527-1.191-1.338,0-.874.537-1.401,1.251-1.401.28,0,.478.066.564.118l-.091.386c-.11-.056-.267-.103-.457-.103-.475,0-.817.338-.817.977,0,.586.298.956.814.956.17,0,.35-.039.464-.095l.069.382Z" fill="#fff"/>
    <path d="M25.369,17.967c0,.89-.475,1.397-1.115,1.397-.662,0-1.077-.574-1.077-1.35,0-.819.453-1.394,1.111-1.394.679,0,1.081.586,1.081,1.346ZM23.627,18.004c0,.543.239.972.647.972.412,0,.645-.437.645-.992,0-.5-.219-.972-.645-.972-.423,0-.647.444-.647.992Z" fill="#fff"/>
    <path d="M27.642,18.239c-.014-.342-.031-.756-.027-1.113h-.011c-.076.322-.173.681-.277,1.016l-.343,1.149h-.325l-.312-1.134c-.09-.339-.173-.701-.235-1.031h-.007c-.01.346-.024.768-.041,1.13l-.053,1.066h-.397l.155-2.653h.562l.305,1.066c.083.312.155.626.215.922h.01c.062-.288.143-.614.232-.926l.322-1.062h.554l.136,2.653h-.416l-.045-1.083Z" fill="#fff"/>
    <path d="M28.472,16.704c.155-.031.367-.055.651-.055.312,0,.536.074.686.216.139.131.229.339.229.587,0,.252-.069.457-.197.599-.173.192-.437.287-.738.287-.079,0-.148-.004-.207-.02v1.004h-.423v-2.618ZM28.894,17.936c.055.02.121.023.207.023.319,0,.513-.181.513-.488,0-.295-.18-.448-.475-.448-.117,0-.2.012-.245.023v.89Z" fill="#fff"/>
    <path d="M30.346,16.669h.426v2.248h.96v.405h-1.386v-2.653Z" fill="#fff"/>
    <path d="M32.417,16.669v2.653h-.426v-2.653h.426Z" fill="#fff"/>
    <path d="M34.15,18.145h-.88v.779h.983v.397h-1.409v-2.653h1.357v.397h-.932v.686h.88v.394Z" fill="#fff"/>
    <path d="M34.559,18.795c.135.091.346.169.564.169.271,0,.423-.146.423-.362,0-.2-.118-.318-.412-.44-.389-.157-.635-.39-.635-.771,0-.438.319-.764.828-.764.253,0,.437.062.558.134l-.101.39c-.086-.052-.249-.126-.468-.126-.27,0-.384.161-.384.318,0,.205.135.3.446.438.405.173.6.405.6.787,0,.429-.284.799-.883.799-.25,0-.506-.078-.635-.169l.098-.401Z" fill="#fff"/>
    <path d="M37.124,19.322l-.571-2.653h.454l.222,1.204c.059.323.114.662.152.926h.007c.038-.279.104-.595.17-.93l.253-1.2h.446l.232,1.221c.056.314.107.609.142.897h.007c.042-.292.098-.595.16-.922l.242-1.196h.433l-.63,2.653h-.454l-.242-1.248c-.06-.303-.101-.555-.132-.843h-.007c-.038.284-.083.54-.152.843l-.271,1.248h-.461Z" fill="#fff"/>
    <path d="M40.118,16.669v2.653h-.426v-2.653h.426Z" fill="#fff"/>
    <path d="M40.992,17.074h-.665v-.405h1.764v.405h-.672v2.248h-.427v-2.248Z" fill="#fff"/>
    <path d="M42.727,16.669v1.062h.987v-1.062h.426v2.653h-.426v-1.169h-.987v1.169h-.426v-2.653h.426Z" fill="#fff"/>
    <path d="M45.116,16.704c.155-.031.367-.055.651-.055.312,0,.536.074.686.216.139.131.229.339.229.587,0,.252-.069.457-.197.599-.173.192-.437.287-.738.287-.079,0-.148-.004-.207-.02v1.004h-.423v-2.618ZM45.539,17.936c.055.02.121.023.207.023.319,0,.513-.181.513-.488,0-.295-.18-.448-.475-.448-.117,0-.2.012-.245.023v.89Z" fill="#fff"/>
    <path d="M47.213,18.57l-.201.752h-.44l.749-2.653h.543l.759,2.653h-.461l-.211-.752h-.737ZM47.881,18.204l-.184-.653c-.045-.161-.083-.343-.117-.496h-.007c-.035.153-.073.339-.111.496l-.18.653h.599Z" fill="#fff"/>
    <path d="M48.885,16.708c.163-.035.398-.059.645-.059.336,0,.561.062.72.212.129.122.201.308.201.536,0,.342-.204.574-.426.661v.012c.17.071.27.256.325.512.076.331.139.638.184.74h-.437c-.034-.079-.094-.295-.155-.626-.069-.347-.177-.457-.42-.465h-.214v1.091h-.423v-2.614ZM49.307,17.878h.252c.288,0,.465-.174.465-.438,0-.287-.177-.425-.454-.425-.135,0-.222.012-.263.023v.839Z" fill="#fff"/>
    <path d="M51.255,17.074h-.665v-.405h1.764v.405h-.672v2.248h-.427v-2.248Z" fill="#fff"/>
    <path d="M53.685,17.2h-.007l-.412.236-.073-.366.551-.307h.354v2.559h-.412v-2.122Z" fill="#fff"/>
    <path d="M56.245,17.165h-.866l-.065.512c.048-.008.094-.012.159-.012.197,0,.398.051.547.165.17.122.295.339.295.649,0,.488-.356.886-.907.886-.264,0-.481-.074-.6-.149l.087-.366c.097.06.291.134.495.134.249,0,.488-.161.488-.464,0-.296-.19-.488-.638-.488-.128,0-.222.012-.308.023l.146-1.291h1.167v.401Z" fill="#fff"/>
    <path d="M59.323,17.967c0,.89-.475,1.397-1.115,1.397-.662,0-1.077-.574-1.077-1.35,0-.819.453-1.394,1.111-1.394.679,0,1.081.586,1.081,1.346ZM57.581,18.004c0,.543.239.972.647.972.412,0,.645-.437.645-.992,0-.5-.219-.972-.645-.972-.423,0-.647.444-.647.992Z" fill="#fff"/>
    <path d="M59.627,16.669h1.351v.397h-.925v.732h.859v.394h-.859v1.13h-.426v-2.653Z" fill="#fff"/>
    <path d="M62.209,17.074h-.665v-.405h1.764v.405h-.672v2.248h-.427v-2.248Z" fill="#fff"/>
    <path d="M63.944,16.669v1.062h.987v-1.062h.426v2.653h-.426v-1.169h-.987v1.169h-.426v-2.653h.426Z" fill="#fff"/>
    <path d="M67.089,18.145h-.88v.779h.983v.397h-1.409v-2.653h1.357v.397h-.932v.686h.88v.394Z" fill="#fff"/>
    <path d="M68.055,16.669h1.351v.397h-.925v.732h.859v.394h-.859v1.13h-.426v-2.653Z" fill="#fff"/>
    <path d="M71.429,19.247c-.101.056-.322.118-.606.118-.741,0-1.191-.527-1.191-1.338,0-.874.537-1.401,1.251-1.401.28,0,.478.066.564.118l-.091.386c-.11-.056-.267-.103-.457-.103-.475,0-.817.338-.817.977,0,.586.298.956.814.956.17,0,.35-.039.464-.095l.069.382Z" fill="#fff"/>
    <path d="M73.312,19.247c-.101.056-.322.118-.606.118-.741,0-1.191-.527-1.191-1.338,0-.874.537-1.401,1.251-1.401.28,0,.478.066.564.118l-.091.386c-.11-.056-.267-.103-.457-.103-.475,0-.817.338-.817.977,0,.586.298.956.814.956.17,0,.35-.039.464-.095l.069.382Z" fill="#fff"/>
    <path d="M74.163,16.708c.163-.035.398-.059.645-.059.336,0,.561.062.72.212.129.122.201.308.201.536,0,.342-.204.574-.426.661v.012c.17.071.27.256.325.512.076.331.139.638.184.74h-.437c-.034-.079-.094-.295-.155-.626-.069-.347-.177-.457-.42-.465h-.214v1.091h-.423v-2.614ZM74.586,17.878h.252c.288,0,.465-.174.465-.438,0-.287-.177-.425-.454-.425-.135,0-.222.012-.263.023v.839Z" fill="#fff"/>
    <path d="M76.479,16.669v1.547c0,.52.19.76.478.76.309,0,.492-.24.492-.76v-1.547h.426v1.516c0,.818-.371,1.181-.932,1.181-.54,0-.891-.342-.891-1.177v-1.52h.427Z" fill="#fff"/>
    <path d="M78.3,16.669h.426v2.248h.96v.405h-1.386v-2.653Z" fill="#fff"/>
    <path d="M81.251,18.145h-.88v.779h.983v.397h-1.409v-2.653h1.357v.397h-.932v.686h.88v.394Z" fill="#fff"/>
    <path d="M81.66,18.795c.135.091.346.169.564.169.271,0,.423-.146.423-.362,0-.2-.118-.318-.412-.44-.389-.157-.635-.39-.635-.771,0-.438.319-.764.828-.764.253,0,.437.062.558.134l-.101.39c-.086-.052-.249-.126-.467-.126-.271,0-.385.161-.385.318,0,.205.135.3.446.438.405.173.6.405.6.787,0,.429-.284.799-.884.799-.249,0-.505-.078-.634-.169l.098-.401Z" fill="#fff"/>
    <path d="M83.333,19.054c0-.182.11-.312.263-.312.156,0,.264.126.264.312,0,.177-.104.311-.267.311-.152,0-.26-.134-.26-.311Z" fill="#fff"/>
    <path d="M86.78,17.967c0,.89-.475,1.397-1.115,1.397-.662,0-1.077-.574-1.077-1.35,0-.819.453-1.394,1.111-1.394.679,0,1.081.586,1.081,1.346ZM85.038,18.004c0,.543.239.972.647.972.412,0,.645-.437.645-.992,0-.5-.219-.972-.645-.972-.423,0-.647.444-.647.992Z" fill="#fff"/>
    <path d="M87.084,16.704c.155-.031.367-.055.651-.055.312,0,.536.074.686.216.139.131.229.339.229.587,0,.252-.069.457-.197.599-.174.192-.437.287-.738.287-.079,0-.148-.004-.207-.02v1.004h-.423v-2.618ZM87.507,17.936c.055.02.121.023.207.023.319,0,.513-.181.513-.488,0-.295-.18-.448-.475-.448-.117,0-.2.012-.245.023v.89Z" fill="#fff"/>
    <path d="M90.264,18.145h-.88v.779h.983v.397h-1.409v-2.653h1.357v.397h-.932v.686h.88v.394Z" fill="#fff"/>
    <path d="M90.679,16.708c.163-.035.398-.059.645-.059.336,0,.561.062.72.212.129.122.201.308.201.536,0,.342-.204.574-.426.661v.012c.17.071.27.256.325.512.076.331.139.638.184.74h-.437c-.034-.079-.094-.295-.155-.626-.069-.347-.177-.457-.42-.465h-.214v1.091h-.423v-2.614ZM91.101,17.878h.252c.288,0,.465-.174.465-.438,0-.287-.177-.425-.454-.425-.135,0-.222.012-.263.023v.839Z" fill="#fff"/>
    <path d="M93.079,18.57l-.201.752h-.44l.749-2.653h.543l.759,2.653h-.46l-.212-.752h-.737ZM93.747,18.204l-.184-.653c-.045-.161-.083-.343-.117-.496h-.007c-.035.153-.073.339-.111.496l-.18.653h.599Z" fill="#fff"/>
    <path d="M94.917,17.074h-.665v-.405h1.764v.405h-.672v2.248h-.427v-2.248Z" fill="#fff"/>
    <path d="M96.652,16.669v2.653h-.426v-2.653h.426Z" fill="#fff"/>
    <path d="M99.151,17.967c0,.89-.475,1.397-1.115,1.397-.662,0-1.077-.574-1.077-1.35,0-.819.453-1.394,1.111-1.394.679,0,1.081.586,1.081,1.346ZM97.409,18.004c0,.543.239.972.647.972.412,0,.645-.437.645-.992,0-.5-.219-.972-.645-.972-.423,0-.647.444-.647.992Z" fill="#fff"/>
    <path d="M99.45,19.322v-2.653h.488l.604,1.138c.152.295.29.603.397.89h.008c-.031-.354-.038-.696-.038-1.103v-.925h.395v2.653h-.443l-.609-1.169c-.149-.292-.302-.614-.416-.914l-.014.005c.018.342.024.692.024,1.129v.949h-.396Z" fill="#fff"/>
    <path d="M102.709,16.669v2.653h-.426v-2.653h.426Z" fill="#fff"/>
    <path d="M103.129,18.795c.135.091.346.169.564.169.271,0,.423-.146.423-.362,0-.2-.118-.318-.412-.44-.389-.157-.635-.39-.635-.771,0-.438.319-.764.828-.764.253,0,.437.062.558.134l-.101.39c-.086-.052-.249-.126-.467-.126-.271,0-.385.161-.385.318,0,.205.135.3.446.438.405.173.6.405.6.787,0,.429-.284.799-.884.799-.249,0-.505-.078-.634-.169l.098-.401Z" fill="#fff"/>
    <path d="M105.414,18.795c.135.091.346.169.564.169.271,0,.423-.146.423-.362,0-.2-.118-.318-.412-.44-.389-.157-.635-.39-.635-.771,0-.438.319-.764.828-.764.253,0,.437.062.558.134l-.101.39c-.086-.052-.249-.126-.467-.126-.271,0-.385.161-.385.318,0,.205.135.3.446.438.405.173.6.405.6.787,0,.429-.284.799-.884.799-.249,0-.505-.078-.634-.169l.098-.401Z" fill="#fff"/>
    <path d="M107.579,16.669v1.547c0,.52.19.76.478.76.309,0,.492-.24.492-.76v-1.547h.426v1.516c0,.818-.371,1.181-.932,1.181-.54,0-.891-.342-.891-1.177v-1.52h.427Z" fill="#fff"/>
    <path d="M109.399,16.708c.135-.031.381-.059.623-.059.312,0,.51.047.665.169.146.099.243.271.243.5,0,.244-.136.465-.389.571v.012c.246.07.472.291.472.653,0,.236-.091.421-.222.551-.167.162-.44.244-.87.244-.235,0-.412-.02-.522-.035v-2.606ZM109.822,17.756h.218c.298,0,.461-.158.461-.382,0-.252-.167-.366-.437-.366-.125,0-.197.008-.242.02v.729ZM109.822,18.971c.055.012.128.012.225.012.273,0,.52-.114.52-.44,0-.312-.239-.438-.533-.438h-.211v.866Z" fill="#fff"/>
    <path d="M111.796,16.669h.426v1.721c0,.731-.312.976-.772.976-.121,0-.267-.023-.359-.062l.052-.39c.069.027.162.047.263.047.243,0,.392-.126.392-.587v-1.704Z" fill="#fff"/>
    <path d="M113.934,18.145h-.88v.779h.983v.397h-1.409v-2.653h1.357v.397h-.932v.686h.88v.394Z" fill="#fff"/>
    <path d="M116.023,19.247c-.101.056-.322.118-.606.118-.741,0-1.191-.527-1.191-1.338,0-.874.537-1.401,1.251-1.401.28,0,.478.066.564.118l-.091.386c-.11-.056-.267-.103-.457-.103-.475,0-.817.338-.817.977,0,.586.298.956.814.956.17,0,.35-.039.464-.095l.069.382Z" fill="#fff"/>
    <path d="M116.839,17.074h-.665v-.405h1.764v.405h-.672v2.248h-.427v-2.248Z" fill="#fff"/>
    <path d="M119.029,17.074h-.665v-.405h1.764v.405h-.672v2.248h-.427v-2.248Z" fill="#fff"/>
    <path d="M122.312,17.967c0,.89-.475,1.397-1.115,1.397-.662,0-1.077-.574-1.077-1.35,0-.819.453-1.394,1.111-1.394.679,0,1.081.586,1.081,1.346ZM120.57,18.004c0,.543.239.972.647.972.412,0,.645-.437.645-.992,0-.5-.219-.972-.645-.972-.423,0-.647.444-.647.992Z" fill="#fff"/>
    <path d="M123.497,17.074h-.665v-.405h1.764v.405h-.672v2.248h-.427v-2.248Z" fill="#fff"/>
    <path d="M125.232,16.669v1.062h.987v-1.062h.426v2.653h-.426v-1.169h-.987v1.169h-.426v-2.653h.426Z" fill="#fff"/>
    <path d="M128.377,18.145h-.88v.779h.983v.397h-1.409v-2.653h1.357v.397h-.932v.686h.88v.394Z" fill="#fff"/>
    <path d="M129.343,16.669h1.351v.397h-.925v.732h.859v.394h-.859v1.13h-.426v-2.653Z" fill="#fff"/>
    <path d="M133.115,17.967c0,.89-.475,1.397-1.115,1.397-.662,0-1.077-.574-1.077-1.35,0-.819.453-1.394,1.111-1.394.679,0,1.081.586,1.081,1.346ZM131.373,18.004c0,.543.239.972.647.972.412,0,.645-.437.645-.992,0-.5-.219-.972-.645-.972-.423,0-.647.444-.647.992Z" fill="#fff"/>
    <path d="M133.419,16.669h.426v2.248h.96v.405h-1.386v-2.653Z" fill="#fff"/>
    <path d="M135.064,16.669h.426v2.248h.96v.405h-1.386v-2.653Z" fill="#fff"/>
    <path d="M138.645,17.967c0,.89-.475,1.397-1.115,1.397-.662,0-1.077-.574-1.077-1.35,0-.819.453-1.394,1.111-1.394.679,0,1.081.586,1.081,1.346ZM136.903,18.004c0,.543.239.972.647.972.412,0,.645-.437.645-.992,0-.5-.219-.972-.645-.972-.423,0-.647.444-.647.992Z" fill="#fff"/>
    <path d="M139.315,19.322l-.571-2.653h.454l.222,1.204c.059.323.114.662.152.926h.007c.038-.279.104-.595.17-.93l.253-1.2h.446l.232,1.221c.056.314.107.609.142.897h.007c.042-.292.098-.595.16-.922l.242-1.196h.433l-.63,2.653h-.454l-.242-1.248c-.06-.303-.101-.555-.132-.843h-.007c-.038.284-.083.54-.152.843l-.271,1.248h-.461Z" fill="#fff"/>
    <path d="M142.309,16.669v2.653h-.426v-2.653h.426Z" fill="#fff"/>
    <path d="M142.733,19.322v-2.653h.488l.604,1.138c.152.295.29.603.397.89h.008c-.031-.354-.038-.696-.038-1.103v-.925h.395v2.653h-.443l-.609-1.169c-.149-.292-.302-.614-.416-.914l-.014.005c.018.342.024.692.024,1.129v.949h-.396Z" fill="#fff"/>
    <path d="M146.886,19.2c-.148.063-.439.149-.748.149-.395,0-.696-.114-.918-.354-.208-.224-.325-.574-.325-.976.003-.843.526-1.378,1.299-1.378.287,0,.513.066.62.126l-.094.39c-.128-.067-.284-.114-.53-.114-.499,0-.849.335-.849.952,0,.603.326.961.811.961.156,0,.267-.023.322-.051v-.666h-.412v-.382h.824v1.343Z" fill="#fff"/>
    <path d="M148.139,17.074h-.665v-.405h1.764v.405h-.672v2.248h-.427v-2.248Z" fill="#fff"/>
    <path d="M149.943,19.322l-.571-2.653h.454l.222,1.204c.059.323.114.662.152.926h.007c.038-.279.104-.595.17-.93l.253-1.2h.446l.232,1.221c.056.314.107.609.142.897h.007c.042-.292.098-.595.16-.922l.242-1.196h.433l-.63,2.653h-.454l-.242-1.248c-.06-.303-.101-.555-.132-.843h-.007c-.038.284-.083.54-.152.843l-.271,1.248h-.461Z" fill="#fff"/>
    <path d="M154.565,17.967c0,.89-.475,1.397-1.115,1.397-.662,0-1.077-.574-1.077-1.35,0-.819.453-1.394,1.111-1.394.679,0,1.081.586,1.081,1.346ZM152.823,18.004c0,.543.239.972.647.972.412,0,.645-.437.645-.992,0-.5-.219-.972-.645-.972-.423,0-.647.444-.647.992Z" fill="#fff"/>
    <path d="M157.092,19.247c-.101.056-.322.118-.606.118-.741,0-1.191-.527-1.191-1.338,0-.874.537-1.401,1.251-1.401.28,0,.478.066.564.118l-.091.386c-.11-.056-.267-.103-.457-.103-.475,0-.817.338-.817.977,0,.586.298.956.814.956.17,0,.35-.039.464-.095l.069.382Z" fill="#fff"/>
    <path d="M159.374,17.967c0,.89-.475,1.397-1.115,1.397-.662,0-1.077-.574-1.077-1.35,0-.819.453-1.394,1.111-1.394.679,0,1.081.586,1.081,1.346ZM157.632,18.004c0,.543.239.972.647.972.412,0,.645-.437.645-.992,0-.5-.219-.972-.645-.972-.423,0-.647.444-.647.992Z" fill="#fff"/>
    <path d="M159.673,19.322v-2.653h.488l.604,1.138c.152.295.29.603.397.89h.008c-.031-.354-.038-.696-.038-1.103v-.925h.395v2.653h-.443l-.609-1.169c-.149-.292-.302-.614-.416-.914l-.014.005c.018.342.024.692.024,1.129v.949h-.396Z" fill="#fff"/>
    <path d="M161.955,16.704c.19-.031.426-.055.679-.055.437,0,.734.103.949.307.229.209.367.527.367.977,0,.477-.143.827-.364,1.055-.231.24-.603.362-1.056.362-.246,0-.434-.016-.575-.035v-2.61ZM162.381,18.956c.059.012.149.012.235.012.555.004.884-.347.884-1.02.003-.583-.295-.921-.828-.921-.135,0-.229.012-.291.027v1.901Z" fill="#fff"/>
    <path d="M164.683,16.669v2.653h-.426v-2.653h.426Z" fill="#fff"/>
    <path d="M165.557,17.074h-.665v-.405h1.764v.405h-.672v2.248h-.427v-2.248Z" fill="#fff"/>
    <path d="M167.293,16.669v2.653h-.426v-2.653h.426Z" fill="#fff"/>
    <path d="M169.792,17.967c0,.89-.475,1.397-1.115,1.397-.662,0-1.077-.574-1.077-1.35,0-.819.453-1.394,1.111-1.394.679,0,1.081.586,1.081,1.346ZM168.05,18.004c0,.543.239.972.647.972.412,0,.645-.437.645-.992,0-.5-.219-.972-.645-.972-.423,0-.647.444-.647.992Z" fill="#fff"/>
    <path d="M170.091,19.322v-2.653h.488l.604,1.138c.152.295.29.603.397.89h.008c-.031-.354-.038-.696-.038-1.103v-.925h.395v2.653h-.443l-.609-1.169c-.149-.292-.302-.614-.416-.914l-.014.005c.018.342.024.692.024,1.129v.949h-.396Z" fill="#fff"/>
    <path d="M172.366,18.795c.135.091.346.169.564.169.271,0,.423-.146.423-.362,0-.2-.118-.318-.412-.44-.389-.157-.635-.39-.635-.771,0-.438.319-.764.828-.764.253,0,.437.062.558.134l-.101.39c-.086-.052-.249-.126-.468-.126-.27,0-.384.161-.384.318,0,.205.135.3.446.438.405.173.6.405.6.787,0,.429-.284.799-.883.799-.25,0-.506-.078-.635-.169l.098-.401Z" fill="#fff"/>
    <path d="M174.039,17.731c0-.181.107-.311.263-.311.156,0,.26.126.26.311,0,.174-.104.308-.267.308-.148,0-.256-.134-.256-.308ZM174.039,19.058c0-.182.107-.312.263-.312.156,0,.26.126.26.312,0,.173-.104.307-.267.307-.148,0-.256-.134-.256-.307Z" fill="#fff"/>
    <path d="M176.114,16.444c-.222.374-.388.894-.388,1.603,0,.696.17,1.213.388,1.59h-.308c-.201-.314-.423-.83-.423-1.59.003-.771.222-1.283.423-1.603h.308Z" fill="#fff"/>
    <path d="M176.968,17.2h-.007l-.412.236-.073-.366.551-.307h.354v2.559h-.412v-2.122Z" fill="#fff"/>
    <path d="M178.041,19.636c.219-.373.389-.897.389-1.598s-.17-1.217-.389-1.595h.309c.201.312.423.823.423,1.595-.004.768-.222,1.279-.423,1.598h-.309Z" fill="#fff"/>
    <path d="M180.053,17.074h-.665v-.405h1.764v.405h-.672v2.248h-.427v-2.248Z" fill="#fff"/>
    <path d="M181.788,16.669v1.062h.987v-1.062h.426v2.653h-.426v-1.169h-.987v1.169h-.426v-2.653h.426Z" fill="#fff"/>
    <path d="M184.052,16.669v2.653h-.426v-2.653h.426Z" fill="#fff"/>
    <path d="M184.473,18.795c.135.091.346.169.564.169.271,0,.423-.146.423-.362,0-.2-.118-.318-.412-.44-.389-.157-.635-.39-.635-.771,0-.438.319-.764.828-.764.253,0,.437.062.558.134l-.101.39c-.086-.052-.249-.126-.467-.126-.271,0-.385.161-.385.318,0,.205.135.3.446.438.405.173.6.405.6.787,0,.429-.284.799-.884.799-.249,0-.505-.078-.634-.169l.098-.401Z" fill="#fff"/>
    <path d="M3.994,20.704c.19-.031.426-.055.679-.055.437,0,.734.103.949.307.229.209.367.527.367.977,0,.477-.143.827-.364,1.055-.231.24-.603.362-1.056.362-.246,0-.434-.016-.575-.035v-2.61ZM4.42,22.956c.059.012.149.012.235.012.555.004.884-.347.884-1.02.003-.583-.295-.921-.828-.921-.135,0-.229.012-.291.027v1.901Z" fill="#fff"/>
    <path d="M7.575,22.145h-.88v.779h.983v.397h-1.409v-2.653h1.357v.397h-.932v.686h.88v.394Z" fill="#fff"/>
    <path d="M8.523,23.322l-.755-2.653h.464l.318,1.209c.091.334.17.642.229.964h.007c.062-.314.148-.638.238-.96l.34-1.213h.454l-.808,2.653h-.488Z" fill="#fff"/>
    <path d="M10.407,20.669v2.653h-.426v-2.653h.426Z" fill="#fff"/>
    <path d="M12.479,23.247c-.101.056-.322.118-.606.118-.741,0-1.191-.527-1.191-1.338,0-.874.537-1.401,1.251-1.401.28,0,.478.066.564.118l-.091.386c-.11-.056-.267-.103-.457-.103-.475,0-.817.338-.817.977,0,.586.298.956.814.956.17,0,.35-.039.464-.095l.069.382Z" fill="#fff"/>
    <path d="M14.058,22.145h-.88v.779h.983v.397h-1.409v-2.653h1.357v.397h-.932v.686h.88v.394Z" fill="#fff"/>
    <path d="M16.938,22.239c-.014-.342-.031-.756-.027-1.113h-.011c-.076.322-.173.681-.277,1.016l-.343,1.149h-.325l-.312-1.134c-.09-.339-.173-.701-.235-1.031h-.007c-.01.346-.024.768-.041,1.13l-.053,1.066h-.397l.155-2.653h.562l.305,1.066c.083.312.155.626.215.922h.01c.062-.288.143-.614.232-.926l.322-1.062h.554l.136,2.653h-.416l-.045-1.083Z" fill="#fff"/>
    <path d="M18.186,22.57l-.201.752h-.44l.749-2.653h.543l.759,2.653h-.46l-.212-.752h-.737ZM18.854,22.204l-.184-.653c-.045-.161-.083-.343-.117-.496h-.007c-.035.153-.073.339-.111.496l-.18.653h.599Z" fill="#fff"/>
    <path d="M20.057,23.322v-1.106l-.738-1.547h.488l.277.681c.079.197.139.347.204.528h.007c.056-.17.121-.335.201-.528l.28-.681h.481l-.775,1.535v1.118h-.426Z" fill="#fff"/>
    <path d="M21.945,23.322v-2.653h.488l.604,1.138c.152.295.29.603.397.89h.008c-.031-.354-.038-.696-.038-1.103v-.925h.395v2.653h-.443l-.609-1.169c-.149-.292-.302-.614-.416-.914l-.014.005c.018.342.024.692.024,1.129v.949h-.396Z" fill="#fff"/>
    <path d="M26.27,21.967c0,.89-.475,1.397-1.115,1.397-.662,0-1.077-.574-1.077-1.35,0-.819.453-1.394,1.111-1.394.679,0,1.081.586,1.081,1.346ZM24.528,22.004c0,.543.239.972.647.972.412,0,.645-.437.645-.992,0-.5-.219-.972-.645-.972-.423,0-.647.444-.647.992Z" fill="#fff"/>
    <path d="M26.899,21.074h-.665v-.405h1.764v.405h-.672v2.248h-.427v-2.248Z" fill="#fff"/>
    <path d="M30.375,23.247c-.101.056-.322.118-.606.118-.741,0-1.191-.527-1.191-1.338,0-.874.537-1.401,1.251-1.401.28,0,.478.066.564.118l-.091.386c-.11-.056-.267-.103-.457-.103-.475,0-.817.338-.817.977,0,.586.298.956.814.956.17,0,.35-.039.464-.095l.069.382Z" fill="#fff"/>
    <path d="M31.14,22.57l-.201.752h-.44l.749-2.653h.543l.759,2.653h-.461l-.211-.752h-.737ZM31.808,22.204l-.184-.653c-.045-.161-.083-.343-.117-.496h-.007c-.035.153-.073.339-.111.496l-.18.653h.599Z" fill="#fff"/>
    <path d="M33.097,20.669v1.547c0,.52.19.76.478.76.309,0,.492-.24.492-.76v-1.547h.426v1.516c0,.818-.371,1.181-.932,1.181-.54,0-.891-.342-.891-1.177v-1.52h.427Z" fill="#fff"/>
    <path d="M34.883,22.795c.135.091.346.169.564.169.271,0,.423-.146.423-.362,0-.2-.118-.318-.412-.44-.389-.157-.635-.39-.635-.771,0-.438.319-.764.828-.764.253,0,.437.062.558.134l-.101.39c-.086-.052-.249-.126-.467-.126-.271,0-.385.161-.385.318,0,.205.135.3.446.438.405.173.6.405.6.787,0,.429-.284.799-.884.799-.249,0-.505-.078-.634-.169l.098-.401Z" fill="#fff"/>
    <path d="M37.902,22.145h-.88v.779h.983v.397h-1.409v-2.653h1.357v.397h-.932v.686h.88v.394Z" fill="#fff"/>
    <path d="M39.237,20.669v1.062h.987v-1.062h.426v2.653h-.426v-1.169h-.987v1.169h-.426v-2.653h.426Z" fill="#fff"/>
    <path d="M41.516,22.57l-.201.752h-.44l.749-2.653h.543l.759,2.653h-.46l-.212-.752h-.737ZM42.184,22.204l-.184-.653c-.045-.161-.083-.343-.117-.496h-.007c-.035.153-.073.339-.111.496l-.18.653h.599Z" fill="#fff"/>
    <path d="M43.16,20.708c.163-.035.398-.059.645-.059.336,0,.561.062.72.212.129.122.201.308.201.536,0,.342-.204.574-.426.661v.012c.17.071.27.256.325.512.076.331.139.638.184.74h-.437c-.034-.079-.094-.295-.155-.626-.069-.347-.177-.457-.42-.465h-.214v1.091h-.423v-2.614ZM43.583,21.878h.252c.288,0,.465-.174.465-.438,0-.287-.177-.425-.454-.425-.135,0-.222.012-.263.023v.839Z" fill="#fff"/>
    <path d="M47.012,22.239c-.014-.342-.031-.756-.027-1.113h-.011c-.076.322-.173.681-.277,1.016l-.343,1.149h-.325l-.312-1.134c-.09-.339-.173-.701-.235-1.031h-.007c-.01.346-.024.768-.041,1.13l-.053,1.066h-.397l.155-2.653h.562l.305,1.066c.083.312.155.626.215.922h.01c.062-.288.143-.614.232-.926l.322-1.062h.554l.136,2.653h-.416l-.045-1.083Z" fill="#fff"/>
    <path d="M47.812,20.669h1.351v.397h-.925v.732h.859v.394h-.859v1.13h-.426v-2.653Z" fill="#fff"/>
    <path d="M49.909,20.669v1.547c0,.52.19.76.478.76.309,0,.492-.24.492-.76v-1.547h.426v1.516c0,.818-.371,1.181-.932,1.181-.54,0-.891-.342-.891-1.177v-1.52h.427Z" fill="#fff"/>
    <path d="M51.701,20.669h.426v2.248h.96v.405h-1.386v-2.653Z" fill="#fff"/>
    <path d="M54.265,20.669v2.653h-.426v-2.653h.426Z" fill="#fff"/>
    <path d="M54.662,23.322v-2.653h.488l.604,1.138c.152.295.29.603.397.89h.008c-.031-.354-.038-.696-.038-1.103v-.925h.395v2.653h-.443l-.609-1.169c-.149-.292-.302-.614-.416-.914l-.014.005c.018.342.024.692.024,1.129v.949h-.396Z" fill="#fff"/>
    <path d="M57.362,21.074h-.665v-.405h1.764v.405h-.672v2.248h-.427v-2.248Z" fill="#fff"/>
    <path d="M59.95,22.145h-.88v.779h.983v.397h-1.409v-2.653h1.357v.397h-.932v.686h.88v.394Z" fill="#fff"/>
    <path d="M60.338,20.708c.163-.035.398-.059.645-.059.336,0,.561.062.72.212.129.122.201.308.201.536,0,.342-.204.574-.426.661v.012c.17.071.27.256.325.512.076.331.139.638.184.74h-.437c-.034-.079-.094-.295-.155-.626-.069-.347-.177-.457-.42-.465h-.214v1.091h-.423v-2.614ZM60.761,21.878h.252c.288,0,.465-.174.465-.438,0-.287-.177-.425-.454-.425-.135,0-.222.012-.263.023v.839Z" fill="#fff"/>
    <path d="M62.219,20.669h1.351v.397h-.925v.732h.859v.394h-.859v1.13h-.426v-2.653Z" fill="#fff"/>
    <path d="M65.197,22.145h-.88v.779h.983v.397h-1.409v-2.653h1.357v.397h-.932v.686h.88v.394Z" fill="#fff"/>
    <path d="M65.586,20.708c.163-.035.398-.059.645-.059.336,0,.561.062.72.212.129.122.201.308.201.536,0,.342-.204.574-.426.661v.012c.17.071.27.256.325.512.076.331.139.638.184.74h-.437c-.034-.079-.094-.295-.155-.626-.069-.347-.177-.457-.42-.465h-.214v1.091h-.423v-2.614ZM66.009,21.878h.252c.288,0,.465-.174.465-.438,0-.287-.177-.425-.454-.425-.135,0-.222.012-.263.023v.839Z" fill="#fff"/>
    <path d="M68.771,22.145h-.88v.779h.983v.397h-1.409v-2.653h1.357v.397h-.932v.686h.88v.394Z" fill="#fff"/>
    <path d="M69.156,23.322v-2.653h.488l.604,1.138c.152.295.29.603.397.89h.008c-.031-.354-.038-.696-.038-1.103v-.925h.395v2.653h-.443l-.609-1.169c-.149-.292-.302-.614-.416-.914l-.014.005c.018.342.024.692.024,1.129v.949h-.396Z" fill="#fff"/>
    <path d="M73.084,23.247c-.101.056-.322.118-.606.118-.741,0-1.191-.527-1.191-1.338,0-.874.537-1.401,1.251-1.401.28,0,.478.066.564.118l-.091.386c-.11-.056-.267-.103-.457-.103-.475,0-.817.338-.817.977,0,.586.298.956.814.956.17,0,.35-.039.464-.095l.069.382Z" fill="#fff"/>
    <path d="M74.662,22.145h-.88v.779h.983v.397h-1.409v-2.653h1.357v.397h-.932v.686h.88v.394Z" fill="#fff"/>
    <path d="M76.039,22.57l-.201.752h-.44l.749-2.653h.543l.759,2.653h-.461l-.211-.752h-.737ZM76.707,22.204l-.184-.653c-.045-.161-.083-.343-.117-.496h-.007c-.035.153-.073.339-.111.496l-.18.653h.599Z" fill="#fff"/>
    <path d="M77.68,23.322v-2.653h.488l.604,1.138c.152.295.29.603.397.89h.008c-.031-.354-.038-.696-.038-1.103v-.925h.395v2.653h-.443l-.609-1.169c-.149-.292-.302-.614-.416-.914l-.014.005c.018.342.024.692.024,1.129v.949h-.396Z" fill="#fff"/>
    <path d="M79.933,20.704c.19-.031.426-.055.679-.055.437,0,.734.103.949.307.229.209.367.527.367.977,0,.477-.143.827-.364,1.055-.231.24-.603.362-1.056.362-.246,0-.434-.016-.575-.035v-2.61ZM80.359,22.956c.059.012.149.012.235.012.555.004.884-.347.884-1.02.003-.583-.295-.921-.828-.921-.135,0-.229.012-.291.027v1.901Z" fill="#fff"/>
    <path d="M83.429,20.444c-.222.374-.388.894-.388,1.603,0,.696.17,1.213.388,1.59h-.308c-.201-.314-.423-.83-.423-1.59.003-.771.222-1.283.423-1.603h.308Z" fill="#fff"/>
    <path d="M83.587,23.322v-.295l.267-.28c.529-.559.779-.865.782-1.204,0-.229-.107-.43-.401-.43-.201,0-.367.114-.481.213l-.125-.343c.163-.149.409-.264.692-.264.499,0,.741.358.741.776,0,.448-.283.811-.679,1.224l-.193.193v.008h.921v.401h-1.523Z" fill="#fff"/>
    <path d="M85.3,23.636c.219-.373.389-.897.389-1.598s-.17-1.217-.389-1.595h.309c.201.312.423.823.423,1.595-.004.768-.222,1.279-.423,1.598h-.309Z" fill="#fff"/>
    <path d="M87.256,21.074h-.665v-.405h1.764v.405h-.672v2.248h-.427v-2.248Z" fill="#fff"/>
    <path d="M88.963,20.669v1.062h.987v-1.062h.426v2.653h-.426v-1.169h-.987v1.169h-.426v-2.653h.426Z" fill="#fff"/>
    <path d="M91.2,20.669v2.653h-.426v-2.653h.426Z" fill="#fff"/>
    <path d="M91.593,22.795c.135.091.346.169.564.169.271,0,.423-.146.423-.362,0-.2-.118-.318-.412-.44-.389-.157-.635-.39-.635-.771,0-.438.319-.764.828-.764.253,0,.437.062.558.134l-.101.39c-.086-.052-.249-.126-.468-.126-.27,0-.384.161-.384.318,0,.205.135.3.446.438.405.173.6.405.6.787,0,.429-.284.799-.883.799-.25,0-.506-.078-.635-.169l.098-.401Z" fill="#fff"/>
    <path d="M93.829,20.704c.19-.031.426-.055.679-.055.437,0,.734.103.949.307.229.209.367.527.367.977,0,.477-.143.827-.364,1.055-.231.24-.603.362-1.056.362-.246,0-.434-.016-.575-.035v-2.61ZM94.255,22.956c.059.012.149.012.235.012.555.004.884-.347.884-1.02.003-.583-.295-.921-.828-.921-.135,0-.229.012-.291.027v1.901Z" fill="#fff"/>
    <path d="M97.409,22.145h-.88v.779h.983v.397h-1.409v-2.653h1.357v.397h-.932v.686h.88v.394Z" fill="#fff"/>
    <path d="M98.358,23.322l-.755-2.653h.464l.318,1.209c.091.334.17.642.229.964h.007c.062-.314.148-.638.238-.96l.34-1.213h.454l-.808,2.653h-.488Z" fill="#fff"/>
    <path d="M100.241,20.669v2.653h-.426v-2.653h.426Z" fill="#fff"/>
    <path d="M102.314,23.247c-.101.056-.322.118-.606.118-.741,0-1.191-.527-1.191-1.338,0-.874.537-1.401,1.251-1.401.28,0,.478.066.564.118l-.091.386c-.11-.056-.267-.103-.457-.103-.475,0-.817.338-.817.977,0,.586.298.956.814.956.17,0,.35-.039.464-.095l.069.382Z" fill="#fff"/>
    <path d="M103.892,22.145h-.88v.779h.983v.397h-1.409v-2.653h1.357v.397h-.932v.686h.88v.394Z" fill="#fff"/>
    <path d="M106.772,22.239c-.014-.342-.031-.756-.027-1.113h-.011c-.076.322-.173.681-.277,1.016l-.343,1.149h-.325l-.312-1.134c-.09-.339-.173-.701-.235-1.031h-.007c-.01.346-.024.768-.041,1.13l-.053,1.066h-.397l.155-2.653h.562l.305,1.066c.083.312.155.626.215.922h.01c.062-.288.143-.614.232-.926l.322-1.062h.554l.136,2.653h-.416l-.045-1.083Z" fill="#fff"/>
    <path d="M107.997,20.669v1.547c0,.52.19.76.478.76.309,0,.492-.24.492-.76v-1.547h.426v1.516c0,.818-.371,1.181-.932,1.181-.54,0-.891-.342-.891-1.177v-1.52h.427Z" fill="#fff"/>
    <path d="M109.782,22.795c.135.091.346.169.564.169.271,0,.423-.146.423-.362,0-.2-.118-.318-.412-.44-.389-.157-.635-.39-.635-.771,0-.438.319-.764.828-.764.253,0,.437.062.558.134l-.101.39c-.086-.052-.249-.126-.468-.126-.27,0-.384.161-.384.318,0,.205.135.3.446.438.405.173.6.405.6.787,0,.429-.284.799-.883.799-.25,0-.506-.078-.635-.169l.098-.401Z" fill="#fff"/>
    <path d="M111.943,21.074h-.665v-.405h1.764v.405h-.672v2.248h-.427v-2.248Z" fill="#fff"/>
    <path d="M114.214,22.57l-.201.752h-.44l.749-2.653h.543l.759,2.653h-.46l-.212-.752h-.737ZM114.882,22.204l-.184-.653c-.045-.161-.083-.343-.117-.496h-.007c-.035.153-.073.339-.111.496l-.18.653h.599Z" fill="#fff"/>
    <path d="M117.459,23.247c-.101.056-.322.118-.606.118-.741,0-1.191-.527-1.191-1.338,0-.874.537-1.401,1.251-1.401.28,0,.478.066.564.118l-.091.386c-.11-.056-.267-.103-.457-.103-.475,0-.817.338-.817.977,0,.586.298.956.814.956.17,0,.35-.039.464-.095l.069.382Z" fill="#fff"/>
    <path d="M119.314,23.247c-.101.056-.322.118-.606.118-.741,0-1.191-.527-1.191-1.338,0-.874.537-1.401,1.251-1.401.28,0,.478.066.564.118l-.091.386c-.11-.056-.267-.103-.457-.103-.475,0-.817.338-.817.977,0,.586.298.956.814.956.17,0,.35-.039.464-.095l.069.382Z" fill="#fff"/>
    <path d="M120.893,22.145h-.88v.779h.983v.397h-1.409v-2.653h1.357v.397h-.932v.686h.88v.394Z" fill="#fff"/>
    <path d="M121.281,20.704c.155-.031.367-.055.651-.055.312,0,.536.074.686.216.139.131.229.339.229.587,0,.252-.069.457-.197.599-.174.192-.437.287-.738.287-.079,0-.148-.004-.207-.02v1.004h-.423v-2.618ZM121.704,21.936c.055.02.121.023.207.023.319,0,.513-.181.513-.488,0-.295-.18-.448-.475-.448-.117,0-.2.012-.245.023v.89Z" fill="#fff"/>
    <path d="M123.574,21.074h-.665v-.405h1.764v.405h-.672v2.248h-.427v-2.248Z" fill="#fff"/>
    <path d="M125.845,22.57l-.201.752h-.44l.749-2.653h.543l.759,2.653h-.46l-.212-.752h-.737ZM126.513,22.204l-.184-.653c-.045-.161-.083-.343-.117-.496h-.007c-.035.153-.073.339-.111.496l-.18.653h.599Z" fill="#fff"/>
    <path d="M127.484,23.322v-2.653h.488l.604,1.138c.152.295.29.603.397.89h.008c-.031-.354-.038-.696-.038-1.103v-.925h.395v2.653h-.443l-.609-1.169c-.149-.292-.302-.614-.416-.914l-.014.005c.018.342.024.692.024,1.129v.949h-.396Z" fill="#fff"/>
    <path d="M130.223,23.322v-1.106l-.737-1.547h.488l.277.681c.079.197.139.347.204.528h.007c.056-.17.121-.335.201-.528l.28-.681h.481l-.775,1.535v1.118h-.427Z" fill="#fff"/>
    <path d="M132.542,20.669v2.653h-.426v-2.653h.426Z" fill="#fff"/>
    <path d="M132.937,23.322v-2.653h.488l.604,1.138c.152.295.29.603.397.89h.008c-.031-.354-.038-.696-.038-1.103v-.925h.395v2.653h-.443l-.609-1.169c-.149-.292-.302-.614-.416-.914l-.014.005c.018.342.024.692.024,1.129v.949h-.396Z" fill="#fff"/>
    <path d="M135.639,21.074h-.665v-.405h1.764v.405h-.672v2.248h-.427v-2.248Z" fill="#fff"/>
    <path d="M138.225,22.145h-.88v.779h.983v.397h-1.409v-2.653h1.357v.397h-.932v.686h.88v.394Z" fill="#fff"/>
    <path d="M138.614,20.708c.163-.035.398-.059.645-.059.336,0,.561.062.72.212.129.122.201.308.201.536,0,.342-.204.574-.426.661v.012c.17.071.27.256.325.512.076.331.139.638.184.74h-.437c-.034-.079-.094-.295-.155-.626-.069-.347-.177-.457-.42-.465h-.214v1.091h-.423v-2.614ZM139.037,21.878h.252c.288,0,.465-.174.465-.438,0-.287-.177-.425-.454-.425-.135,0-.222.012-.263.023v.839Z" fill="#fff"/>
    <path d="M140.494,20.669h1.351v.397h-.925v.732h.859v.394h-.859v1.13h-.426v-2.653Z" fill="#fff"/>
    <path d="M143.473,22.145h-.88v.779h.983v.397h-1.409v-2.653h1.357v.397h-.932v.686h.88v.394Z" fill="#fff"/>
    <path d="M143.861,20.708c.163-.035.398-.059.645-.059.336,0,.561.062.72.212.129.122.201.308.201.536,0,.342-.204.574-.426.661v.012c.17.071.27.256.325.512.076.331.139.638.184.74h-.437c-.034-.079-.094-.295-.155-.626-.069-.347-.177-.457-.42-.465h-.214v1.091h-.423v-2.614ZM144.284,21.878h.252c.288,0,.465-.174.465-.438,0-.287-.177-.425-.454-.425-.135,0-.222.012-.263.023v.839Z" fill="#fff"/>
    <path d="M147.048,22.145h-.88v.779h.983v.397h-1.409v-2.653h1.357v.397h-.932v.686h.88v.394Z" fill="#fff"/>
    <path d="M147.431,23.322v-2.653h.488l.604,1.138c.152.295.29.603.397.89h.008c-.031-.354-.038-.696-.038-1.103v-.925h.395v2.653h-.443l-.609-1.169c-.149-.292-.302-.614-.416-.914l-.014.005c.018.342.024.692.024,1.129v.949h-.396Z" fill="#fff"/>
    <path d="M151.359,23.247c-.101.056-.322.118-.606.118-.741,0-1.191-.527-1.191-1.338,0-.874.537-1.401,1.251-1.401.28,0,.478.066.564.118l-.091.386c-.11-.056-.267-.103-.457-.103-.475,0-.817.338-.817.977,0,.586.298.956.814.956.17,0,.35-.039.464-.095l.069.382Z" fill="#fff"/>
    <path d="M152.937,22.145h-.88v.779h.983v.397h-1.409v-2.653h1.357v.397h-.932v.686h.88v.394Z" fill="#fff"/>
    <path d="M153.848,20.708c.163-.035.398-.059.645-.059.336,0,.561.062.72.212.129.122.201.308.201.536,0,.342-.204.574-.426.661v.012c.17.071.27.256.325.512.076.331.139.638.184.74h-.437c-.034-.079-.094-.295-.155-.626-.069-.347-.177-.457-.42-.465h-.214v1.091h-.423v-2.614ZM154.27,21.878h.252c.288,0,.465-.174.465-.438,0-.287-.177-.425-.454-.425-.135,0-.222.012-.263.023v.839Z" fill="#fff"/>
    <path d="M157.033,22.145h-.88v.779h.983v.397h-1.409v-2.653h1.357v.397h-.932v.686h.88v.394Z" fill="#fff"/>
    <path d="M159.095,23.247c-.101.056-.322.118-.606.118-.741,0-1.191-.527-1.191-1.338,0-.874.537-1.401,1.251-1.401.28,0,.478.066.564.118l-.091.386c-.11-.056-.267-.103-.457-.103-.475,0-.817.338-.817.977,0,.586.298.956.814.956.17,0,.35-.039.464-.095l.069.382Z" fill="#fff"/>
    <path d="M160.673,22.145h-.88v.779h.983v.397h-1.409v-2.653h1.357v.397h-.932v.686h.88v.394Z" fill="#fff"/>
    <path d="M161.487,20.669v2.653h-.426v-2.653h.426Z" fill="#fff"/>
    <path d="M162.42,23.322l-.755-2.653h.464l.318,1.209c.091.334.17.642.229.964h.007c.062-.314.148-.638.238-.96l.34-1.213h.454l-.808,2.653h-.488Z" fill="#fff"/>
    <path d="M165.183,22.145h-.88v.779h.983v.397h-1.409v-2.653h1.357v.397h-.932v.686h.88v.394Z" fill="#fff"/>
    <path d="M165.571,20.704c.19-.031.426-.055.679-.055.437,0,.734.103.949.307.229.209.367.527.367.977,0,.477-.143.827-.364,1.055-.231.24-.603.362-1.056.362-.246,0-.434-.016-.575-.035v-2.61ZM165.997,22.956c.059.012.149.012.235.012.555.004.884-.347.884-1.02.003-.583-.295-.921-.828-.921-.135,0-.229.012-.291.027v1.901Z" fill="#fff"/>
    <path d="M167.5,23.799c.094-.3.188-.713.232-1.039l.447-.04c-.101.37-.253.796-.389,1.048l-.291.031Z" fill="#fff"/>
    <path d="M169.394,20.669v2.653h-.426v-2.653h.426Z" fill="#fff"/>
    <path d="M169.79,23.322v-2.653h.488l.604,1.138c.152.295.29.603.397.89h.008c-.031-.354-.038-.696-.038-1.103v-.925h.395v2.653h-.443l-.609-1.169c-.149-.292-.302-.614-.416-.914l-.014.005c.018.342.024.692.024,1.129v.949h-.396Z" fill="#fff"/>
    <path d="M173.718,23.247c-.101.056-.322.118-.606.118-.741,0-1.191-.527-1.191-1.338,0-.874.537-1.401,1.251-1.401.28,0,.478.066.564.118l-.091.386c-.11-.056-.267-.103-.457-.103-.475,0-.817.338-.817.977,0,.586.298.956.814.956.17,0,.35-.039.464-.095l.069.382Z" fill="#fff"/>
    <path d="M173.99,20.669h.426v2.248h.96v.405h-1.386v-2.653Z" fill="#fff"/>
    <path d="M175.917,20.669v1.547c0,.52.19.76.478.76.309,0,.492-.24.492-.76v-1.547h.426v1.516c0,.818-.371,1.181-.932,1.181-.54,0-.891-.342-.891-1.177v-1.52h.427Z" fill="#fff"/>
    <path d="M177.709,20.704c.19-.031.426-.055.679-.055.437,0,.734.103.949.307.229.209.367.527.367.977,0,.477-.143.827-.364,1.055-.231.24-.603.362-1.056.362-.246,0-.434-.016-.575-.035v-2.61ZM178.135,22.956c.059.012.149.012.235.012.555.004.884-.347.884-1.02.003-.583-.295-.921-.828-.921-.135,0-.229.012-.291.027v1.901Z" fill="#fff"/>
    <path d="M180.41,20.669v2.653h-.426v-2.653h.426Z" fill="#fff"/>
    <path d="M180.806,23.322v-2.653h.488l.604,1.138c.152.295.29.603.397.89h.008c-.031-.354-.038-.696-.038-1.103v-.925h.395v2.653h-.443l-.609-1.169c-.149-.292-.302-.614-.416-.914l-.014.005c.018.342.024.692.024,1.129v.949h-.396Z" fill="#fff"/>
    <path d="M184.931,23.2c-.148.063-.439.149-.748.149-.395,0-.696-.114-.918-.354-.208-.224-.325-.574-.325-.976.003-.843.526-1.378,1.299-1.378.287,0,.513.066.62.126l-.094.39c-.128-.067-.284-.114-.53-.114-.499,0-.849.335-.849.952,0,.603.326.961.811.961.156,0,.267-.023.322-.051v-.666h-.412v-.382h.824v1.343Z" fill="#fff"/>
    <path d="M5.664,24.669v2.653h-.426v-2.653h.426Z" fill="#fff"/>
    <path d="M6.012,27.322v-2.653h.488l.604,1.138c.152.295.29.603.397.89h.008c-.031-.354-.038-.696-.038-1.103v-.925h.395v2.653h-.443l-.609-1.169c-.149-.292-.302-.614-.416-.914l-.014.005c.018.342.024.692.024,1.129v.949h-.396Z" fill="#fff"/>
    <path d="M8.664,25.074h-.665v-.405h1.764v.405h-.672v2.248h-.427v-2.248Z" fill="#fff"/>
    <path d="M11.203,26.145h-.88v.779h.983v.397h-1.409v-2.653h1.357v.397h-.932v.686h.88v.394Z" fill="#fff"/>
    <path d="M11.543,24.708c.163-.035.398-.059.645-.059.336,0,.561.062.72.212.129.122.201.308.201.536,0,.342-.204.574-.426.661v.012c.17.071.27.256.325.512.076.331.139.638.184.74h-.437c-.034-.079-.094-.295-.155-.626-.069-.347-.177-.457-.42-.465h-.214v1.091h-.423v-2.614ZM11.966,25.878h.252c.288,0,.465-.174.465-.438,0-.287-.177-.425-.454-.425-.135,0-.222.012-.263.023v.839Z" fill="#fff"/>
    <path d="M13.375,24.669h1.351v.397h-.925v.732h.859v.394h-.859v1.13h-.426v-2.653Z" fill="#fff"/>
    <path d="M16.306,26.145h-.88v.779h.983v.397h-1.409v-2.653h1.357v.397h-.932v.686h.88v.394Z" fill="#fff"/>
    <path d="M16.645,24.708c.163-.035.398-.059.645-.059.336,0,.561.062.72.212.129.122.201.308.201.536,0,.342-.204.574-.426.661v.012c.17.071.27.256.325.512.076.331.139.638.184.74h-.437c-.034-.079-.094-.295-.155-.626-.069-.347-.177-.457-.42-.465h-.214v1.091h-.423v-2.614ZM17.068,25.878h.252c.288,0,.465-.174.465-.438,0-.287-.177-.425-.454-.425-.135,0-.222.012-.263.023v.839Z" fill="#fff"/>
    <path d="M19.783,26.145h-.88v.779h.983v.397h-1.409v-2.653h1.357v.397h-.932v.686h.88v.394Z" fill="#fff"/>
    <path d="M20.119,27.322v-2.653h.488l.604,1.138c.152.295.29.603.397.89h.008c-.031-.354-.038-.696-.038-1.103v-.925h.395v2.653h-.443l-.609-1.169c-.149-.292-.302-.614-.416-.914l-.014.005c.018.342.024.692.024,1.129v.949h-.396Z" fill="#fff"/>
    <path d="M23.998,27.247c-.101.056-.322.118-.606.118-.741,0-1.191-.527-1.191-1.338,0-.874.537-1.401,1.251-1.401.28,0,.478.066.564.118l-.091.386c-.11-.056-.267-.103-.457-.103-.475,0-.817.338-.817.977,0,.586.298.956.814.956.17,0,.35-.039.464-.095l.069.382Z" fill="#fff"/>
    <path d="M25.527,26.145h-.88v.779h.983v.397h-1.409v-2.653h1.357v.397h-.932v.686h.88v.394Z" fill="#fff"/>
    <path d="M26.756,25.074h-.665v-.405h1.764v.405h-.672v2.248h-.427v-2.248Z" fill="#fff"/>
    <path d="M28.415,24.669v1.062h.987v-1.062h.426v2.653h-.426v-1.169h-.987v1.169h-.426v-2.653h.426Z" fill="#fff"/>
    <path d="M30.645,26.57l-.201.752h-.44l.749-2.653h.543l.759,2.653h-.46l-.212-.752h-.737ZM31.313,26.204l-.184-.653c-.045-.161-.083-.343-.117-.496h-.007c-.035.153-.073.339-.111.496l-.18.653h.599Z" fill="#fff"/>
    <path d="M32.408,25.074h-.665v-.405h1.764v.405h-.672v2.248h-.427v-2.248Z" fill="#fff"/>
    <path d="M36.193,26.239c-.014-.342-.031-.756-.027-1.113h-.011c-.076.322-.173.681-.277,1.016l-.343,1.149h-.325l-.312-1.134c-.09-.339-.173-.701-.235-1.031h-.007c-.01.346-.024.768-.041,1.13l-.053,1.066h-.397l.155-2.653h.562l.305,1.066c.083.312.155.626.215.922h.01c.062-.288.143-.614.232-.926l.322-1.062h.554l.136,2.653h-.416l-.045-1.083Z" fill="#fff"/>
    <path d="M37.393,26.57l-.201.752h-.44l.749-2.653h.543l.759,2.653h-.46l-.212-.752h-.737ZM38.061,26.204l-.184-.653c-.045-.161-.083-.343-.117-.496h-.007c-.035.153-.073.339-.111.496l-.18.653h.599Z" fill="#fff"/>
    <path d="M39.214,27.322v-1.106l-.737-1.547h.488l.277.681c.079.197.139.347.204.528h.007c.056-.17.121-.335.201-.528l.28-.681h.481l-.775,1.535v1.118h-.427Z" fill="#fff"/>
    <path d="M42.791,27.247c-.101.056-.322.118-.606.118-.741,0-1.191-.527-1.191-1.338,0-.874.537-1.401,1.251-1.401.28,0,.478.066.564.118l-.091.386c-.11-.056-.267-.103-.457-.103-.475,0-.817.338-.817.977,0,.586.298.956.814.956.17,0,.35-.039.464-.095l.069.382Z" fill="#fff"/>
    <path d="M43.508,26.57l-.201.752h-.44l.749-2.653h.543l.759,2.653h-.461l-.211-.752h-.737ZM44.176,26.204l-.184-.653c-.045-.161-.083-.343-.117-.496h-.007c-.035.153-.073.339-.111.496l-.18.653h.599Z" fill="#fff"/>
    <path d="M45.416,24.669v1.547c0,.52.19.76.478.76.309,0,.492-.24.492-.76v-1.547h.426v1.516c0,.818-.371,1.181-.932,1.181-.54,0-.891-.342-.891-1.177v-1.52h.427Z" fill="#fff"/>
    <path d="M47.153,26.795c.135.091.346.169.564.169.271,0,.423-.146.423-.362,0-.2-.118-.318-.412-.44-.389-.157-.635-.39-.635-.771,0-.438.319-.764.828-.764.253,0,.437.062.558.134l-.101.39c-.086-.052-.249-.126-.468-.126-.27,0-.384.161-.384.318,0,.205.135.3.446.438.405.173.6.405.6.787,0,.429-.284.799-.883.799-.25,0-.506-.078-.635-.169l.098-.401Z" fill="#fff"/>
    <path d="M50.125,26.145h-.88v.779h.983v.397h-1.409v-2.653h1.357v.397h-.932v.686h.88v.394Z" fill="#fff"/>
    <path d="M51.469,24.669v1.547c0,.52.19.76.478.76.309,0,.492-.24.492-.76v-1.547h.426v1.516c0,.818-.371,1.181-.932,1.181-.54,0-.891-.342-.891-1.177v-1.52h.427Z" fill="#fff"/>
    <path d="M53.209,27.322v-2.653h.488l.604,1.138c.152.295.29.603.397.89h.008c-.031-.354-.038-.696-.038-1.103v-.925h.395v2.653h-.443l-.609-1.169c-.149-.292-.302-.614-.416-.914l-.014.005c.018.342.024.692.024,1.129v.949h-.396Z" fill="#fff"/>
    <path d="M55.415,24.704c.19-.031.426-.055.679-.055.437,0,.734.103.949.307.229.209.367.527.367.977,0,.477-.143.827-.364,1.055-.231.24-.603.362-1.056.362-.246,0-.434-.016-.575-.035v-2.61ZM55.841,26.956c.059.012.149.012.235.012.555.004.884-.347.884-1.02.003-.583-.295-.921-.828-.921-.135,0-.229.012-.291.027v1.901Z" fill="#fff"/>
    <path d="M58.946,26.145h-.88v.779h.983v.397h-1.409v-2.653h1.357v.397h-.932v.686h.88v.394Z" fill="#fff"/>
    <path d="M59.279,26.795c.135.091.346.169.564.169.271,0,.423-.146.423-.362,0-.2-.118-.318-.412-.44-.389-.157-.635-.39-.635-.771,0-.438.319-.764.828-.764.253,0,.437.062.558.134l-.101.39c-.086-.052-.249-.126-.467-.126-.271,0-.385.161-.385.318,0,.205.135.3.446.438.405.173.6.405.6.787,0,.429-.284.799-.884.799-.249,0-.505-.078-.634-.169l.098-.401Z" fill="#fff"/>
    <path d="M61.371,24.669v2.653h-.426v-2.653h.426Z" fill="#fff"/>
    <path d="M61.723,24.708c.163-.035.398-.059.645-.059.336,0,.561.062.72.212.129.122.201.308.201.536,0,.342-.204.574-.426.661v.012c.17.071.27.256.325.512.076.331.139.638.184.74h-.437c-.034-.079-.094-.295-.155-.626-.069-.347-.177-.457-.42-.465h-.214v1.091h-.423v-2.614ZM62.145,25.878h.252c.288,0,.465-.174.465-.438,0-.287-.177-.425-.454-.425-.135,0-.222.012-.263.023v.839Z" fill="#fff"/>
    <path d="M64.86,26.145h-.88v.779h.983v.397h-1.409v-2.653h1.357v.397h-.932v.686h.88v.394Z" fill="#fff"/>
    <path d="M65.2,24.704c.19-.031.426-.055.679-.055.437,0,.734.103.949.307.229.209.367.527.367.977,0,.477-.143.827-.364,1.055-.231.24-.603.362-1.056.362-.246,0-.434-.016-.575-.035v-2.61ZM65.626,26.956c.059.012.149.012.235.012.555.004.884-.347.884-1.02.003-.583-.295-.921-.828-.921-.135,0-.229.012-.291.027v1.901Z" fill="#fff"/>
    <path d="M70.079,25.967c0,.89-.475,1.397-1.115,1.397-.662,0-1.077-.574-1.077-1.35,0-.819.453-1.394,1.111-1.394.679,0,1.081.586,1.081,1.346ZM68.337,26.004c0,.543.239.972.647.972.412,0,.645-.437.645-.992,0-.5-.219-.972-.645-.972-.423,0-.647.444-.647.992Z" fill="#fff"/>
    <path d="M70.306,24.704c.155-.031.367-.055.651-.055.312,0,.536.074.686.216.139.131.229.339.229.587,0,.252-.069.457-.197.599-.174.192-.437.287-.738.287-.079,0-.148-.004-.207-.02v1.004h-.423v-2.618ZM70.729,25.936c.055.02.121.023.207.023.319,0,.513-.181.513-.488,0-.295-.18-.448-.475-.448-.117,0-.2.012-.245.023v.89Z" fill="#fff"/>
    <path d="M73.41,26.145h-.88v.779h.983v.397h-1.409v-2.653h1.357v.397h-.932v.686h.88v.394Z" fill="#fff"/>
    <path d="M73.75,24.708c.163-.035.398-.059.645-.059.336,0,.561.062.72.212.129.122.201.308.201.536,0,.342-.204.574-.426.661v.012c.17.071.27.256.325.512.076.331.139.638.184.74h-.437c-.034-.079-.094-.295-.155-.626-.069-.347-.177-.457-.42-.465h-.214v1.091h-.423v-2.614ZM74.173,25.878h.252c.288,0,.465-.174.465-.438,0-.287-.177-.425-.454-.425-.135,0-.222.012-.263.023v.839Z" fill="#fff"/>
    <path d="M76.073,26.57l-.201.752h-.44l.749-2.653h.543l.759,2.653h-.46l-.212-.752h-.737ZM76.741,26.204l-.184-.653c-.045-.161-.083-.343-.117-.496h-.007c-.035.153-.073.339-.111.496l-.18.653h.599Z" fill="#fff"/>
    <path d="M77.836,25.074h-.665v-.405h1.764v.405h-.672v2.248h-.427v-2.248Z" fill="#fff"/>
    <path d="M79.495,24.669v2.653h-.426v-2.653h.426Z" fill="#fff"/>
    <path d="M81.918,25.967c0,.89-.475,1.397-1.115,1.397-.662,0-1.077-.574-1.077-1.35,0-.819.453-1.394,1.111-1.394.679,0,1.081.586,1.081,1.346ZM80.176,26.004c0,.543.239.972.647.972.412,0,.645-.437.645-.992,0-.5-.219-.972-.645-.972-.423,0-.647.444-.647.992Z" fill="#fff"/>
    <path d="M82.141,27.322v-2.653h.488l.604,1.138c.152.295.29.603.397.89h.008c-.031-.354-.038-.696-.038-1.103v-.925h.395v2.653h-.443l-.609-1.169c-.149-.292-.302-.614-.416-.914l-.014.005c.018.342.024.692.024,1.129v.949h-.396Z" fill="#fff"/>
    <path d="M84.278,27.054c0-.182.11-.312.263-.312.156,0,.264.126.264.312,0,.177-.104.311-.267.311-.152,0-.26-.134-.26-.311Z" fill="#fff"/>
    <path d="M85.474,25.074h-.665v-.405h1.764v.405h-.672v2.248h-.427v-2.248Z" fill="#fff"/>
    <path d="M87.134,24.669v1.062h.987v-1.062h.426v2.653h-.426v-1.169h-.987v1.169h-.426v-2.653h.426Z" fill="#fff"/>
    <path d="M89.322,24.669v2.653h-.426v-2.653h.426Z" fill="#fff"/>
    <path d="M89.667,26.795c.135.091.346.169.564.169.271,0,.423-.146.423-.362,0-.2-.118-.318-.412-.44-.389-.157-.635-.39-.635-.771,0-.438.319-.764.828-.764.253,0,.437.062.558.134l-.101.39c-.086-.052-.249-.126-.468-.126-.27,0-.384.161-.384.318,0,.205.135.3.446.438.405.173.6.405.6.787,0,.429-.284.799-.883.799-.25,0-.506-.078-.635-.169l.098-.401Z" fill="#fff"/>
    <path d="M93.586,27.247c-.101.056-.322.118-.606.118-.741,0-1.191-.527-1.191-1.338,0-.874.537-1.401,1.251-1.401.28,0,.478.066.564.118l-.091.386c-.11-.056-.267-.103-.457-.103-.475,0-.817.338-.817.977,0,.586.298.956.814.956.17,0,.35-.039.464-.095l.069.382Z" fill="#fff"/>
    <path d="M93.81,24.669h.426v2.248h.96v.405h-1.386v-2.653Z" fill="#fff"/>
    <path d="M95.861,26.57l-.201.752h-.44l.749-2.653h.543l.759,2.653h-.461l-.211-.752h-.737ZM96.529,26.204l-.184-.653c-.045-.161-.083-.343-.117-.496h-.007c-.035.153-.073.339-.111.496l-.18.653h.599Z" fill="#fff"/>
    <path d="M97.45,26.795c.135.091.346.169.564.169.271,0,.423-.146.423-.362,0-.2-.118-.318-.412-.44-.389-.157-.635-.39-.635-.771,0-.438.319-.764.828-.764.253,0,.437.062.558.134l-.101.39c-.086-.052-.249-.126-.468-.126-.27,0-.384.161-.384.318,0,.205.135.3.446.438.405.173.6.405.6.787,0,.429-.284.799-.883.799-.25,0-.506-.078-.635-.169l.098-.401Z" fill="#fff"/>
    <path d="M99.109,26.795c.135.091.346.169.564.169.271,0,.423-.146.423-.362,0-.2-.118-.318-.412-.44-.389-.157-.635-.39-.635-.771,0-.438.319-.764.828-.764.253,0,.437.062.558.134l-.101.39c-.086-.052-.249-.126-.467-.126-.271,0-.385.161-.385.318,0,.205.135.3.446.438.405.173.6.405.6.787,0,.429-.284.799-.884.799-.249,0-.505-.078-.634-.169l.098-.401Z" fill="#fff"/>
    <path d="M101.356,24.708c.135-.031.381-.059.623-.059.312,0,.51.047.665.169.146.099.243.271.243.5,0,.244-.136.465-.389.571v.012c.246.07.472.291.472.653,0,.236-.091.421-.222.551-.167.162-.44.244-.87.244-.235,0-.412-.02-.522-.035v-2.606ZM101.779,25.756h.218c.298,0,.461-.158.461-.382,0-.252-.167-.366-.437-.366-.125,0-.197.008-.242.02v.729ZM101.779,26.971c.055.012.128.012.225.012.273,0,.52-.114.52-.44,0-.312-.239-.438-.533-.438h-.211v.866Z" fill="#fff"/>
    <path d="M104.375,24.704c.19-.031.426-.055.679-.055.437,0,.734.103.949.307.229.209.367.527.367.977,0,.477-.143.827-.364,1.055-.231.24-.603.362-1.056.362-.246,0-.434-.016-.575-.035v-2.61ZM104.801,26.956c.059.012.149.012.235.012.555.004.884-.347.884-1.02.003-.583-.295-.921-.828-.921-.135,0-.229.012-.291.027v1.901Z" fill="#fff"/>
    <path d="M107.027,24.669v2.653h-.426v-2.653h.426Z" fill="#fff"/>
    <path d="M109.249,27.2c-.148.063-.439.149-.748.149-.395,0-.696-.114-.918-.354-.208-.224-.325-.574-.325-.976.003-.843.526-1.378,1.299-1.378.287,0,.513.066.62.126l-.094.39c-.128-.067-.284-.114-.53-.114-.499,0-.849.335-.849.952,0,.603.326.961.811.961.156,0,.267-.023.322-.051v-.666h-.412v-.382h.824v1.343Z" fill="#fff"/>
    <path d="M109.972,24.669v2.653h-.426v-2.653h.426Z" fill="#fff"/>
    <path d="M110.769,25.074h-.665v-.405h1.764v.405h-.672v2.248h-.427v-2.248Z" fill="#fff"/>
    <path d="M112.219,26.57l-.201.752h-.44l.749-2.653h.543l.759,2.653h-.461l-.211-.752h-.737ZM112.887,26.204l-.184-.653c-.045-.161-.083-.343-.117-.496h-.007c-.035.153-.073.339-.111.496l-.18.653h.599Z" fill="#fff"/>
    <path d="M113.814,24.669h.426v2.248h.96v.405h-1.386v-2.653Z" fill="#fff"/>
    <path d="M116.432,26.57l-.201.752h-.44l.749-2.653h.543l.759,2.653h-.46l-.212-.752h-.737ZM117.1,26.204l-.184-.653c-.045-.161-.083-.343-.117-.496h-.007c-.035.153-.073.339-.111.496l-.18.653h.599Z" fill="#fff"/>
    <path d="M118.028,24.704c.155-.031.367-.055.651-.055.312,0,.536.074.686.216.139.131.229.339.229.587,0,.252-.069.457-.197.599-.173.192-.437.287-.738.287-.079,0-.148-.004-.207-.02v1.004h-.423v-2.618ZM118.451,25.936c.055.02.121.023.207.023.319,0,.513-.181.513-.488,0-.295-.18-.448-.475-.448-.117,0-.2.012-.245.023v.89Z" fill="#fff"/>
    <path d="M119.825,24.704c.155-.031.367-.055.651-.055.312,0,.536.074.686.216.139.131.229.339.229.587,0,.252-.069.457-.197.599-.173.192-.437.287-.738.287-.079,0-.148-.004-.207-.02v1.004h-.423v-2.618ZM120.248,25.936c.055.02.121.023.207.023.319,0,.513-.181.513-.488,0-.295-.18-.448-.475-.448-.117,0-.2.012-.245.023v.89Z" fill="#fff"/>
    <path d="M121.845,26.57l-.201.752h-.44l.749-2.653h.543l.759,2.653h-.46l-.212-.752h-.737ZM122.513,26.204l-.184-.653c-.045-.161-.083-.343-.117-.496h-.007c-.035.153-.073.339-.111.496l-.18.653h.599Z" fill="#fff"/>
    <path d="M123.44,24.708c.163-.035.398-.059.645-.059.336,0,.561.062.72.212.129.122.201.308.201.536,0,.342-.204.574-.426.661v.012c.17.071.27.256.325.512.076.331.139.638.184.74h-.437c-.034-.079-.094-.295-.155-.626-.069-.347-.177-.457-.42-.465h-.214v1.091h-.423v-2.614ZM123.863,25.878h.252c.288,0,.465-.174.465-.438,0-.287-.177-.425-.454-.425-.135,0-.222.012-.263.023v.839Z" fill="#fff"/>
    <path d="M125.765,26.57l-.201.752h-.44l.749-2.653h.543l.759,2.653h-.46l-.212-.752h-.737ZM126.432,26.204l-.184-.653c-.045-.161-.083-.343-.117-.496h-.007c-.035.153-.073.339-.111.496l-.18.653h.599Z" fill="#fff"/>
    <path d="M127.526,25.074h-.665v-.405h1.764v.405h-.672v2.248h-.427v-2.248Z" fill="#fff"/>
    <path d="M129.182,24.669v1.547c0,.52.19.76.478.76.309,0,.492-.24.492-.76v-1.547h.426v1.516c0,.818-.371,1.181-.932,1.181-.54,0-.891-.342-.891-1.177v-1.52h.427Z" fill="#fff"/>
    <path d="M130.92,26.795c.135.091.346.169.564.169.271,0,.423-.146.423-.362,0-.2-.118-.318-.412-.44-.389-.157-.635-.39-.635-.771,0-.438.319-.764.828-.764.253,0,.437.062.558.134l-.101.39c-.086-.052-.249-.126-.467-.126-.271,0-.385.161-.385.318,0,.205.135.3.446.438.405.173.6.405.6.787,0,.429-.284.799-.884.799-.249,0-.505-.078-.634-.169l.098-.401Z" fill="#fff"/>
    <path d="M134.84,27.247c-.101.056-.322.118-.606.118-.741,0-1.191-.527-1.191-1.338,0-.874.537-1.401,1.251-1.401.28,0,.478.066.564.118l-.091.386c-.11-.056-.267-.103-.457-.103-.475,0-.817.338-.817.977,0,.586.298.956.814.956.17,0,.35-.039.464-.095l.069.382Z" fill="#fff"/>
    <path d="M137.047,25.967c0,.89-.475,1.397-1.115,1.397-.662,0-1.077-.574-1.077-1.35,0-.819.453-1.394,1.111-1.394.679,0,1.081.586,1.081,1.346ZM135.305,26.004c0,.543.239.972.647.972.412,0,.645-.437.645-.992,0-.5-.219-.972-.645-.972-.423,0-.647.444-.647.992Z" fill="#fff"/>
    <path d="M139.245,26.239c-.014-.342-.031-.756-.027-1.113h-.011c-.076.322-.173.681-.277,1.016l-.343,1.149h-.325l-.312-1.134c-.09-.339-.173-.701-.235-1.031h-.007c-.01.346-.024.768-.041,1.13l-.053,1.066h-.397l.155-2.653h.562l.305,1.066c.083.312.155.626.215.922h.01c.062-.288.143-.614.232-.926l.322-1.062h.554l.136,2.653h-.416l-.045-1.083Z" fill="#fff"/>
    <path d="M139.998,24.704c.155-.031.367-.055.651-.055.312,0,.536.074.686.216.139.131.229.339.229.587,0,.252-.069.457-.197.599-.174.192-.437.287-.738.287-.079,0-.148-.004-.207-.02v1.004h-.423v-2.618ZM140.421,25.936c.055.02.121.023.207.023.319,0,.513-.181.513-.488,0-.295-.18-.448-.475-.448-.117,0-.2.012-.245.023v.89Z" fill="#fff"/>
    <path d="M141.796,24.669h.426v2.248h.96v.405h-1.386v-2.653Z" fill="#fff"/>
    <path d="M143.791,24.669v2.653h-.426v-2.653h.426Z" fill="#fff"/>
    <path d="M145.448,26.145h-.88v.779h.983v.397h-1.409v-2.653h1.357v.397h-.932v.686h.88v.394Z" fill="#fff"/>
    <path d="M145.781,26.795c.135.091.346.169.564.169.271,0,.423-.146.423-.362,0-.2-.118-.318-.412-.44-.389-.157-.635-.39-.635-.771,0-.438.319-.764.828-.764.253,0,.437.062.558.134l-.101.39c-.086-.052-.249-.126-.467-.126-.271,0-.385.161-.385.318,0,.205.135.3.446.438.405.173.6.405.6.787,0,.429-.284.799-.884.799-.249,0-.505-.078-.634-.169l.098-.401Z" fill="#fff"/>
    <path d="M148.28,27.322l-.571-2.653h.454l.222,1.204c.059.323.114.662.152.926h.007c.038-.279.104-.595.17-.93l.253-1.2h.446l.232,1.221c.056.314.107.609.142.897h.007c.042-.292.098-.595.16-.922l.242-1.196h.433l-.63,2.653h-.454l-.242-1.248c-.06-.303-.101-.555-.132-.843h-.007c-.038.284-.083.54-.152.843l-.271,1.248h-.461Z" fill="#fff"/>
    <path d="M151.198,24.669v2.653h-.426v-2.653h.426Z" fill="#fff"/>
    <path d="M151.996,25.074h-.665v-.405h1.764v.405h-.672v2.248h-.427v-2.248Z" fill="#fff"/>
    <path d="M153.655,24.669v1.062h.987v-1.062h.426v2.653h-.426v-1.169h-.987v1.169h-.426v-2.653h.426Z" fill="#fff"/>
    <path d="M157.671,27.247c-.101.056-.322.118-.606.118-.741,0-1.191-.527-1.191-1.338,0-.874.537-1.401,1.251-1.401.28,0,.478.066.564.118l-.091.386c-.11-.056-.267-.103-.457-.103-.475,0-.817.338-.817.977,0,.586.298.956.814.956.17,0,.35-.039.464-.095l.069.382Z" fill="#fff"/>
    <path d="M158.388,26.57l-.201.752h-.44l.749-2.653h.543l.759,2.653h-.46l-.212-.752h-.737ZM159.056,26.204l-.184-.653c-.045-.161-.083-.343-.117-.496h-.007c-.035.153-.073.339-.111.496l-.18.653h.599Z" fill="#fff"/>
    <path d="M159.979,27.322v-2.653h.488l.604,1.138c.152.295.29.603.397.89h.008c-.031-.354-.038-.696-.038-1.103v-.925h.395v2.653h-.443l-.609-1.169c-.149-.292-.302-.614-.416-.914l-.014.005c.018.342.024.692.024,1.129v.949h-.396Z" fill="#fff"/>
    <path d="M162.653,26.57l-.201.752h-.44l.749-2.653h.543l.759,2.653h-.46l-.212-.752h-.737ZM163.321,26.204l-.184-.653c-.045-.161-.083-.343-.117-.496h-.007c-.035.153-.073.339-.111.496l-.18.653h.599Z" fill="#fff"/>
    <path d="M164.249,24.704c.19-.031.426-.055.679-.055.437,0,.734.103.949.307.229.209.367.527.367.977,0,.477-.143.827-.364,1.055-.231.24-.603.362-1.056.362-.246,0-.434-.016-.575-.035v-2.61ZM164.675,26.956c.059.012.149.012.235.012.555.004.884-.347.884-1.02.003-.583-.295-.921-.828-.921-.135,0-.229.012-.291.027v1.901Z" fill="#fff"/>
    <path d="M166.901,24.669v2.653h-.426v-2.653h.426Z" fill="#fff"/>
    <path d="M167.721,26.57l-.201.752h-.44l.749-2.653h.543l.759,2.653h-.461l-.211-.752h-.737ZM168.389,26.204l-.184-.653c-.045-.161-.083-.343-.117-.496h-.007c-.035.153-.073.339-.111.496l-.18.653h.599Z" fill="#fff"/>
    <path d="M169.312,27.322v-2.653h.488l.604,1.138c.152.295.29.603.397.89h.008c-.031-.354-.038-.696-.038-1.103v-.925h.395v2.653h-.443l-.609-1.169c-.149-.292-.302-.614-.416-.914l-.014.005c.018.342.024.692.024,1.129v.949h-.396Z" fill="#fff"/>
    <path d="M172.525,24.669v2.653h-.426v-2.653h.426Z" fill="#fff"/>
    <path d="M174.55,27.247c-.101.056-.322.118-.606.118-.741,0-1.191-.527-1.191-1.338,0-.874.537-1.401,1.251-1.401.28,0,.478.066.564.118l-.091.386c-.11-.056-.267-.103-.457-.103-.475,0-.817.338-.817.977,0,.586.298.956.814.956.17,0,.35-.039.464-.095l.069.382Z" fill="#fff"/>
    <path d="M176.08,26.145h-.88v.779h.983v.397h-1.409v-2.653h1.357v.397h-.932v.686h.88v.394Z" fill="#fff"/>
    <path d="M176.413,26.795c.135.091.346.169.564.169.271,0,.423-.146.423-.362,0-.2-.118-.318-.412-.44-.389-.157-.635-.39-.635-.771,0-.438.319-.764.828-.764.253,0,.437.062.558.134l-.101.39c-.086-.052-.249-.126-.468-.126-.27,0-.384.161-.384.318,0,.205.135.3.446.438.405.173.6.405.6.787,0,.429-.284.799-.883.799-.25,0-.506-.078-.635-.169l.098-.401Z" fill="#fff"/>
    <path d="M178.82,26.111v.335h-.884v-.335h.884Z" fill="#fff"/>
    <path d="M180.526,26.023c0,.826-.284,1.342-.825,1.342-.516,0-.793-.535-.796-1.314,0-.799.298-1.331.824-1.331.544,0,.797.552.797,1.304ZM179.334,26.047c0,.626.149.948.382.948.252,0,.381-.346.381-.96,0-.595-.121-.945-.378-.945-.225,0-.385.319-.385.957Z" fill="#fff"/>
    <path d="M182.244,26.023c0,.826-.284,1.342-.825,1.342-.516,0-.793-.535-.796-1.314,0-.799.298-1.331.824-1.331.544,0,.797.552.797,1.304ZM181.052,26.047c0,.626.149.948.382.948.252,0,.381-.346.381-.96,0-.595-.121-.945-.378-.945-.225,0-.385.319-.385.957Z" fill="#fff"/>
    <path d="M182.458,26.822c.087.059.298.157.513.157.326,0,.454-.208.454-.409,0-.303-.253-.433-.513-.433h-.194v-.354h.194c.193,0,.443-.103.443-.354,0-.177-.111-.323-.36-.323-.184,0-.367.091-.461.162l-.097-.351c.128-.099.381-.197.647-.197.468,0,.703.292.703.626,0,.268-.139.488-.415.599v.008c.273.06.491.291.495.638,0,.434-.319.775-.877.775-.273,0-.509-.086-.63-.177l.097-.366Z" fill="#fff"/>
    <path d="M184.117,27.054c0-.182.11-.312.263-.312.156,0,.264.126.264.312,0,.177-.104.311-.267.311-.152,0-.26-.134-.26-.311Z" fill="#fff"/>
  </g>
</svg>