<?xml version="1.0" encoding="UTF-8"?>
<svg id="Layer_1" xmlns="http://www.w3.org/2000/svg" width="49.576mm" height="14.276mm" version="1.1" viewBox="0 0 140.532 40.469">
  <defs>
    <style type="text/css">
      <![CDATA[
        @font-face {
          font-family: "OCR-B";
          src: url('fonts/OCR-B.otf') format('opentype');
          font-weight: normal;
          font-style: normal;
        }
        @font-face {
          font-family: "Libre Barcode 39";
          src: url('fonts/LibreBarcode39-Regular.ttf') format('TrueType');
          font-weight: normal;
          font-style: normal;
        }
        .serial {
          font-family: "OCR-B", "OCR B Std";
          font-size: 5.8px;
          letter-spacing: -0.023em;
          text-transform: uppercase;
        }
        .barcode {
          font-family: "Libre Barcode 39";
          letter-spacing: 0;
          font-size: 15.05pt;
          font-weight: 400;
          font-style: normal;
          text-transform: uppercase;
        }
      ]]>
    </style>
  </defs>
  <g>
    <rect x=".126" y=".126" width="140.28" height="40.217" rx="3.9526pt" fill="#fff" data-background="background"/>
    <rect x=".126" y=".126" width="140.28" height="40.217" rx="3.9526pt" fill="none" stroke="#a8a8ab" stroke-width="0.25pt" stroke-dasharray="0.9pt" data-stroke="stroke"/>
  </g>
  <g fill="#000" data-foreground="foreground">
    <g>
      <circle cx="88.956" cy="30.77" r=".148"/>
      <circle cx="89.559" cy="31.33" r=".148"/>
      <circle cx="90.161" cy="30.77" r=".148"/>
      <circle cx="88.354" cy="31.33" r=".148"/>
      <circle cx="90.764" cy="31.33" r=".148"/>
      <circle cx="91.366" cy="30.77" r=".148"/>
      <circle cx="91.969" cy="31.33" r=".148"/>
      <circle cx="92.571" cy="30.77" r=".148"/>
      <circle cx="88.956" cy="31.891" r=".148"/>
      <circle cx="89.559" cy="32.451" r=".148"/>
      <circle cx="90.161" cy="31.891" r=".148"/>
      <circle cx="88.354" cy="32.451" r=".148"/>
      <circle cx="90.764" cy="32.451" r=".148"/>
      <circle cx="91.366" cy="31.891" r=".148"/>
      <circle cx="91.969" cy="32.451" r=".148"/>
      <circle cx="92.571" cy="31.891" r=".148"/>
      <circle cx="88.956" cy="33.012" r=".17"/>
      <circle cx="89.559" cy="33.72" r=".173"/>
      <circle cx="90.161" cy="33.012" r=".17"/>
      <circle cx="88.354" cy="33.72" r=".173"/>
      <circle cx="90.764" cy="33.72" r=".173"/>
      <circle cx="91.366" cy="33.012" r=".17"/>
      <circle cx="91.969" cy="33.72" r=".173"/>
      <circle cx="92.571" cy="33.012" r=".17"/>
      <circle cx="88.956" cy="34.238" r=".179"/>
      <circle cx="89.559" cy="34.885" r=".186"/>
      <circle cx="90.161" cy="34.238" r=".179"/>
      <circle cx="88.354" cy="34.885" r=".186"/>
      <circle cx="90.764" cy="34.885" r=".186"/>
      <circle cx="91.366" cy="34.238" r=".179"/>
      <circle cx="91.969" cy="34.885" r=".186"/>
      <circle cx="92.571" cy="34.238" r=".179"/>
      <circle cx="88.956" cy="35.465" r=".192"/>
      <circle cx="89.559" cy="36.081" r=".198"/>
      <circle cx="90.161" cy="35.465" r=".192"/>
      <circle cx="88.354" cy="36.081" r=".198"/>
      <circle cx="90.764" cy="36.081" r=".198"/>
      <circle cx="91.366" cy="35.465" r=".192"/>
      <circle cx="91.969" cy="36.081" r=".198"/>
      <circle cx="92.571" cy="35.465" r=".192"/>
      <circle cx="88.956" cy="36.722" r=".204"/>
      <circle cx="89.559" cy="37.295" r=".214"/>
      <circle cx="90.161" cy="36.722" r=".204"/>
      <circle cx="88.354" cy="37.295" r=".214"/>
      <circle cx="90.764" cy="37.295" r=".214"/>
      <circle cx="91.366" cy="36.722" r=".204"/>
      <circle cx="91.969" cy="37.295" r=".214"/>
      <circle cx="92.571" cy="36.722" r=".204"/>
    </g>
    <g xml:space="preserve">
      <text class="serial" transform="translate(47.8 36.2)">AB123456789</text>
      <g width="4.4cm" height="0.85cm" transform="translate(7.937 28.7175)">
        <text class="barcode" transform="scale(1,2)">*AB123456789*</text>
      </g>
    </g>
  </g>
</svg>