<?xml version="1.0" encoding="UTF-8"?>
<svg id="Layer_1" xmlns="http://www.w3.org/2000/svg" version="1.1" viewBox="-1 -1 142 42">
  <defs>
    <style type="text/css">
      <![CDATA[
      @font-face {
        font-family: 'OCR B Std','ocr-b-std';
        src: url('../fonts/OCR-B.otf') format('opentype');
        font-weight: normal;
        font-style: normal;
      }

      text#serial {
        font-family: 'OCR B Std','ocr-b-std';
        font-size: 5.8px;
        letter-spacing: -0.023em;
        text-transform: uppercase;
      }

      text#barcode {
        font-family: "Libre Barcode 39";
        letter-spacing: 0;
        font-size: 15.05pt;
        font-weight: 400;
        font-style: normal;
        text-transform: uppercase;
      }
      ]]>
    </style>
  </defs>
  <g fill="#000000" data-primary="ink">
    <circle cx="89.602" cy="37.326" r=".214" />
    <circle cx="88.396" cy="37.326" r=".214" />
    <circle cx="90.807" cy="37.326" r=".214" />
    <circle cx="92.012" cy="37.326" r=".214" />
    <circle cx="88.998" cy="36.753" r=".204" />
    <circle cx="90.203" cy="36.753" r=".204" />
    <circle cx="91.408" cy="36.753" r=".204" />
    <circle cx="92.613" cy="36.753" r=".204" />
    <circle cx="89.602" cy="36.112" r=".198" />
    <circle cx="88.396" cy="36.112" r=".198" />
    <circle cx="90.807" cy="36.112" r=".198" />
    <circle cx="92.012" cy="36.112" r=".198" />
    <circle cx="88.998" cy="35.496" r=".192" />
    <circle cx="90.203" cy="35.496" r=".192" />
    <circle cx="91.408" cy="35.496" r=".192" />
    <circle cx="92.613" cy="35.496" r=".192" />
    <circle cx="89.602" cy="34.917" r=".186" />
    <circle cx="88.396" cy="34.917" r=".186" />
    <circle cx="90.807" cy="34.917" r=".186" />
    <circle cx="92.012" cy="34.917" r=".186" />
    <circle cx="88.998" cy="34.269" r=".179" />
    <circle cx="90.203" cy="34.269" r=".179" />
    <circle cx="91.408" cy="34.269" r=".179" />
    <circle cx="92.613" cy="34.269" r=".179" />
    <circle cx="89.602" cy="33.752" r=".173" />
    <circle cx="88.396" cy="33.752" r=".173" />
    <circle cx="90.807" cy="33.752" r=".173" />
    <circle cx="92.012" cy="33.752" r=".173" />
    <circle cx="88.998" cy="33.044" r=".17" />
    <circle cx="90.203" cy="33.044" r=".17" />
    <circle cx="91.408" cy="33.044" r=".17" />
    <circle cx="92.613" cy="33.044" r=".17" />
    <circle cx="88.396" cy="32.483" r=".154" />
    <circle cx="89.602" cy="32.483" r=".154" />
    <circle cx="90.807" cy="32.483" r=".154" />
    <circle cx="92.012" cy="32.483" r=".154" />
    <circle cx="88.998" cy="31.922" r=".15" />
    <circle cx="90.203" cy="31.922" r=".15" />
    <circle cx="91.408" cy="31.922" r=".15" />
    <circle cx="92.613" cy="31.922" r=".15" />
    <circle cx="88.396" cy="31.362" r=".148" />
    <circle cx="89.602" cy="31.362" r=".148" />
    <circle cx="90.807" cy="31.362" r=".148" />
    <circle cx="92.012" cy="31.362" r=".148" />
    <circle cx="88.998" cy="30.801" r=".142" />
    <circle cx="90.203" cy="30.801" r=".142" />
    <circle cx="91.408" cy="30.801" r=".142" />
    <circle cx="92.613" cy="30.801" r=".142" />
  </g>
  <text id="serial" transform="translate(47.8 36.2)" fill="#000000" data-primary="ink">AB123456789</text>
  <g width="4.4cm" height="0.85cm" transform="translate(7.937 28.7175)" fill="#000000" data-primary="ink">
    <text id="barcode" transform="scale(1,2)">*AB123456789*</text>
  </g>
  <rect x="0" y="0" width="140.5" height="40.5" rx="4" fill="none" stroke="#a8a8ab" stroke-width="0.25" stroke-dasharray="0.879" />
</svg>
