<?xml version="1.0" encoding="UTF-8"?>
<svg id="Layer_1" xmlns="http://www.w3.org/2000/svg" width="72.588mm" height="25.088mm" version="1.1" viewBox="0 0 205.762 71.116">
  <defs>
    <style type="text/css">
      <![CDATA[
        @font-face {
          font-family: "OCR-B";
          src: url('fonts/OCR-B.otf') format('opentype');
          font-weight: normal;
          font-style: normal;
        }
        @font-face {
          font-family: "Libre Barcode 39";
          src: url('fonts/LibreBarcode39-Regular.ttf') format('TrueType');
          font-weight: normal;
          font-style: normal;
        }
        .serial {
          font-family: "OCR-B", "OCR B Std";
          font-size: 10.056px;
          letter-spacing: -0.023em;
          text-transform: uppercase;
          font-variant-numeric: slashed-zero;
        }
        .barcode {
          font-family: "Libre Barcode 39";
          letter-spacing: 0;
          font-size: 32.193px;
          font-weight: 400;
          font-style: normal;
          text-transform: uppercase;
        }
      ]]>
    </style>
  </defs>
  <g fill="#231f20" data-background="background">
    <path d="M201.952.125H3.81C1.775.125.125,1.775.125,3.81v63.496c0,2.035,1.65,3.685,3.685,3.685h51.623c1.487,0,2.949-.39,4.238-1.131l21.259-12.22c1.934-1.112,4.126-1.697,6.357-1.697h31.188c2.231,0,4.423.585,6.357,1.697l21.259,12.22c1.289.741,2.751,1.131,4.238,1.131h51.623c2.035,0,3.685-1.65,3.685-3.685V3.81c0-2.035-1.65-3.685-3.685-3.685h0Z"/>
  </g>
  <g fill="none" stroke="none" stroke-width="0.25pt" stroke-dasharray="0.9pt" data-stroke="stroke">
    <path d="M201.952.125H3.81C1.775.125.125,1.775.125,3.81v63.496c0,2.035,1.65,3.685,3.685,3.685h51.623c1.487,0,2.949-.39,4.238-1.131l21.259-12.22c1.934-1.112,4.126-1.697,6.357-1.697h31.188c2.231,0,4.423.585,6.357,1.697l21.259,12.22c1.289.741,2.751,1.131,4.238,1.131h51.623c2.035,0,3.685-1.65,3.685-3.685V3.81c0-2.035-1.65-3.685-3.685-3.685h0Z"/>
  </g>
  <g fill="#fff" data-foreground="foreground">
    <g>
      <g>
        <path d="M33.346,67.036c-.011-.338-.022-.748-.022-1.157h-.007c-.081.359-.184.761-.279,1.091l-.302,1.1h-.438l-.265-1.087c-.081-.335-.162-.736-.225-1.104h-.008c-.011.38-.025.814-.04,1.166l-.048,1.07h-.519l.158-2.818h.746l.243.941c.081.326.154.677.21,1.007h.015c.065-.325.15-.697.235-1.012l.261-.937h.735l.133,2.818h-.545l-.04-1.079h.002Z"/>
        <path d="M34.992,67.391l-.177.724h-.577l.754-2.818h.735l.772,2.818h-.607l-.19-.724h-.71ZM35.621,66.915l-.155-.598c-.044-.167-.088-.376-.125-.543h-.007c-.037.167-.073.38-.114.543l-.146.598h.548-.001Z"/>
        <path d="M36.89,65.338c.205-.037.474-.062.753-.062.475,0,.784.101,1.02.301.257.218.419.564.419,1.062,0,.539-.173.911-.408,1.141-.261.247-.662.364-1.147.364-.291,0-.5-.021-.636-.042v-2.764h0ZM37.449,67.634c.048.013.129.013.194.013.512.004.847-.314.847-.987,0-.585-.302-.895-.787-.895-.122,0-.206.013-.254.025,0,0,0,1.844,0,1.844Z"/>
        <path d="M40.988,66.923h-.912v.669h1.019v.522h-1.578v-2.818h1.526v.523h-.967v.585h.912s0,.519,0,.519Z"/>
        <path d="M42.905,65.296v2.818h-.56v-2.818h.56Z"/>
        <path d="M43.452,68.115v-2.818h.654l.515,1.033c.147.297.29.647.404.966h.008c-.033-.372-.044-.753-.044-1.179v-.82h.515v2.818h-.589l-.529-1.087c-.147-.301-.312-.665-.431-.995h-.015c.019.376.026.773.026,1.233v.849h-.515,0Z"/>
        <path d="M48.671,68.04c-.1.055-.335.121-.633.121-.856,0-1.298-.61-1.298-1.413,0-.962.603-1.492,1.354-1.492.29,0,.511.062.61.125l-.118.502c-.11-.055-.269-.104-.471-.104-.441,0-.787.305-.787.932,0,.564.295.92.791.92.173,0,.356-.037.471-.092l.081.502h0Z"/>
        <path d="M49.668,65.296v1.083h.923v-1.083h.559v2.818h-.559v-1.179h-.923v1.179h-.56v-2.818s.56,0,.56,0Z"/>
        <path d="M52.266,65.296v2.818h-.56v-2.818h.56Z"/>
        <path d="M52.812,68.115v-2.818h.654l.515,1.033c.147.297.29.647.404.966h.008c-.033-.372-.044-.753-.044-1.179v-.82h.515v2.818h-.589l-.529-1.087c-.147-.301-.312-.665-.431-.995h-.015c.019.376.026.773.026,1.233v.849h-.515,0Z"/>
        <path d="M55.99,67.391l-.177.724h-.577l.754-2.818h.735l.772,2.818h-.607l-.19-.724h-.71ZM56.619,66.915l-.155-.598c-.044-.167-.088-.376-.125-.543h-.007c-.037.167-.073.38-.114.543l-.146.598h.548-.001Z"/>
      </g>
      <g>
        <path d="M4.72,68.04c-.1.055-.335.121-.633.121-.856,0-1.298-.61-1.298-1.413,0-.962.603-1.492,1.354-1.492.29,0,.511.062.61.125l-.118.502c-.11-.055-.269-.104-.471-.104-.441,0-.787.305-.787.932,0,.564.295.92.791.92.173,0,.356-.037.471-.092l.081.502h0Z"/>
        <path d="M4.97,68.278l.787-3.031h.371l-.786,3.031h-.372Z"/>
        <path d="M7.01,67.391l-.177.724h-.577l.754-2.818h.735l.772,2.818h-.607l-.19-.724h-.71ZM7.639,66.915l-.155-.598c-.044-.167-.088-.376-.125-.543h-.007c-.037.167-.073.38-.114.543l-.146.598h.548,0Z"/>
        <path d="M10.886,67.985c-.173.067-.501.159-.828.159-.452,0-.779-.13-1.007-.376-.225-.247-.35-.615-.35-1.029.004-.937.603-1.472,1.416-1.472.319,0,.565.071.688.134l-.118.515c-.136-.071-.302-.121-.573-.121-.467,0-.824.297-.824.911,0,.586.324.924.783.924.125,0,.229-.017.272-.037v-.594h-.383v-.498h.924s0,1.484,0,1.484Z"/>
        <path d="M11.87,65.832h-.67v-.535h1.905v.535h-.677v2.283h-.559v-2.283h.001Z"/>
        <path d="M14.296,66.493v.422h-.964v-.422h.964Z"/>
        <path d="M15.269,65.296v1.618c0,.489.165.736.448.736.295,0,.456-.234.456-.736v-1.618h.56v1.581c0,.869-.387,1.283-1.034,1.283-.625,0-.988-.397-.988-1.292v-1.572h.559,0Z"/>
        <path d="M17.299,67.458c.147.088.383.176.622.176.257,0,.394-.122.394-.306,0-.176-.118-.275-.416-.393-.412-.168-.684-.427-.684-.837,0-.48.356-.844.938-.844.283,0,.485.062.633.142l-.125.51c-.096-.054-.276-.133-.516-.133-.242,0-.36.129-.36.271,0,.18.137.259.46.396.438.185.64.443.64.841,0,.473-.316.874-.996.874-.283,0-.562-.088-.702-.176l.113-.522h0Z"/>
        <path d="M19.908,67.391l-.177.724h-.577l.754-2.818h.735l.772,2.818h-.607l-.191-.724h-.709ZM20.537,66.915l-.154-.598c-.045-.167-.089-.376-.126-.543h-.007c-.037.167-.073.38-.114.543l-.146.598h.548-.001Z"/>
      </g>
      <g>
        <path d="M4.678,5.673c-.011-.321-.021-.71-.021-1.099h-.008c-.079.341-.182.722-.275,1.036l-.298,1.043h-.433l-.261-1.032c-.08-.317-.16-.698-.222-1.047h-.008c-.011.361-.025.773-.04,1.107l-.047,1.016h-.512l.156-2.674h.736l.24.893c.08.31.152.643.207.956h.015c.065-.31.148-.663.232-.96l.258-.889h.727l.13,2.674h-.537l-.04-1.023h.001Z"/>
        <path d="M7.927,5.332c0,.881-.483,1.408-1.202,1.408-.723,0-1.151-.599-1.151-1.365,0-.801.473-1.4,1.191-1.4.752,0,1.162.615,1.162,1.357ZM6.159,5.364c0,.528.225.896.596.896.374,0,.588-.389.588-.908,0-.484-.207-.897-.588-.897-.378,0-.596.389-.596.909Z"/>
        <path d="M8.294,4.062c.204-.036.469-.06.745-.06.469,0,.773.095,1.006.286.254.207.414.536.414,1.008,0,.512-.171.865-.403,1.083-.258.234-.653.345-1.133.345-.287,0-.494-.02-.629-.04v-2.623h0ZM8.847,6.241c.047.012.127.012.192.012.505.004.835-.297.835-.936,0-.556-.298-.849-.777-.849-.119,0-.203.012-.25.024v1.75h0Z"/>
        <path d="M12.284,5.566h-.901v.635h1.007v.496h-1.559v-2.674h1.507v.496h-.955v.556h.901v.492h0Z"/>
        <path d="M12.773,4.023h.552v2.166h.974v.508h-1.525v-2.674h-.001Z"/>
        <path d="M15.363,6.697v-2.674h.646l.509.98c.146.281.287.615.399.916h.007c-.032-.353-.043-.714-.043-1.119v-.777h.508v2.674h-.58l-.523-1.032c-.146-.285-.309-.63-.425-.944h-.015c.019.357.025.734.025,1.17v.805h-.509.001Z"/>
        <path d="M20.115,5.332c0,.881-.483,1.408-1.202,1.408-.723,0-1.151-.599-1.151-1.365,0-.801.473-1.4,1.191-1.4.752,0,1.162.615,1.162,1.357ZM18.346,5.364c0,.528.225.896.596.896.374,0,.588-.389.588-.908,0-.484-.207-.897-.588-.897-.378,0-.596.389-.596.909Z"/>
        <path d="M20.279,6.375c0-.218.135-.369.327-.369.188,0,.319.147.323.369,0,.21-.131.365-.331.365-.185,0-.319-.154-.319-.365Z"/>
      </g>
      <g>
        <path d="M2.645,8.85c.204-.036.504-.063.845-.063.417,0,.709.068.908.24.171.145.263.362.263.644,0,.385-.254.652-.496.748v.014c.196.086.305.286.375.566.088.349.171.748.226.866h-.65c-.041-.091-.112-.335-.191-.711-.079-.385-.2-.485-.462-.49h-.188v1.201h-.629v-3.014h0ZM3.273,10.165h.25c.316,0,.504-.172.504-.44,0-.276-.175-.421-.467-.421-.154,0-.241.009-.287.022,0,0,0,.839,0,.839Z"/>
        <path d="M5.806,11.08l-.2.784h-.653l.854-3.055h.833l.875,3.055h-.688l-.216-.784h-.805ZM6.519,10.563l-.176-.648c-.05-.181-.1-.408-.142-.589h-.008c-.042.182-.083.413-.129.589l-.167.648h.622Z"/>
        <path d="M8.085,9.389h-.758v-.58h2.158v.58h-.767v2.475h-.634v-2.475h0Z"/>
        <path d="M10.46,8.809v3.055h-.633v-3.055h.633Z"/>
        <path d="M11.011,11.864v-3.055h.741l.583,1.12c.167.322.329.703.458,1.047h.009c-.038-.403-.05-.816-.05-1.278v-.889h.583v3.055h-.667l-.6-1.178c-.167-.326-.354-.721-.487-1.079h-.017c.021.408.029.838.029,1.337v.92h-.583.001Z"/>
        <path d="M16.23,11.723c-.195.073-.566.172-.938.172-.512,0-.883-.141-1.141-.408-.255-.268-.396-.667-.396-1.115.005-1.015.684-1.595,1.604-1.595.362,0,.641.077.778.145l-.133.558c-.154-.077-.342-.131-.65-.131-.528,0-.933.322-.933.988,0,.635.366,1.001.887,1.001.142,0,.259-.018.309-.041v-.644h-.434v-.54h1.046v1.609h0Z"/>
        <path d="M21.149,9.484h-1.049l-.059.453c.059-.009.108-.009.175-.009.258,0,.524.063.712.213.204.149.329.395.329.739,0,.548-.433,1.033-1.162,1.033-.329,0-.604-.082-.754-.167l.117-.517c.116.063.362.145.607.145.263,0,.542-.136.542-.449,0-.304-.221-.49-.763-.49-.149,0-.254.009-.362.027l.175-1.545h1.491v.566h.001Z"/>
        <path d="M21.688,11.497c0-.249.154-.421.375-.421.217,0,.367.167.371.421,0,.24-.15.417-.379.417-.213,0-.367-.177-.367-.417Z"/>
        <path d="M22.741,11.864v-.417l.346-.34c.596-.58.884-.911.888-1.255,0-.24-.129-.431-.441-.431-.233,0-.438.127-.579.24l-.179-.489c.199-.167.521-.304.883-.304.616,0,.949.39.949.92,0,.499-.324.893-.721,1.273l-.249.227v.009h1.024v.566h-1.921,0Z"/>
        <path d="M25.813,11.864l-.9-3.055h.696l.342,1.292c.096.367.183.711.249,1.092h.013c.071-.367.158-.729.254-1.079l.358-1.305h.675l-.945,3.055h-.742Z"/>
      </g>
      <g>
        <path d="M2.645,13.493c.166-.032.499-.063.82-.063.388,0,.625.041.833.172.195.113.333.322.333.603,0,.268-.146.517-.462.648v.009c.32.091.558.358.558.748,0,.281-.116.499-.291.653-.204.177-.546.276-1.104.276-.312,0-.545-.022-.687-.045v-3h0ZM3.273,14.662h.208c.337,0,.513-.15.513-.376,0-.231-.163-.354-.45-.354-.142,0-.221.009-.271.018v.712ZM3.273,16.017c.062.009.137.009.245.009.288,0,.542-.122.542-.444,0-.304-.254-.426-.571-.426h-.216s0,.861,0,.861Z"/>
        <path d="M5.798,15.722l-.2.784h-.653l.854-3.055h.833l.875,3.055h-.688l-.216-.784h-.805ZM6.511,15.206l-.176-.648c-.05-.181-.1-.408-.142-.589h-.008c-.042.182-.083.413-.129.589l-.167.648h.622Z"/>
        <path d="M8.076,14.032h-.758v-.58h2.158v.58h-.767v2.475h-.634v-2.475h.001Z"/>
        <path d="M10.451,14.032h-.758v-.58h2.158v.58h-.767v2.475h-.634v-2.475h.001Z"/>
        <path d="M13.859,15.215h-1.033v.725h1.154v.566h-1.787v-3.055h1.729v.567h-1.096v.634h1.033v.562h0Z"/>
        <path d="M14.414,13.493c.204-.036.504-.063.845-.063.417,0,.709.068.908.24.171.145.263.362.263.644,0,.385-.254.652-.496.748v.014c.196.086.305.286.375.566.088.349.171.748.226.866h-.65c-.041-.091-.112-.335-.191-.711-.079-.385-.2-.485-.462-.49h-.188v1.201h-.629v-3.014h-.001ZM15.043,14.807h.25c.316,0,.504-.172.504-.44,0-.276-.175-.421-.467-.421-.154,0-.241.009-.287.022,0,0,0,.839,0,.839Z"/>
        <path d="M17.455,16.506v-1.251l-.888-1.804h.729l.283.734c.088.222.149.385.217.584h.008c.062-.19.13-.367.213-.584l.283-.734h.712l-.925,1.781v1.273h-.633.001Z"/>
        <path d="M22.038,13.452h.633v2.475h1.116v.58h-1.749s0-3.055,0-3.055Z"/>
        <path d="M24.796,13.674c0,.19-.129.345-.342.345-.2,0-.329-.154-.329-.345,0-.195.134-.344.338-.344s.329.149.333.344ZM24.142,16.506v-2.216h.634v2.216h-.634Z"/>
        <path d="M26.246,15.088v.458h-1.092v-.458h1.092Z"/>
        <path d="M27.279,13.674c0,.19-.129.345-.342.345-.2,0-.329-.154-.329-.345,0-.195.134-.344.338-.344s.329.149.333.344ZM26.625,16.506v-2.216h.634v2.216h-.634Z"/>
        <path d="M29.778,15.374c0,.811-.528,1.183-1.074,1.183-.596,0-1.054-.426-1.054-1.142,0-.72.433-1.178,1.091-1.178.621,0,1.037.467,1.037,1.138h0ZM28.304,15.396c0,.381.146.666.417.666.25,0,.404-.267.404-.67,0-.326-.117-.662-.404-.662-.3,0-.417.34-.417.666Z"/>
        <path d="M30.17,14.997c0-.276-.008-.507-.017-.707h.55l.029.309h.013c.083-.145.287-.358.629-.358.417,0,.729.304.729.957v1.31h-.633v-1.228c0-.286-.092-.48-.32-.48-.176,0-.279.131-.325.258-.017.045-.021.109-.021.172v1.278h-.634v-1.511Z"/>
        <path d="M33.523,13.203c-.233.417-.42,1.024-.42,1.835,0,.797.187,1.4.42,1.826h-.441c-.221-.354-.475-.956-.475-1.826.004-.884.254-1.482.475-1.835h.441Z"/>
        <path d="M34.595,15.722l-.2.784h-.653l.854-3.055h.833l.875,3.055h-.688l-.216-.784h-.805ZM35.308,15.206l-.176-.648c-.05-.181-.1-.408-.142-.589h-.008c-.042.182-.083.413-.129.589l-.167.648h.622Z"/>
        <path d="M38.915,16.366c-.195.073-.566.172-.938.172-.512,0-.883-.141-1.141-.408-.255-.268-.396-.667-.396-1.115.005-1.015.684-1.595,1.604-1.595.362,0,.641.077.778.145l-.133.558c-.154-.077-.342-.131-.65-.131-.528,0-.933.322-.933.988,0,.635.366,1.001.887,1.001.142,0,.259-.018.309-.041v-.644h-.434v-.54h1.046v1.609h0Z"/>
        <path d="M39.433,15.795c.166.095.433.19.704.19.291,0,.445-.131.445-.331,0-.19-.133-.299-.471-.426-.467-.182-.774-.462-.774-.907,0-.521.404-.915,1.062-.915.321,0,.551.068.717.154l-.142.553c-.108-.059-.312-.146-.583-.146-.275,0-.408.141-.408.295,0,.195.154.281.521.431.496.199.725.48.725.911,0,.512-.357.947-1.129.947-.32,0-.637-.095-.795-.19l.129-.566h0Z"/>
        <path d="M42.603,14.748v.458h-1.092v-.458h1.092Z"/>
        <path d="M44.902,15.02c0,.906-.338,1.536-1.025,1.536-.699,0-1.008-.684-1.012-1.518,0-.856.329-1.527,1.028-1.527.721,0,1.009.703,1.009,1.509ZM43.498,15.038c0,.675.15.997.392.997.246,0,.379-.335.379-1.006,0-.652-.129-.997-.383-.997-.229,0-.388.317-.388,1.006Z"/>
        <path d="M47.215,15.02c0,.906-.338,1.536-1.025,1.536-.699,0-1.008-.684-1.012-1.518,0-.856.329-1.527,1.028-1.527.721,0,1.009.703,1.009,1.509ZM45.811,15.038c0,.675.15.997.392.997.246,0,.379-.335.379-1.006,0-.652-.129-.997-.383-.997-.229,0-.388.317-.388,1.006Z"/>
        <path d="M47.64,15.831c.113.068.371.181.629.181.329,0,.496-.172.496-.39,0-.294-.267-.426-.546-.426h-.258v-.494h.25c.212,0,.479-.091.479-.34,0-.177-.129-.308-.399-.308-.221,0-.454.104-.562.177l-.129-.499c.162-.113.482-.222.837-.222.575,0,.896.331.896.734,0,.312-.162.562-.495.684v.009c.324.063.587.331.587.72,0,.517-.421.897-1.108.897-.35,0-.646-.1-.804-.204l.129-.521-.002.002Z"/>
        <path d="M49.81,16.864c.233-.421.421-1.033.421-1.835s-.188-1.405-.421-1.826h.441c.222.349.476.942.476,1.831-.005.879-.254,1.473-.476,1.831h-.441Z"/>
      </g>
      <g>
        <path d="M32.071,9.53h-.009l-.517.268-.104-.517.721-.363h.521v2.946h-.612s0-2.334,0-2.334Z"/>
        <path d="M33.608,11.497c0-.249.154-.421.375-.421.217,0,.367.167.371.421,0,.24-.15.417-.379.417-.213,0-.367-.177-.367-.417Z"/>
        <path d="M36.386,9.408c-.07-.005-.146,0-.245.009-.562.05-.812.363-.884.703h.013c.134-.145.325-.231.575-.231.454,0,.837.349.837.961,0,.584-.412,1.065-.995,1.065-.725,0-1.079-.584-1.079-1.287,0-.553.188-1.015.483-1.314.267-.268.62-.408,1.041-.431.117-.014.196-.009.254-.004v.53h0ZM36.041,10.885c0-.272-.133-.507-.403-.507-.171,0-.312.113-.371.258-.021.041-.029.095-.029.177.013.312.15.594.441.594.221,0,.362-.222.362-.521h0Z"/>
        <path d="M37.524,11.864l-.666-3.055h.679l.213,1.255c.062.367.121.762.166,1.07h.009c.046-.331.112-.698.184-1.079l.237-1.247h.675l.225,1.287c.062.358.108.685.15,1.024h.008c.042-.34.104-.698.163-1.065l.229-1.247h.646l-.725,3.055h-.688l-.237-1.314c-.054-.308-.1-.593-.133-.942h-.009c-.05.344-.096.634-.162.942l-.267,1.314h-.696v.002Z"/>
      </g>
      <g>
        <g>
          <path d="M22.858,5.917l-.196.773h-.645l.841-3.013h.821l.862,3.013h-.678l-.214-.773h-.792.001ZM23.56,5.407l-.172-.639c-.05-.179-.099-.402-.14-.581h-.009c-.041.179-.082.407-.127.581l-.164.639h.612Z"/>
          <path d="M27.12,6.552c-.193.072-.559.17-.924.17-.505,0-.87-.139-1.125-.402-.25-.264-.39-.657-.39-1.1.004-1.001.673-1.574,1.58-1.574.357,0,.633.076.768.143l-.131.55c-.152-.076-.337-.13-.641-.13-.521,0-.919.317-.919.975,0,.626.36.988.874.988.14,0,.254-.018.304-.041v-.635h-.427v-.532h1.03v1.587h0Z"/>
          <path d="M27.632,5.988c.165.094.428.188.694.188.287,0,.438-.13.438-.326,0-.188-.131-.295-.463-.42-.46-.179-.764-.456-.764-.894,0-.514.397-.903,1.047-.903.315,0,.541.067.705.152l-.139.545c-.107-.058-.309-.143-.575-.143-.271,0-.402.138-.402.291,0,.192.152.277.514.424.488.197.714.474.714.899,0,.505-.354.935-1.112.935-.316,0-.628-.094-.784-.188l.127-.559h0Z"/>
        </g>
        <rect x="29.958" y="5.376" width=".692" height=".373"/>
        <g>
          <path d="M31.911,4.404h-.008l-.502.262-.101-.506.699-.355h.506v2.886h-.595v-2.287h.001Z"/>
          <path d="M35.355,5.234c0,.888-.327,1.505-.994,1.505-.68,0-.979-.67-.982-1.487,0-.839.319-1.497.998-1.497.7,0,.979.688.979,1.479h-.001ZM33.993,5.252c0,.662.146.977.38.977.239,0,.368-.329.368-.986,0-.639-.125-.977-.372-.977-.223,0-.376.311-.376.986Z"/>
          <path d="M36.552,4.349h-.009l-.536.268-.107-.518.747-.364h.54v2.956h-.635s0-2.342,0-2.342Z"/>
        </g>
      </g>
      <g>
        <path d="M17.931,10.291c.15,0,.271-.121.271-.271s-.121-.271-.271-.271-.271.121-.271.271.121.271.271.271Z"/>
        <path d="M17.931,11.318c-.15,0-.271.121-.271.271s.121.271.271.271.271-.121.271-.271-.121-.271-.271-.271Z"/>
      </g>
      <g>
        <path d="M20.469,14.988c.15,0,.271-.121.271-.271s-.121-.271-.271-.271-.271.121-.271.271.121.271.271.271Z"/>
        <path d="M20.469,16.014c-.15,0-.271.121-.271.271s.121.271.271.271.271-.121.271-.271-.121-.271-.271-.271Z"/>
      </g>
      <g>
        <rect x="28.184" y="9.82" width="2.266" height=".4"/>
        <rect x="28.184" y="10.856" width=".389" height=".4"/>
        <rect x="30.061" y="10.856" width=".389" height=".4"/>
        <rect x="29.123" y="10.856" width=".389" height=".4"/>
      </g>
      <g>
        <path d="M3.029,19.235h-.615v-.405h1.631v.405h-.621v2.248h-.395v-2.248Z"/>
        <path d="M4.691,18.83v1.063h.913v-1.063h.394v2.653h-.394v-1.169h-.913v1.169h-.395v-2.653h.395Z"/>
        <path d="M6.842,18.83v2.653h-.395v-2.653h.395Z"/>
        <path d="M7.287,20.956c.125.09.321.169.522.169.25,0,.392-.146.392-.362,0-.201-.109-.319-.382-.441-.358-.158-.586-.39-.586-.772,0-.437.295-.764.766-.764.233,0,.403.063.516.134l-.093.39c-.08-.051-.23-.126-.433-.126-.25,0-.355.162-.355.319,0,.205.125.299.413.437.375.173.555.406.555.788,0,.429-.263.799-.817.799-.23,0-.468-.079-.586-.169l.089-.401h-.001Z"/>
        <path d="M9.731,18.865c.176-.031.395-.055.628-.055.404,0,.68.102.878.307.212.209.34.528.34.977,0,.476-.132.827-.337,1.055-.214.24-.558.362-.977.362-.228,0-.401-.016-.532-.035v-2.61h0ZM10.126,21.117c.054.012.138.012.218.012.513.004.816-.346.816-1.02.004-.583-.272-.921-.766-.921-.125,0-.211.012-.269.027v1.901h0Z"/>
        <path d="M13.126,20.306h-.813v.78h.909v.397h-1.304v-2.653h1.256v.397h-.861v.685h.813s0,.394,0,.394Z"/>
        <path d="M14.085,21.483l-.698-2.653h.43l.295,1.208c.083.334.156.642.211.964h.007c.058-.315.138-.638.221-.96l.314-1.212h.419l-.746,2.653h-.453Z"/>
        <path d="M15.912,18.83v2.653h-.395v-2.653h.395Z"/>
        <path d="M17.911,21.409c-.093.055-.298.118-.561.118-.687,0-1.103-.528-1.103-1.339,0-.874.496-1.401,1.156-1.401.26,0,.442.067.522.118l-.083.386c-.103-.055-.247-.102-.423-.102-.439,0-.757.338-.757.976,0,.586.276.957.753.957.157,0,.324-.039.43-.094l.064.382h.002Z"/>
        <path d="M19.454,20.306h-.813v.78h.909v.397h-1.304v-2.653h1.256v.397h-.861v.685h.813v.394Z"/>
        <path d="M22.218,21.409c-.093.055-.298.118-.561.118-.687,0-1.103-.528-1.103-1.339,0-.874.496-1.401,1.156-1.401.26,0,.442.067.522.118l-.083.386c-.103-.055-.247-.102-.423-.102-.439,0-.757.338-.757.976,0,.586.276.957.754.957.156,0,.323-.039.429-.094l.064.382h.002Z"/>
        <path d="M24.386,20.129c0,.89-.438,1.397-1.031,1.397-.612,0-.997-.575-.997-1.351,0-.819.42-1.394,1.028-1.394.629,0,1,.586,1,1.347h0ZM22.775,20.165c0,.543.221.973.599.973.382,0,.597-.437.597-.992,0-.5-.202-.973-.597-.973-.391,0-.599.445-.599.992Z"/>
        <path d="M26.547,20.401c-.013-.343-.029-.756-.025-1.114h-.01c-.07.323-.16.681-.257,1.016l-.316,1.149h-.302l-.288-1.134c-.083-.338-.16-.701-.218-1.031h-.007c-.01.347-.022.768-.038,1.13l-.048,1.067h-.369l.145-2.653h.519l.282,1.067c.077.311.145.626.199.921h.009c.059-.287.132-.614.215-.925l.298-1.063h.513l.125,2.653h-.384l-.042-1.083h0Z"/>
        <path d="M27.373,18.865c.145-.031.34-.055.603-.055.288,0,.496.075.635.216.128.13.211.338.211.586,0,.252-.064.457-.183.599-.16.193-.403.287-.683.287-.073,0-.138-.004-.192-.02v1.004h-.391v-2.618h0ZM27.763,20.098c.052.02.112.023.192.023.295,0,.475-.181.475-.488,0-.295-.167-.449-.439-.449-.108,0-.186.012-.228.024v.89Z"/>
        <path d="M29.163,18.83h.395v2.248h.887v.405h-1.281v-2.653h0Z"/>
        <path d="M31.135,18.83v2.653h-.395v-2.653h.395Z"/>
        <path d="M32.794,20.306h-.813v.78h.909v.397h-1.304v-2.653h1.256v.397h-.861v.685h.813v.394Z"/>
        <path d="M33.229,20.956c.125.09.321.169.522.169.25,0,.392-.146.392-.362,0-.201-.109-.319-.382-.441-.358-.158-.586-.39-.586-.772,0-.437.294-.764.766-.764.233,0,.403.063.516.134l-.093.39c-.08-.051-.23-.126-.433-.126-.25,0-.355.162-.355.319,0,.205.125.299.413.437.375.173.555.406.555.788,0,.429-.263.799-.817.799-.23,0-.468-.079-.586-.169l.089-.401h0Z"/>
        <path d="M35.888,21.483l-.529-2.653h.42l.205,1.205c.055.323.105.661.141.925h.007c.035-.28.096-.595.157-.929l.233-1.201h.414l.214,1.22c.052.315.1.61.132.897h.007c.038-.291.089-.594.146-.921l.225-1.197h.4l-.583,2.653h-.42l-.224-1.248c-.055-.303-.094-.555-.122-.842h-.007c-.035.283-.076.539-.141.842l-.25,1.248h-.426,0Z"/>
        <path d="M38.715,18.83v2.653h-.395v-2.653h.395Z"/>
        <path d="M39.58,19.235h-.615v-.405h1.631v.405h-.621v2.248h-.395v-2.248Z"/>
        <path d="M41.242,18.83v1.063h.913v-1.063h.394v2.653h-.394v-1.169h-.913v1.169h-.395v-2.653h.395Z"/>
        <path d="M43.774,18.865c.145-.031.34-.055.603-.055.288,0,.496.075.635.216.128.13.211.338.211.586,0,.252-.064.457-.183.599-.16.193-.403.287-.683.287-.073,0-.138-.004-.192-.02v1.004h-.391v-2.618h0ZM44.165,20.098c.052.02.112.023.192.023.295,0,.475-.181.475-.488,0-.295-.167-.449-.439-.449-.108,0-.186.012-.228.024v.89Z"/>
        <path d="M45.769,20.731l-.186.752h-.407l.692-2.653h.503l.701,2.653h-.426l-.195-.752h-.683,0ZM46.387,20.365l-.17-.653c-.041-.162-.076-.343-.108-.496h-.007c-.032.153-.067.338-.103.496l-.166.653h.554Z"/>
        <path d="M47.373,18.87c.15-.036.368-.059.596-.059.312,0,.52.063.667.212.118.122.186.307.186.535,0,.343-.189.575-.395.662v.012c.157.071.25.256.302.512.07.331.128.638.17.74h-.404c-.031-.079-.086-.295-.144-.626-.064-.346-.164-.457-.388-.464h-.199v1.09h-.391s0-2.614,0-2.614ZM47.763,20.039h.234c.266,0,.429-.173.429-.437,0-.287-.163-.425-.419-.425-.125,0-.205.012-.244.024,0,0,0,.838,0,.838Z"/>
        <path d="M49.625,19.235h-.615v-.405h1.631v.405h-.621v2.248h-.395v-2.248Z"/>
        <path d="M52.196,19.361h-.006l-.382.236-.067-.366.51-.307h.327v2.559h-.382s0-2.122,0-2.122Z"/>
        <path d="M54.621,19.326h-.802l-.061.512c.045-.008.086-.012.147-.012.183,0,.368.051.506.165.157.122.272.339.272.65,0,.488-.33.886-.84.886-.243,0-.445-.075-.554-.15l.08-.366c.09.059.269.134.458.134.23,0,.452-.162.452-.465,0-.295-.177-.488-.59-.488-.118,0-.205.012-.285.024l.135-1.292h1.08v.402h.002Z"/>
        <path d="M57.791,20.129c0,.89-.438,1.397-1.031,1.397-.612,0-.997-.575-.997-1.351,0-.819.42-1.394,1.028-1.394.629,0,1,.586,1,1.347h0ZM56.179,20.165c0,.543.221.973.599.973.382,0,.597-.437.597-.992,0-.5-.202-.973-.597-.973-.391,0-.599.445-.599.992Z"/>
        <path d="M58.128,18.83h1.25v.397h-.855v.732h.794v.394h-.794v1.13h-.395s0-2.653,0-2.653Z"/>
        <path d="M3.072,23.625h-.656v-.405h1.739v.405h-.662v2.248h-.421s0-2.248,0-2.248Z"/>
        <path d="M4.779,23.22v1.063h.974v-1.063h.421v2.653h-.421v-1.169h-.974v1.169h-.421v-2.653h.421Z"/>
        <path d="M7.877,24.696h-.868v.78h.971v.397h-1.392v-2.653h1.34v.397h-.919v.685h.868s0,.394,0,.394Z"/>
        <path d="M9.143,23.22h1.334v.397h-.913v.732h.848v.394h-.848v1.13h-.421s0-2.653,0-2.653Z"/>
        <path d="M12.467,25.799c-.1.055-.318.118-.598.118-.732,0-1.176-.528-1.176-1.339,0-.874.529-1.401,1.233-1.401.276,0,.472.067.558.118l-.09.386c-.109-.055-.263-.102-.451-.102-.468,0-.807.338-.807.976,0,.586.295.957.804.957.167,0,.345-.039.458-.094l.068.382h.001Z"/>
        <path d="M14.321,25.799c-.1.055-.318.118-.598.118-.732,0-1.176-.528-1.176-1.339,0-.874.529-1.401,1.233-1.401.276,0,.472.067.558.118l-.09.386c-.109-.055-.263-.102-.451-.102-.468,0-.807.338-.807.976,0,.586.295.957.804.957.167,0,.345-.039.458-.094l.068.382h.001Z"/>
        <path d="M15.473,23.259c.161-.035.394-.059.637-.059.331,0,.553.063.711.212.126.122.197.307.197.535,0,.343-.201.575-.42.662v.012c.168.071.267.256.321.512.075.331.137.638.181.74h-.43c-.035-.079-.093-.295-.154-.626-.068-.346-.174-.457-.414-.464h-.211v1.09h-.418s0-2.614,0-2.614ZM15.891,24.429h.249c.284,0,.458-.173.458-.437,0-.287-.174-.425-.447-.425-.134,0-.219.012-.26.024,0,0,0,.838,0,.838Z"/>
        <path d="M17.754,23.22v1.547c0,.52.188.76.473.76.304,0,.484-.24.484-.76v-1.547h.421v1.516c0,.819-.366,1.181-.919,1.181-.533,0-.879-.343-.879-1.177v-1.52h.42Z"/>
        <path d="M19.547,23.22h.421v2.248h.946v.405h-1.367s0-2.653,0-2.653Z"/>
        <path d="M22.455,24.696h-.868v.78h.971v.397h-1.391v-2.653h1.34v.397h-.92v.685h.868v.394Z"/>
        <path d="M22.852,25.346c.133.09.342.169.557.169.267,0,.417-.146.417-.362,0-.201-.116-.319-.407-.441-.383-.158-.625-.39-.625-.772,0-.437.314-.764.816-.764.25,0,.432.063.551.134l-.1.39c-.085-.051-.246-.126-.461-.126-.267,0-.379.161-.379.319,0,.205.133.299.44.437.399.173.591.405.591.787,0,.429-.279.799-.871.799-.246,0-.499-.079-.625-.169,0,0,.096-.401.096-.401Z"/>
        <path d="M24.497,25.606c0-.181.109-.311.26-.311.154,0,.26.126.26.311,0,.177-.102.311-.263.311-.15,0-.257-.134-.257-.311Z"/>
        <path d="M28.21,24.519c0,.89-.468,1.398-1.1,1.398-.653,0-1.063-.575-1.063-1.351,0-.819.448-1.394,1.097-1.394.67,0,1.066.586,1.066,1.346h0ZM26.491,24.555c0,.543.236.972.639.972.407,0,.637-.437.637-.992,0-.5-.216-.973-.637-.973-.416,0-.639.445-.639.992h0Z"/>
        <path d="M28.506,23.255c.153-.031.361-.055.643-.055.307,0,.529.075.676.216.137.13.227.338.227.586,0,.252-.068.457-.195.599-.171.193-.431.287-.729.287-.078,0-.146-.004-.205-.02v1.004h-.416v-2.618h0ZM28.922,24.488c.055.02.12.023.205.023.314,0,.506-.181.506-.488,0-.295-.178-.449-.468-.449-.116,0-.198.012-.243.023v.89h0Z"/>
        <path d="M31.638,24.696h-.868v.78h.971v.397h-1.391v-2.653h1.34v.397h-.92v.685h.868v.394Z"/>
        <path d="M32.043,23.259c.16-.035.393-.059.635-.059.332,0,.555.063.711.212.127.122.199.307.199.535,0,.343-.202.575-.421.662v.012c.167.071.267.256.321.512.075.331.137.638.182.74h-.432c-.033-.079-.092-.295-.153-.626-.068-.346-.175-.457-.413-.464h-.213v1.09h-.416s0-2.614,0-2.614ZM32.46,24.429h.25c.283,0,.458-.173.458-.437,0-.287-.175-.425-.448-.425-.133,0-.219.012-.26.024v.838Z"/>
        <path d="M34.406,25.122l-.198.752h-.434l.738-2.653h.536l.749,2.653h-.455l-.209-.752h-.728.001ZM35.065,24.755l-.181-.653c-.044-.162-.082-.343-.116-.496h-.007c-.034.153-.071.338-.109.496l-.178.653h.591Z"/>
        <path d="M36.215,23.625h-.656v-.405h1.74v.405h-.664v2.248h-.42s0-2.248,0-2.248Z"/>
        <path d="M37.922,23.22v2.653h-.42v-2.653h.42Z"/>
        <path d="M40.381,24.519c0,.89-.469,1.398-1.102,1.398-.652,0-1.062-.575-1.062-1.351,0-.819.447-1.394,1.098-1.394.67,0,1.066.586,1.066,1.346h0ZM38.662,24.555c0,.543.235.972.64.972s.635-.437.635-.992c0-.5-.215-.973-.635-.973s-.64.445-.64.992h0Z"/>
        <path d="M40.673,25.874v-2.653h.481l.596,1.138c.15.295.287.603.393.89h.007c-.03-.354-.038-.697-.038-1.102v-.925h.391v2.653h-.438l-.602-1.169c-.147-.291-.298-.614-.41-.913l-.014.004c.017.342.023.693.023,1.13v.949h-.39v-.002Z"/>
        <path d="M44.203,23.22v2.653h-.421v-2.653h.421Z"/>
        <path d="M44.61,25.346c.134.09.342.169.558.169.267,0,.417-.146.417-.362,0-.201-.116-.319-.406-.441-.383-.158-.626-.39-.626-.772,0-.437.314-.764.817-.764.249,0,.43.063.55.134l-.099.39c-.086-.051-.246-.126-.462-.126-.267,0-.38.161-.38.319,0,.205.134.299.441.437.4.173.592.405.592.787,0,.429-.281.799-.872.799-.246,0-.499-.079-.626-.169,0,0,.096-.401.096-.401Z"/>
        <path d="M47.178,25.346c.134.09.342.169.558.169.267,0,.417-.146.417-.362,0-.201-.116-.319-.406-.441-.383-.158-.626-.39-.626-.772,0-.437.314-.764.817-.764.249,0,.43.063.55.134l-.099.39c-.086-.051-.246-.126-.462-.126-.267,0-.38.161-.38.319,0,.205.134.299.441.437.4.173.592.405.592.787,0,.429-.281.799-.872.799-.246,0-.499-.079-.626-.169,0,0,.096-.401.096-.401Z"/>
        <path d="M49.309,23.22v1.547c0,.52.188.76.473.76.304,0,.484-.24.484-.76v-1.547h.421v1.516c0,.819-.366,1.181-.919,1.181-.533,0-.879-.343-.879-1.177v-1.52h.42Z"/>
        <path d="M51.102,23.259c.134-.031.377-.059.615-.059.309,0,.503.047.656.169.145.099.24.272.24.5,0,.244-.134.465-.383.571v.012c.242.071.465.292.465.654,0,.236-.09.421-.219.551-.164.161-.435.244-.858.244-.232,0-.407-.02-.517-.035v-2.606h0ZM51.52,24.307h.215c.294,0,.455-.157.455-.382,0-.252-.164-.366-.432-.366-.123,0-.194.008-.238.02,0,0,0,.728,0,.728ZM51.52,25.523c.055.012.126.012.222.012.271,0,.513-.114.513-.441,0-.311-.236-.437-.526-.437h-.208v.866h0Z"/>
        <path d="M53.461,23.22h.421v1.72c0,.732-.308.977-.763.977-.119,0-.263-.024-.355-.063l.052-.39c.068.027.161.047.26.047.239,0,.386-.126.386-.586v-1.705h0Z"/>
        <path d="M55.565,24.696h-.868v.78h.971v.397h-1.392v-2.653h1.34v.397h-.919v.685h.868s0,.394,0,.394Z"/>
        <path d="M57.62,25.799c-.1.055-.318.118-.598.118-.732,0-1.176-.528-1.176-1.339,0-.874.529-1.401,1.233-1.401.276,0,.472.067.558.118l-.09.386c-.109-.055-.263-.102-.451-.102-.468,0-.807.338-.807.976,0,.586.295.957.804.957.167,0,.345-.039.458-.094l.068.382h0Z"/>
        <path d="M58.42,23.625h-.656v-.405h1.74v.405h-.664v2.248h-.42s0-2.248,0-2.248Z"/>
        <path d="M3.087,28.015h-.671v-.405h1.778v.405h-.678v2.248h-.43v-2.248h.001Z"/>
        <path d="M6.392,28.909c0,.89-.479,1.398-1.125,1.398-.668,0-1.087-.575-1.087-1.351,0-.819.458-1.394,1.121-1.394.686,0,1.091.586,1.091,1.346h0ZM4.634,28.944c0,.543.241.972.653.972.416,0,.65-.437.65-.992,0-.5-.221-.973-.65-.973-.426,0-.653.445-.653.992h0Z"/>
        <path d="M7.688,28.015h-.671v-.405h1.778v.405h-.678v2.248h-.43v-2.248h0Z"/>
        <path d="M9.43,27.61v1.063h.996v-1.063h.43v2.653h-.43v-1.169h-.996v1.169h-.43v-2.653h.43Z"/>
        <path d="M12.595,29.086h-.888v.78h.992v.397h-1.422v-2.653h1.37v.397h-.94v.685h.888s0,.394,0,.394Z"/>
        <path d="M13.7,27.61h1.363v.397h-.934v.732h.867v.394h-.867v1.13h-.43v-2.653h.001Z"/>
        <path d="M17.499,28.909c0,.89-.479,1.398-1.125,1.398-.668,0-1.087-.575-1.087-1.351,0-.819.458-1.394,1.121-1.394.686,0,1.091.586,1.091,1.346h0ZM15.741,28.944c0,.543.241.972.653.972.416,0,.65-.437.65-.992,0-.5-.221-.973-.65-.973-.426,0-.653.445-.653.992h0Z"/>
        <path d="M17.797,27.61h.43v2.248h.968v.405h-1.397v-2.653h-.001Z"/>
        <path d="M19.45,27.61h.43v2.248h.968v.405h-1.397v-2.653h-.001Z"/>
        <path d="M23.054,28.909c0,.89-.479,1.398-1.125,1.398-.668,0-1.087-.575-1.087-1.351,0-.819.458-1.394,1.121-1.394.686,0,1.091.586,1.091,1.346h0ZM21.296,28.944c0,.543.241.972.653.972.416,0,.65-.437.65-.992,0-.5-.221-.973-.65-.973-.426,0-.653.445-.653.992h0Z"/>
        <path d="M23.725,30.263l-.576-2.653h.457l.224,1.205c.06.323.115.662.154.925h.007c.038-.28.104-.595.171-.929l.256-1.201h.45l.234,1.22c.056.315.108.61.144.898h.007c.042-.292.098-.595.16-.921l.245-1.197h.437l-.636,2.653h-.458l-.244-1.248c-.06-.303-.102-.555-.133-.842h-.008c-.038.283-.083.539-.153.842l-.272,1.248h-.466Z"/>
        <path d="M26.739,27.61v2.653h-.43v-2.653h.43Z"/>
        <path d="M27.157,30.263v-2.653h.493l.608,1.138c.153.295.293.603.401.89h.007c-.031-.354-.038-.697-.038-1.102v-.925h.398v2.653h-.447l-.615-1.169c-.15-.291-.304-.614-.419-.913l-.015.004c.018.342.024.693.024,1.13v.949h-.398v-.002Z"/>
        <path d="M31.339,30.141c-.15.063-.443.149-.755.149-.398,0-.702-.114-.926-.354-.21-.225-.328-.575-.328-.977.003-.842.531-1.378,1.311-1.378.29,0,.517.067.625.126l-.095.39c-.129-.067-.286-.114-.534-.114-.503,0-.856.334-.856.953,0,.602.329.96.818.96.157,0,.269-.023.324-.051v-.665h-.415v-.382h.831v1.342h0Z"/>
        <path d="M32.705,28.015h-.671v-.405h1.778v.405h-.678v2.248h-.43v-2.248h0Z"/>
        <path d="M34.516,30.263l-.576-2.653h.457l.224,1.205c.06.323.115.662.154.925h.007c.038-.28.104-.595.171-.929l.256-1.201h.45l.234,1.22c.056.315.108.61.144.898h.007c.042-.292.098-.595.16-.921l.245-1.197h.437l-.636,2.653h-.458l-.244-1.248c-.06-.303-.102-.555-.133-.842h-.008c-.038.283-.083.539-.153.842l-.272,1.248h-.466Z"/>
        <path d="M39.173,28.909c0,.89-.479,1.398-1.125,1.398-.668,0-1.087-.575-1.087-1.351,0-.819.458-1.394,1.121-1.394.686,0,1.091.586,1.091,1.346h0ZM37.416,28.944c0,.543.241.972.653.972.416,0,.65-.437.65-.992,0-.5-.221-.973-.65-.973-.426,0-.653.445-.653.992h0Z"/>
        <path d="M41.853,30.188c-.101.055-.324.118-.611.118-.748,0-1.202-.528-1.202-1.339,0-.874.542-1.401,1.262-1.401.283,0,.482.067.569.118l-.091.386c-.111-.055-.269-.102-.461-.102-.479,0-.825.338-.825.976,0,.586.301.957.821.957.172,0,.354-.039.469-.094l.069.382h0Z"/>
        <path d="M44.148,28.909c0,.89-.479,1.398-1.125,1.398-.668,0-1.087-.575-1.087-1.351,0-.819.458-1.394,1.121-1.394.686,0,1.091.586,1.091,1.346h0ZM42.39,28.944c0,.543.241.972.653.972.416,0,.65-.437.65-.992,0-.5-.221-.973-.65-.973-.426,0-.653.445-.653.992h0Z"/>
        <path d="M44.444,30.263v-2.653h.493l.608,1.138c.153.295.293.603.401.89h.007c-.031-.354-.038-.697-.038-1.102v-.925h.398v2.653h-.447l-.615-1.169c-.15-.291-.304-.614-.419-.913l-.015.004c.018.342.024.693.024,1.13v.949h-.398v-.002Z"/>
        <path d="M46.739,27.645c.192-.031.43-.055.685-.055.44,0,.741.102.958.307.23.209.37.528.37.977,0,.477-.144.827-.367,1.055-.233.24-.607.362-1.065.362-.248,0-.437-.016-.58-.035v-2.61h0ZM47.168,29.897c.06.012.15.012.237.012.56.004.892-.346.892-1.02.003-.583-.297-.921-.835-.921-.137,0-.23.012-.294.027v1.901h0Z"/>
        <path d="M49.485,27.61v2.653h-.43v-2.653h.43Z"/>
        <path d="M50.358,28.015h-.671v-.405h1.778v.405h-.678v2.248h-.43v-2.248h.001Z"/>
        <path d="M52.101,27.61v2.653h-.43v-2.653h.43Z"/>
        <path d="M54.613,28.909c0,.89-.479,1.398-1.125,1.398-.668,0-1.087-.575-1.087-1.351,0-.819.458-1.394,1.121-1.394.686,0,1.091.586,1.091,1.346h0ZM52.855,28.944c0,.543.241.972.653.972.416,0,.65-.437.65-.992,0-.5-.221-.973-.65-.973-.426,0-.653.445-.653.992h0Z"/>
        <path d="M54.908,30.263v-2.653h.493l.608,1.138c.153.295.293.603.401.89h.007c-.031-.354-.038-.697-.038-1.102v-.925h.398v2.653h-.447l-.615-1.169c-.15-.291-.304-.614-.419-.913l-.015.004c.018.342.024.693.024,1.13v.949h-.398v-.002Z"/>
        <path d="M57.197,29.736c.136.09.35.169.569.169.272,0,.427-.146.427-.362,0-.201-.119-.319-.416-.441-.392-.158-.64-.39-.64-.772,0-.437.321-.764.835-.764.255,0,.44.063.562.134l-.101.39c-.088-.051-.252-.126-.473-.126-.272,0-.388.161-.388.319,0,.205.137.299.451.437.409.173.604.405.604.787,0,.429-.286.799-.891.799-.252,0-.511-.079-.64-.169l.098-.401h.003Z"/>
        <path d="M58.876,28.673c0-.181.108-.311.266-.311s.263.126.263.311c0,.173-.105.307-.27.307-.15,0-.259-.134-.259-.307ZM58.876,29.999c0-.181.108-.311.266-.311s.263.126.263.311c0,.173-.105.307-.27.307-.15,0-.259-.134-.259-.307Z"/>
        <path d="M3.263,31.775c-.205.374-.359.894-.359,1.603,0,.697.157,1.212.359,1.59h-.285c-.187-.315-.392-.831-.392-1.59.004-.772.205-1.284.392-1.603,0,0,.285,0,.285,0Z"/>
        <path d="M4.043,32.531h-.006l-.382.236-.067-.366.51-.307h.327v2.559h-.382s0-2.122,0-2.122Z"/>
        <path d="M5.03,34.968c.202-.374.358-.897.358-1.598s-.156-1.217-.358-1.595h.285c.186.311.391.823.391,1.595-.003.768-.205,1.279-.391,1.598h-.285Z"/>
        <path d="M6.942,32.405h-.615v-.405h1.631v.405h-.621v2.248h-.395v-2.248Z"/>
        <path d="M8.54,32v1.063h.913v-1.063h.394v2.653h-.394v-1.169h-.913v1.169h-.395v-2.653h.395Z"/>
        <path d="M10.627,32v2.653h-.395v-2.653h.395Z"/>
        <path d="M11.007,34.126c.125.09.321.169.522.169.25,0,.392-.146.392-.362,0-.201-.109-.319-.382-.441-.358-.158-.586-.39-.586-.772,0-.437.295-.764.766-.764.233,0,.403.063.516.134l-.093.39c-.08-.051-.23-.126-.433-.126-.25,0-.355.162-.355.319,0,.205.125.299.413.437.375.173.555.406.555.788,0,.429-.263.799-.817.799-.23,0-.468-.079-.586-.169l.089-.401h0Z"/>
        <path d="M13.2,32.035c.176-.031.395-.055.628-.055.404,0,.68.102.878.307.212.209.34.528.34.977,0,.476-.132.827-.337,1.055-.214.24-.558.362-.977.362-.228,0-.401-.016-.532-.035v-2.61h0ZM13.594,34.287c.054.012.138.012.218.012.513.004.816-.346.816-1.02.004-.583-.272-.921-.766-.921-.125,0-.211.012-.269.027v1.901h0Z"/>
        <path d="M16.53,33.476h-.813v.78h.909v.397h-1.304v-2.653h1.256v.397h-.861v.685h.813v.394Z"/>
        <path d="M17.425,34.653l-.698-2.653h.43l.295,1.208c.083.334.156.642.211.964h.007c.058-.315.138-.638.221-.96l.314-1.212h.419l-.746,2.653h-.453Z"/>
        <path d="M19.188,32v2.653h-.395v-2.653h.395Z"/>
        <path d="M21.123,34.579c-.093.055-.298.118-.561.118-.687,0-1.103-.528-1.103-1.339,0-.874.496-1.401,1.156-1.401.26,0,.442.067.522.118l-.083.386c-.103-.055-.247-.102-.423-.102-.439,0-.757.338-.757.976,0,.586.276.957.754.957.156,0,.323-.039.429-.094l.064.382h.002Z"/>
        <path d="M22.602,33.476h-.813v.78h.909v.397h-1.304v-2.653h1.256v.397h-.861v.685h.813v.394Z"/>
        <path d="M25.389,33.571c-.013-.343-.029-.756-.025-1.114h-.01c-.07.323-.16.681-.257,1.016l-.316,1.149h-.302l-.288-1.134c-.083-.338-.16-.701-.218-1.031h-.007c-.01.347-.022.768-.038,1.13l-.048,1.067h-.369l.145-2.653h.519l.282,1.067c.077.311.145.626.199.921h.009c.059-.287.132-.614.215-.925l.298-1.063h.513l.125,2.653h-.384l-.042-1.083h0Z"/>
        <path d="M26.564,33.901l-.186.752h-.407l.692-2.653h.503l.701,2.653h-.426l-.195-.752h-.683.001ZM27.182,33.535l-.17-.653c-.041-.162-.076-.343-.108-.496h-.007c-.032.153-.067.338-.103.496l-.166.653h.554Z"/>
        <path d="M28.312,34.653v-1.106l-.683-1.547h.452l.256.681c.074.197.128.346.189.527h.006c.052-.169.112-.334.187-.527l.26-.681h.445l-.718,1.535v1.118h-.395.001Z"/>
        <path d="M30.182,34.653v-2.653h.451l.558,1.138c.142.295.27.602.369.89h.006c-.028-.354-.035-.697-.035-1.102v-.925h.365v2.653h-.41l-.563-1.169c-.138-.291-.279-.614-.385-.913l-.013.004c.016.342.022.693.022,1.13v.949h-.365v-.002Z"/>
        <path d="M34.202,33.299c0,.89-.438,1.397-1.031,1.397-.612,0-.997-.575-.997-1.351,0-.819.42-1.394,1.028-1.394.629,0,1,.586,1,1.347h0ZM32.59,33.334c0,.543.221.973.599.973.382,0,.597-.437.597-.992,0-.5-.202-.973-.597-.973-.391,0-.599.445-.599.992Z"/>
        <path d="M34.801,32.405h-.615v-.405h1.631v.405h-.621v2.248h-.395v-2.248Z"/>
        <path d="M38.14,34.579c-.093.055-.298.118-.561.118-.687,0-1.103-.528-1.103-1.339,0-.874.496-1.401,1.156-1.401.26,0,.442.067.522.118l-.083.386c-.103-.055-.247-.102-.423-.102-.439,0-.757.338-.757.976,0,.586.276.957.754.957.156,0,.323-.039.429-.094l.064.382h.002Z"/>
        <path d="M38.866,33.901l-.186.752h-.407l.692-2.653h.503l.701,2.653h-.426l-.195-.752h-.683,0ZM39.484,33.535l-.17-.653c-.041-.162-.076-.343-.108-.496h-.007c-.032.153-.067.338-.103.496l-.166.653h.554Z"/>
        <path d="M40.694,32v1.547c0,.52.177.76.442.76.285,0,.455-.24.455-.76v-1.547h.395v1.516c0,.819-.343,1.181-.862,1.181-.5,0-.823-.343-.823-1.177v-1.52h.394-.001Z"/>
        <path d="M42.365,34.126c.125.09.321.169.522.169.25,0,.392-.146.392-.362,0-.201-.109-.319-.382-.441-.358-.158-.586-.39-.586-.772,0-.437.295-.764.766-.764.233,0,.403.063.516.134l-.093.39c-.08-.051-.23-.126-.433-.126-.25,0-.355.162-.355.319,0,.205.125.299.413.437.375.173.555.406.555.788,0,.429-.263.799-.817.799-.23,0-.468-.079-.586-.169l.089-.401h0Z"/>
        <path d="M45.177,33.476h-.813v.78h.909v.397h-1.304v-2.653h1.256v.397h-.861v.685h.813v.394Z"/>
        <path d="M46.537,32v1.063h.913v-1.063h.394v2.653h-.394v-1.169h-.913v1.169h-.395v-2.653h.395Z"/>
        <path d="M48.662,33.901l-.186.752h-.407l.692-2.653h.503l.701,2.653h-.426l-.195-.752h-.683,0ZM49.28,33.535l-.17-.653c-.041-.162-.076-.343-.108-.496h-.007c-.032.153-.067.338-.103.496l-.166.653h.554Z"/>
        <path d="M50.202,32.04c.15-.036.368-.059.596-.059.312,0,.52.063.667.212.118.122.186.307.186.535,0,.343-.188.575-.394.662v.012c.156.071.249.256.301.512.07.331.128.638.17.74h-.404c-.031-.079-.086-.295-.144-.626-.064-.346-.164-.457-.388-.464h-.199v1.09h-.391s0-2.614,0-2.614ZM50.592,33.208h.234c.266,0,.43-.173.43-.437,0-.287-.164-.425-.42-.425-.125,0-.205.012-.244.024,0,0,0,.838,0,.838Z"/>
        <path d="M53.783,33.571c-.013-.343-.029-.756-.025-1.114h-.01c-.07.323-.16.681-.257,1.016l-.316,1.149h-.302l-.288-1.134c-.084-.338-.16-.701-.218-1.031h-.007c-.01.347-.022.768-.038,1.13l-.048,1.067h-.369l.145-2.653h.519l.282,1.067c.077.311.145.626.199.921h.009c.058-.287.132-.614.215-.925l.298-1.063h.513l.125,2.653h-.384l-.042-1.083h-.001Z"/>
        <path d="M54.544,32h1.25v.397h-.855v.732h.794v.394h-.794v1.13h-.395v-2.653Z"/>
        <path d="M56.501,32v1.547c0,.52.177.76.442.76.285,0,.455-.24.455-.76v-1.547h.395v1.516c0,.819-.343,1.181-.862,1.181-.5,0-.823-.343-.823-1.177v-1.52h.394-.001Z"/>
        <path d="M58.178,32h.395v2.248h.887v.405h-1.281v-2.653h-.001Z"/>
        <path d="M3.001,36.39v2.653h-.388v-2.653h.388Z"/>
        <path d="M3.445,39.043v-2.653h.445l.55,1.138c.14.295.266.603.363.89h.007c-.028-.354-.035-.697-.035-1.102v-.925h.36v2.653h-.404l-.556-1.169c-.137-.291-.275-.614-.38-.913l-.013.004c.017.342.022.693.022,1.13v.949h-.36v-.002Z"/>
        <path d="M5.964,36.795h-.606v-.405h1.607v.405h-.612v2.248h-.389v-2.248Z"/>
        <path d="M8.377,37.866h-.803v.78h.897v.397h-1.285v-2.653h1.238v.397h-.851v.685h.803v.394h.001Z"/>
        <path d="M8.786,36.429c.148-.035.363-.059.587-.059.307,0,.512.063.657.212.117.122.184.307.184.535,0,.343-.187.575-.389.662v.012c.154.071.246.256.297.512.069.331.126.638.167.74h-.397c-.032-.079-.086-.295-.143-.626-.063-.346-.161-.457-.382-.464h-.196v1.09h-.385s0-2.614,0-2.614ZM9.17,37.599h.23c.263,0,.424-.173.424-.437,0-.287-.161-.425-.414-.425-.123,0-.202.012-.24.024v.838Z"/>
        <path d="M10.554,36.39h1.231v.397h-.844v.732h.784v.394h-.784v1.13h-.388v-2.653h.001Z"/>
        <path d="M13.325,37.866h-.803v.78h.897v.397h-1.285v-2.653h1.238v.397h-.851v.685h.803v.394h.001Z"/>
        <path d="M13.733,36.429c.148-.035.363-.059.587-.059.307,0,.512.063.657.212.117.122.184.307.184.535,0,.343-.187.575-.389.662v.012c.154.071.246.256.297.512.069.331.126.638.167.74h-.397c-.032-.079-.086-.295-.143-.626-.063-.346-.161-.457-.382-.464h-.196v1.09h-.385s0-2.614,0-2.614ZM14.118,37.599h.23c.263,0,.424-.173.424-.437,0-.287-.161-.425-.414-.425-.123,0-.202.012-.24.024v.838Z"/>
        <path d="M16.692,37.866h-.803v.78h.897v.397h-1.285v-2.653h1.238v.397h-.851v.685h.803v.394h0Z"/>
        <path d="M17.096,39.043v-2.653h.445l.55,1.138c.14.295.266.603.363.89h.007c-.028-.354-.035-.697-.035-1.102v-.925h.36v2.653h-.404l-.556-1.169c-.137-.291-.275-.614-.38-.913l-.013.004c.017.342.022.693.022,1.13v.949h-.36v-.002Z"/>
        <path d="M20.733,38.969c-.092.055-.294.118-.553.118-.676,0-1.087-.528-1.087-1.339,0-.874.49-1.401,1.141-1.401.256,0,.436.067.515.118l-.082.386c-.102-.055-.243-.102-.417-.102-.433,0-.745.338-.745.976,0,.586.271.957.742.957.154,0,.318-.039.423-.094l.063.382h0Z"/>
        <path d="M22.228,37.866h-.803v.78h.897v.397h-1.285v-2.653h1.238v.397h-.851v.685h.803v.394h0Z"/>
        <path d="M23.635,38.291l-.197.752h-.43l.731-2.653h.532l.741,2.653h-.45l-.207-.752h-.721.001ZM24.289,37.925l-.18-.653c-.044-.162-.081-.343-.115-.496h-.007c-.033.153-.071.338-.108.496l-.176.653h.586Z"/>
        <path d="M25.295,39.043v-2.653h.478l.589,1.138c.149.295.285.603.39.89h.007c-.03-.354-.037-.697-.037-1.102v-.925h.387v2.653h-.434l-.597-1.169c-.146-.291-.295-.614-.406-.913l-.014.004c.017.342.023.693.023,1.13v.949h-.386v-.002Z"/>
        <path d="M27.553,36.425c.187-.031.417-.055.664-.055.427,0,.719.102.929.307.224.209.358.528.358.977,0,.477-.139.827-.355,1.055-.227.24-.59.362-1.033.362-.24,0-.424-.016-.562-.035v-2.61h-.001ZM27.97,38.677c.058.012.146.012.23.012.542.004.863-.346.863-1.02.004-.583-.288-.921-.81-.921-.132,0-.224.012-.284.027v1.901h0Z"/>
        <path d="M31.056,36.165c-.217.374-.38.894-.38,1.603,0,.697.166,1.212.38,1.59h-.302c-.196-.315-.413-.831-.413-1.59.004-.771.217-1.284.413-1.603h.302Z"/>
        <path d="M31.264,39.043v-.295l.261-.279c.519-.559.763-.866.766-1.205,0-.229-.104-.429-.393-.429-.196,0-.359.114-.471.212l-.122-.342c.159-.15.399-.264.678-.264.487,0,.725.358.725.775,0,.449-.278.811-.664,1.224l-.189.193v.008h.9v.401h-1.491Z"/>
        <path d="M32.995,39.358c.214-.374.38-.897.38-1.598s-.166-1.217-.38-1.595h.302c.196.311.413.823.413,1.595-.003.768-.217,1.279-.413,1.598h-.302Z"/>
        <path d="M34.933,36.795h-.615v-.405h1.631v.405h-.621v2.248h-.395v-2.248Z"/>
        <path d="M36.564,36.39v1.063h.913v-1.063h.394v2.653h-.394v-1.169h-.913v1.169h-.395v-2.653h.395Z"/>
        <path d="M38.683,36.39v2.653h-.395v-2.653h.395Z"/>
        <path d="M39.096,38.516c.125.09.321.169.522.169.25,0,.392-.146.392-.362,0-.201-.109-.319-.382-.441-.358-.158-.586-.39-.586-.772,0-.437.294-.764.766-.764.233,0,.403.063.516.134l-.093.39c-.08-.051-.23-.126-.433-.126-.25,0-.355.161-.355.319,0,.205.125.299.413.437.375.173.555.405.555.787,0,.429-.263.799-.817.799-.23,0-.468-.079-.586-.169l.089-.401h0Z"/>
        <path d="M41.242,36.425c.176-.031.395-.055.628-.055.404,0,.68.102.878.307.212.209.34.528.34.977,0,.477-.132.827-.337,1.055-.214.24-.557.362-.977.362-.228,0-.4-.016-.532-.035v-2.61h0ZM41.636,38.677c.054.012.138.012.218.012.513.004.816-.346.816-1.02.004-.583-.271-.921-.766-.921-.125,0-.211.012-.269.027v1.901h.001Z"/>
        <path d="M44.605,37.866h-.813v.78h.909v.397h-1.304v-2.653h1.256v.397h-.861v.685h.813v.394Z"/>
        <path d="M45.533,39.043l-.698-2.653h.43l.295,1.208c.083.334.156.642.211.964h.007c.058-.315.138-.638.221-.96l.314-1.212h.419l-.746,2.653h-.453Z"/>
        <path d="M47.328,36.39v2.653h-.395v-2.653h.395Z"/>
        <path d="M49.295,38.969c-.093.055-.298.118-.561.118-.687,0-1.103-.528-1.103-1.339,0-.874.496-1.401,1.156-1.401.26,0,.442.067.522.118l-.083.386c-.103-.055-.247-.102-.423-.102-.439,0-.757.338-.757.976,0,.586.276.957.753.957.157,0,.324-.039.43-.094l.064.382h.002Z"/>
        <path d="M50.806,37.866h-.813v.78h.909v.397h-1.304v-2.653h1.256v.397h-.861v.685h.813v.394Z"/>
        <path d="M53.547,37.961c-.013-.343-.029-.756-.025-1.114h-.01c-.07.323-.16.681-.257,1.016l-.316,1.15h-.302l-.288-1.134c-.083-.339-.16-.701-.218-1.032h-.007c-.01.347-.022.768-.038,1.13l-.048,1.067h-.369l.145-2.653h.519l.282,1.067c.077.311.145.626.199.921h.009c.059-.287.132-.614.215-.925l.298-1.063h.513l.125,2.653h-.384l-.042-1.083h-.001Z"/>
        <path d="M54.732,36.39v1.547c0,.52.177.76.442.76.285,0,.455-.24.455-.76v-1.547h.395v1.516c0,.819-.343,1.181-.862,1.181-.5,0-.823-.343-.823-1.177v-1.52h.394-.001Z"/>
        <path d="M56.436,38.516c.125.09.321.169.522.169.25,0,.392-.146.392-.362,0-.201-.109-.319-.382-.441-.358-.158-.586-.39-.586-.772,0-.437.294-.764.766-.764.233,0,.403.063.516.134l-.093.39c-.08-.051-.23-.126-.433-.126-.25,0-.355.161-.355.319,0,.205.125.299.413.437.375.173.555.405.555.787,0,.429-.263.799-.817.799-.23,0-.468-.079-.586-.169l.089-.401h0Z"/>
        <path d="M58.486,36.795h-.615v-.405h1.631v.405h-.621v2.248h-.395v-2.248Z"/>
        <path d="M3.108,42.681l-.202.752h-.444l.755-2.653h.549l.765,2.653h-.465l-.213-.752h-.745ZM3.783,42.315l-.186-.653c-.045-.162-.084-.343-.119-.496h-.007c-.035.153-.073.338-.111.496l-.182.653h.605Z"/>
        <path d="M6.437,43.358c-.101.055-.324.118-.611.118-.748,0-1.202-.528-1.202-1.339,0-.874.542-1.401,1.262-1.401.283,0,.482.067.569.118l-.091.386c-.111-.055-.269-.102-.461-.102-.479,0-.825.338-.825.976,0,.586.301.957.821.957.172,0,.354-.039.469-.094l.069.382h0Z"/>
        <path d="M8.365,43.358c-.101.055-.324.118-.611.118-.748,0-1.202-.528-1.202-1.339,0-.874.542-1.401,1.262-1.401.283,0,.482.067.569.118l-.091.386c-.111-.055-.269-.102-.461-.102-.479,0-.825.338-.825.976,0,.586.301.957.821.957.172,0,.354-.039.469-.094l.069.382h0Z"/>
        <path d="M10.014,42.256h-.888v.78h.992v.397h-1.422v-2.653h1.37v.397h-.94v.685h.888v.394Z"/>
        <path d="M10.46,40.815c.157-.031.37-.055.657-.055.314,0,.541.075.691.216.14.13.23.338.23.586,0,.252-.069.457-.199.599-.174.193-.439.287-.744.287-.08,0-.15-.004-.209-.02v1.004h-.427v-2.618h.001ZM10.887,42.047c.056.02.122.023.209.023.321,0,.518-.181.518-.488,0-.295-.182-.449-.479-.449-.119,0-.203.012-.248.023v.89h0Z"/>
        <path d="M12.83,41.185h-.671v-.405h1.778v.405h-.678v2.248h-.43v-2.248h0Z"/>
        <path d="M15.504,42.681l-.201.752h-.44l.749-2.653h.543l.759,2.653h-.46l-.212-.752h-.738ZM16.172,42.315l-.184-.653c-.045-.162-.083-.343-.117-.496h-.007c-.035.153-.073.338-.111.496l-.18.653h.599Z"/>
        <path d="M17.196,43.433v-2.653h.488l.604,1.138c.152.295.29.603.397.89h.008c-.031-.354-.038-.697-.038-1.102v-.925h.395v2.653h-.443l-.609-1.169c-.149-.291-.302-.614-.416-.913l-.014.004c.018.342.024.693.024,1.13v.949h-.396v-.002Z"/>
        <path d="M19.987,43.433v-1.106l-.738-1.547h.488l.277.681c.079.197.139.346.204.527h.007c.056-.169.121-.334.201-.527l.28-.681h.481l-.775,1.535v1.118h-.426,0Z"/>
        <path d="M22.688,40.78v2.653h-.42v-2.653h.42Z"/>
        <path d="M23.132,43.433v-2.653h.481l.596,1.138c.15.295.287.603.393.89h.007c-.03-.354-.038-.697-.038-1.102v-.925h.391v2.653h-.438l-.602-1.169c-.147-.291-.298-.614-.41-.913l-.014.004c.017.342.023.693.023,1.13v.949h-.39v-.002Z"/>
        <path d="M25.854,41.185h-.656v-.405h1.74v.405h-.664v2.248h-.42v-2.248Z"/>
        <path d="M28.463,42.256h-.868v.78h.971v.397h-1.392v-2.653h1.34v.397h-.919v.685h.868v.394Z"/>
        <path d="M28.901,40.819c.161-.035.394-.059.637-.059.331,0,.553.063.711.212.126.122.197.307.197.535,0,.343-.201.575-.42.662v.012c.168.071.267.256.321.512.075.331.137.638.181.74h-.43c-.035-.079-.093-.295-.154-.626-.068-.346-.174-.457-.414-.464h-.211v1.09h-.418v-2.614ZM29.319,41.988h.249c.284,0,.458-.173.458-.437,0-.287-.174-.425-.447-.425-.134,0-.219.012-.26.024v.838Z"/>
        <path d="M30.813,40.78h1.332v.397h-.912v.732h.848v.394h-.848v1.13h-.42v-2.653Z"/>
        <path d="M33.807,42.256h-.868v.78h.971v.397h-1.392v-2.653h1.34v.397h-.919v.685h.868s0,.394,0,.394Z"/>
        <path d="M34.247,40.819c.16-.035.393-.059.635-.059.332,0,.555.063.711.212.127.122.199.307.199.535,0,.343-.202.575-.421.662v.012c.167.071.267.256.321.512.075.331.137.638.182.74h-.432c-.033-.079-.092-.295-.153-.626-.068-.346-.175-.457-.413-.464h-.213v1.09h-.416s0-2.614,0-2.614ZM34.663,41.988h.25c.283,0,.458-.173.458-.437,0-.287-.175-.425-.448-.425-.133,0-.219.012-.26.024v.838Z"/>
        <path d="M37.446,42.256h-.868v.78h.971v.397h-1.392v-2.653h1.34v.397h-.919v.685h.868s0,.394,0,.394Z"/>
        <path d="M37.88,43.433v-2.653h.481l.596,1.138c.15.295.287.603.393.89h.007c-.03-.354-.038-.697-.038-1.102v-.925h.391v2.653h-.438l-.602-1.169c-.147-.291-.298-.614-.41-.913l-.014.004c.017.342.023.693.023,1.13v.949h-.39v-.002Z"/>
        <path d="M41.812,43.358c-.099.055-.317.118-.599.118-.73,0-1.176-.528-1.176-1.339,0-.874.53-1.401,1.234-1.401.277,0,.472.067.557.118l-.088.386c-.109-.055-.264-.102-.451-.102-.469,0-.807.338-.807.976,0,.586.293.957.803.957.168,0,.346-.039.458-.094l.068.382h0Z"/>
        <path d="M43.426,42.256h-.868v.78h.971v.397h-1.392v-2.653h1.34v.397h-.919v.685h.868s0,.394,0,.394Z"/>
        <path d="M44.725,40.819c.161-.035.394-.059.637-.059.331,0,.553.063.711.212.126.122.197.307.197.535,0,.343-.201.575-.42.662v.012c.168.071.267.256.321.512.075.331.137.638.181.74h-.43c-.035-.079-.093-.295-.154-.626-.068-.346-.174-.457-.414-.464h-.211v1.09h-.418v-2.614ZM45.143,41.988h.249c.284,0,.458-.173.458-.437,0-.287-.174-.425-.447-.425-.134,0-.219.012-.26.024,0,0,0,.838,0,.838Z"/>
        <path d="M47.925,42.256h-.868v.78h.971v.397h-1.391v-2.653h1.34v.397h-.92v.685h.868s0,.394,0,.394Z"/>
        <path d="M50.014,43.358c-.1.055-.318.118-.598.118-.732,0-1.176-.528-1.176-1.339,0-.874.529-1.401,1.233-1.401.276,0,.472.067.558.118l-.09.386c-.109-.055-.263-.102-.451-.102-.468,0-.807.338-.807.976,0,.586.295.957.804.957.167,0,.345-.039.458-.094l.068.382h0Z"/>
        <path d="M51.628,42.256h-.868v.78h.971v.397h-1.391v-2.653h1.34v.397h-.92v.685h.868s0,.394,0,.394Z"/>
        <path d="M52.487,40.78v2.653h-.42v-2.653h.42Z"/>
        <path d="M53.461,43.433l-.746-2.653h.459l.314,1.208c.088.334.167.642.225.964h.008c.061-.315.146-.638.235-.96l.335-1.212h.447l-.796,2.653s-.481,0-.481,0Z"/>
        <path d="M56.244,42.256h-.868v.78h.971v.397h-1.391v-2.653h1.34v.397h-.92v.685h.868s0,.394,0,.394Z"/>
        <path d="M56.682,40.815c.188-.031.421-.055.67-.055.432,0,.725.102.938.307.225.209.361.528.361.977,0,.477-.14.827-.358,1.055-.229.24-.595.362-1.042.362-.243,0-.428-.016-.568-.035v-2.61h0ZM57.103,43.067c.058.012.147.012.232.012.547.004.872-.346.872-1.02.003-.583-.291-.921-.817-.921-.134,0-.226.012-.287.027v1.901h0Z"/>
        <path d="M58.641,43.91c.092-.299.185-.713.229-1.04l.441-.04c-.1.37-.25.795-.383,1.047l-.287.032h0Z"/>
        <path d="M3.086,45.17v2.653h-.442v-2.653h.442Z"/>
        <path d="M3.555,47.823v-2.653h.508l.627,1.138c.158.295.302.602.414.89h.007c-.032-.354-.039-.697-.039-1.102v-.925h.41v2.653h-.461l-.634-1.169c-.155-.291-.313-.614-.433-.913l-.014.004c.018.342.024.693.024,1.13v.949h-.41v-.002Z"/>
        <path d="M7.698,47.749c-.104.055-.335.118-.63.118-.771,0-1.239-.528-1.239-1.339,0-.874.559-1.401,1.3-1.401.292,0,.497.067.587.118l-.094.386c-.115-.055-.277-.102-.475-.102-.494,0-.851.338-.851.976,0,.586.311.957.847.957.177,0,.363-.039.482-.094l.072.382h0Z"/>
        <path d="M8.041,45.17h.442v2.248h.998v.405h-1.44v-2.653Z"/>
        <path d="M10.101,45.17v1.547c0,.52.198.76.497.76.32,0,.511-.24.511-.76v-1.547h.443v1.516c0,.819-.386,1.181-.969,1.181-.562,0-.926-.343-.926-1.177v-1.52h.444Z"/>
        <path d="M12.026,45.205c.198-.031.442-.055.706-.055.453,0,.763.102.986.307.237.209.382.528.382.977,0,.476-.147.827-.378,1.055-.241.24-.627.362-1.099.362-.256,0-.45-.016-.598-.035v-2.61h0ZM12.468,47.457c.062.012.155.012.245.012.576.004.918-.346.918-1.02.004-.583-.306-.921-.86-.921-.141,0-.237.012-.303.027v1.901h0Z"/>
        <path d="M14.892,45.17v2.653h-.442v-2.653h.442Z"/>
        <path d="M15.361,47.823v-2.653h.508l.627,1.138c.158.295.302.602.414.89h.007c-.032-.354-.039-.697-.039-1.102v-.925h.41v2.653h-.461l-.634-1.169c-.155-.291-.313-.614-.433-.913l-.014.004c.018.342.025.693.025,1.13v.949h-.411v-.002Z"/>
        <path d="M19.709,47.701c-.155.063-.457.149-.777.149-.411,0-.725-.114-.955-.354-.216-.225-.338-.575-.338-.977.003-.842.547-1.378,1.351-1.378.299,0,.532.067.645.126l-.098.39c-.133-.067-.295-.114-.551-.114-.519,0-.883.334-.883.953,0,.603.339.96.843.96.162,0,.277-.023.335-.051v-.665h-.429v-.382h.857v1.342h0Z"/>
        <path d="M21.526,45.17v2.653h-.43v-2.653h.43Z"/>
        <path d="M21.978,47.823v-2.653h.493l.608,1.138c.153.295.293.602.401.89h.007c-.031-.354-.038-.697-.038-1.102v-.925h.398v2.653h-.447l-.615-1.169c-.15-.291-.304-.614-.419-.913l-.015.004c.018.342.024.693.024,1.13v.949h-.398v-.002Z"/>
        <path d="M24.758,45.575h-.671v-.405h1.778v.405h-.678v2.248h-.43v-2.248h0Z"/>
        <path d="M27.422,46.646h-.888v.78h.992v.397h-1.422v-2.653h1.37v.397h-.94v.685h.888v.394Z"/>
        <path d="M27.868,45.209c.164-.036.402-.059.65-.059.339,0,.565.063.727.212.129.122.202.307.202.535,0,.343-.206.575-.43.662v.012c.172.071.272.256.329.512.076.331.14.638.185.74h-.44c-.034-.079-.094-.295-.157-.626-.069-.346-.178-.457-.423-.464h-.216v1.09h-.427s0-2.614,0-2.614ZM28.294,46.378h.255c.29,0,.468-.173.468-.437,0-.287-.178-.425-.457-.425-.137,0-.224.012-.266.024,0,0,0,.838,0,.838Z"/>
        <path d="M29.82,45.17h1.363v.397h-.934v.732h.867v.394h-.867v1.13h-.43v-2.653h0Z"/>
        <path d="M32.879,46.646h-.888v.78h.992v.397h-1.422v-2.653h1.37v.397h-.94v.685h.888s0,.394,0,.394Z"/>
        <path d="M33.325,45.209c.164-.036.402-.059.65-.059.339,0,.565.063.727.212.129.122.202.307.202.535,0,.343-.206.575-.43.662v.012c.172.071.272.256.329.512.076.331.14.638.185.74h-.44c-.034-.079-.094-.295-.157-.626-.069-.346-.178-.457-.423-.464h-.216v1.09h-.427s0-2.614,0-2.614ZM33.751,46.378h.255c.29,0,.468-.173.468-.437,0-.287-.178-.425-.457-.425-.137,0-.224.012-.266.024v.838Z"/>
        <path d="M36.593,46.646h-.888v.78h.992v.397h-1.422v-2.653h1.37v.397h-.94v.685h.888v.394Z"/>
        <path d="M37.035,47.823v-2.653h.493l.608,1.138c.153.295.293.602.401.89h.007c-.031-.354-.038-.697-.038-1.102v-.925h.398v2.653h-.447l-.615-1.169c-.15-.291-.304-.614-.419-.913l-.015.004c.018.342.024.693.024,1.13v.949h-.398v-.002Z"/>
        <path d="M41.051,47.749c-.101.055-.324.118-.611.118-.748,0-1.202-.528-1.202-1.339,0-.874.542-1.401,1.262-1.401.283,0,.482.067.569.118l-.091.386c-.111-.055-.269-.102-.461-.102-.479,0-.825.338-.825.976,0,.586.301.957.821.957.172,0,.354-.039.469-.094l.069.382h0Z"/>
        <path d="M42.699,46.646h-.888v.78h.992v.397h-1.422v-2.653h1.37v.397h-.94v.685h.888v.394Z"/>
        <path d="M44.578,45.575h-.677v-.405h1.794v.405h-.684v2.248h-.434v-2.248h0Z"/>
        <path d="M46.373,45.17v1.063h1.005v-1.063h.434v2.653h-.434v-1.169h-1.005v1.169h-.434v-2.653h.434Z"/>
        <path d="M48.751,47.071l-.205.752h-.447l.761-2.653h.554l.772,2.653h-.469l-.216-.752h-.75ZM49.431,46.705l-.187-.653c-.046-.162-.085-.343-.12-.496h-.007c-.035.153-.074.338-.113.496l-.183.653h.61Z"/>
        <path d="M50.653,45.575h-.677v-.405h1.794v.405h-.684v2.248h-.434v-2.248h0Z"/>
        <path d="M54.958,46.741c-.014-.343-.031-.756-.027-1.114h-.011c-.076.323-.173.681-.277,1.016l-.343,1.149h-.325l-.312-1.134c-.09-.338-.173-.701-.235-1.031h-.007c-.01.347-.024.768-.041,1.13l-.053,1.067h-.397l.155-2.653h.562l.305,1.067c.083.311.155.626.215.921h.01c.062-.287.143-.614.232-.925l.322-1.063h.554l.136,2.653h-.416l-.045-1.083h-.002Z"/>
        <path d="M56.256,47.071l-.201.752h-.44l.749-2.653h.543l.759,2.653h-.46l-.212-.752h-.738ZM56.924,46.705l-.184-.653c-.045-.162-.083-.343-.117-.496h-.007c-.035.153-.073.338-.111.496l-.18.653h.599Z"/>
        <path d="M58.176,47.823v-1.106l-.738-1.547h.488l.277.681c.079.197.139.346.204.527h.007c.056-.169.121-.334.201-.527l.28-.681h.481l-.775,1.535v1.118h-.426.001Z"/>
        <path d="M4.383,52.139c-.104.055-.335.118-.63.118-.771,0-1.239-.528-1.239-1.339,0-.874.559-1.401,1.3-1.401.292,0,.497.067.587.118l-.094.386c-.115-.055-.277-.102-.475-.102-.494,0-.851.338-.851.976,0,.586.311.957.847.957.177,0,.363-.039.482-.094l.072.382h0Z"/>
        <path d="M5.238,51.461l-.209.752h-.458l.778-2.653h.565l.788,2.653h-.479l-.22-.752h-.767.002ZM5.932,51.095l-.19-.653c-.047-.162-.087-.343-.122-.496h-.008c-.036.153-.075.338-.115.496l-.188.653h.623Z"/>
        <path d="M7.331,49.56v1.547c0,.52.197.76.497.76.32,0,.511-.24.511-.76v-1.547h.443v1.516c0,.819-.386,1.181-.969,1.181-.562,0-.926-.343-.926-1.177v-1.52h.444Z"/>
        <path d="M9.247,51.686c.141.09.36.169.588.169.28,0,.438-.146.438-.362,0-.201-.122-.319-.428-.441-.403-.158-.659-.39-.659-.772,0-.437.331-.764.86-.764.263,0,.454.063.58.134l-.104.39c-.09-.051-.26-.126-.486-.126-.281,0-.399.161-.399.319,0,.205.14.299.464.437.422.173.623.405.623.787,0,.429-.295.799-.918.799-.26,0-.525-.079-.659-.169l.101-.401h0Z"/>
        <path d="M12.445,51.036h-.915v.78h1.023v.397h-1.466v-2.653h1.411v.397h-.969v.685h.915v.394h0Z"/>
        <path d="M14.057,49.56v1.547c0,.52.197.76.497.76.32,0,.511-.24.511-.76v-1.547h.443v1.516c0,.819-.386,1.181-.969,1.181-.562,0-.926-.343-.926-1.177v-1.52h.444Z"/>
        <path d="M15.977,52.213v-2.653h.508l.627,1.138c.158.295.302.603.414.89h.007c-.032-.354-.039-.697-.039-1.102v-.925h.41v2.653h-.461l-.634-1.169c-.155-.291-.313-.614-.433-.913l-.014.004c.018.342.024.693.024,1.13v.949h-.41v-.002Z"/>
        <path d="M18.38,49.595c.198-.031.442-.055.706-.055.453,0,.763.102.986.307.237.209.382.528.382.977,0,.477-.147.827-.378,1.055-.241.24-.627.362-1.099.362-.256,0-.45-.016-.598-.035v-2.61h.001ZM18.823,51.847c.062.012.155.012.245.012.576.004.918-.346.918-1.02.004-.583-.306-.921-.86-.921-.141,0-.237.012-.303.027v1.901h0Z"/>
        <path d="M22.162,51.036h-.915v.78h1.023v.397h-1.466v-2.653h1.411v.397h-.969v.685h.915v.394h0Z"/>
        <path d="M22.616,51.686c.141.09.36.169.588.169.28,0,.438-.146.438-.362,0-.201-.122-.319-.428-.441-.403-.158-.659-.39-.659-.772,0-.437.331-.764.86-.764.263,0,.454.063.58.134l-.104.39c-.09-.051-.26-.126-.486-.126-.281,0-.399.161-.399.319,0,.205.14.299.464.437.422.173.623.405.623.787,0,.429-.295.799-.918.799-.26,0-.525-.079-.659-.169l.101-.401h0Z"/>
        <path d="M24.899,49.56v2.653h-.442v-2.653h.442Z"/>
        <path d="M25.372,49.599c.169-.035.414-.059.67-.059.349,0,.583.063.749.212.133.122.209.307.209.535,0,.343-.213.575-.443.662v.012c.177.071.281.256.339.512.079.331.144.638.19.74h-.454c-.035-.079-.097-.295-.162-.626-.071-.346-.184-.457-.436-.464h-.223v1.09h-.439v-2.614ZM25.811,50.769h.263c.299,0,.482-.173.482-.437,0-.287-.184-.425-.472-.425-.141,0-.23.012-.273.024v.838Z"/>
        <path d="M28.743,51.036h-.915v.78h1.023v.397h-1.466v-2.653h1.411v.397h-.969v.685h.915v.394h0Z"/>
        <path d="M29.206,49.595c.198-.031.442-.055.706-.055.453,0,.763.102.986.307.237.209.382.528.382.977,0,.477-.147.827-.378,1.055-.241.24-.627.362-1.099.362-.256,0-.45-.016-.598-.035v-2.61h.001ZM29.648,51.847c.062.012.155.012.245.012.576.004.918-.346.918-1.02.004-.583-.306-.921-.86-.921-.141,0-.237.012-.303.027v1.901h0Z"/>
        <path d="M34.493,50.859c0,.89-.493,1.398-1.159,1.398-.688,0-1.12-.575-1.12-1.351,0-.819.472-1.394,1.155-1.394.706,0,1.124.586,1.124,1.346h0ZM32.681,50.895c0,.543.249.972.674.972.429,0,.67-.437.67-.992,0-.5-.228-.973-.67-.973-.439,0-.674.445-.674.992h0Z"/>
        <path d="M34.839,49.595c.162-.031.382-.055.677-.055.324,0,.559.075.713.216.145.13.238.338.238.586,0,.252-.072.457-.206.599-.18.193-.453.287-.767.287-.083,0-.155-.004-.216-.02v1.004h-.439v-2.618h0ZM35.279,50.828c.058.02.126.023.216.023.331,0,.533-.181.533-.488,0-.295-.188-.449-.494-.449-.122,0-.208.012-.255.023v.89h0Z"/>
        <path d="M38.174,51.036h-.915v.78h1.023v.397h-1.466v-2.653h1.411v.397h-.969v.685h.915v.394h.001Z"/>
        <path d="M38.636,49.599c.169-.035.414-.059.67-.059.349,0,.583.063.749.212.133.122.209.307.209.535,0,.343-.213.575-.443.662v.012c.177.071.281.256.339.512.079.331.144.638.19.74h-.454c-.035-.079-.097-.295-.161-.626-.072-.346-.185-.457-.437-.464h-.223v1.09h-.439v-2.614ZM39.076,50.769h.263c.299,0,.482-.173.482-.437,0-.287-.184-.425-.472-.425-.141,0-.23.012-.273.024v.838Z"/>
        <path d="M41.161,51.461l-.209.752h-.458l.778-2.653h.565l.788,2.653h-.479l-.22-.752h-.767.002ZM41.855,51.095l-.19-.653c-.047-.162-.087-.343-.123-.496h-.007c-.036.153-.075.338-.115.496l-.188.653h.623Z"/>
        <path d="M43.102,49.965h-.691v-.405h1.833v.405h-.698v2.248h-.443v-2.248h0Z"/>
        <path d="M44.936,49.56v2.653h-.442v-2.653h.442Z"/>
        <path d="M47.563,50.859c0,.89-.493,1.398-1.159,1.398-.688,0-1.12-.575-1.12-1.351,0-.819.472-1.394,1.155-1.394.706,0,1.124.586,1.124,1.346h0ZM45.751,50.895c0,.543.249.972.674.972.429,0,.67-.437.67-.992,0-.5-.228-.973-.67-.973-.439,0-.674.445-.674.992h0Z"/>
        <path d="M47.906,52.213v-2.653h.508l.627,1.138c.158.295.302.603.414.89h.007c-.032-.354-.039-.697-.039-1.102v-.925h.41v2.653h-.461l-.634-1.169c-.155-.291-.313-.614-.433-.913l-.014.004c.018.342.025.693.025,1.13v.949h-.411v-.002Z"/>
        <path d="M50.237,51.946c0-.181.115-.311.273-.311.162,0,.274.126.274.311,0,.177-.108.311-.277.311-.159,0-.271-.134-.271-.311h.001Z"/>
      </g>
      <g>
        <path d="M3.115,54.475h-.697v-.405h1.849v.405h-.705v2.248h-.446v-2.248h-.001Z"/>
        <path d="M4.944,54.07v1.063h1.035v-1.063h.447v2.653h-.447v-1.169h-1.035v1.169h-.446v-2.653h.446Z"/>
        <path d="M7.332,54.07v2.653h-.446v-2.653h.446Z"/>
        <path d="M7.781,56.196c.142.09.362.169.592.169.283,0,.442-.146.442-.362,0-.201-.123-.319-.432-.441-.407-.158-.665-.39-.665-.772,0-.437.335-.764.868-.764.266,0,.458.063.585.134l-.105.39c-.091-.051-.262-.126-.49-.126-.283,0-.403.162-.403.319,0,.205.142.299.469.437.425.173.628.406.628.788,0,.429-.298.799-.926.799-.262,0-.53-.079-.665-.169l.103-.401h-.001Z"/>
        <path d="M12.067,56.648c-.105.055-.338.118-.636.118-.776,0-1.249-.528-1.249-1.339,0-.874.563-1.401,1.312-1.401.294,0,.501.067.592.118l-.095.386c-.116-.055-.279-.102-.479-.102-.497,0-.856.338-.856.976,0,.586.312.957.854.957.178,0,.366-.039.486-.094l.072.382h-.001Z"/>
        <path d="M12.394,54.07h.446v2.248h1.007v.405h-1.453v-2.653Z"/>
        <path d="M14.635,55.971l-.211.752h-.461l.784-2.653h.57l.796,2.653h-.483l-.222-.752s-.773,0-.773,0ZM15.336,55.605l-.192-.653c-.048-.162-.088-.343-.124-.496h-.007c-.036.153-.076.338-.116.496l-.189.653h.629,0Z"/>
        <path d="M16.394,56.196c.142.09.362.169.592.169.283,0,.442-.146.442-.362,0-.201-.123-.319-.432-.441-.407-.158-.665-.39-.665-.772,0-.437.335-.764.868-.764.266,0,.458.063.585.134l-.105.39c-.091-.051-.262-.126-.49-.126-.283,0-.403.162-.403.319,0,.205.142.299.469.437.425.173.628.406.628.788,0,.429-.298.799-.926.799-.262,0-.53-.079-.665-.169l.103-.401h0Z"/>
        <path d="M18.224,56.196c.142.09.362.169.592.169.283,0,.442-.146.442-.362,0-.201-.123-.319-.432-.441-.407-.158-.665-.39-.665-.772,0-.437.335-.764.868-.764.266,0,.458.063.585.134l-.105.39c-.091-.051-.262-.126-.49-.126-.283,0-.403.162-.403.319,0,.205.142.299.469.437.425.173.628.406.628.788,0,.429-.298.799-.926.799-.262,0-.53-.079-.665-.169l.103-.401h0Z"/>
        <path d="M20.756,54.109c.142-.032.399-.059.653-.059.327,0,.534.047.697.169.153.099.255.272.255.5,0,.244-.142.465-.407.571v.012c.258.071.494.292.494.654,0,.236-.095.421-.232.551-.175.161-.461.244-.911.244-.247,0-.433-.02-.549-.035v-2.606h0ZM21.2,55.156h.229c.312,0,.483-.157.483-.382,0-.252-.175-.366-.458-.366-.131,0-.207.008-.254.02v.728ZM21.2,56.373c.058.012.134.012.235.012.287,0,.545-.114.545-.441,0-.311-.25-.437-.559-.437h-.222v.866h0Z"/>
        <path d="M23.489,54.105c.2-.031.446-.055.712-.055.457,0,.77.102.995.307.239.209.385.528.385.977,0,.476-.148.827-.381,1.055-.244.24-.633.362-1.108.362-.258,0-.454-.016-.603-.035v-2.61h0ZM23.935,56.357c.062.012.156.012.247.012.581.004.927-.346.927-1.02.003-.583-.31-.921-.868-.921-.142,0-.24.012-.306.027v1.901h0Z"/>
        <path d="M26.362,54.07v2.653h-.446v-2.653h.446Z"/>
        <path d="M28.78,56.601c-.156.063-.461.149-.784.149-.414,0-.73-.114-.963-.354-.218-.225-.341-.575-.341-.977.004-.842.552-1.378,1.361-1.378.302,0,.538.067.65.126l-.098.39c-.135-.067-.298-.114-.556-.114-.523,0-.89.334-.89.953,0,.603.341.96.85.96.163,0,.279-.023.338-.051v-.665h-.433v-.382h.864v1.342h.002Z"/>
        <path d="M29.629,54.07v2.653h-.446v-2.653h.446Z"/>
        <path d="M30.555,54.475h-.697v-.405h1.849v.405h-.705v2.248h-.446v-2.248h-.001Z"/>
        <path d="M32.163,55.971l-.211.752h-.461l.784-2.653h.57l.796,2.653h-.483l-.222-.752h-.773ZM32.864,55.605l-.192-.653c-.048-.162-.088-.343-.124-.496h-.007c-.036.153-.076.338-.116.496l-.189.653h.629,0Z"/>
        <path d="M33.928,54.07h.446v2.248h1.007v.405h-1.453v-2.653Z"/>
        <path d="M36.849,55.971l-.211.752h-.461l.784-2.653h.57l.796,2.653h-.483l-.222-.752h-.773ZM37.55,55.605l-.192-.653c-.048-.162-.088-.343-.124-.496h-.007c-.036.153-.076.338-.116.496l-.189.653h.629,0Z"/>
        <path d="M38.615,54.105c.163-.031.385-.055.683-.055.327,0,.563.075.719.216.146.13.24.338.24.586,0,.252-.072.457-.207.599-.182.193-.458.287-.773.287-.084,0-.156-.004-.218-.02v1.004h-.443v-2.618h-.001ZM39.058,55.337c.058.02.127.023.218.023.334,0,.537-.181.537-.488,0-.295-.188-.449-.497-.449-.124,0-.211.012-.258.024,0,0,0,.89,0,.89Z"/>
        <path d="M40.591,54.105c.163-.031.385-.055.683-.055.327,0,.563.075.719.216.146.13.24.338.24.586,0,.252-.072.457-.207.599-.182.193-.458.287-.773.287-.084,0-.156-.004-.218-.02v1.004h-.443v-2.618h-.001ZM41.035,55.337c.058.02.127.023.218.023.334,0,.537-.181.537-.488,0-.295-.188-.449-.497-.449-.124,0-.211.012-.258.024,0,0,0,.89,0,.89Z"/>
        <path d="M42.798,55.971l-.211.752h-.461l.784-2.653h.57l.796,2.653h-.483l-.222-.752h-.773ZM43.5,55.605l-.192-.653c-.048-.162-.088-.343-.124-.496h-.007c-.036.153-.076.338-.116.496l-.189.653h.629,0Z"/>
        <path d="M44.565,54.109c.171-.036.418-.059.676-.059.352,0,.588.063.755.212.135.122.211.307.211.535,0,.343-.214.575-.446.662v.012c.178.071.283.256.341.512.08.331.146.638.192.74h-.457c-.037-.079-.099-.295-.164-.626-.072-.346-.185-.457-.439-.464h-.225v1.09h-.443v-2.614h0ZM45.008,55.278h.265c.302,0,.487-.173.487-.437,0-.287-.186-.425-.477-.425-.142,0-.232.012-.275.024,0,0,0,.838,0,.838Z"/>
        <path d="M47.092,55.971l-.211.752h-.461l.784-2.653h.57l.796,2.653h-.483l-.222-.752h-.773ZM47.793,55.605l-.192-.653c-.048-.162-.088-.343-.124-.496h-.007c-.036.153-.076.338-.116.496l-.189.653h.629,0Z"/>
        <path d="M49.033,54.475h-.697v-.405h1.849v.405h-.705v2.248h-.446v-2.248h0Z"/>
        <path d="M50.86,54.07v1.547c0,.52.199.76.501.76.323,0,.516-.24.516-.76v-1.547h.446v1.516c0,.819-.389,1.181-.977,1.181-.566,0-.934-.343-.934-1.177v-1.52h.448Z"/>
        <path d="M52.774,56.196c.142.09.362.169.592.169.283,0,.442-.146.442-.362,0-.201-.123-.319-.432-.441-.407-.158-.665-.39-.665-.772,0-.437.334-.764.868-.764.266,0,.458.063.585.134l-.105.39c-.091-.051-.262-.126-.49-.126-.283,0-.403.162-.403.319,0,.205.142.299.469.437.425.173.628.406.628.788,0,.429-.298.799-.926.799-.262,0-.53-.079-.665-.169l.103-.401h0Z"/>
        <path d="M4.4,61.061c-.105.055-.338.118-.636.118-.776,0-1.249-.528-1.249-1.339,0-.874.563-1.401,1.312-1.401.294,0,.501.067.592.118l-.095.386c-.116-.055-.279-.102-.479-.102-.497,0-.856.338-.856.976,0,.586.312.957.853.957.179,0,.367-.039.487-.094l.072.382h-.001Z"/>
        <path d="M6.816,59.782c0,.89-.498,1.397-1.17,1.397-.693,0-1.129-.575-1.129-1.351,0-.819.476-1.394,1.166-1.394.711,0,1.133.586,1.133,1.347h0ZM4.989,59.817c0,.543.251.973.68.973.432,0,.675-.437.675-.992,0-.5-.229-.973-.675-.973-.443,0-.68.445-.68.992Z"/>
        <path d="M9.224,60.054c-.015-.343-.032-.756-.029-1.114h-.011c-.08.323-.182.681-.29,1.016l-.36,1.149h-.341l-.327-1.134c-.094-.338-.182-.701-.247-1.031h-.007c-.011.347-.025.768-.044,1.13l-.055,1.067h-.417l.163-2.653h.589l.319,1.067c.087.311.163.626.225.921h.012c.065-.287.148-.614.243-.925l.338-1.063h.581l.142,2.653h-.437s-.047-1.083-.047-1.083Z"/>
        <path d="M10.12,58.518c.163-.031.385-.055.683-.055.327,0,.563.075.719.216.146.13.24.338.24.586,0,.252-.072.457-.207.599-.182.193-.458.287-.773.287-.084,0-.156-.004-.218-.02v1.004h-.443v-2.618h0ZM10.563,59.75c.058.02.127.023.218.023.334,0,.537-.181.537-.488,0-.295-.188-.449-.497-.449-.124,0-.211.012-.258.024v.89Z"/>
        <path d="M12.106,58.483h.446v2.248h1.007v.405h-1.453v-2.653Z"/>
        <path d="M14.299,58.483v2.653h-.446v-2.653h.446Z"/>
        <path d="M16.135,59.959h-.923v.78h1.032v.397h-1.479v-2.653h1.424v.397h-.978v.685h.923v.394h.001Z"/>
        <path d="M16.586,60.609c.142.09.362.169.592.169.283,0,.442-.146.442-.362,0-.201-.123-.319-.432-.441-.407-.158-.665-.39-.665-.772,0-.437.334-.764.868-.764.266,0,.458.063.585.134l-.105.39c-.091-.051-.262-.126-.49-.126-.283,0-.403.162-.403.319,0,.205.142.299.469.437.425.173.628.406.628.788,0,.429-.298.799-.926.799-.262,0-.53-.079-.665-.169l.103-.401h0Z"/>
        <path d="M19.405,61.136l-.599-2.653h.476l.232,1.205c.062.323.12.661.16.925h.007c.04-.28.109-.595.178-.929l.266-1.201h.468l.244,1.22c.058.315.112.61.148.897h.007c.044-.291.103-.594.168-.921l.254-1.197h.454l-.661,2.653h-.476l-.255-1.248c-.062-.303-.104-.555-.138-.842h-.007c-.04.283-.088.539-.16.842l-.283,1.248h-.483Z"/>
        <path d="M22.571,58.483v2.653h-.446v-2.653h.446Z"/>
        <path d="M23.506,58.888h-.697v-.405h1.849v.405h-.705v2.248h-.446v-2.248h-.001Z"/>
        <path d="M25.347,58.483v1.063h1.035v-1.063h.447v2.653h-.447v-1.169h-1.035v1.169h-.446v-2.653h.446Z"/>
        <path d="M29.758,61.061c-.105.055-.338.118-.636.118-.776,0-1.249-.528-1.249-1.339,0-.874.563-1.401,1.312-1.401.294,0,.501.067.592.118l-.095.386c-.116-.055-.279-.102-.479-.102-.497,0-.856.338-.856.976,0,.586.312.957.854.957.178,0,.366-.039.486-.094l.072.382h-.001Z"/>
        <path d="M30.612,60.384l-.211.752h-.461l.784-2.653h.57l.796,2.653h-.483l-.222-.752s-.773,0-.773,0ZM31.313,60.018l-.192-.653c-.048-.162-.088-.343-.124-.496h-.007c-.036.153-.076.338-.116.496l-.189.653h.629-.001Z"/>
        <path d="M32.385,61.136v-2.653h.513l.632,1.138c.159.295.305.602.417.89h.008c-.033-.354-.04-.697-.04-1.102v-.925h.414v2.653h-.465l-.64-1.169c-.156-.291-.315-.614-.436-.913l-.015.004c.019.342.025.693.025,1.13v.949h-.414v-.002Z"/>
        <path d="M35.293,60.384l-.211.752h-.461l.784-2.653h.57l.796,2.653h-.483l-.222-.752h-.773ZM35.994,60.018l-.192-.653c-.048-.162-.088-.343-.124-.496h-.007c-.036.153-.076.338-.116.496l-.189.653h.629,0Z"/>
        <path d="M37.069,58.518c.2-.031.446-.055.712-.055.457,0,.77.102.995.307.239.209.385.528.385.977,0,.476-.148.827-.381,1.055-.244.24-.633.362-1.108.362-.258,0-.454-.016-.603-.035v-2.61h0ZM37.515,60.77c.062.012.156.012.247.012.581.004.927-.346.927-1.02.003-.583-.31-.921-.868-.921-.142,0-.24.012-.306.027v1.901h0Z"/>
        <path d="M39.954,58.483v2.653h-.446v-2.653h.446Z"/>
        <path d="M40.911,60.384l-.211.752h-.461l.784-2.653h.57l.796,2.653h-.483l-.222-.752h-.773ZM41.612,60.018l-.192-.653c-.048-.162-.088-.343-.124-.496h-.007c-.036.153-.076.338-.116.496l-.189.653h.629,0Z"/>
        <path d="M42.684,61.136v-2.653h.513l.632,1.138c.159.295.305.602.417.89h.008c-.033-.354-.04-.697-.04-1.102v-.925h.414v2.653h-.465l-.64-1.169c-.156-.291-.315-.614-.436-.913l-.015.004c.019.342.025.693.025,1.13v.949h-.414v-.002Z"/>
        <path d="M46.252,58.483v2.653h-.446v-2.653h.446Z"/>
        <path d="M48.473,61.061c-.105.055-.338.118-.636.118-.776,0-1.249-.528-1.249-1.339,0-.874.563-1.401,1.312-1.401.294,0,.501.067.592.118l-.095.386c-.116-.055-.279-.102-.479-.102-.497,0-.856.338-.856.976,0,.586.312.957.854.957.178,0,.366-.039.486-.094l.072.382h0Z"/>
        <path d="M50.181,59.959h-.923v.78h1.032v.397h-1.479v-2.653h1.424v.397h-.978v.685h.923v.394h0Z"/>
        <path d="M50.632,60.609c.142.09.362.169.592.169.283,0,.442-.146.442-.362,0-.201-.123-.319-.432-.441-.407-.158-.665-.39-.665-.772,0-.437.335-.764.868-.764.266,0,.458.063.585.134l-.105.39c-.091-.051-.262-.126-.49-.126-.283,0-.403.162-.403.319,0,.205.142.299.469.437.425.173.628.406.628.788,0,.429-.298.799-.926.799-.262,0-.53-.079-.665-.169l.103-.401h0Z"/>
        <path d="M53.257,59.624v.334h-.926v-.334h.926Z"/>
        <path d="M55.145,59.837c0,.827-.298,1.343-.864,1.343-.541,0-.832-.536-.836-1.315,0-.799.312-1.331.864-1.331.57,0,.836.551.836,1.303ZM53.896,59.861c0,.626.155.949.399.949.265,0,.399-.347.399-.96,0-.595-.127-.945-.396-.945-.235,0-.402.319-.402.957h0Z"/>
        <path d="M57.047,59.837c0,.827-.298,1.343-.864,1.343-.541,0-.832-.536-.836-1.315,0-.799.312-1.331.864-1.331.57,0,.836.551.836,1.303ZM55.798,59.861c0,.626.155.949.399.949.265,0,.399-.347.399-.96,0-.595-.127-.945-.396-.945-.235,0-.402.319-.402.957h0Z"/>
        <path d="M57.375,60.636c.091.059.312.158.537.158.342,0,.476-.209.476-.41,0-.303-.265-.433-.537-.433h-.203v-.354h.203c.203,0,.465-.103.465-.354,0-.177-.116-.323-.378-.323-.192,0-.385.09-.482.161l-.102-.35c.134-.099.399-.197.679-.197.49,0,.737.291.737.626,0,.268-.146.488-.436.598v.008c.286.059.516.292.519.638,0,.433-.334.776-.918.776-.287,0-.534-.087-.661-.177l.102-.366h-.001Z"/>
        <path d="M59.215,60.869c0-.181.116-.311.275-.311.164,0,.276.126.276.311,0,.177-.109.311-.279.311-.16,0-.272-.134-.272-.311Z"/>
      </g>
    </g>
    <g>
      <g>
        <path d="M176.404,57.238v-.349l.315-.331c.625-.661.92-1.023.924-1.424,0-.27-.127-.507-.475-.507-.237,0-.434.135-.568.251l-.147-.405c.192-.177.482-.312.818-.312.589,0,.875.423.875.917,0,.531-.335.959-.802,1.448l-.229.228v.009h1.088v.475h-1.8.001Z"/>
        <path d="M180.351,55.703c0,.977-.335,1.587-.973,1.587-.609,0-.937-.633-.941-1.555,0-.944.352-1.573.974-1.573.642,0,.94.651.94,1.541ZM178.944,55.73c0,.74.176,1.122.449,1.122.299,0,.45-.41.45-1.136,0-.703-.144-1.117-.446-1.117-.266,0-.453.377-.453,1.131Z"/>
        <path d="M182.42,55.703c0,.977-.335,1.587-.974,1.587-.608,0-.936-.633-.94-1.555,0-.944.353-1.573.974-1.573.642,0,.94.651.94,1.541ZM181.014,55.73c0,.74.176,1.122.449,1.122.299,0,.45-.41.45-1.136,0-.703-.144-1.117-.446-1.117-.266,0-.453.377-.453,1.131Z"/>
        <path d="M182.612,57.238v-.349l.314-.331c.626-.661.921-1.023.925-1.424,0-.27-.127-.507-.475-.507-.237,0-.434.135-.568.251l-.147-.405c.192-.177.482-.312.818-.312.589,0,.875.423.875.917,0,.531-.335.959-.802,1.448l-.229.228v.009h1.088v.475h-1.8.001Z"/>
        <path d="M185.72,57.238v-3.137h.577l.711,1.345c.18.349.344.712.471,1.052h.008c-.037-.419-.045-.824-.045-1.303v-1.094h.466v3.137h-.523l-.72-1.382c-.176-.344-.355-.726-.49-1.08l-.017.004c.021.405.029.819.029,1.336v1.122h-.467Z"/>
        <path d="M188.931,54.339c0,.167-.11.307-.286.307-.168,0-.278-.14-.278-.307,0-.177.114-.312.282-.312.172,0,.278.135.282.312ZM188.395,57.238v-2.267h.503v2.267h-.503Z"/>
        <path d="M189.343,55.646c0-.26-.008-.479-.016-.675h.438l.024.34h.012c.091-.177.307-.391.639-.391.348,0,.707.256.707.973v1.345h-.503v-1.28c0-.326-.106-.572-.38-.572-.201,0-.34.163-.393.335-.017.046-.025.116-.025.182v1.335h-.503v-1.592h0Z"/>
        <path d="M192.141,54.39v.582h.479v.428h-.479v1c0,.279.065.419.258.419.09,0,.139-.004.196-.023l.008.433c-.073.033-.209.061-.364.061-.188,0-.339-.07-.434-.186-.11-.13-.159-.34-.159-.638v-1.066h-.282v-.428h.282v-.423l.495-.158h0Z"/>
        <path d="M193.232,56.266c.012.41.29.586.613.586.233,0,.396-.042.552-.103l.074.391c-.172.083-.409.144-.695.144-.646,0-1.026-.451-1.026-1.145,0-.628.335-1.22.973-1.22.646,0,.859.605.859,1.103,0,.107-.009.191-.017.242h-1.333v.002ZM194.107,55.865c.004-.209-.078-.554-.413-.554-.311,0-.441.321-.462.554h.875Z"/>
        <path d="M194.888,55.646c0-.26-.008-.479-.016-.675h.438l.024.34h.012c.091-.177.307-.391.639-.391.348,0,.707.256.707.973v1.345h-.503v-1.28c0-.326-.106-.572-.38-.572-.201,0-.34.163-.393.335-.017.046-.025.116-.025.182v1.335h-.503v-1.592h0Z"/>
        <path d="M198.966,53.934v2.667c0,.233.008.484.016.638h-.445l-.024-.358h-.009c-.118.251-.359.41-.646.41-.479,0-.854-.461-.854-1.159-.005-.759.412-1.21.891-1.21.274,0,.471.126.561.293h.008v-1.28h.504-.002ZM198.462,55.916c0-.046-.004-.107-.012-.153-.045-.219-.204-.4-.434-.4-.323,0-.503.326-.503.745s.18.721.499.721c.204,0,.385-.158.434-.405.012-.051.016-.107.016-.167v-.34h0Z"/>
        <path d="M201.301,56.084c0,.833-.515,1.206-1.022,1.206-.56,0-.997-.438-.997-1.168,0-.745.429-1.201,1.03-1.201.593,0,.989.475.989,1.164h0ZM199.8,56.107c0,.438.192.768.495.768.286,0,.486-.317.486-.777,0-.354-.139-.763-.482-.763-.355,0-.499.396-.499.772Z"/>
      </g>
      <g>
        <path d="M156.395,59.736c.175-.035.412-.062.731-.062.351,0,.604.084.771.243.155.146.257.38.257.659,0,.283-.078.514-.222.673-.195.217-.49.323-.829.323-.09,0-.167-.004-.233-.022v1.128h-.475v-2.943h0ZM156.87,61.121c.062.022.136.026.233.026.358,0,.576-.203.576-.548,0-.332-.202-.504-.533-.504-.133,0-.226.013-.276.026v1Z"/>
        <path d="M159.872,62.161c0,.194.008.385.031.518h-.432l-.035-.239h-.012c-.113.168-.312.288-.561.288-.381,0-.596-.314-.596-.642,0-.54.425-.819,1.125-.814v-.035c0-.142-.051-.376-.385-.376-.188,0-.382.066-.51.16l-.094-.354c.14-.098.385-.19.685-.19.607,0,.782.438.782.912v.774l.002-.002ZM159.405,61.625c-.339-.004-.661.075-.661.403,0,.212.12.31.272.31.194,0,.33-.142.377-.296.012-.04.012-.08.012-.12v-.296h0Z"/>
        <path d="M160.835,59.971v.553h.455v.407h-.455v.952c0,.265.062.398.245.398.085,0,.132-.004.187-.022l.008.412c-.07.031-.198.058-.347.058-.179,0-.322-.066-.412-.177-.105-.124-.151-.323-.151-.606v-1.014h-.269v-.407h.269v-.403l.471-.15h0Z"/>
        <path d="M161.9,61.754c.012.389.276.558.583.558.222,0,.378-.04.525-.098l.07.372c-.163.08-.39.137-.661.137-.615,0-.978-.429-.978-1.089,0-.597.319-1.159.927-1.159.614,0,.816.575.816,1.049,0,.102-.008.181-.015.23h-1.269.002ZM162.732,61.374c.004-.199-.073-.527-.393-.527-.296,0-.42.305-.439.527h.832Z"/>
        <path d="M163.501,61.165c0-.248-.008-.456-.016-.642h.416l.023.323h.012c.086-.168.292-.372.607-.372.33,0,.673.243.673.925v1.279h-.479v-1.217c0-.31-.102-.544-.362-.544-.19,0-.322.155-.373.319-.016.044-.023.11-.023.172v1.27h-.479v-1.513h.001Z"/>
        <path d="M166.188,59.971v.553h.455v.407h-.455v.952c0,.265.062.398.245.398.085,0,.132-.004.187-.022l.008.412c-.07.031-.198.058-.347.058-.179,0-.322-.066-.412-.177-.105-.124-.151-.323-.151-.606v-1.014h-.269v-.407h.269v-.403l.471-.15h0Z"/>
        <path d="M166.918,62.174c.105.075.312.159.482.159.21,0,.304-.102.304-.243,0-.146-.078-.217-.312-.314-.369-.142-.521-.372-.521-.628,0-.38.276-.672.716-.672.211,0,.394.058.506.128l-.097.38c-.078-.053-.233-.124-.401-.124-.171,0-.265.098-.265.23,0,.137.09.199.331.301.347.137.502.336.506.655,0,.394-.269.677-.771.677-.229,0-.436-.062-.576-.151,0,0,.098-.398.098-.398Z"/>
        <path d="M169.741,59.922c0,.159-.105.292-.272.292-.159,0-.265-.133-.265-.292,0-.168.109-.296.269-.296.163,0,.265.128.269.296h0ZM169.231,62.679v-2.155h.479v2.155h-.479Z"/>
        <path d="M170.141,62.174c.105.075.312.159.482.159.21,0,.304-.102.304-.243,0-.146-.078-.217-.312-.314-.369-.142-.521-.372-.521-.628,0-.38.276-.672.716-.672.211,0,.394.058.506.128l-.097.38c-.078-.053-.233-.124-.401-.124-.171,0-.265.098-.265.23,0,.137.09.199.331.301.347.137.502.336.506.655,0,.394-.269.677-.771.677-.229,0-.436-.062-.576-.151,0,0,.098-.398.098-.398Z"/>
        <path d="M171.696,62.174c.105.075.312.159.482.159.21,0,.304-.102.304-.243,0-.146-.078-.217-.312-.314-.369-.142-.521-.372-.521-.628,0-.38.276-.672.716-.672.211,0,.394.058.506.128l-.097.38c-.078-.053-.233-.124-.401-.124-.171,0-.265.098-.265.23,0,.137.09.199.331.301.347.137.502.336.506.655,0,.394-.269.677-.771.677-.229,0-.436-.062-.576-.151,0,0,.098-.398.098-.398Z"/>
        <path d="M174.966,62.033c0,.256.008.469.016.646h-.416l-.023-.323h-.012c-.082.151-.269.372-.611.372s-.657-.235-.657-.938v-1.265h.479v1.172c0,.358.102.588.354.588.194,0,.318-.15.365-.292.02-.044.027-.106.027-.168v-1.301h.479v1.509h-.001Z"/>
        <path d="M175.755,61.754c.012.389.276.558.583.558.222,0,.378-.04.525-.098l.07.372c-.163.08-.39.137-.661.137-.615,0-.978-.429-.978-1.089,0-.597.319-1.159.927-1.159.614,0,.816.575.816,1.049,0,.102-.008.181-.015.23h-1.269.002ZM176.587,61.374c.004-.199-.073-.527-.393-.527-.296,0-.42.305-.439.527h.832Z"/>
        <path d="M179.103,59.537v2.535c0,.222.008.46.016.606h-.424l-.023-.341h-.008c-.113.239-.343.39-.615.39-.455,0-.813-.438-.813-1.102-.004-.721.394-1.15.849-1.15.261,0,.447.12.533.279h.008v-1.217h.479-.002ZM178.625,61.422c0-.044-.004-.102-.012-.146-.043-.208-.194-.38-.412-.38-.308,0-.479.31-.479.708s.172.686.476.686c.194,0,.365-.15.412-.385.012-.049.016-.102.016-.159v-.323h-.001Z"/>
        <path d="M181.757,62.161c0,.194.008.385.031.518h-.432l-.035-.239h-.012c-.113.168-.312.288-.561.288-.381,0-.595-.314-.595-.642,0-.54.424-.819,1.124-.814v-.035c0-.142-.051-.376-.385-.376-.188,0-.382.066-.51.16l-.094-.354c.14-.098.385-.19.685-.19.607,0,.782.438.782.912v.774l.002-.002ZM181.291,61.625c-.339-.004-.661.075-.661.403,0,.212.12.31.271.31.195,0,.331-.142.378-.296.012-.04.012-.08.012-.12v-.296h0Z"/>
        <path d="M182.196,61.165c0-.248-.008-.456-.016-.642h.416l.023.323h.012c.086-.168.292-.372.607-.372.33,0,.673.243.673.925v1.279h-.479v-1.217c0-.31-.102-.544-.362-.544-.19,0-.322.155-.373.319-.016.044-.023.11-.023.172v1.27h-.479v-1.513h.001Z"/>
        <path d="M186.1,59.537v2.535c0,.222.008.46.016.606h-.424l-.023-.341h-.008c-.113.239-.343.39-.615.39-.455,0-.813-.438-.813-1.102-.004-.721.394-1.15.849-1.15.261,0,.447.12.533.279h.008v-1.217h.479-.002ZM185.622,61.422c0-.044-.004-.102-.012-.146-.043-.208-.194-.38-.412-.38-.308,0-.479.31-.479.708s.171.686.475.686c.194,0,.365-.15.412-.385.012-.049.016-.102.016-.159v-.323h0Z"/>
        <path d="M187.304,59.736c.175-.035.412-.062.731-.062.351,0,.604.084.771.243.155.146.257.38.257.659,0,.283-.078.514-.222.673-.194.217-.49.323-.829.323-.09,0-.167-.004-.233-.022v1.128h-.475v-2.943h0ZM187.779,61.121c.062.022.136.026.233.026.358,0,.576-.203.576-.548,0-.332-.202-.504-.533-.504-.133,0-.226.013-.276.026v1Z"/>
        <path d="M189.633,61.754c.012.389.275.558.583.558.222,0,.378-.04.525-.098l.07.372c-.163.08-.39.137-.661.137-.615,0-.978-.429-.978-1.089,0-.597.319-1.159.927-1.159.614,0,.816.575.816,1.049,0,.102-.008.181-.015.23h-1.269.002ZM190.465,61.374c.004-.199-.073-.527-.393-.527-.296,0-.42.305-.439.527h.832Z"/>
        <path d="M191.234,61.165c0-.248-.008-.456-.016-.642h.416l.023.323h.012c.086-.168.292-.372.607-.372.33,0,.673.243.673.925v1.279h-.479v-1.217c0-.31-.102-.544-.362-.544-.19,0-.322.155-.373.319-.016.044-.023.11-.023.172v1.27h-.479v-1.513h.001Z"/>
        <path d="M195.138,59.537v2.535c0,.222.008.46.016.606h-.424l-.023-.341h-.008c-.113.239-.343.39-.615.39-.455,0-.813-.438-.813-1.102-.004-.721.394-1.15.849-1.15.261,0,.447.12.533.279h.008v-1.217h.479-.002ZM194.66,61.422c0-.044-.004-.102-.012-.146-.043-.208-.194-.38-.412-.38-.308,0-.479.31-.479.708s.172.686.476.686c.194,0,.365-.15.412-.385.012-.049.016-.102.016-.159v-.323h-.001Z"/>
        <path d="M196.094,59.922c0,.159-.105.292-.272.292-.159,0-.265-.133-.265-.292,0-.168.109-.296.269-.296.163,0,.265.128.269.296h0ZM195.585,62.679v-2.155h.479v2.155h-.479Z"/>
        <path d="M196.513,61.165c0-.248-.008-.456-.016-.642h.416l.023.323h.012c.086-.168.292-.372.607-.372.33,0,.673.243.673.925v1.279h-.479v-1.217c0-.31-.102-.544-.362-.544-.19,0-.322.155-.373.319-.016.044-.023.11-.023.172v1.27h-.479v-1.513h.001Z"/>
        <path d="M200.386,62.365c0,.451-.082.774-.28.978-.194.199-.471.261-.731.261-.241,0-.498-.062-.661-.172l.104-.412c.121.08.323.164.553.164.312,0,.545-.186.545-.65v-.186h-.008c-.109.19-.3.319-.553.319-.471,0-.806-.442-.806-1.053,0-.708.405-1.137.86-1.137.292,0,.459.159.549.336h.008l.02-.288h.416c-.008.146-.016.323-.016.619v1.222h0ZM199.908,61.387c0-.053-.004-.102-.016-.146-.051-.199-.187-.35-.389-.35-.269,0-.468.265-.468.704,0,.367.164.664.464.664.179,0,.334-.133.389-.332.016-.053.02-.128.02-.19v-.35Z"/>
        <path d="M200.544,63.214c.104-.336.21-.801.261-1.168l.502-.044c-.113.416-.284.894-.436,1.177l-.327.036h0Z"/>
      </g>
      <g>
        <path d="M173.609,53.894c1.088,0,1.973.885,1.973,1.973s-.885,1.973-1.973,1.973-1.973-.885-1.973-1.973.885-1.973,1.973-1.973M173.609,53.61c-1.247,0-2.257,1.011-2.257,2.257s1.011,2.257,2.257,2.257,2.257-1.011,2.257-2.257-1.011-2.257-2.257-2.257h0Z"/>
        <path d="M174.358,56.101c-.013-.328-.029-.723-.026-1.067h-.01c-.073.309-.166.652-.265.972l-.327,1.1h-.311l-.298-1.085c-.086-.324-.165-.671-.225-.988h-.007c-.01.332-.023.735-.039,1.081l-.05,1.021h-.38l.148-2.54h.536l.291,1.021c.08.297.148.599.205.882h.01c.059-.275.135-.588.222-.886l.308-1.018h.529l.129,2.54h-.397l-.043-1.036v.003Z"/>
      </g>
      <g>
        <path d="M160.556,57.238v-.349l.315-.331c.625-.661.92-1.023.924-1.424,0-.27-.127-.507-.475-.507-.237,0-.434.135-.568.251l-.147-.405c.192-.177.482-.312.818-.312.589,0,.875.423.875.917,0,.531-.335.959-.802,1.448l-.229.228v.009h1.088v.475h-1.8.001Z"/>
        <path d="M164.502,55.703c0,.977-.335,1.587-.973,1.587-.609,0-.937-.633-.941-1.555,0-.944.352-1.573.974-1.573.642,0,.94.651.94,1.541ZM163.096,55.73c0,.74.176,1.122.449,1.122.299,0,.45-.41.45-1.136,0-.703-.144-1.117-.446-1.117-.266,0-.453.377-.453,1.131Z"/>
        <path d="M166.571,55.703c0,.977-.335,1.587-.974,1.587-.608,0-.936-.633-.94-1.555,0-.944.353-1.573.974-1.573.642,0,.94.651.94,1.541ZM165.165,55.73c0,.74.176,1.122.449,1.122.299,0,.45-.41.45-1.136,0-.703-.144-1.117-.446-1.117-.266,0-.453.377-.453,1.131Z"/>
        <path d="M166.764,57.238v-.349l.314-.331c.626-.661.921-1.023.925-1.424,0-.27-.127-.507-.475-.507-.237,0-.434.135-.568.251l-.147-.405c.192-.177.482-.312.818-.312.589,0,.875.423.875.917,0,.531-.335.959-.802,1.448l-.229.228v.009h1.088v.475h-1.8.001Z"/>
      </g>
      <g>
        <path d="M157.76,53.894c1.088,0,1.973.885,1.973,1.973s-.885,1.973-1.973,1.973-1.973-.885-1.973-1.973.885-1.973,1.973-1.973M157.76,53.61c-1.247,0-2.257,1.011-2.257,2.257s1.011,2.257,2.257,2.257,2.257-1.011,2.257-2.257-1.011-2.257-2.257-2.257h0Z"/>
        <path d="M158.516,57.12c-.108.055-.348.118-.656.118-.803,0-1.291-.528-1.291-1.339,0-.875.582-1.402,1.354-1.402.304,0,.518.067.612.118l-.098.386c-.12-.055-.288-.103-.495-.103-.513,0-.885.339-.885.977,0,.587.323.957.882.957.183,0,.379-.039.503-.094l.074.382h0Z"/>
      </g>
      <g>
        <path d="M182.446,67.726c.149.102.384.19.626.19.301,0,.47-.164.47-.407,0-.226-.131-.359-.458-.496-.431-.177-.703-.438-.703-.868,0-.491.354-.858.919-.858.28,0,.484.071.619.15l-.111.438c-.097-.057-.277-.142-.52-.142-.3,0-.427.182-.427.359,0,.23.15.336.496.491.45.195.665.456.665.885,0,.482-.315.898-.98.898-.276,0-.562-.089-.704-.19l.108-.451h0Z"/>
        <path d="M184.723,67.394c.012.389.273.558.577.558.22,0,.373-.04.52-.098l.069.372c-.162.08-.385.137-.654.137-.607,0-.965-.429-.965-1.089,0-.597.315-1.159.915-1.159.607,0,.808.575.808,1.049,0,.102-.008.181-.016.23h-1.254,0ZM185.546,67.013c.004-.199-.073-.527-.389-.527-.292,0-.415.305-.435.527h.824Z"/>
        <path d="M186.642,67.394c.012.389.273.558.577.558.219,0,.373-.04.52-.098l.068.372c-.161.08-.384.137-.653.137-.607,0-.965-.429-.965-1.089,0-.597.315-1.159.915-1.159.607,0,.808.575.808,1.049,0,.102-.008.181-.016.23h-1.254,0ZM187.465,67.013c.004-.199-.073-.527-.389-.527-.292,0-.415.305-.435.527h.824Z"/>
        <path d="M188.958,65.177h.473v1.283h.008c.115-.208.319-.345.6-.345.458,0,.785.438.781,1.093,0,.774-.427,1.16-.851,1.16-.242,0-.457-.106-.592-.372h-.008l-.022.323h-.404c.008-.146.016-.385.016-.606v-2.535h-.001ZM189.431,67.429c0,.044.004.089.012.128.05.221.216.381.419.381.296,0,.477-.27.477-.708,0-.381-.157-.69-.473-.69-.192,0-.369.159-.419.398-.008.04-.016.088-.016.142v.349h0Z"/>
        <path d="M192.923,67.221c0,.792-.484,1.146-.961,1.146-.527,0-.938-.416-.938-1.111,0-.708.403-1.142.969-1.142.558,0,.931.451.931,1.106h0ZM191.512,67.243c0,.416.181.73.465.73.27,0,.458-.301.458-.739,0-.336-.131-.726-.454-.726-.334,0-.469.376-.469.735Z"/>
        <path d="M195.027,67.221c0,.792-.484,1.146-.961,1.146-.527,0-.938-.416-.938-1.111,0-.708.403-1.142.969-1.142.558,0,.931.451.931,1.106h0ZM193.616,67.243c0,.416.181.73.465.73.27,0,.458-.301.458-.739,0-.336-.131-.726-.454-.726-.334,0-.469.376-.469.735Z"/>
        <path d="M195.824,67.11h.008c.046-.084.1-.177.146-.252l.457-.694h.569l-.696.88.792,1.274h-.58l-.538-.951-.158.217v.734h-.473v-3.142h.473s0,1.934,0,1.934Z"/>
        <path d="M197.297,65.177h.473v3.142h-.473v-3.142Z"/>
        <path d="M198.555,67.394c.012.389.273.558.577.558.22,0,.373-.04.52-.098l.069.372c-.162.08-.385.137-.654.137-.607,0-.965-.429-.965-1.089,0-.597.315-1.159.915-1.159.607,0,.808.575.808,1.049,0,.102-.008.181-.016.23h-1.254,0ZM199.378,67.013c.004-.199-.073-.527-.389-.527-.292,0-.415.305-.435.527h.824Z"/>
        <path d="M200.682,65.61v.553h.45v.407h-.45v.952c0,.266.062.398.242.398.085,0,.131-.004.185-.022l.008.412c-.069.031-.196.058-.342.058-.178,0-.319-.066-.408-.177-.104-.124-.149-.323-.149-.606v-1.014h-.266v-.407h.266v-.403l.465-.15h0Z"/>
        <path d="M201.344,68.018c0-.204.123-.35.292-.35.173,0,.292.142.292.35,0,.199-.115.35-.296.35-.169,0-.288-.15-.288-.35h0Z"/>
      </g>
      <g>
        <path d="M196.416,44.507h-2.665v.417c-.489-.322-1.146-.484-1.96-.484-.77,0-1.38.129-1.869.377h-12.665v1.205l-1.538-1.205h-6.215l-.761,1.459-.856-1.474-9.354.016.491-.777h-7.452c-.555,0-1.11.159-1.601.476-.206.127-.381.27-.555.428-.476-.571-.967-.92-1.776-.92h-12.604l-.412,1.252-.206-1.237h-2.759l-.095.222-.27-.095c-1.443-.507-2.838-.333-4.154.476-1.363.84-2.014,2.172-1.839,3.837.095.999.729,1.887,1.681,2.394.698.349,1.474.46,2.251.333h2.457l.602-1.348.238,1.348,14.729-.016c.65,0,1.332-.333,1.839-.824.38.412.888.729,1.459.856.745.174,1.538.032,2.236-.396.032-.016.064-.048.095-.063l-.064.428h2.997l.079-.507c.317.016.587-.016.84-.27h7.769c1.411,0,2.267-.428,2.743-.967l.587.967h8.752v-1.221l1.57,1.221h11.805c.431.18.992.298,1.731.298.792,0,1.483-.167,2.054-.499v.405h2.547v-1.734h.038c2.657,0,3.215-1.2,3.215-2.208,0-.81-.408-2.167-3.135-2.167v-.003Z"/>
        <g fill="#231f20" data-background="background">
          <path d="M164.336,48.574h-.983v-1.998h1.395c.745,0,1.11.301,1.11.951,0,.793-.396,1.046-1.522,1.046M171.201,45.736h-1.142l-.032.063-1.284,2.362-1.379-2.362-.032-.048h-1.221l.095.159.238.381c-.381-.365-.951-.555-1.696-.555h-2.457v3.076l-1.823-3.012-.032-.048h-.935l-.032.048-2.077,3.488-.095.159h2.616v-.824h-1.062l1.062-1.918,1.506,2.679.032.048h3.06c1.601,0,2.426-.634,2.426-1.871,0-.222-.032-.412-.079-.587l1.459,2.41.032.048h.713l.032-.048,2.014-3.488.095-.159"/>
          <polyline points="178.288 45.736 178.177 45.736 178.177 47.94 175.403 45.768 175.371 45.736 174.642 45.736 174.642 48.812 172.819 45.8 172.787 45.736 171.851 45.736 171.82 45.8 169.743 49.272 169.648 49.446 170.757 49.446 170.757 49.446 172.279 49.446 172.279 48.622 171.217 48.622 172.279 46.703 173.786 49.383 173.817 49.446 175.022 49.446 175.022 49.446 175.625 49.446 175.625 47.211 178.399 49.415 178.431 49.446 179.16 49.446 179.16 45.736 178.288 45.736"/>
          <path d="M182.68,45.736h-2.172c-.761,0-1.015.238-1.015.935v1.839c0,.698.254.935,1.015.935h2.172c.761,0,1.015-.238,1.015-.935v-.523h-1.078v.571h-2.077v-1.95h2.077v.507h1.078v-.444c0-.713-.254-.935-1.015-.935"/>
          <polyline points="187.928 48.574 185.106 48.574 185.106 47.924 186.802 47.924 186.802 47.116 185.106 47.116 185.106 46.577 187.991 46.577 187.991 45.736 184.044 45.736 184.044 49.446 188.039 49.446 188.039 48.574 187.928 48.574"/>
          <path d="M132.215,47.623l.46-1.031.206,1.031h-.666M138.541,44.944l-1.237,2.901-.523-2.901h-1.078l-1.395,4.281-.713-4.281h-1.332l-2.029,4.598.301-1.918h-2.014l-.159.983h.84l-.095.523c-.476.206-1.3.143-1.649-.491-.222-.396-.428-1.284.507-2.093.761-.666,2.077-.777,2.838-.428,0,0,.095-.555.174-1.078-1.459-.507-2.6-.079-3.361.381-1.031.634-1.522,1.617-1.395,2.949.159,1.538,2.14,2.505,3.837,1.538.016-.016.032-.016.032-.016l-.159.365h1.142l.713-1.585h1.253l.27,1.585h1.839l.935-2.949.602,2.949h.729l1.411-3.266.143,3.266h1.078l-.206-5.311h-1.3"/>
          <polyline points="140.158 50.239 143.186 50.239 143.361 49.097 141.458 49.097 141.617 48.162 143.265 48.162 143.44 47.02 141.775 47.02 141.918 46.085 143.82 46.085 143.995 44.944 140.998 44.944 140.158 50.239"/>
          <polyline points="154.934 46.672 154.269 44.944 153.016 44.944 154.3 47.734 153.904 50.239 154.998 50.239 155.331 48.019 157.281 44.944 156.013 44.944 154.934 46.672"/>
          <path d="M152.398,48.099c-.285.872-.999,1.379-1.57,1.126-.571-.254-.793-1.173-.507-2.061.285-.872.999-1.379,1.57-1.126.587.27.809,1.189.507,2.061M151.985,44.991c-1.205-.27-2.457.682-2.79,2.14-.333,1.459.365,2.87,1.57,3.155s2.457-.682,2.79-2.14-.381-2.87-1.57-3.155"/>
          <path d="M147.166,47.068h-.761l.174-.983h.698c.777,0,.634.983-.111.983M147.039,49.208h-.951l.174-1.046h.904c.856-.016.84,1.046-.127,1.046M147.673,44.975c-.587-.016-2.029,0-2.029,0h.016l-.84,5.248h2.442c.999,0,2.473-1.474,1.142-2.695,1.364-1.427,0-2.537-.729-2.553"/>
          <path d="M155.917,49.732v-.206h.174c.079,0,.143.016.143.095,0,.127-.127.111-.206.111h-.111M156.124,49.795c.111,0,.19-.048.19-.174,0-.048-.032-.111-.063-.127-.048-.032-.095-.032-.143-.032h-.27v.618h.079v-.27h.127l.174.27h.095l-.19-.285M156.06,50.318c.301,0,.555-.238.555-.555,0-.301-.238-.539-.555-.539-.301,0-.555.238-.555.539,0,.317.238.555.555.555M156.06,50.223c-.254,0-.46-.19-.46-.46,0-.254.206-.46.46-.46s.46.206.46.46c-.016.27-.206.46-.46.46"/>
          <path d="M193.096,48.624c0-.376-.363-.551-.363-.551-.229-.108-.497-.188-1.197-.39-.739-.202-1.049-.309-1.304-.457-.282-.161-.551-.417-.551-.834,0-.296.148-.578.511-.78.363-.215.887-.336,1.6-.336,1.143,0,1.761.376,1.963.887l-.82.054c-.161-.255-.497-.497-1.197-.497-.363,0-.726.067-.941.202-.188.108-.296.255-.296.444,0,.229.161.417.417.524.255.121.524.202,1.237.376.659.188,1.008.296,1.277.457.282.188.524.457.524.834,0,.336-.175.645-.551.887-.363.229-.914.43-1.707.43-1.277,0-1.936-.39-2.178-.914l.834-.067c.202.296.632.551,1.371.551.484,0,.834-.134,1.076-.282,0-.013.296-.175.296-.538"/>
          <path d="M196.067,48.046h.269c1.573,0,2.38-.39,2.38-1.371,0-.82-.632-1.331-2.299-1.331h-1.828v4.437h.874v-3.993h.928c.995,0,1.439.296,1.439.887,0,.659-.471.914-1.533.914h-.229v.457" />
        </g>
        <g>
          <path d="M199.707,49.14h-.456v-.245h1.209v.245h-.461v1.356h-.292v-1.356Z"/>
          <path d="M201.989,49.843c-.01-.207-.021-.456-.019-.672h-.007c-.052.194-.118.411-.19.612l-.235.694h-.223l-.214-.684c-.061-.204-.118-.423-.162-.622h-.004c-.007.209-.017.463-.029.681l-.036.643h-.273l.107-1.6h.385l.208.644c.057.187.107.377.147.556h.007c.043-.174.097-.37.159-.558l.221-.641h.38l.093,1.6h-.285l-.031-.653h.001Z"/>
        </g>
      </g>
    </g>
    <rect x="62.133" y="3.81" width="140.315" height="35.433" rx="2.66" ry="2.66"/>
  </g>
  <g fill="#231f20" data-background="background">
    <text class="barcode" transform="translate(71.771 24.503) scale(.605 1)">*AB123456789*</text>
    <g transform="translate(95.723 35.284)" xml:space="preserve">
      <text data-serial-part="prefix" class="serial" style="letter-spacing: -0.75pt;">AB</text>
      <text data-serial-part="middle" class="serial" x="12.6" textLength="49px" lengthAdjust="spacingAndGlyphs">12345678</text>
      <text data-serial-part="suffix" class="serial" x="66.1" textLength="6.2px" lengthAdjust="spacingAndGlyphs">9</text>
    </g>
    <path d="M168.357,26.846v10.055h-6.654v-10.055h6.654M168.857,26.346h-7.654v11.055h7.654v-11.055h0Z"/>
  </g>
</svg>