<?xml version="1.0" encoding="UTF-8"?>
<svg xmlns="http://www.w3.org/2000/svg" width="157.289" height="70.549" version="1.1" viewBox="0 0 157.289 70.549">
  <g>
    <rect x=".125" y=".125" width="157.039" height="70.299" rx="3.969" ry="3.969" fill="#231f20" data-background="background"/>
    <rect x=".125" y=".125" width="157.039" height="70.299" rx="3.969" ry="3.969" fill="none" stroke="#a8a8ab" stroke-width="0.25pt" stroke-dasharray="0.9pt" data-stroke="stroke"/>
  </g>
  <g fill="#fff" data-foreground="foreground">
    <g>
      <g>
        <g>
          <g>
            <path d="M34.982,9.437l-.25-1.289-.576,1.289h.826ZM44.029,12.712h-1.365l-.182-4.11-1.774,4.11h-.91l-.758-3.715-1.183,3.715h-2.32l-.349-1.986h-1.577l-.895,1.986h-1.426l2.927-6.642h1.683l.895,5.368,1.744-5.368h1.349l.667,3.64,1.547-3.64h1.638l.288,6.642"/>
          </g>
          <g>
            <path d="M47.942,12.712l.228-1.425h-2.381l.189-1.183h2.071l.228-1.425h-2.093l.182-1.183h2.38l.228-1.425h-3.776l-1.062,6.642h3.807"/>
          </g>
          <g>
            <path d="M65.669,6.07h-1.593l-1.35,2.168-.849-2.168h-1.562l1.608,3.503-.495,3.139h1.365l.419-2.775,2.457-3.867"/>
          </g>
          <g>
            <path d="M57.565,11.448c.722.323,1.606-.311,1.974-1.415.368-1.105.081-2.263-.64-2.586-.722-.323-1.606.311-1.974,1.416-.368,1.105-.081,2.262.64,2.585h0ZM55.5,8.82c.424-1.837,1.993-3.042,3.506-2.692,1.513.35,2.395,2.121,1.972,3.958-.424,1.836-1.993,3.042-3.506,2.692-1.513-.35-2.395-2.122-1.972-3.958"/>
          </g>
          <g>
            <path d="M28.379,6.662c-1.301.805-1.926,2.032-1.759,3.7.194,1.935,2.7,3.154,4.823,1.926.186-.107.113-.09.182-.152l.425-2.699h-2.533l-.194,1.243h1.058l-.122.668c-.606.242-1.638.151-2.077-.637-.278-.499-.537-1.614.637-2.639.955-.834,2.608-.985,3.564-.546,0,0,.121-.698.212-1.35-1.835-.637-3.261-.106-4.216.486"/>
          </g>
          <g>
            <path d="M51.05,6.107l-1.053,6.592h3.07c1.264,0,3.113-1.863,1.43-3.386,1.731-1.791.015-3.191-.903-3.206-.737-.012-2.558,0-2.558,0h.015ZM51.802,10.095h1.144c1.084,0,1.054,1.324-.15,1.324h-1.204l.211-1.324ZM52.224,7.507h.888c.963,0,.768,1.234-.15,1.234h-.949l.21-1.234"/>
          </g>
          <g>
            <path d="M75.959,10.949s-.44.767-1.405.677c-1.134-.116-1.267-1.112-1.267-1.112,0,0-.155-.733.543-1.371.707-.595,1.444-.504,1.444-.504,0,0,.496.047.75.866.327,1.043-.065,1.444-.065,1.444ZM77.67,8.885c-.142-.431-.517-.841-.517-.841,0,0-.565-.733-1.672-.983-.948-.198-1.694.22-1.694.22,0,0-.677.272-1.185.832-.81.78-1.043,1.918-1.043,1.918,0,0-.31.991.181,1.776l.535.647c.754.629,1.561.694,1.561.694,0,0,.651.147,1.41-.052.664-.134,1.147-.461,1.147-.461,0,0,1.099-.608,1.401-1.849l-.121-1.901"/>
          </g>
          <g>
            <path d="M85.128,11.174c-1.203.733-1.96-.069-1.96-.069,0,0-.336-.224-.408-.905-.051-.789.723-1.198.723-1.198,0,0,.408-.254.918-.216.51.039.672.004,1.084.315.391.358.366.621.366.621,0,0,.14.888-.723,1.453ZM87.164,8.656,87.164,8.656c-.742-1.234-2.053-1.418-2.053-1.418,0,0-.417-.142-1.309-.022-1.675.323-2.257,1.629-2.257,1.629,0,0-.599.957-.361,2.116l.731,1.466c.54.513.761.513.795.543.714.328,1.543.138,1.543.138,0,0,1.046-.103,2.002-.858.765-.569.906-1.002,1.097-1.405.24-.507.118-1.682-.187-2.19Z"/>
          </g>
          <g>
            <path d="M89.126,8.932l-.082-1.125s.789-.017,1.116.039c.647.099.612.28.612.28,0,0-.021.228-.513.453-.535.258-1.134.353-1.134.353h0ZM87.488,10.846s.026.69-.082.858c-.147.315-.125.621-.125.621,0,0-.099.931.979,1.086.741-.004.832-.621.845-.884.043-.207.026-1.168.026-1.168l.961.785s.699.586,1.108.927c.427.336.534.396.534.396,0,0,.091.108.418.069.263.005.505-.233.505-.233,0,0,.306-.224.383-.616.095-.466-.267-.694-.267-.694,0,0-1.336-1.078-2.242-1.819.608-.332.901-.56.901-.56,0,0,.845-.56,1.026-1.418.25-.944-.461-1.315-.461-1.315,0,0-.444-.319-.819-.487-.944-.461-1.823-.366-1.823-.366,0,0-1.25-.086-2.065.918-.375.487-.142,1.125-.142,1.125,0,0,.046.102.151.586.21.973.19,2.19.19,2.19"/>
          </g>
          <g>
            <path d="M81.332,10.962c-.363-.08-.944.069-.944.069,0,0-.81.297-.935.293-.047-.069-.151-1.392-.121-1.922.017-.935-.06-1.698-.06-1.698,0,0-.039-.901-.522-1.435-.569-.573-.966-.328-1.194-.19-.548.491-.293,1.09-.293,1.09l.285.806s.138.345.121.909l.121,1.901c0,.254.207,1.966.207,1.966,0,0,.021.556.556.655.547.09,1.086-.181,1.315-.289.228-.108.53-.203.53-.203,0,0,.25-.056.5-.078.586-.056.798-.159.798-.159,0,0,.227-.034.379-.25.152-.216.337-1.229-.741-1.465"/>
          </g>
          <g>
            <path d="M71.653,11.807c-.385-.115-.828-.039-.828-.039,0,0-1.25.121-1.901-.017-1.009-.177-.974-1.263-.974-1.263,0,0-.034-.72.573-1.694.75-1.203,1.578-1.418,1.578-1.418,0,0,.207-.077.401.026.121.698.797.694.797.694,0,0,.974.065.927-1.116-.112-.97-1.048-1.104-1.44-1.194-1.177-.211-1.94.418-1.94.418,0,0-.789.427-1.733,1.914-.642.922-.72,1.647-.72,1.647,0,0-.078.173-.047.94-.017.599.207,1.034.207,1.034,0,0,.341,1.031,1.418,1.453.655.272,1.612.267,1.612.267,0,0,.927-.013,1.638-.052.388.03.573-.172.573-.172,0,0,.435-.284.392-.78,0,0-.084-.512-.535-.647"/>
          </g>
          <g>
            <path d="M64.052,12.168h-.262v-.161h.715v.161h-.262v.71h-.191v-.71Z"/>
            <path d="M64.604,12.007h.271l.203.599h.003l.192-.599h.27v.872h-.179v-.618h-.003l-.213.618h-.148l-.213-.611h-.003v.611h-.18v-.872Z"/>
          </g>
        </g>
        <path d="M9.364,8.719l-.945-1.528h-.679v2.197h.679v-1.528l.945,1.528h.674v-2.196h-.679l.006,1.527ZM14.734,7.932v-.219h-.355v-.296h-.662v.296h-.36v.219h.361v1.456h.661v-1.456h.355,0ZM10.415,9.382h.656v-1.457h-.656v1.457ZM10.415,7.641h.662v-.45h-.662v.45h0ZM21.947,7.825c-.532,0-.963.367-.963.817s.431.817.963.817.963-.367.963-.817-.431-.817-.963-.817ZM22.213,8.95c0,.231-.136.325-.266.325s-.272-.095-.272-.325v-.616c0-.231.136-.325.272-.325.13,0,.266.095.266.325v.616ZM20.122,7.997c-.107-.059-.219-.118-.372-.13-.473-.041-.839.379-.839.764,0,.509.39.693.449.722.225.101.508.107.756-.053v.083h.65v-2.191h-.65c.006,0,.006.468.006.805h0ZM20.128,8.648v.26c0,.225-.154.284-.26.284s-.26-.059-.26-.284v-.521c0-.225.154-.284.26-.284.1,0,.26.059.26.284v.261h0ZM12.613,7.86c-.219.006-.396.101-.526.219v-.154h-.656v1.457h.656v-.959c0-.124.136-.266.313-.266s.301.142.301.266v.959h.656v-.793c0-.574-.496-.74-.745-.728h0ZM17.959,7.86c-.196.005-.384.084-.526.219v-.154h-.656v1.457h.656v-.959c0-.124.136-.266.313-.266s.301.142.301.266v.959h.656v-.793c0-.574-.496-.74-.745-.728h0ZM16.583,8.66c0-.45-.437-.829-.969-.829-.538,0-.969.367-.969.817s.431.817.969.817c.443,0,.821-.255.933-.598h-.656v.089c0,.266-.177.326-.272.326-.1,0-.278-.059-.278-.325v-.302l1.241.006h0ZM15.389,8.145c.049-.08.136-.13.23-.13.089,0,.177.042.23.13.041.071.041.16.041.284h-.549c0-.124.006-.207.047-.284ZM23.17,7.464c0-.071-.053-.107-.159-.107h-.148v.373h.089v-.154h.047l.071.154h.1l-.083-.166c.053-.018.083-.053.083-.101ZM22.999,7.517h-.047v-.107h.041c.053,0,.083.018.083.053,0,.041-.023.053-.077.053ZM23.004,7.209c-.183,0-.337.154-.337.338s.154.338.337.338.337-.154.337-.338c0-.186-.15-.337-.337-.338h0ZM23.004,7.819c-.15-.002-.27-.123-.272-.272,0-.148.124-.272.272-.272s.272.124.272.272-.124.272-.272.272h0ZM22.266,5.96h-13.937c-1.477-.006-2.464,1.06-2.464,2.333s.987,2.327,2.469,2.327h13.937c1.483,0,2.469-1.054,2.469-2.327-.006-1.272-.998-2.333-2.475-2.333ZM22.26,10.051h-13.925c-1.176.006-1.891-.788-1.891-1.759s.721-1.753,1.891-1.759h13.925c1.17,0,1.891.787,1.891,1.759s-.715,1.759-1.891,1.759h0Z"/>
        <g>
          <path d="M99.365,9.11h1.025l.774,2.525h.009l.733-2.525h1.024v3.671h-.682v-2.602h-.009l-.812,2.602h-.562l-.812-2.576h-.01v2.576h-.682v-3.671Z"/>
          <path d="M105.06,9.023c1.024,0,1.628.848,1.628,1.938,0,1.059-.604,1.908-1.628,1.908s-1.628-.849-1.628-1.908c0-1.09.603-1.938,1.628-1.938ZM105.06,12.19c.653,0,.899-.617.899-1.229,0-.643-.246-1.26-.899-1.26s-.9.617-.9,1.26c0,.612.246,1.229.9,1.229Z"/>
          <path d="M107.186,9.11h1.429c.858,0,1.503.596,1.503,1.815,0,1.064-.492,1.856-1.503,1.856h-1.429v-3.671ZM107.914,12.103h.648c.423,0,.826-.288.826-1.101,0-.74-.232-1.213-.955-1.213h-.52v2.314Z"/>
          <path d="M110.625,9.11h2.477v.679h-1.748v.787h1.604v.627h-1.604v.9h1.785v.679h-2.514v-3.671Z"/>
          <path d="M113.633,9.11h.729v2.993h1.613v.679h-2.342v-3.671Z"/>
          <path d="M117.675,9.11h.724l1.382,2.463h.01v-2.463h.682v3.671h-.729l-1.378-2.458h-.009v2.458h-.682v-3.671Z"/>
          <path d="M122.599,9.023c1.024,0,1.628.848,1.628,1.938,0,1.059-.604,1.908-1.628,1.908s-1.628-.849-1.628-1.908c0-1.09.603-1.938,1.628-1.938ZM122.599,12.19c.653,0,.899-.617.899-1.229,0-.643-.246-1.26-.899-1.26s-.9.617-.9,1.26c0,.612.246,1.229.9,1.229Z"/>
          <path d="M124.961,12.067c.195,0,.353.175.353.391s-.157.391-.353.391-.353-.175-.353-.391.157-.391.353-.391Z"/>
        </g>
        <g>
          <path d="M131.19,9.793c-.057-.447-.443-.788-.888-.788-.803,0-1.104.756-1.104,1.544,0,.75.302,1.506,1.104,1.506.547,0,.854-.416.922-1.008h.865c-.091,1.122-.791,1.84-1.787,1.84-1.258,0-1.998-1.04-1.998-2.338,0-1.336.74-2.375,1.998-2.375.894,0,1.645.58,1.753,1.619h-.865Z"/>
          <path d="M135.531,12.271c-.312.447-.723.617-1.115.617-1.258,0-1.998-1.04-1.998-2.338,0-1.336.74-2.375,1.998-2.375.831,0,1.616.567,1.713,1.588h-.854c-.103-.498-.438-.756-.859-.756-.803,0-1.104.756-1.104,1.544,0,.75.302,1.506,1.104,1.506.581,0,.916-.347.968-.971h-.899v-.737h1.708v2.433h-.569l-.092-.51Z"/>
          <path d="M136.81,8.281h1.912c.774,0,1.298.277,1.298,1.115,0,.441-.199.75-.552.939.495.158.745.58.745,1.141,0,.914-.7,1.305-1.434,1.305h-1.97v-4.5ZM137.703,10.103h.905c.312,0,.546-.158.546-.536,0-.429-.296-.517-.614-.517h-.837v1.053ZM137.703,12.012h.956c.354,0,.66-.126.66-.592,0-.46-.262-.643-.643-.643h-.974v1.235Z"/>
          <path d="M140.622,10.676h1.713v.769h-1.713v-.769Z"/>
          <path d="M144.325,8.281c.797,0,1.469.555,1.469,2.275,0,1.758-.672,2.313-1.469,2.313-.785,0-1.457-.555-1.457-2.313,0-1.72.672-2.275,1.457-2.275ZM144.325,12.132c.66,0,.66-1.078.66-1.576,0-.46,0-1.538-.66-1.538-.648,0-.648,1.078-.648,1.538,0,.498,0,1.576.648,1.576Z"/>
          <path d="M147.448,8.281c.797,0,1.469.555,1.469,2.275,0,1.758-.672,2.313-1.469,2.313-.785,0-1.457-.555-1.457-2.313,0-1.72.672-2.275,1.457-2.275ZM147.448,12.132c.66,0,.66-1.078.66-1.576,0-.46,0-1.538-.66-1.538-.648,0-.648,1.078-.648,1.538,0,.498,0,1.576.648,1.576Z"/>
          <path d="M151.227,12.781h-.809v-2.861h-1.002v-.674c.563.012,1.082-.202,1.167-.876h.644v4.411Z"/>
        </g>
      </g>
      <rect x="5.866" y="15.243" width="145.557" height=".5"/>
    </g>
    <g>
      <g>
        <path d="M19.086,35.032h-.663v-2.349h-.821v-.553c.462.01.887-.166.957-.719h.527v3.621Z"/>
        <path d="M20.597,34.101c.042.243.21.45.439.45.48,0,.606-.698.625-1.102l-.009-.01c-.183.285-.42.403-.738.403-.279,0-.564-.145-.751-.372-.173-.223-.253-.522-.253-.807,0-.74.463-1.324,1.145-1.324.989,0,1.256.957,1.256,1.873,0,.885-.354,1.893-1.284,1.893-.564,0-.985-.367-1.06-1.003h.63ZM21.601,32.616c0-.336-.196-.672-.527-.672-.317,0-.5.336-.5.662,0,.341.159.683.5.683.354,0,.527-.315.527-.672Z"/>
        <path d="M23.154,34.101c.042.243.21.45.439.45.48,0,.606-.698.625-1.102l-.009-.01c-.183.285-.421.403-.738.403-.28,0-.564-.145-.751-.372-.173-.223-.253-.522-.253-.807,0-.74.463-1.324,1.145-1.324.989,0,1.256.957,1.256,1.873,0,.885-.354,1.893-1.284,1.893-.564,0-.985-.367-1.06-1.003h.63ZM24.158,32.616c0-.336-.196-.672-.527-.672-.317,0-.5.336-.5.662,0,.341.159.683.5.683.354,0,.527-.315.527-.672Z"/>
        <path d="M26.229,31.338c.812,0,1.093.621,1.093.973,0,.357-.168.646-.477.76v.01c.388.098.611.429.611.885,0,.76-.616,1.138-1.223,1.138-.631,0-1.242-.352-1.242-1.133,0-.46.233-.786.616-.89v-.01c-.317-.098-.48-.388-.48-.745,0-.651.569-.988,1.102-.988ZM26.234,34.551c.317,0,.561-.249.561-.61,0-.347-.253-.58-.561-.58-.322,0-.579.202-.579.574s.262.616.579.616ZM26.229,32.87c.271,0,.49-.166.49-.476,0-.186-.079-.501-.49-.501-.267,0-.5.181-.5.501,0,.315.233.476.5.476Z"/>
        <path d="M29.066,31.338h.729l1.392,2.478h.009v-2.478h.687v3.693h-.733l-1.387-2.473h-.009v2.473h-.687v-3.693Z"/>
        <path d="M33.098,31.944h-.663v-.605h.663v.605ZM32.435,32.357h.663v2.674h-.663v-2.674Z"/>
        <path d="M33.582,32.357h.631v.373h.014c.168-.3.458-.445.737-.445.705,0,.883.439.883,1.102v1.645h-.663v-1.51c0-.44-.116-.657-.425-.657-.359,0-.514.223-.514.766v1.402h-.663v-2.674Z"/>
        <path d="M37.152,32.357h.485v.491h-.485v1.324c0,.249.056.311.28.311.069,0,.135-.005.205-.021v.574c-.112.021-.257.026-.388.026-.406,0-.761-.104-.761-.636v-1.578h-.401v-.491h.401v-.802h.663v.802Z"/>
        <path d="M38.464,33.873c.019.465.224.678.593.678.266,0,.48-.181.522-.347h.584c-.187.631-.584.9-1.13.9-.761,0-1.232-.579-1.232-1.407,0-.802.499-1.412,1.232-1.412.821,0,1.219.766,1.172,1.588h-1.741ZM39.542,33.408c-.061-.373-.205-.569-.527-.569-.421,0-.542.362-.551.569h1.078Z"/>
        <path d="M40.558,32.357h.631v.373h.014c.168-.3.458-.445.737-.445.705,0,.883.439.883,1.102v1.645h-.663v-1.51c0-.44-.116-.657-.425-.657-.359,0-.514.223-.514.766v1.402h-.663v-2.674Z"/>
        <path d="M45.01,34.69h-.009c-.154.29-.425.414-.733.414-.729,0-1.083-.693-1.083-1.433,0-.719.359-1.386,1.069-1.386.285,0,.564.134.714.398h.01v-1.345h.663v3.693h-.631v-.341ZM44.432,32.838c-.435,0-.584.414-.584.854,0,.419.173.859.584.859.438,0,.569-.424.569-.864,0-.435-.141-.849-.569-.849Z"/>
        <path d="M47.273,32.285c.762,0,1.252.559,1.252,1.412,0,.848-.49,1.407-1.252,1.407-.756,0-1.246-.559-1.246-1.407,0-.854.49-1.412,1.246-1.412ZM47.273,34.551c.453,0,.589-.429.589-.854,0-.429-.136-.859-.589-.859-.448,0-.583.43-.583.859,0,.424.135.854.583.854Z"/>
        <path d="M51.427,31.338h1.503c.832,0,1.153.584,1.153,1.185s-.321,1.185-1.153,1.185h-.77v1.324h-.733v-3.693ZM52.16,33.077h.569c.341,0,.645-.083.645-.554s-.304-.554-.645-.554h-.569v1.107Z"/>
        <path d="M54.404,33.18c.037-.688.593-.895,1.134-.895.481,0,1.061.119,1.061.76v1.392c0,.243.023.486.084.595h-.673c-.023-.083-.042-.171-.047-.259-.21.243-.518.331-.812.331-.457,0-.821-.253-.821-.802,0-.605.411-.75.821-.812.406-.067.785-.052.785-.352,0-.316-.196-.362-.43-.362-.252,0-.416.114-.439.403h-.662ZM55.936,33.723c-.112.108-.346.114-.551.155-.206.046-.393.124-.393.393,0,.274.191.341.406.341.519,0,.537-.455.537-.616v-.274Z"/>
        <path d="M57.913,32.357h.485v.491h-.485v1.324c0,.249.056.311.28.311.069,0,.135-.005.205-.021v.574c-.112.021-.257.026-.388.026-.406,0-.761-.104-.761-.636v-1.578h-.401v-.491h.401v-.802h.663v.802Z"/>
        <path d="M59.225,33.873c.019.465.224.678.593.678.266,0,.48-.181.522-.347h.584c-.187.631-.584.9-1.13.9-.761,0-1.232-.579-1.232-1.407,0-.802.499-1.412,1.232-1.412.821,0,1.219.766,1.172,1.588h-1.741ZM60.303,33.408c-.061-.373-.205-.569-.527-.569-.421,0-.542.362-.551.569h1.078Z"/>
        <path d="M61.318,32.357h.631v.373h.014c.168-.3.458-.445.737-.445.705,0,.883.439.883,1.102v1.645h-.663v-1.51c0-.44-.116-.657-.425-.657-.359,0-.514.223-.514.766v1.402h-.663v-2.674Z"/>
        <path d="M64.889,32.357h.485v.491h-.485v1.324c0,.249.056.311.28.311.069,0,.135-.005.205-.021v.574c-.112.021-.257.026-.388.026-.406,0-.761-.104-.761-.636v-1.578h-.401v-.491h.401v-.802h.663v.802Z"/>
        <path d="M66.167,34.163c.005.321.248.45.509.45.191,0,.435-.083.435-.341,0-.223-.275-.3-.752-.414-.383-.093-.766-.243-.766-.714,0-.683.532-.858,1.051-.858.527,0,1.013.196,1.064.854h-.631c-.019-.285-.214-.362-.452-.362-.149,0-.369.031-.369.249,0,.264.373.3.752.398.388.099.766.253.766.75,0,.704-.551.931-1.102.931-.561,0-1.107-.232-1.135-.941h.63Z"/>
        <path d="M70.062,31.944h-.663v-.605h.663v.605ZM69.399,32.357h.663v2.674h-.663v-2.674Z"/>
        <path d="M71.038,34.163c.005.321.248.45.509.45.191,0,.435-.083.435-.341,0-.223-.275-.3-.752-.414-.383-.093-.766-.243-.766-.714,0-.683.532-.858,1.051-.858.527,0,1.013.196,1.064.854h-.631c-.019-.285-.214-.362-.452-.362-.149,0-.369.031-.369.249,0,.264.373.3.752.398.388.099.766.253.766.75,0,.704-.551.931-1.102.931-.561,0-1.107-.232-1.135-.941h.63Z"/>
        <path d="M73.482,34.163c.005.321.248.45.509.45.191,0,.435-.083.435-.341,0-.223-.275-.3-.752-.414-.383-.093-.766-.243-.766-.714,0-.683.532-.858,1.051-.858.527,0,1.013.196,1.064.854h-.631c-.019-.285-.214-.362-.452-.362-.149,0-.369.031-.369.249,0,.264.373.3.752.398.388.099.766.253.766.75,0,.704-.551.931-1.103.931-.56,0-1.106-.232-1.134-.941h.63Z"/>
        <path d="M77.679,35.032h-.63v-.373h-.015c-.168.3-.457.445-.737.445-.705,0-.883-.439-.883-1.102v-1.645h.663v1.51c0,.44.117.657.425.657.359,0,.514-.223.514-.766v-1.402h.663v2.674Z"/>
        <path d="M78.667,33.873c.019.465.224.678.593.678.266,0,.48-.181.522-.347h.584c-.187.631-.584.9-1.13.9-.761,0-1.232-.579-1.232-1.407,0-.802.499-1.412,1.232-1.412.821,0,1.219.766,1.172,1.588h-1.741ZM79.745,33.408c-.061-.373-.205-.569-.527-.569-.421,0-.542.362-.551.569h1.078Z"/>
        <path d="M82.461,34.69h-.009c-.154.29-.425.414-.733.414-.729,0-1.083-.693-1.083-1.433,0-.719.359-1.386,1.069-1.386.285,0,.564.134.714.398h.01v-1.345h.663v3.693h-.631v-.341ZM81.883,32.838c-.435,0-.584.414-.584.854,0,.419.173.859.584.859.438,0,.569-.424.569-.864,0-.435-.141-.849-.569-.849Z"/>
        <path d="M84.736,33.18c.038-.688.594-.895,1.135-.895.481,0,1.061.119,1.061.76v1.392c0,.243.023.486.084.595h-.673c-.023-.083-.042-.171-.047-.259-.21.243-.518.331-.812.331-.458,0-.822-.253-.822-.802,0-.605.411-.75.822-.812.405-.067.784-.052.784-.352,0-.316-.196-.362-.43-.362-.252,0-.416.114-.439.403h-.663ZM86.269,33.723c-.112.108-.346.114-.551.155-.206.046-.393.124-.393.393,0,.274.191.341.406.341.519,0,.537-.455.537-.616v-.274Z"/>
        <path d="M87.383,32.357h.631v.373h.014c.168-.3.458-.445.737-.445.705,0,.883.439.883,1.102v1.645h-.663v-1.51c0-.44-.116-.657-.425-.657-.359,0-.514.223-.514.766v1.402h-.663v-2.674Z"/>
        <path d="M91.812,34.69h-.009c-.154.29-.425.414-.733.414-.729,0-1.083-.693-1.083-1.433,0-.719.359-1.386,1.069-1.386.285,0,.564.134.714.398h.01v-1.345h.663v3.693h-.631v-.341ZM91.233,32.838c-.435,0-.584.414-.584.854,0,.419.173.859.584.859.438,0,.569-.424.569-.864,0-.435-.141-.849-.569-.849Z"/>
        <path d="M94.186,31.338h1.503c.832,0,1.153.584,1.153,1.185s-.321,1.185-1.153,1.185h-.77v1.324h-.733v-3.693ZM94.919,33.077h.569c.341,0,.645-.083.645-.554s-.304-.554-.645-.554h-.569v1.107Z"/>
        <path d="M97.714,33.873c.019.465.224.678.593.678.266,0,.48-.181.522-.347h.584c-.187.631-.584.9-1.13.9-.761,0-1.232-.579-1.232-1.407,0-.802.499-1.412,1.232-1.412.821,0,1.219.766,1.172,1.588h-1.741ZM98.792,33.408c-.061-.373-.205-.569-.527-.569-.421,0-.542.362-.551.569h1.078Z"/>
        <path d="M99.784,32.357h.631v.373h.014c.168-.3.458-.445.737-.445.705,0,.883.439.883,1.102v1.645h-.663v-1.51c0-.44-.116-.657-.425-.657-.359,0-.514.223-.514.766v1.402h-.663v-2.674Z"/>
        <path d="M104.214,34.69h-.009c-.154.29-.425.414-.733.414-.729,0-1.083-.693-1.083-1.433,0-.719.359-1.386,1.069-1.386.285,0,.564.134.714.398h.01v-1.345h.663v3.693h-.631v-.341ZM103.636,32.838c-.435,0-.584.414-.584.854,0,.419.173.859.584.859.438,0,.569-.424.569-.864,0-.435-.141-.849-.569-.849Z"/>
        <path d="M105.963,31.944h-.663v-.605h.663v.605ZM105.3,32.357h.663v2.674h-.663v-2.674Z"/>
        <path d="M106.424,32.357h.631v.373h.014c.168-.3.458-.445.737-.445.705,0,.883.439.883,1.102v1.645h-.663v-1.51c0-.44-.116-.657-.425-.657-.359,0-.514.223-.514.766v1.402h-.663v-2.674Z"/>
        <path d="M111.451,34.861c0,.44-.14,1.184-1.251,1.184-.477,0-1.032-.248-1.064-.858h.658c.061.274.262.367.495.367.369,0,.537-.279.532-.662v-.352h-.01c-.145.279-.434.414-.724.414-.724,0-1.031-.61-1.031-1.345,0-.693.359-1.324,1.036-1.324.317,0,.561.119.719.429h.01v-.357h.63v2.503ZM110.821,33.661c0-.435-.136-.823-.565-.823-.373,0-.536.362-.536.761,0,.382.13.802.536.802.379,0,.565-.357.565-.74Z"/>
        <path d="M111.954,34.235h.732v.796c0,.476-.326.792-.729.859v-.373c.196-.036.341-.259.332-.486h-.336v-.796Z"/>
        <path d="M114.963,33.806c0,.492.346.683.738.683.257,0,.649-.083.649-.46,0-.398-.5-.466-.99-.61-.495-.145-.995-.357-.995-1.05,0-.755.645-1.117,1.247-1.117.696,0,1.336.336,1.336,1.19h-.71c-.023-.445-.309-.559-.658-.559-.233,0-.505.109-.505.419,0,.285.159.321.995.559.242.067.989.238.989,1.076,0,.678-.48,1.185-1.387,1.185-.737,0-1.429-.403-1.419-1.314h.709Z"/>
        <path d="M117.908,33.873c.019.465.224.678.593.678.266,0,.48-.181.522-.347h.584c-.187.631-.584.9-1.13.9-.761,0-1.232-.579-1.232-1.407,0-.802.499-1.412,1.232-1.412.821,0,1.219.766,1.172,1.588h-1.741ZM118.986,33.408c-.061-.373-.205-.569-.527-.569-.421,0-.542.362-.551.569h1.078Z"/>
        <path d="M120.525,33.873c.019.465.224.678.593.678.266,0,.48-.181.522-.347h.584c-.187.631-.584.9-1.13.9-.761,0-1.232-.579-1.232-1.407,0-.802.499-1.412,1.232-1.412.821,0,1.219.766,1.172,1.588h-1.741ZM121.604,33.408c-.061-.373-.205-.569-.527-.569-.421,0-.542.362-.551.569h1.078Z"/>
        <path d="M123.833,31.338h.663v1.345h.01c.163-.274.462-.398.761-.398.481,0,.999.429.999,1.407,0,.983-.518,1.412-.999,1.412-.354,0-.649-.119-.794-.414h-.009v.341h-.631v-3.693ZM125.038,32.838c-.393,0-.565.409-.565.859,0,.445.173.854.565.854s.564-.409.564-.854c0-.45-.173-.859-.564-.859Z"/>
        <path d="M127.795,32.285c.762,0,1.252.559,1.252,1.412,0,.848-.49,1.407-1.252,1.407-.756,0-1.246-.559-1.246-1.407,0-.854.49-1.412,1.246-1.412ZM127.795,34.551c.453,0,.589-.429.589-.854,0-.429-.136-.859-.589-.859-.448,0-.583.43-.583.859,0,.424.135.854.583.854Z"/>
        <path d="M130.586,32.285c.762,0,1.252.559,1.252,1.412,0,.848-.49,1.407-1.252,1.407-.756,0-1.246-.559-1.246-1.407,0-.854.49-1.412,1.246-1.412ZM130.586,34.551c.453,0,.589-.429.589-.854,0-.429-.136-.859-.589-.859-.448,0-.583.43-.583.859,0,.424.135.854.583.854Z"/>
        <path d="M132.265,31.338h.663v1.981l.836-.962h.784l-.91.983,1.014,1.691h-.804l-.663-1.195-.257.274v.921h-.663v-3.693Z"/>
        <path d="M134.84,31.338h.663v3.693h-.663v-3.693Z"/>
        <path d="M136.512,33.873c.019.465.224.678.593.678.266,0,.48-.181.522-.347h.584c-.187.631-.584.9-1.13.9-.761,0-1.232-.579-1.232-1.407,0-.802.499-1.412,1.232-1.412.821,0,1.219.766,1.172,1.588h-1.741ZM137.59,33.408c-.061-.373-.205-.569-.527-.569-.421,0-.542.362-.551.569h1.078Z"/>
        <path d="M139.423,32.357h.485v.491h-.485v1.324c0,.249.056.311.28.311.069,0,.135-.005.205-.021v.574c-.112.021-.257.026-.388.026-.406,0-.761-.104-.761-.636v-1.578h-.401v-.491h.401v-.802h.663v.802Z"/>
        <path d="M140.473,34.312c.196,0,.354.176.354.394s-.158.393-.354.393-.355-.176-.355-.393.159-.394.355-.394Z"/>
      </g>
      <g>
        <path d="M8.159,31.265c1.046,0,1.897.851,1.897,1.896s-.851,1.896-1.897,1.896-1.897-.851-1.897-1.896.851-1.896,1.897-1.896M8.159,30.992c-1.199,0-2.17.971-2.17,2.169s.972,2.169,2.17,2.169,2.17-.971,2.17-2.169-.972-2.169-2.17-2.169h0Z"/>
        <path d="M8.844,32.71c-.073-.285-.257-.493-.618-.493-.532,0-.754.469-.754.945s.222.945.754.945c.385,0,.598-.288.632-.65h.424c-.035.594-.455,1.004-1.056,1.004-.744,0-1.189-.591-1.189-1.3s.445-1.299,1.189-1.299c.559.003,1.001.312,1.053.848h-.434Z"/>
      </g>
      <g>
        <path d="M13.178,31.265c1.046,0,1.897.851,1.897,1.897s-.851,1.897-1.897,1.897-1.897-.851-1.897-1.897.851-1.897,1.897-1.897M13.178,30.991c-1.199,0-2.17.972-2.17,2.17s.972,2.17,2.17,2.17,2.17-.972,2.17-2.17-.972-2.17-2.17-2.17h0Z"/>
        <path d="M11.927,31.956h.595l.665,1.888h.006l.648-1.888h.588v2.411h-.402v-1.861h-.007l-.668,1.861h-.348l-.669-1.861h-.007v1.861h-.402v-2.411Z"/>
      </g>
      <g>
        <path d="M6.188,18.558h1.798c.598,0,.976.46.976,1.019,0,.435-.159.76-.527.926v.011c.359.103.462.491.485.864.014.232.009.667.14.874h-.732c-.089-.233-.08-.59-.117-.885-.051-.388-.187-.559-.556-.559h-.732v1.443h-.733v-3.693ZM6.922,20.229h.803c.327,0,.504-.155.504-.528,0-.357-.177-.512-.504-.512h-.803v1.04Z"/>
        <path d="M10.468,18.558h.752l1.247,3.693h-.762l-.252-.822h-1.247l-.261.822h-.742l1.265-3.693ZM10.398,20.823h.863l-.42-1.355h-.01l-.434,1.355Z"/>
        <path d="M13.146,19.24h-.999v-.683h2.731v.683h-.999v3.011h-.733v-3.011Z"/>
        <path d="M15.259,18.558h.733v3.693h-.733v-3.693Z"/>
        <path d="M16.636,18.558h.729l1.392,2.478h.009v-2.478h.687v3.693h-.733l-1.387-2.473h-.009v2.473h-.687v-3.693Z"/>
        <path d="M22.503,21.832c-.257.367-.593.507-.915.507-1.032,0-1.639-.854-1.639-1.919,0-1.097.606-1.95,1.639-1.95.682,0,1.326.465,1.405,1.304h-.7c-.084-.409-.359-.621-.705-.621-.658,0-.906.621-.906,1.268,0,.615.248,1.236.906,1.236.477,0,.752-.285.794-.797h-.738v-.605h1.401v1.997h-.467l-.075-.419Z"/>
        <path d="M33.374,18.558h1.438c.863,0,1.513.6,1.513,1.826,0,1.071-.495,1.867-1.513,1.867h-1.438v-3.693ZM34.107,21.568h.653c.425,0,.831-.29.831-1.107,0-.745-.233-1.221-.962-1.221h-.522v2.328Z"/>
        <path d="M39.055,19.799c-.047-.368-.364-.647-.729-.647-.658,0-.906.621-.906,1.268,0,.615.248,1.236.906,1.236.448,0,.7-.341.756-.828h.71c-.074.92-.648,1.51-1.466,1.51-1.032,0-1.639-.854-1.639-1.919,0-1.097.606-1.95,1.639-1.95.733,0,1.35.476,1.438,1.33h-.71Z"/>
        <path d="M41.031,20.094c.285.026.696-.036.696-.45,0-.305-.22-.481-.463-.481-.331,0-.509.274-.504.646h-.631c.023-.74.458-1.252,1.13-1.252.523,0,1.098.357,1.098,1.003,0,.341-.154.646-.458.74v.01c.36.088.579.419.579.823,0,.76-.574,1.189-1.214,1.189-.732,0-1.228-.486-1.214-1.319h.631c.014.393.191.714.574.714.299,0,.532-.228.532-.569,0-.548-.435-.538-.757-.538v-.518Z"/>
        <path d="M44.434,22.251h-.826l-1.083-3.693h.756l.743,2.597h.009l.752-2.597h.756l-1.106,3.693Z"/>
        <path d="M49.389,18.558c.654,0,1.205.455,1.205,1.867,0,1.443-.551,1.898-1.205,1.898-.644,0-1.195-.455-1.195-1.898,0-1.412.552-1.867,1.195-1.867ZM49.389,21.718c.542,0,.542-.885.542-1.293,0-.377,0-1.262-.542-1.262-.532,0-.532.884-.532,1.262,0,.409,0,1.293.532,1.293Z"/>
        <path d="M50.877,21.455h.733v.796h-.733v-.796Z"/>
        <path d="M53.611,19.561c-.042-.243-.21-.45-.438-.45-.481,0-.607.698-.626,1.102l.01.01c.182-.284.42-.403.737-.403.28,0,.565.145.752.373.173.222.252.522.252.807,0,.74-.462,1.324-1.144,1.324-.99,0-1.257-.957-1.257-1.873,0-.884.355-1.893,1.284-1.893.565,0,.985.367,1.061,1.003h-.631ZM52.607,21.046c0,.336.196.672.527.672.318,0,.5-.336.5-.662,0-.341-.159-.683-.5-.683-.354,0-.527.316-.527.673Z"/>
        <path d="M57.798,22.251h-.729l-.564-2.514h-.01l-.556,2.514h-.742l-.883-3.693h.733l.527,2.514h.01l.579-2.514h.687l.569,2.545h.009l.547-2.545h.719l-.896,3.693Z"/>
        <path d="M6.188,25.058h1.568c.636,0,1.065.228,1.065.916,0,.362-.164.616-.453.771.406.129.611.476.611.936,0,.75-.574,1.071-1.177,1.071h-1.615v-3.693ZM6.922,26.553h.742c.257,0,.448-.129.448-.44,0-.352-.243-.424-.505-.424h-.686v.864ZM6.922,28.12h.784c.289,0,.541-.104.541-.486,0-.378-.215-.528-.527-.528h-.798v1.014Z"/>
        <path d="M10.384,25.058h.752l1.247,3.693h-.762l-.252-.822h-1.247l-.261.822h-.742l1.265-3.693ZM10.314,27.323h.863l-.42-1.355h-.01l-.434,1.355Z"/>
        <path d="M13.062,25.74h-.999v-.683h2.731v.683h-.999v3.011h-.733v-3.011Z"/>
        <path d="M15.913,25.74h-.999v-.683h2.731v.683h-.999v3.011h-.733v-3.011Z"/>
        <path d="M18.026,25.058h2.493v.683h-1.76v.792h1.615v.631h-1.615v.905h1.797v.683h-2.53v-3.693Z"/>
        <path d="M21.05,25.058h1.798c.598,0,.976.46.976,1.019,0,.435-.159.76-.527.926v.011c.359.103.462.491.485.864.014.232.009.667.14.874h-.732c-.089-.233-.08-.59-.117-.885-.051-.388-.187-.559-.556-.559h-.732v1.443h-.733v-3.693ZM21.783,26.729h.803c.327,0,.504-.155.504-.528,0-.357-.177-.512-.504-.512h-.803v1.04Z"/>
        <path d="M25.109,27.313l-1.228-2.255h.826l.78,1.458.774-1.458h.817l-1.237,2.276v1.417h-.733v-1.438Z"/>
        <path d="M33.406,25.058h.733v3.011h1.624v.683h-2.357v-3.693Z"/>
        <path d="M36.141,25.058h1.798c.598,0,.976.46.976,1.019,0,.435-.159.76-.527.926v.011c.359.103.462.491.485.864.014.232.01.667.14.874h-.732c-.089-.233-.08-.59-.117-.885-.051-.388-.187-.559-.556-.559h-.732v1.443h-.733v-3.693ZM36.874,26.729h.803c.327,0,.504-.155.504-.528,0-.357-.177-.512-.504-.512h-.803v1.04Z"/>
        <path d="M40.966,26.061c-.042-.243-.21-.45-.438-.45-.481,0-.607.698-.626,1.102l.01.01c.182-.284.42-.403.737-.403.28,0,.565.145.752.373.173.222.252.522.252.807,0,.74-.462,1.324-1.144,1.324-.99,0-1.257-.957-1.257-1.873,0-.884.355-1.893,1.284-1.893.565,0,.985.367,1.061,1.003h-.631ZM39.962,27.546c0,.336.196.672.527.672.318,0,.5-.336.5-.662,0-.341-.159-.683-.5-.683-.354,0-.527.316-.527.673Z"/>
        <path d="M44.396,24.97c-.346.729-.509,1.542-.509,2.343,0,.817.158,1.635.504,2.379h-.551c-.383-.704-.616-1.521-.616-2.328,0-.771.205-1.738.616-2.395h.556Z"/>
        <path d="M45.562,25.058h.752l1.247,3.693h-.762l-.252-.822h-1.247l-.261.822h-.742l1.265-3.693ZM45.492,27.323h.863l-.42-1.355h-.01l-.434,1.355Z"/>
        <path d="M48.725,25.058h.752l1.247,3.693h-.762l-.252-.822h-1.246l-.262.822h-.742l1.265-3.693ZM48.655,27.323h.863l-.42-1.355h-.01l-.434,1.355Z"/>
        <path d="M50.624,29.692c.345-.724.509-1.536.509-2.338,0-.817-.159-1.635-.505-2.385h.551c.384.708.617,1.526.617,2.333,0,.771-.206,1.738-.617,2.39h-.555Z"/>
        <path d="M52.873,27.344l-.794-1.268h.757l.425.698.42-.698h.733l-.794,1.252.893,1.422h-.757l-.504-.843-.505.843h-.742l.868-1.407Z"/>
        <path d="M54.65,26.521c-.023-.828.401-1.464,1.186-1.464.598,0,1.121.424,1.121,1.133,0,.543-.262.843-.584,1.097s-.705.46-.943.833h1.546v.631h-2.4c.005-.838.468-1.195,1.032-1.619.29-.217.682-.439.687-.884,0-.342-.205-.559-.49-.559-.393,0-.519.45-.519.833h-.635Z"/>
        <path d="M60.844,26.004c.762,0,1.252.559,1.252,1.412,0,.848-.49,1.407-1.252,1.407-.756,0-1.246-.559-1.246-1.407,0-.854.49-1.412,1.246-1.412ZM60.844,28.27c.453,0,.589-.43.589-.854,0-.429-.136-.859-.589-.859-.448,0-.583.43-.583.859,0,.424.135.854.583.854Z"/>
        <path d="M62.49,26.077h.631v.497h.009c.122-.336.448-.569.771-.569.047,0,.103.01.145.026v.683c-.061-.016-.158-.026-.237-.026-.486,0-.654.388-.654.859v1.205h-.663v-2.674Z"/>
        <path d="M67.633,25.058h.752l1.247,3.693h-.762l-.252-.822h-1.246l-.262.822h-.742l1.265-3.693ZM67.563,27.323h.863l-.42-1.355h-.01l-.434,1.355Z"/>
        <path d="M69.887,25.058h1.438c.863,0,1.513.6,1.513,1.826,0,1.071-.495,1.867-1.513,1.867h-1.438v-3.693ZM70.62,28.068h.653c.425,0,.831-.29.831-1.107,0-.745-.233-1.221-.962-1.221h-.522v2.328Z"/>
        <path d="M74.222,25.058h.752l1.247,3.693h-.762l-.252-.822h-1.247l-.261.822h-.742l1.265-3.693ZM74.152,27.323h.863l-.42-1.355h-.01l-.434,1.355Z"/>
        <path d="M76.476,25.058h1.503c.832,0,1.153.584,1.153,1.185s-.321,1.185-1.153,1.185h-.77v1.324h-.733v-3.693ZM77.209,26.796h.569c.341,0,.645-.083.645-.554s-.304-.553-.645-.553h-.569v1.107Z"/>
        <path d="M80.292,25.74h-.999v-.683h2.731v.683h-.999v3.011h-.733v-3.011Z"/>
        <path d="M82.373,25.058h2.493v.683h-1.76v.792h1.615v.631h-1.615v.905h1.797v.683h-2.53v-3.693Z"/>
        <path d="M85.364,25.058h1.798c.598,0,.976.46.976,1.019,0,.435-.159.76-.527.926v.011c.359.103.462.491.485.864.014.232.009.667.14.874h-.732c-.089-.233-.08-.59-.117-.885-.051-.388-.187-.559-.556-.559h-.732v1.443h-.733v-3.693ZM86.098,26.729h.803c.327,0,.504-.155.504-.528,0-.357-.177-.512-.504-.512h-.803v1.04Z"/>
        <path d="M89.965,25.058h.733v3.693h-.733v-3.693Z"/>
        <path d="M91.309,25.058h.729l1.392,2.478h.009v-2.478h.687v3.693h-.733l-1.387-2.473h-.009v2.473h-.687v-3.693Z"/>
        <path d="M94.733,25.058h1.503c.832,0,1.153.584,1.153,1.185s-.321,1.185-1.153,1.185h-.77v1.324h-.733v-3.693ZM95.467,26.796h.569c.341,0,.645-.083.645-.554s-.304-.553-.645-.553h-.569v1.107Z"/>
        <path d="M100.642,27.354c0,.998-.532,1.484-1.424,1.484-.896,0-1.419-.481-1.419-1.484v-2.297h.732v2.297c0,.403.094.802.687.802.523,0,.691-.253.691-.802v-2.297h.732v2.297Z"/>
        <path d="M101.975,25.74h-.999v-.683h2.731v.683h-.999v3.011h-.733v-3.011Z"/>
        <path d="M109.945,25.058h1.438c.863,0,1.513.6,1.513,1.826,0,1.071-.495,1.867-1.513,1.867h-1.438v-3.693ZM110.679,28.068h.653c.425,0,.831-.29.831-1.107,0-.745-.233-1.221-.962-1.221h-.522v2.328Z"/>
        <path d="M115.594,26.299c-.047-.368-.364-.647-.729-.647-.658,0-.906.621-.906,1.268,0,.615.248,1.236.906,1.236.448,0,.7-.341.756-.828h.71c-.074.92-.648,1.51-1.466,1.51-1.032,0-1.639-.854-1.639-1.919,0-1.097.606-1.95,1.639-1.95.733,0,1.35.476,1.438,1.33h-.71Z"/>
        <path d="M117.538,26.594c.285.026.696-.036.696-.45,0-.305-.22-.481-.463-.481-.331,0-.509.274-.504.646h-.631c.023-.74.458-1.252,1.13-1.252.523,0,1.098.357,1.098,1.003,0,.341-.154.646-.458.74v.01c.36.088.579.419.579.823,0,.76-.574,1.189-1.214,1.189-.732,0-1.228-.486-1.214-1.319h.631c.014.393.191.714.574.714.299,0,.532-.228.532-.569,0-.548-.435-.538-.757-.538v-.518Z"/>
        <path d="M120.907,28.751h-.826l-1.083-3.693h.756l.743,2.597h.009l.752-2.597h.756l-1.106,3.693Z"/>
        <path d="M121.929,28.032c.196,0,.354.176.354.394s-.158.393-.354.393-.355-.176-.355-.393.159-.394.355-.394Z"/>
        <path d="M126.048,26.594c.285.026.696-.036.696-.45,0-.305-.22-.481-.463-.481-.331,0-.509.274-.504.646h-.631c.023-.74.458-1.252,1.13-1.252.523,0,1.098.357,1.098,1.003,0,.341-.154.646-.458.74v.01c.36.088.579.419.579.823,0,.76-.574,1.189-1.214,1.189-.732,0-1.228-.486-1.214-1.319h.631c.014.393.191.714.574.714.299,0,.532-.228.532-.569,0-.548-.435-.538-.757-.538v-.518Z"/>
        <path d="M128.838,25.058c.654,0,1.205.455,1.205,1.867,0,1.443-.551,1.898-1.205,1.898-.644,0-1.195-.455-1.195-1.898,0-1.412.552-1.867,1.195-1.867ZM128.838,28.218c.542,0,.542-.885.542-1.293,0-.377,0-1.262-.542-1.262-.532,0-.532.884-.532,1.262,0,.409,0,1.293.532,1.293Z"/>
        <path d="M131.399,25.058c.654,0,1.205.455,1.205,1.867,0,1.443-.551,1.898-1.205,1.898-.644,0-1.195-.455-1.195-1.898,0-1.412.552-1.867,1.195-1.867ZM131.399,28.218c.542,0,.542-.885.542-1.293,0-.377,0-1.262-.542-1.262-.532,0-.532.884-.532,1.262,0,.409,0,1.293.532,1.293Z"/>
        <path d="M132.938,26.077h.626v.362h.01c.172-.274.425-.435.737-.435.304,0,.574.124.705.445.14-.233.393-.445.729-.445.514,0,.883.264.883.957v1.79h-.663v-1.516c0-.357-.028-.652-.406-.652-.374,0-.444.341-.444.678v1.49h-.663v-1.5c0-.311.02-.667-.401-.667-.131,0-.448.093-.448.616v1.552h-.663v-2.674Z"/>
        <path d="M138.096,25.058h.752l1.247,3.693h-.762l-.252-.822h-1.246l-.262.822h-.742l1.265-3.693ZM138.026,27.323h.863l-.42-1.355h-.01l-.434,1.355Z"/>
        <path d="M140.587,28.032c.196,0,.354.176.354.394s-.158.393-.354.393-.355-.176-.355-.393.159-.394.355-.394Z"/>
      </g>
      <g>
        <circle cx="30.123" cy="20.227" r=".511"/>
        <circle cx="30.123" cy="22.075" r=".511"/>
      </g>
      <g>
        <circle cx="29.873" cy="26.541" r=".511"/>
        <circle cx="29.873" cy="28.389" r=".511"/>
      </g>
      <circle cx="106.522" cy="26.541" r=".511"/>
      <circle cx="106.522" cy="28.389" r=".511"/>
    </g>
    <g>
      <g>
        <path d="M13.674,54.534v2.105h0c-.23.023-.465.035-.703.035-3.914,0-7.106-3.192-7.106-7.103s3.192-7.103,7.106-7.103c.238,0,.473.013.703.035h0v2.105h0c-.23-.033-.465-.051-.703-.051-2.762,0-5.016,2.254-5.016,5.013s2.254,5.013,5.016,5.013c.238,0,.473-.018.703-.051h0Z" fill-rule="evenodd"/>
        <path d="M20.285,48.487h4.104v2.171h-4.104c.498,2.241,2.504,3.927,4.895,3.927.238,0,.475-.018.705-.051h0v2.105h0c-.232.023-.467.035-.705.035-3.914,0-7.103-3.192-7.103-7.103s3.189-7.103,7.103-7.103c.238,0,.473.013.705.035h0v2.105h0c-.232-.033-.467-.051-.705-.051-2.391,0-4.397,1.685-4.895,3.929h0Z" fill-rule="evenodd"/>
      </g>
      <g>
        <g>
          <path d="M65.598,55.416c0,.232.135.343.401.343.184,0,.393-.088.393-.318,0-.173-.107-.231-.258-.27-.066-.016-.229-.04-.229-.136,0-.089.088-.12.169-.12.099,0,.177.038.173.146h.201c0-.223-.165-.31-.362-.31-.186,0-.382.085-.382.299,0,.166.121.221.243.259.12.036.244.055.244.15,0,.096-.098.136-.183.136-.121,0-.214-.042-.208-.178h-.201ZM66.45,55.736h.193l.148-.697h-.193l-.148.697ZM66.848,54.773h-.193l-.035.158h.193l.035-.158ZM67.536,55.28c-.004-.185-.143-.26-.313-.26-.251,0-.394.198-.394.436,0,.204.116.3.31.3.181,0,.302-.1.36-.274h-.192c-.022.069-.07.13-.155.13-.097,0-.132-.067-.132-.151,0-.12.05-.295.196-.295.084,0,.128.034.128.116h.192ZM67.55,55.736h.192l.078-.371c.02-.097.08-.194.196-.194.045,0,.092.03.092.072,0,.019-.007.065-.012.085l-.085.409h.192l.086-.409c.005-.024.02-.092.02-.12,0-.121-.072-.188-.204-.188-.125,0-.201.059-.231.1h-.003l.072-.347h-.192l-.201.963ZM69.103,55.434c.007-.034.011-.071.011-.109,0-.202-.131-.305-.325-.305-.237,0-.384.208-.384.43,0,.198.124.305.31.305.201,0,.301-.084.362-.24h-.192c-.028.044-.066.096-.143.096-.104,0-.154-.055-.154-.136,0-.011,0-.023.001-.04h.514ZM68.61,55.312c.028-.078.082-.148.19-.148.112,0,.13.077.13.148h-.32ZM69.15,55.736h.192l.065-.309c.026-.119.078-.229.225-.229.027,0,.054.007.081.012l.039-.186c-.02-.003-.039-.004-.059-.004-.103,0-.197.051-.24.147l-.003-.003.028-.125h-.182l-.146.697ZM69.675,55.736h.192l.078-.371c.02-.097.08-.194.196-.194.045,0,.092.03.092.072,0,.019-.007.065-.012.085l-.085.409h.192l.086-.409c.005-.024.02-.092.02-.12,0-.121-.072-.188-.204-.188-.125,0-.201.059-.231.1h-.003l.072-.347h-.192l-.201.963ZM71.228,55.434c.007-.034.011-.071.011-.109,0-.202-.131-.305-.325-.305-.237,0-.384.208-.384.43,0,.198.124.305.31.305.201,0,.301-.084.362-.24h-.192c-.028.044-.066.096-.143.096-.104,0-.154-.055-.154-.136,0-.011,0-.023.001-.04h.514ZM70.735,55.312c.028-.078.082-.148.19-.148.112,0,.13.077.13.148h-.32ZM71.275,55.736h.193l.148-.697h-.193l-.148.697ZM71.673,54.773h-.193l-.035.158h.193l.035-.158ZM72.059,54.827h-.192l-.043.212h-.123l-.03.128h.125l-.078.374c-.005.024-.009.049-.009.066-.003.113.093.142.182.142.04,0,.081-.003.12-.007l.032-.148c-.023.003-.046.004-.069.004-.028,0-.065-.001-.065-.051,0-.005.003-.018.005-.032l.072-.347h.136l.03-.128h-.138l.043-.212ZM66.001,53.813c.093,0,.138.063.138.151,0,.119-.066.266-.204.266-.089,0-.13-.071-.13-.154,0-.112.067-.263.196-.263ZM66.387,53.687h-.183l-.022.107h-.003c-.039-.092-.117-.125-.213-.125-.224,0-.352.217-.352.421,0,.171.103.285.268.285.078,0,.142-.032.192-.098l.003.003c-.038.136-.073.243-.194.243-.062,0-.128-.03-.125-.1h-.192c0,.167.156.228.298.228.231,0,.337-.089.384-.301l.139-.661ZM67.128,54.083c.007-.034.011-.071.011-.109,0-.202-.131-.305-.325-.305-.237,0-.384.208-.384.43,0,.198.124.305.31.305.201,0,.301-.084.362-.24h-.192c-.028.045-.066.096-.143.096-.104,0-.154-.055-.154-.136,0-.011,0-.023.001-.04h.514ZM66.634,53.961c.028-.078.082-.148.19-.148.112,0,.13.077.13.148h-.32ZM67.627,53.813c.09,0,.136.071.136.155,0,.123-.065.291-.209.291-.093,0-.138-.062-.138-.151,0-.12.067-.295.21-.295ZM67.111,54.631h.192l.073-.339h.004c.03.077.115.112.196.112.258,0,.379-.231.379-.46,0-.167-.097-.275-.264-.275-.085,0-.166.032-.209.108l-.003-.003.019-.086h-.185l-.201.943ZM68,54.385h.192l.065-.309c.026-.119.078-.229.225-.229.027,0,.054.007.081.012l.039-.186c-.02-.003-.039-.004-.059-.004-.103,0-.197.051-.24.147l-.003-.003.028-.125h-.182l-.146.697ZM69.083,53.58h.177l.032-.158h-.177l-.032.158ZM68.819,53.58h.177l.032-.158h-.177l-.032.158ZM69.331,53.687h-.192l-.078.371c-.02.097-.08.194-.196.194-.045,0-.092-.03-.092-.071,0-.019.007-.065.012-.085l.085-.409h-.192l-.086.409c-.005.024-.02.092-.02.12,0,.121.071.187.204.187.1,0,.182-.039.244-.116h.003l-.022.097h.183l.146-.697ZM69.389,54.385h.192l.12-.569h.138l.027-.128h-.136c.02-.081.019-.13.113-.13.02,0,.042.003.062.004l.03-.138c-.042-.007-.084-.011-.125-.011-.201,0-.233.096-.271.274h-.115l-.027.128h.113l-.12.569ZM70.259,53.476h-.192l-.043.212h-.123l-.03.128h.125l-.078.374c-.005.024-.009.049-.009.066-.003.113.093.142.182.142.041,0,.081-.003.12-.007l.032-.148c-.023.003-.046.004-.069.004-.028,0-.065-.001-.065-.051,0-.005.003-.018.005-.032l.072-.347h.136l.03-.128h-.138l.043-.212ZM71.053,54.083c.007-.034.011-.071.011-.109,0-.202-.131-.305-.325-.305-.237,0-.384.208-.384.43,0,.198.124.305.31.305.201,0,.301-.084.362-.24h-.192c-.028.045-.066.096-.143.096-.104,0-.154-.055-.154-.136,0-.011,0-.023.001-.04h.514ZM70.559,53.961c.028-.078.082-.148.19-.148.112,0,.13.077.13.148h-.32ZM61.748,56.323h0c-.347-.026-.684-.089-1.006-.185-.322-.096-.63-.225-.921-.383-1.492-.813-2.504-2.395-2.504-4.213h0s0,0,0,0c0-.354.038-.699.111-1.03.073-.332.18-.651.317-.953.707-1.554,2.219-2.664,4.003-2.797h0s.164-.013.164-.013h3.175s.028,0,.028,0l.003.028h0c.009.08.021.159.036.238.015.078.033.156.054.233.106.394.286.764.516,1.081l.006.008v1.228h-3.522s0,0,0,0h0c-.559,0-1.065.228-1.431.596-.366.368-.593.877-.593,1.438h0s0,0,0,0c0,.562.227,1.07.593,1.438.366.368.872.596,1.431.596h0s0,0,0,0h.229v-.557h-.132c-.387,0-.738-.157-.991-.411-.254-.254-.41-.604-.41-.991h0s0,0,0,0c0-.388.174-.738.444-.992.27-.253.636-.41,1.023-.41h0s0,0,0,0h2.935v6.066h-.032s-3.393,0-3.393,0h-.003s-.131-.014-.131-.014h0ZM68.634,46.638h0s0,0,0,0h0s2.677.01,2.677.01h.003c1.183.108,2.181.846,2.648,1.878.091.201.161.413.209.633.048.22.073.45.073.685h0c0,1.212-.667,2.267-1.654,2.82-.192.107-.396.196-.609.263-.213.067-.436.112-.667.133h0s-.003,0-.003,0l-5.71.013h-.032s0-.031,0-.031v-2.772s.032,0,.032,0h5.415c.099,0,.189-.04.254-.104.065-.064.105-.153.105-.25h0s0,0,0,0c0-.096-.056-.187-.136-.254-.082-.068-.189-.111-.289-.112h0s0,0,0,0h-3.265s-.032-.003-.032-.003l-.007-.002c-.857-.284-1.558-.91-1.943-1.716-.075-.156-.138-.32-.187-.49-.087-.297-.134-.611-.134-.937h0s0,0,0,0c0-.914.37-1.741.968-2.34.594-.594,1.412-.964,2.317-.969h0s.021,0,.021,0h0s0,0,0,0h0s2.361,0,2.361,0h.032v2.836h-2.446c-.099,0-.189.04-.254.104-.065.064-.105.153-.105.25h0s0,0,0,0c0,.098.04.186.105.25.065.064.155.104.255.104h0Z" fill-rule="evenodd"/>
        </g>
        <g>
          <path d="M69.559,42.668c2.905,0,5.269,2.364,5.269,5.269v3.704c0,2.905-2.364,5.269-5.269,5.269h-7.523c-2.905,0-5.269-2.364-5.269-5.269v-8.973h12.792M69.559,42.468h-12.992v9.173c0,3.021,2.449,5.469,5.469,5.469h7.523c3.021,0,5.469-2.449,5.469-5.469v-3.704c0-3.021-2.449-5.469-5.469-5.469h0Z"/>
          <path d="M69.559,42.668c2.905,0,5.269,2.364,5.269,5.269v3.704c0,2.905-2.364,5.269-5.269,5.269h-34.616c-2.905,0-5.269-2.364-5.269-5.269v-3.704c0-2.905,2.364-5.269,5.269-5.269h34.616M69.559,42.468h-34.616c-3.021,0-5.469,2.449-5.469,5.469v3.704c0,3.021,2.449,5.469,5.469,5.469h34.616c3.021,0,5.469-2.449,5.469-5.469v-3.704c0-3.021-2.449-5.469-5.469-5.469h0Z"/>
        </g>
        <g>
          <g>
            <path d="M31.804,52.041h.808v-.098h-.69v-1.069h-.118v1.166"/>
          </g>
          <g>
            <path d="M32.859,51.457c.005-.146.105-.194.239-.194.128,0,.233.024.233.17,0,.098-.051.11-.14.11-.234.036-.478.036-.478.279,0,.17.135.244.299.244.17,0,.247-.062.324-.17h.002c0,.084.018.146.129.146.029,0,.046,0,.069-.012v-.086c-.008.012-.022.012-.034.012-.042,0-.064-.024-.064-.06v-.45c0-.23-.171-.28-.326-.28-.205,0-.352.098-.362.292h.107ZM33.33,51.713c.001.17-.144.267-.31.267-.103,0-.199-.06-.199-.17,0-.17.229-.158.414-.194.029,0,.078-.012.093-.036h.002v.134" fill-rule="evenodd"/>
          </g>
          <g>
            <path d="M33.705,52.041h.11v-.498c.004-.158.106-.28.279-.28.176,0,.227.11.227.256v.522h.107v-.546c0-.195-.075-.328-.326-.328-.125,0-.244.072-.283.17h-.004v-.146h-.11v.85"/>
          </g>
          <g>
            <path d="M35.469,50.874h-.109v.486h-.005c-.046-.122-.175-.194-.309-.194-.269,0-.399.218-.399.45,0,.242.13.449.399.449.13,0,.271-.072.318-.182h.002v.158h.101v-1.166ZM34.757,51.616c0-.171.083-.352.289-.352.233,0,.314.181.314.352,0,.182-.081.364-.314.364-.206,0-.289-.182-.289-.364M35.792,51.554c.017-.146.115-.291.292-.291.176,0,.277.145.283.291h-.575ZM36.476,51.64c.008-.232-.106-.474-.392-.474-.282,0-.402.23-.402.45,0,.242.119.449.402.449.224,0,.343-.11.388-.304h-.11c-.034.134-.119.22-.279.22-.209,0-.291-.182-.292-.34h.684" fill-rule="evenodd"/>
          </g>
          <g>
            <path d="M37.315,51.445c-.007-.182-.15-.28-.327-.28-.157,0-.334.074-.334.244,0,.146.107.194.25.23l.139.024c.099.025.195.062.195.158,0,.11-.141.158-.244.158-.146,0-.252-.072-.262-.206h-.109c.017.206.158.292.364.292.166,0,.358-.074.358-.256,0-.146-.13-.218-.254-.23l-.144-.036c-.075-.012-.185-.049-.185-.134,0-.11.112-.146.21-.146.124,0,.227.048.233.182h.109"/>
          </g>
          <g>
            <path d="M38.308,51.19h-.11v.146h-.005c-.041-.086-.152-.17-.281-.17-.257,0-.403.194-.403.438,0,.23.118.425.403.425.127,0,.233-.072.281-.17h.005v.11c0,.206-.086.328-.286.328-.121,0-.236-.049-.261-.17h-.109c.016.182.192.254.369.254.289,0,.392-.158.396-.412v-.778ZM37.912,51.943c-.2,0-.293-.17-.293-.339,0-.171.086-.34.293-.34.205,0,.286.181.286.34,0,.181-.099.339-.286.339M38.63,51.555c.017-.146.115-.291.292-.291.176,0,.277.145.283.291h-.575ZM39.312,51.64c.01-.232-.105-.474-.391-.474-.282,0-.402.23-.402.45,0,.242.119.449.402.449.226,0,.343-.109.388-.304h-.11c-.033.134-.119.22-.279.22-.209,0-.291-.182-.292-.34h.683" fill-rule="evenodd"/>
          </g>
          <g>
            <path d="M39.725,52.041h.118l.218-.716h.002l.218.716h.119l.287-.85h-.115l-.228.728h-.004l-.218-.728h-.122l-.217.728h-.004l-.228-.728h-.116l.287.85"/>
          </g>
          <g>
            <path d="M40.921,51.555c.018-.146.116-.292.293-.292.176,0,.277.146.282.292h-.575ZM41.605,51.639c.008-.23-.105-.473-.391-.473-.282,0-.403.23-.403.449,0,.244.121.45.403.45.223,0,.341-.11.388-.304h-.11c-.034.134-.121.22-.279.22-.209,0-.292-.183-.293-.341h.684" fill-rule="evenodd"/>
          </g>
          <g>
            <path d="M41.804,52.041h.109v-.45c0-.17.134-.316.332-.304v-.109c-.162,0-.281.084-.337.218h-.004v-.206h-.1v.85"/>
          </g>
          <g>
            <path d="M42.434,52.041h.1v-.158h.004c.048.11.174.182.316.182.271,0,.4-.206.4-.45,0-.23-.129-.449-.4-.449-.131,0-.262.072-.308.194h-.004v-.486h-.109v1.166ZM43.144,51.615c0,.183-.083.365-.291.365-.23,0-.311-.182-.311-.365,0-.17.081-.352.311-.352.207,0,.291.182.291.352M43.539,51.555c.017-.146.116-.292.293-.292.176,0,.277.146.282.292h-.575ZM44.224,51.64c.008-.232-.105-.474-.392-.474-.282,0-.402.23-.402.449,0,.244.119.45.402.45.224,0,.341-.11.387-.304h-.107c-.035.134-.122.22-.28.22-.207,0-.291-.182-.293-.34h.685M44.554,51.457c.004-.145.103-.194.238-.194.127,0,.233.024.233.17,0,.098-.051.11-.14.11-.234.036-.476.036-.476.28,0,.17.133.242.297.242.171,0,.248-.06.323-.17h.005c0,.086.017.146.127.146.03,0,.047,0,.072-.012v-.086c-.008.012-.023.012-.036.012-.042,0-.062-.024-.062-.06v-.45c0-.23-.172-.279-.329-.279-.204,0-.35.096-.359.291h.109ZM45.025,51.713c.001.17-.146.268-.309.268-.103,0-.2-.062-.2-.17,0-.17.23-.158.415-.195.029,0,.076-.012.089-.036h.005v.134" fill-rule="evenodd"/>
          </g>
          <g>
            <path d="M45.418,52.041h.11v-.498c.002-.158.105-.28.279-.28.175,0,.226.11.226.256v.522h.107v-.546c0-.195-.075-.328-.326-.328-.124,0-.244.072-.283.17h-.002v-.146h-.11v.85M47.057,51.445c-.007-.182-.15-.279-.327-.279-.157,0-.334.072-.334.242,0,.146.106.194.247.232l.14.024c.099.024.194.06.194.158,0,.109-.141.158-.242.158-.145,0-.253-.074-.263-.207h-.107c.017.207.158.292.365.292.165,0,.357-.072.357-.254,0-.146-.13-.22-.254-.232l-.144-.036c-.075-.012-.185-.048-.185-.134,0-.11.113-.146.21-.146.123,0,.227.049.233.182h.11M47.468,50.948h-.109v.242h-.154v.096h.154v.572c-.001.146.048.194.193.194h.095v-.098c-.03.013-.06.013-.092.013-.078-.013-.088-.049-.088-.11v-.572h.18v-.096h-.18v-.242"/>
          </g>
          <g>
            <path d="M47.974,51.457c.002-.146.104-.194.236-.194.128,0,.234.024.234.17,0,.098-.049.11-.139.11-.235.036-.479.036-.479.279,0,.17.135.244.298.244.17,0,.248-.062.324-.17h.004c0,.084.017.146.128.146.029,0,.046,0,.071-.012v-.086c-.008.012-.023.012-.035.012-.043,0-.065-.024-.065-.06v-.45c0-.23-.17-.28-.327-.28-.204,0-.351.098-.361.292h.11ZM48.444,51.713c.002.17-.145.267-.311.267-.101,0-.198-.06-.198-.17,0-.17.23-.158.414-.194.029,0,.078-.012.092-.036h.004v.134" fill-rule="evenodd"/>
          </g>
          <g>
            <path d="M48.84,52.041h.108v-1.166h-.108v1.166ZM49.398,50.947h-.109v.244h-.156v.096h.156v.572c0,.146.048.194.194.194h.095v-.098c-.031.012-.063.012-.093.012-.077-.012-.088-.048-.088-.109v-.572h.181v-.096h-.181v-.244"/>
          </g>
          <g>
            <path d="M50.544,50.971h.403c.182,0,.276.074.276.218,0,.11-.089.195-.276.195h-.403v-.414ZM50.426,52.039h.521c.4,0,.441-.218.441-.327,0-.158-.103-.268-.262-.292.129-.024.215-.146.215-.268,0-.206-.187-.28-.394-.28h-.521v1.166ZM50.544,51.481h.403c.206,0,.324.074.324.218,0,.195-.152.244-.324.244h-.403v-.462M51.74,51.457c.002-.146.104-.194.236-.194.128,0,.234.024.234.17,0,.098-.049.11-.14.11-.234.036-.478.036-.478.279,0,.17.135.242.298.242.172,0,.248-.06.324-.169h.004c0,.084.017.145.128.145.029,0,.046,0,.071-.012v-.084c-.008.012-.023.012-.035.012-.043,0-.065-.024-.065-.06v-.45c0-.23-.17-.28-.326-.28-.205,0-.352.098-.362.292h.11ZM52.211,51.713c.001.169-.145.267-.311.267-.101,0-.197-.06-.197-.17,0-.17.228-.158.412-.194.029,0,.077-.012.092-.036h.004v.134" fill-rule="evenodd"/>
          </g>
          <g>
            <path d="M52.826,52.041l-.037.098c-.037.072-.059.133-.154.133-.024,0-.051-.012-.075-.012v.086c.017.012.04.012.083.012.136,0,.172-.036.234-.182l.387-.984h-.11l-.274.728-.292-.728h-.117l.355.85"/>
          </g>
          <g>
            <path d="M53.449,51.555c.018-.146.117-.292.294-.292.176,0,.276.146.281.292h-.575ZM54.134,51.639c.007-.23-.106-.473-.391-.473s-.403.23-.403.449c0,.244.119.45.403.45.223,0,.34-.11.387-.304h-.109c-.035.134-.119.22-.279.22-.21,0-.293-.183-.294-.341h.685" fill-rule="evenodd"/>
          </g>
          <g>
            <path d="M54.35,52.041h.109v-.45c0-.17.135-.316.332-.304v-.109c-.16,0-.281.084-.337.218h-.004v-.206h-.1v.85M54.993,52.041h.107v-.498c.002-.158.107-.28.279-.28.176,0,.226.11.226.256v.522h.11v-.546c0-.195-.075-.328-.326-.328-.125,0-.245.072-.286.17h-.002v-.146h-.107v.85"/>
          </g>
          <polygon points="33.518 54.974 32.411 53.253 32.4 53.235 32.02 53.235 32.02 55.65 32.391 55.65 32.391 53.909 33.501 55.632 33.512 55.65 33.89 55.65 33.89 53.235 33.518 53.235 33.518 54.974"/>
          <path d="M36.823,54.864c0,.123-.015.22-.044.287-.029.065-.074.116-.139.155-.065.039-.141.058-.228.058-.103,0-.18-.028-.235-.084-.053-.056-.08-.141-.08-.253v-1.146h-.365v1.184c0,.197.054.352.16.461.107.109.266.164.472.164.113,0,.218-.025.311-.075.062-.032.117-.074.166-.127v.162h.346v-1.77h-.365v.983Z"/>
          <rect x="36.574" y="53.299" width=".365" height=".404"/>
          <rect x="35.976" y="53.299" width=".367" height=".404"/>
          <path d="M39.891,53.862c-.047-.013-.099-.02-.153-.02-.1,0-.186.025-.257.074-.044.03-.088.074-.13.13v-.165h-.346v1.77h.365v-.941c0-.159.03-.284.09-.371.057-.083.138-.124.248-.124.072,0,.136.015.19.045l.04.021.126-.337-.028-.017c-.048-.03-.097-.051-.144-.064Z"/>
          <path d="M42.458,53.842c-.115,0-.222.026-.318.078-.06.033-.115.074-.161.124v-.164h-.346v1.77h.365v-.981c0-.177.037-.307.109-.385.073-.079.172-.117.304-.117.102,0,.178.028.233.084.054.056.081.141.081.253v1.146h.366v-1.184c0-.198-.054-.352-.162-.461-.107-.108-.265-.163-.471-.163Z"/>
          <path d="M46.143,53.955c-.116-.075-.253-.113-.409-.113-.186,0-.344.06-.471.178v-.785h-.365v2.416h.346v-.147c.046.049.1.088.161.118.092.046.195.069.307.069.151,0,.289-.038.41-.113.121-.076.217-.186.284-.329.068-.141.102-.312.102-.508,0-.175-.031-.332-.093-.467-.063-.136-.154-.243-.271-.319ZM45.705,54.155c.09,0,.165.023.229.07.065.048.113.116.148.206.036.093.054.205.054.332s-.019.24-.056.333c-.038.092-.088.161-.153.209-.066.048-.141.07-.231.07-.15,0-.26-.05-.336-.155-.079-.106-.118-.264-.118-.469,0-.12.02-.226.06-.317.039-.09.094-.16.164-.208.07-.048.151-.073.241-.073Z"/>
          <path d="M49.367,53.953c-.12-.073-.265-.11-.429-.11-.169,0-.317.039-.441.115-.125.077-.223.187-.29.329-.066.139-.099.305-.099.492,0,.182.034.343.101.479.068.138.166.246.291.321.126.074.275.112.441.112.191,0,.358-.05.495-.15.138-.1.233-.241.283-.42l.012-.042-.359-.055-.01.033c-.028.097-.079.175-.151.234s-.156.087-.257.087c-.09,0-.172-.021-.241-.062-.068-.04-.122-.102-.162-.182-.036-.071-.059-.157-.068-.255h1.263v-.098c0-.194-.033-.363-.098-.502-.066-.142-.161-.251-.283-.323ZM48.935,54.155c.124,0,.221.037.295.114.067.07.111.168.131.294h-.863c.014-.072.038-.138.072-.195.041-.068.094-.121.155-.158.061-.037.131-.055.21-.055Z"/>
          <path d="M52.339,53.862c-.047-.013-.099-.02-.153-.02-.1,0-.186.025-.257.074-.044.03-.088.074-.13.13v-.165h-.346v1.77h.365v-.941c0-.159.03-.284.09-.371.057-.083.138-.124.248-.124.072,0,.136.015.19.045l.04.021.126-.337-.028-.017c-.048-.03-.097-.051-.144-.064Z"/>
          <path d="M55.186,53.881v.146c-.05-.05-.106-.09-.166-.119-.087-.043-.193-.065-.316-.065-.16,0-.299.039-.412.116-.115.077-.203.185-.262.323-.058.135-.087.293-.087.471,0,.173.032.328.095.462.063.136.156.244.274.32.117.077.254.116.409.116.176,0,.325-.055.445-.163-.005.212-.041.355-.107.424-.07.075-.181.112-.333.112-.109,0-.192-.02-.25-.059-.056-.038-.089-.095-.1-.176l-.004-.029-.353-.055.003.049c.012.186.08.331.203.432.122.1.292.15.507.15.273,0,.477-.074.607-.221.129-.144.194-.362.194-.648v-1.587h-.346ZM54.749,55.338c-.089,0-.167-.023-.231-.069-.064-.047-.114-.116-.15-.204-.036-.091-.054-.202-.054-.33,0-.124.018-.231.054-.32.035-.088.083-.152.144-.196.062-.044.132-.065.213-.065.096,0,.176.022.246.069.068.045.121.113.159.201.038.089.057.196.057.318,0,.126-.018.235-.052.324-.036.089-.085.156-.15.202-.065.046-.144.069-.235.069Z"/>
          <g>
            <path d="M31.809,50.206h4.2v-1.178h-2.686v-5.224h-1.514s0,6.402,0,6.402"/>
          </g>
          <g>
            <path d="M40.95,50.206h.915v-3.462h-2.844v1.057h1.525c-.088.886-.768,1.445-1.751,1.445-1.36,0-1.822-1.129-1.822-2.199,0-1.129.443-2.175,1.935-2.211.712-.024,1.282.364,1.455,1.07h1.447c-.165-1.446-1.494-2.26-2.902-2.26-2.132,0-3.386,1.482-3.386,3.389,0,1.847,1.142,3.365,3.273,3.365.665,0,1.471-.28,2.002-.923l.153.728"/>
          </g>
          <g>
            <path d="M45.313,45.383h.019l.867,2.345h-1.783l.896-2.345ZM41.947,50.206h1.533l.54-1.422h2.575l.521,1.422h1.572l-2.575-6.402h-1.552l-2.614,6.402" fill-rule="evenodd"/>
          </g>
          <rect x="48.908" y="43.816" width=".912" height="6.426"/>
          <path d="M54.557,43.816h-4.539v6.426h4.539v-6.426ZM52.276,50.157c-1.166,0-2.111-.923-2.111-2.077,0-1.142.944-2.077,2.111-2.077s2.108.935,2.108,2.077c0,1.154-.944,2.077-2.108,2.077Z"/>
          <rect x="54.756" y="43.816" width=".864" height="6.426"/>
        </g>
      </g>
      <path d="M91.257,46.871h-5.312l2.025-1.308.65-.42-.65-.42-2.297-1.484-.271-.175-.271.175-2.297,1.484-.65.42.65.42,2.025,1.308h-5.312v6.406h2.063c-.396.3-.656.77-.656,1.304,0,.904.736,1.64,1.64,1.64s1.64-.736,1.64-1.64c0-.534-.26-1.004-.656-1.304h3.651c-.396.3-.657.77-.657,1.304,0,.904.736,1.64,1.64,1.64s1.64-.736,1.64-1.64c0-.534-.26-1.004-.656-1.304h2.063v-6.406ZM85.402,43.659l2.297,1.484-2.297,1.484-2.297-1.484,2.297-1.484ZM82.594,55.721c-.629,0-1.14-.51-1.14-1.14s.51-1.14,1.14-1.14,1.14.51,1.14,1.14-.51,1.14-1.14,1.14ZM88.211,55.721c-.629,0-1.14-.51-1.14-1.14s.51-1.14,1.14-1.14,1.14.51,1.14,1.14-.51,1.14-1.14,1.14ZM90.757,52.777h-10.71v-5.406h10.71v5.406Z"/>
      <g>
        <g>
          <path d="M111.585,55.752c0,.769-.41,1.144-1.099,1.144s-1.095-.371-1.095-1.144v-1.769h.565v1.769c0,.311.072.617.529.617.403,0,.533-.195.533-.617v-1.769h.565v1.769Z"/>
          <path d="M112.488,55.884c0,.378.267.525.569.525.197,0,.5-.063.5-.354,0-.307-.385-.358-.764-.47-.381-.111-.767-.275-.767-.809,0-.581.497-.86.962-.86.536,0,1.029.259,1.029.916h-.547c-.019-.343-.238-.43-.508-.43-.181,0-.389.083-.389.322,0,.219.122.247.767.43.188.052.764.184.764.829,0,.521-.371.912-1.069.912-.569,0-1.103-.312-1.096-1.012h.548Z"/>
          <path d="M114.473,53.983h1.924v.526h-1.358v.609h1.246v.485h-1.246v.697h1.387v.525h-1.952v-2.844Z"/>
          <path d="M119.027,53.916c.796,0,1.265.657,1.265,1.502,0,.82-.469,1.478-1.265,1.478s-1.264-.657-1.264-1.478c0-.845.468-1.502,1.264-1.502ZM119.027,56.369c.508,0,.699-.478.699-.951,0-.498-.191-.977-.699-.977s-.698.479-.698.977c0,.474.191.951.698.951Z"/>
          <path d="M120.708,53.983h.562l1.073,1.908h.007v-1.908h.529v2.844h-.565l-1.069-1.903h-.008v1.903h-.529v-2.844Z"/>
          <path d="M123.409,53.983h.565v2.318h1.254v.525h-1.819v-2.844Z"/>
          <path d="M125.845,55.721l-.947-1.737h.637l.602,1.124.598-1.124h.631l-.954,1.753v1.091h-.565v-1.106Z"/>
          <path d="M128.648,53.983h.796l.602,1.956h.008l.568-1.956h.796v2.844h-.529v-2.015h-.007l-.631,2.015h-.436l-.63-1.995h-.007v1.995h-.53v-2.844Z"/>
          <path d="M133.805,56.505c-.198.282-.457.391-.706.391-.795,0-1.264-.657-1.264-1.478,0-.845.469-1.502,1.264-1.502.526,0,1.023.358,1.084,1.004h-.54c-.064-.314-.277-.479-.544-.479-.508,0-.698.479-.698.977,0,.474.19.951.698.951.368,0,.58-.219.612-.613h-.568v-.466h1.08v1.537h-.36l-.058-.322Z"/>
          <path d="M134.711,53.983h1.21c.49,0,.821.176.821.705,0,.279-.126.475-.349.594.312.1.472.366.472.721,0,.577-.443.824-.908.824h-1.246v-2.844ZM135.276,55.135h.573c.198,0,.346-.1.346-.339,0-.271-.188-.326-.39-.326h-.529v.665ZM135.276,56.342h.605c.223,0,.418-.08.418-.375,0-.29-.166-.406-.407-.406h-.616v.781Z"/>
          <path d="M137.221,55.497h1.084v.486h-1.084v-.486Z"/>
          <path d="M139.527,53.983c.505,0,.93.351.93,1.438,0,1.11-.425,1.461-.93,1.461-.496,0-.922-.351-.922-1.461,0-1.088.426-1.438.922-1.438ZM139.527,56.417c.418,0,.418-.681.418-.995,0-.291,0-.972-.418-.972-.41,0-.41.681-.41.972,0,.314,0,.995.41.995Z"/>
          <path d="M141.562,53.983c.505,0,.93.351.93,1.438,0,1.11-.425,1.461-.93,1.461-.496,0-.922-.351-.922-1.461,0-1.088.426-1.438.922-1.438ZM141.562,56.417c.418,0,.418-.681.418-.995,0-.291,0-.972-.418-.972-.41,0-.41.681-.41.972,0,.314,0,.995.41.995Z"/>
          <path d="M144.401,54.506h-1.041l-.101.633.007.008c.137-.155.296-.215.493-.215.497,0,.778.426.778.948,0,.573-.429,1.016-.937,1.003-.489,0-.929-.299-.937-.884h.512c.025.247.19.418.414.418.267,0,.436-.259.436-.537,0-.291-.162-.522-.436-.522-.184,0-.284.072-.385.224h-.461l.248-1.541h1.408v.466Z"/>
        </g>
        <g>
          <polygon points="135.916 48.256 135.916 47.077 135.416 47.077 135.416 48.256 134.237 48.256 134.237 48.756 135.416 48.756 135.416 49.935 135.916 49.935 135.916 48.756 137.096 48.756 137.096 48.256 135.916 48.256"/>
          <rect x="116.457" y="48.256" width="2.857" height=".5"/>
          <path d="M135.667,45.068l-3.138,3.138h-4.606c-.133-.465-.543-.812-1.051-.812-.614,0-1.111.498-1.111,1.111s.498,1.111,1.111,1.111c.507,0,.917-.347,1.051-.811h4.606l3.138,3.138,3.438-3.438-3.438-3.438ZM133.077,48.506l2.589-2.589,2.589,2.589-2.589,2.589-2.589-2.589Z"/>
          <path d="M126.839,50.845c-1.289,0-2.339-1.049-2.339-2.339s1.05-2.339,2.339-2.339c1.053,0,1.937.705,2.228,1.665h.625c-.306-1.296-1.466-2.265-2.853-2.265-1.517,0-2.756,1.16-2.908,2.639h-2.907l-3.138-3.138-3.438,3.438,3.438,3.438,3.138-3.138h2.907c.153,1.478,1.391,2.639,2.908,2.639,1.388,0,2.547-.97,2.853-2.265h-.625c-.292.96-1.175,1.666-2.228,1.666ZM117.885,51.095l-2.589-2.589,2.589-2.589,2.589,2.589-2.589,2.589Z"/>
        </g>
      </g>
    </g>
    <g>
      <g>
        <path d="M6.125,62.008h.83l.627,2.038h.007l.594-2.038h.829v2.964h-.552v-2.101h-.008l-.656,2.101h-.454l-.657-2.08h-.008v2.08h-.552v-2.964Z"/>
        <path d="M10.255,62.008h.604l1.002,2.964h-.612l-.202-.66h-1.002l-.211.66h-.597l1.018-2.964ZM10.199,63.826h.694l-.338-1.088h-.007l-.35,1.088Z"/>
        <path d="M12.09,62.008h1.156c.694,0,1.216.481,1.216,1.465,0,.859-.397,1.499-1.216,1.499h-1.156v-2.964ZM12.68,64.424h.525c.342,0,.668-.232.668-.889,0-.598-.188-.979-.773-.979h-.42v1.868Z"/>
        <path d="M14.868,62.008h2.005v.548h-1.415v.635h1.299v.507h-1.299v.727h1.445v.548h-2.035v-2.964Z"/>
        <path d="M18.337,62.008h.59v2.964h-.59v-2.964Z"/>
        <path d="M19.443,62.008h.586l1.118,1.988h.008v-1.988h.552v2.964h-.589l-1.115-1.984h-.008v1.984h-.552v-2.964Z"/>
        <path d="M25.048,63.004c-.038-.295-.293-.519-.586-.519-.529,0-.728.498-.728,1.017,0,.494.198.992.728.992.36,0,.563-.274.608-.664h.57c-.06.738-.521,1.212-1.179,1.212-.829,0-1.317-.685-1.317-1.54,0-.88.488-1.564,1.317-1.564.59,0,1.085.382,1.156,1.066h-.57Z"/>
        <path d="M26.039,62.008h.59v1.138h1.085v-1.138h.589v2.964h-.589v-1.278h-1.085v1.278h-.59v-2.964Z"/>
        <path d="M28.815,62.008h.59v2.964h-.59v-2.964Z"/>
        <path d="M29.92,62.008h.586l1.118,1.988h.008v-1.988h.552v2.964h-.589l-1.115-1.984h-.008v1.984h-.552v-2.964Z"/>
        <path d="M33.43,62.008h.604l1.002,2.964h-.612l-.202-.66h-1.003l-.21.66h-.597l1.018-2.964ZM33.374,63.826h.694l-.338-1.088h-.007l-.35,1.088Z"/>
      </g>
      <g>
        <path d="M43.81,63.424c-.032-.232-.254-.408-.509-.408-.461,0-.634.392-.634.8,0,.389.173.78.634.78.313,0,.489-.215.528-.522h.497c-.053.581-.454.954-1.025.954-.722,0-1.146-.539-1.146-1.212,0-.692.425-1.231,1.146-1.231.513,0,.943.301,1.006.84h-.497Z"/>
        <path d="M45.574,62.584h.372l-.911,2.443h-.372l.911-2.443Z"/>
        <path d="M47.938,63.424c-.032-.232-.254-.408-.509-.408-.461,0-.634.392-.634.8,0,.389.173.78.634.78.313,0,.489-.215.528-.522h.497c-.053.581-.454.954-1.025.954-.722,0-1.146-.539-1.146-1.212,0-.692.425-1.231,1.146-1.231.513,0,.943.301,1.006.84h-.497Z"/>
        <path d="M50.737,64.707c-.18.231-.415.32-.64.32-.722,0-1.146-.539-1.146-1.212,0-.692.425-1.231,1.146-1.231.477,0,.927.294.982.823h-.489c-.06-.258-.252-.392-.493-.392-.461,0-.634.392-.634.8,0,.389.173.78.634.78.333,0,.525-.18.555-.503h-.516v-.382h.979v1.261h-.326l-.053-.265Z"/>
        <path d="M51.781,62.64h1.097c.444,0,.745.144.745.578,0,.229-.114.389-.317.486.284.082.428.301.428.592,0,.473-.401.676-.822.676h-1.13v-2.332ZM52.294,63.584h.519c.18,0,.313-.082.313-.278,0-.222-.17-.268-.353-.268h-.479v.546ZM52.294,64.573h.548c.203,0,.379-.065.379-.308,0-.238-.15-.333-.369-.333h-.558v.641Z"/>
        <path d="M54.276,63.881h.983v.398h-.983v-.398Z"/>
        <path d="M55.905,62.64h1.051c.582,0,.807.369.807.748s-.225.748-.807.748h-.538v.836h-.513v-2.332ZM56.418,63.737h.398c.238,0,.45-.053.45-.35s-.212-.35-.45-.35h-.398v.699Z"/>
        <path d="M59.377,62.584c.722,0,1.146.539,1.146,1.231,0,.673-.424,1.212-1.146,1.212s-1.146-.539-1.146-1.212c0-.692.425-1.231,1.146-1.231ZM59.377,64.596c.46,0,.633-.392.633-.78,0-.408-.173-.8-.633-.8s-.634.392-.634.8c0,.389.173.78.634.78Z"/>
        <path d="M61.123,62.64h1.097c.444,0,.745.144.745.578,0,.229-.114.389-.317.486.284.082.428.301.428.592,0,.473-.401.676-.822.676h-1.13v-2.332ZM61.636,63.584h.519c.18,0,.313-.082.313-.278,0-.222-.17-.268-.353-.268h-.479v.546ZM61.636,64.573h.548c.203,0,.379-.065.379-.308,0-.238-.15-.333-.369-.333h-.558v.641Z"/>
        <path d="M63.618,63.881h.983v.398h-.983v-.398Z"/>
        <path d="M65.247,62.64h1.743v.432h-1.23v.499h1.13v.398h-1.13v.571h1.257v.432h-1.77v-2.332Z"/>
        <path d="M69.591,64.09c0,.63-.372.938-.996.938s-.992-.304-.992-.938v-1.45h.513v1.45c0,.255.065.506.479.506.366,0,.483-.16.483-.506v-1.45h.513v1.45Z"/>
        <path d="M70.281,62.64h1.257c.418,0,.683.291.683.644,0,.274-.111.48-.369.585v.006c.252.065.323.311.34.546.01.146.006.421.098.552h-.513c-.062-.147-.056-.372-.081-.559-.036-.245-.131-.353-.389-.353h-.513v.911h-.513v-2.332ZM70.794,63.694h.562c.229,0,.353-.098.353-.333,0-.225-.124-.323-.353-.323h-.562v.656Z"/>
      </g>
      <g>
        <g>
          <path d="M83.611,62.466h.495l.946,1.681h.006v-1.681h.467v2.506h-.498l-.942-1.678h-.007v1.678h-.467v-2.506Z"/>
          <path d="M86.374,62.876h-.451v-.41h.451v.41ZM85.923,63.157h.451v1.814h-.451v-1.814Z"/>
          <path d="M86.728,63.157h.428v.253h.01c.114-.204.311-.303.502-.303.479,0,.6.299.6.748v1.116h-.451v-1.025c0-.298-.079-.445-.289-.445-.244,0-.349.15-.349.52v.951h-.45v-1.814Z"/>
          <path d="M89.177,63.157h.33v.333h-.33v.898c0,.169.037.211.189.211.048,0,.093-.004.141-.015v.39c-.076.015-.175.018-.264.018-.276,0-.518-.07-.518-.432v-1.07h-.273v-.333h.273v-.544h.451v.544Z"/>
          <path d="M90.092,64.186c.013.315.152.46.403.46.181,0,.326-.123.355-.235h.396c-.127.428-.396.61-.769.61-.517,0-.838-.393-.838-.954,0-.544.34-.959.838-.959.559,0,.829.52.797,1.078h-1.184ZM90.825,63.869c-.042-.252-.141-.386-.359-.386-.285,0-.368.246-.374.386h.733Z"/>
          <path d="M91.538,63.157h.428v.253h.01c.114-.204.311-.303.502-.303.479,0,.6.299.6.748v1.116h-.451v-1.025c0-.298-.079-.445-.289-.445-.244,0-.349.15-.349.52v.951h-.45v-1.814Z"/>
          <path d="M94.587,64.74h-.007c-.104.196-.288.28-.498.28-.495,0-.736-.471-.736-.972,0-.488.244-.941.727-.941.194,0,.384.092.485.271h.007v-.912h.45v2.506h-.428v-.231ZM94.193,63.483c-.296,0-.397.28-.397.579,0,.284.118.583.397.583.298,0,.387-.288.387-.587,0-.295-.095-.575-.387-.575Z"/>
          <path d="M96.146,63.107c.518,0,.851.38.851.959,0,.575-.333.954-.851.954-.514,0-.847-.379-.847-.954,0-.579.333-.959.847-.959ZM96.146,64.646c.308,0,.4-.292.4-.579,0-.292-.093-.583-.4-.583-.305,0-.396.291-.396.583,0,.287.092.579.396.579Z"/>
          <path d="M98.845,62.406h.361l-.885,2.625h-.362l.886-2.625Z"/>
          <path d="M101.779,63.308c-.031-.249-.247-.438-.495-.438-.447,0-.615.421-.615.86,0,.417.168.838.615.838.305,0,.477-.231.515-.562h.482c-.051.625-.441,1.025-.997,1.025-.701,0-1.113-.579-1.113-1.302,0-.744.412-1.323,1.113-1.323.498,0,.918.322.978.901h-.482Z"/>
          <path d="M102.567,63.157h.428v.337h.007c.082-.229.305-.387.523-.387.032,0,.069.008.099.018v.464c-.041-.011-.108-.018-.162-.018-.33,0-.444.263-.444.582v.818h-.45v-1.814Z"/>
          <path d="M104.114,64.186c.013.315.152.46.402.46.182,0,.327-.123.355-.235h.397c-.127.428-.397.61-.769.61-.518,0-.838-.393-.838-.954,0-.544.34-.959.838-.959.559,0,.828.52.797,1.078h-1.184ZM104.847,63.869c-.041-.252-.139-.386-.358-.386-.285,0-.368.246-.374.386h.732Z"/>
          <path d="M105.541,63.715c.025-.467.403-.607.771-.607.327,0,.72.081.72.517v.943c0,.165.017.33.058.404h-.457c-.016-.057-.028-.116-.032-.176-.143.165-.352.225-.552.225-.312,0-.559-.172-.559-.544,0-.41.279-.509.559-.551.276-.046.533-.035.533-.239,0-.214-.134-.245-.292-.245-.172,0-.282.077-.299.273h-.45ZM106.582,64.084c-.076.073-.235.077-.374.104-.141.032-.268.085-.268.267,0,.187.131.232.276.232.353,0,.365-.31.365-.418v-.186Z"/>
          <path d="M107.948,63.157h.33v.333h-.33v.898c0,.169.039.211.191.211.047,0,.092-.004.139-.015v.39c-.076.015-.174.018-.263.018-.276,0-.518-.07-.518-.432v-1.07h-.272v-.333h.272v-.544h.45v.544Z"/>
          <path d="M110.032,64.972h-.429v-.253h-.01c-.114.203-.311.302-.501.302-.479,0-.6-.298-.6-.747v-1.116h.45v1.024c0,.299.079.446.289.446.244,0,.349-.151.349-.52v-.951h.451v1.814Z"/>
          <path d="M110.37,63.157h.428v.337h.007c.082-.229.305-.387.523-.387.032,0,.069.008.099.018v.464c-.041-.011-.108-.018-.162-.018-.33,0-.444.263-.444.582v.818h-.45v-1.814Z"/>
          <path d="M111.917,64.186c.013.315.152.46.402.46.182,0,.327-.123.355-.235h.397c-.127.428-.397.61-.769.61-.518,0-.838-.393-.838-.954,0-.544.34-.959.838-.959.559,0,.828.52.797,1.078h-1.184ZM112.649,63.869c-.041-.252-.139-.386-.358-.386-.285,0-.368.246-.374.386h.732Z"/>
          <path d="M113.712,64.382c.003.218.168.306.346.306.131,0,.295-.057.295-.232,0-.15-.187-.203-.511-.28-.26-.063-.521-.165-.521-.484,0-.463.362-.583.715-.583.358,0,.688.134.723.579h-.428c-.013-.192-.146-.245-.309-.245-.102,0-.25.021-.25.168,0,.18.254.204.511.271.264.066.521.172.521.509,0,.478-.375.632-.749.632-.381,0-.752-.158-.771-.639h.429Z"/>
          <path d="M116.407,62.876h-.451v-.41h.451v.41ZM115.956,63.157h.451v1.814h-.451v-1.814Z"/>
          <path d="M116.761,63.157h.428v.253h.01c.114-.204.311-.303.502-.303.479,0,.6.299.6.748v1.116h-.451v-1.025c0-.298-.079-.445-.289-.445-.244,0-.349.15-.349.52v.951h-.45v-1.814Z"/>
          <path d="M119.755,63.796c-.028-.204-.146-.312-.333-.312-.288,0-.384.323-.384.59,0,.26.092.572.375.572.209,0,.33-.147.358-.369h.435c-.057.481-.358.744-.79.744-.495,0-.829-.386-.829-.93,0-.565.305-.983.838-.983.388,0,.743.225.771.688h-.441Z"/>
          <path d="M120.475,64.431h.498v.541h-.498v-.541Z"/>
          <path d="M122.896,62.406h.361l-.885,2.625h-.362l.886-2.625Z"/>
          <path d="M125.957,64.688c-.175.249-.403.344-.622.344-.701,0-1.113-.579-1.113-1.302,0-.744.412-1.323,1.113-1.323.464,0,.901.315.955.884h-.476c-.058-.277-.244-.421-.479-.421-.447,0-.615.421-.615.86,0,.417.168.838.615.838.324,0,.512-.192.54-.54h-.502v-.41h.952v1.354h-.317l-.051-.284Z"/>
          <path d="M127.342,62.466h.511l.848,2.506h-.518l-.171-.559h-.848l-.178.559h-.505l.86-2.506ZM127.294,64.003h.588l-.286-.92h-.007l-.295.92Z"/>
          <path d="M128.892,62.466h.701l.53,1.723h.007l.501-1.723h.702v2.506h-.467v-1.776h-.007l-.556,1.776h-.384l-.556-1.759h-.006v1.759h-.467v-2.506Z"/>
          <path d="M131.765,62.466h1.695v.463h-1.197v.537h1.099v.428h-1.099v.614h1.223v.464h-1.721v-2.506Z"/>
          <path d="M134.696,62.466h1.594v.463h-1.096v.579h.949v.429h-.949v1.035h-.498v-2.506Z"/>
          <path d="M136.574,62.466h1.222c.406,0,.664.312.664.691,0,.295-.108.516-.359.628v.007c.245.07.314.334.33.586.01.158.007.453.096.594h-.498c-.061-.158-.055-.4-.08-.601-.034-.263-.127-.379-.377-.379h-.498v.979h-.499v-2.506ZM137.073,63.6h.545c.223,0,.344-.105.344-.358,0-.242-.121-.348-.344-.348h-.545v.706Z"/>
          <path d="M138.861,62.466h1.695v.463h-1.196v.537h1.098v.428h-1.098v.614h1.222v.464h-1.721v-2.506Z"/>
          <path d="M141.532,62.466h.511l.848,2.506h-.518l-.171-.559h-.848l-.178.559h-.505l.86-2.506ZM141.484,64.003h.587l-.285-.92h-.006l-.296.92Z"/>
          <path d="M143.082,62.466h.499v1.039l.885-1.039h.622l-.886.989.972,1.517h-.625l-.683-1.127-.285.319v.808h-.499v-2.506Z"/>
          <path d="M146.665,62.876h-.451v-.41h.451v.41ZM146.214,63.157h.451v1.814h-.451v-1.814Z"/>
          <path d="M147.019,63.157h.428v.253h.01c.114-.204.311-.303.502-.303.479,0,.6.299.6.748v1.116h-.451v-1.025c0-.298-.079-.445-.289-.445-.244,0-.349.15-.349.52v.951h-.45v-1.814Z"/>
          <path d="M150.013,63.796c-.028-.204-.146-.312-.333-.312-.288,0-.384.323-.384.59,0,.26.092.572.375.572.209,0,.33-.147.358-.369h.435c-.057.481-.358.744-.79.744-.495,0-.829-.386-.829-.93,0-.565.305-.983.838-.983.388,0,.743.225.771.688h-.441Z"/>
          <path d="M150.733,64.431h.498v.541h-.498v-.541Z"/>
        </g>
        <g>
          <path d="M81.005,62.383c.733,0,1.329.596,1.329,1.328s-.596,1.328-1.329,1.328-1.329-.596-1.329-1.328.596-1.328,1.329-1.328M81.005,62.122c-.878,0-1.59.711-1.59,1.589s.712,1.589,1.59,1.589,1.59-.711,1.59-1.589-.712-1.589-1.59-1.589h0Z"/>
          <path d="M81.48,63.887l-.004.036c-.026.275-.185.44-.423.44-.379,0-.513-.352-.513-.652s.134-.652.513-.652c.219,0,.357.112.414.332l.008.03h.393l-.004-.044c-.039-.396-.356-.654-.811-.657-.536,0-.911.408-.911.992s.375.992.911.992c.46,0,.786-.311.813-.773l.002-.042h-.389Z"/>
        </g>
      </g>
    </g>
  </g>
</svg>