<?xml version="1.0" encoding="UTF-8"?>
<svg xmlns="http://www.w3.org/2000/svg" width="155.872" height="65.73" version="1.1" viewBox="0 0 155.872 65.73">
  <g>
    <rect x=".125" y=".125" width="155.622" height="65.48" rx="2.523" ry="2.523" fill="#d7d7d7" data-background="background"/>
    <rect x=".125" y=".125" width="155.622" height="65.48" rx="2.523" ry="2.523" fill="none" stroke="#a8a8ab" stroke-width="0.25pt" stroke-dasharray="0.9pt" data-stroke="stroke"/>
  </g>
  <g fill="#000" data-foreground="foreground">
    <g>
      <path d="M87.223,13.625h1.241l.938,3.364h.011l.888-3.364h1.24v4.892h-.825v-3.467h-.011l-.982,3.467h-.68l-.982-3.433h-.012v3.433h-.825v-4.892Z"/>
      <path d="M94.51,13.508c1.241,0,1.971,1.13,1.971,2.583,0,1.411-.729,2.542-1.971,2.542s-1.972-1.131-1.972-2.542c0-1.453.73-2.583,1.972-2.583ZM94.51,17.729c.792,0,1.089-.822,1.089-1.637,0-.856-.297-1.679-1.089-1.679s-1.09.822-1.09,1.679c0,.815.298,1.637,1.09,1.637Z"/>
      <path d="M97.479,13.625h1.729c1.039,0,1.819.794,1.819,2.418,0,1.418-.596,2.473-1.819,2.473h-1.729v-4.892ZM98.36,17.612h.785c.512,0,1-.384,1-1.466,0-.986-.281-1.617-1.156-1.617h-.629v3.083Z"/>
      <path d="M102.036,13.625h2.998v.904h-2.117v1.048h1.943v.835h-1.943v1.199h2.162v.904h-3.043v-4.892Z"/>
      <path d="M106.07,13.625h.882v3.987h1.953v.904h-2.835v-4.892Z"/>
      <path d="M111.752,13.625h.876l1.673,3.282h.012v-3.282h.825v4.892h-.882l-1.667-3.275h-.012v3.275h-.825v-4.892Z"/>
      <path d="M118.106,13.508c1.24,0,1.971,1.13,1.971,2.583,0,1.411-.73,2.542-1.971,2.542s-1.971-1.131-1.971-2.542c0-1.453.729-2.583,1.971-2.583ZM118.106,17.729c.791,0,1.089-.822,1.089-1.637,0-.856-.298-1.679-1.089-1.679s-1.09.822-1.09,1.679c0,.815.298,1.637,1.09,1.637Z"/>
      <path d="M121.023,17.461h.882v1.055h-.882v-1.055Z"/>
      <path d="M124.985,13.625h1.24l.938,3.364h.011l.888-3.364h1.241v4.892h-.826v-3.467h-.011l-.983,3.467h-.679l-.983-3.433h-.011v3.433h-.825v-4.892Z"/>
      <path d="M133.374,17.961c-.309.487-.713.672-1.101.672-1.241,0-1.972-1.131-1.972-2.542,0-1.453.73-2.583,1.972-2.583.819,0,1.595.617,1.69,1.727h-.843c-.101-.541-.433-.822-.848-.822-.792,0-1.09.822-1.09,1.679,0,.815.298,1.637,1.09,1.637.572,0,.903-.376.954-1.055h-.887v-.802h1.685v2.645h-.562l-.09-.555Z"/>
      <path d="M135.135,13.625h1.887c.764,0,1.28.301,1.28,1.212,0,.479-.197.815-.545,1.021.488.171.735.63.735,1.24,0,.993-.69,1.418-1.415,1.418h-1.942v-4.892ZM136.017,15.605h.893c.309,0,.539-.171.539-.583,0-.466-.292-.562-.606-.562h-.825v1.145ZM136.017,17.681h.943c.348,0,.65-.137.65-.644,0-.5-.258-.699-.634-.699h-.96v1.343Z"/>
      <path d="M139.395,16.229h1.69v.835h-1.69v-.835Z"/>
      <path d="M143.333,13.625c.786,0,1.448.603,1.448,2.473,0,1.912-.662,2.514-1.448,2.514-.775,0-1.438-.603-1.438-2.514,0-1.871.662-2.473,1.438-2.473ZM143.333,17.811c.651,0,.651-1.172.651-1.713,0-.5,0-1.672-.651-1.672-.641,0-.641,1.172-.641,1.672,0,.541,0,1.713.641,1.713Z"/>
      <path d="M146.851,13.625c.786,0,1.448.603,1.448,2.473,0,1.912-.662,2.514-1.448,2.514-.775,0-1.438-.603-1.438-2.514,0-1.871.662-2.473,1.438-2.473ZM146.851,17.811c.651,0,.651-1.172.651-1.713,0-.5,0-1.672-.651-1.672-.641,0-.641,1.172-.641,1.672,0,.541,0,1.713.641,1.713Z"/>
      <path d="M151.014,18.517h-.798v-3.11h-.988v-.733c.557.014,1.067-.219,1.151-.952h.635v4.796Z"/>
    </g>
    <g>
      <g>
        <path d="M18.46,40.01h-.691v-2.598h-.856v-.612c.481.012.925-.183.998-.795h.55v4.005Z"/>
        <path d="M20.317,38.98c.044.269.22.497.458.497.501,0,.633-.772.652-1.219l-.01-.011c-.19.314-.438.446-.77.446-.292,0-.589-.16-.783-.412-.181-.246-.263-.578-.263-.893,0-.818.481-1.465,1.192-1.465,1.032,0,1.31,1.059,1.31,2.071,0,.979-.37,2.094-1.339,2.094-.589,0-1.027-.406-1.105-1.109h.657ZM21.364,37.338c0-.372-.204-.744-.55-.744-.331,0-.521.372-.521.732,0,.378.166.756.521.756.37,0,.55-.35.55-.744Z"/>
        <path d="M23.808,35.925c.847,0,1.139.687,1.139,1.075,0,.396-.175.716-.496.842v.011c.403.109.638.476.638.979,0,.842-.643,1.259-1.275,1.259-.657,0-1.295-.389-1.295-1.253,0-.509.243-.87.643-.984v-.011c-.331-.109-.502-.43-.502-.824,0-.721.594-1.093,1.149-1.093ZM23.812,39.478c.331,0,.584-.274.584-.675,0-.384-.263-.641-.584-.641-.336,0-.604.223-.604.635s.272.681.604.681ZM23.808,37.618c.282,0,.511-.183.511-.526,0-.206-.083-.555-.511-.555-.277,0-.521.2-.521.555,0,.349.244.526.521.526Z"/>
        <path d="M26.215,38.98c.044.269.22.497.458.497.501,0,.633-.772.652-1.219l-.01-.011c-.19.314-.438.446-.77.446-.292,0-.589-.16-.783-.412-.181-.246-.263-.578-.263-.893,0-.818.481-1.465,1.192-1.465,1.032,0,1.31,1.059,1.31,2.071,0,.979-.37,2.094-1.339,2.094-.589,0-1.027-.406-1.105-1.109h.657ZM27.262,37.338c0-.372-.204-.744-.55-.744-.331,0-.521.372-.521.732,0,.378.166.756.521.756.37,0,.55-.35.55-.744Z"/>
        <path d="M32.642,40.01h-.691v-2.598h-.856v-.612c.481.012.925-.183.998-.795h.55v4.005Z"/>
        <path d="M34.499,38.98c.044.269.22.497.458.497.501,0,.633-.772.652-1.219l-.01-.011c-.19.314-.438.446-.77.446-.292,0-.589-.16-.783-.412-.181-.246-.263-.578-.263-.893,0-.818.481-1.465,1.192-1.465,1.032,0,1.31,1.059,1.31,2.071,0,.979-.37,2.094-1.339,2.094-.589,0-1.027-.406-1.105-1.109h.657ZM35.546,37.338c0-.372-.204-.744-.55-.744-.331,0-.521.372-.521.732,0,.378.166.756.521.756.37,0,.55-.35.55-.744Z"/>
        <path d="M37.447,38.98c.044.269.22.497.458.497.501,0,.633-.772.652-1.219l-.01-.011c-.19.314-.438.446-.77.446-.292,0-.589-.16-.783-.412-.181-.246-.263-.578-.263-.893,0-.818.481-1.465,1.192-1.465,1.032,0,1.31,1.059,1.31,2.071,0,.979-.37,2.094-1.339,2.094-.589,0-1.027-.406-1.105-1.109h.657ZM38.494,37.338c0-.372-.204-.744-.55-.744-.331,0-.521.372-.521.732,0,.378.166.756.521.756.37,0,.55-.35.55-.744Z"/>
        <path d="M41.468,37.034c-.044-.269-.219-.497-.458-.497-.501,0-.633.772-.651,1.219l.009.011c.19-.314.438-.446.77-.446.292,0,.589.16.783.412.181.246.264.578.264.893,0,.818-.482,1.465-1.193,1.465-1.031,0-1.309-1.059-1.309-2.071,0-.979.369-2.094,1.338-2.094.589,0,1.027.406,1.105,1.109h-.657ZM40.421,38.677c0,.372.205.744.551.744.33,0,.521-.372.521-.732,0-.378-.166-.756-.521-.756-.37,0-.551.35-.551.744Z"/>
        <path d="M44.534,35.925h.759l1.451,2.74h.01v-2.74h.716v4.085h-.765l-1.445-2.735h-.01v2.735h-.716v-4.085Z"/>
        <path d="M49.021,36.594h-.691v-.669h.691v.669ZM48.329,37.052h.691v2.958h-.691v-2.958Z"/>
        <path d="M49.809,37.052h.657v.412h.015c.175-.332.477-.492.77-.492.734,0,.92.486.92,1.219v1.819h-.691v-1.671c0-.486-.122-.727-.443-.727-.375,0-.535.246-.535.847v1.551h-.691v-2.958Z"/>
        <path d="M53.812,37.052h.507v.544h-.507v1.465c0,.274.059.343.292.343.073,0,.142-.006.215-.022v.635c-.117.023-.268.028-.404.028-.424,0-.793-.114-.793-.703v-1.745h-.419v-.544h.419v-.887h.69v.887Z"/>
        <path d="M55.462,38.729c.02.515.234.749.618.749.277,0,.502-.2.546-.383h.608c-.195.698-.608.995-1.179.995-.793,0-1.284-.641-1.284-1.556,0-.888.521-1.562,1.284-1.562.857,0,1.271.847,1.223,1.757h-1.816ZM56.587,38.213c-.063-.411-.215-.629-.551-.629-.438,0-.564.4-.574.629h1.125Z"/>
        <path d="M57.929,37.052h.657v.412h.015c.175-.332.477-.492.77-.492.734,0,.92.486.92,1.219v1.819h-.691v-1.671c0-.486-.122-.727-.443-.727-.375,0-.535.246-.535.847v1.551h-.691v-2.958Z"/>
        <path d="M62.854,39.633h-.01c-.16.32-.442.457-.764.457-.76,0-1.13-.767-1.13-1.585,0-.795.375-1.533,1.115-1.533.297,0,.589.148.745.44h.009v-1.487h.691v4.085h-.657v-.377ZM62.25,37.584c-.452,0-.608.458-.608.944,0,.463.181.949.608.949.458,0,.594-.469.594-.955,0-.48-.146-.938-.594-.938Z"/>
        <path d="M65.495,36.972c.794,0,1.305.618,1.305,1.562,0,.938-.511,1.556-1.305,1.556-.788,0-1.3-.618-1.3-1.556,0-.944.512-1.562,1.3-1.562ZM65.495,39.478c.473,0,.613-.475.613-.943,0-.476-.141-.95-.613-.95-.467,0-.608.475-.608.95,0,.469.142.943.608.943Z"/>
      </g>
      <g>
        <path d="M5.388,23.761h1.636c.662,0,1.109.251,1.109,1.013,0,.4-.17.681-.472.853.423.143.638.526.638,1.036,0,.83-.6,1.185-1.227,1.185h-1.685v-4.085ZM6.151,25.415h.774c.268,0,.467-.143.467-.487,0-.389-.253-.469-.525-.469h-.716v.956ZM6.151,27.148h.818c.302,0,.564-.114.564-.538,0-.418-.224-.584-.55-.584h-.833v1.122Z"/>
        <path d="M10.151,23.761h.783l1.3,4.085h-.793l-.263-.91h-1.3l-.272.91h-.774l1.319-4.085ZM10.078,26.268h.9l-.438-1.5h-.01l-.453,1.5Z"/>
        <path d="M13.333,24.517h-1.041v-.755h2.848v.755h-1.042v3.33h-.765v-3.33Z"/>
        <path d="M16.695,24.517h-1.041v-.755h2.848v.755h-1.042v3.33h-.765v-3.33Z"/>
        <path d="M19.289,23.761h2.6v.755h-1.836v.875h1.685v.698h-1.685v1.001h1.874v.755h-2.638v-4.085Z"/>
        <path d="M22.831,23.761h1.874c.623,0,1.018.509,1.018,1.127,0,.481-.166.841-.551,1.024v.012c.375.114.482.543.507.956.015.257.01.738.146.967h-.764c-.093-.257-.083-.652-.122-.979-.054-.429-.194-.618-.579-.618h-.765v1.597h-.764v-4.085ZM23.595,25.609h.838c.341,0,.525-.172.525-.583,0-.395-.185-.566-.525-.566h-.838v1.15Z"/>
        <path d="M27.453,26.256l-1.28-2.495h.861l.813,1.613.808-1.613h.852l-1.289,2.518v1.568h-.765v-1.591Z"/>
        <path d="M32.267,25.821h-.898v-.881h.898v.881ZM31.368,26.965h.898v.881h-.898v-.881Z"/>
        <path d="M34.55,23.761h1.499c.9,0,1.577.664,1.577,2.02,0,1.184-.516,2.065-1.577,2.065h-1.499v-4.085ZM35.313,27.091h.682c.443,0,.866-.32.866-1.225,0-.824-.243-1.35-1.002-1.35h-.546v2.575Z"/>
        <path d="M40.803,25.134c-.048-.406-.379-.715-.759-.715-.687,0-.944.687-.944,1.402,0,.681.258,1.367.944,1.367.467,0,.73-.377.788-.916h.74c-.078,1.019-.677,1.671-1.528,1.671-1.076,0-1.709-.944-1.709-2.123,0-1.213.633-2.157,1.709-2.157.764,0,1.406.526,1.499,1.47h-.74Z"/>
        <path d="M43.195,25.46c.297.029.726-.04.726-.498,0-.338-.229-.532-.481-.532-.346,0-.531.303-.526.715h-.657c.024-.818.478-1.385,1.179-1.385.545,0,1.144.395,1.144,1.11,0,.378-.16.715-.477.818v.011c.374.098.604.464.604.91,0,.841-.599,1.316-1.266,1.316-.765,0-1.28-.538-1.266-1.459h.657c.015.435.199.79.599.79.312,0,.555-.252.555-.629,0-.606-.453-.595-.789-.595v-.572Z"/>
        <path d="M47.074,27.847h-.861l-1.13-4.085h.789l.773,2.873h.01l.784-2.873h.788l-1.153,4.085Z"/>
        <path d="M48.533,26.965h.765v.881h-.765v-.881Z"/>
        <path d="M53.157,23.761h.764v3.33h1.694v.755h-2.458v-4.085Z"/>
        <path d="M56.334,23.761h1.874c.623,0,1.018.509,1.018,1.127,0,.481-.166.841-.551,1.024v.012c.375.114.482.543.507.956.015.257.01.738.146.967h-.764c-.093-.257-.083-.652-.122-.979-.054-.429-.194-.618-.579-.618h-.765v1.597h-.764v-4.085ZM57.098,25.609h.838c.341,0,.525-.172.525-.583,0-.395-.185-.566-.525-.566h-.838v1.15Z"/>
        <path d="M61.152,23.761c.681,0,1.256.503,1.256,2.065,0,1.597-.575,2.1-1.256,2.1-.672,0-1.246-.503-1.246-2.1,0-1.562.574-2.065,1.246-2.065ZM61.152,27.257c.564,0,.564-.979.564-1.431,0-.417,0-1.396-.564-1.396-.556,0-.556.979-.556,1.396,0,.452,0,1.431.556,1.431Z"/>
        <path d="M63.91,25.46c.297.029.726-.04.726-.498,0-.338-.229-.532-.481-.532-.346,0-.531.303-.526.715h-.657c.024-.818.478-1.385,1.179-1.385.545,0,1.144.395,1.144,1.11,0,.378-.16.715-.477.818v.011c.374.098.604.464.604.91,0,.841-.599,1.316-1.266,1.316-.765,0-1.28-.538-1.266-1.459h.657c.015.435.199.79.599.79.312,0,.555-.252.555-.629,0-.606-.453-.595-.789-.595v-.572Z"/>
        <path d="M67.272,23.664c-.36.807-.53,1.705-.53,2.592,0,.904.165,1.808.525,2.632h-.574c-.399-.778-.643-1.683-.643-2.575,0-.853.215-1.922.643-2.649h.579Z"/>
        <path d="M68.815,23.761h.783l1.3,4.085h-.793l-.263-.91h-1.3l-.272.91h-.774l1.319-4.085ZM68.742,26.268h.9l-.438-1.5h-.01l-.453,1.5Z"/>
        <path d="M72.439,23.761h.783l1.3,4.085h-.793l-.263-.91h-1.3l-.272.91h-.774l1.319-4.085ZM72.366,26.268h.9l-.438-1.5h-.01l-.453,1.5Z"/>
        <path d="M76.064,23.761h.783l1.3,4.085h-.793l-.263-.91h-1.3l-.272.91h-.774l1.319-4.085ZM75.991,26.268h.9l-.438-1.5h-.01l-.453,1.5Z"/>
        <path d="M78.37,28.888c.36-.801.53-1.7.53-2.586,0-.904-.165-1.808-.525-2.638h.574c.399.784.643,1.688.643,2.581,0,.853-.214,1.922-.643,2.644h-.579Z"/>
        <path d="M80.701,26.291l-.827-1.402h.788l.443.772.438-.772h.765l-.827,1.385.93,1.574h-.789l-.525-.933-.525.933h-.774l.905-1.556Z"/>
        <path d="M82.881,25.38c-.023-.916.419-1.619,1.236-1.619.623,0,1.169.469,1.169,1.253,0,.601-.272.933-.608,1.213-.336.28-.735.509-.983.921h1.611v.698h-2.502c.005-.927.486-1.322,1.075-1.791.302-.24.711-.486.716-.979,0-.377-.214-.618-.511-.618-.409,0-.541.498-.541.921h-.662Z"/>
        <path d="M6.536,30.908c.794,0,1.305.618,1.305,1.562,0,.938-.511,1.556-1.305,1.556-.788,0-1.3-.618-1.3-1.556,0-.944.512-1.562,1.3-1.562ZM6.536,33.415c.473,0,.613-.475.613-.944,0-.475-.141-.95-.613-.95-.467,0-.608.475-.608.95,0,.469.142.944.608.944Z"/>
        <path d="M8.579,30.988h.657v.549h.01c.127-.372.468-.629.803-.629.049,0,.107.012.151.029v.755c-.063-.017-.166-.029-.248-.029-.507,0-.682.429-.682.95v1.333h-.691v-2.958Z"/>
        <path d="M13.139,29.861h.783l1.3,4.085h-.793l-.263-.91h-1.3l-.272.91h-.774l1.319-4.085ZM13.065,32.368h.9l-.438-1.5h-.01l-.453,1.5Z"/>
        <path d="M15.814,29.861h1.499c.9,0,1.577.664,1.577,2.02,0,1.184-.516,2.065-1.577,2.065h-1.499v-4.085ZM16.578,33.191h.682c.443,0,.867-.32.867-1.225,0-.824-.244-1.35-1.003-1.35h-.546v2.575Z"/>
        <path d="M20.661,29.861h.783l1.3,4.085h-.793l-.263-.91h-1.3l-.272.91h-.774l1.319-4.085ZM20.588,32.368h.9l-.438-1.5h-.01l-.453,1.5Z"/>
        <path d="M23.337,29.861h1.567c.866,0,1.202.646,1.202,1.31s-.336,1.311-1.202,1.311h-.804v1.465h-.764v-4.085ZM24.101,31.784h.595c.354,0,.671-.091.671-.612s-.316-.612-.671-.612h-.595v1.225Z"/>
        <path d="M27.643,30.617h-1.041v-.755h2.848v.755h-1.042v3.33h-.765v-3.33Z"/>
        <path d="M30.139,29.861h2.6v.755h-1.836v.875h1.685v.698h-1.685v1.001h1.874v.755h-2.638v-4.085Z"/>
        <path d="M33.584,29.861h1.874c.623,0,1.018.509,1.018,1.127,0,.481-.166.841-.551,1.024v.011c.375.115.482.544.507.956.015.257.01.738.146.967h-.764c-.093-.257-.083-.652-.122-.979-.054-.429-.194-.618-.579-.618h-.765v1.597h-.764v-4.085ZM34.348,31.709h.838c.341,0,.525-.172.525-.583,0-.395-.185-.567-.525-.567h-.838v1.15Z"/>
        <path d="M39.033,29.861h.764v4.085h-.764v-4.085Z"/>
        <path d="M40.761,29.861h.759l1.451,2.741h.01v-2.741h.715v4.085h-.764l-1.445-2.735h-.01v2.735h-.716v-4.085Z"/>
        <path d="M44.658,29.861h1.567c.866,0,1.202.646,1.202,1.31s-.336,1.311-1.202,1.311h-.804v1.465h-.764v-4.085ZM45.422,31.784h.595c.354,0,.671-.091.671-.612s-.316-.612-.671-.612h-.595v1.225Z"/>
        <path d="M51.145,32.402c0,1.104-.555,1.642-1.484,1.642-.935,0-1.479-.532-1.479-1.642v-2.541h.765v2.541c0,.446.097.887.715.887.545,0,.721-.28.721-.887v-2.541h.764v2.541Z"/>
        <path d="M52.861,30.617h-1.041v-.755h2.848v.755h-1.042v3.33h-.765v-3.33Z"/>
        <path d="M57.339,31.921h-.898v-.881h.898v.881ZM56.44,33.065h.898v.881h-.898v-.881Z"/>
        <path d="M59.736,29.861h1.499c.9,0,1.577.664,1.577,2.02,0,1.184-.516,2.065-1.577,2.065h-1.499v-4.085ZM60.5,33.191h.682c.443,0,.867-.32.867-1.225,0-.824-.244-1.35-1.003-1.35h-.546v2.575Z"/>
        <path d="M65.95,31.234c-.048-.406-.379-.715-.759-.715-.687,0-.944.687-.944,1.402,0,.681.258,1.367.944,1.367.467,0,.73-.377.788-.916h.74c-.078,1.019-.677,1.671-1.528,1.671-1.076,0-1.709-.944-1.709-2.123,0-1.213.633-2.157,1.709-2.157.764,0,1.406.526,1.499,1.47h-.74Z"/>
        <path d="M68.305,31.561c.297.029.726-.04.726-.498,0-.338-.229-.532-.481-.532-.346,0-.531.303-.526.715h-.657c.024-.818.478-1.385,1.179-1.385.545,0,1.144.395,1.144,1.11,0,.378-.16.715-.477.818v.011c.374.098.604.464.604.91,0,.841-.599,1.315-1.266,1.315-.765,0-1.28-.538-1.266-1.458h.657c.015.435.199.79.599.79.312,0,.555-.252.555-.629,0-.606-.453-.595-.789-.595v-.572Z"/>
        <path d="M72.145,33.947h-.861l-1.13-4.085h.789l.773,2.873h.01l.784-2.873h.788l-1.153,4.085Z"/>
        <path d="M73.749,33.065h.765v.881h-.765v-.881Z"/>
        <path d="M78.933,31.561c.297.029.726-.04.726-.498,0-.338-.229-.532-.481-.532-.346,0-.531.303-.526.715h-.657c.024-.818.478-1.385,1.179-1.385.545,0,1.144.395,1.144,1.11,0,.378-.16.715-.477.818v.011c.374.098.604.464.604.91,0,.841-.599,1.315-1.266,1.315-.765,0-1.28-.538-1.266-1.458h.657c.015.435.199.79.599.79.312,0,.555-.252.555-.629,0-.606-.453-.595-.789-.595v-.572Z"/>
        <path d="M82.169,29.861c.681,0,1.256.503,1.256,2.065,0,1.597-.575,2.1-1.256,2.1-.672,0-1.246-.503-1.246-2.1,0-1.562.574-2.065,1.246-2.065ZM82.169,33.357c.564,0,.564-.979.564-1.431,0-.417,0-1.396-.564-1.396-.556,0-.556.979-.556,1.396,0,.452,0,1.431.556,1.431Z"/>
        <path d="M85.166,29.861c.681,0,1.256.503,1.256,2.065,0,1.597-.575,2.1-1.256,2.1-.672,0-1.246-.503-1.246-2.1,0-1.562.574-2.065,1.246-2.065ZM85.166,33.357c.564,0,.564-.979.564-1.431,0-.417,0-1.396-.564-1.396-.556,0-.556.979-.556,1.396,0,.452,0,1.431.556,1.431Z"/>
        <path d="M87.098,30.988h.652v.401h.01c.18-.303.443-.481.77-.481.315,0,.599.138.734.492.146-.257.409-.492.76-.492.535,0,.92.292.92,1.059v1.98h-.691v-1.677c0-.395-.029-.721-.424-.721-.389,0-.462.377-.462.75v1.648h-.691v-1.659c0-.344.02-.738-.419-.738-.136,0-.467.103-.467.681v1.717h-.691v-2.958Z"/>
        <path d="M92.801,29.861h.783l1.3,4.085h-.793l-.263-.91h-1.3l-.272.91h-.774l1.319-4.085ZM92.728,32.368h.9l-.438-1.5h-.01l-.453,1.5Z"/>
        <path d="M95.676,33.065h.765v.881h-.765v-.881Z"/>
      </g>
      <g>
        <path d="M5.388,42.013h1.567c.866,0,1.202.646,1.202,1.311s-.336,1.311-1.202,1.311h-.804v1.465h-.764v-4.086ZM6.151,43.936h.595c.354,0,.671-.092.671-.612s-.316-.612-.671-.612h-.595v1.225Z"/>
        <path d="M8.773,44.05c.039-.761.618-.99,1.183-.99.502,0,1.105.132,1.105.842v1.539c0,.269.024.538.088.658h-.701c-.024-.092-.044-.189-.049-.286-.219.269-.54.366-.847.366-.478,0-.857-.28-.857-.887,0-.67.429-.83.857-.898.423-.075.817-.058.817-.39,0-.349-.204-.4-.447-.4-.264,0-.434.126-.458.446h-.691ZM10.37,44.65c-.116.12-.36.126-.574.172-.214.052-.409.138-.409.435,0,.304.2.378.424.378.54,0,.56-.503.56-.681v-.304Z"/>
        <path d="M12.715,43.14h.507v.544h-.507v1.465c0,.274.059.344.292.344.073,0,.142-.006.215-.023v.636c-.117.022-.268.028-.404.028-.424,0-.793-.114-.793-.704v-1.745h-.419v-.544h.419v-.887h.69v.887Z"/>
        <path d="M13.824,45.217h.765v.882h-.765v-.882Z"/>
        <path d="M17.061,42.013h.764v4.086h-.764v-4.086Z"/>
        <path d="M19.201,45.137c.005.355.259.498.531.498.199,0,.452-.092.452-.378,0-.246-.287-.331-.783-.457-.399-.104-.799-.27-.799-.79,0-.755.556-.95,1.096-.95.55,0,1.056.218,1.109.944h-.657c-.02-.314-.224-.4-.472-.4-.156,0-.385.034-.385.274,0,.292.39.332.784.44.403.109.798.281.798.83,0,.778-.574,1.03-1.148,1.03-.584,0-1.154-.258-1.183-1.042h.656Z"/>
        <path d="M22.057,45.137c.005.355.259.498.531.498.199,0,.452-.092.452-.378,0-.246-.287-.331-.783-.457-.399-.104-.799-.27-.799-.79,0-.755.556-.95,1.096-.95.55,0,1.056.218,1.109.944h-.657c-.02-.314-.224-.4-.472-.4-.156,0-.385.034-.385.274,0,.292.39.332.784.44.403.109.798.281.798.83,0,.778-.574,1.03-1.148,1.03-.584,0-1.154-.258-1.183-1.042h.656Z"/>
        <path d="M26.739,46.099h-.657v-.412h-.015c-.176.332-.478.492-.77.492-.734,0-.92-.486-.92-1.219v-1.82h.691v1.671c0,.486.122.728.443.728.374,0,.535-.246.535-.848v-1.551h.691v2.959Z"/>
        <path d="M28.075,44.816c.02.516.234.75.618.75.277,0,.502-.2.546-.384h.608c-.195.698-.608.996-1.179.996-.793,0-1.284-.641-1.284-1.557,0-.887.521-1.562,1.284-1.562.857,0,1.271.848,1.222,1.757h-1.815ZM29.2,44.302c-.063-.412-.215-.63-.551-.63-.438,0-.564.401-.574.63h1.125Z"/>
        <path d="M32.338,45.721h-.01c-.16.32-.442.458-.764.458-.76,0-1.129-.767-1.129-1.585,0-.796.374-1.534,1.114-1.534.297,0,.589.149.745.441h.01v-1.488h.69v4.086h-.657v-.378ZM31.734,43.672c-.452,0-.608.458-.608.944,0,.464.181.95.608.95.458,0,.594-.47.594-.956,0-.48-.146-.938-.594-.938Z"/>
        <path d="M35.325,44.05c.039-.761.618-.99,1.183-.99.502,0,1.105.132,1.105.842v1.539c0,.269.024.538.088.658h-.701c-.024-.092-.044-.189-.049-.286-.219.269-.54.366-.847.366-.478,0-.856-.28-.856-.887,0-.67.428-.83.856-.898.423-.075.817-.058.817-.39,0-.349-.204-.4-.447-.4-.264,0-.434.126-.458.446h-.691ZM36.922,44.65c-.117.12-.36.126-.574.172-.214.052-.409.138-.409.435,0,.304.2.378.424.378.54,0,.56-.503.56-.681v-.304Z"/>
        <path d="M38.391,43.14h.657v.412h.015c.175-.332.477-.492.77-.492.734,0,.92.486.92,1.219v1.82h-.691v-1.671c0-.486-.122-.727-.443-.727-.375,0-.535.246-.535.847v1.551h-.691v-2.959Z"/>
        <path d="M43.315,45.721h-.01c-.16.32-.442.458-.764.458-.76,0-1.13-.767-1.13-1.585,0-.796.375-1.534,1.115-1.534.297,0,.589.149.745.441h.009v-1.488h.691v4.086h-.657v-.378ZM42.712,43.672c-.452,0-.608.458-.608.944,0,.464.181.95.608.95.458,0,.594-.47.594-.956,0-.48-.146-.938-.594-.938Z"/>
        <path d="M46.404,42.013h1.567c.866,0,1.202.646,1.202,1.311s-.336,1.311-1.202,1.311h-.804v1.465h-.764v-4.086ZM47.168,43.936h.595c.354,0,.671-.092.671-.612s-.316-.612-.671-.612h-.595v1.225Z"/>
        <path d="M50.39,44.816c.02.516.234.75.618.75.277,0,.502-.2.546-.384h.608c-.195.698-.608.996-1.179.996-.793,0-1.284-.641-1.284-1.557,0-.887.521-1.562,1.284-1.562.857,0,1.271.848,1.222,1.757h-1.815ZM51.515,44.302c-.063-.412-.215-.63-.551-.63-.438,0-.564.401-.574.63h1.125Z"/>
        <path d="M52.856,43.14h.657v.412h.015c.175-.332.477-.492.77-.492.734,0,.92.486.92,1.219v1.82h-.691v-1.671c0-.486-.122-.727-.443-.727-.375,0-.535.246-.535.847v1.551h-.691v-2.959Z"/>
        <path d="M57.78,45.721h-.01c-.16.32-.442.458-.764.458-.76,0-1.13-.767-1.13-1.585,0-.796.375-1.534,1.115-1.534.297,0,.589.149.745.441h.009v-1.488h.691v4.086h-.657v-.378ZM57.177,43.672c-.452,0-.608.458-.608.944,0,.464.181.95.608.95.458,0,.594-.47.594-.956,0-.48-.146-.938-.594-.938Z"/>
        <path d="M59.23,45.217h.765v.882h-.765v-.882Z"/>
      </g>
      <path d="M7.153,35.908c1.114,0,2.02.906,2.02,2.019s-.906,2.019-2.02,2.019-2.02-.906-2.02-2.019.906-2.019,2.02-2.019M7.153,35.588c-1.292,0-2.34,1.047-2.34,2.339s1.048,2.339,2.34,2.339,2.34-1.047,2.34-2.339-1.048-2.339-2.34-2.339h0Z"/>
      <path d="M12.712,35.908c1.114,0,2.02.906,2.02,2.019s-.906,2.019-2.02,2.019-2.02-.906-2.02-2.019.906-2.019,2.02-2.019M12.712,35.588c-1.292,0-2.34,1.047-2.34,2.339s1.048,2.339,2.34,2.339,2.34-1.047,2.34-2.339-1.048-2.339-2.34-2.339h0Z"/>
      <path d="M7.21,36.826c-.189,0-.351.046-.483.139s-.233.22-.302.382c-.067.163-.102.349-.102.56,0,.229.034.428.102.597.068.168.168.298.3.389s.289.136.475.136c.21,0,.384-.059.521-.176.137-.117.231-.287.285-.51l.352.083c-.042.188-.116.351-.223.488-.105.137-.237.242-.396.314-.158.073-.334.109-.527.109-.263,0-.489-.057-.678-.171-.189-.114-.334-.278-.435-.492s-.15-.469-.15-.766c0-.282.054-.529.161-.739.106-.21.256-.372.448-.483.191-.112.409-.168.655-.168.283,0,.52.068.707.204.188.136.318.333.39.592l-.354.083c-.057-.192-.147-.335-.271-.429s-.282-.142-.476-.142Z"/>
      <path d="M12.575,38.377c.057.17.095.287.113.35.018.06.03.104.037.134h.008c.007-.022.028-.086.063-.193l.081-.245.636-1.858h.495v2.726h-.342v-2.282h-.008l-.785,2.282h-.323l-.781-2.319h-.011v2.319h-.342v-2.726h.552l.606,1.813Z"/>
      <path d="M29.941,38.763h-.894c-.166,0-.3-.134-.3-.3s.134-.3.3-.3h.894c.166,0,.3.134.3.3s-.134.3-.3.3Z"/>
    </g>
    <g>
      <path d="M128.202,58.532c-.038-.274-.301-.482-.602-.482-.545,0-.749.463-.749.945,0,.46.204.923.749.923.37,0,.579-.255.625-.617h.587c-.062.687-.536,1.127-1.212,1.127-.854,0-1.355-.637-1.355-1.433,0-.818.502-1.455,1.355-1.455.605,0,1.115.355,1.188.992h-.587Z"/>
      <path d="M130.191,57.54h.44l-1.077,2.888h-.439l1.076-2.888Z"/>
      <path d="M131.051,57.605h.853l.646,1.896h.007l.61-1.896h.854v2.757h-.567v-1.954h-.008l-.676,1.954h-.467l-.676-1.935h-.008v1.935h-.567v-2.757Z"/>
      <path d="M136.743,60.05c-.213.273-.49.378-.757.378-.854,0-1.355-.637-1.355-1.433,0-.818.502-1.455,1.355-1.455.563,0,1.096.348,1.162.973h-.579c-.069-.305-.298-.463-.583-.463-.545,0-.749.463-.749.945,0,.46.204.923.749.923.394,0,.621-.212.656-.595h-.61v-.451h1.158v1.49h-.386l-.062-.312Z"/>
      <path d="M137.879,57.605h1.297c.525,0,.88.17.88.684,0,.271-.135.459-.374.575.336.097.506.355.506.698,0,.561-.476.8-.973.8h-1.336v-2.757ZM138.484,58.722h.614c.212,0,.37-.097.37-.328,0-.263-.2-.316-.416-.316h-.568v.645ZM138.484,59.891h.649c.239,0,.447-.077.447-.362,0-.282-.178-.394-.437-.394h-.66v.756Z"/>
      <path d="M140.732,59.072h1.161v.472h-1.161v-.472Z"/>
      <path d="M142.561,57.605h.602l1.15,1.85h.008v-1.85h.567v2.757h-.605l-1.146-1.846h-.008v1.846h-.567v-2.757Z"/>
      <path d="M146.854,57.54c.853,0,1.354.637,1.354,1.455,0,.796-.502,1.433-1.354,1.433s-1.355-.637-1.355-1.433c0-.818.502-1.455,1.355-1.455ZM146.854,59.918c.544,0,.749-.463.749-.923,0-.482-.205-.945-.749-.945s-.749.463-.749.945c0,.46.204.923.749.923Z"/>
      <path d="M148.82,57.605h2.062v.51h-1.456v.591h1.336v.471h-1.336v.676h1.486v.51h-2.092v-2.757Z"/>
    </g>
    <g>
      <path d="M5.025,57.383h.678l.512,1.79h.007l.484-1.79h.678v2.604h-.451v-1.845h-.006l-.537,1.845h-.371l-.536-1.827h-.007v1.827h-.45v-2.604Z"/>
      <path d="M8.688,57.383h.494l.818,2.604h-.5l-.165-.58h-.819l-.172.58h-.487l.831-2.604ZM8.642,58.98h.567l-.276-.956h-.006l-.285.956Z"/>
      <path d="M10.476,57.383h.944c.567,0,.994.423.994,1.287,0,.755-.325,1.316-.994,1.316h-.944v-2.604ZM10.958,59.505h.429c.279,0,.546-.204.546-.78,0-.525-.153-.86-.631-.86h-.344v1.641Z"/>
      <path d="M13.034,57.383h1.638v.481h-1.156v.558h1.061v.445h-1.061v.638h1.181v.481h-1.662v-2.604Z"/>
      <path d="M16.445,57.383h.481v2.604h-.481v-2.604Z"/>
      <path d="M17.636,57.383h.479l.914,1.747h.006v-1.747h.45v2.604h-.481l-.91-1.743h-.007v1.743h-.45v-2.604Z"/>
      <path d="M22.792,58.258c-.031-.259-.239-.456-.479-.456-.433,0-.596.438-.596.894,0,.435.163.872.596.872.294,0,.46-.241.496-.584h.467c-.049.649-.427,1.065-.963,1.065-.678,0-1.077-.602-1.077-1.354,0-.772.399-1.375,1.077-1.375.481,0,.886.336.944.938h-.466Z"/>
      <path d="M23.89,57.383h.481v.999h.886v-.999h.481v2.604h-.481v-1.123h-.886v1.123h-.481v-2.604Z"/>
      <path d="M26.448,57.383h.481v2.604h-.481v-2.604Z"/>
      <path d="M27.638,57.383h.479l.914,1.747h.006v-1.747h.45v2.604h-.481l-.91-1.743h-.007v1.743h-.45v-2.604Z"/>
      <path d="M30.793,57.383h.494l.818,2.604h-.5l-.165-.58h-.819l-.172.58h-.487l.831-2.604ZM30.748,58.98h.567l-.276-.956h-.006l-.285.956Z"/>
    </g>
    <path d="M8.984,6.586l-1.127-1.822h-.81v2.62h.81v-1.822l1.127,1.822h.803v-2.62h-.81l.007,1.822ZM15.39,5.647v-.261h-.423v-.353h-.789v.353h-.43v.261h.43v1.737h.789v-1.737h.423,0ZM10.239,7.377h.782v-1.737h-.782v1.737ZM10.239,5.301h.789v-.537h-.789v.537h0ZM23.994,5.52c-.634,0-1.149.438-1.149.974s.514.975,1.148.975,1.149-.438,1.149-.975-.514-.974-1.149-.974ZM24.311,6.862c0,.275-.162.388-.317.388s-.324-.113-.324-.388v-.735c0-.275.162-.388.324-.388.155,0,.317.113.317.388v.735ZM21.816,5.725c-.127-.071-.261-.141-.444-.156-.564-.049-1.001.452-1.001.911,0,.607.465.826.536.862.268.12.606.127.902-.064v.099h.775v-2.613h-.775c.007,0,.007.558.007.96h0ZM21.823,6.502v.311c0,.268-.183.339-.31.339s-.31-.07-.31-.339v-.621c0-.268.183-.339.31-.339.12,0,.31.07.31.339v.311h0ZM12.86,5.562c-.261.007-.472.12-.627.261v-.184h-.782v1.737h.782v-1.144c0-.148.162-.318.374-.318s.359.17.359.318v1.144h.782v-.946c0-.685-.592-.883-.888-.869h0ZM19.237,5.562c-.234.007-.458.1-.627.261v-.184h-.782v1.737h.782v-1.144c0-.148.162-.318.373-.318s.359.17.359.318v1.144h.782v-.946c0-.685-.592-.883-.888-.869h0ZM17.595,6.516c0-.537-.521-.989-1.156-.989-.641,0-1.156.438-1.156.975s.514.974,1.156.974c.528,0,.979-.304,1.113-.713h-.782v.106c0,.318-.212.388-.324.388-.12,0-.331-.071-.331-.388v-.36l1.48.007h0ZM16.172,5.901c.058-.096.162-.155.275-.155.106,0,.212.05.275.155.049.085.049.191.049.339h-.655c0-.148.007-.247.056-.339ZM25.452,5.089c0-.085-.063-.127-.19-.127h-.176v.445h.106v-.184h.056l.085.184h.12l-.099-.198c.063-.021.099-.063.099-.12ZM25.248,5.153h-.056v-.127h.049c.063,0,.099.021.099.064,0,.049-.028.063-.092.063ZM25.255,4.785c-.219,0-.401.184-.401.403s.183.403.402.403.401-.184.401-.403c0-.222-.179-.402-.401-.403h0ZM25.255,5.513c-.178-.002-.322-.147-.324-.325,0-.177.148-.325.324-.325s.324.148.324.325-.148.325-.324.325h0ZM24.374,3.295H7.751c-1.762-.007-2.938,1.264-2.938,2.783s1.177,2.775,2.945,2.775h16.623c1.769,0,2.945-1.257,2.945-2.776-.007-1.518-1.191-2.782-2.952-2.782ZM24.367,8.175H7.758c-1.402.007-2.255-.939-2.255-2.098s.86-2.091,2.255-2.098h16.609c1.395,0,2.255.939,2.255,2.098s-.853,2.098-2.255,2.098h0Z"/>
    <g>
      <path d="M45.205,18.517v-1.034h-.369v-.21h.989v.21h-.368v1.034h-.252ZM45.983,18.517v-1.244h.377l.225.849.223-.849h.377v1.244h-.233v-.979l-.247.979h-.242l-.246-.979v.979h-.234Z"/>
      <path d="M10.977,12.834c-.545-.12-1.036-.181-1.473-.181-.509,0-.979.071-1.413.214-.433.143-.803.347-1.11.615-.309.267-.546.58-.712.94-.167.36-.251.732-.251,1.118,0,.406.084.763.253,1.072.169.31.41.55.724.722.314.172.673.257,1.075.257.191,0,.383-.01.574-.032.19-.021.389-.07.593-.148l.17-1.245h-1.089l.122-.88h2.241l-.418,2.898c-.273.123-.596.224-.97.301-.374.078-.769.117-1.184.117-.499,0-.954-.072-1.364-.216-.41-.145-.758-.351-1.043-.62-.286-.269-.505-.592-.659-.967-.154-.376-.231-.783-.231-1.221,0-.421.072-.833.216-1.237.145-.403.353-.775.627-1.113.274-.338.598-.624.972-.855.375-.232.807-.413,1.296-.543.49-.13,1.039-.194,1.649-.194.476,0,.988.054,1.536.161l-.131,1.036h0Z"/>
      <path d="M14.365,15.848l-.447-2.888h-.025l-1.172,2.888h1.644ZM15.935,18.517h-1.123l-.321-1.842h-2.12l-.787,1.842h-1.216l3.141-6.849h1.162l1.265,6.849h0Z"/>
      <polygon points="23.868 18.517 22.769 18.517 22.684 13.617 22.665 13.617 20.095 18.517 19.791 18.517 18.65 13.539 18.631 13.539 17.06 18.517 15.942 18.517 18.106 11.725 19.224 11.725 20.269 16.179 22.576 11.725 23.73 11.725 23.868 18.517 23.868 18.517"/>
      <polygon points="29.232 11.725 29.091 12.683 26.344 12.683 26.077 14.574 28.508 14.574 28.367 15.531 25.936 15.531 25.659 17.559 29.101 17.559 28.964 18.516 24.375 18.516 25.337 11.725 29.232 11.725 29.232 11.725"/>
      <path d="M33.062,11.725c.762,0,1.334.139,1.718.416.384.278.576.689.576,1.238,0,.323-.073.606-.22.848-.146.241-.382.446-.707.615.415.129.731.338.949.627s.327.64.327,1.055c0,.636-.238,1.126-.712,1.473-.475.347-1.14.52-1.994.52h-1.953l.887-6.792h1.129,0ZM32.641,14.405c.045.006.095.009.152.009h.251c.401,0,.71-.077.93-.233.22-.156.329-.389.329-.7,0-.252-.08-.451-.242-.597-.161-.146-.39-.219-.686-.219h-.264c-.087,0-.168.003-.242.01l-.228,1.731h0ZM32.833,17.593c.582,0,1.026-.087,1.33-.262.305-.175.457-.467.457-.875,0-.354-.136-.629-.408-.827-.272-.197-.656-.296-1.152-.296h-.542l-.309,2.26h.623,0Z"/>
      <path d="M40.641,14.554c0-.372-.06-.702-.179-.991s-.291-.512-.514-.672c-.222-.159-.48-.238-.772-.238-.367,0-.706.129-1.018.387s-.564.626-.76,1.106c-.194.479-.293.98-.293,1.502,0,.389.063.731.186,1.026.124.295.298.522.522.681.224.159.484.238.779.238.364,0,.704-.133,1.02-.401s.567-.638.751-1.111c.186-.473.278-.982.278-1.527h0ZM41.66,14.594c0,.758-.134,1.444-.4,2.057-.267.612-.637,1.091-1.111,1.436-.474.345-.996.518-1.565.518-.474,0-.903-.128-1.286-.385-.382-.256-.679-.613-.89-1.071-.21-.458-.315-.971-.315-1.539,0-.519.078-1.021.234-1.507.156-.486.376-.918.663-1.294.286-.376.62-.665,1.003-.868.383-.202.792-.304,1.227-.304.473,0,.898.125,1.273.374.374.25.663.601.864,1.053.202.452.303.963.303,1.53h0Z"/>
      <polygon points="46.976 11.725 44.516 15.372 44.079 18.517 42.932 18.517 43.379 15.372 41.857 11.725 43.024 11.725 44.06 14.278 45.722 11.725 46.976 11.725 46.976 11.725"/>
      <path d="M48.324,18.605h-.137c-.092,0-.168-.075-.168-.168v-6.632c0-.092.075-.168.168-.168h20.281c.092,0,.168.075.168.168v6.632c0,.092-.075.168-.168.168h-19.405l.14-1.012c.005.007.067.014.188.02.121.007.19.011.208.011.307,0,.577-.054.812-.164.234-.109.432-.251.591-.427.161-.176.282-.374.364-.594.082-.22.123-.443.123-.667,0-.267-.056-.507-.167-.72-.111-.213-.267-.379-.466-.497-.2-.118-.424-.177-.671-.177-.213,0-.396.027-.547.08l.011-.08h-.736l-.591,4.226h0ZM65.931,14.459l-.087.554h-.65l-.23,1.326c-.029.152-.044.272-.044.36,0,.071.027.133.08.184.053.051.124.077.213.077.097,0,.19-.016.279-.047.087-.032.183-.077.288-.137l-.02.68c-.095.052-.207.092-.336.122-.129.03-.267.046-.414.046-.167,0-.314-.031-.442-.092-.127-.062-.227-.147-.298-.257-.071-.11-.107-.23-.107-.361,0-.134.03-.362.09-.685l.216-1.216h-.58l.09-.554h.593l.11-.641h.737l-.116.641h.627,0ZM57.62,15.116c-.091-.032-.182-.054-.274-.068-.091-.015-.201-.022-.33-.022-.217,0-.419.05-.602.152-.182.101-.329.241-.439.419-.11.178-.166.368-.166.571,0,.262.072.465.217.61.145.144.348.216.61.216.151,0,.289-.018.412-.054.124-.035.271-.094.443-.177l-.084.688c-.289.115-.588.174-.9.174-.285,0-.538-.061-.759-.181-.221-.12-.392-.292-.513-.515-.122-.224-.182-.478-.182-.762,0-.327.086-.628.259-.904.173-.276.411-.492.717-.649.306-.157.643-.235,1.012-.235.109,0,.224.007.346.022.123.014.231.034.327.059l-.093.657h0ZM62.442,14.379c.231,0,.438.054.619.162.182.108.322.261.42.458.099.198.149.422.149.671,0,.111-.011.229-.034.353h-1.96c-.013.078-.02.149-.02.213,0,.165.033.309.098.431.065.124.158.218.275.284.118.065.25.098.397.098.145,0,.303-.03.477-.091s.37-.154.59-.279l-.123.651c-.356.195-.705.294-1.048.294-.278,0-.523-.062-.735-.183-.212-.123-.376-.299-.49-.527-.115-.229-.172-.492-.172-.788,0-.317.068-.612.206-.882.138-.27.326-.482.565-.635.239-.154.501-.23.785-.23h0ZM54.735,15.78c0,.34-.069.652-.206.936-.138.283-.33.505-.575.667-.246.161-.516.242-.809.242-.261,0-.493-.061-.697-.181-.204-.12-.362-.29-.473-.509-.111-.218-.167-.465-.167-.738,0-.331.071-.638.214-.921.144-.282.34-.502.589-.66.249-.159.518-.237.807-.237.256,0,.484.057.683.173.2.115.356.281.467.495.111.214.167.458.167.732h0ZM59.134,13.471l-.333,2.355.013.013,1.197-1.38h.921l-1.357,1.463,1.27,1.617h-.924l-1.14-1.544-.217,1.544h-.733l.573-4.069h.73ZM50.74,15.785c0-.262-.067-.471-.203-.627-.136-.155-.318-.233-.547-.233-.082,0-.155.006-.217.019-.062.012-.131.037-.206.074l-.274,1.967c.018.007.056.013.113.019.058.006.114.008.167.008.229,0,.43-.05.602-.15.173-.1.309-.248.412-.445.102-.196.154-.407.154-.632h0ZM53.978,15.743c0-.227-.053-.412-.157-.555-.104-.144-.246-.215-.424-.215-.16,0-.304.058-.431.176-.126.116-.226.277-.3.48-.073.203-.11.411-.11.622,0,.144.026.275.076.392.052.116.121.206.208.27.088.063.184.095.289.095.158,0,.302-.056.431-.167.13-.111.232-.265.306-.459s.11-.407.11-.638h0ZM62.919,15.566v-.054c0-.179-.044-.319-.132-.423-.087-.104-.212-.157-.375-.157-.32,0-.549.211-.69.634h1.197Z" fill-rule="evenodd"/>
    </g>
    <rect x="4.813" y="19.828" width="146.247" height="1.5"/>
    <g>
      <path d="M91.845,52.157v2.024h0c-.221.022-.447.034-.675.034-3.764,0-6.832-3.069-6.832-6.83s3.069-6.83,6.832-6.83c.228,0,.454.012.675.034h0v2.024h0c-.221-.032-.447-.049-.675-.049-2.656,0-4.823,2.167-4.823,4.82s2.167,4.821,4.823,4.821c.228,0,.454-.017.675-.049h0Z" fill-rule="evenodd"/>
      <path d="M98.201,46.342h3.946v2.087h-3.946c.479,2.155,2.408,3.776,4.706,3.776.228,0,.457-.017.678-.049h0v2.024h0c-.224.022-.449.034-.678.034-3.764,0-6.83-3.069-6.83-6.83s3.066-6.83,6.83-6.83c.228,0,.454.012.678.034h0v2.024h0c-.224-.032-.449-.049-.678-.049-2.298,0-4.228,1.621-4.706,3.778h0Z" fill-rule="evenodd"/>
    </g>
    <g>
      <g>
        <path d="M141.857,53.053c0,.226.132.334.391.334.179,0,.383-.086.383-.311,0-.169-.104-.225-.251-.263-.064-.016-.224-.039-.224-.133,0-.087.086-.117.165-.117.096,0,.172.037.169.142h.196c0-.217-.161-.303-.353-.303-.182,0-.373.083-.373.292,0,.162.118.216.237.253.117.036.238.054.238.146,0,.093-.096.133-.179.133-.118,0-.209-.041-.203-.174h-.196ZM142.689,53.365h.188l.145-.681h-.188l-.145.681ZM143.077,52.426h-.188l-.034.154h.188l.034-.154ZM143.748,52.92c-.004-.18-.14-.254-.305-.254-.245,0-.384.194-.384.425,0,.199.113.292.303.292.176,0,.295-.097.351-.267h-.187c-.021.067-.068.126-.151.126-.095,0-.129-.066-.129-.147,0-.117.049-.288.191-.288.082,0,.125.033.125.113h.187ZM143.762,53.365h.187l.076-.362c.02-.095.078-.19.191-.19.043,0,.089.029.089.07,0,.018-.007.063-.012.083l-.083.399h.187l.084-.399c.005-.024.02-.089.02-.117,0-.118-.07-.183-.199-.183-.122,0-.196.058-.225.097h-.003l.07-.338h-.187l-.196.94ZM145.278,53.071c.007-.033.011-.07.011-.107,0-.197-.128-.298-.317-.298-.232,0-.375.203-.375.42,0,.193.121.297.303.297.196,0,.294-.082.353-.234h-.187c-.028.043-.065.093-.14.093-.101,0-.15-.054-.15-.133,0-.011,0-.022.001-.039h.502ZM144.796,52.952c.028-.076.08-.145.186-.145.109,0,.126.075.126.145h-.312ZM145.323,53.365h.187l.063-.301c.025-.116.076-.224.22-.224.026,0,.053.007.079.012l.038-.182c-.02-.003-.038-.004-.058-.004-.1,0-.192.05-.234.144l-.003-.003.028-.122h-.178l-.142.681ZM145.836,53.365h.187l.076-.362c.02-.095.078-.19.191-.19.043,0,.089.029.089.07,0,.018-.007.063-.012.083l-.083.399h.187l.084-.399c.005-.024.02-.089.02-.117,0-.118-.07-.183-.199-.183-.122,0-.196.058-.225.097h-.003l.07-.338h-.187l-.196.94ZM147.351,53.071c.007-.033.011-.07.011-.107,0-.197-.128-.298-.317-.298-.232,0-.375.203-.375.42,0,.193.121.297.303.297.196,0,.294-.082.353-.234h-.187c-.028.043-.065.093-.14.093-.101,0-.15-.054-.15-.133,0-.011,0-.022.001-.039h.502ZM146.87,52.952c.028-.076.08-.145.186-.145.109,0,.126.075.126.145h-.312ZM147.397,53.365h.188l.145-.681h-.188l-.145.681ZM147.785,52.426h-.188l-.034.154h.188l.034-.154ZM148.162,52.478h-.187l-.042.207h-.12l-.029.125h.122l-.076.365c-.005.024-.009.047-.009.064-.003.111.091.138.178.138.039,0,.079-.003.117-.007l.032-.145c-.022.003-.045.004-.067.004-.028,0-.063-.001-.063-.05,0-.005.003-.017.005-.032l.07-.338h.133l.029-.125h-.134l.042-.207ZM142.251,51.489c.091,0,.134.062.134.147,0,.116-.065.259-.199.259-.087,0-.126-.07-.126-.15,0-.109.066-.257.191-.257ZM142.627,51.367h-.179l-.021.104h-.003c-.038-.089-.115-.122-.208-.122-.219,0-.344.212-.344.411,0,.167.1.278.262.278.076,0,.138-.032.187-.096l.003.003c-.037.133-.071.237-.19.237-.061,0-.125-.029-.122-.097h-.187c0,.163.153.222.291.222.225,0,.329-.087.375-.294l.136-.645ZM143.35,51.752c.007-.033.011-.07.011-.107,0-.197-.128-.298-.317-.298-.232,0-.375.203-.375.42,0,.194.121.297.303.297.196,0,.294-.082.353-.234h-.187c-.028.043-.064.093-.14.093-.101,0-.15-.054-.15-.133,0-.011,0-.022.001-.039h.502ZM142.869,51.634c.028-.076.08-.145.186-.145.109,0,.126.075.126.145h-.312ZM143.837,51.489c.088,0,.133.07.133.151,0,.12-.063.284-.204.284-.091,0-.134-.061-.134-.147,0-.117.066-.288.205-.288ZM143.334,52.287h.187l.071-.33h.004c.029.075.112.109.191.109.251,0,.37-.225.37-.449,0-.163-.095-.269-.258-.269-.083,0-.162.032-.204.105l-.003-.003.018-.084h-.18l-.196.92ZM144.201,52.047h.187l.063-.301c.025-.116.076-.224.22-.224.026,0,.053.007.079.012l.038-.182c-.02-.003-.038-.004-.058-.004-.1,0-.192.05-.234.144l-.003-.003.028-.122h-.178l-.142.681ZM145.258,51.261h.172l.032-.154h-.172l-.032.154ZM145,51.261h.172l.032-.154h-.172l-.032.154ZM145.501,51.367h-.187l-.076.362c-.02.095-.078.19-.191.19-.043,0-.089-.029-.089-.07,0-.018.007-.063.012-.083l.083-.399h-.187l-.084.399c-.005.024-.02.09-.02.117,0,.118.07.183.199.183.097,0,.178-.038.238-.113h.003l-.021.095h.179l.142-.681ZM145.556,52.047h.187l.117-.556h.134l.026-.125h-.133c.02-.079.018-.126.111-.126.02,0,.041.003.061.004l.029-.134c-.041-.007-.082-.011-.122-.011-.196,0-.228.093-.265.267h-.112l-.026.125h.111l-.117.556ZM146.405,51.16h-.187l-.042.207h-.12l-.029.125h.122l-.076.365c-.005.024-.009.047-.009.064-.003.111.091.138.178.138.04,0,.079-.003.117-.007l.032-.145c-.022.003-.045.004-.067.004-.028,0-.063-.001-.063-.05,0-.005.003-.017.005-.032l.07-.338h.133l.029-.125h-.134l.042-.207ZM147.18,51.752c.007-.033.011-.07.011-.107,0-.197-.128-.298-.317-.298-.232,0-.375.203-.375.42,0,.194.121.297.303.297.196,0,.294-.082.353-.234h-.187c-.028.043-.064.093-.14.093-.101,0-.15-.054-.15-.133,0-.011,0-.022.001-.039h.502ZM146.698,51.634c.028-.076.08-.145.186-.145.109,0,.126.075.126.145h-.312ZM138.101,53.938h0c-.339-.025-.667-.087-.982-.18-.314-.094-.615-.219-.898-.374-1.456-.793-2.443-2.337-2.443-4.111h0s0,0,0,0c0-.345.037-.682.108-1.005.071-.324.175-.635.31-.93.69-1.516,2.165-2.599,3.906-2.729h0s.16-.013.16-.013h3.098s.028,0,.028,0l.003.027h0c.009.078.021.155.035.232.015.076.032.152.052.227.104.385.279.745.503,1.055l.006.008v1.198h-3.437s0,0,0,0h0c-.545,0-1.039.222-1.396.581-.357.359-.578.855-.578,1.403h0s0,0,0,0c0,.548.221,1.044.578,1.404.357.359.851.581,1.396.581h0s0,0,0,0h.224v-.543h-.128c-.378,0-.72-.153-.967-.401-.247-.247-.4-.589-.4-.967h0s0,0,0,0c0-.378.169-.72.433-.968.263-.247.621-.4.998-.4h0s0,0,0,0h2.864v5.919h-.031s-3.31,0-3.31,0h-.003s-.128-.013-.128-.013h0ZM144.82,44.488h0s0,0,0,0h0s2.612.01,2.612.01h.003c1.154.106,2.128.825,2.584,1.833.089.196.157.403.204.618.047.215.071.439.071.669h0c0,1.183-.651,2.212-1.613,2.751-.187.105-.386.191-.595.256-.208.065-.426.109-.65.13h0s-.003,0-.003,0l-5.572.013h-.031s0-.031,0-.031v-2.705s.031,0,.031,0h5.284c.097,0,.185-.039.248-.101.063-.063.103-.149.103-.244h0s0,0,0,0c0-.094-.054-.183-.133-.248-.08-.067-.184-.109-.282-.109h0s0,0,0,0h-3.186s-.031-.003-.031-.003l-.007-.002c-.836-.277-1.52-.888-1.896-1.675-.073-.153-.134-.312-.183-.478-.085-.29-.131-.596-.131-.914h0s0,0,0,0c0-.892.361-1.699.945-2.284.579-.58,1.378-.94,2.261-.946h0s.02,0,.02,0h0s0,0,0,0h0s2.303,0,2.303,0h.031v2.767h-2.386c-.097,0-.185.039-.248.101-.063.063-.103.149-.103.244h0s0,0,0,0c0,.095.039.182.103.244.064.063.151.101.248.101h0Z" fill-rule="evenodd"/>
      </g>
      <g>
        <path d="M145.722,40.619c2.832,0,5.137,2.304,5.137,5.137v3.614c0,2.832-2.304,5.137-5.137,5.137h-7.341c-2.832,0-5.137-2.304-5.137-5.137v-8.75h12.477M145.722,40.419h-12.677v8.95c0,2.947,2.389,5.337,5.337,5.337h7.341c2.947,0,5.337-2.389,5.337-5.337v-3.614c0-2.947-2.389-5.337-5.337-5.337h0Z"/>
        <path d="M145.722,40.619c2.832,0,5.137,2.304,5.137,5.137v3.614c0,2.832-2.304,5.137-5.137,5.137h-33.777c-2.832,0-5.137-2.304-5.137-5.137v-3.614c0-2.832,2.304-5.137,5.137-5.137h33.777M145.722,40.419h-33.777c-2.947,0-5.337,2.389-5.337,5.337v3.614c0,2.947,2.389,5.337,5.337,5.337h33.777c2.947,0,5.337-2.389,5.337-5.337v-3.614c0-2.947-2.389-5.337-5.337-5.337h0Z"/>
      </g>
      <g>
        <g>
          <path d="M108.883,49.76h.789v-.095h-.673v-1.043h-.115v1.138"/>
        </g>
        <g>
          <path d="M109.911,49.19c.005-.142.102-.189.233-.189.125,0,.227.024.227.166,0,.095-.049.107-.137.107-.228.035-.466.035-.466.272,0,.166.132.238.292.238.166,0,.241-.06.317-.166h.002c0,.082.018.142.126.142.028,0,.045,0,.067-.012v-.084c-.008.012-.021.012-.033.012-.041,0-.062-.024-.062-.059v-.439c0-.225-.167-.273-.318-.273-.2,0-.344.095-.353.285h.105ZM110.371,49.44c.001.166-.14.26-.302.26-.1,0-.194-.059-.194-.166,0-.166.224-.154.404-.189.028,0,.076-.012.091-.035h.002v.131" fill-rule="evenodd"/>
        </g>
        <g>
          <path d="M110.737,49.76h.107v-.486c.004-.154.104-.273.272-.273.172,0,.221.107.221.25v.51h.105v-.533c0-.191-.073-.32-.318-.32-.122,0-.238.071-.277.166h-.004v-.142h-.107v.83"/>
        </g>
        <g>
          <path d="M112.458,48.622h-.106v.474h-.005c-.045-.119-.171-.189-.301-.189-.262,0-.39.213-.39.439,0,.237.127.438.39.438.127,0,.265-.071.311-.178h.002v.154h.099v-1.138ZM111.764,49.345c0-.167.081-.344.282-.344.227,0,.306.177.306.344,0,.178-.079.355-.306.355-.201,0-.282-.178-.282-.355M112.773,49.285c.016-.142.112-.284.285-.284.172,0,.271.141.277.284h-.561ZM113.441,49.369c.008-.226-.104-.463-.382-.463-.275,0-.392.225-.392.439,0,.237.117.438.392.438.219,0,.334-.107.379-.297h-.107c-.033.131-.117.214-.272.214-.204,0-.284-.178-.285-.332h.667" fill-rule="evenodd"/>
        </g>
        <g>
          <path d="M114.26,49.178c-.007-.178-.146-.273-.319-.273-.153,0-.326.072-.326.238,0,.142.105.189.244.225l.135.024c.097.025.191.06.191.154,0,.107-.138.154-.238.154-.142,0-.246-.071-.255-.201h-.106c.016.201.154.285.355.285.162,0,.35-.072.35-.25,0-.142-.127-.213-.248-.225l-.14-.035c-.073-.012-.18-.048-.18-.131,0-.107.109-.142.205-.142.121,0,.221.047.227.178h.106"/>
        </g>
        <g>
          <path d="M115.228,48.93h-.107v.142h-.005c-.04-.084-.148-.166-.274-.166-.251,0-.393.189-.393.427,0,.225.115.414.393.414.124,0,.227-.071.274-.166h.005v.107c0,.201-.084.32-.279.32-.118,0-.231-.048-.254-.166h-.106c.015.178.187.248.36.248.282,0,.382-.154.386-.402v-.759ZM114.842,49.664c-.195,0-.286-.166-.286-.331,0-.167.084-.332.286-.332.2,0,.279.177.279.332,0,.177-.097.331-.279.331M115.543,49.285c.016-.142.112-.284.285-.284.172,0,.271.141.277.284h-.561ZM116.209,49.369c.009-.226-.102-.463-.381-.463-.275,0-.392.225-.392.439,0,.237.117.438.392.438.22,0,.334-.106.379-.297h-.107c-.032.131-.117.214-.272.214-.204,0-.284-.178-.285-.332h.666" fill-rule="evenodd"/>
        </g>
        <g>
          <path d="M116.611,49.76h.115l.213-.699h.002l.213.699h.117l.28-.83h-.112l-.222.711h-.004l-.213-.711h-.119l-.212.711h-.004l-.222-.711h-.113l.28.83"/>
        </g>
        <g>
          <path d="M117.779,49.285c.018-.142.113-.285.286-.285.172,0,.271.142.275.285h-.561ZM118.446,49.368c.008-.225-.102-.461-.381-.461-.275,0-.393.225-.393.438,0,.238.118.439.393.439.218,0,.333-.107.379-.297h-.107c-.033.131-.118.214-.272.214-.204,0-.285-.179-.286-.333h.667" fill-rule="evenodd"/>
        </g>
        <g>
          <path d="M118.64,49.76h.106v-.439c0-.166.131-.308.324-.297v-.106c-.158,0-.274.082-.328.213h-.004v-.201h-.098v.83"/>
        </g>
        <g>
          <path d="M119.255,49.76h.098v-.154h.004c.047.107.169.178.308.178.265,0,.391-.201.391-.439,0-.225-.126-.438-.391-.438-.128,0-.255.071-.3.189h-.004v-.474h-.106v1.138ZM119.948,49.344c0,.179-.081.357-.284.357-.225,0-.304-.178-.304-.357,0-.166.079-.344.304-.344.202,0,.284.178.284.344M120.333,49.285c.016-.142.113-.285.286-.285.172,0,.271.142.275.285h-.561ZM121.001,49.369c.008-.226-.102-.463-.382-.463-.275,0-.392.225-.392.438,0,.238.117.439.392.439.219,0,.333-.107.378-.297h-.105c-.034.131-.119.214-.273.214-.202,0-.284-.178-.286-.332h.668M121.324,49.19c.004-.141.1-.189.232-.189.124,0,.227.024.227.166,0,.095-.049.107-.137.107-.228.035-.465.035-.465.273,0,.166.129.237.29.237.167,0,.242-.059.315-.166h.005c0,.084.016.142.124.142.029,0,.046,0,.071-.012v-.084c-.008.012-.022.012-.035.012-.041,0-.06-.024-.06-.059v-.439c0-.225-.168-.272-.321-.272-.199,0-.341.094-.351.284h.106ZM121.783,49.44c.001.166-.142.261-.301.261-.1,0-.195-.06-.195-.166,0-.166.225-.154.405-.191.028,0,.074-.012.087-.035h.005v.131" fill-rule="evenodd"/>
        </g>
        <g>
          <path d="M122.166,49.76h.107v-.486c.002-.154.102-.273.272-.273.171,0,.22.107.22.25v.51h.105v-.533c0-.191-.073-.32-.318-.32-.121,0-.238.071-.277.166h-.002v-.142h-.107v.83M123.766,49.178c-.007-.178-.146-.272-.319-.272-.153,0-.326.071-.326.237,0,.142.104.189.241.226l.137.024c.097.024.189.059.189.154,0,.106-.138.154-.237.154-.141,0-.247-.072-.257-.202h-.105c.016.202.154.285.357.285.161,0,.348-.071.348-.248,0-.142-.127-.214-.248-.226l-.14-.035c-.073-.012-.18-.047-.18-.131,0-.107.111-.142.205-.142.12,0,.221.048.227.178h.107M124.167,48.693h-.106v.237h-.151v.094h.151v.558c-.001.142.047.189.188.189h.093v-.095c-.029.013-.059.013-.089.013-.076-.013-.086-.048-.086-.107v-.558h.175v-.094h-.175v-.237"/>
        </g>
        <g>
          <path d="M124.66,49.19c.002-.142.101-.189.231-.189.125,0,.228.024.228.166,0,.095-.048.107-.135.107-.229.035-.467.035-.467.272,0,.166.132.238.291.238.166,0,.242-.06.317-.166h.004c0,.082.016.142.125.142.028,0,.045,0,.069-.012v-.084c-.008.012-.022.012-.034.012-.042,0-.064-.024-.064-.059v-.439c0-.225-.166-.273-.319-.273-.199,0-.342.095-.352.285h.107ZM125.119,49.44c.002.166-.141.26-.304.26-.099,0-.193-.059-.193-.166,0-.166.225-.154.404-.189.028,0,.076-.012.089-.035h.004v.131" fill-rule="evenodd"/>
        </g>
        <g>
          <path d="M125.505,49.76h.106v-1.138h-.106v1.138ZM126.05,48.692h-.106v.238h-.152v.094h.152v.558c0,.142.047.189.189.189h.093v-.095c-.031.012-.061.012-.091.012-.075-.012-.086-.047-.086-.106v-.558h.177v-.094h-.177v-.238"/>
        </g>
        <g>
          <path d="M127.168,48.716h.393c.178,0,.27.072.27.213,0,.107-.087.191-.27.191h-.393v-.404ZM127.053,49.758h.508c.391,0,.431-.213.431-.319,0-.154-.1-.261-.255-.285.126-.024.209-.142.209-.261,0-.201-.182-.273-.385-.273h-.508v1.138ZM127.168,49.214h.393c.201,0,.317.072.317.213,0,.191-.148.238-.317.238h-.393v-.451M128.336,49.19c.002-.142.101-.189.231-.189.125,0,.228.024.228.166,0,.095-.048.107-.137.107-.228.035-.466.035-.466.272,0,.166.132.237.291.237.168,0,.242-.059.317-.165h.004c0,.082.016.141.125.141.028,0,.045,0,.069-.012v-.082c-.008.012-.022.012-.034.012-.042,0-.064-.024-.064-.059v-.439c0-.225-.166-.273-.318-.273-.2,0-.344.095-.353.285h.107ZM128.795,49.44c.001.165-.141.26-.304.26-.099,0-.192-.059-.192-.166,0-.166.222-.154.402-.189.028,0,.075-.012.089-.035h.004v.131" fill-rule="evenodd"/>
        </g>
        <g>
          <path d="M129.395,49.76l-.036.095c-.036.071-.058.129-.151.129-.024,0-.049-.012-.073-.012v.084c.016.012.039.012.081.012.133,0,.168-.035.228-.178l.378-.96h-.107l-.267.711-.285-.711h-.114l.346.83"/>
        </g>
        <g>
          <path d="M130.003,49.285c.018-.142.114-.285.287-.285.172,0,.27.142.274.285h-.561ZM130.672,49.368c.007-.225-.104-.461-.381-.461s-.393.225-.393.438c0,.238.117.439.393.439.218,0,.332-.107.378-.297h-.106c-.034.131-.117.214-.272.214-.205,0-.286-.179-.287-.333h.668" fill-rule="evenodd"/>
        </g>
        <g>
          <path d="M130.882,49.76h.106v-.439c0-.166.132-.308.324-.297v-.106c-.157,0-.274.082-.328.213h-.004v-.201h-.098v.83M131.51,49.76h.105v-.486c.002-.154.105-.273.272-.273.172,0,.22.107.22.25v.51h.107v-.533c0-.191-.073-.32-.318-.32-.122,0-.239.071-.279.166h-.002v-.142h-.105v.83"/>
        </g>
        <polygon points="110.555 52.622 109.475 50.943 109.463 50.925 109.093 50.925 109.093 53.282 109.456 53.282 109.456 51.583 110.538 53.264 110.549 53.282 110.918 53.282 110.918 50.925 110.555 50.925 110.555 52.622"/>
        <path d="M113.779,52.514c0,.12-.014.214-.043.28-.028.063-.072.113-.135.151-.064.038-.138.057-.222.057-.1,0-.176-.027-.229-.082-.052-.054-.079-.138-.079-.247v-1.118h-.356v1.155c0,.192.053.344.156.45.104.106.259.16.461.16.111,0,.213-.025.304-.073.06-.032.114-.072.162-.124v.158h.337v-1.727h-.356v.959Z"/>
        <rect x="113.537" y="50.987" width=".356" height=".394"/>
        <rect x="112.953" y="50.987" width=".358" height=".394"/>
        <path d="M116.773,51.537c-.046-.013-.096-.019-.15-.019-.097,0-.181.024-.25.072-.043.03-.086.072-.127.126v-.161h-.337v1.727h.356v-.918c0-.155.029-.277.087-.362.056-.081.135-.121.242-.121.07,0,.132.015.185.044l.039.021.123-.329-.027-.016c-.047-.029-.094-.05-.14-.063Z"/>
        <path d="M119.278,51.518c-.112,0-.217.026-.31.076-.059.032-.112.072-.158.121v-.16h-.337v1.727h.356v-.957c0-.173.036-.299.106-.375.071-.077.168-.114.296-.114.099,0,.174.027.227.082.053.054.079.138.079.247v1.118h.357v-1.155c0-.193-.053-.344-.158-.45-.105-.105-.259-.159-.459-.159Z"/>
        <path d="M122.874,51.628c-.113-.073-.247-.11-.399-.11-.181,0-.336.058-.46.173v-.766h-.356v2.357h.337v-.144c.045.047.097.086.157.115.09.045.191.067.299.067.147,0,.282-.037.4-.11.119-.074.212-.182.277-.321.066-.138.099-.304.099-.496,0-.171-.031-.324-.091-.455-.061-.133-.151-.237-.265-.311ZM122.446,51.823c.088,0,.161.022.224.069.063.047.111.113.144.201.035.091.053.2.053.324s-.019.234-.055.325c-.037.09-.086.157-.15.204-.064.046-.138.069-.225.069-.146,0-.253-.049-.328-.151-.077-.103-.115-.257-.115-.458,0-.117.02-.221.058-.309.038-.088.092-.156.16-.203.068-.047.147-.071.235-.071Z"/>
        <path d="M126.02,51.626c-.118-.072-.258-.108-.418-.108-.165,0-.309.038-.431.112-.122.075-.217.183-.283.321-.064.136-.097.297-.097.48,0,.178.033.335.099.468.066.135.162.24.284.313.123.072.268.109.431.109.186,0,.349-.049.483-.147.135-.098.228-.236.277-.41l.012-.041-.35-.053-.009.032c-.027.094-.077.171-.148.228s-.152.085-.25.085c-.088,0-.168-.02-.235-.06-.066-.04-.119-.099-.158-.178-.035-.069-.057-.153-.066-.249h1.232v-.096c0-.19-.032-.355-.096-.49-.064-.138-.157-.244-.276-.316ZM125.599,51.823c.121,0,.216.036.288.111.066.068.109.164.128.287h-.842c.013-.071.037-.134.071-.19.04-.066.092-.118.151-.154.059-.036.128-.054.204-.054Z"/>
        <path d="M128.92,51.537c-.046-.013-.096-.019-.15-.019-.097,0-.181.024-.25.072-.043.03-.086.072-.127.126v-.161h-.337v1.727h.356v-.918c0-.155.029-.277.087-.362.056-.081.135-.121.242-.121.07,0,.132.015.185.044l.039.021.123-.329-.027-.016c-.047-.029-.094-.05-.14-.063Z"/>
        <path d="M131.698,51.555v.143c-.049-.048-.103-.087-.162-.116-.085-.042-.188-.064-.308-.064-.157,0-.292.038-.402.113-.112.075-.198.181-.256.315-.056.132-.085.286-.085.459,0,.169.031.32.093.451.062.133.152.238.267.312.114.075.248.113.399.113.171,0,.317-.053.434-.159-.005.207-.04.346-.104.414-.068.073-.177.11-.325.11-.106,0-.188-.02-.244-.058-.054-.037-.086-.093-.098-.172l-.004-.028-.345-.053.003.047c.012.182.079.323.198.422.119.097.285.146.494.146.266,0,.466-.072.593-.216.125-.141.189-.354.189-.632v-1.548h-.337ZM131.271,52.977c-.087,0-.163-.023-.226-.067-.063-.046-.112-.113-.146-.199-.035-.089-.053-.197-.053-.322,0-.121.018-.226.053-.312.034-.086.081-.148.141-.191.06-.043.129-.064.208-.064.093,0,.172.022.24.067.066.044.118.11.155.196.037.087.055.191.055.31,0,.123-.017.23-.051.316-.035.087-.083.152-.146.198-.063.045-.14.067-.229.067Z"/>
        <g>
          <path d="M108.887,47.97h4.098v-1.15h-2.621v-5.097h-1.477s0,6.247,0,6.247"/>
        </g>
        <g>
          <path d="M117.807,47.97h.893v-3.378h-2.775v1.031h1.488c-.086.865-.75,1.41-1.709,1.41-1.328,0-1.778-1.102-1.778-2.145,0-1.102.432-2.122,1.888-2.157.694-.024,1.251.355,1.419,1.044h1.412c-.161-1.411-1.458-2.205-2.832-2.205-2.081,0-3.304,1.446-3.304,3.307,0,1.802,1.115,3.284,3.194,3.284.648,0,1.436-.273,1.954-.9l.149.711"/>
        </g>
        <g>
          <path d="M122.064,43.263h.019l.846,2.288h-1.739l.874-2.288ZM118.779,47.97h1.496l.527-1.388h2.513l.508,1.388h1.533l-2.513-6.247h-1.515l-2.55,6.247" fill-rule="evenodd"/>
        </g>
        <rect x="125.572" y="41.734" width=".89" height="6.27"/>
        <path d="M131.084,41.734h-4.429v6.27h4.429v-6.27ZM128.858,47.921c-1.138,0-2.06-.9-2.06-2.027,0-1.115.922-2.027,2.06-2.027s2.057.912,2.057,2.027c0,1.126-.922,2.027-2.057,2.027Z"/>
        <rect x="131.278" y="41.734" width=".843" height="6.27"/>
      </g>
    </g>
    <path d="M80.937,44.226h-5.312l2.025-1.308.65-.42-.65-.42-2.297-1.484-.271-.175-.271.175-2.297,1.484-.65.42.65.42,2.025,1.308h-5.312v6.406h2.063c-.396.3-.656.77-.656,1.304,0,.904.736,1.64,1.64,1.64s1.64-.736,1.64-1.64c0-.534-.26-1.004-.656-1.304h3.651c-.396.3-.657.77-.657,1.304,0,.904.736,1.64,1.64,1.64s1.64-.736,1.64-1.64c0-.534-.26-1.004-.656-1.304h2.063v-6.406ZM75.083,41.014l2.297,1.484-2.297,1.484-2.297-1.484,2.297-1.484ZM72.274,53.076c-.629,0-1.14-.51-1.14-1.14s.51-1.14,1.14-1.14,1.14.51,1.14,1.14-.51,1.14-1.14,1.14ZM77.891,53.076c-.629,0-1.14-.51-1.14-1.14s.51-1.14,1.14-1.14,1.14.51,1.14,1.14-.51,1.14-1.14,1.14ZM80.437,50.133h-10.71v-5.406h10.71v5.406Z"/>
    <g>
      <g>
        <path d="M116.301,35.886c0,.763-.407,1.135-1.089,1.135-.686,0-1.086-.368-1.086-1.135v-1.755h.561v1.755c0,.309.071.612.525.612.399,0,.528-.193.528-.612v-1.755h.561v1.755Z"/>
        <path d="M117.203,36.017c0,.375.265.521.564.521.196,0,.496-.063.496-.352,0-.305-.382-.356-.757-.467-.378-.11-.761-.272-.761-.802,0-.577.493-.854.954-.854.532,0,1.021.258,1.021.909h-.542c-.019-.34-.236-.427-.504-.427-.179,0-.386.083-.386.32,0,.218.122.245.761.427.186.052.757.182.757.822,0,.518-.367.905-1.061.905-.563,0-1.093-.309-1.085-1.004h.542Z"/>
        <path d="M119.178,34.131h1.907v.521h-1.347v.605h1.235v.481h-1.235v.692h1.375v.521h-1.936v-2.822Z"/>
        <path d="M123.702,34.063c.789,0,1.254.652,1.254,1.49,0,.814-.465,1.467-1.254,1.467s-1.253-.652-1.253-1.467c0-.838.464-1.49,1.253-1.49ZM123.702,36.498c.504,0,.693-.474.693-.944,0-.494-.189-.968-.693-.968s-.692.474-.692.968c0,.471.189.944.692.944Z"/>
        <path d="M125.376,34.131h.558l1.063,1.894h.008v-1.894h.524v2.822h-.561l-1.061-1.89h-.007v1.89h-.525v-2.822Z"/>
        <path d="M128.062,34.131h.561v2.301h1.243v.521h-1.804v-2.822Z"/>
        <path d="M130.481,35.854l-.939-1.724h.632l.597,1.114.593-1.114h.625l-.946,1.739v1.083h-.561v-1.099Z"/>
        <path d="M133.27,34.131h.789l.597,1.94h.007l.564-1.94h.789v2.822h-.525v-2h-.007l-.625,2h-.432l-.625-1.98h-.007v1.98h-.525v-2.822Z"/>
        <path d="M138.391,36.633c-.196.28-.453.388-.7.388-.789,0-1.253-.652-1.253-1.467,0-.838.464-1.49,1.253-1.49.521,0,1.015.356,1.075.996h-.536c-.063-.312-.274-.474-.539-.474-.503,0-.692.474-.692.968,0,.471.189.944.692.944.364,0,.575-.217.607-.608h-.564v-.462h1.071v1.525h-.357l-.057-.32Z"/>
        <path d="M139.297,34.131h1.2c.485,0,.813.174.813.7,0,.276-.125.47-.346.589.311.099.468.363.468.715,0,.573-.439.818-.9.818h-1.235v-2.822ZM139.857,35.273h.568c.196,0,.343-.099.343-.336,0-.269-.186-.324-.386-.324h-.525v.66ZM139.857,36.471h.601c.221,0,.414-.079.414-.371,0-.289-.165-.403-.403-.403h-.611v.774Z"/>
        <path d="M141.793,35.633h1.074v.482h-1.074v-.482Z"/>
        <path d="M144.083,34.131c.5,0,.921.348.921,1.427,0,1.103-.421,1.45-.921,1.45-.493,0-.914-.348-.914-1.45,0-1.079.421-1.427.914-1.427ZM144.083,36.546c.414,0,.414-.676.414-.988,0-.288,0-.964-.414-.964-.407,0-.407.676-.407.964,0,.312,0,.988.407.988Z"/>
        <path d="M146.106,34.131c.5,0,.921.348.921,1.427,0,1.103-.421,1.45-.921,1.45-.493,0-.914-.348-.914-1.45,0-1.079.421-1.427.914-1.427ZM146.106,36.546c.414,0,.414-.676.414-.988,0-.288,0-.964-.414-.964-.407,0-.407.676-.407.964,0,.312,0,.988.407.988Z"/>
        <path d="M148.926,34.648h-1.032l-.1.629.007.008c.136-.154.293-.214.489-.214.493,0,.771.423.771.941,0,.568-.425,1.008-.929.995-.485,0-.921-.296-.928-.877h.507c.025.245.189.415.41.415.265,0,.433-.257.433-.533,0-.289-.161-.519-.433-.519-.182,0-.281.071-.382.222h-.457l.247-1.529h1.396v.462Z"/>
      </g>
      <g>
        <polygon points="141.326 28.043 141.326 26.777 140.789 26.777 140.789 28.043 139.523 28.043 139.523 28.58 140.789 28.58 140.789 29.845 141.326 29.845 141.326 28.58 142.593 28.58 142.593 28.043 141.326 28.043"/>
        <rect x="120.427" y="28.043" width="3.069" height=".537"/>
        <path d="M141.058,24.619l-3.37,3.37h-4.721c-.146-.615-.695-1.074-1.354-1.074-.771,0-1.395.625-1.395,1.395s.625,1.395,1.395,1.395c.659,0,1.208-.459,1.354-1.073h4.721l3.37,3.37,3.692-3.692-3.692-3.692ZM138.277,28.311l2.781-2.781,2.781,2.781-2.781,2.781-2.781-2.781Z"/>
        <path d="M128.593,27.989h-3.261l-3.371-3.37-3.692,3.692,3.692,3.692,3.37-3.37h3.261v-.644ZM121.962,31.092l-2.781-2.781,2.781-2.781,2.781,2.781-2.781,2.781Z"/>
      </g>
      <path d="M134.055,29.248c-.38,1.003-1.343,1.72-2.477,1.72-1.465,0-2.656-1.191-2.656-2.656s1.191-2.656,2.656-2.656c1.134,0,2.097.718,2.477,1.72h1.042c-.417-1.561-1.829-2.72-3.52-2.72-2.016,0-3.656,1.64-3.656,3.656s1.641,3.656,3.656,3.656c1.69,0,3.103-1.159,3.52-2.72h-1.042Z"/>
    </g>
  </g>
</svg>