<?xml version="1.0" encoding="UTF-8"?>
<svg id="Layer_1" xmlns="http://www.w3.org/2000/svg" width="157.289" height="70.549" version="1.1" viewBox="0 0 157.289 70.549">
  <g>
    <rect x=".125" y=".125" width="157.039" height="70.299" rx="3.969" ry="3.969" fill="#231f20" data-background="background"/>
    <rect x=".125" y=".125" width="157.039" height="70.299" rx="3.969" ry="3.969" fill="none" stroke="#a8a8ab" stroke-width="0.25pt" stroke-dasharray="0.9pt" data-stroke="stroke"/>
  </g>
  <g fill="#ffffff" data-foreground="foreground">
    <g>
      <path d="M34.402,10.651l-.25-1.289-.576,1.289s.826,0,.826,0ZM43.449,13.927h-1.365l-.182-4.11-1.774,4.11h-.91l-.758-3.715-1.183,3.715h-2.32l-.349-1.986h-1.577l-.895,1.986h-1.426l2.927-6.642h1.683l.895,5.368,1.744-5.368h1.349l.667,3.64,1.547-3.64h1.638l.288,6.642"/>
      <path d="M47.362,13.927l.228-1.425h-2.381l.189-1.183h2.071l.228-1.425h-2.093l.182-1.183h2.38l.228-1.425h-3.776l-1.062,6.642h3.807"/>
      <path d="M65.09,7.284h-1.593l-1.35,2.168-.849-2.168h-1.562l1.608,3.503-.495,3.139h1.365l.419-2.775,2.457-3.867"/>
      <path d="M56.985,12.662c.722.323,1.606-.311,1.974-1.415.368-1.105.081-2.263-.64-2.586-.722-.323-1.606.311-1.974,1.416-.368,1.105-.081,2.262.64,2.585h0ZM54.92,10.034c.424-1.837,1.993-3.042,3.506-2.692s2.395,2.121,1.972,3.958c-.424,1.836-1.993,3.042-3.506,2.692-1.513-.35-2.395-2.122-1.972-3.958"/>
      <path d="M27.799,7.876c-1.301.805-1.926,2.032-1.759,3.7.194,1.935,2.7,3.154,4.823,1.926.186-.107.113-.09.182-.152l.425-2.699h-2.533l-.194,1.243h1.058l-.122.668c-.606.242-1.638.151-2.077-.637-.278-.499-.537-1.614.637-2.639.955-.834,2.608-.985,3.564-.546,0,0,.121-.698.212-1.35-1.835-.637-3.261-.106-4.216.486"/>
      <path d="M50.47,7.321l-1.053,6.592h3.07c1.264,0,3.113-1.863,1.43-3.386,1.731-1.791.015-3.191-.903-3.206-.737-.012-2.558,0-2.558,0h.015,0ZM51.222,11.31h1.144c1.084,0,1.054,1.324-.15,1.324h-1.204l.211-1.324h0ZM51.644,8.721h.888c.963,0,.768,1.234-.15,1.234h-.949l.21-1.234"/>
      <path d="M75.379,12.164s-.44.767-1.405.677c-1.134-.116-1.267-1.112-1.267-1.112,0,0-.155-.733.543-1.371.707-.595,1.444-.504,1.444-.504,0,0,.496.047.75.866.327,1.043-.065,1.444-.065,1.444ZM77.09,10.099c-.142-.431-.517-.841-.517-.841,0,0-.565-.733-1.672-.983-.948-.198-1.694.22-1.694.22,0,0-.677.272-1.185.832-.81.78-1.043,1.918-1.043,1.918,0,0-.31.991.181,1.776l.535.647c.754.629,1.561.694,1.561.694,0,0,.651.147,1.41-.052.664-.134,1.147-.461,1.147-.461,0,0,1.099-.608,1.401-1.849l-.121-1.901"/>
      <path d="M84.548,12.388c-1.203.733-1.96-.069-1.96-.069,0,0-.336-.224-.408-.905-.051-.789.723-1.198.723-1.198,0,0,.408-.254.918-.216.51.039.672.004,1.084.315.391.358.366.621.366.621,0,0,.14.888-.723,1.453h0ZM86.584,9.87h0c-.742-1.234-2.053-1.418-2.053-1.418,0,0-.417-.142-1.309-.022-1.675.323-2.257,1.629-2.257,1.629,0,0-.599.957-.361,2.116l.731,1.466c.54.513.761.513.795.543.714.328,1.543.138,1.543.138,0,0,1.046-.103,2.002-.858.765-.569.906-1.002,1.097-1.405.24-.507.118-1.682-.187-2.19h0Z"/>
      <path d="M88.547,10.146l-.082-1.125s.789-.017,1.116.039c.647.099.612.28.612.28,0,0-.021.228-.513.453-.535.258-1.134.353-1.134.353h.001ZM86.908,12.06s.026.69-.082.858c-.147.315-.125.621-.125.621,0,0-.099.931.979,1.086.741-.004.832-.621.845-.884.043-.207.026-1.168.026-1.168l.961.785s.699.586,1.108.927c.427.336.534.396.534.396,0,0,.091.108.418.069.263.005.505-.233.505-.233,0,0,.306-.224.383-.616.095-.466-.267-.694-.267-.694,0,0-1.336-1.078-2.242-1.819.608-.332.901-.56.901-.56,0,0,.845-.56,1.026-1.418.25-.944-.461-1.315-.461-1.315,0,0-.444-.319-.819-.487-.944-.461-1.823-.366-1.823-.366,0,0-1.25-.086-2.065.918-.375.487-.142,1.125-.142,1.125,0,0,.046.102.151.586.21.973.19,2.19.19,2.19"/>
      <path d="M80.752,12.177c-.363-.08-.944.069-.944.069,0,0-.81.297-.935.293-.047-.069-.151-1.392-.121-1.922.017-.935-.06-1.698-.06-1.698,0,0-.039-.901-.522-1.435-.569-.573-.966-.328-1.194-.19-.548.491-.293,1.09-.293,1.09l.285.806s.138.345.121.909l.121,1.901c0,.254.207,1.966.207,1.966,0,0,.021.556.556.655.547.09,1.086-.181,1.315-.289.228-.108.53-.203.53-.203,0,0,.25-.056.5-.078.586-.056.798-.159.798-.159,0,0,.227-.034.379-.25s.337-1.229-.741-1.465"/>
      <path d="M71.073,13.021c-.385-.115-.828-.039-.828-.039,0,0-1.25.121-1.901-.017-1.009-.177-.974-1.263-.974-1.263,0,0-.034-.72.573-1.694.75-1.203,1.578-1.418,1.578-1.418,0,0,.207-.077.401.026.121.698.797.694.797.694,0,0,.974.065.927-1.116-.112-.97-1.048-1.104-1.44-1.194-1.177-.211-1.94.418-1.94.418,0,0-.789.427-1.733,1.914-.642.922-.72,1.647-.72,1.647,0,0-.078.173-.047.94-.017.599.207,1.034.207,1.034,0,0,.341,1.031,1.418,1.453.655.272,1.612.267,1.612.267,0,0,.927-.013,1.638-.052.388.03.573-.172.573-.172,0,0,.435-.284.392-.78,0,0-.084-.512-.535-.647"/>
      <g>
        <path d="M64.208,12.041c.497,0,.901.404.901.901s-.404.901-.901.901-.901-.404-.901-.901.404-.901.901-.901M64.208,11.891c-.581,0-1.051.471-1.051,1.051s.471,1.051,1.051,1.051,1.051-.471,1.051-1.051-.471-1.051-1.051-1.051h0Z"/>
        <path d="M63.754,12.366h.569c.227,0,.368.124.368.317,0,.146-.064.266-.21.307v.003c.141.027.169.13.181.249.01.118.003.25.071.333h-.179c-.046-.049-.021-.18-.044-.298-.017-.119-.046-.219-.202-.219h-.393v.517h-.161v-1.209h0ZM64.25,12.924c.151,0,.279-.039.279-.215,0-.119-.064-.207-.215-.207h-.4v.422h.336Z"/>
      </g>
    </g>
    <path d="M9.083,9.933l-.945-1.528h-.679v2.197h.679v-1.528l.945,1.528h.674v-2.196h-.679l.006,1.527h0ZM14.454,9.146v-.219h-.355v-.296h-.662v.296h-.36v.219h.361v1.456h.661v-1.456h.355,0ZM10.135,10.597h.656v-1.457h-.656v1.457ZM10.135,8.856h.662v-.45h-.662v.45h0ZM21.667,9.039c-.532,0-.963.367-.963.817s.431.817.963.817.963-.367.963-.817-.431-.817-.963-.817ZM21.933,10.164c0,.231-.136.325-.266.325s-.272-.095-.272-.325v-.616c0-.231.136-.325.272-.325.13,0,.266.095.266.325v.616ZM19.842,9.211c-.107-.059-.219-.118-.372-.13-.473-.041-.839.379-.839.764,0,.509.39.693.449.722.225.101.508.107.756-.053v.083h.65v-2.191h-.65c.006,0,.006.468.006.805h0ZM19.848,9.862v.26c0,.225-.154.284-.26.284s-.26-.059-.26-.284v-.521c0-.225.154-.284.26-.284.1,0,.26.059.26.284v.261h0ZM12.332,9.075c-.219.006-.396.101-.526.219v-.154h-.656v1.457h.656v-.959c0-.124.136-.266.313-.266s.301.142.301.266v.959h.656v-.793c0-.574-.496-.74-.745-.728h.001ZM17.679,9.075c-.196.005-.384.084-.526.219v-.154h-.656v1.457h.656v-.959c0-.124.136-.266.313-.266s.301.142.301.266v.959h.656v-.793c0-.574-.496-.74-.745-.728h.001ZM16.303,9.874c0-.45-.437-.829-.969-.829-.538,0-.969.367-.969.817s.431.817.969.817c.443,0,.821-.255.933-.598h-.656v.089c0,.266-.177.326-.272.326-.1,0-.278-.059-.278-.325v-.302l1.241.006h0ZM15.109,9.359c.049-.08.136-.13.23-.13.089,0,.177.042.23.13.041.071.041.16.041.284h-.549c0-.124.006-.207.047-.284h.001ZM22.89,8.678c0-.071-.053-.107-.159-.107h-.148v.373h.089v-.154h.047l.071.154h.1l-.083-.166c.053-.018.083-.053.083-.101h0ZM22.718,8.731h-.047v-.107h.041c.053,0,.083.018.083.053,0,.041-.023.053-.077.053h0ZM22.724,8.423c-.183,0-.337.154-.337.338s.154.338.337.338.337-.154.337-.338c0-.186-.15-.337-.337-.338h0ZM22.724,9.033c-.15-.002-.27-.123-.272-.272,0-.148.124-.272.272-.272s.272.124.272.272-.124.272-.272.272h0ZM21.986,7.174h-13.937c-1.477-.006-2.464,1.06-2.464,2.333s.987,2.327,2.469,2.327h13.937c1.483,0,2.469-1.054,2.469-2.327-.006-1.272-.998-2.333-2.475-2.333h0ZM21.98,11.266h-13.925c-1.176.006-1.891-.788-1.891-1.759s.721-1.753,1.891-1.759h13.925c1.17,0,1.891.787,1.891,1.759s-.715,1.759-1.891,1.759h0Z"/>
    <g>
      <path d="M5.741,62.271h.83l.627,2.038h.007l.594-2.038h.829v2.963h-.552v-2.1h-.008l-.656,2.1h-.454l-.657-2.08h-.008v2.08h-.552s0-2.963,0-2.963Z"/>
      <path d="M9.872,62.271h.604l1.002,2.963h-.612l-.202-.66h-1.002l-.211.66h-.597s1.018-2.963,1.018-2.963ZM9.815,64.089h.694l-.338-1.087h-.007l-.35,1.087h.001Z"/>
      <path d="M11.707,62.271h1.156c.694,0,1.216.481,1.216,1.465,0,.859-.397,1.499-1.216,1.499h-1.156v-2.963h0ZM12.297,64.687h.525c.342,0,.668-.232.668-.888,0-.598-.188-.979-.773-.979h-.42v1.868h0Z"/>
      <path d="M14.484,62.271h2.005v.548h-1.415v.635h1.299v.507h-1.299v.726h1.445v.548h-2.035v-2.963h0Z"/>
      <path d="M17.954,62.271h.59v2.963h-.59v-2.963Z"/>
      <path d="M19.06,62.271h.586l1.118,1.988h.008v-1.988h.552v2.963h-.589l-1.115-1.984h-.008v1.984h-.552v-2.963Z"/>
      <path d="M24.447,64.3c0,.382-.094,1.005-.894,1.005-.446,0-.882-.27-.882-.917v-.257h.533v.133c0,.286.063.494.341.494.312,0,.312-.278.312-.486v-2h.59v2.029h0Z"/>
      <path d="M25.694,62.271h.604l1.002,2.963h-.612l-.202-.66h-1.002l-.211.66h-.597l1.018-2.963ZM25.638,64.089h.694l-.338-1.087h-.007l-.35,1.087h0Z"/>
      <path d="M27.528,62.271h1.209c.668,0,.927.469.927.95s-.259.951-.927.951h-.619v1.062h-.59s0-2.963,0-2.963ZM28.118,63.666h.458c.273,0,.518-.066.518-.444s-.244-.444-.518-.444h-.458v.888Z"/>
      <path d="M30.483,62.271h.604l1.002,2.963h-.612l-.202-.66h-1.002l-.211.66h-.597l1.018-2.963ZM30.427,64.089h.694l-.338-1.087h-.007l-.35,1.087h0Z"/>
      <path d="M32.318,62.271h.586l1.118,1.988h.008v-1.988h.552v2.963h-.589l-1.115-1.984h-.008v1.984h-.552s0-2.963,0-2.963Z"/>
    </g>
    <g>
      <path d="M42.901,63.662c-.035-.251-.275-.443-.552-.443-.499,0-.687.425-.687.868,0,.421.188.846.687.846.34,0,.531-.233.573-.566h.538c-.057.63-.492,1.034-1.111,1.034-.782,0-1.243-.584-1.243-1.313,0-.751.461-1.335,1.243-1.335.556,0,1.022.326,1.09.91h-.538Z"/>
      <path d="M45.603,65.053c-.188.251-.436.347-.673.347-.759,0-1.205-.584-1.205-1.313,0-.751.446-1.335,1.205-1.335.502,0,.976.319,1.034.892h-.516c-.062-.28-.265-.425-.519-.425-.483,0-.666.425-.666.868,0,.421.183.846.666.846.351,0,.553-.194.584-.545h-.542v-.414h1.029v1.366h-.343l-.056-.287h.002Z"/>
      <path d="M46.444,62.813h1.189c.481,0,.807.155.807.626,0,.248-.124.421-.343.527.308.088.464.326.464.641,0,.513-.436.733-.893.733h-1.225v-2.527h0ZM47,63.835h.562c.195,0,.34-.088.34-.301,0-.24-.184-.29-.382-.29h-.521v.591h0ZM47,64.908h.595c.22,0,.41-.071.41-.333,0-.258-.162-.361-.399-.361h-.605v.694h-.001Z"/>
      <path d="M48.879,64.157h1.065v.432h-1.065v-.432Z"/>
      <path d="M51.94,64.543c0,.326-.089.856-.843.856-.422,0-.832-.23-.832-.782v-.219h.503v.113c0,.244.06.421.322.421.293,0,.293-.237.293-.414v-1.706h.557s0,1.731,0,1.731Z"/>
      <path d="M52.428,62.813h1.141c.63,0,.874.4.874.811s-.244.811-.874.811h-.585v.906h-.556v-2.527h0ZM52.983,64.002h.433c.258,0,.488-.057.488-.379s-.23-.379-.488-.379h-.433v.758Z"/>
      <path d="M54.788,62.813h.553l1.055,1.695h.007v-1.695h.521v2.527h-.556l-1.052-1.692h-.007v1.692h-.521s0-2.527,0-2.527Z"/>
      <path d="M57.354,64.157h1.065v.432h-1.065v-.432Z"/>
      <path d="M59.994,65.34h-.503v-1.607h-.623v-.378c.351.007.673-.113.727-.492h.399v2.478h0Z"/>
    </g>
    <g>
      <path d="M6.645,32.05h-.857v-.288h2.057v.288h-.857v2.283h-.342v-2.283h-.001Z"/>
      <path d="M8.128,31.762h.342v1.105h1.354v-1.105h.343v2.571h-.343v-1.178h-1.354v1.178h-.342v-2.571Z"/>
      <path d="M10.741,31.762h.343v2.571h-.343v-2.571Z"/>
      <path d="M13.147,32.515c-.04-.368-.285-.526-.638-.526-.288,0-.576.104-.576.439,0,.317.41.364.824.457.411.094.821.238.821.742,0,.548-.536.767-1.005.767-.576,0-1.062-.281-1.062-.907h.324c0,.432.36.619.749.619.31,0,.652-.097.652-.468,0-.353-.411-.415-.821-.504s-.824-.209-.824-.681c0-.522.464-.752.933-.752.525,0,.925.249.946.814,0,0-.323,0-.323,0Z"/>
      <path d="M15.063,31.762h.882c.792,0,1.235.396,1.235,1.225,0,.86-.378,1.347-1.235,1.347h-.882v-2.571h0ZM15.404,34.045h.569c.233,0,.864-.065.864-1.012,0-.612-.228-.983-.857-.983h-.576s0,1.995,0,1.995Z"/>
      <path d="M17.597,31.762h1.775v.288h-1.434v.817h1.336v.288h-1.336v.89h1.444v.288h-1.786v-2.571h0Z"/>
      <path d="M20.808,34.333h-.389l-.908-2.571h.371l.734,2.229h.008l.741-2.229h.356l-.914,2.571h0Z"/>
      <path d="M22.009,31.762h.343v2.571h-.343v-2.571Z"/>
      <path d="M24.735,32.537c-.072-.364-.364-.547-.721-.547-.612,0-.871.504-.871,1.041,0,.587.259,1.077.875,1.077.45,0,.709-.317.742-.742h.342c-.064.641-.465,1.03-1.113,1.03-.799,0-1.188-.59-1.188-1.339s.425-1.354,1.217-1.354c.536,0,.979.288,1.059.835h-.342Z"/>
      <path d="M25.527,31.762h1.775v.288h-1.434v.817h1.336v.288h-1.336v.89h1.444v.288h-1.786v-2.571h0Z"/>
      <path d="M30.604,32.537c-.072-.364-.364-.547-.721-.547-.612,0-.871.504-.871,1.041,0,.587.259,1.077.875,1.077.45,0,.709-.317.742-.742h.342c-.065.641-.465,1.03-1.113,1.03-.799,0-1.188-.59-1.188-1.339s.425-1.354,1.217-1.354c.536,0,.979.288,1.059.835h-.342Z"/>
      <path d="M32.482,31.701c.817,0,1.231.648,1.231,1.347s-.414,1.347-1.231,1.347-1.231-.648-1.231-1.347.414-1.347,1.231-1.347ZM32.482,34.106c.627,0,.89-.54.89-1.059s-.263-1.059-.89-1.059-.89.54-.89,1.059.264,1.059.89,1.059Z"/>
      <path d="M34.139,31.762h.468l.811,2.161.813-2.161h.469v2.571h-.324v-2.139h-.007l-.804,2.139h-.291l-.804-2.139h-.007v2.139h-.324s0-2.571,0-2.571Z"/>
      <path d="M37.268,31.762h1.127c.511,0,.788.285.788.76s-.277.764-.788.76h-.785v1.052h-.342v-2.571h0ZM37.609,32.994h.67c.385.004.562-.166.562-.472s-.177-.472-.562-.472h-.67v.943h0Z"/>
      <path d="M39.601,31.762h.342v2.283h1.361v.288h-1.703s0-2.571,0-2.571Z"/>
      <path d="M41.616,31.762h.343v2.571h-.343v-2.571Z"/>
      <path d="M42.535,31.762h1.775v.288h-1.434v.817h1.336v.288h-1.336v.89h1.444v.288h-1.786v-2.571h0Z"/>
      <path d="M46.222,32.515c-.04-.368-.285-.526-.638-.526-.288,0-.576.104-.576.439,0,.317.41.364.824.457.411.094.821.238.821.742,0,.548-.536.767-1.005.767-.576,0-1.062-.281-1.062-.907h.324c0,.432.36.619.749.619.31,0,.652-.097.652-.468,0-.353-.411-.415-.821-.504s-.824-.209-.824-.681c0-.522.464-.752.933-.752.525,0,.925.249.946.814,0,0-.323,0-.323,0Z"/>
      <path d="M50.459,34.333h-.356l-.587-2.161h-.007l-.595,2.161h-.356l-.659-2.571h.35l.504,2.139h.008l.576-2.139h.37l.569,2.139h.007l.522-2.139h.342s-.688,2.571-.688,2.571Z"/>
      <path d="M51.484,31.762h.343v2.571h-.343v-2.571Z"/>
      <path d="M52.986,32.05h-.857v-.288h2.057v.288h-.857v2.283h-.342v-2.283h-.001Z"/>
      <path d="M54.47,31.762h.342v1.105h1.354v-1.105h.343v2.571h-.343v-1.178h-1.354v1.178h-.342v-2.571Z"/>
      <path d="M58.139,31.762h1.127c.511,0,.788.285.788.76s-.277.764-.788.76h-.785v1.052h-.342v-2.571h0ZM58.48,32.994h.67c.385.004.562-.166.562-.472s-.177-.472-.562-.472h-.67v.943h0Z"/>
      <path d="M60.903,31.762h.378l1.005,2.571h-.378l-.281-.774h-1.087l-.288.774h-.354s1.005-2.571,1.005-2.571ZM60.647,33.271h.872l-.429-1.199h-.008l-.436,1.199h0Z"/>
      <path d="M62.538,31.762h1.21c.482,0,.781.263.781.673,0,.31-.137.565-.446.652v.007c.299.058.359.277.385.529.021.252.008.533.151.709h-.382c-.097-.104-.043-.382-.094-.634-.036-.252-.097-.464-.429-.464h-.835v1.098h-.342v-2.571h0ZM63.593,32.947c.32,0,.594-.083.594-.458,0-.252-.137-.439-.457-.439h-.85v.897h.713Z"/>
      <path d="M65.522,32.05h-.857v-.288h2.057v.288h-.857v2.283h-.342v-2.283h0Z"/>
      <path d="M69.076,34.333h-.307v-1.829h-.662v-.245c.349,0,.666-.094.734-.479h.234v2.553h0Z"/>
      <path d="M71.488,32.094h-1.03l-.137.734.008.007c.111-.126.303-.184.475-.184.454,0,.825.292.825.875,0,.432-.299.85-.894.85-.442,0-.803-.27-.813-.731h.306c.019.263.23.461.537.461.292,0,.54-.198.54-.605,0-.338-.234-.58-.576-.58-.194,0-.356.097-.476.241l-.263-.014.237-1.325h1.261v.27h0Z"/>
      <path d="M74.236,31.701c.817,0,1.231.648,1.231,1.347s-.414,1.347-1.231,1.347-1.231-.648-1.231-1.347.414-1.347,1.231-1.347ZM74.236,34.106c.627,0,.89-.54.89-1.059s-.263-1.059-.89-1.059-.89.54-.89,1.059.264,1.059.89,1.059Z"/>
      <path d="M75.886,31.762h1.688v.288h-1.347v.817h1.181v.288h-1.181v1.178h-.342v-2.571h0Z"/>
      <path d="M79.604,32.05h-.857v-.288h2.057v.288h-.857v2.283h-.342v-2.283h0Z"/>
      <path d="M81.088,31.762h.342v1.105h1.354v-1.105h.343v2.571h-.343v-1.178h-1.354v1.178h-.342v-2.571Z"/>
      <path d="M83.687,31.762h1.775v.288h-1.434v.817h1.336v.288h-1.336v.89h1.444v.288h-1.786v-2.571h0Z"/>
      <path d="M86.956,31.762h1.688v.288h-1.347v.817h1.181v.288h-1.181v1.178h-.342v-2.571h0Z"/>
      <path d="M90.83,32.537c-.072-.364-.364-.547-.721-.547-.612,0-.871.504-.871,1.041,0,.587.259,1.077.875,1.077.45,0,.709-.317.742-.742h.342c-.065.641-.465,1.03-1.113,1.03-.799,0-1.188-.59-1.188-1.339s.425-1.354,1.217-1.354c.536,0,.979.288,1.059.835h-.342,0Z"/>
      <path d="M93.43,32.537c-.072-.364-.364-.547-.721-.547-.612,0-.871.504-.871,1.041,0,.587.259,1.077.875,1.077.45,0,.709-.317.742-.742h.342c-.065.641-.465,1.03-1.113,1.03-.799,0-1.188-.59-1.188-1.339s.425-1.354,1.217-1.354c.536,0,.979.288,1.059.835h-.342,0Z"/>
      <path d="M95.291,31.762h1.21c.482,0,.781.263.781.673,0,.31-.137.565-.446.652v.007c.299.058.359.277.385.529.021.252.007.533.151.709h-.382c-.097-.104-.043-.382-.094-.634-.036-.252-.097-.464-.429-.464h-.835v1.098h-.342v-2.571h.001ZM96.346,32.947c.32,0,.595-.083.595-.458,0-.252-.138-.439-.458-.439h-.85v.897h.713Z"/>
      <path d="M99.81,33.404c0,.648-.371.99-1.013.99-.662,0-1.055-.306-1.055-.99v-1.642h.342v1.642c0,.454.26.702.713.702.433,0,.67-.249.67-.702v-1.642h.343v1.642Z"/>
      <path d="M100.356,31.762h.342v2.283h1.361v.288h-1.703s0-2.571,0-2.571Z"/>
      <path d="M102.358,31.762h1.775v.288h-1.434v.817h1.336v.288h-1.336v.89h1.444v.288h-1.786v-2.571h0Z"/>
      <path d="M106.045,32.515c-.04-.368-.285-.526-.638-.526-.288,0-.576.104-.576.439,0,.317.41.364.824.457.411.094.821.238.821.742,0,.548-.536.767-1.005.767-.576,0-1.062-.281-1.062-.907h.324c0,.432.36.619.749.619.31,0,.652-.097.652-.468,0-.353-.411-.415-.821-.504s-.824-.209-.824-.681c0-.522.464-.752.933-.752.525,0,.925.249.946.814,0,0-.323,0-.323,0Z"/>
      <path d="M106.908,33.934h.399v.4h-.399v-.4Z"/>
      <path d="M110.048,31.701c.817,0,1.231.648,1.231,1.347s-.414,1.347-1.231,1.347-1.231-.648-1.231-1.347.414-1.347,1.231-1.347ZM110.048,34.106c.627,0,.89-.54.89-1.059s-.263-1.059-.89-1.059-.89.54-.89,1.059.264,1.059.89,1.059Z"/>
      <path d="M111.697,31.762h1.127c.511,0,.788.285.788.76s-.277.764-.788.76h-.785v1.052h-.342v-2.571h0ZM112.039,32.994h.67c.385.004.562-.166.562-.472s-.177-.472-.562-.472h-.67v.943h0Z"/>
      <path d="M114.03,31.762h1.775v.288h-1.434v.817h1.336v.288h-1.336v.89h1.444v.288h-1.786v-2.571h0Z"/>
      <path d="M116.229,31.762h1.21c.482,0,.781.263.781.673,0,.31-.137.565-.446.652v.007c.299.058.359.277.385.529.021.252.008.533.151.709h-.382c-.097-.104-.043-.382-.094-.634-.036-.252-.097-.464-.429-.464h-.835v1.098h-.342v-2.571h.001ZM117.284,32.947c.32,0,.594-.083.594-.458,0-.252-.137-.439-.457-.439h-.85v.897h.713Z"/>
      <path d="M119.394,31.762h.378l1.005,2.571h-.378l-.281-.774h-1.087l-.288.774h-.354s1.005-2.571,1.005-2.571ZM119.138,33.271h.872l-.429-1.199h-.008l-.436,1.199h0Z"/>
      <path d="M121.28,32.05h-.857v-.288h2.057v.288h-.857v2.283h-.342v-2.283h0Z"/>
      <path d="M122.777,31.762h.343v2.571h-.343v-2.571Z"/>
      <path d="M124.783,31.701c.817,0,1.231.648,1.231,1.347s-.414,1.347-1.231,1.347-1.231-.648-1.231-1.347.414-1.347,1.231-1.347ZM124.783,34.106c.627,0,.89-.54.89-1.059s-.263-1.059-.89-1.059-.89.54-.89,1.059.264,1.059.89,1.059Z"/>
      <path d="M126.429,31.762h.363l1.354,2.085h.007v-2.085h.324v2.571h-.374l-1.344-2.063h-.007v2.063h-.324v-2.571h0Z"/>
      <path d="M130.115,31.762h.343v2.571h-.343v-2.571Z"/>
      <path d="M132.521,32.515c-.04-.368-.285-.526-.638-.526-.288,0-.576.104-.576.439,0,.317.41.364.824.457.411.094.821.238.821.742,0,.548-.536.767-1.005.767-.576,0-1.062-.281-1.062-.907h.324c0,.432.36.619.749.619.31,0,.652-.097.652-.468,0-.353-.411-.415-.821-.504s-.824-.209-.824-.681c0-.522.464-.752.933-.752.525,0,.925.249.946.814h-.323,0Z"/>
      <path d="M135.924,32.515c-.04-.368-.285-.526-.638-.526-.288,0-.576.104-.576.439,0,.317.41.364.824.457.411.094.821.238.821.742,0,.548-.536.767-1.005.767-.576,0-1.062-.281-1.062-.907h.324c0,.432.36.619.749.619.31,0,.652-.097.652-.468,0-.353-.411-.415-.821-.504s-.824-.209-.824-.681c0-.522.464-.752.933-.752.525,0,.925.249.946.814h-.323,0Z"/>
      <path d="M138.821,33.404c0,.648-.37.99-1.012.99-.662,0-1.055-.306-1.055-.99v-1.642h.342v1.642c0,.454.26.702.713.702.433,0,.67-.249.67-.702v-1.642h.342v1.642Z"/>
      <path d="M139.369,31.762h.933c.227,0,.525,0,.681.094.169.101.302.285.302.537,0,.273-.144.479-.381.576v.007c.316.064.489.302.489.619,0,.378-.271.738-.781.738h-1.242v-2.571h0ZM139.711,32.868h.685c.389,0,.547-.14.547-.41,0-.356-.252-.407-.547-.407h-.685v.817ZM139.711,34.045h.857c.295,0,.482-.18.482-.461,0-.335-.271-.429-.559-.429h-.781v.89h.001Z"/>
      <path d="M143.142,33.692c0,.35-.184.702-.76.702-.479,0-.749-.266-.749-.749v-.158h.342v.108c0,.299.08.511.415.511.312,0,.41-.18.41-.464v-1.88h.342v1.93Z"/>
      <path d="M143.703,31.762h1.775v.288h-1.434v.817h1.336v.288h-1.336v.89h1.444v.288h-1.786v-2.571h.001Z"/>
      <path d="M147.71,32.537c-.072-.364-.364-.547-.721-.547-.612,0-.871.504-.871,1.041,0,.587.259,1.077.875,1.077.45,0,.709-.317.742-.742h.342c-.064.641-.465,1.03-1.113,1.03-.799,0-1.188-.59-1.188-1.339s.425-1.354,1.217-1.354c.536,0,.979.288,1.059.835h-.342Z"/>
      <path d="M149.085,32.05h-.857v-.288h2.057v.288h-.857v2.283h-.342v-2.283h-.001Z"/>
      <path d="M6.645,36.25h-.857v-.288h2.057v.288h-.857v2.283h-.342v-2.283h-.001Z"/>
      <path d="M9.15,35.901c.817,0,1.231.648,1.231,1.347s-.414,1.347-1.231,1.347-1.231-.648-1.231-1.347.414-1.347,1.231-1.347ZM9.15,38.307c.627,0,.89-.54.89-1.059s-.263-1.059-.89-1.059-.89.54-.89,1.059.264,1.059.89,1.059Z"/>
      <path d="M12.734,36.25h-.857v-.288h2.057v.288h-.857v2.283h-.342v-2.283h0Z"/>
      <path d="M14.153,35.962h.342v1.105h1.354v-1.105h.343v2.571h-.343v-1.178h-1.354v1.178h-.342s0-2.571,0-2.571Z"/>
      <path d="M16.687,35.962h1.775v.288h-1.434v.817h1.336v.288h-1.336v.89h1.444v.288h-1.786v-2.571h0Z"/>
      <path d="M20.239,35.962h1.688v.288h-1.347v.817h1.181v.288h-1.181v1.178h-.342v-2.571h.001Z"/>
      <path d="M23.327,35.901c.817,0,1.231.648,1.231,1.347s-.414,1.347-1.231,1.347-1.231-.648-1.231-1.347.414-1.347,1.231-1.347ZM23.327,38.307c.627,0,.89-.54.89-1.059s-.263-1.059-.89-1.059-.89.54-.89,1.059.264,1.059.89,1.059Z"/>
      <path d="M24.912,35.962h.342v2.283h1.361v.288h-1.703s0-2.571,0-2.571Z"/>
      <path d="M26.85,35.962h.342v2.283h1.361v.288h-1.703s0-2.571,0-2.571Z"/>
      <path d="M29.873,35.901c.817,0,1.231.648,1.231,1.347s-.414,1.347-1.231,1.347-1.231-.648-1.231-1.347.414-1.347,1.231-1.347ZM29.873,38.307c.627,0,.89-.54.89-1.059s-.263-1.059-.89-1.059-.89.54-.89,1.059.264,1.059.89,1.059Z"/>
      <path d="M33.78,38.534h-.356l-.587-2.161h-.007l-.595,2.161h-.356l-.659-2.571h.35l.504,2.139h.008l.576-2.139h.37l.569,2.139h.007l.522-2.139h.342s-.688,2.571-.688,2.571Z"/>
      <path d="M34.741,35.962h.343v2.571h-.343v-2.571Z"/>
      <path d="M35.591,35.962h.363l1.354,2.085h.007v-2.085h.324v2.571h-.374l-1.344-2.063h-.007v2.063h-.324v-2.571h.001Z"/>
      <path d="M40.053,38.213c-.198.27-.522.381-.825.381-.767,0-1.224-.626-1.224-1.296,0-.749.41-1.397,1.224-1.397.562,0,1.009.252,1.105.854h-.342c-.068-.389-.382-.565-.764-.565-.623,0-.882.54-.882,1.091,0,.536.31,1.026.882,1.026.529,0,.847-.371.825-.839h-.821v-.288h1.127v1.354h-.216l-.09-.32h0Z"/>
      <path d="M42.797,36.25h-.857v-.288h2.057v.288h-.857v2.283h-.342v-2.283h-.001Z"/>
      <path d="M46.538,38.534h-.356l-.587-2.161h-.007l-.595,2.161h-.356l-.659-2.571h.35l.504,2.139h.008l.576-2.139h.37l.569,2.139h.007l.522-2.139h.342s-.688,2.571-.688,2.571Z"/>
      <path d="M48.572,35.901c.817,0,1.231.648,1.231,1.347s-.414,1.347-1.231,1.347-1.231-.648-1.231-1.347.414-1.347,1.231-1.347ZM48.572,38.307c.627,0,.89-.54.89-1.059s-.263-1.059-.89-1.059-.89.54-.89,1.059.264,1.059.89,1.059Z"/>
      <path d="M53.381,36.737c-.072-.364-.364-.547-.721-.547-.612,0-.871.504-.871,1.041,0,.587.259,1.077.875,1.077.45,0,.709-.317.742-.742h.342c-.065.641-.465,1.03-1.113,1.03-.799,0-1.188-.59-1.188-1.339s.425-1.354,1.217-1.354c.536,0,.979.288,1.059.835h-.342Z"/>
      <path d="M55.195,35.901c.817,0,1.231.648,1.231,1.347s-.414,1.347-1.231,1.347-1.231-.648-1.231-1.347.414-1.347,1.231-1.347ZM55.195,38.307c.627,0,.89-.54.89-1.059s-.263-1.059-.89-1.059-.89.54-.89,1.059.264,1.059.89,1.059Z"/>
      <path d="M56.775,35.962h.363l1.354,2.085h.007v-2.085h.324v2.571h-.374l-1.344-2.063h-.007v2.063h-.324v-2.571h.001Z"/>
      <path d="M59.314,35.962h.882c.792,0,1.235.396,1.235,1.225,0,.86-.378,1.347-1.235,1.347h-.882v-2.571h0ZM59.656,38.246h.569c.233,0,.864-.065.864-1.012,0-.612-.228-.983-.857-.983h-.576v1.995Z"/>
      <path d="M61.798,35.962h.343v2.571h-.343v-2.571Z"/>
      <path d="M63.234,36.25h-.857v-.288h2.057v.288h-.857v2.283h-.342v-2.283h-.001Z"/>
      <path d="M64.667,35.962h.343v2.571h-.343v-2.571Z"/>
      <path d="M66.608,35.901c.817,0,1.231.648,1.231,1.347s-.414,1.347-1.231,1.347-1.231-.648-1.231-1.347.414-1.347,1.231-1.347ZM66.608,38.307c.627,0,.89-.54.89-1.059s-.263-1.059-.89-1.059-.89.54-.89,1.059.264,1.059.89,1.059Z"/>
      <path d="M68.188,35.962h.363l1.354,2.085h.007v-2.085h.324v2.571h-.374l-1.344-2.063h-.007v2.063h-.324v-2.571h.001Z"/>
      <path d="M72.215,36.715c-.04-.368-.285-.526-.638-.526-.288,0-.576.104-.576.439,0,.317.41.364.824.457.411.094.821.238.821.742,0,.548-.536.767-1.005.767-.576,0-1.062-.281-1.062-.907h.324c0,.432.36.619.749.619.31,0,.652-.097.652-.468,0-.353-.411-.415-.821-.504s-.824-.209-.824-.681c0-.522.464-.752.933-.752.525,0,.925.249.946.814,0,0-.323,0-.323,0Z"/>
      <path d="M73.412,37.072h-.399v-.4h.399v.4ZM73.013,38.134h.399v.4h-.399v-.4Z"/>
      <path d="M75.802,39.247c-.346-.54-.565-1.055-.565-1.685,0-.562.198-1.17.565-1.66h.234c-.342.54-.476,1.077-.476,1.66,0,.605.134,1.134.476,1.685h-.234Z"/>
      <path d="M77.218,38.534h-.307v-1.829h-.662v-.245c.35,0,.666-.094.734-.479h.234v2.553h0Z"/>
      <path d="M77.836,39.247c.342-.54.476-1.077.476-1.66,0-.605-.134-1.134-.476-1.685h.234c.346.54.565,1.055.565,1.685,0,.562-.198,1.17-.565,1.66h-.234Z"/>
      <path d="M81.021,36.25h-.857v-.288h2.057v.288h-.857v2.283h-.342v-2.283h0Z"/>
      <path d="M82.439,35.962h.342v1.105h1.354v-1.105h.343v2.571h-.343v-1.178h-1.354v1.178h-.342v-2.571Z"/>
      <path d="M84.988,35.962h.343v2.571h-.343v-2.571Z"/>
      <path d="M87.33,36.715c-.04-.368-.285-.526-.638-.526-.288,0-.576.104-.576.439,0,.317.41.364.824.457.411.094.821.238.821.742,0,.548-.536.767-1.005.767-.576,0-1.062-.281-1.062-.907h.324c0,.432.36.619.749.619.31,0,.652-.097.652-.468,0-.353-.411-.415-.821-.504s-.824-.209-.824-.681c0-.522.464-.752.933-.752.525,0,.925.249.946.814,0,0-.323,0-.323,0Z"/>
      <path d="M89.527,35.962h.882c.792,0,1.235.396,1.235,1.225,0,.86-.378,1.347-1.235,1.347h-.882v-2.571h0ZM89.869,38.246h.569c.233,0,.864-.065.864-1.012,0-.612-.228-.983-.857-.983h-.576v1.995Z"/>
      <path d="M91.997,35.962h1.775v.288h-1.434v.817h1.336v.288h-1.336v.89h1.444v.288h-1.786v-2.571h0Z"/>
      <path d="M95.143,38.534h-.389l-.908-2.571h.371l.734,2.229h.008l.741-2.229h.356l-.914,2.571h0Z"/>
      <path d="M96.279,35.962h.343v2.571h-.343v-2.571Z"/>
      <path d="M98.941,36.737c-.072-.364-.364-.547-.721-.547-.612,0-.871.504-.871,1.041,0,.587.259,1.077.875,1.077.45,0,.709-.317.742-.742h.342c-.065.641-.465,1.03-1.113,1.03-.799,0-1.188-.59-1.188-1.339s.425-1.354,1.217-1.354c.536,0,.979.288,1.059.835h-.342,0Z"/>
      <path d="M99.668,35.962h1.775v.288h-1.434v.817h1.336v.288h-1.336v.89h1.444v.288h-1.786v-2.571h0Z"/>
      <path d="M103.227,35.962h.468l.811,2.161.813-2.161h.469v2.571h-.324v-2.139h-.007l-.804,2.139h-.291l-.804-2.139h-.007v2.139h-.324v-2.571Z"/>
      <path d="M106.988,35.962h.378l1.005,2.571h-.378l-.281-.774h-1.087l-.288.774h-.354l1.005-2.571ZM106.732,37.471h.872l-.429-1.199h-.008l-.436,1.199h0Z"/>
      <path d="M109.354,37.482v1.052h-.342v-1.052l-.994-1.52h.407l.771,1.225.753-1.225h.389l-.983,1.52h0Z"/>
      <path d="M111.973,35.962h.363l1.354,2.085h.007v-2.085h.324v2.571h-.374l-1.344-2.063h-.007v2.063h-.324v-2.571h.001Z"/>
      <path d="M115.599,35.901c.817,0,1.231.648,1.231,1.347s-.414,1.347-1.231,1.347-1.231-.648-1.231-1.347.414-1.347,1.231-1.347ZM115.599,38.307c.627,0,.89-.54.89-1.059s-.263-1.059-.89-1.059-.89.54-.89,1.059.264,1.059.89,1.059Z"/>
      <path d="M117.767,36.25h-.857v-.288h2.057v.288h-.857v2.283h-.342v-2.283h0Z"/>
      <path d="M122.409,36.737c-.072-.364-.364-.547-.721-.547-.612,0-.871.504-.871,1.041,0,.587.259,1.077.875,1.077.45,0,.709-.317.742-.742h.342c-.064.641-.465,1.03-1.113,1.03-.799,0-1.188-.59-1.188-1.339s.425-1.354,1.217-1.354c.536,0,.979.288,1.059.835h-.342,0Z"/>
      <path d="M123.835,35.962h.378l1.005,2.571h-.378l-.281-.774h-1.087l-.288.774h-.354l1.005-2.571ZM123.579,37.471h.872l-.429-1.199h-.008l-.436,1.199h0Z"/>
      <path d="M127.456,37.604c0,.648-.37.99-1.012.99-.662,0-1.055-.306-1.055-.99v-1.642h.342v1.642c0,.454.26.702.713.702.433,0,.67-.249.67-.702v-1.642h.342v1.642Z"/>
      <path d="M129.427,36.715c-.04-.368-.285-.526-.638-.526-.288,0-.576.104-.576.439,0,.317.41.364.824.457.411.094.821.238.821.742,0,.548-.536.767-1.005.767-.576,0-1.062-.281-1.062-.907h.324c0,.432.36.619.749.619.31,0,.652-.097.652-.468,0-.353-.411-.415-.821-.504s-.824-.209-.824-.681c0-.522.464-.752.933-.752.525,0,.925.249.946.814,0,0-.323,0-.323,0Z"/>
      <path d="M130.208,35.962h1.775v.288h-1.434v.817h1.336v.288h-1.336v.89h1.444v.288h-1.786v-2.571h.001Z"/>
      <path d="M133.759,35.962h.342v1.105h1.354v-1.105h.343v2.571h-.343v-1.178h-1.354v1.178h-.342v-2.571Z"/>
      <path d="M136.992,35.962h.378l1.005,2.571h-.378l-.281-.774h-1.087l-.288.774h-.354l1.005-2.571ZM136.736,37.471h.872l-.429-1.199h-.008l-.436,1.199h.001Z"/>
      <path d="M138.562,35.962h1.21c.482,0,.781.263.781.673,0,.31-.137.565-.446.652v.007c.299.058.359.277.385.529.021.252.008.533.151.709h-.382c-.097-.104-.043-.382-.094-.634-.036-.252-.097-.464-.429-.464h-.835v1.098h-.342v-2.571h0ZM139.616,37.147c.32,0,.594-.083.594-.458,0-.252-.137-.439-.457-.439h-.85v.897h.713Z"/>
      <path d="M140.97,35.962h.468l.811,2.161.813-2.161h.469v2.571h-.324v-2.139h-.007l-.804,2.139h-.291l-.804-2.139h-.007v2.139h-.324v-2.571h0Z"/>
      <path d="M144.034,35.962h1.688v.288h-1.347v.817h1.181v.288h-1.181v1.178h-.342v-2.571h0Z"/>
      <path d="M148.087,37.604c0,.648-.37.99-1.012.99-.662,0-1.055-.306-1.055-.99v-1.642h.342v1.642c0,.454.26.702.713.702.433,0,.67-.249.67-.702v-1.642h.342v1.642Z"/>
      <path d="M148.57,35.962h.342v2.283h1.361v.288h-1.703v-2.571h0Z"/>
      <path d="M6.075,40.163h.343v2.571h-.343v-2.571Z"/>
      <path d="M7.099,40.163h.363l1.354,2.085h.007v-2.085h.324v2.571h-.374l-1.344-2.063h-.007v2.063h-.324v-2.571h0Z"/>
      <path d="M10.393,40.451h-.857v-.288h2.057v.288h-.857v2.283h-.342v-2.283h0Z"/>
      <path d="M11.984,40.163h1.775v.288h-1.434v.817h1.336v.288h-1.336v.89h1.444v.288h-1.786v-2.571h.001Z"/>
      <path d="M14.291,40.163h1.21c.482,0,.781.263.781.673,0,.31-.137.565-.446.652v.007c.299.058.359.277.385.529.021.252.007.533.151.709h-.382c-.097-.104-.043-.382-.094-.634-.036-.252-.097-.464-.429-.464h-.835v1.098h-.342v-2.571h.001ZM15.346,41.348c.32,0,.595-.083.595-.458,0-.252-.138-.439-.458-.439h-.85v.897h.713Z"/>
      <path d="M16.865,40.163h1.688v.288h-1.347v.817h1.181v.288h-1.181v1.178h-.342v-2.571h.001Z"/>
      <path d="M19.04,40.163h1.775v.288h-1.434v.817h1.336v.288h-1.336v.89h1.444v.288h-1.786v-2.571h0Z"/>
      <path d="M21.347,40.163h1.21c.482,0,.781.263.781.673,0,.31-.137.565-.446.652v.007c.299.058.359.277.385.529.021.252.008.533.151.709h-.382c-.097-.104-.043-.382-.094-.634-.036-.252-.097-.464-.429-.464h-.835v1.098h-.342v-2.571h0ZM22.401,41.348c.32,0,.594-.083.594-.458,0-.252-.137-.439-.457-.439h-.85v.897h.713Z"/>
      <path d="M23.921,40.163h1.775v.288h-1.434v.817h1.336v.288h-1.336v.89h1.444v.288h-1.786v-2.571h0Z"/>
      <path d="M26.224,40.163h.363l1.354,2.085h.007v-2.085h.324v2.571h-.374l-1.344-2.063h-.007v2.063h-.324v-2.571h0Z"/>
      <path d="M30.743,40.937c-.072-.364-.364-.547-.721-.547-.612,0-.871.504-.871,1.041,0,.587.259,1.077.875,1.077.45,0,.709-.317.742-.742h.342c-.064.641-.465,1.03-1.113,1.03-.799,0-1.188-.59-1.188-1.339s.425-1.354,1.217-1.354c.536,0,.979.288,1.059.835h-.342Z"/>
      <path d="M31.644,40.163h1.775v.288h-1.434v.817h1.336v.288h-1.336v.89h1.444v.288h-1.786v-2.571h.001Z"/>
      <path d="M33.968,42.334h.399v.364c0,.27-.118.486-.396.565v-.18c.162-.054.216-.234.209-.349h-.213v-.4h.001Z"/>
      <path d="M38.399,40.163h.378l1.005,2.571h-.378l-.281-.774h-1.087l-.288.774h-.354s1.005-2.571,1.005-2.571ZM38.144,41.671h.872l-.429-1.199h-.008l-.436,1.199h0Z"/>
      <path d="M40.138,40.163h.363l1.354,2.085h.007v-2.085h.324v2.571h-.374l-1.344-2.063h-.007v2.063h-.324v-2.571h.001Z"/>
      <path d="M42.85,40.163h.882c.792,0,1.235.396,1.235,1.225,0,.86-.378,1.347-1.235,1.347h-.882v-2.571h0ZM43.191,42.446h.569c.233,0,.864-.065.864-1.012,0-.612-.228-.983-.857-.983h-.576v1.995Z"/>
      <path d="M48.586,43.447c-.346-.54-.565-1.055-.565-1.685,0-.562.198-1.17.565-1.66h.234c-.342.54-.476,1.077-.476,1.66,0,.605.134,1.134.476,1.685h-.234Z"/>
      <path d="M49.051,41.084c-.025-.519.281-.904.821-.904.446,0,.8.259.8.735,0,.45-.303.677-.62.875-.32.194-.655.356-.716.673h1.311v.27h-1.667c.05-.605.356-.821.716-1.044.433-.266.652-.425.652-.778,0-.277-.224-.461-.493-.461-.357,0-.508.328-.497.634,0,0-.307,0-.307,0Z"/>
      <path d="M50.967,43.447c.342-.54.476-1.077.476-1.66,0-.605-.134-1.134-.476-1.685h.234c.346.54.565,1.055.565,1.685,0,.562-.198,1.17-.565,1.66h-.234Z"/>
      <path d="M55.549,40.451h-.857v-.288h2.057v.288h-.857v2.283h-.342v-2.283h-.001Z"/>
      <path d="M57.141,40.163h.342v1.105h1.354v-1.105h.343v2.571h-.343v-1.178h-1.354v1.178h-.342v-2.571Z"/>
      <path d="M59.861,40.163h.343v2.571h-.343v-2.571Z"/>
      <path d="M62.376,40.916c-.04-.368-.285-.526-.638-.526-.288,0-.576.104-.576.439,0,.317.41.364.824.457.411.094.821.238.821.742,0,.548-.536.767-1.005.767-.576,0-1.062-.281-1.062-.907h.324c0,.432.36.619.749.619.31,0,.652-.097.652-.468,0-.353-.411-.415-.821-.504s-.824-.209-.824-.681c0-.522.464-.752.933-.752.525,0,.925.249.946.814,0,0-.323,0-.323,0Z"/>
      <path d="M65.971,40.163h.882c.792,0,1.235.396,1.235,1.225,0,.86-.378,1.347-1.235,1.347h-.882v-2.571h0ZM66.313,42.446h.569c.233,0,.864-.065.864-1.012,0-.612-.228-.983-.857-.983h-.576v1.995Z"/>
      <path d="M68.613,40.163h1.775v.288h-1.434v.817h1.336v.288h-1.336v.89h1.444v.288h-1.786v-2.571h0Z"/>
      <path d="M71.933,42.734h-.389l-.908-2.571h.371l.734,2.229h.008l.741-2.229h.356l-.914,2.571h0Z"/>
      <path d="M73.241,40.163h.343v2.571h-.343v-2.571Z"/>
      <path d="M76.076,40.937c-.072-.364-.364-.547-.721-.547-.612,0-.871.504-.871,1.041,0,.587.259,1.077.875,1.077.45,0,.709-.317.742-.742h.342c-.065.641-.465,1.03-1.113,1.03-.799,0-1.188-.59-1.188-1.339s.425-1.354,1.217-1.354c.536,0,.979.288,1.059.835h-.342,0Z"/>
      <path d="M76.976,40.163h1.775v.288h-1.434v.817h1.336v.288h-1.336v.89h1.444v.288h-1.786v-2.571h0Z"/>
      <path d="M81.932,40.163h.468l.811,2.161.813-2.161h.469v2.571h-.324v-2.139h-.007l-.804,2.139h-.291l-.804-2.139h-.007v2.139h-.324v-2.571Z"/>
      <path d="M87.22,41.805c0,.648-.37.99-1.012.99-.662,0-1.055-.306-1.055-.99v-1.642h.342v1.642c0,.454.26.702.713.702.433,0,.67-.249.67-.702v-1.642h.342v1.642Z"/>
      <path d="M89.363,40.916c-.04-.368-.285-.526-.638-.526-.288,0-.576.104-.576.439,0,.317.41.364.824.457.411.094.821.238.821.742,0,.548-.536.767-1.005.767-.576,0-1.062-.281-1.062-.907h.324c0,.432.36.619.749.619.31,0,.652-.097.652-.468,0-.353-.411-.415-.821-.504s-.824-.209-.824-.681c0-.522.464-.752.933-.752.525,0,.925.249.946.814,0,0-.323,0-.323,0Z"/>
      <path d="M90.9,40.451h-.857v-.288h2.057v.288h-.857v2.283h-.342v-2.283h0Z"/>
      <path d="M95.831,40.163h.378l1.005,2.571h-.378l-.281-.774h-1.087l-.288.774h-.354l1.005-2.571ZM95.575,41.671h.872l-.429-1.199h-.008l-.436,1.199h0Z"/>
      <path d="M99.382,40.937c-.072-.364-.364-.547-.721-.547-.612,0-.871.504-.871,1.041,0,.587.259,1.077.875,1.077.45,0,.709-.317.742-.742h.342c-.064.641-.465,1.03-1.113,1.03-.799,0-1.188-.59-1.188-1.339s.425-1.354,1.217-1.354c.536,0,.979.288,1.059.835h-.342,0Z"/>
      <path d="M102.089,40.937c-.072-.364-.364-.547-.721-.547-.612,0-.871.504-.871,1.041,0,.587.259,1.077.875,1.077.45,0,.709-.317.742-.742h.342c-.064.641-.465,1.03-1.113,1.03-.799,0-1.188-.59-1.188-1.339s.425-1.354,1.217-1.354c.536,0,.979.288,1.059.835h-.342,0Z"/>
      <path d="M102.989,40.163h1.775v.288h-1.434v.817h1.336v.288h-1.336v.89h1.444v.288h-1.786v-2.571h0Z"/>
      <path d="M105.297,40.163h1.127c.511,0,.788.285.788.76s-.277.764-.788.76h-.785v1.052h-.342v-2.571h0ZM105.639,41.394h.67c.385.004.562-.166.562-.472s-.177-.472-.562-.472h-.67v.943h0Z"/>
      <path d="M108.32,40.451h-.857v-.288h2.057v.288h-.857v2.283h-.342v-2.283h0Z"/>
      <path d="M113.252,40.163h.378l1.005,2.571h-.378l-.281-.774h-1.087l-.288.774h-.354l1.005-2.571ZM112.996,41.671h.872l-.429-1.199h-.008l-.436,1.199h0Z"/>
      <path d="M114.99,40.163h.363l1.354,2.085h.007v-2.085h.324v2.571h-.374l-1.344-2.063h-.007v2.063h-.324v-2.571h.001Z"/>
      <path d="M118.764,41.682v1.052h-.342v-1.052l-.994-1.52h.407l.771,1.225.753-1.225h.389l-.983,1.52h0Z"/>
      <path d="M122.798,40.163h.343v2.571h-.343v-2.571Z"/>
      <path d="M123.821,40.163h.363l1.354,2.085h.007v-2.085h.324v2.571h-.374l-1.344-2.063h-.007v2.063h-.324v-2.571h.001Z"/>
      <path d="M127.116,40.451h-.857v-.288h2.057v.288h-.857v2.283h-.342v-2.283h0Z"/>
      <path d="M128.707,40.163h1.775v.288h-1.434v.817h1.336v.288h-1.336v.89h1.444v.288h-1.786v-2.571h.001Z"/>
      <path d="M131.015,40.163h1.21c.482,0,.781.263.781.673,0,.31-.137.565-.446.652v.007c.299.058.359.277.385.529.021.252.008.533.151.709h-.382c-.097-.104-.043-.382-.094-.634-.036-.252-.097-.464-.429-.464h-.835v1.098h-.342v-2.571h0ZM132.069,41.348c.32,0,.594-.083.594-.458,0-.252-.137-.439-.457-.439h-.85v.897h.713Z"/>
      <path d="M133.588,40.163h1.688v.288h-1.347v.817h1.181v.288h-1.181v1.178h-.342v-2.571h0Z"/>
      <path d="M135.763,40.163h1.775v.288h-1.434v.817h1.336v.288h-1.336v.89h1.444v.288h-1.786v-2.571h.001Z"/>
      <path d="M138.07,40.163h1.21c.482,0,.781.263.781.673,0,.31-.137.565-.446.652v.007c.299.058.359.277.385.529.021.252.007.533.151.709h-.382c-.097-.104-.043-.382-.094-.634-.036-.252-.097-.464-.429-.464h-.835v1.098h-.342v-2.571h0ZM139.125,41.348c.32,0,.595-.083.595-.458,0-.252-.138-.439-.458-.439h-.85v.897h.713Z"/>
      <path d="M140.644,40.163h1.775v.288h-1.434v.817h1.336v.288h-1.336v.89h1.444v.288h-1.786v-2.571h.001Z"/>
      <path d="M142.947,40.163h.363l1.354,2.085h.007v-2.085h.324v2.571h-.374l-1.344-2.063h-.007v2.063h-.324v-2.571h0Z"/>
      <path d="M147.466,40.937c-.072-.364-.364-.547-.721-.547-.612,0-.871.504-.871,1.041,0,.587.259,1.077.875,1.077.45,0,.709-.317.742-.742h.342c-.064.641-.465,1.03-1.113,1.03-.799,0-1.188-.59-1.188-1.339s.425-1.354,1.217-1.354c.536,0,.979.288,1.059.835h-.342Z"/>
      <path d="M148.366,40.163h1.775v.288h-1.434v.817h1.336v.288h-1.336v.89h1.444v.288h-1.786v-2.571h.001Z"/>
      <path d="M6.062,44.362h1.21c.482,0,.781.263.781.673,0,.31-.137.565-.446.652v.007c.299.058.359.277.385.529.021.252.008.533.151.709h-.382c-.097-.104-.043-.382-.094-.634-.036-.252-.097-.464-.429-.464h-.835v1.098h-.342v-2.571h0ZM7.116,45.547c.32,0,.594-.083.594-.458,0-.252-.137-.439-.457-.439h-.85v.897h.713Z"/>
      <path d="M8.553,44.362h1.775v.288h-1.434v.817h1.336v.288h-1.336v.89h1.444v.288h-1.786v-2.571h.001Z"/>
      <path d="M12.585,45.137c-.072-.364-.364-.547-.721-.547-.612,0-.871.504-.871,1.041,0,.587.259,1.077.875,1.077.45,0,.709-.317.742-.742h.342c-.064.641-.465,1.03-1.113,1.03-.799,0-1.188-.59-1.188-1.339s.425-1.354,1.217-1.354c.536,0,.979.288,1.059.835h-.342Z"/>
      <path d="M13.401,44.362h1.775v.288h-1.434v.817h1.336v.288h-1.336v.89h1.444v.288h-1.786v-2.571h.001Z"/>
      <path d="M15.64,44.362h.343v2.571h-.343v-2.571Z"/>
      <path d="M17.596,46.934h-.389l-.908-2.571h.371l.734,2.229h.008l.741-2.229h.356l-.914,2.571h.001Z"/>
      <path d="M18.809,44.362h1.775v.288h-1.434v.817h1.336v.288h-1.336v.89h1.444v.288h-1.786v-2.571h0Z"/>
      <path d="M21.033,44.362h.882c.792,0,1.235.396,1.235,1.225,0,.86-.378,1.347-1.235,1.347h-.882v-2.571h0ZM21.375,46.646h.569c.233,0,.864-.065.864-1.012,0-.612-.228-.983-.857-.983h-.576v1.995Z"/>
      <path d="M23.609,46.534h.399v.364c0,.27-.118.486-.396.565v-.18c.162-.054.216-.234.209-.349h-.213v-.4h0Z"/>
      <path d="M25.263,44.362h.343v2.571h-.343v-2.571Z"/>
      <path d="M26.155,44.362h.363l1.354,2.085h.007v-2.085h.324v2.571h-.374l-1.344-2.063h-.007v2.063h-.324v-2.571h0Z"/>
      <path d="M30.545,45.137c-.072-.364-.364-.547-.721-.547-.612,0-.871.504-.871,1.041,0,.587.259,1.077.875,1.077.45,0,.709-.317.742-.742h.342c-.065.641-.465,1.03-1.113,1.03-.799,0-1.188-.59-1.188-1.339s.425-1.354,1.217-1.354c.536,0,.979.288,1.059.835h-.342,0Z"/>
      <path d="M31.315,44.362h.342v2.283h1.361v.288h-1.703s0-2.571,0-2.571Z"/>
      <path d="M35.349,46.004c0,.648-.371.99-1.013.99-.662,0-1.055-.306-1.055-.99v-1.642h.342v1.642c0,.454.26.702.713.702.433,0,.67-.248.67-.702v-1.642h.343s0,1.642,0,1.642Z"/>
      <path d="M35.874,44.362h.882c.792,0,1.235.396,1.235,1.225,0,.86-.378,1.347-1.235,1.347h-.882v-2.571h0ZM36.216,46.646h.569c.233,0,.864-.065.864-1.012,0-.612-.228-.983-.857-.983h-.576v1.995Z"/>
      <path d="M38.4,44.362h.343v2.571h-.343v-2.571Z"/>
      <path d="M39.294,44.362h.363l1.354,2.085h.007v-2.085h.324v2.571h-.374l-1.344-2.063h-.007v2.063h-.324v-2.571h.001Z"/>
      <path d="M43.799,46.613c-.198.27-.522.381-.825.381-.767,0-1.224-.626-1.224-1.296,0-.749.41-1.397,1.224-1.397.562,0,1.009.252,1.105.854h-.342c-.068-.389-.382-.565-.764-.565-.623,0-.882.54-.882,1.091,0,.537.31,1.026.882,1.026.529,0,.847-.371.825-.839h-.821v-.288h1.127v1.354h-.216l-.09-.32h0Z"/>
      <path d="M45.579,44.362h.343v2.571h-.343v-2.571Z"/>
      <path d="M46.502,44.362h.363l1.354,2.085h.007v-2.085h.324v2.571h-.374l-1.344-2.063h-.007v2.063h-.324v-2.571h.001Z"/>
      <path d="M49.695,44.65h-.857v-.288h2.057v.288h-.857v2.283h-.342v-2.283h-.001Z"/>
      <path d="M51.186,44.362h1.775v.288h-1.434v.817h1.336v.288h-1.336v.89h1.444v.288h-1.786v-2.571h0Z"/>
      <path d="M53.393,44.362h1.21c.482,0,.781.263.781.673,0,.31-.137.565-.446.652v.007c.299.058.359.277.385.529.021.252.007.533.151.709h-.382c-.097-.104-.043-.382-.094-.634-.036-.252-.097-.464-.429-.464h-.835v1.098h-.342v-2.571h.001ZM54.447,45.547c.32,0,.595-.083.595-.458,0-.252-.138-.439-.458-.439h-.85v.897s.713,0,.713,0Z"/>
      <path d="M55.865,44.362h1.688v.288h-1.347v.817h1.181v.288h-1.181v1.178h-.342v-2.571h0Z"/>
      <path d="M57.939,44.362h1.775v.288h-1.434v.817h1.336v.288h-1.336v.89h1.444v.288h-1.786v-2.571h0Z"/>
      <path d="M60.146,44.362h1.21c.482,0,.781.263.781.673,0,.31-.137.565-.446.652v.007c.299.058.359.277.385.529.021.252.008.533.151.709h-.382c-.097-.104-.043-.382-.094-.634-.036-.252-.097-.464-.429-.464h-.835v1.098h-.342v-2.571h.001ZM61.2,45.547c.32,0,.594-.083.594-.458,0-.252-.137-.439-.457-.439h-.85v.897s.713,0,.713,0Z"/>
      <path d="M62.618,44.362h1.775v.288h-1.434v.817h1.336v.288h-1.336v.89h1.444v.288h-1.786v-2.571h0Z"/>
      <path d="M64.821,44.362h.363l1.354,2.085h.007v-2.085h.324v2.571h-.374l-1.344-2.063h-.007v2.063h-.324v-2.571h.001Z"/>
      <path d="M69.239,45.137c-.072-.364-.364-.547-.721-.547-.612,0-.871.504-.871,1.041,0,.587.259,1.077.875,1.077.45,0,.709-.317.742-.742h.342c-.064.641-.465,1.03-1.113,1.03-.799,0-1.188-.59-1.188-1.339s.425-1.354,1.217-1.354c.536,0,.979.288,1.059.835h-.342,0Z"/>
      <path d="M70.038,44.362h1.775v.288h-1.434v.817h1.336v.288h-1.336v.89h1.444v.288h-1.786v-2.571h0Z"/>
      <path d="M73.808,44.65h-.857v-.288h2.057v.288h-.857v2.283h-.342v-2.283h0Z"/>
      <path d="M75.201,44.362h.342v1.105h1.354v-1.105h.343v2.571h-.343v-1.178h-1.354v1.178h-.342v-2.571Z"/>
      <path d="M78.408,44.362h.378l1.005,2.571h-.378l-.281-.774h-1.087l-.288.774h-.354l1.005-2.571ZM78.152,45.871h.872l-.429-1.199h-.008l-.436,1.199h0Z"/>
      <path d="M80.205,44.65h-.857v-.288h2.057v.288h-.857v2.283h-.342v-2.283h0Z"/>
      <path d="M82.574,44.362h.468l.811,2.161.813-2.161h.469v2.571h-.324v-2.139h-.007l-.804,2.139h-.291l-.804-2.139h-.007v2.139h-.324v-2.571Z"/>
      <path d="M86.222,44.362h.378l1.005,2.571h-.378l-.281-.774h-1.087l-.288.774h-.354l1.005-2.571ZM85.966,45.871h.872l-.429-1.199h-.008l-.436,1.199h0Z"/>
      <path d="M88.471,45.882v1.051h-.342v-1.051l-.994-1.52h.407l.771,1.225.753-1.225h.389l-.983,1.52h0Z"/>
      <path d="M92.371,45.137c-.072-.364-.364-.547-.721-.547-.612,0-.871.504-.871,1.041,0,.587.259,1.077.875,1.077.45,0,.709-.317.742-.742h.342c-.065.641-.465,1.03-1.113,1.03-.799,0-1.188-.59-1.188-1.339s.425-1.354,1.217-1.354c.536,0,.979.288,1.059.835h-.342,0Z"/>
      <path d="M93.789,44.362h.378l1.005,2.571h-.378l-.281-.774h-1.087l-.288.774h-.354l1.005-2.571ZM93.533,45.871h.872l-.429-1.199h-.008l-.436,1.199h0Z"/>
      <path d="M97.403,46.004c0,.648-.37.99-1.012.99-.662,0-1.055-.306-1.055-.99v-1.642h.342v1.642c0,.454.26.702.713.702.433,0,.67-.248.67-.702v-1.642h.342v1.642Z"/>
      <path d="M99.367,45.115c-.04-.368-.285-.526-.638-.526-.288,0-.576.104-.576.439,0,.317.41.363.824.457.411.094.821.238.821.742,0,.547-.536.767-1.005.767-.576,0-1.062-.281-1.062-.907h.324c0,.432.36.619.749.619.31,0,.652-.097.652-.468,0-.353-.411-.414-.821-.504-.41-.09-.824-.209-.824-.681,0-.522.464-.752.933-.752.525,0,.925.249.946.814,0,0-.323,0-.323,0Z"/>
      <path d="M100.141,44.362h1.775v.288h-1.434v.817h1.336v.288h-1.336v.89h1.444v.288h-1.786v-2.571h0Z"/>
      <path d="M105.288,46.004c0,.648-.37.99-1.012.99-.662,0-1.055-.306-1.055-.99v-1.642h.342v1.642c0,.454.26.702.713.702.433,0,.67-.248.67-.702v-1.642h.342v1.642Z"/>
      <path d="M105.857,44.362h.363l1.354,2.085h.007v-2.085h.324v2.571h-.374l-1.344-2.063h-.007v2.063h-.324v-2.571h.001Z"/>
      <path d="M108.486,44.362h.882c.792,0,1.235.396,1.235,1.225,0,.86-.378,1.347-1.235,1.347h-.882v-2.571h0ZM108.828,46.646h.569c.233,0,.864-.065.864-1.012,0-.612-.228-.983-.857-.983h-.576v1.995Z"/>
      <path d="M111.046,44.362h1.775v.288h-1.434v.817h1.336v.288h-1.336v.89h1.444v.288h-1.786v-2.571h0Z"/>
      <path d="M114.757,45.115c-.04-.368-.285-.526-.638-.526-.288,0-.576.104-.576.439,0,.317.41.363.824.457.411.094.821.238.821.742,0,.547-.536.767-1.005.767-.576,0-1.062-.281-1.062-.907h.324c0,.432.36.619.749.619.31,0,.652-.097.652-.468,0-.353-.411-.414-.821-.504-.41-.09-.824-.209-.824-.681,0-.522.464-.752.933-.752.525,0,.925.249.946.814,0,0-.323,0-.323,0Z"/>
      <path d="M115.642,44.362h.343v2.571h-.343v-2.571Z"/>
      <path d="M116.586,44.362h1.21c.482,0,.781.263.781.673,0,.31-.137.565-.446.652v.007c.299.058.359.277.385.529.021.252.007.533.151.709h-.382c-.097-.104-.043-.382-.094-.634-.036-.252-.097-.464-.429-.464h-.835v1.098h-.342v-2.571h.001ZM117.641,45.547c.32,0,.595-.083.595-.458,0-.252-.138-.439-.458-.439h-.85v.897h.713Z"/>
      <path d="M119.077,44.362h1.775v.288h-1.434v.817h1.336v.288h-1.336v.89h1.444v.288h-1.786v-2.571h0Z"/>
      <path d="M121.302,44.362h.882c.792,0,1.235.396,1.235,1.225,0,.86-.378,1.347-1.235,1.347h-.882v-2.571h0ZM121.644,46.646h.569c.233,0,.864-.065.864-1.012,0-.612-.228-.983-.857-.983h-.576v1.995Z"/>
      <path d="M125.916,44.301c.817,0,1.231.648,1.231,1.347s-.414,1.347-1.231,1.347-1.231-.648-1.231-1.347.414-1.347,1.231-1.347ZM125.916,46.707c.627,0,.89-.54.89-1.059s-.263-1.059-.89-1.059-.89.54-.89,1.059.264,1.059.89,1.059Z"/>
      <path d="M127.533,44.362h1.127c.511,0,.788.285.788.76s-.277.764-.788.76h-.785v1.051h-.342s0-2.571,0-2.571ZM127.875,45.594h.67c.385.003.562-.166.562-.472s-.177-.472-.562-.472h-.67v.944Z"/>
      <path d="M129.834,44.362h1.775v.288h-1.434v.817h1.336v.288h-1.336v.89h1.444v.288h-1.786v-2.571h.001Z"/>
      <path d="M132.001,44.362h1.21c.482,0,.781.263.781.673,0,.31-.137.565-.446.652v.007c.299.058.359.277.385.529.021.252.008.533.151.709h-.382c-.097-.104-.043-.382-.094-.634-.036-.252-.097-.464-.429-.464h-.835v1.098h-.342v-2.571h0ZM133.056,45.547c.32,0,.594-.083.594-.458,0-.252-.137-.439-.457-.439h-.85v.897h.713Z"/>
      <path d="M135.132,44.362h.378l1.005,2.571h-.378l-.281-.774h-1.087l-.288.774h-.354l1.005-2.571ZM134.876,45.871h.872l-.429-1.199h-.008l-.436,1.199h.001Z"/>
      <path d="M136.986,44.65h-.857v-.288h2.057v.288h-.857v2.283h-.342v-2.283h-.001Z"/>
      <path d="M138.451,44.362h.343v2.571h-.343v-2.571Z"/>
      <path d="M140.425,44.301c.817,0,1.231.648,1.231,1.347s-.414,1.347-1.231,1.347-1.231-.648-1.231-1.347.414-1.347,1.231-1.347ZM140.425,46.707c.627,0,.89-.54.89-1.059s-.263-1.059-.89-1.059-.89.54-.89,1.059.264,1.059.89,1.059Z"/>
      <path d="M142.038,44.362h.363l1.354,2.085h.007v-2.085h.324v2.571h-.374l-1.344-2.063h-.007v2.063h-.324v-2.571h0Z"/>
      <path d="M144.627,46.534h.399v.4h-.399v-.4Z"/>
      <path d="M6.645,48.85h-.857v-.288h2.057v.288h-.857v2.283h-.342v-2.283h-.001Z"/>
      <path d="M8.128,48.562h.342v1.105h1.354v-1.105h.343v2.571h-.343v-1.178h-1.354v1.178h-.342v-2.571Z"/>
      <path d="M10.741,48.562h.343v2.571h-.343v-2.571Z"/>
      <path d="M13.147,49.315c-.04-.367-.285-.526-.638-.526-.288,0-.576.104-.576.439,0,.317.41.364.824.458.411.094.821.237.821.741,0,.548-.536.768-1.005.768-.576,0-1.062-.281-1.062-.908h.324c0,.433.36.62.749.62.31,0,.652-.098.652-.469,0-.353-.411-.414-.821-.504s-.824-.209-.824-.681c0-.522.464-.753.933-.753.525,0,.925.249.946.814h-.323Z"/>
      <path d="M17.064,49.336c-.072-.363-.364-.548-.721-.548-.612,0-.871.505-.871,1.041,0,.587.259,1.077.875,1.077.45,0,.709-.317.742-.742h.342c-.065.641-.465,1.03-1.113,1.03-.799,0-1.188-.591-1.188-1.34,0-.745.425-1.354,1.217-1.354.536,0,.979.288,1.059.836,0,0-.342,0-.342,0Z"/>
      <path d="M17.856,48.562h.342v2.283h1.361v.288h-1.703s0-2.571,0-2.571Z"/>
      <path d="M20.557,48.562h.378l1.005,2.571h-.378l-.281-.774h-1.087l-.288.774h-.354s1.005-2.571,1.005-2.571ZM20.301,50.071h.872l-.429-1.199h-.008l-.436,1.199h.001Z"/>
      <path d="M23.679,49.315c-.04-.367-.285-.526-.638-.526-.288,0-.576.104-.576.439,0,.317.41.364.824.458.411.094.821.237.821.741,0,.548-.536.768-1.005.768-.576,0-1.062-.281-1.062-.908h.324c0,.433.36.62.749.62.31,0,.652-.098.652-.469,0-.353-.411-.414-.821-.504s-.824-.209-.824-.681c0-.522.464-.753.933-.753.525,0,.925.249.946.814h-.323Z"/>
      <path d="M26.012,49.315c-.04-.367-.285-.526-.638-.526-.288,0-.576.104-.576.439,0,.317.41.364.824.458.411.094.821.237.821.741,0,.548-.536.768-1.005.768-.576,0-1.062-.281-1.062-.908h.324c0,.433.36.62.749.62.31,0,.652-.098.652-.469,0-.353-.411-.414-.821-.504s-.824-.209-.824-.681c0-.522.464-.753.933-.753.525,0,.925.249.946.814h-.323Z"/>
      <path d="M28.121,48.562h.933c.227,0,.525,0,.681.094.169.101.302.284.302.536,0,.274-.144.479-.381.576v.008c.316.064.489.303.489.619,0,.378-.271.738-.781.738h-1.242v-2.571h0ZM28.463,49.667h.685c.389,0,.547-.141.547-.41,0-.356-.252-.407-.547-.407h-.685v.817ZM28.463,50.845h.857c.295,0,.482-.18.482-.461,0-.335-.271-.429-.559-.429h-.781v.89h0Z"/>
      <path d="M31.852,48.562h.882c.792,0,1.235.396,1.235,1.225,0,.86-.378,1.347-1.235,1.347h-.882v-2.571h0ZM32.193,50.845h.569c.233,0,.864-.064.864-1.012,0-.612-.228-.983-.857-.983h-.576v1.995Z"/>
      <path d="M34.399,48.562h.343v2.571h-.343v-2.571Z"/>
      <path d="M37.241,50.813c-.198.27-.522.382-.825.382-.767,0-1.224-.627-1.224-1.297,0-.749.41-1.397,1.224-1.397.562,0,1.009.253,1.105.854h-.342c-.068-.389-.382-.565-.764-.565-.623,0-.882.541-.882,1.092,0,.536.31,1.026.882,1.026.529,0,.847-.371.825-.84h-.821v-.287h1.127v1.354h-.216l-.09-.32v-.002Z"/>
      <path d="M38.064,48.562h.343v2.571h-.343v-2.571Z"/>
      <path d="M39.566,48.85h-.857v-.288h2.057v.288h-.857v2.283h-.342v-2.283h-.001Z"/>
      <path d="M41.417,48.562h.378l1.005,2.571h-.378l-.281-.774h-1.087l-.288.774h-.354s1.005-2.571,1.005-2.571ZM41.161,50.071h.872l-.429-1.199h-.008l-.436,1.199h0Z"/>
      <path d="M43.052,48.562h.342v2.283h1.361v.288h-1.703v-2.571Z"/>
      <path d="M47.016,48.562h.378l1.005,2.571h-.378l-.281-.774h-1.087l-.288.774h-.354s1.005-2.571,1.005-2.571ZM46.76,50.071h.872l-.429-1.199h-.008l-.436,1.199h0Z"/>
      <path d="M48.65,48.562h1.127c.511,0,.788.284.788.76s-.277.764-.788.76h-.785v1.052h-.342v-2.571h0ZM48.992,49.793h.67c.385.004.562-.165.562-.472s-.177-.472-.562-.472h-.67v.943h0Z"/>
      <path d="M50.983,48.562h1.127c.511,0,.788.284.788.76s-.277.764-.788.76h-.785v1.052h-.342v-2.571h0ZM51.325,49.793h.67c.385.004.562-.165.562-.472s-.177-.472-.562-.472h-.67v.943h0Z"/>
      <path d="M53.748,48.562h.378l1.005,2.571h-.378l-.281-.774h-1.087l-.288.774h-.354s1.005-2.571,1.005-2.571ZM53.492,50.071h.872l-.429-1.199h-.008l-.436,1.199h0Z"/>
      <path d="M55.383,48.562h1.21c.482,0,.781.263.781.674,0,.31-.137.565-.446.651v.008c.299.057.359.276.385.529.021.252.007.532.151.709h-.382c-.097-.104-.043-.382-.094-.634-.036-.252-.097-.465-.429-.465h-.835v1.099h-.342v-2.571h.001ZM56.437,49.747c.32,0,.595-.082.595-.457,0-.252-.138-.439-.458-.439h-.85v.896s.713,0,.713,0Z"/>
      <path d="M58.547,48.562h.378l1.005,2.571h-.378l-.281-.774h-1.087l-.288.774h-.354s1.005-2.571,1.005-2.571ZM58.291,50.071h.872l-.429-1.199h-.008l-.436,1.199h0Z"/>
      <path d="M60.434,48.85h-.857v-.288h2.057v.288h-.857v2.283h-.342v-2.283h-.001Z"/>
      <path d="M63.97,50.205c0,.647-.371.99-1.013.99-.662,0-1.055-.307-1.055-.99v-1.643h.342v1.643c0,.453.26.702.713.702.433,0,.67-.249.67-.702v-1.643h.343s0,1.643,0,1.643Z"/>
      <path d="M66.004,49.315c-.04-.367-.285-.526-.638-.526-.288,0-.576.104-.576.439,0,.317.41.364.824.458.411.094.821.237.821.741,0,.548-.536.768-1.005.768-.576,0-1.062-.281-1.062-.908h.324c0,.433.36.62.749.62.31,0,.652-.098.652-.469,0-.353-.411-.414-.821-.504s-.824-.209-.824-.681c0-.522.464-.753.933-.753.525,0,.925.249.946.814h-.323Z"/>
      <path d="M68.12,48.562h.468l.811,2.161.813-2.161h.469v2.571h-.324v-2.139h-.007l-.804,2.139h-.291l-.804-2.139h-.007v2.139h-.324v-2.571Z"/>
      <path d="M71.249,48.562h1.775v.288h-1.434v.817h1.336v.288h-1.336v.89h1.444v.288h-1.786v-2.571h0Z"/>
      <path d="M73.448,48.562h1.775v.288h-1.434v.817h1.336v.288h-1.336v.89h1.444v.288h-1.786v-2.571h0Z"/>
      <path d="M76.23,48.85h-.857v-.288h2.057v.288h-.857v2.283h-.342v-2.283h0Z"/>
      <path d="M79.201,49.315c-.04-.367-.285-.526-.638-.526-.288,0-.576.104-.576.439,0,.317.41.364.824.458.411.094.821.237.821.741,0,.548-.536.768-1.005.768-.576,0-1.062-.281-1.062-.908h.324c0,.433.36.62.749.62.31,0,.652-.098.652-.469,0-.353-.411-.414-.821-.504s-.824-.209-.824-.681c0-.522.464-.753.933-.753.525,0,.925.249.946.814h-.323Z"/>
      <path d="M82.009,48.562h.378l1.005,2.571h-.378l-.281-.774h-1.087l-.288.774h-.354l1.005-2.571ZM81.753,50.071h.872l-.429-1.199h-.008l-.436,1.199h0Z"/>
      <path d="M83.644,48.562h.342v2.283h1.361v.288h-1.703v-2.571Z"/>
      <path d="M85.646,48.562h.342v2.283h1.361v.288h-1.703v-2.571Z"/>
      <path d="M88.911,48.562h1.21c.482,0,.781.263.781.674,0,.31-.137.565-.446.651v.008c.299.057.359.276.385.529.021.252.008.532.151.709h-.382c-.097-.104-.043-.382-.094-.634-.036-.252-.097-.465-.429-.465h-.835v1.099h-.342v-2.571h.001ZM89.966,49.747c.32,0,.594-.082.594-.457,0-.252-.137-.439-.457-.439h-.85v.896h.713Z"/>
      <path d="M91.377,48.562h1.775v.288h-1.434v.817h1.336v.288h-1.336v.89h1.444v.288h-1.786v-2.571h0Z"/>
      <path d="M95.672,51.357l-.393-.317c-.169.101-.375.155-.616.155-.817,0-1.231-.648-1.231-1.347s.414-1.348,1.231-1.348,1.231.648,1.231,1.348c0,.393-.129.771-.389,1.022l.339.27-.173.217h0ZM94.915,50.399l.343.273c.201-.198.295-.515.295-.824,0-.519-.263-1.06-.89-1.06s-.89.541-.89,1.06.264,1.059.89,1.059c.134,0,.249-.025.356-.072l-.284-.227s.18-.209.18-.209Z"/>
      <path d="M98.364,50.205c0,.647-.37.99-1.012.99-.662,0-1.055-.307-1.055-.99v-1.643h.342v1.643c0,.453.26.702.713.702.433,0,.67-.249.67-.702v-1.643h.342v1.643Z"/>
      <path d="M98.926,48.562h.343v2.571h-.343v-2.571Z"/>
      <path d="M99.845,48.562h1.21c.482,0,.781.263.781.674,0,.31-.137.565-.446.651v.008c.299.057.359.276.385.529.021.252.008.532.151.709h-.382c-.097-.104-.043-.382-.094-.634-.036-.252-.097-.465-.429-.465h-.835v1.099h-.342v-2.571h.001ZM100.899,49.747c.32,0,.594-.082.594-.457,0-.252-.137-.439-.457-.439h-.85v.896h.713Z"/>
      <path d="M102.311,48.562h1.775v.288h-1.434v.817h1.336v.288h-1.336v.89h1.444v.288h-1.786v-2.571h0Z"/>
      <path d="M104.517,48.562h.468l.811,2.161.813-2.161h.469v2.571h-.324v-2.139h-.007l-.804,2.139h-.291l-.804-2.139h-.007v2.139h-.324v-2.571Z"/>
      <path d="M107.646,48.562h1.775v.288h-1.434v.817h1.336v.288h-1.336v.89h1.444v.288h-1.786v-2.571h0Z"/>
      <path d="M109.841,48.562h.363l1.354,2.085h.007v-2.085h.324v2.571h-.374l-1.344-2.063h-.007v2.063h-.324v-2.571h.001Z"/>
      <path d="M113.027,48.85h-.857v-.288h2.057v.288h-.857v2.283h-.342v-2.283h0Z"/>
      <path d="M115.998,49.315c-.04-.367-.285-.526-.638-.526-.288,0-.576.104-.576.439,0,.317.41.364.824.458.411.094.821.237.821.741,0,.548-.536.768-1.005.768-.576,0-1.062-.281-1.062-.908h.324c0,.433.36.62.749.62.31,0,.652-.098.652-.469,0-.353-.411-.414-.821-.504s-.824-.209-.824-.681c0-.522.464-.753.933-.753.525,0,.925.249.946.814h-.323Z"/>
      <path d="M119.194,48.5c.817,0,1.231.648,1.231,1.348s-.414,1.347-1.231,1.347-1.231-.648-1.231-1.347.414-1.348,1.231-1.348ZM119.194,50.907c.627,0,.89-.54.89-1.059s-.263-1.06-.89-1.06-.89.541-.89,1.06.264,1.059.89,1.059Z"/>
      <path d="M120.844,48.562h1.688v.288h-1.347v.817h1.181v.288h-1.181v1.178h-.342v-2.571h0Z"/>
      <path d="M124.758,48.85h-.857v-.288h2.057v.288h-.857v2.283h-.342v-2.283h0Z"/>
      <path d="M126.241,48.562h.342v1.105h1.354v-1.105h.343v2.571h-.343v-1.178h-1.354v1.178h-.342v-2.571Z"/>
      <path d="M128.841,48.562h1.775v.288h-1.434v.817h1.336v.288h-1.336v.89h1.444v.288h-1.786v-2.571h.001Z"/>
      <path d="M134.111,49.336c-.072-.363-.364-.548-.721-.548-.612,0-.871.505-.871,1.041,0,.587.259,1.077.875,1.077.45,0,.709-.317.742-.742h.342c-.065.641-.465,1.03-1.113,1.03-.799,0-1.188-.591-1.188-1.34,0-.745.425-1.354,1.217-1.354.536,0,.979.288,1.059.836,0,0-.342,0-.342,0Z"/>
      <path d="M135.602,48.562h.378l1.005,2.571h-.378l-.281-.774h-1.087l-.288.774h-.354l1.005-2.571ZM135.346,50.071h.872l-.429-1.199h-.008l-.436,1.199h.001Z"/>
      <path d="M137.232,48.562h.363l1.354,2.085h.007v-2.085h.324v2.571h-.374l-1.344-2.063h-.007v2.063h-.324v-2.571h0Z"/>
      <path d="M140.534,48.562h.378l1.005,2.571h-.378l-.281-.774h-1.087l-.288.774h-.354l1.005-2.571ZM140.278,50.071h.872l-.429-1.199h-.008l-.436,1.199h.001Z"/>
      <path d="M142.169,48.562h.882c.792,0,1.235.396,1.235,1.225,0,.86-.378,1.347-1.235,1.347h-.882v-2.571h0ZM142.511,50.845h.569c.233,0,.864-.064.864-1.012,0-.612-.228-.983-.857-.983h-.576v1.995Z"/>
      <path d="M144.717,48.562h.343v2.571h-.343v-2.571Z"/>
      <path d="M146.334,48.562h.378l1.005,2.571h-.378l-.281-.774h-1.087l-.288.774h-.354l1.005-2.571ZM146.078,50.071h.872l-.429-1.199h-.008l-.436,1.199h.001Z"/>
      <path d="M147.965,48.562h.363l1.354,2.085h.007v-2.085h.324v2.571h-.374l-1.344-2.063h-.007v2.063h-.324v-2.571h0Z"/>
      <path d="M6.073,52.762h.339v2.571h-.339v-2.571Z"/>
      <path d="M7.028,52.762h.36l1.343,2.085h.007v-2.085h.321v2.571h-.371l-1.332-2.063h-.007v2.063h-.321v-2.571Z"/>
      <path d="M10.233,53.05h-.851v-.288h2.039v.288h-.85v2.283h-.339v-2.283h.001Z"/>
      <path d="M11.75,52.762h1.761v.288h-1.421v.817h1.324v.288h-1.324v.89h1.432v.288h-1.771v-2.571h-.001Z"/>
      <path d="M13.978,52.762h1.2c.479,0,.774.263.774.674,0,.31-.136.565-.442.651v.007c.296.059.356.277.382.53.021.252.007.532.15.709h-.379c-.097-.104-.043-.382-.093-.634-.036-.252-.097-.465-.425-.465h-.828v1.099h-.34v-2.571h.001ZM15.023,53.947c.318,0,.59-.083.59-.457,0-.252-.136-.439-.454-.439h-.842v.896s.706,0,.706,0Z"/>
      <path d="M16.469,52.762h1.675v.288h-1.335v.817h1.171v.288h-1.171v1.178h-.34s0-2.571,0-2.571Z"/>
      <path d="M18.565,52.762h1.761v.288h-1.421v.817h1.324v.288h-1.324v.89h1.432v.288h-1.771v-2.571h0Z"/>
      <path d="M20.793,52.762h1.2c.479,0,.774.263.774.674,0,.31-.136.565-.442.651v.007c.296.059.356.277.382.53.021.252.007.532.149.709h-.378c-.097-.104-.043-.382-.093-.634-.036-.252-.097-.465-.425-.465h-.828v1.099h-.34v-2.571h0ZM21.839,53.947c.318,0,.59-.083.59-.457,0-.252-.136-.439-.454-.439h-.842v.896h.706Z"/>
      <path d="M23.284,52.762h1.761v.288h-1.421v.817h1.324v.288h-1.324v.89h1.432v.288h-1.771v-2.571h0Z"/>
      <path d="M25.509,52.762h.36l1.343,2.085h.007v-2.085h.321v2.571h-.371l-1.332-2.063h-.007v2.063h-.321v-2.571Z"/>
      <path d="M29.928,53.537c-.071-.364-.361-.548-.715-.548-.606,0-.863.505-.863,1.041,0,.587.257,1.077.867,1.077.446,0,.703-.317.735-.742h.34c-.064.641-.461,1.03-1.104,1.03-.793,0-1.179-.591-1.179-1.34,0-.745.422-1.354,1.207-1.354.532,0,.972.288,1.05.836h-.339.001Z"/>
      <path d="M30.758,52.762h1.761v.288h-1.421v.817h1.324v.288h-1.324v.89h1.432v.288h-1.771v-2.571h-.001Z"/>
      <path d="M32.887,54.188h1.041v.288h-1.041v-.288Z"/>
      <path d="M36.053,53.537c-.072-.364-.364-.548-.721-.548-.612,0-.871.505-.871,1.041,0,.587.259,1.077.875,1.077.45,0,.709-.317.742-.742h.342c-.065.641-.465,1.03-1.113,1.03-.799,0-1.188-.591-1.188-1.34,0-.745.425-1.354,1.217-1.354.536,0,.979.288,1.059.836,0,0-.342,0-.342,0Z"/>
      <path d="M37.398,52.762h.378l1.005,2.571h-.378l-.281-.774h-1.087l-.288.774h-.354s1.005-2.571,1.005-2.571ZM37.143,54.271h.872l-.429-1.199h-.008l-.436,1.199h0Z"/>
      <path d="M40.942,54.405c0,.647-.371.99-1.013.99-.662,0-1.055-.307-1.055-.99v-1.643h.342v1.643c0,.453.26.702.713.702.433,0,.67-.249.67-.702v-1.643h.343s0,1.643,0,1.643Z"/>
      <path d="M42.832,53.515c-.04-.367-.285-.526-.638-.526-.288,0-.576.104-.576.439,0,.317.41.364.824.458.411.093.821.237.821.741,0,.548-.536.768-1.005.768-.576,0-1.062-.281-1.062-.908h.324c0,.433.36.62.749.62.31,0,.652-.098.652-.469,0-.353-.411-.414-.821-.504s-.824-.209-.824-.681c0-.522.464-.753.933-.753.525,0,.925.249.946.814h-.323,0Z"/>
      <path d="M43.548,52.762h.343v2.571h-.343v-2.571Z"/>
      <path d="M44.318,52.762h.363l1.354,2.085h.007v-2.085h.324v2.571h-.374l-1.344-2.063h-.007v2.063h-.324v-2.571h.001Z"/>
      <path d="M48.701,55.013c-.198.27-.522.382-.825.382-.767,0-1.224-.627-1.224-1.297,0-.749.41-1.397,1.224-1.397.562,0,1.009.253,1.105.854h-.342c-.068-.389-.382-.565-.764-.565-.623,0-.882.541-.882,1.092,0,.536.31,1.026.882,1.026.529,0,.847-.371.825-.839h-.821v-.289h1.127v1.354h-.216l-.09-.32h0Z"/>
      <path d="M50.655,52.762h1.775v.288h-1.434v.817h1.336v.288h-1.336v.89h1.444v.288h-1.786v-2.571h0Z"/>
      <path d="M54.914,55.557l-.393-.317c-.169.101-.375.155-.616.155-.817,0-1.231-.648-1.231-1.347s.414-1.348,1.231-1.348,1.231.648,1.231,1.348c0,.392-.129.771-.389,1.022l.339.27-.173.217h.001ZM54.157,54.599l.343.273c.201-.198.295-.515.295-.824,0-.519-.263-1.06-.89-1.06s-.89.541-.89,1.06.264,1.059.89,1.059c.134,0,.249-.025.356-.072l-.284-.227s.18-.209.18-.209Z"/>
      <path d="M57.571,54.405c0,.647-.37.99-1.012.99-.662,0-1.055-.307-1.055-.99v-1.643h.342v1.643c0,.453.26.702.713.702.433,0,.67-.249.67-.702v-1.643h.342s0,1.643,0,1.643Z"/>
      <path d="M58.097,52.762h.343v2.571h-.343v-2.571Z"/>
      <path d="M58.979,52.762h1.127c.511,0,.788.284.788.76s-.277.764-.788.76h-.785v1.052h-.342v-2.571h0ZM59.321,53.994h.67c.385.004.562-.165.562-.472s-.177-.472-.562-.472h-.67v.943h0Z"/>
      <path d="M61.283,52.762h.468l.811,2.161.813-2.161h.469v2.571h-.324v-2.139h-.007l-.804,2.139h-.291l-.804-2.139h-.007v2.139h-.324s0-2.571,0-2.571Z"/>
      <path d="M64.376,52.762h1.775v.288h-1.434v.817h1.336v.288h-1.336v.89h1.444v.288h-1.786v-2.571h0Z"/>
      <path d="M66.535,52.762h.363l1.354,2.085h.007v-2.085h.324v2.571h-.374l-1.344-2.063h-.007v2.063h-.324v-2.571h.001Z"/>
      <path d="M69.686,53.05h-.857v-.288h2.057v.288h-.857v2.283h-.342v-2.283h0Z"/>
      <path d="M72.099,52.762h1.21c.482,0,.781.263.781.674,0,.31-.137.565-.446.651v.007c.299.059.359.277.385.53.021.252.008.532.151.709h-.382c-.097-.104-.043-.382-.094-.634-.036-.252-.097-.465-.429-.465h-.835v1.099h-.342v-2.571h.001ZM73.153,53.947c.32,0,.594-.083.594-.457,0-.252-.137-.439-.457-.439h-.85v.896h.713Z"/>
      <path d="M74.528,52.762h1.775v.288h-1.434v.817h1.336v.288h-1.336v.89h1.444v.288h-1.786v-2.571h0Z"/>
      <path d="M78.614,55.013c-.198.27-.522.382-.825.382-.767,0-1.224-.627-1.224-1.297,0-.749.41-1.397,1.224-1.397.562,0,1.009.253,1.105.854h-.342c-.068-.389-.382-.565-.764-.565-.623,0-.882.541-.882,1.092,0,.536.31,1.026.882,1.026.529,0,.847-.371.825-.839h-.821v-.289h1.127v1.354h-.216l-.09-.32h0Z"/>
      <path d="M81.44,54.405c0,.647-.371.99-1.013.99-.662,0-1.055-.307-1.055-.99v-1.643h.342v1.643c0,.453.26.702.713.702.433,0,.67-.249.67-.702v-1.643h.343v1.643Z"/>
      <path d="M81.951,52.762h.342v2.283h1.361v.288h-1.703v-2.571Z"/>
      <path d="M84.615,52.762h.378l1.005,2.571h-.378l-.281-.774h-1.087l-.288.774h-.354l1.005-2.571ZM84.359,54.271h.872l-.429-1.199h-.008l-.436,1.199h0Z"/>
      <path d="M86.466,53.05h-.857v-.288h2.057v.288h-.857v2.283h-.342v-2.283h0Z"/>
      <path d="M87.928,52.762h.343v2.571h-.343v-2.571Z"/>
      <path d="M89.897,52.701c.817,0,1.231.648,1.231,1.348s-.414,1.347-1.231,1.347-1.231-.648-1.231-1.347.414-1.348,1.231-1.348ZM89.897,55.107c.627,0,.89-.54.89-1.059s-.263-1.06-.89-1.06-.89.541-.89,1.06.264,1.059.89,1.059Z"/>
      <path d="M91.507,52.762h.363l1.354,2.085h.007v-2.085h.324v2.571h-.374l-1.344-2.063h-.007v2.063h-.324v-2.571h.001Z"/>
      <path d="M95.562,53.515c-.04-.367-.285-.526-.638-.526-.288,0-.576.104-.576.439,0,.317.41.364.824.458.411.093.821.237.821.741,0,.548-.536.768-1.005.768-.576,0-1.062-.281-1.062-.908h.324c0,.433.36.62.749.62.31,0,.652-.098.652-.469,0-.353-.411-.414-.821-.504s-.824-.209-.824-.681c0-.522.464-.753.933-.753.525,0,.925.249.946.814h-.323Z"/>
      <path d="M96.389,54.934h.399v.399h-.399v-.399Z"/>
    </g>
    <g>
      <g>
        <path d="M100.007,10.483h.968l.731,2.382h.009l.692-2.382h.968v3.464h-.644v-2.455h-.009l-.767,2.455h-.53l-.766-2.431h-.009v2.431h-.645v-3.464h.002Z"/>
        <path d="M105.381,10.4c.968,0,1.537.8,1.537,1.829,0,1-.569,1.8-1.537,1.8s-1.537-.801-1.537-1.8c0-1.029.569-1.829,1.537-1.829ZM105.381,13.389c.618,0,.85-.582.85-1.16,0-.606-.231-1.189-.85-1.189s-.85.583-.85,1.189c0,.578.232,1.16.85,1.16Z"/>
        <path d="M107.386,10.483h1.35c.81,0,1.419.562,1.419,1.713,0,1.004-.465,1.751-1.419,1.751h-1.35v-3.464ZM108.073,13.307h.613c.398,0,.78-.271.78-1.038,0-.699-.22-1.146-.902-1.146h-.491v2.184Z"/>
        <path d="M110.632,10.483h2.339v.64h-1.651v.743h1.516v.592h-1.516v.849h1.687v.641h-2.374v-3.464h0Z"/>
        <path d="M113.47,10.483h.688v2.824h1.524v.641h-2.212v-3.464h0Z"/>
        <path d="M117.284,10.483h.684l1.305,2.324h.009v-2.324h.645v3.464h-.688l-1.3-2.319h-.009v2.319h-.645v-3.464h0Z"/>
        <path d="M121.931,10.4c.968,0,1.537.8,1.537,1.829,0,1-.569,1.8-1.537,1.8s-1.537-.801-1.537-1.8c0-1.029.569-1.829,1.537-1.829ZM121.931,13.389c.618,0,.85-.582.85-1.16,0-.606-.231-1.189-.85-1.189s-.85.583-.85,1.189c0,.578.232,1.16.85,1.16Z"/>
        <path d="M123.897,13.2h.688v.747h-.688v-.747Z"/>
      </g>
      <g>
        <path d="M130.283,10.976c-.057-.447-.443-.788-.888-.788-.803,0-1.104.756-1.104,1.544,0,.75.302,1.506,1.104,1.506.547,0,.854-.416.922-1.008h.865c-.091,1.122-.791,1.84-1.787,1.84-1.258,0-1.998-1.04-1.998-2.338,0-1.336.74-2.375,1.998-2.375.894,0,1.645.58,1.753,1.619,0,0-.865,0-.865,0Z"/>
        <path d="M134.624,13.453c-.312.447-.723.617-1.115.617-1.258,0-1.998-1.04-1.998-2.338,0-1.336.74-2.375,1.998-2.375.831,0,1.616.567,1.713,1.588h-.854c-.103-.498-.438-.756-.859-.756-.803,0-1.104.756-1.104,1.544,0,.75.302,1.506,1.104,1.506.581,0,.916-.347.968-.971h-.899v-.737h1.708v2.433h-.569l-.092-.51h0Z"/>
        <path d="M135.902,9.464h1.912c.774,0,1.298.277,1.298,1.115,0,.441-.199.75-.552.939.495.158.745.58.745,1.141,0,.914-.7,1.305-1.434,1.305h-1.97v-4.5h.001ZM136.796,11.285h.905c.312,0,.546-.158.546-.536,0-.429-.296-.517-.614-.517h-.837v1.053ZM136.796,13.194h.956c.354,0,.66-.126.66-.592,0-.46-.262-.643-.643-.643h-.974v1.235h.001Z"/>
        <path d="M139.715,11.858h1.713v.769h-1.713v-.769Z"/>
        <path d="M143.418,9.464c.797,0,1.469.555,1.469,2.275,0,1.758-.672,2.313-1.469,2.313-.785,0-1.457-.555-1.457-2.313,0-1.72.672-2.275,1.457-2.275ZM143.418,13.314c.66,0,.66-1.078.66-1.576,0-.46,0-1.538-.66-1.538-.648,0-.648,1.078-.648,1.538,0,.498,0,1.576.648,1.576Z"/>
        <path d="M146.541,9.464c.797,0,1.469.555,1.469,2.275,0,1.758-.672,2.313-1.469,2.313-.785,0-1.457-.555-1.457-2.313,0-1.72.672-2.275,1.457-2.275ZM146.541,13.314c.66,0,.66-1.078.66-1.576,0-.46,0-1.538-.66-1.538-.648,0-.648,1.078-.648,1.538,0,.498,0,1.576.648,1.576Z"/>
        <path d="M150.319,13.963h-.809v-2.861h-1.002v-.674c.563.012,1.082-.202,1.167-.876h.644v4.411Z"/>
      </g>
    </g>
    <rect x="5.668" y="16.382" width="144.607" height=".5"/>
    <g>
      <polygon points="146.442 26.563 146.975 26.563 146.975 23.625 146.442 23.625 146.442 26.563 146.442 26.563" fill-rule="evenodd"/>
      <polygon points="143.437 23.6 141.775 26.538 140.945 26.538 140.945 23.6 141.478 23.6 141.478 26.005 142.841 23.6 143.437 23.6" fill-rule="evenodd"/>
      <path d="M145.286,24.264c.171,0,.332.034.469.114l-.229.389c-.074-.038-.157-.057-.24-.057-.263,0-.48.217-.48.48s.217.48.48.48c.08,0,.16-.023.229-.057l.229.389c-.137.08-.286.114-.457.114-.509.002-.924-.409-.926-.918v-.008c-.002-.509.409-.924.919-.926h.008-.002Z" fill-rule="evenodd"/>
      <path d="M145.891,24c-.208-.116-.439-.185-.693-.185-.751,0-1.375.612-1.375,1.375s.624,1.375,1.375,1.375c.254,0,.485-.069.682-.173l.231.381c-.266.162-.578.243-.913.243-1.005,0-1.826-.82-1.826-1.826s.821-1.826,1.826-1.826c.335,0,.647.092.924.243l-.231.393h0Z" fill-rule="evenodd"/>
      <path d="M143.956,20.702c1.657,0,4.481.146,4.791.165.864.072.877.265.937,1.12l.007.031c.06.917.085,2.873.085,2.983v.09c0,.109-.024,2.028-.083,2.966l-.006.034c-.004.02-.006.04-.008.06-.055.811-.068,1.004-.934,1.076-.438.038-3.271.165-4.801.165s-4.351-.127-4.79-.165c-.864-.072-.877-.265-.932-1.076-.001-.021-.004-.041-.008-.062l-.006-.033c-.059-.941-.083-2.856-.083-2.965v-.09c0-.111.025-2.067.08-2.938l.017-.122c.055-.811.068-1.003.921-1.075.321-.02,3.145-.166,4.813-.166M143.956,20.202c-1.635,0-4.426.141-4.844.167-1.229.103-1.328.629-1.389,1.54l-.012.077c-.061.937-.086,2.926-.086,3.016v.09c0,.09.025,2.079.086,3.029l.012.064c.062.911.16,1.438,1.389,1.54.442.038,3.282.167,4.832.167,1.562,0,4.402-.128,4.844-.167,1.229-.103,1.328-.629,1.389-1.54l.012-.064c.062-.95.086-2.939.086-3.029v-.09c0-.09-.025-2.079-.086-3.016l-.012-.077c-.062-.911-.16-1.437-1.389-1.54-.418-.026-3.209-.167-4.832-.167h0ZM143.956,20.202h-.012.012Z"/>
      <path d="M143.935,22.196h.018c1.044,0,3.233.088,3.486.111.474.041.476.087.506.64.001.029.006.057.012.085l.002.007c.033.665.054,1.94.054,1.992v.062c0,.053-.021,1.339-.054,1.992l-.002.008c-.007.028-.01.057-.012.085-.03.571-.032.605-.506.64-.246.021-2.46.123-3.506.123-1.034,0-3.251-.102-3.49-.123-.478-.034-.48-.069-.51-.639-.001-.029-.005-.057-.012-.085l-.002-.008c-.033-.653-.054-1.939-.054-1.992v-.062c0-.052.021-1.328.054-1.992l.002-.008c.006-.028.01-.056.012-.085.03-.553.032-.599.519-.641.242-.022,2.416-.11,3.483-.11M143.944,21.696c-1.042,0-3.263.087-3.538.112-.87.075-.939.475-.973,1.112l-.011.05c-.034.65-.057,1.999-.057,2.061v.062c0,.062.023,1.424.057,2.061l.011.05c.034.65.103,1.049.973,1.112.275.025,2.496.125,3.526.125,1.042,0,3.263-.1,3.549-.125.859-.063.927-.462.962-1.112l.011-.05c.034-.637.057-1.999.057-2.061v-.062c0-.062-.023-1.412-.057-2.061l-.011-.05c-.034-.637-.103-1.037-.962-1.112-.286-.025-2.507-.112-3.538-.112h0ZM143.933,21.696h.011-.011Z"/>
    </g>
    <g>
      <g>
        <path d="M5.971,20.947h1.445c.48,0,.784.369.784.817,0,.349-.127.61-.424.743v.008c.289.083.372.394.391.693.011.187.008.536.112.702h-.589c-.071-.187-.064-.473-.094-.709-.042-.312-.15-.448-.447-.448h-.589v1.158h-.59v-2.963h0ZM6.561,22.288h.646c.263,0,.405-.125.405-.424,0-.286-.143-.411-.405-.411h-.646v.834h0Z"/>
        <path d="M9.409,20.947h.604l1.002,2.963h-.612l-.202-.66h-1.003l-.21.66h-.597s1.018-2.963,1.018-2.963ZM9.353,22.765h.694l-.338-1.087h-.007l-.35,1.087h.001Z"/>
        <path d="M11.56,21.495h-.804v-.548h2.196v.548h-.804v2.416h-.589v-2.416h0Z"/>
        <path d="M13.256,20.947h.59v2.963h-.59v-2.963Z"/>
        <path d="M14.361,20.947h.586l1.118,1.988h.008v-1.988h.552v2.963h-.589l-1.115-1.984h-.008v1.984h-.552v-2.963Z"/>
        <path d="M19.075,23.574c-.207.295-.478.407-.736.407-.829,0-1.317-.685-1.317-1.54,0-.88.488-1.564,1.317-1.564.548,0,1.066.373,1.13,1.046h-.562c-.068-.328-.289-.498-.567-.498-.529,0-.728.498-.728,1.017,0,.494.198.992.728.992.383,0,.604-.229.639-.64h-.594v-.485h1.126v1.602h-.375l-.06-.336h0Z"/>
        <path d="M26.212,20.947h1.156c.694,0,1.216.481,1.216,1.465,0,.859-.397,1.499-1.216,1.499h-1.156v-2.963h0ZM26.802,23.363h.525c.342,0,.668-.232.668-.888,0-.598-.188-.979-.773-.979h-.42v1.868h0Z"/>
        <path d="M30.776,21.943c-.038-.295-.293-.519-.586-.519-.529,0-.728.498-.728,1.017,0,.494.198.992.728.992.36,0,.563-.274.608-.664h.57c-.06.738-.521,1.212-1.179,1.212-.829,0-1.317-.685-1.317-1.54,0-.88.488-1.564,1.317-1.564.59,0,1.085.382,1.156,1.066h-.57.001Z"/>
        <path d="M32.362,22.18c.229.021.56-.029.56-.361,0-.245-.177-.386-.371-.386-.267,0-.409.22-.406.519h-.506c.019-.593.367-1.004.908-1.004.42,0,.882.286.882.805,0,.274-.124.519-.368.593v.009c.289.07.466.336.466.66,0,.61-.462.955-.976.955-.59,0-.987-.39-.977-1.059h.507c.012.315.154.573.462.573.24,0,.428-.183.428-.457,0-.439-.349-.432-.608-.432v-.415h-.001Z"/>
        <path d="M35.096,23.911h-.664l-.871-2.963h.608l.597,2.083h.008l.604-2.083h.607l-.89,2.963h0Z"/>
        <path d="M39.075,20.947c.525,0,.968.365.968,1.498,0,1.158-.442,1.523-.968,1.523-.519,0-.961-.365-.961-1.523,0-1.133.442-1.498.961-1.498ZM39.075,23.483c.436,0,.436-.71.436-1.038,0-.303,0-1.013-.436-1.013-.428,0-.428.71-.428,1.013,0,.328,0,1.038.428,1.038Z"/>
        <path d="M40.345,23.271h.589v.639h-.589v-.639Z"/>
        <path d="M42.616,21.752c-.033-.195-.169-.361-.353-.361-.387,0-.488.56-.503.884l.008.008c.146-.228.338-.324.593-.324.226,0,.454.116.604.299.139.179.202.419.202.647,0,.594-.371,1.062-.919,1.062-.796,0-1.01-.768-1.01-1.502,0-.709.285-1.519,1.032-1.519.454,0,.792.295.852.805h-.507,0ZM41.81,22.943c0,.27.157.54.424.54.256,0,.402-.27.402-.531,0-.274-.128-.548-.402-.548-.285,0-.424.253-.424.539Z"/>
        <path d="M46.056,23.911h-.586l-.454-2.017h-.007l-.447,2.017h-.597l-.709-2.963h.589l.424,2.017h.008l.466-2.017h.552l.458,2.042h.007l.439-2.042h.578l-.721,2.963Z"/>
        <path d="M5.971,25.147h1.262c.51,0,.855.183.855.734,0,.291-.131.494-.364.619.327.104.492.382.492.751,0,.602-.462.859-.946.859h-1.299s0-2.963,0-2.963ZM6.561,26.347h.597c.206,0,.36-.104.36-.353,0-.282-.195-.34-.405-.34h-.552v.693ZM6.561,27.604h.63c.233,0,.436-.083.436-.39,0-.303-.172-.423-.424-.423h-.642v.813Z"/>
        <path d="M9.342,25.147h.604l1.002,2.963h-.612l-.202-.66h-1.002l-.211.66h-.597l1.018-2.963ZM9.285,26.965h.694l-.338-1.087h-.007l-.35,1.087h.001Z"/>
        <path d="M11.492,25.695h-.804v-.548h2.196v.548h-.804v2.416h-.589v-2.416h0Z"/>
        <path d="M13.782,25.695h-.804v-.548h2.196v.548h-.804v2.416h-.589v-2.416h0Z"/>
        <path d="M15.478,25.147h2.005v.548h-1.415v.635h1.299v.507h-1.299v.726h1.445v.548h-2.035v-2.963h0Z"/>
        <path d="M17.906,25.147h1.445c.48,0,.784.369.784.817,0,.349-.127.61-.424.743v.008c.289.083.372.394.391.693.011.187.008.536.112.702h-.589c-.071-.187-.064-.473-.094-.709-.042-.312-.15-.448-.447-.448h-.589v1.158h-.59v-2.963h.001ZM18.496,26.488h.646c.263,0,.405-.125.405-.424,0-.286-.143-.411-.405-.411h-.646v.834h0Z"/>
        <path d="M21.168,26.957l-.987-1.81h.665l.627,1.17.623-1.17h.656l-.994,1.826v1.137h-.59v-1.154h0Z"/>
        <path d="M26.191,25.147h.59v2.416h1.306v.548h-1.896v-2.963h0Z"/>
        <path d="M28.388,25.147h1.445c.48,0,.784.369.784.817,0,.349-.127.61-.424.743v.008c.289.083.372.394.391.693.011.187.007.536.112.702h-.589c-.071-.187-.064-.473-.094-.709-.042-.312-.15-.448-.447-.448h-.589v1.158h-.59v-2.963h.001ZM28.978,26.488h.646c.263,0,.405-.125.405-.424,0-.286-.143-.411-.405-.411h-.646v.834h0Z"/>
        <path d="M32.264,25.953c-.033-.195-.169-.361-.353-.361-.387,0-.488.56-.503.884l.008.008c.146-.228.338-.324.593-.324.226,0,.454.116.604.299.139.179.202.419.202.647,0,.594-.371,1.062-.919,1.062-.796,0-1.01-.768-1.01-1.502,0-.709.285-1.519,1.032-1.519.454,0,.792.295.852.805h-.507.001ZM31.457,27.144c0,.27.157.54.424.54.256,0,.402-.27.402-.531,0-.274-.128-.548-.402-.548-.285,0-.424.253-.424.539Z"/>
        <path d="M35.019,25.077c-.278.585-.409,1.236-.409,1.88,0,.656.127,1.312.405,1.909h-.443c-.308-.564-.495-1.22-.495-1.868,0-.619.165-1.395.495-1.921h.447Z"/>
        <path d="M35.955,25.147h.604l1.002,2.963h-.612l-.202-.66h-1.002l-.211.66h-.597s1.018-2.963,1.018-2.963ZM35.898,26.965h.694l-.338-1.087h-.007l-.35,1.087h0Z"/>
        <path d="M38.496,25.147h.604l1.002,2.963h-.612l-.202-.66h-1.002l-.211.66h-.597s1.018-2.963,1.018-2.963ZM38.439,26.965h.694l-.338-1.087h-.007l-.35,1.087h0Z"/>
        <path d="M40.02,28.866c.278-.581.409-1.232.409-1.876,0-.656-.128-1.312-.405-1.913h.442c.309.568.496,1.224.496,1.872,0,.619-.165,1.395-.496,1.917h-.446Z"/>
        <path d="M41.827,26.982l-.639-1.017h.608l.342.561.338-.561h.589l-.638,1.005.717,1.141h-.608l-.405-.676-.405.676h-.597s.698-1.129.698-1.129Z"/>
        <path d="M43.253,26.322c-.019-.664.323-1.175.954-1.175.48,0,.9.34.9.909,0,.436-.21.676-.469.88-.26.203-.567.369-.759.668h1.242v.506h-1.929c.004-.672.375-.958.829-1.299.232-.174.548-.353.552-.709,0-.274-.165-.448-.394-.448-.315,0-.417.361-.417.668h-.511.002Z"/>
      </g>
      <g>
        <circle cx="24.405" cy="22.127" r=".411"/>
        <circle cx="24.405" cy="23.611" r=".411"/>
      </g>
      <g>
        <circle cx="24.289" cy="26.424" r=".411"/>
        <circle cx="24.289" cy="27.908" r=".411"/>
      </g>
    </g>
    <g>
      <path d="M52.851,25.306h1.209c.668,0,.927.469.927.951s-.259.95-.927.95h-.619v1.062h-.59v-2.963ZM53.44,26.701h.458c.273,0,.518-.066.518-.444s-.244-.444-.518-.444h-.458v.888Z"/>
      <path d="M55.271,26.784c.03-.552.478-.718.913-.718.386,0,.852.096.852.61v1.116c0,.195.019.391.067.478h-.54c-.019-.066-.034-.137-.038-.208-.169.195-.416.266-.652.266-.368,0-.661-.204-.661-.643,0-.486.33-.602.661-.652.326-.054.63-.042.63-.282,0-.253-.157-.291-.345-.291-.203,0-.334.091-.354.324h-.533ZM56.503,27.22c-.09.087-.277.091-.442.124-.165.038-.315.1-.315.315,0,.22.153.274.326.274.417,0,.432-.365.432-.494v-.22h0Z"/>
      <path d="M58.12,26.124h.391v.394h-.391v1.062c0,.199.046.249.226.249.057,0,.109-.004.165-.017v.46c-.09.017-.206.021-.312.021-.326,0-.611-.083-.611-.51v-1.266h-.323v-.394h.323v-.644h.532v.644h0Z"/>
      <path d="M59.203,27.34c.016.374.181.544.477.544.215,0,.387-.146.421-.278h.469c-.149.506-.469.722-.908.722-.611,0-.991-.465-.991-1.129,0-.643.402-1.133.991-1.133.661,0,.979.614.942,1.274h-1.401ZM60.07,26.966c-.049-.299-.165-.457-.424-.457-.338,0-.436.291-.443.457h.867Z"/>
      <path d="M60.915,26.124h.506v.299h.012c.135-.241.368-.357.593-.357.567,0,.71.353.71.884v1.32h-.533v-1.212c0-.353-.094-.527-.342-.527-.289,0-.413.179-.413.614v1.125h-.532v-2.146h0Z"/>
      <path d="M63.813,26.124h.391v.394h-.391v1.062c0,.199.046.249.226.249.057,0,.109-.004.165-.017v.46c-.09.017-.206.021-.312.021-.326,0-.611-.083-.611-.51v-1.266h-.323v-.394h.323v-.644h.532v.644h0Z"/>
      <path d="M64.869,27.572c.004.257.199.361.409.361.154,0,.35-.066.35-.274,0-.178-.222-.24-.604-.332-.308-.074-.615-.195-.615-.572,0-.548.428-.689.844-.689.425,0,.815.158.856.685h-.507c-.015-.228-.173-.291-.364-.291-.12,0-.297.025-.297.199,0,.212.301.241.604.319.312.079.616.204.616.602,0,.564-.443.747-.886.747-.451,0-.89-.187-.913-.755,0,0,.507,0,.507,0Z"/>
      <path d="M68.059,25.792h-.533v-.486h.533v.486ZM67.525,26.124h.533v2.146h-.533v-2.146Z"/>
      <path d="M68.89,27.572c.004.257.199.361.409.361.154,0,.35-.066.35-.274,0-.178-.222-.24-.604-.332-.308-.074-.615-.195-.615-.572,0-.548.428-.689.844-.689.425,0,.815.158.856.685h-.507c-.015-.228-.173-.291-.364-.291-.12,0-.297.025-.297.199,0,.212.301.241.604.319.312.079.616.204.616.602,0,.564-.443.747-.887.747-.45,0-.889-.187-.912-.755,0,0,.507,0,.507,0Z"/>
      <path d="M70.902,27.572c.004.257.199.361.409.361.154,0,.35-.066.35-.274,0-.178-.222-.24-.604-.332-.308-.074-.615-.195-.615-.572,0-.548.428-.689.844-.689.425,0,.815.158.856.685h-.507c-.015-.228-.173-.291-.364-.291-.12,0-.297.025-.297.199,0,.212.301.241.604.319.312.079.616.204.616.602,0,.564-.443.747-.886.747-.451,0-.89-.187-.913-.755,0,0,.507,0,.507,0Z"/>
      <path d="M74.322,28.27h-.507v-.299h-.012c-.135.241-.367.357-.593.357-.566,0-.709-.353-.709-.884v-1.319h.532v1.212c0,.353.094.527.342.527.289,0,.413-.178.413-.614v-1.125h.533v2.146h.001Z"/>
      <path d="M75.163,27.34c.016.374.181.544.477.544.215,0,.387-.146.421-.278h.469c-.149.506-.469.722-.908.722-.611,0-.991-.465-.991-1.129,0-.643.402-1.133.991-1.133.661,0,.979.614.942,1.274h-1.401ZM76.03,26.966c-.049-.299-.165-.457-.424-.457-.338,0-.436.291-.443.457h.867Z"/>
      <path d="M78.26,27.996h-.008c-.124.232-.342.332-.589.332-.586,0-.871-.556-.871-1.15,0-.577.289-1.112.859-1.112.229,0,.454.108.574.32h.008v-1.079h.533v2.963h-.507v-.274h.001ZM77.794,26.51c-.349,0-.469.332-.469.685,0,.336.139.689.469.689.354,0,.458-.341.458-.693,0-.349-.112-.681-.458-.681Z"/>
      <path d="M80.184,26.784c.03-.552.478-.718.913-.718.386,0,.852.096.852.61v1.116c0,.195.019.391.067.478h-.54c-.019-.066-.034-.137-.038-.208-.169.195-.416.266-.652.266-.368,0-.661-.204-.661-.643,0-.486.33-.602.661-.652.326-.054.63-.042.63-.282,0-.253-.157-.291-.345-.291-.203,0-.334.091-.354.324h-.533ZM81.415,27.22c-.09.087-.277.091-.442.124-.165.038-.315.1-.315.315,0,.22.153.274.326.274.417,0,.432-.365.432-.494v-.22h0Z"/>
      <path d="M82.357,26.124h.506v.299h.012c.135-.241.368-.357.593-.357.567,0,.71.353.71.884v1.32h-.533v-1.212c0-.353-.094-.527-.342-.527-.289,0-.413.179-.413.614v1.125h-.532v-2.146h0Z"/>
      <path d="M85.965,27.996h-.008c-.124.232-.342.332-.589.332-.586,0-.871-.556-.871-1.15,0-.577.289-1.112.859-1.112.229,0,.454.108.574.32h.008v-1.079h.533v2.963h-.507v-.274h.001ZM85.499,26.51c-.349,0-.469.332-.469.685,0,.336.139.689.469.689.354,0,.458-.341.458-.693,0-.349-.112-.681-.458-.681Z"/>
      <path d="M87.967,25.306h1.209c.668,0,.927.469.927.951s-.259.95-.927.95h-.619v1.062h-.59v-2.963ZM88.557,26.701h.458c.273,0,.518-.066.518-.444s-.244-.444-.518-.444h-.458v.888Z"/>
      <path d="M90.85,27.34c.016.374.181.544.477.544.215,0,.387-.146.421-.278h.469c-.149.506-.469.722-.908.722-.611,0-.991-.465-.991-1.129,0-.643.402-1.133.991-1.133.661,0,.979.614.942,1.274h-1.401ZM91.717,26.966c-.049-.299-.165-.457-.424-.457-.338,0-.436.291-.443.457h.867Z"/>
      <path d="M92.562,26.124h.506v.299h.012c.135-.241.368-.357.593-.357.567,0,.71.353.71.884v1.32h-.533v-1.212c0-.353-.094-.527-.342-.527-.289,0-.413.179-.413.614v1.125h-.532v-2.146h0Z"/>
      <path d="M96.169,27.996h-.008c-.124.232-.342.332-.589.332-.586,0-.871-.556-.871-1.15,0-.577.289-1.112.859-1.112.229,0,.454.108.574.32h.008v-1.079h.533v2.963h-.507v-.274h.001ZM95.703,26.51c-.349,0-.469.332-.469.685,0,.336.139.689.469.689.354,0,.458-.341.458-.693,0-.349-.112-.681-.458-.681Z"/>
      <path d="M97.622,25.792h-.533v-.486h.533v.486ZM97.089,26.124h.533v2.146h-.533v-2.146Z"/>
      <path d="M98.041,26.124h.506v.299h.012c.135-.241.368-.357.593-.357.567,0,.71.353.71.884v1.32h-.533v-1.212c0-.353-.094-.527-.342-.527-.289,0-.413.179-.413.614v1.125h-.532v-2.146h0Z"/>
      <path d="M102.128,28.133c0,.353-.112.95-1.006.95-.383,0-.83-.199-.856-.689h.529c.049.22.211.294.398.294.296,0,.432-.224.428-.531v-.282h-.008c-.116.225-.349.332-.581.332-.582,0-.83-.489-.83-1.079,0-.556.289-1.062.833-1.062.256,0,.451.096.578.345h.008v-.286h.507v2.009h0ZM101.621,27.17c0-.349-.108-.66-.454-.66-.301,0-.432.291-.432.61,0,.307.104.643.432.643.304,0,.454-.287.454-.593Z"/>
      <path d="M102.578,27.63h.59v.639c0,.382-.263.635-.586.689v-.299c.158-.029.274-.208.267-.39h-.271s0-.639,0-.639Z"/>
      <path d="M105.094,27.286c0,.394.277.548.593.548.206,0,.521-.066.521-.37,0-.32-.401-.374-.796-.49-.397-.116-.799-.286-.799-.843,0-.605.518-.896,1.002-.896.559,0,1.073.27,1.073.955h-.57c-.019-.357-.248-.448-.529-.448-.188,0-.405.087-.405.336,0,.229.127.257.799.448.195.054.796.191.796.863,0,.544-.387.95-1.114.95-.594,0-1.148-.323-1.142-1.054h.571,0Z"/>
      <path d="M107.507,27.34c.016.374.181.544.477.544.215,0,.387-.146.421-.278h.469c-.149.506-.469.722-.908.722-.611,0-.991-.465-.991-1.129,0-.643.402-1.133.991-1.133.661,0,.979.614.942,1.274h-1.401ZM108.374,26.966c-.049-.299-.165-.457-.424-.457-.338,0-.436.291-.443.457h.867Z"/>
      <path d="M109.657,27.34c.016.374.181.544.477.544.215,0,.387-.146.421-.278h.469c-.149.506-.469.722-.908.722-.611,0-.991-.465-.991-1.129,0-.643.402-1.133.991-1.133.661,0,.979.614.942,1.274h-1.401ZM110.524,26.966c-.049-.299-.165-.457-.424-.457-.338,0-.436.291-.443.457h.867Z"/>
      <path d="M112.412,25.306h.532v1.079h.008c.132-.22.372-.32.612-.32.387,0,.803.345.803,1.129,0,.789-.416,1.133-.803,1.133-.286,0-.522-.095-.639-.332h-.008v.274h-.506v-2.963h0ZM113.38,26.51c-.315,0-.454.328-.454.689,0,.357.139.685.454.685s.454-.328.454-.685c0-.361-.139-.689-.454-.689Z"/>
      <path d="M115.643,26.065c.612,0,1.006.448,1.006,1.133,0,.681-.394,1.129-1.006,1.129-.607,0-1.002-.448-1.002-1.129,0-.685.395-1.133,1.002-1.133ZM115.643,27.884c.364,0,.474-.345.474-.685,0-.344-.109-.689-.474-.689-.36,0-.469.345-.469.689,0,.34.108.685.469.685Z"/>
      <path d="M117.933,26.065c.612,0,1.006.448,1.006,1.133,0,.681-.394,1.129-1.006,1.129-.607,0-1.002-.448-1.002-1.129,0-.685.395-1.133,1.002-1.133ZM117.933,27.884c.364,0,.474-.345.474-.685,0-.344-.109-.689-.474-.689-.36,0-.469.345-.469.689,0,.34.108.685.469.685Z"/>
      <path d="M119.33,25.306h.532v1.589l.672-.771h.631l-.731.788.814,1.357h-.646l-.533-.959-.207.22v.739h-.532s0-2.963,0-2.963Z"/>
      <path d="M121.446,25.306h.533v2.963h-.533v-2.963Z"/>
      <path d="M122.837,27.34c.016.374.181.544.477.544.215,0,.387-.146.421-.278h.469c-.149.506-.469.722-.908.722-.611,0-.991-.465-.991-1.129,0-.643.402-1.133.991-1.133.661,0,.979.614.942,1.274h-1.401ZM123.704,26.966c-.049-.299-.165-.457-.424-.457-.338,0-.436.291-.443.457h.867Z"/>
      <path d="M125.225,26.124h.391v.394h-.391v1.062c0,.199.046.249.226.249.057,0,.109-.004.165-.017v.46c-.09.017-.206.021-.312.021-.326,0-.611-.083-.611-.51v-1.266h-.323v-.394h.323v-.644h.532v.644h0Z"/>
      <path d="M125.892,27.63h.589v.639h-.589v-.639Z"/>
    </g>
    <g>
      <g>
        <path d="M62.381,23.911h-.533v-1.884h-.661v-.444c.372.008.714-.133.77-.577h.425v2.905h0Z"/>
        <path d="M63.624,23.164c.033.195.169.361.353.361.387,0,.488-.561.503-.884l-.008-.008c-.146.229-.338.324-.593.324-.226,0-.454-.116-.604-.299-.139-.178-.202-.419-.202-.647,0-.593.371-1.062.919-1.062.796,0,1.01.768,1.01,1.502,0,.71-.285,1.519-1.032,1.519-.454,0-.792-.294-.852-.805h.507,0ZM64.431,21.972c0-.27-.157-.539-.424-.539-.256,0-.401.27-.401.531,0,.273.127.548.401.548.285,0,.424-.253.424-.54Z"/>
        <path d="M65.707,23.164c.033.195.169.361.353.361.387,0,.488-.561.503-.884l-.008-.008c-.146.229-.337.324-.593.324-.225,0-.454-.116-.604-.299-.139-.178-.202-.419-.202-.647,0-.593.371-1.062.919-1.062.796,0,1.01.768,1.01,1.502,0,.71-.285,1.519-1.032,1.519-.454,0-.792-.294-.852-.805h.507,0ZM66.514,21.972c0-.27-.157-.539-.424-.539-.256,0-.401.27-.401.531,0,.273.127.548.401.548.285,0,.424-.253.424-.54Z"/>
        <path d="M68.207,20.947c.653,0,.879.498.879.78,0,.287-.136.519-.383.61v.009c.312.079.491.344.491.709,0,.61-.495.913-.983.913-.507,0-.998-.282-.998-.909,0-.37.188-.631.495-.714v-.009c-.255-.079-.387-.311-.387-.598,0-.522.458-.792.886-.792h0ZM68.211,23.525c.256,0,.45-.199.45-.49,0-.278-.202-.465-.45-.465-.259,0-.465.162-.465.461s.21.494.465.494ZM68.207,22.176c.218,0,.395-.133.395-.382,0-.149-.063-.403-.395-.403-.214,0-.401.146-.401.403,0,.253.188.382.401.382Z"/>
        <path d="M70.544,20.947h.586l1.118,1.988h.008v-1.988h.552v2.963h-.589l-1.115-1.984h-.008v1.984h-.552s0-2.963,0-2.963Z"/>
        <path d="M73.813,21.433h-.533v-.486h.533v.486ZM73.28,21.765h.533v2.146h-.533v-2.146Z"/>
        <path d="M74.232,21.765h.506v.299h.012c.135-.241.368-.357.593-.357.567,0,.71.353.71.884v1.32h-.533v-1.212c0-.353-.094-.527-.342-.527-.289,0-.413.179-.413.614v1.125h-.532v-2.146h0Z"/>
        <path d="M77.129,21.765h.391v.394h-.391v1.062c0,.199.046.249.226.249.057,0,.109-.004.165-.017v.46c-.09.017-.206.021-.312.021-.326,0-.611-.083-.611-.51v-1.266h-.323v-.394h.323v-.644h.532v.644h0Z"/>
        <path d="M78.212,22.981c.016.374.181.544.477.544.215,0,.387-.146.421-.278h.469c-.149.506-.469.722-.908.722-.611,0-.991-.465-.991-1.129,0-.643.402-1.133.991-1.133.661,0,.979.614.942,1.274h-1.401ZM79.079,22.607c-.049-.299-.165-.457-.424-.457-.338,0-.436.291-.443.457h.867Z"/>
        <path d="M79.924,21.765h.506v.299h.012c.135-.241.368-.357.593-.357.567,0,.71.353.71.884v1.32h-.533v-1.212c0-.353-.094-.527-.342-.527-.289,0-.413.179-.413.614v1.125h-.532v-2.146h0Z"/>
        <path d="M83.531,23.637h-.008c-.124.232-.342.332-.589.332-.586,0-.871-.556-.871-1.15,0-.577.289-1.112.859-1.112.229,0,.454.108.574.32h.008v-1.079h.533v2.963h-.507v-.274h.001ZM83.065,22.151c-.349,0-.469.332-.469.685,0,.336.139.689.469.689.354,0,.458-.341.458-.693,0-.349-.112-.681-.458-.681Z"/>
        <path d="M85.378,21.707c.612,0,1.006.448,1.006,1.133,0,.681-.394,1.129-1.006,1.129-.607,0-1.002-.448-1.002-1.129,0-.685.395-1.133,1.002-1.133ZM85.378,23.525c.364,0,.474-.345.474-.685,0-.344-.109-.689-.474-.689-.36,0-.469.345-.469.689,0,.34.108.685.469.685Z"/>
      </g>
      <g>
        <path d="M54.452,21.037c.818,0,1.483.665,1.483,1.482s-.665,1.482-1.483,1.482-1.483-.665-1.483-1.482.665-1.482,1.483-1.482M54.452,20.823c-.937,0-1.697.759-1.697,1.696s.76,1.696,1.697,1.696,1.697-.759,1.697-1.696-.76-1.696-1.697-1.696h0Z"/>
        <path d="M54.988,22.166c-.057-.223-.201-.386-.483-.386-.416,0-.589.367-.589.739s.174.739.589.739c.301,0,.467-.225.494-.508h.332c-.027.464-.356.785-.826.785-.582,0-.929-.462-.929-1.016s.348-1.016.929-1.016c.437.002.782.244.823.663h-.34Z"/>
      </g>
      <g>
        <path d="M58.579,21.036c.818,0,1.483.665,1.483,1.483s-.665,1.483-1.483,1.483-1.483-.665-1.483-1.483.665-1.483,1.483-1.483M58.579,20.823c-.937,0-1.697.76-1.697,1.697s.76,1.697,1.697,1.697,1.697-.76,1.697-1.697-.76-1.697-1.697-1.697h0Z"/>
        <path d="M57.601,21.577h.465l.52,1.476h.005l.507-1.476h.459v1.885h-.314v-1.455h-.005l-.522,1.455h-.272l-.523-1.455h-.005v1.455h-.314v-1.885h-.001Z"/>
      </g>
    </g>
    <g>
      <g>
        <path d="M113.083,61.145h.771l1.279,4.282h-.781l-.259-.954h-1.279l-.268.954h-.762l1.298-4.282h0ZM113.012,63.771h.886l-.431-1.571h-.01l-.445,1.571Z"/>
        <path d="M117.712,62.584c-.048-.426-.374-.75-.747-.75-.676,0-.93.719-.93,1.469,0,.714.254,1.434.93,1.434.46,0,.718-.396.775-.959h.729c-.076,1.067-.666,1.751-1.504,1.751-1.06,0-1.683-.99-1.683-2.225,0-1.271.623-2.261,1.683-2.261.752,0,1.384.552,1.476,1.542h-.729Z"/>
        <path d="M118.983,61.145h.747l1.428,2.873h.01v-2.873h.704v4.282h-.752l-1.423-2.866h-.01v2.866h-.704s0-4.282,0-4.282Z"/>
        <path d="M124.862,61.145c.671,0,1.236.528,1.236,2.165,0,1.673-.565,2.201-1.236,2.201-.661,0-1.227-.528-1.227-2.201,0-1.637.565-2.165,1.227-2.165ZM124.862,64.809c.556,0,.556-1.025.556-1.499,0-.438,0-1.463-.556-1.463-.546,0-.546,1.025-.546,1.463,0,.474,0,1.499.546,1.499Z"/>
        <path d="M128.06,62.308c-.044-.282-.216-.522-.451-.522-.493,0-.622.81-.642,1.277l.01.012c.187-.33.431-.468.757-.468.287,0,.58.168.771.432.177.258.259.605.259.936,0,.857-.475,1.535-1.174,1.535-1.016,0-1.289-1.109-1.289-2.171,0-1.025.364-2.195,1.317-2.195.58,0,1.011.426,1.088,1.164,0,0-.646,0-.646,0ZM127.029,64.029c0,.39.201.78.541.78.326,0,.513-.39.513-.768,0-.396-.163-.792-.513-.792-.364,0-.541.366-.541.779h0Z"/>
        <path d="M130.191,61.145c.671,0,1.236.528,1.236,2.165,0,1.673-.565,2.201-1.236,2.201-.661,0-1.227-.528-1.227-2.201,0-1.637.565-2.165,1.227-2.165ZM130.191,64.809c.556,0,.556-1.025.556-1.499,0-.438,0-1.463-.556-1.463-.546,0-.546,1.025-.546,1.463,0,.474,0,1.499.546,1.499Z"/>
        <path d="M135.257,61.93h-1.385l-.134.954.01.012c.182-.234.393-.324.656-.324.661,0,1.035.642,1.035,1.427,0,.864-.57,1.529-1.246,1.511-.651,0-1.236-.45-1.246-1.331h.681c.033.372.254.629.551.629.354,0,.58-.39.58-.81,0-.438-.216-.786-.58-.786-.244,0-.378.108-.513.336h-.613l.331-2.321h1.873v.702h0Z"/>
        <path d="M137.385,62.308c-.044-.282-.216-.522-.451-.522-.493,0-.622.81-.642,1.277l.01.012c.187-.33.431-.468.757-.468.287,0,.58.168.771.432.177.258.259.605.259.936,0,.857-.475,1.535-1.174,1.535-1.016,0-1.289-1.109-1.289-2.171,0-1.025.364-2.195,1.317-2.195.58,0,1.011.426,1.088,1.164,0,0-.646,0-.646,0ZM136.354,64.029c0,.39.201.78.541.78.326,0,.513-.39.513-.768,0-.396-.163-.792-.513-.792-.364,0-.541.366-.541.779h0Z"/>
        <path d="M140.049,62.308c-.044-.282-.216-.522-.451-.522-.493,0-.622.81-.642,1.277l.01.012c.187-.33.431-.468.757-.468.287,0,.58.168.771.432.177.258.259.605.259.936,0,.857-.475,1.535-1.174,1.535-1.016,0-1.289-1.109-1.289-2.171,0-1.025.364-2.195,1.317-2.195.58,0,1.011.426,1.088,1.164,0,0-.646,0-.646,0ZM139.019,64.029c0,.39.201.78.541.78.326,0,.513-.39.513-.768,0-.396-.163-.792-.513-.792-.364,0-.541.366-.541.779h0Z"/>
        <path d="M143.514,61.145c.671,0,1.236.528,1.236,2.165,0,1.673-.565,2.201-1.236,2.201-.661,0-1.227-.528-1.227-2.201,0-1.637.565-2.165,1.227-2.165ZM143.514,64.809c.556,0,.556-1.025.556-1.499,0-.438,0-1.463-.556-1.463-.546,0-.546,1.025-.546,1.463,0,.474,0,1.499.546,1.499Z"/>
        <path d="M146.187,61.145c.834,0,1.121.72,1.121,1.127,0,.414-.173.75-.489.881v.012c.398.114.628.498.628,1.025,0,.881-.632,1.319-1.255,1.319-.647,0-1.274-.408-1.274-1.313,0-.534.239-.911.632-1.031v-.012c-.325-.114-.493-.45-.493-.863,0-.756.585-1.146,1.131-1.146h-.001ZM146.192,64.869c.325,0,.575-.288.575-.708,0-.402-.259-.672-.575-.672-.331,0-.595.234-.595.666s.269.714.595.714ZM146.187,62.919c.277,0,.503-.192.503-.551,0-.216-.081-.582-.503-.582-.273,0-.513.21-.513.582,0,.366.239.551.513.551Z"/>
        <path d="M148.608,62.926c.292.03.714-.042.714-.522,0-.354-.226-.558-.475-.558-.34,0-.522.318-.518.75h-.646c.023-.857.47-1.451,1.159-1.451.537,0,1.126.414,1.126,1.164,0,.396-.158.75-.47.857v.012c.369.102.595.485.595.953,0,.882-.59,1.379-1.246,1.379-.752,0-1.26-.563-1.246-1.529h.647c.014.456.196.828.589.828.307,0,.546-.264.546-.66,0-.636-.445-.624-.775-.624v-.6h0Z"/>
      </g>
      <path d="M106.102,62.923c-.235.243-.562.626-.844.868-.1.085-.236.181-.454.103-.429-.154-.866-.517-1.011-.71-.112-.148-.113-.208-.13-.296-.099-.538-.193-1.989-.199-2.255-.006-.309.117-.581.488-.989s.875-.365,1.045-.204.209.972.234,1.317c.015.206.069.517.267.551.164.028.275.106.496-.115.469-.469,2.187-2.145,2.686-2.632-.85-1.193-2.237-1.977-3.814-1.977-2.59,0-4.689,2.099-4.689,4.689s2.099,4.689,4.689,4.689,4.689-2.099,4.689-4.689c0-.562-.115-1.093-.296-1.592-1.09,1.114-2.721,2.792-3.158,3.244v-.002Z" fill-rule="evenodd"/>
    </g>
  </g>
</svg>