<?xml version="1.0" encoding="UTF-8"?>
<svg id="Layer_1" xmlns="http://www.w3.org/2000/svg" width="49.576mm" height="14.276mm" version="1.1" viewBox="0 0 140.532 40.469">
  <g>
    <rect x=".126" y=".126" width="140.28" height="40.217" rx="3.9526pt" fill="#fff" data-background="background"/>
    <rect x=".126" y=".126" width="140.28" height="40.217" rx="3.9526pt" fill="none" stroke="#a8a8ab" stroke-width="0.25pt" stroke-dasharray="0.9pt" data-stroke="stroke"/>
  </g>
  <g fill="#000" data-foreground="foreground">
    <path d="M17.302,13.077c1.021,0,2.058.182,3.109.552l.52.184.184-.429h5.326l.398,2.388.796-2.418h24.336c1.561,0,2.51.673,3.428,1.775.337-.306.673-.582,1.071-.827.949-.612,2.02-.918,3.092-.918h14.387l-.949,1.5,18.061-.031,1.653,2.847,1.469-2.816h12l2.969,2.326v-2.326h22.591v10.806h-20.846l-3.031-2.357v2.357h-16.897l-1.133-1.867c-.918,1.041-2.571,1.867-5.296,1.867h-15c-.424.424-.871.527-1.381.527-.079,0-.159-.002-.241-.007l-.153.98h-5.786l.122-.826c-.061.031-.122.092-.184.122-.971.596-2.038.905-3.097.905-.41,0-.818-.046-1.219-.14-1.102-.245-2.082-.857-2.816-1.653-.98.949-2.296,1.592-3.551,1.592l-28.438.031-.459-2.602-1.163,2.602h-4.745c-.4.065-.8.098-1.197.098-1.092,0-2.162-.247-3.15-.741-1.837-.98-3.061-2.694-3.245-4.622-.337-3.214.918-5.786,3.551-7.408,1.583-.972,3.225-1.47,4.912-1.47M17.302,12.077c-1.859,0-3.688.544-5.435,1.618-2.967,1.829-4.395,4.799-4.022,8.364.213,2.233,1.622,4.255,3.769,5.4,1.147.574,2.357.858,3.62.858.423,0,.851-.033,1.276-.098h5.315l.097-.217.038.218h.84s28.438-.032,28.438-.032c1.171,0,2.435-.459,3.516-1.256.78.634,1.689,1.083,2.633,1.293.461.108.948.164,1.436.164.677,0,1.357-.108,2.016-.317l-.017.116h7.8l.132-.846.028-.177c.351-.062.742-.195,1.127-.477h14.633c2.425,0,4.02-.614,5.057-1.332l.516.851.292.481h18.46v-1.312l1.417,1.102.271.211h22.189v-12.806h-24.591v1.273l-1.353-1.06-.272-.213h-12.951l-.28.537-.63,1.207-.741-1.277-.29-.499h-.577s-16.241.028-16.241.028l.947-1.497h-16.203c-1.284,0-2.541.373-3.634,1.078-.155.095-.301.195-.438.295-.811-.771-1.889-1.404-3.52-1.404h-25.06l-.01.031h-6.446l-.077.18c-1.028-.323-2.061-.487-3.076-.487h0Z" />
    <g>
      <path d="M84.205,22.138h-1.898v-3.857h2.694c1.439,0,2.143.582,2.143,1.837,0,1.531-.765,2.02-2.939,2.02M97.46,16.659h-2.204l-.061.122-2.48,4.561-2.663-4.561-.061-.092h-2.357l.184.306.459.735c-.735-.704-1.837-1.071-3.275-1.071h-4.745v5.939l-3.52-5.816-.061-.092h-1.806l-.061.092-4.01,6.734-.184.306h5.051v-1.592h-2.051l2.051-3.704,2.908,5.173.061.092h5.908c3.092,0,4.684-1.224,4.684-3.612,0-.429-.061-.796-.153-1.133l2.816,4.653.061.092h1.378l.061-.092,3.888-6.734.184-.306" />
      <polyline points="111.143 16.659 110.929 16.659 110.929 20.914 105.572 16.72 105.51 16.659 104.102 16.659 104.102 22.597 100.582 16.781 100.521 16.659 98.715 16.659 98.653 16.781 94.643 23.485 94.46 23.822 96.602 23.822 96.602 23.822 99.541 23.822 99.541 22.23 97.49 22.23 99.541 18.526 102.449 23.699 102.51 23.822 104.837 23.822 104.837 23.822 106 23.822 106 19.506 111.357 23.761 111.418 23.822 112.827 23.822 112.827 16.659 111.143 16.659" />
      <path d="M119.622,16.659h-4.194c-1.469,0-1.959.459-1.959,1.806v3.551c0,1.347.49,1.806,1.959,1.806h4.194c1.469,0,1.959-.459,1.959-1.806v-1.01h-2.082v1.102h-4.01v-3.765h4.01v.98h2.082v-.857c0-1.378-.49-1.806-1.959-1.806" />
      <polyline points="129.755 22.138 124.306 22.138 124.306 20.883 127.581 20.883 127.581 19.322 124.306 19.322 124.306 18.281 129.877 18.281 129.877 16.659 122.255 16.659 122.255 23.822 129.969 23.822 129.969 22.138 129.755 22.138" />
      <path d="M22.186,20.302l.888-1.99.398,1.99h-1.286M34.4,15.128l-2.388,5.602-1.01-5.602h-2.082l-2.694,8.265-1.378-8.265h-2.571l-3.918,8.877.582-3.704h-3.888l-.306,1.898h1.622l-.184,1.01c-.918.398-2.51.276-3.184-.949-.429-.765-.827-2.48.98-4.041,1.469-1.286,4.01-1.5,5.479-.827,0,0,.184-1.071.337-2.082-2.816-.98-5.02-.153-6.49.735-1.99,1.224-2.939,3.122-2.694,5.694.306,2.969,4.133,4.837,7.408,2.969.031-.031.061-.031.061-.031l-.306.704h2.204l1.378-3.061h2.418l.52,3.061h3.551l1.806-5.694,1.163,5.694h1.408l2.724-6.306.276,6.306h2.082l-.398-10.255h-2.51" />
      <polyline points="37.523 25.353 43.369 25.353 43.706 23.148 40.033 23.148 40.339 21.342 43.522 21.342 43.859 19.138 40.645 19.138 40.92 17.332 44.594 17.332 44.931 15.128 39.145 15.128 37.523 25.353" />
      <polyline points="66.052 18.465 64.767 15.128 62.348 15.128 64.828 20.516 64.063 25.353 66.175 25.353 66.818 21.067 70.583 15.128 68.134 15.128 66.052 18.465" />
      <path d="M61.155,21.22c-.551,1.684-1.929,2.663-3.031,2.173-1.102-.49-1.531-2.265-.98-3.979.551-1.684,1.929-2.663,3.031-2.173,1.133.52,1.561,2.296.98,3.979M60.359,15.22c-2.326-.52-4.745,1.316-5.388,4.133-.643,2.816.704,5.541,3.031,6.092,2.326.551,4.745-1.316,5.388-4.133s-.735-5.541-3.031-6.092" />
      <path d="M51.053,19.23h-1.469l.337-1.898h1.347c1.5,0,1.224,1.898-.214,1.898M50.808,23.363h-1.837l.337-2.02h1.745c1.653-.031,1.622,2.02-.245,2.02M52.032,15.19c-1.133-.031-3.918,0-3.918,0h.031l-1.622,10.132h4.714c1.929,0,4.775-2.847,2.204-5.204,2.633-2.755,0-4.898-1.408-4.928" />
      <path d="M67.95,24.373v-.398h.337c.153,0,.276.031.276.184,0,.245-.245.214-.398.214h-.214M68.348,24.495c.214,0,.367-.092.367-.337,0-.092-.061-.214-.122-.245-.092-.061-.184-.061-.276-.061h-.52v1.194h.153v-.52h.245l.337.52h.184l-.367-.551M68.226,25.506c.582,0,1.071-.459,1.071-1.071,0-.582-.459-1.041-1.071-1.041-.582,0-1.071.459-1.071,1.041,0,.612.459,1.071,1.071,1.071M68.226,25.322c-.49,0-.888-.367-.888-.888,0-.49.398-.888.888-.888s.888.398.888.888c-.031.52-.398.888-.888.888" />
    </g>
  </g>
</svg>