<?xml version="1.0" encoding="UTF-8"?>
<svg id="Layer_1" xmlns="http://www.w3.org/2000/svg" width="49.576mm" height="14.276mm" version="1.1" viewBox="0 0 140.532 40.469">
  <defs>
    <style type="text/css">
      <![CDATA[
        @font-face {
          font-family: "OCR-B";
          src: url('fonts/OCR-B.otf') format('opentype');
          font-weight: normal;
          font-style: normal;
        }
        @font-face {
          font-family: "Libre Barcode 39";
          src: url('fonts/LibreBarcode39-Regular.ttf') format('TrueType');
          font-weight: normal;
          font-style: normal;
        }
        .serial {
          font-family: "OCR-B";
          font-size: 5.8px;
          letter-spacing: -0.023em;
          text-transform: uppercase;
          font-variant-numeric: slashed-zero;
        }
        .barcode {
          font-family: "Libre Barcode 39";
          letter-spacing: 0;
          font-size: 15.05pt;
          font-weight: 400;
          font-style: normal;
          text-transform: uppercase;
        }
      ]]>
    </style>
  </defs>
  <g>
    <rect x=".126" y=".126" width="140.28" height="40.217" rx="3.9526pt" fill="#000000" data-background="background"/>
    <rect x=".126" y=".126" width="140.28" height="40.217" rx="3.9526pt" fill="none" stroke="#a8a8ab" stroke-width="0.25pt" stroke-dasharray="0.9pt" data-stroke="stroke"/>
  </g>
  <g fill="#ffffff" data-foreground="foreground">
    <path d="M84.197,22.167h-1.898v-3.857h2.694c1.439,0,2.143.582,2.143,1.837,0,1.531-.765,2.02-2.939,2.02M97.452,16.688h-2.204l-.061.122-2.48,4.561-2.663-4.561-.061-.092h-2.357l.184.306.459.735c-.735-.704-1.837-1.071-3.275-1.071h-4.745v5.939l-3.52-5.816-.061-.092h-1.806l-.061.092-4.01,6.734-.184.306h5.051v-1.592h-2.051l2.051-3.704,2.908,5.173.061.092h5.908c3.092,0,4.684-1.224,4.684-3.612,0-.429-.061-.796-.153-1.133l2.816,4.653.061.092h1.378l.061-.092,3.888-6.734.184-.306"/>
    <polyline points="111.135 16.688 110.921 16.688 110.921 20.943 105.564 16.749 105.502 16.688 104.094 16.688 104.094 22.626 100.574 16.81 100.513 16.688 98.707 16.688 98.646 16.81 94.635 23.514 94.452 23.851 96.595 23.851 96.595 23.851 99.533 23.851 99.533 22.259 97.482 22.259 99.533 18.555 102.441 23.728 102.503 23.851 104.829 23.851 104.829 23.851 105.992 23.851 105.992 19.534 111.349 23.789 111.41 23.851 112.819 23.851 112.819 16.688 111.135 16.688"/>
    <path d="M119.614,16.688h-4.194c-1.469,0-1.959.459-1.959,1.806v3.551c0,1.347.49,1.806,1.959,1.806h4.194c1.469,0,1.959-.459,1.959-1.806v-1.01h-2.082v1.102h-4.01v-3.765h4.01v.98h2.082v-.857c0-1.378-.49-1.806-1.959-1.806"/>
    <polyline points="129.747 22.167 124.298 22.167 124.298 20.912 127.573 20.912 127.573 19.351 124.298 19.351 124.298 18.31 129.869 18.31 129.869 16.688 122.247 16.688 122.247 23.851 129.961 23.851 129.961 22.167 129.747 22.167"/>
    <path d="M22.178,20.33l.888-1.99.398,1.99h-1.286M34.392,15.157l-2.388,5.602-1.01-5.602h-2.082l-2.694,8.265-1.378-8.265h-2.571l-3.918,8.877.582-3.704h-3.888l-.306,1.898h1.622l-.184,1.01c-.918.398-2.51.276-3.184-.949-.429-.765-.827-2.48.98-4.041,1.469-1.286,4.01-1.5,5.479-.827,0,0,.184-1.071.337-2.082-2.816-.98-5.02-.153-6.49.735-1.99,1.224-2.939,3.122-2.694,5.694.306,2.969,4.133,4.837,7.408,2.969.031-.031.061-.031.061-.031l-.306.704h2.204l1.378-3.061h2.418l.52,3.061h3.551l1.806-5.694,1.163,5.694h1.408l2.724-6.306.276,6.306h2.082l-.398-10.255h-2.51"/>
    <polyline points="37.515 25.381 43.361 25.381 43.698 23.177 40.025 23.177 40.331 21.371 43.514 21.371 43.851 19.167 40.637 19.167 40.913 17.361 44.586 17.361 44.923 15.157 39.137 15.157 37.515 25.381"/>
    <polyline points="66.044 18.494 64.759 15.157 62.34 15.157 64.82 20.545 64.055 25.381 66.167 25.381 66.81 21.096 70.575 15.157 68.126 15.157 66.044 18.494"/>
    <path d="M61.147,21.249c-.551,1.684-1.929,2.663-3.031,2.173-1.102-.49-1.531-2.265-.98-3.979.551-1.684,1.929-2.663,3.031-2.173,1.133.52,1.561,2.296.98,3.979M60.351,15.249c-2.326-.52-4.745,1.316-5.388,4.133-.643,2.816.704,5.541,3.031,6.092,2.326.551,4.745-1.316,5.388-4.133.643-2.816-.735-5.541-3.031-6.092"/>
    <path d="M51.045,19.259h-1.469l.337-1.898h1.347c1.5,0,1.224,1.898-.214,1.898M50.8,23.391h-1.837l.337-2.02h1.745c1.653-.031,1.622,2.02-.245,2.02M52.024,15.218c-1.133-.031-3.918,0-3.918,0h.031l-1.622,10.132h4.714c1.929,0,4.775-2.847,2.204-5.204,2.633-2.755,0-4.898-1.408-4.928"/>
    <path d="M67.942,24.402v-.398h.337c.153,0,.276.031.276.184,0,.245-.245.214-.398.214h-.214M68.34,24.524c.214,0,.367-.092.367-.337,0-.092-.061-.214-.122-.245-.092-.061-.184-.061-.276-.061h-.52v1.194h.153v-.52h.245l.337.52h.184l-.367-.551M68.218,25.534c.582,0,1.071-.459,1.071-1.071,0-.582-.459-1.041-1.071-1.041-.582,0-1.071.459-1.071,1.041,0,.612.459,1.071,1.071,1.071M68.218,25.351c-.49,0-.888-.367-.888-.888,0-.49.398-.888.888-.888s.888.398.888.888c-.031.52-.398.888-.888.888"/>
  </g>
</svg>