<?xml version="1.0" encoding="UTF-8"?>
<svg id="Layer_1" xmlns="http://www.w3.org/2000/svg" width="72.588mm" height="25.088mm" version="1.1" viewBox="0 0 205.761 71.116">
  <defs>
    <style type="text/css">
      <![CDATA[
        @font-face {
          font-family: "OCR-B";
          src: url('fonts/OCR-B.otf') format('opentype');
          font-weight: normal;
          font-style: normal;
        }
        @font-face {
          font-family: "Libre Barcode 39";
          src: url('fonts/LibreBarcode39-Regular.ttf') format('TrueType');
          font-weight: normal;
          font-style: normal;
        }
        .serial {
          font-family: "OCR-B", "OCR B Std";
          font-size: 10.056px;
          letter-spacing: -0.023em;
          text-transform: uppercase;
          font-variant-numeric: slashed-zero;
        }
        .barcode {
          font-family: "Libre Barcode 39";
          letter-spacing: 0;
          font-size: 18.542px;
          font-weight: 400;
          font-style: normal;
          text-transform: uppercase;
        }
      ]]>
    </style>
  </defs>
  <g fill="#231f20" data-background="background">
    <path d="M201.951.125H3.81C1.775.125.125,1.775.125,3.81v63.496c0,2.035,1.65,3.685,3.685,3.685h51.623c1.487,0,2.949-.39,4.238-1.131l21.259-12.22c1.934-1.112,4.126-1.697,6.357-1.697h31.188c2.231,0,4.423.585,6.357,1.697l21.259,12.22c1.289.741,2.751,1.131,4.238,1.131h51.623c2.035,0,3.685-1.65,3.685-3.685V3.81c0-2.035-1.65-3.685-3.685-3.685Z"/>
  </g>
  <g fill="none" stroke="none" stroke-width="0.25pt" stroke-dasharray="0.9pt" data-stroke="stroke">
    <path d="M201.951.125H3.81C1.775.125.125,1.775.125,3.81v63.496c0,2.035,1.65,3.685,3.685,3.685h51.623c1.487,0,2.949-.39,4.238-1.131l21.259-12.22c1.934-1.112,4.126-1.697,6.357-1.697h31.188c2.231,0,4.423.585,6.357,1.697l21.259,12.22c1.289.741,2.751,1.131,4.238,1.131h51.623c2.035,0,3.685-1.65,3.685-3.685V3.81c0-2.035-1.65-3.685-3.685-3.685Z"/>
  </g>
  <g fill="#ffffff" data-foreground="foreground">
    <g>
      <path d="M173.424,62.07v-.397l.358-.376c.712-.752,1.047-1.165,1.052-1.62,0-.307-.145-.577-.54-.577-.27,0-.493.153-.646.286l-.168-.461c.219-.201.549-.354.931-.354.67,0,.996.481.996,1.043,0,.604-.382,1.091-.912,1.646l-.261.26v.011h1.238v.54h-2.048Z"/>
      <path d="M177.915,60.323c0,1.111-.381,1.805-1.107,1.805-.693,0-1.065-.72-1.07-1.769,0-1.074.4-1.789,1.107-1.789.73,0,1.07.741,1.07,1.753ZM176.314,60.355c0,.842.2,1.276.512,1.276.34,0,.512-.466.512-1.292,0-.8-.162-1.271-.507-1.271-.303,0-.517.429-.517,1.286Z"/>
      <path d="M180.271,60.323c0,1.111-.381,1.805-1.107,1.805-.693,0-1.065-.72-1.07-1.769,0-1.074.4-1.789,1.107-1.789.73,0,1.07.741,1.07,1.753ZM178.67,60.355c0,.842.2,1.276.512,1.276.34,0,.512-.466.512-1.292,0-.8-.162-1.271-.507-1.271-.303,0-.517.429-.517,1.286Z"/>
      <path d="M180.49,62.07v-.397l.358-.376c.712-.752,1.047-1.165,1.052-1.62,0-.307-.145-.577-.54-.577-.27,0-.493.153-.646.286l-.168-.461c.219-.201.549-.354.931-.354.67,0,.996.481.996,1.043,0,.604-.382,1.091-.912,1.646l-.261.26v.011h1.238v.54h-2.048Z"/>
      <path d="M184.028,62.07v-3.569h.656l.81,1.53c.204.397.391.811.535,1.197h.009c-.042-.477-.051-.938-.051-1.482v-1.245h.53v3.569h-.596l-.819-1.573c-.199-.392-.404-.825-.558-1.228l-.019.005c.022.461.032.932.032,1.52v1.276h-.53Z"/>
      <path d="M187.715,58.772c0,.19-.126.35-.326.35-.19,0-.316-.159-.316-.35,0-.201.131-.354.321-.354.195,0,.316.153.321.354ZM187.105,62.07v-2.579h.572v2.579h-.572Z"/>
      <path d="M188.218,60.259c0-.296-.01-.545-.02-.768h.498l.028.387h.014c.103-.201.35-.444.727-.444.396,0,.805.291.805,1.106v1.53h-.572v-1.456c0-.371-.121-.651-.433-.651-.229,0-.387.186-.447.381-.019.053-.027.133-.027.207v1.52h-.572v-1.812Z"/>
      <path d="M191.433,58.83v.661h.545v.487h-.545v1.139c0,.317.075.477.294.477.103,0,.158-.006.223-.026l.01.492c-.084.037-.237.068-.414.068-.214,0-.387-.079-.493-.211-.126-.148-.182-.387-.182-.726v-1.213h-.321v-.487h.321v-.481l.562-.18Z"/>
      <path d="M192.709,60.964c.014.466.33.667.698.667.266,0,.451-.048.628-.117l.084.445c-.195.095-.465.164-.791.164-.735,0-1.168-.514-1.168-1.303,0-.715.382-1.387,1.107-1.387.735,0,.978.688.978,1.255,0,.121-.01.217-.019.275h-1.518ZM193.705,60.508c.005-.238-.089-.63-.47-.63-.354,0-.503.365-.526.63h.996Z"/>
      <path d="M194.627,60.259c0-.296-.01-.545-.02-.768h.498l.028.387h.014c.103-.201.35-.444.727-.444.396,0,.805.291.805,1.106v1.53h-.572v-1.456c0-.371-.121-.651-.433-.651-.229,0-.387.186-.447.381-.019.053-.027.133-.027.207v1.52h-.572v-1.812Z"/>
      <path d="M199.3,58.311v3.034c0,.265.01.551.019.726h-.507l-.028-.408h-.009c-.135.286-.41.466-.735.466-.545,0-.973-.523-.973-1.318-.005-.862.47-1.376,1.015-1.376.312,0,.535.143.638.333h.009v-1.456h.572ZM198.728,60.566c0-.053-.005-.122-.014-.175-.052-.249-.232-.455-.493-.455-.368,0-.572.37-.572.847s.204.821.567.821c.232,0,.438-.181.493-.461.014-.059.019-.122.019-.19v-.387Z"/>
      <path d="M201.99,60.757c0,.948-.586,1.371-1.163,1.371-.638,0-1.136-.497-1.136-1.329,0-.847.488-1.365,1.173-1.365.675,0,1.126.54,1.126,1.323ZM200.282,60.783c0,.498.219.874.563.874.325,0,.554-.36.554-.885,0-.402-.158-.868-.55-.868-.404,0-.567.45-.567.879Z"/>
      <path d="M202.173,61.71c0-.243.149-.418.354-.418.21,0,.354.169.354.418,0,.238-.14.418-.358.418-.204,0-.349-.18-.349-.418Z"/>
    </g>
    <g>
      <path d="M151.169,64.057c.21-.042.494-.074.875-.074.419,0,.722.101.922.292.187.174.307.455.307.788,0,.339-.093.614-.265.805-.233.26-.587.387-.991.387-.107,0-.2-.005-.279-.026v1.351h-.568v-3.521ZM151.737,65.714c.074.026.163.032.279.032.428,0,.688-.244.688-.657,0-.396-.242-.604-.638-.604-.158,0-.27.017-.33.032v1.196Z"/>
      <path d="M155.242,66.958c0,.233.009.461.037.62h-.517l-.042-.286h-.014c-.135.201-.372.344-.67.344-.456,0-.712-.376-.712-.768,0-.646.507-.979,1.345-.974v-.043c0-.169-.061-.45-.461-.45-.224,0-.456.08-.609.191l-.112-.424c.168-.116.461-.228.819-.228.726,0,.936.523.936,1.091v.926ZM154.684,66.317c-.405-.005-.791.091-.791.482,0,.254.145.37.325.37.233,0,.396-.169.452-.354.014-.048.014-.096.014-.143v-.355Z"/>
      <path d="M156.308,64.338v.661h.545v.487h-.545v1.139c0,.317.075.477.294.477.103,0,.158-.006.223-.026l.01.492c-.084.037-.237.068-.414.068-.214,0-.387-.079-.493-.211-.126-.148-.182-.387-.182-.726v-1.213h-.321v-.487h.321v-.481l.562-.18Z"/>
      <path d="M157.495,66.472c.014.466.33.667.698.667.266,0,.451-.048.628-.117l.084.445c-.195.095-.465.164-.791.164-.735,0-1.168-.514-1.168-1.303,0-.715.382-1.387,1.107-1.387.735,0,.978.688.978,1.255,0,.121-.01.217-.019.275h-1.518ZM158.491,66.016c.005-.238-.089-.63-.47-.63-.354,0-.503.365-.526.63h.996Z"/>
      <path d="M159.325,65.767c0-.296-.01-.545-.02-.768h.498l.028.387h.014c.103-.201.35-.444.727-.444.396,0,.805.291.805,1.106v1.53h-.572v-1.456c0-.371-.121-.651-.433-.651-.229,0-.387.186-.447.381-.019.053-.027.133-.027.207v1.52h-.572v-1.812Z"/>
      <path d="M162.452,64.338v.661h.545v.487h-.545v1.139c0,.317.075.477.294.477.103,0,.158-.006.223-.026l.01.492c-.084.037-.237.068-.414.068-.214,0-.387-.079-.493-.211-.126-.148-.182-.387-.182-.726v-1.213h-.321v-.487h.321v-.481l.562-.18Z"/>
      <path d="M163.24,66.975c.125.09.372.19.577.19.251,0,.362-.122.362-.291,0-.175-.093-.26-.372-.376-.442-.17-.623-.445-.623-.752,0-.455.33-.805.855-.805.252,0,.471.068.605.153l-.116.455c-.094-.063-.279-.148-.479-.148-.205,0-.316.117-.316.275,0,.164.106.238.396.36.414.164.601.402.604.783,0,.472-.32.811-.921.811-.274,0-.521-.074-.688-.18l.116-.477Z"/>
      <path d="M166.442,64.279c0,.19-.126.35-.326.35-.19,0-.316-.159-.316-.35,0-.201.131-.354.321-.354.195,0,.316.153.321.354ZM165.833,67.578v-2.579h.572v2.579h-.572Z"/>
      <path d="M166.833,66.975c.125.09.372.19.577.19.251,0,.362-.122.362-.291,0-.175-.093-.26-.372-.376-.442-.17-.623-.445-.623-.752,0-.455.33-.805.855-.805.252,0,.471.068.605.153l-.116.455c-.094-.063-.279-.148-.479-.148-.205,0-.316.117-.316.275,0,.164.106.238.396.36.414.164.601.402.604.783,0,.472-.32.811-.921.811-.274,0-.521-.074-.688-.18l.116-.477Z"/>
      <path d="M168.606,66.975c.125.09.372.19.577.19.251,0,.362-.122.362-.291,0-.175-.093-.26-.372-.376-.442-.17-.623-.445-.623-.752,0-.455.33-.805.855-.805.252,0,.471.068.605.153l-.116.455c-.094-.063-.279-.148-.479-.148-.205,0-.316.117-.316.275,0,.164.106.238.396.36.414.164.601.402.604.783,0,.472-.32.811-.921.811-.274,0-.521-.074-.688-.18l.116-.477Z"/>
      <path d="M172.433,66.805c0,.308.01.562.019.773h-.498l-.027-.387h-.014c-.098.18-.321.444-.731.444s-.786-.28-.786-1.122v-1.515h.572v1.403c0,.429.121.704.424.704.232,0,.382-.18.438-.35.023-.053.032-.127.032-.201v-1.557h.572v1.806Z"/>
      <path d="M173.289,66.472c.014.466.331.667.698.667.266,0,.451-.048.628-.117l.084.445c-.195.095-.465.164-.791.164-.735,0-1.168-.514-1.168-1.303,0-.715.382-1.387,1.107-1.387.735,0,.978.688.978,1.255,0,.121-.01.217-.019.275h-1.518ZM174.285,66.016c.005-.238-.089-.63-.47-.63-.354,0-.503.365-.526.63h.996Z"/>
      <path d="M177.208,63.818v3.034c0,.265.01.551.019.726h-.507l-.028-.408h-.009c-.135.286-.41.466-.735.466-.545,0-.973-.523-.973-1.318-.005-.862.47-1.376,1.015-1.376.312,0,.535.143.638.333h.009v-1.456h.572ZM176.636,66.074c0-.053-.005-.122-.014-.175-.052-.249-.232-.455-.493-.455-.368,0-.573.37-.573.847s.205.821.568.821c.232,0,.438-.181.493-.461.014-.059.019-.122.019-.19v-.387Z"/>
      <path d="M180.211,66.958c0,.233.009.461.037.62h-.517l-.042-.286h-.014c-.135.201-.372.344-.67.344-.456,0-.712-.376-.712-.768,0-.646.507-.979,1.345-.974v-.043c0-.169-.061-.45-.461-.45-.224,0-.456.08-.609.191l-.112-.424c.168-.116.461-.228.819-.228.726,0,.936.523.936,1.091v.926ZM179.652,66.317c-.405-.005-.791.091-.791.482,0,.254.145.37.325.37.233,0,.396-.169.452-.354.014-.048.014-.096.014-.143v-.355Z"/>
      <path d="M180.649,65.767c0-.296-.01-.545-.02-.768h.498l.028.387h.014c.103-.201.35-.444.727-.444.396,0,.805.291.805,1.106v1.53h-.572v-1.456c0-.371-.121-.651-.433-.651-.229,0-.387.186-.447.381-.019.053-.027.133-.027.207v1.52h-.572v-1.812Z"/>
      <path d="M185.233,63.818v3.034c0,.265.01.551.019.726h-.507l-.028-.408h-.009c-.135.286-.41.466-.735.466-.545,0-.973-.523-.973-1.318-.005-.862.47-1.376,1.015-1.376.312,0,.535.143.638.333h.009v-1.456h.572ZM184.661,66.074c0-.053-.005-.122-.014-.175-.052-.249-.232-.455-.493-.455-.368,0-.573.37-.573.847s.205.821.568.821c.232,0,.438-.181.493-.461.014-.059.019-.122.019-.19v-.387Z"/>
      <path d="M186.478,65.857c0-.339-.01-.614-.02-.858h.503l.028.397h.009c.168-.291.433-.455.777-.455.521,0,.954.508.954,1.312,0,.933-.517,1.382-1.033,1.382-.284,0-.521-.138-.638-.344h-.009v1.334h-.572v-2.769ZM187.05,66.498c0,.063.004.121.014.18.061.265.261.455.507.455.363,0,.577-.344.577-.853,0-.455-.195-.825-.562-.825-.237,0-.456.195-.517.481-.01.053-.019.111-.019.164v.397Z"/>
      <path d="M189.438,66.472c.014.466.331.667.698.667.266,0,.451-.048.628-.117l.084.445c-.195.095-.465.164-.791.164-.735,0-1.168-.514-1.168-1.303,0-.715.382-1.387,1.107-1.387.735,0,.978.688.978,1.255,0,.121-.01.217-.019.275h-1.518ZM190.434,66.016c.005-.238-.089-.63-.47-.63-.354,0-.503.365-.526.63h.996Z"/>
      <path d="M191.267,65.767c0-.296-.01-.545-.02-.768h.498l.028.387h.014c.103-.201.35-.444.727-.444.396,0,.805.291.805,1.106v1.53h-.572v-1.456c0-.371-.121-.651-.433-.651-.229,0-.387.186-.447.381-.019.053-.027.133-.027.207v1.52h-.572v-1.812Z"/>
      <path d="M195.851,63.818v3.034c0,.265.01.551.019.726h-.507l-.028-.408h-.009c-.135.286-.41.466-.735.466-.545,0-.973-.523-.973-1.318-.005-.862.47-1.376,1.015-1.376.312,0,.535.143.638.333h.009v-1.456h.572ZM195.278,66.074c0-.053-.005-.122-.014-.175-.052-.249-.232-.455-.493-.455-.368,0-.573.37-.573.847s.205.821.568.821c.232,0,.438-.181.493-.461.014-.059.019-.122.019-.19v-.387Z"/>
      <path d="M196.908,64.279c0,.19-.126.35-.326.35-.19,0-.316-.159-.316-.35,0-.201.131-.354.321-.354.195,0,.316.153.321.354ZM196.299,67.578v-2.579h.572v2.579h-.572Z"/>
      <path d="M197.323,65.767c0-.296-.01-.545-.02-.768h.498l.028.387h.014c.103-.201.35-.444.727-.444.396,0,.805.291.805,1.106v1.53h-.572v-1.456c0-.371-.121-.651-.433-.651-.229,0-.387.186-.447.381-.019.053-.027.133-.027.207v1.52h-.572v-1.812Z"/>
      <path d="M201.87,67.202c0,.54-.098.927-.335,1.17-.232.238-.563.312-.875.312-.288,0-.596-.074-.791-.207l.126-.492c.144.096.386.196.66.196.373,0,.652-.223.652-.778v-.223h-.01c-.13.228-.358.381-.661.381-.562,0-.963-.529-.963-1.26,0-.847.483-1.36,1.028-1.36.349,0,.549.19.656.402h.009l.023-.345h.498c-.009.175-.019.387-.019.741v1.462ZM201.298,66.032c0-.063-.005-.122-.019-.175-.061-.238-.224-.419-.466-.419-.32,0-.559.318-.559.842,0,.439.196.795.555.795.214,0,.399-.159.465-.397.019-.063.023-.153.023-.228v-.418Z"/>
      <path d="M202.173,67.218c0-.243.149-.418.354-.418.21,0,.354.169.354.418,0,.238-.14.418-.358.418-.204,0-.349-.18-.349-.418Z"/>
    </g>
    <g>
      <path d="M165.24,58.364c1.088,0,1.973.885,1.973,1.973s-.885,1.973-1.973,1.973-1.973-.885-1.973-1.973.885-1.973,1.973-1.973M165.24,58.08c-1.247,0-2.257,1.011-2.257,2.257s1.011,2.257,2.257,2.257,2.257-1.011,2.257-2.257-1.011-2.257-2.257-2.257h0Z"/>
      <path d="M165.996,61.59c-.108.055-.348.118-.656.118-.803,0-1.291-.528-1.291-1.339,0-.875.582-1.402,1.354-1.402.304,0,.518.067.612.118l-.098.386c-.12-.055-.288-.103-.495-.103-.513,0-.885.339-.885.977,0,.587.323.957.882.957.183,0,.379-.039.503-.094l.074.382Z"/>
    </g>
    <g>
      <path d="M170.275,58.364c1.088,0,1.973.885,1.973,1.973s-.885,1.973-1.973,1.973-1.973-.885-1.973-1.973.885-1.973,1.973-1.973M170.275,58.08c-1.247,0-2.257,1.011-2.257,2.257s1.011,2.257,2.257,2.257,2.257-1.011,2.257-2.257-1.011-2.257-2.257-2.257h0Z"/>
      <path d="M171.024,60.571c-.013-.328-.029-.723-.026-1.067h-.01c-.073.309-.166.652-.265.972l-.327,1.1h-.311l-.298-1.085c-.086-.324-.165-.671-.225-.988h-.007c-.01.332-.023.735-.039,1.081l-.05,1.021h-.38l.148-2.54h.536l.291,1.021c.08.297.148.599.205.882h.01c.059-.275.135-.588.222-.886l.308-1.018h.529l.129,2.54h-.397l-.043-1.036Z"/>
    </g>
    <g>
      <path d="M6.708,66.378c-.011-.338-.022-.748-.022-1.157h-.007c-.081.359-.184.761-.279,1.091l-.302,1.1h-.438l-.265-1.087c-.081-.335-.162-.736-.225-1.104h-.008c-.011.38-.025.814-.04,1.166l-.048,1.07h-.519l.158-2.818h.746l.243.941c.081.326.154.677.21,1.007h.015c.065-.325.15-.697.235-1.012l.261-.937h.735l.133,2.818h-.545l-.04-1.079Z"/>
      <path d="M8.379,66.733l-.177.724h-.577l.754-2.818h.735l.772,2.818h-.607l-.191-.724h-.709ZM9.008,66.257l-.154-.598c-.045-.167-.089-.376-.126-.543h-.007c-.037.167-.073.38-.114.543l-.146.598h.548Z"/>
      <path d="M10.303,64.681c.205-.037.474-.062.753-.062.475,0,.784.101,1.02.301.257.218.419.564.419,1.062,0,.539-.173.911-.408,1.141-.262.247-.662.364-1.147.364-.29,0-.5-.021-.636-.042v-2.764ZM10.862,66.977c.048.013.129.013.194.013.512.004.847-.314.847-.987,0-.585-.302-.895-.787-.895-.122,0-.206.013-.254.025v1.844Z"/>
      <path d="M14.427,66.266h-.912v.669h1.019v.522h-1.578v-2.818h1.526v.523h-.967v.585h.912v.519Z"/>
      <path d="M16.395,64.639v2.818h-.56v-2.818h.56Z"/>
      <path d="M16.967,67.457v-2.818h.654l.515,1.033c.147.297.29.647.404.966h.008c-.033-.372-.044-.753-.044-1.179v-.82h.515v2.818h-.589l-.529-1.087c-.147-.301-.312-.665-.431-.995h-.015c.019.376.026.773.026,1.233v.849h-.515Z"/>
      <path d="M22.24,67.382c-.1.055-.335.121-.633.121-.856,0-1.298-.61-1.298-1.413,0-.962.603-1.492,1.354-1.492.29,0,.511.062.61.125l-.118.502c-.11-.055-.269-.104-.471-.104-.441,0-.787.305-.787.932,0,.564.295.92.791.92.173,0,.356-.037.471-.092l.081.502Z"/>
      <path d="M23.262,64.639v1.083h.923v-1.083h.559v2.818h-.559v-1.179h-.923v1.179h-.56v-2.818h.56Z"/>
      <path d="M25.885,64.639v2.818h-.56v-2.818h.56Z"/>
      <path d="M26.458,67.457v-2.818h.654l.515,1.033c.147.297.29.647.404.966h.008c-.033-.372-.044-.753-.044-1.179v-.82h.515v2.818h-.589l-.529-1.087c-.147-.301-.312-.665-.431-.995h-.015c.019.376.026.773.026,1.233v.849h-.515Z"/>
      <path d="M29.661,66.733l-.177.724h-.577l.754-2.818h.735l.772,2.818h-.607l-.191-.724h-.709ZM30.29,66.257l-.154-.598c-.045-.167-.089-.376-.126-.543h-.007c-.037.167-.073.38-.114.543l-.146.598h.548Z"/>
    </g>
    <path d="M117.27,41.275c1.375.016,2.719.775,3.098,2.323h1.628v2.308c0,.332.016.774.427.869.056.013.112.02.169.02.348,0,.708-.229.953-.446l.032-.127v-1.344c0-.173.015-.347-.048-.521-.047-.142-.143-.237-.269-.3-.063-.032-.142-.048-.237-.063v-.395h1.517v2.624c0,.316.143.395.348.411.063,0,.143.016.221.016v.395l-1.532.285v-.569c-.364.3-.79.537-1.265.569-.047.003-.094.005-.138.005-.778,0-1.174-.507-1.174-1.27v-1.66c-.016-.205-.174-.363-.601-.363.016.759-.095,1.454-.569,2.055-.458.585-1.154.98-1.865,1.154.253.174.854.443,1.154.459.069.01.138.015.207.015.361,0,.721-.13,1.026-.316l.158.253-.933,1.17c-.901,0-1.628-.379-2.307-.932l-.095-.079c-.19-.159-.363-.348-.538-.538-1.391-.095-2.386-1.502-2.482-2.672-.062-.743.111-1.423.459-1.992.49-.759,1.312-1.281,2.387-1.344h.269M117.27,46.934c.11,0,.221,0,.332-.016,1.565-.205,1.833-2.133,1.486-3.382-.253-.885-.853-1.786-1.818-1.865-.042,0-.084-.007-.127-.007-.021,0-.042.002-.064.007-1.581.032-1.96,1.897-1.691,3.098.221.98.807,2.103,1.881,2.166M113.019,41.434c.379,0,.695.3.695.664,0,.379-.316.679-.695.679-.395,0-.711-.3-.711-.679,0-.364.316-.664.711-.664M113.366,43.52l.159.095v2.75c0,.221.047.347.158.411.078.048.205.063.379.063v.379h-1.96v-.379c.111,0,.253-.016.348-.111.095-.079.111-.19.111-.333v-1.58c0-.284-.221-.474-.459-.569v-.284l1.264-.442M126.957,43.521c.125,0,.24.017.24.017.85.122,1.33.854,1.359,1.626l.002.159v.032h-2.547c.016.441.332.901.743,1.09.111.065.237.095.364.095.014,0,.028,0,.041,0,.474,0,.915-.261,1.223-.506l.158.285c-.316.6-.917.996-1.628,1.012h-.159c-1.012-.063-1.644-.886-1.612-1.897.015-.918.664-1.802,1.612-1.897,0,0,.103-.015.202-.015M126.028,44.926h1.454c-.016-.426-.158-.948-.648-.964h-.079c-.458.032-.695.553-.727.964M117.273,40.775h-.272c-1.211.07-2.197.628-2.807,1.572-.004.007-.009.014-.013.022.021-.087.032-.178.032-.272,0-.642-.536-1.164-1.195-1.164-.668,0-1.211.522-1.211,1.164,0,.536.37.99.874,1.132l-.745.26-.335.117v.978l.314.126c.095.038.145.088.145.105v1.524h-.459v1.379h2.96v-1.017c.476.543,1.11.949,1.836,1.057.143.153.292.306.457.444l.098.081c.879.715,1.712,1.047,2.626,1.047h.241l.15-.188.933-1.17.221-.277-.188-.3-.158-.253-.262-.419-.422.258c-.256.156-.528.242-.766.242-.008,0-.017,0-.025,0,.361-.226.677-.504.924-.819.108-.137.199-.277.276-.418v.078c0,1.075.657,1.77,1.674,1.77.056,0,.115-.002.174-.006.243-.017.487-.076.729-.177v.28l.591-.11,1.532-.285.409-.076v-.005c.315.214.693.347,1.113.373h.19c.889-.019,1.658-.497,2.07-1.278l.126-.239-.131-.237-.123-.221h.203v-.5l-.002-.197c-.041-1.104-.776-1.969-1.788-2.114h0s-.15-.022-.311-.022c-.134,0-.274.02-.274.02-.681.068-1.273.465-1.641,1.042v-.484s0-.5,0-.5h-2.517v1.319l.418.069c.039.006.074.01.103.021.035.079.034.171.033.278v.092s0,1.207,0,1.207c-.179.131-.36.21-.485.21-.019,0-.037-.002-.052-.006-.028-.034-.044-.165-.044-.383v-2.808h-1.758c-.511-1.406-1.83-2.305-3.463-2.323h-.003ZM117.287,46.434c-.756-.054-1.223-.951-1.41-1.776-.141-.629-.068-1.541.344-2.066.217-.277.501-.415.869-.422h.055s.017-.005.017-.005c.046.004.077.005.108.005.675.057,1.14.814,1.337,1.503.177.636.183,1.605-.225,2.222-.203.307-.479.48-.845.527-.075.011-.146.012-.215.012-.012,0-.024,0-.036,0h0ZM113.642,43.103c.111-.067.21-.152.294-.251-.048.115-.091.232-.127.35l-.028-.017-.139-.083h0ZM126.775,45.854h.985c-.214.121-.42.186-.601.186-.071,0-.115-.005-.154-.028-.085-.04-.163-.094-.23-.158h0ZM114.025,46.34v-.435c.076.149.162.295.257.435h-.22c-.013,0-.026,0-.037,0h0Z"/>
    <g>
      <path d="M131.069,46.116c.454-.522.794-1.17,1.021-1.942.055-.198.088-.38.101-.544.172.042.387.115.645.219.07.032.106.065.106.101,0,.04-.017.073-.049.1-.053.062-.093.145-.119.25-.237.805-.564,1.492-.981,2.064-.055.079-.095.118-.119.118-.021,0-.065-.029-.137-.088-.132-.111-.288-.204-.468-.277ZM132.671,46.896c.201.023.421.036.66.036.109,0,.183-.019.219-.055.037-.034.055-.098.055-.188v-3.519c0-.37-.016-.667-.049-.891.258.009.498.024.721.049.071.008.106.031.106.07,0,.024-.015.069-.045.137-.028.059-.043.267-.043.623v2.447l.024,1.238c0,.313-.075.523-.225.629-.09.059-.212.1-.368.122-.142.02-.354.031-.639.033-.102,0-.161-.009-.18-.027-.016-.017-.033-.071-.052-.164-.053-.252-.114-.432-.186-.541ZM136.815,46.041c-.164.087-.319.196-.465.328-.069.062-.115.094-.137.094-.026,0-.064-.039-.113-.118-.232-.365-.45-.775-.653-1.231-.187-.424-.33-.822-.432-1.195-.004-.02-.006-.035-.006-.045,0-.024.031-.047.094-.067l.435-.161c.039-.014.063-.021.073-.021.017,0,.029.02.04.059.247.881.635,1.668,1.164,2.359Z"/>
      <path d="M140.448,46.366c0,.032-.006.052-.019.058-.012.006-.039.009-.082.009h-.432c-.032,0-.052-.004-.058-.012-.006-.006-.009-.024-.009-.055v-.092c.004-.188.008-.45.012-.787-.081.098-.164.226-.249.386-.03.051-.058.076-.082.076-.022,0-.059-.023-.109-.069-.162-.156-.317-.341-.466-.554v1.514l.013.922c0,.032-.005.052-.016.058-.008.006-.028.009-.061.009h-.492c-.037,0-.059-.004-.064-.012s-.009-.026-.009-.055l.012-.922v-1.282c-.168.18-.355.362-.562.547-.064.059-.11.088-.137.088s-.049-.033-.066-.1c-.055-.195-.128-.363-.219-.505.356-.237.678-.533.964-.888.249-.312.45-.644.604-.995h-.678l-.642.013c-.032,0-.053-.004-.061-.013-.007-.008-.01-.025-.01-.055v-.462c0-.032.005-.052.016-.058.006-.006.024-.009.055-.009l.642.012h.094v-.255c0-.322-.021-.576-.063-.761.223.006.448.024.675.055.067.009.101.029.101.064,0,.028-.014.071-.04.131-.036.074-.055.236-.055.486v.279h.174c.047,0,.083-.009.109-.027.038-.024.063-.036.076-.036.051,0,.14.058.268.173.111.107.167.179.167.213,0,.053-.025.099-.076.137-.053.047-.103.124-.148.231-.116.268-.267.541-.453.821.206.277.47.521.79.729v-1.177l-.012-1.016c0-.032.004-.052.012-.058s.026-.01.055-.01l.791.013h.337v-.076c0-.403-.023-.717-.069-.939.271.006.496.022.675.049.062.008.094.029.094.063,0,.024-.013.066-.039.125-.028.075-.043.303-.043.684v.095h.398l.791-.013c.042,0,.063.022.063.067l-.006.903v.896l.006,1.359c0,.034-.003.055-.011.062-.007.007-.024.011-.053.011h-.475c-.032,0-.052-.005-.058-.013s-.009-.028-.009-.061v-.237h-.648v.885l.013.76c0,.033-.005.052-.016.059-.006.006-.024.009-.055.009h-.511c-.04,0-.061-.022-.061-.067l.012-.754v-.891h-.596v.262ZM140.448,44.329h.603v-.654h-.603v.654ZM140.448,45.564h.603v-.706h-.603v.706ZM142.31,43.675h-.654v.654h.654v-.654ZM141.655,45.564h.654v-.706h-.654v.706Z"/>
      <path d="M144.139,43.8c.252.144.514.339.788.584.028.03.042.054.042.069,0,.013-.013.037-.039.073l-.256.368c-.024.038-.047.058-.066.058-.013,0-.031-.012-.058-.036-.256-.258-.516-.473-.778-.645-.029-.017-.043-.033-.043-.049,0-.019.012-.044.036-.076l.25-.328c.021-.028.043-.043.063-.043.017,0,.036.008.061.024ZM143.747,47.391c.123-.187.215-.35.273-.489.213-.523.377-.999.492-1.426.071.076.174.17.308.279.097.073.146.129.146.167,0,.022-.01.068-.03.137-.124.44-.283.891-.478,1.351-.053.105-.082.187-.088.243-.008.059-.033.088-.076.088-.026,0-.061-.012-.104-.036-.149-.09-.298-.194-.443-.313ZM144.327,42.273c.241.158.493.362.754.611.024.024.037.042.037.055,0,.016-.014.044-.04.082l-.279.355c-.026.03-.047.046-.061.046-.011,0-.027-.011-.052-.033-.237-.258-.486-.474-.748-.648-.028-.021-.043-.039-.043-.051,0-.009.016-.031.046-.067l.268-.319c.028-.036.051-.055.066-.055.013,0,.029.008.052.024ZM146.52,43.669h-.355l-.019.727h.505l.38-.012c.051,0,.076.025.076.076-.002.042-.007.171-.016.386-.006.138-.009.241-.009.311-.021,1.141-.085,1.857-.194,2.149-.069.181-.154.301-.256.361-.077.049-.185.073-.322.073-.121,0-.207-.002-.258-.006-.045-.004-.075-.019-.092-.043-.016-.026-.031-.083-.045-.17-.031-.194-.074-.348-.131-.459.174.024.307.036.398.036.107,0,.18-.102.219-.304.066-.324.104-.929.112-1.812h-.404c-.094,1.101-.361,1.982-.803,2.646-.049.071-.084.106-.106.106-.03,0-.07-.033-.119-.101-.091-.124-.207-.242-.35-.355.341-.403.569-.907.685-1.512.091-.478.14-1.178.146-2.098-.117.002-.224.005-.319.009-.061.003-.094.004-.1.004-.033,0-.052-.005-.058-.013-.007-.008-.01-.028-.01-.061v-.456c0-.034.004-.055.013-.061.008-.007.026-.01.055-.01l.629.013h.101v-.305c0-.271-.017-.481-.049-.629.179,0,.396.011.65.033.071.006.106.03.106.073,0,.03-.014.074-.042.131-.021.046-.03.177-.03.392v.305h.012l.63-.013c.032,0,.052.004.058.013.006.008.009.027.009.058v.443c.152-.277.285-.621.398-1.03.04-.168.063-.305.07-.41.17.023.354.062.553.112.087.024.131.058.131.101,0,.03-.016.065-.049.105-.042.053-.076.123-.1.21l-.119.356h.63l.696-.013c.034,0,.055.004.061.013.006.008.009.026.009.055v.48c0,.034-.004.055-.012.061-.009.006-.027.009-.058.009l-.696-.012h-.873c-.071.156-.156.315-.255.478.055.004.219.006.492.006h.647c.081,0,.137-.006.167-.019l.101-.03c.045,0,.117.06.219.18.096.115.144.202.144.261,0,.041-.027.076-.082.106-.041.028-.115.118-.223.268-.211.284-.337.45-.38.499-.008.041-.012.099-.012.173h.118l.653-.012c.033,0,.052.004.059.012.006.009.009.026.009.056v.468c0,.032-.004.052-.011.06-.007.007-.025.011-.057.011l-.653-.013h-.118v.143l.006.81c0,.16-.014.277-.04.353-.026.079-.074.146-.146.2-.091.075-.328.113-.712.113-.104,0-.165-.011-.186-.031-.016-.018-.033-.074-.051-.17-.026-.158-.068-.303-.125-.435.192.021.339.03.44.03.088,0,.146-.016.174-.046.026-.03.039-.089.039-.176v-.791h-.094l-.654.013c-.034,0-.056-.005-.063-.013-.006-.008-.009-.027-.009-.058v-.468c0-.033.004-.052.012-.059.008-.006.028-.009.061-.009l.654.012h.094c-.006-.129-.018-.285-.036-.468.053.008.134.018.243.027.057-.071.15-.213.279-.426h-.468l-.578.016c-.032,0-.053-.004-.061-.013-.006-.008-.009-.027-.009-.058v-.286c-.019.019-.036.027-.052.027-.024,0-.069-.034-.134-.103-.107-.114-.216-.195-.325-.244.079-.093.155-.208.23-.346h-.018l-.63-.013Z"/>
      <path d="M150.89,45.237c0,.559.435.775.928.775.323,0,.816-.094.816-.522,0-.452-.628-.529-1.245-.693-.623-.165-1.251-.405-1.251-1.192,0-.858.811-1.27,1.568-1.27.875,0,1.68.382,1.68,1.352h-.893c-.029-.505-.388-.635-.828-.635-.294,0-.635.124-.635.476,0,.323.2.364,1.251.635.306.076,1.246.271,1.246,1.222,0,.77-.605,1.346-1.745,1.346-.928,0-1.798-.458-1.786-1.492h.894Z"/>
      <path d="M154.368,42.436h1.892c1.046,0,1.451.663,1.451,1.345s-.405,1.346-1.451,1.346h-.969v1.504h-.923v-4.194ZM155.291,44.409h.716c.43,0,.812-.094.812-.629s-.382-.629-.812-.629h-.716v1.258Z"/>
      <path d="M158.687,43.682c.854-.349,1.514-.781,1.979-1.296.085-.085.162-.192.231-.322.213.034.413.08.602.137.059.011.088.037.088.079,0,.035-.025.066-.075.095-.049.024-.106.076-.174.155l-.094.106h1.066c.102,0,.176-.011.223-.031.051-.016.088-.024.112-.024.057,0,.138.046.243.138.142.115.213.198.213.249,0,.042-.025.078-.076.106-.066.045-.133.108-.197.191-.452.535-.957.973-1.515,1.313-.6.369-1.32.67-2.162.903-.066.016-.11.024-.13.024-.039,0-.085-.05-.138-.149-.085-.154-.178-.278-.279-.374.75-.166,1.414-.395,1.991-.684-.174-.156-.323-.273-.446-.35-.033-.026-.049-.045-.049-.056,0-.016.016-.037.049-.063l.31-.243c.026-.021.049-.03.067-.03.018,0,.043.01.076.03.188.122.367.252.538.393.36-.239.676-.513.945-.821h-1.354c-.413.381-.898.693-1.456.937-.066.032-.112.049-.137.049-.026,0-.065-.038-.118-.112-.079-.116-.191-.232-.335-.35ZM159.371,45.952c.609-.206,1.115-.434,1.517-.681.326-.201.624-.438.891-.715.086-.091.16-.194.226-.31.185.051.362.11.535.179.062.026.094.061.094.101,0,.034-.025.066-.075.095-.043.021-.099.069-.168.143l-.131.131h.991c.1,0,.173-.011.22-.03.05-.021.083-.03.097-.03.057,0,.149.056.277.167.115.102.173.174.173.219,0,.036-.025.072-.076.106-.061.047-.122.108-.186.186-.533.691-1.129,1.217-1.787,1.578-.606.33-1.377.589-2.312.775-.068.012-.116.018-.143.018-.047,0-.09-.049-.131-.148-.069-.16-.158-.299-.268-.417.987-.158,1.788-.391,2.402-.699-.171-.156-.333-.289-.486-.398-.029-.028-.043-.048-.043-.061,0-.017.016-.035.046-.058l.334-.243c.028-.019.052-.027.07-.027.018,0,.042.009.073.027.174.109.361.255.562.438.346-.233.665-.525.957-.879h-1.331c-.459.38-1.042.72-1.752,1.021-.087.029-.137.043-.148.043-.028,0-.066-.044-.113-.131-.097-.17-.202-.303-.315-.398Z"/>
      <path d="M165.512,42.143c.254.017.461.042.623.076.063.012.095.036.095.073,0,.038-.017.082-.049.131-.028.042-.052.139-.069.288-.011.06-.03.188-.059.387-.02.138-.036.247-.048.328h.273l.642-.012c.055,0,.082.019.082.058v.018c-.022.145-.038.295-.046.453-.055.778-.186,1.429-.393,1.949.071.053.235.184.493.393.024.018.036.037.036.058,0,.017-.012.042-.036.079l-.219.35c-.03.045-.054.066-.07.066-.01,0-.024-.01-.042-.03-.191-.166-.334-.289-.429-.368-.25.416-.591.792-1.022,1.129-.072.055-.118.082-.137.082-.024,0-.069-.048-.137-.144-.095-.136-.188-.244-.279-.325.479-.314.841-.675,1.088-1.082-.053-.037-.184-.116-.392-.237-.004.017-.012.037-.021.063s-.018.045-.021.055c-.019.053-.041.079-.069.079-.019,0-.045-.006-.079-.018l-.338-.119c-.057-.016-.085-.035-.085-.058,0-.012.006-.034.018-.066.213-.578.375-1.185.487-1.818-.128.004-.243.008-.347.012-.069.002-.105.003-.109.003-.033,0-.053-.004-.062-.012-.006-.008-.009-.027-.009-.058v-.447c0-.043.023-.063.07-.063l.547.012.095-.702c.014-.122.021-.262.021-.42,0-.042,0-.096-.003-.161ZM166.372,43.98h-.468c-.094.49-.196.929-.311,1.316.192.1.348.187.466.262.158-.42.262-.946.312-1.578ZM170.611,47.014c-.088.107-.169.244-.244.41-.046.1-.083.149-.109.149s-.072-.021-.14-.061c-.492-.299-.896-.67-1.213-1.116l.03,1.368c0,.034-.004.055-.012.061-.009.006-.026.01-.055.01h-.487c-.032,0-.053-.005-.061-.013-.006-.008-.009-.027-.009-.058,0-.019.005-.188.015-.508.011-.286.017-.564.019-.836-.309.448-.726.828-1.253,1.14-.079.045-.129.067-.148.067-.028,0-.072-.048-.131-.143-.073-.132-.162-.244-.268-.335.604-.26,1.087-.627,1.45-1.104h-.167l-.843.012c-.032,0-.052-.005-.058-.015-.006-.009-.009-.027-.009-.058v-.414c0-.032.004-.052.012-.058.009-.006.026-.009.055-.009l.843.012h.498v-.44h-.124l-.666.012c-.034,0-.055-.004-.061-.012-.007-.009-.01-.027-.01-.059l.013-.738v-.967c-.124.002-.237.005-.341.009-.069.002-.104.003-.106.003-.034,0-.055-.004-.061-.012-.007-.008-.01-.026-.01-.055v-.42c0-.04.023-.061.07-.061l.447.012c0-.234-.013-.433-.037-.593.262.008.465.021.608.04.059.006.088.028.088.066,0,.021-.005.044-.015.07-.013.03-.02.049-.021.055-.021.062-.03.156-.03.279v.082h1.131v-.049c0-.206-.012-.39-.036-.55.185.006.387.02.607.039.051.007.076.031.076.073,0,.021-.004.043-.012.067-.011.03-.017.05-.019.058-.017.051-.024.161-.024.331v.03l.571-.012c.037,0,.06.004.067.012.006.007.009.022.009.049v.42c0,.032-.005.052-.015.058-.009.006-.028.009-.062.009-.006,0-.031,0-.075-.003-.152-.004-.317-.007-.496-.009v.967l.013.738c0,.033-.004.053-.011.06-.008.008-.027.011-.06.011l-.666-.012h-.148v.44h.635l.837-.012c.04,0,.061.022.061.066v.414c0,.048-.021.072-.061.072l-.837-.012h-.328c.349.411.809.733,1.381.967ZM168.072,43.699h1.131v-.386h-1.131v.386ZM169.203,44.584v-.404h-1.131v.404h1.131Z"/>
      <path d="M173.703,44.031l-.854.012c-.032,0-.051-.004-.058-.012-.006-.009-.009-.026-.009-.055v-.48c0-.037.004-.059.012-.064.007-.004.024-.006.055-.006l.854.006h.63v-.404c0-.341-.016-.636-.046-.885.26.008.478.024.654.049.066,0,.1.021.1.063,0,.021-.014.064-.042.131-.026.059-.04.269-.04.63v.416h.885l.86-.006c.031,0,.049.003.055.009.005.009.007.028.007.062v.48c0,.044-.021.066-.062.066l-.86-.012h-.647c.231.451.486.846.767,1.183.253.302.575.617.967.945-.13.13-.232.27-.308.42-.042.087-.076.131-.1.131-.021,0-.064-.034-.131-.101-.369-.363-.673-.725-.912-1.086-.197-.296-.376-.631-.538-1.006,0,.419.004.952.012,1.599h.143l.682-.012c.032,0,.052.004.058.012.006.009.009.026.009.056v.456c0,.034-.003.056-.011.063-.007.008-.025.012-.056.012l-.682-.015h-.137c.004.247.01.504.016.77.004.194.006.293.006.298,0,.032-.004.052-.012.058-.009.006-.027.009-.059.009h-.535c-.036,0-.059-.004-.066-.012-.006-.009-.009-.026-.009-.055,0-.019.003-.144.009-.374.006-.256.011-.486.016-.693h-.11l-.681.015c-.032,0-.052-.005-.058-.015-.006-.008-.01-.028-.01-.061v-.456c0-.031.004-.05.011-.057.008-.007.026-.011.057-.011l.681.012h.119c.012-.486.019-1.017.019-1.593-.354.835-.826,1.528-1.42,2.08-.069.062-.113.094-.131.094-.024,0-.059-.039-.101-.118-.071-.122-.164-.244-.28-.368v.596l.013.949c0,.032-.004.052-.013.058-.008.006-.027.009-.058.009h-.528c-.041,0-.062-.022-.062-.066l.013-.949v-1.414c0-.302.002-.536.006-.702-.156.205-.276.356-.362.453-.046.055-.084.082-.112.082-.026,0-.049-.037-.066-.112-.047-.211-.118-.39-.213-.535.549-.6.943-1.275,1.183-2.025.055-.182.086-.329.094-.44.231.057.434.121.605.191.067.03.101.062.101.095,0,.034-.023.071-.07.112-.038.038-.08.121-.124.249-.134.347-.27.649-.405.909v2.523c.71-.596,1.253-1.316,1.63-2.161h-.347Z"/>
      <path d="M178.349,47.555l-.772.013c-.04,0-.061-.022-.061-.067v-.514c0-.045.021-.067.061-.067l.772.013h2.466c.059-.237.128-.532.207-.885h-1.985c-.013.038-.03.09-.055.155-.022.062-.038.106-.046.131-.015.046-.043.069-.085.069h-.033l-.499-.052c-.062-.004-.095-.018-.095-.042,0-.009.004-.021.01-.037.364-.92.69-1.991.976-3.214h-.611l-.814.013c-.036,0-.058-.004-.063-.013-.009-.008-.013-.026-.013-.055v-.505c0-.034.005-.055.016-.061.008-.006.028-.009.061-.009l.814.012h3.396l.815-.012c.034,0,.056.004.063.012.006.009.009.027.009.058v.505c0,.032-.004.052-.012.058-.008.007-.028.01-.061.01l-.815-.013h-2.106c-.037.171-.097.426-.18.767h1.645l.702-.013c.053,0,.079.019.079.055,0,.009,0,.018-.003.027l-.106.554c-.176.959-.347,1.787-.511,2.484h.727l.778-.013c.043,0,.064.022.064.067v.514c0,.045-.021.067-.064.067l-.778-.013h-3.892ZM181.338,44.429h-1.791c-.105.386-.208.726-.308,1.019h1.907c.089-.436.152-.774.191-1.019Z"/>
      <path d="M186.628,46.694l-.456.292c-.022-.069-.053-.145-.092-.229-.448.181-1.1.388-1.955.621l-.158-.472c.396-.691.718-1.489.967-2.393h-.991v-.529h2.673v.529h-1.122c-.227.771-.494,1.49-.803,2.155.294-.079.687-.21,1.177-.393-.095-.19-.218-.41-.368-.659l.463-.262c.322.529.544.976.666,1.338ZM186.391,42.897h-2.229v-.511h2.229v.511ZM189.291,43.39c-.032.942-.076,1.794-.131,2.556-.055.761-.105,1.205-.153,1.333s-.124.226-.229.293c-.104.068-.253.103-.445.103-.091,0-.275-.005-.553-.013l-.201-.532c.205.017.384.024.538.024.166,0,.271-.013.312-.039.042-.026.072-.07.093-.133.021-.062.055-.439.104-1.133.049-.692.084-1.341.106-1.942h-.909c-.107,1.83-.489,3.094-1.146,3.791l-.398-.367c.599-.724.937-1.865,1.016-3.424h-.629v-.517h.653c.009-.158.013-.347.013-.565,0-.146-.002-.34-.006-.581h.528c.004.138.007.275.007.413,0,.231-.007.476-.019.733h1.45Z"/>
      <path d="M191.488,45.992c.171.079.337.176.499.292.059.042.088.08.088.112,0,.028-.027.06-.082.094-.036.017-.104.074-.203.174-.29.31-.618.594-.985.852-.075.051-.125.076-.149.076s-.069-.046-.137-.138c-.097-.142-.208-.258-.331-.35.399-.225.741-.48,1.027-.766.118-.118.209-.233.273-.347ZM194.751,44.354c.412.393.758.829,1.04,1.307.017.022.024.04.024.052,0,.019-.021.041-.061.067l-.423.237c-.041.02-.066.03-.076.03-.017,0-.032-.015-.049-.043-.075-.138-.16-.285-.255-.443-.649.061-1.203.106-1.663.137v1.092l.012.951c0,.032-.004.053-.012.061-.009.007-.026.01-.055.01h-.569c-.032,0-.052-.006-.058-.016-.006-.006-.009-.024-.009-.055l.012-.951v-1.046c-.553.036-1.105.061-1.657.072-.162.009-.27.023-.322.046-.042.017-.084.024-.124.024-.039,0-.064-.029-.076-.088-.045-.171-.086-.381-.125-.63.175.013.396.019.666.019.361,0,.732-.006,1.116-.019.107-.091.188-.157.243-.197-.45-.422-.863-.759-1.24-1.01-.026-.021-.04-.034-.04-.043,0-.012.016-.033.046-.063l.295-.279c.034-.033.059-.049.072-.049.013,0,.029.008.049.024l.319.225c.239-.227.453-.464.642-.711-.539.05-1.048.081-1.526.091-.034.002-.057.003-.066.003-.065,0-.108-.011-.131-.033-.019-.021-.038-.064-.058-.131-.051-.173-.117-.315-.198-.429.789-.006,1.556-.048,2.302-.125.56-.053,1.037-.118,1.433-.197.21-.041.377-.084.498-.131.124.093.269.232.435.417.043.055.064.102.064.143,0,.051-.035.076-.106.076-.1,0-.207.008-.322.024-.645.103-1.209.18-1.693.23l.091.055c.059.033.088.066.088.101s-.027.068-.082.101c-.062.03-.12.076-.173.137-.286.316-.528.564-.727.745.188.153.352.296.489.426.29-.272.576-.577.86-.916.096-.115.175-.231.237-.35.262.112.446.201.554.268.059.037.088.072.088.106,0,.047-.031.087-.095.119-.057.022-.124.076-.203.161-.318.373-.716.765-1.192,1.177.482-.022,1-.056,1.551-.101-.1-.13-.207-.257-.322-.38-.022-.019-.033-.033-.033-.046,0-.014.021-.033.063-.058l.316-.201c.034-.02.06-.03.076-.03.019,0,.038.013.061.037ZM195.748,47.032c-.117.091-.229.214-.337.367-.061.092-.104.137-.131.137-.017,0-.062-.027-.137-.082-.469-.328-.895-.718-1.277-1.17-.014-.021-.021-.036-.021-.046,0-.014.022-.036.067-.066l.347-.231c.03-.019.053-.027.066-.027.015,0,.034.014.058.042.355.396.811.755,1.365,1.077Z"/>
      <path d="M198.794,46.776c-.845.347-1.53.595-2.055.745l-.155-.529c.486-.109,1.191-.354,2.116-.732l.094.517ZM198.801,43.493c-.428.886-.872,1.608-1.332,2.167.363-.097.757-.231,1.183-.404l.095.499c-.736.279-1.389.481-1.958.605l-.144-.487c.345-.351.698-.828,1.062-1.432-.335.087-.641.153-.918.197l-.155-.492c.349-.439.71-1.114,1.085-2.022l.478.226c-.308.72-.607,1.286-.896,1.699.259-.055.502-.119.729-.194.132-.241.229-.444.292-.608l.48.247ZM199.959,44.964c0,.491-.017.881-.05,1.17-.034.288-.126.556-.277.801-.15.245-.442.502-.874.77l-.374-.444c.292-.138.52-.301.683-.489s.264-.404.301-.646c.038-.242.051-.629.038-1.16h.554ZM202.075,44.69l-.441.292c-.072-.117-.162-.25-.268-.398-1.065.116-1.901.182-2.505.198l-.098-.505c.339-.266.625-.593.857-.982h-.921v-.522h1.325c-.087-.175-.187-.343-.298-.505l.548-.149c.147.217.269.435.361.654h1.354v.522h-1.715c-.233.383-.476.7-.727.952.545-.021,1.03-.064,1.456-.131-.105-.122-.244-.272-.417-.453l.453-.243c.359.347.704.771,1.034,1.271ZM202.105,46.47c-.008.253-.033.467-.074.642-.042.174-.114.297-.218.367-.104.071-.285.106-.547.106-.298,0-.493-.042-.586-.126-.092-.084-.138-.208-.138-.372v-2.123h.544v1.962c0,.081.071.121.213.121.136,0,.221-.042.254-.128.033-.085.05-.301.05-.647l.502.198Z"/>
    </g>
    <g>
      <path d="M48.338,48.064h-.47c-.248-.276-.434-.587-.557-.929-.124-.342-.187-.717-.187-1.124,0-.399.062-.772.187-1.119.123-.348.309-.668.557-.962h.47c-.241.307-.422.633-.543.979-.12.345-.181.712-.181,1.101,0,.385.061.749.181,1.091.121.342.302.664.543.964Z"/>
      <path d="M50.423,43.932h.759l1.259,3.366h-.769l-.255-.749h-1.259l-.264.749h-.75l1.278-3.366ZM50.352,45.997h.872l-.424-1.235h-.01l-.438,1.235Z"/>
      <path d="M55.305,46.916c-.259.335-.599.462-.924.462-1.042,0-1.655-.777-1.655-1.749,0-.999.613-1.777,1.655-1.777.688,0,1.339.424,1.419,1.188h-.707c-.085-.373-.363-.566-.712-.566-.665,0-.915.566-.915,1.155,0,.562.25,1.127.915,1.127.481,0,.759-.26.802-.727h-.745v-.551h1.415v1.819h-.472l-.076-.382Z"/>
      <path d="M57.094,46.181c0,.448.349.622.745.622.259,0,.655-.075.655-.419,0-.363-.505-.425-1-.557-.5-.132-1.004-.325-1.004-.957,0-.688.65-1.019,1.259-1.019.702,0,1.349.307,1.349,1.084h-.717c-.023-.405-.312-.509-.665-.509-.235,0-.509.099-.509.382,0,.26.16.292,1.004.509.245.062,1,.218,1,.981,0,.617-.486,1.079-1.4,1.079-.745,0-1.443-.367-1.434-1.197h.717Z"/>
      <path d="M59.812,45.724h2.789v.575h-2.789v-.575Z"/>
      <path d="M64.223,43.96c.806,0,1.047.438,1.047,1.622,0,.929-.053,1.782-1.047,1.782-.807,0-1.047-.438-1.047-1.622,0-.924.052-1.782,1.047-1.782ZM63.854,45.889c0,.839.075,1.032.368,1.032.297,0,.367-.264.367-1.122v-.363c0-.839-.075-1.032-.367-1.032-.297,0-.368.264-.368,1.122v.363Z"/>
      <path d="M66.729,43.96c.806,0,1.047.438,1.047,1.622,0,.929-.053,1.782-1.047,1.782-.807,0-1.047-.438-1.047-1.622,0-.924.052-1.782,1.047-1.782ZM66.36,45.889c0,.839.075,1.032.368,1.032.297,0,.367-.264.367-1.122v-.363c0-.839-.075-1.032-.367-1.032-.297,0-.368.264-.368,1.122v.363Z"/>
      <path d="M68.849,46.322c.009.387.075.599.372.599.33,0,.373-.245.373-.537,0-.298-.066-.571-.438-.571h-.227v-.442h.222c.283,0,.387-.255.387-.528,0-.312-.104-.438-.325-.438-.293,0-.345.227-.345.542h-.622c0-.655.349-.985.98-.985.604,0,.962.269.962.858,0,.4-.193.664-.509.735v.009c.429.066.594.368.594.788,0,.447-.184,1.014-1.108,1.014-.646,0-.966-.392-.966-1.028v-.014h.65Z"/>
      <path d="M71.426,48.064h-.47c.241-.299.422-.619.543-.962.122-.342.183-.706.183-1.093s-.061-.754-.183-1.1c-.121-.347-.303-.673-.546-.979h.475c.247.294.434.614.558.962.125.347.188.72.188,1.119,0,.405-.062.779-.188,1.122-.124.342-.311.652-.56.931Z"/>
      <path d="M73.766,46.322c.01.387.075.599.372.599.33,0,.373-.245.373-.537,0-.298-.066-.571-.438-.571h-.227v-.442h.222c.283,0,.387-.255.387-.528,0-.312-.104-.438-.325-.438-.293,0-.345.227-.345.542h-.622c0-.655.349-.985.98-.985.604,0,.962.269.962.858,0,.4-.193.664-.509.735v.009c.429.066.594.368.594.788,0,.447-.184,1.014-1.108,1.014-.646,0-.966-.392-.966-1.028v-.014h.65Z"/>
      <path d="M76.912,46.862v.735h-.622v-.735h.622Z"/>
      <path d="M80.079,44.026v.519c-.552.777-.872,1.811-.98,2.753h-.712c.104-.806.387-1.801,1.042-2.688h-1.405v-.584h2.056Z"/>
      <path d="M82.23,45.425c-.15.292-.357.49-.601.49-.187,0-.305-.075-.508-.202-.121-.081-.239-.161-.386-.161-.198,0-.32.175-.434.354l-.195-.217c.134-.273.382-.485.649-.485.211,0,.354.104.476.18.162.108.247.179.394.179.17,0,.288-.127.414-.354l.19.217Z"/>
      <path d="M83.754,46.322c.01.387.075.599.372.599.33,0,.373-.245.373-.537,0-.298-.066-.571-.438-.571h-.227v-.442h.222c.283,0,.387-.255.387-.528,0-.312-.104-.438-.325-.438-.293,0-.345.227-.345.542h-.622c0-.655.349-.985.98-.985.604,0,.962.269.962.858,0,.4-.193.664-.509.735v.009c.429.066.594.368.594.788,0,.447-.184,1.014-1.108,1.014-.646,0-.966-.392-.966-1.028v-.014h.65Z"/>
      <path d="M86.901,46.862v.735h-.622v-.735h.622Z"/>
      <path d="M88.54,45.53v-.01c-.358-.095-.481-.4-.481-.642,0-.655.373-.919.981-.919s.98.264.98.919c0,.241-.123.547-.48.642v.01c.377.075.565.405.565.825,0,.382-.137,1.009-1.065,1.009s-1.065-.627-1.065-1.009c0-.42.188-.75.565-.825ZM89.04,46.921c.307,0,.387-.26.387-.575,0-.32-.08-.575-.387-.575s-.387.255-.387.575c0,.315.08.575.387.575ZM89.04,45.327c.198,0,.33-.155.33-.467,0-.302-.108-.457-.33-.457s-.33.155-.33.457c0,.312.132.467.33.467Z"/>
      <path d="M91.664,43.932l.477,2.489h.014l.5-2.489h.702l-.772,3.366h-.873l-.773-3.366h.727Z"/>
    </g>
    <g>
      <path d="M20.502,55.705h.759l1.259,3.367h-.769l-.255-.75h-1.259l-.264.75h-.75l1.278-3.367ZM20.431,57.771h.872l-.424-1.235h-.01l-.438,1.235Z"/>
      <path d="M25.383,58.69c-.259.334-.599.462-.924.462-1.042,0-1.655-.778-1.655-1.749,0-1,.613-1.778,1.655-1.778.688,0,1.339.425,1.419,1.188h-.707c-.085-.372-.363-.565-.712-.565-.665,0-.915.565-.915,1.155,0,.561.25,1.127.915,1.127.481,0,.759-.26.802-.727h-.745v-.552h1.415v1.82h-.472l-.076-.382Z"/>
      <path d="M27.173,57.954c0,.448.349.623.745.623.259,0,.655-.075.655-.42,0-.363-.505-.424-1-.557-.5-.132-1.004-.325-1.004-.957,0-.688.65-1.019,1.259-1.019.702,0,1.349.307,1.349,1.085h-.717c-.023-.405-.312-.51-.665-.51-.235,0-.509.1-.509.383,0,.259.16.292,1.004.509.245.062,1,.217,1,.98,0,.618-.486,1.08-1.4,1.08-.745,0-1.443-.368-1.434-1.198h.717Z"/>
      <path d="M29.891,57.497h2.789v.575h-2.789v-.575Z"/>
      <path d="M34.027,59.072v-2.357h-.665v-.443h.062c.443,0,.717-.17.782-.538h.5v3.339h-.679Z"/>
      <path d="M36.808,55.733c.806,0,1.047.438,1.047,1.622,0,.929-.053,1.782-1.047,1.782-.807,0-1.047-.438-1.047-1.622,0-.924.052-1.782,1.047-1.782ZM36.439,57.662c0,.84.075,1.033.368,1.033.297,0,.367-.265.367-1.123v-.362c0-.84-.075-1.033-.367-1.033-.297,0-.368.265-.368,1.122v.363Z"/>
      <path d="M39.04,59.072v-2.357h-.665v-.443h.062c.443,0,.717-.17.782-.538h.5v3.339h-.679Z"/>
    </g>
    <g>
      <path d="M58.982,53.93h-.47c-.248-.276-.434-.587-.557-.929-.124-.342-.187-.717-.187-1.125,0-.398.062-.771.187-1.119.123-.347.309-.667.557-.961h.47c-.241.307-.422.633-.543.979-.12.345-.181.711-.181,1.1,0,.386.061.75.181,1.092.121.342.302.664.543.964Z"/>
      <path d="M61.209,49.899c-.051.156-.121.351-.214.584l-.138.34v3.185h-.432v-2.337c-.065.113-.163.252-.293.418l-.244-.418c.372-.511.668-1.143.887-1.896l.434.125ZM64.181,53.71l-.246.342c-.531-.27-.972-.575-1.319-.916-.403.372-.882.674-1.435.907l-.251-.347c.561-.234,1.033-.531,1.416-.889-.486-.682-.779-1.488-.879-2.424h-.186v-.426h2.648c-.089,1.191-.433,2.152-1.031,2.881.299.313.726.604,1.282.871ZM63.463,50.384h-1.577c.108.832.36,1.539.757,2.121.421-.566.694-1.273.82-2.121Z"/>
      <path d="M66.619,50.141c.154.21.322.496.504.86.009.018.014.031.014.042,0,.019-.016.036-.047.054l-.274.148c-.021.014-.038.021-.049.021-.014,0-.028-.015-.042-.044l-.087-.211c-.394.057-.872.111-1.435.161-.089.009-.153.024-.192.044-.032.014-.057.02-.072.02-.028,0-.049-.025-.061-.078-.03-.156-.051-.295-.063-.416.18,0,.311-.002.394-.006.104-.203.197-.426.283-.668.038-.11.066-.219.087-.325.174.022.325.051.455.087.052.019.077.042.077.07,0,.029-.018.059-.054.086-.025.022-.054.069-.085.141-.109.238-.202.43-.278.577.337-.024.588-.048.752-.067-.065-.113-.129-.215-.189-.308-.011-.016-.017-.028-.017-.038,0-.014.017-.028.049-.044l.23-.129c.019-.011.034-.017.047-.017.017,0,.035.014.054.04ZM65.941,53.649c.099.012.194.019.288.019.105,0,.157-.048.157-.144v-.36h-.794v.312l.009.591c0,.032-.018.05-.054.05h-.365c-.035,0-.052-.018-.052-.05l.009-.591v-1.441l-.009-.598c0-.026.003-.042.009-.047.007-.004.021-.007.045-.007l.509.009h.6l.502-.009c.026,0,.042.003.047.009.005.007.007.021.007.045l-.01.643v.859l.01.652c0,.189-.035.315-.105.379-.044.039-.102.066-.174.08-.076.016-.194.024-.354.025-.078,0-.124-.006-.139-.021-.012-.013-.025-.054-.039-.122-.022-.109-.055-.203-.097-.283ZM66.386,51.781h-.794v.321h.794v-.321ZM65.592,52.794h.794v-.321h-.794v.321ZM68.671,49.939c.104.09.202.191.296.308.027.028.042.056.042.082s-.022.046-.068.056c-.05.01-.123.039-.22.088-.26.134-.599.271-1.018.412v.283c0,.076.027.125.082.146.057.019.178.028.363.028.268,0,.428-.029.48-.087.028-.028.046-.077.054-.146.003-.034.008-.125.015-.271.089.053.2.1.335.139.053.016.085.028.096.039.011.012.017.033.017.068,0,.012,0,.031-.002.057-.018.154-.044.27-.08.344-.031.07-.078.127-.141.169-.115.083-.383.124-.802.124-.372,0-.616-.027-.733-.082-.109-.042-.164-.146-.164-.312v-1.137c0-.206-.01-.363-.028-.472.182.007.341.018.479.033.055.006.082.024.082.055,0,.016-.01.043-.028.082-.016.035-.023.123-.023.262v.236c.258-.094.493-.195.705-.307.094-.05.182-.115.263-.197ZM68.725,53.082c.114.062.229.108.345.136.05.012.081.021.094.031s.019.027.019.051c0,.012-.002.036-.007.075-.017.159-.044.278-.082.358-.032.072-.08.13-.143.174-.144.1-.409.15-.797.15-.391,0-.644-.029-.757-.088-.113-.056-.169-.172-.169-.349v-1.212c0-.201-.01-.355-.028-.464.182.005.341.016.479.032.055.01.082.029.082.059,0,.02-.01.049-.028.088-.016.031-.023.115-.023.252v.23c.266-.099.51-.215.733-.35.109-.066.196-.135.26-.201.072.059.172.163.298.312.031.04.047.071.047.091,0,.033-.025.053-.077.059-.034.004-.106.031-.216.085-.467.224-.815.376-1.045.457v.36c0,.082.028.137.087.164.053.022.181.033.384.033.252,0,.406-.029.464-.086.035-.038.057-.094.066-.17.006-.039.012-.131.016-.278Z"/>
      <path d="M69.709,51.599c.382-.427.672-.938.87-1.535.037-.109.062-.223.072-.34.19.05.344.098.46.143.055.025.082.049.082.072,0,.031-.019.061-.055.088-.029.021-.062.086-.101.191-.063.186-.151.398-.263.638v2.501l.01.729c0,.025-.003.041-.01.047-.006.005-.021.008-.044.008h-.398c-.025,0-.04-.004-.045-.01s-.007-.021-.007-.045l.01-.729v-1.104c0-.116.003-.312.009-.586-.071.103-.165.223-.278.357-.033.043-.061.064-.082.064-.023,0-.043-.029-.057-.088-.042-.168-.1-.303-.174-.402ZM71.803,50.738l-.664.009c-.024,0-.04-.002-.047-.009-.004-.007-.007-.021-.007-.042v-.361c0-.025.004-.039.012-.045.005-.004.019-.006.042-.006l.664.009h.522v-.028c0-.229-.01-.397-.028-.508.222.006.385.016.487.027.055.005.082.021.082.052,0,.026-.009.059-.028.097-.021.051-.032.162-.032.332v.028h.675l.658-.009c.028,0,.045.002.05.009s.007.021.007.042v.361c0,.025-.003.039-.01.045-.006.004-.021.006-.047.006l-.658-.009h-.675v.372h.431l.647-.009c.024,0,.04.003.047.009.005.007.007.021.007.045l-.01.383v.489l.01.382c0,.025-.003.041-.008.046-.006.005-.021.009-.046.009l-.647-.01h-.484c-.025.205-.062.367-.11.49-.049.118-.095.216-.139.293.413.205,1.004.324,1.774.354-.061.098-.108.214-.143.347-.013.067-.024.106-.035.12-.013.016-.037.023-.073.023-.013,0-.037-.002-.075-.003-.715-.054-1.296-.214-1.741-.483-.219.194-.537.358-.956.492-.053.016-.088.023-.105.023-.034,0-.069-.039-.105-.119-.055-.128-.119-.229-.192-.305.437-.096.758-.219.966-.373-.169-.145-.322-.32-.462-.524-.011-.017-.017-.03-.017-.038,0-.012.018-.027.052-.047l.244-.141c.024-.014.043-.021.054-.021.013,0,.026.011.042.03.114.158.241.294.38.408.014-.023.043-.082.087-.176.037-.104.065-.221.084-.352h-.358l-.645.01c-.025,0-.04-.004-.045-.01-.004-.006-.007-.021-.007-.045l.01-.382v-.489l-.01-.383c0-.026.003-.042.01-.047.006-.004.021-.007.042-.007l.645.009h.403v-.372h-.522ZM72.326,51.523h-.628v.522h.618c.007-.205.01-.379.01-.522ZM72.79,52.046h.668v-.522h-.651l-.017.522Z"/>
      <path d="M77.812,53.593c.175.013.323.02.445.02.104,0,.155-.053.155-.158v-.797h-1.13v.572l.009.711c0,.024-.003.039-.009.044-.007.005-.021.007-.042.007h-.415c-.025,0-.04-.003-.045-.01-.005-.006-.007-.02-.007-.041l.01-.711v-.572h-1.095c-.058.523-.197.967-.417,1.33-.036.063-.065.096-.087.096-.016,0-.05-.025-.101-.078-.099-.098-.212-.18-.34-.243.188-.243.32-.542.394-.896.067-.322.101-.749.101-1.281v-.788l-.01-.785c0-.028.004-.046.012-.052.007-.004.022-.007.047-.007l.656.009h2.258l.66-.009c.027,0,.043.004.047.012.005.007.008.022.008.047l-.01.785v2.126l.01.66c0,.172-.054.303-.16.39-.092.083-.303.124-.633.124-.078,0-.123-.006-.136-.019-.013-.011-.026-.051-.042-.12-.031-.139-.076-.26-.134-.365ZM75.724,52.212h1.06v-.677h-1.046v.054c0,.229-.005.436-.014.623ZM75.738,51.09h1.046v-.665h-1.046v.665ZM78.413,50.425h-1.13v.665h1.13v-.665ZM77.283,52.212h1.13v-.677h-1.13v.677Z"/>
      <path d="M80.987,49.798h.759l1.259,3.366h-.769l-.255-.749h-1.259l-.264.749h-.75l1.278-3.366ZM80.916,51.862h.872l-.424-1.234h-.01l-.438,1.234Z"/>
      <path d="M85.868,52.782c-.259.334-.599.462-.924.462-1.042,0-1.655-.778-1.655-1.749,0-1,.613-1.777,1.655-1.777.688,0,1.339.424,1.419,1.188h-.707c-.085-.372-.363-.565-.712-.565-.665,0-.915.565-.915,1.155,0,.561.25,1.127.915,1.127.481,0,.759-.26.802-.727h-.745v-.551h1.415v1.819h-.472l-.076-.382Z"/>
      <path d="M87.658,52.046c0,.449.349.623.745.623.259,0,.655-.075.655-.42,0-.363-.505-.424-1-.557-.5-.131-1.004-.324-1.004-.957,0-.688.65-1.018,1.259-1.018.702,0,1.349.307,1.349,1.084h-.717c-.023-.405-.312-.51-.665-.51-.235,0-.509.1-.509.383,0,.26.16.292,1.004.509.245.062,1,.218,1,.981,0,.617-.486,1.079-1.4,1.079-.745,0-1.443-.368-1.434-1.198h.717Z"/>
      <path d="M90.375,51.589h2.789v.576h-2.789v-.576Z"/>
      <path d="M94.786,49.825c.806,0,1.047.439,1.047,1.623,0,.928-.053,1.781-1.047,1.781-.807,0-1.047-.438-1.047-1.621,0-.924.052-1.783,1.047-1.783ZM94.417,51.755c0,.839.075,1.032.368,1.032.297,0,.367-.265.367-1.122v-.363c0-.84-.075-1.033-.367-1.033-.297,0-.368.265-.368,1.123v.363Z"/>
      <path d="M97.292,49.825c.806,0,1.047.439,1.047,1.623,0,.928-.053,1.781-1.047,1.781-.807,0-1.047-.438-1.047-1.621,0-.924.052-1.783,1.047-1.783ZM96.924,51.755c0,.839.075,1.032.368,1.032.297,0,.367-.265.367-1.122v-.363c0-.84-.075-1.033-.367-1.033-.297,0-.368.265-.368,1.123v.363Z"/>
      <path d="M100.807,53.164h-2.056c0-.595.24-1.005.735-1.462l.273-.254c.297-.27.349-.42.349-.764,0-.279-.117-.416-.33-.416-.339,0-.372.297-.377.651h-.65v-.128c0-.617.325-.967,1.037-.967.67,0,1,.336,1,.91,0,.434-.137.717-.519,1.062l-.378.349c-.197.18-.311.363-.344.49h1.259v.528Z"/>
      <path d="M101.99,53.93h-.47c.241-.299.422-.62.543-.962.122-.342.183-.707.183-1.094s-.061-.753-.183-1.1c-.121-.346-.303-.672-.546-.979h.475c.247.294.434.614.558.961.125.348.188.721.188,1.119,0,.406-.062.78-.188,1.123-.124.342-.311.652-.56.931Z"/>
    </g>
    <g>
      <path d="M4.874,44.93l-.609.01c-.025,0-.04-.004-.045-.012-.005-.006-.007-.021-.007-.047v-.375c0-.025.003-.04.01-.045.006-.004.02-.007.042-.007l.609.01h1.153v-.12c0-.214-.012-.377-.033-.489.222.006.392.016.509.028.052.004.077.021.077.049,0,.016-.01.046-.03.092-.016.047-.023.155-.023.325v.115h1.224l.609-.01c.024,0,.04.003.047.01.004.006.007.021.007.042v.375c0,.028-.003.045-.01.052-.006.005-.021.007-.044.007l-.609-.01h-1.508c-.234.388-.406.658-.518.812.639-.028,1.145-.059,1.517-.092-.088-.091-.211-.207-.37-.349-.02-.016-.028-.027-.028-.035,0-.012.015-.027.044-.047l.249-.184c.021-.014.036-.021.049-.021.016,0,.036.01.062.03.331.271.638.604.921.998.016.022.023.037.023.045,0,.013-.013.028-.038.047l-.283.221c-.023.02-.041.03-.052.03-.019,0-.038-.019-.059-.054-.081-.129-.146-.225-.196-.289-.341.036-.527.056-.561.059v1.247c0,.138.014.222.042.253.041.046.174.068.398.068.247,0,.402-.032.467-.096.037-.046.062-.117.075-.214.009-.068.016-.197.021-.387.106.062.225.104.354.132.053.009.085.019.096.027.013.01.019.027.019.052,0,.013,0,.034-.005.063-.021.349-.1.58-.234.696-.134.125-.419.188-.855.188-.394,0-.637-.04-.729-.12-.058-.05-.097-.109-.117-.18-.021-.066-.03-.158-.03-.277v-1.41l-.495.035c-.017.306-.046.543-.086.71-.043.167-.111.329-.207.485-.214.348-.588.612-1.122.792-.07.019-.109.028-.117.028-.028,0-.065-.04-.11-.12-.064-.115-.143-.217-.234-.305.58-.128.969-.353,1.167-.675.085-.136.141-.273.169-.412.023-.114.037-.273.042-.477l-.558.028c-.148.005-.243.017-.283.035-.031.016-.059.023-.08.023-.029,0-.053-.025-.068-.077-.026-.104-.052-.26-.077-.467.116.01.227.015.333.015.057,0,.111-.002.166-.005h.188c.2-.263.376-.539.527-.83h-.782Z"/>
      <path d="M13.44,47.267c-.018.247-.058.424-.12.531-.062.106-.141.174-.235.201s-.326.041-.694.041c-.552,0-.881-.006-.987-.018s-.19-.055-.253-.129-.094-.198-.094-.371v-.654h-1.643v-2.327h1.643v-.673h.427v.673h1.607v2.327h-1.607v.668c0,.049.024.08.075.094.05.015.337.021.862.021.151,0,.271,0,.356,0,.086,0,.146-.042.184-.123.037-.082.059-.211.066-.39l.413.129ZM11.057,45.521v-.591h-1.205v.591h1.205ZM11.057,46.491v-.586h-1.205v.586h1.205ZM12.669,45.521v-.591h-1.186v.591h1.186ZM12.669,46.491v-.586h-1.186v.586h1.186Z"/>
      <path d="M18.433,47.267c-.018.247-.058.424-.12.531-.062.106-.141.174-.235.201s-.326.041-.694.041c-.552,0-.881-.006-.987-.018s-.19-.055-.253-.129-.094-.198-.094-.371v-.654h-1.643v-2.327h1.643v-.673h.427v.673h1.607v2.327h-1.607v.668c0,.049.024.08.075.094.05.015.337.021.862.021.151,0,.271,0,.356,0,.086,0,.146-.042.184-.123.037-.082.059-.211.066-.39l.413.129ZM16.049,45.521v-.591h-1.205v.591h1.205ZM16.049,46.491v-.586h-1.205v.586h1.205ZM17.661,45.521v-.591h-1.186v.591h1.186ZM17.661,46.491v-.586h-1.186v.586h1.186Z"/>
      <path d="M19.439,45.117c.248.145.471.308.668.49.021.018.032.033.032.047,0,.011-.009.029-.027.054l-.211.284c-.023.031-.042.047-.055.047-.009,0-.021-.008-.037-.023-.2-.205-.424-.382-.673-.53-.019-.014-.028-.026-.028-.037,0-.008.008-.022.023-.042l.207-.256c.026-.031.047-.047.062-.047.01,0,.022.005.038.014ZM19.132,47.871c.091-.107.17-.227.237-.358.188-.383.341-.759.459-1.13.075.08.163.16.265.242.067.053.102.094.102.124,0,.021-.01.057-.028.11-.117.359-.262.713-.434,1.062-.036.068-.06.13-.07.185-.011.039-.032.059-.063.059-.026,0-.056-.009-.087-.027-.122-.069-.248-.157-.38-.266ZM19.641,43.898c.229.14.454.311.673.514.019.019.028.031.028.037,0,.01-.01.029-.028.059l-.216.289c-.021.029-.038.044-.049.044-.01,0-.022-.007-.038-.021-.215-.231-.441-.418-.677-.559-.022-.014-.033-.024-.033-.032,0-.01.011-.027.033-.054l.211-.254c.023-.024.042-.037.056-.037.01,0,.023.005.04.014ZM22.96,46.908c.112.076.234.129.365.157.053.014.086.024.099.032.013.012.019.031.019.059,0,.013,0,.032-.002.059-.022.348-.1.578-.232.694-.081.065-.213.111-.396.138-.183.027-.447.04-.794.04-.413,0-.696-.009-.851-.028-.117-.014-.208-.039-.272-.077-.134-.075-.201-.224-.201-.445v-1.607l-.385.119c-.014.005-.024.007-.03.007-.018,0-.027-.018-.03-.054l-.045-.37v-.019c0-.019.019-.034.054-.045.171-.042.316-.082.437-.119v-.532c0-.252-.013-.458-.038-.619.207.005.373.015.5.028.058.01.086.026.086.052,0,.011-.008.04-.025.087-.019.052-.028.186-.028.403v.434l.495-.15v-.581c0-.314-.013-.546-.038-.696.227.006.394.017.499.03.055.005.082.021.082.047,0,.021-.009.056-.027.105-.023.055-.035.215-.035.48v.472l.398-.122c.191-.055.359-.107.501-.157.093-.031.14-.048.141-.049h.012c.025,0,.038.015.038.044l-.01.485c-.019.698-.061,1.142-.127,1.329-.056.162-.188.243-.396.243-.091,0-.159-.003-.204-.009-.049-.005-.077-.015-.087-.03-.009-.015-.019-.055-.028-.122-.016-.116-.052-.227-.109-.333.098.023.179.035.241.035.081,0,.134-.033.157-.101.035-.104.059-.412.067-.926l-.595.181v.874l.009.733c0,.025-.003.04-.009.046-.007.005-.023.008-.05.008h-.389c-.025,0-.04-.003-.045-.009-.005-.007-.007-.021-.007-.045l.01-.733v-.725l-.495.147v1.59c0,.107.024.175.073.201.051.034.311.052.777.052s.741-.04.816-.12c.065-.071.101-.268.105-.588Z"/>
      <path d="M30.914,44.771h-.952c-.047.159-.101.304-.161.434h.998v.39h-.521v.551h.609v.389h-.609v.82c.169-.092.308-.174.415-.244l.129.363c-.333.221-.632.387-.897.5l-.169-.373c.064-.034.097-.086.097-.154v-.912h-.551v-.389h.551v-.551h-.234c-.022.059-.053.113-.092.161l-.288-.278c.294-.554.471-1.096.532-1.627l.394.082c-.03.178-.063.332-.101.462h.851v.377ZM33.466,47.981h-2.648v-.398h1.104v-.45h-.912v-.394h.912v-.398h-.884v-2.332h2.213v2.332h-.907v.398h.916v.394h-.916v.45h1.122v.398ZM31.922,44.963v-.564h-.48v.564h.48ZM31.922,45.938v-.6h-.48v.6h.48ZM32.838,44.963v-.564h-.494v.564h.494ZM32.838,45.938v-.6h-.494v.6h.494Z"/>
      <path d="M38.472,47.267c-.018.247-.058.424-.12.531-.062.106-.141.174-.235.201s-.326.041-.694.041c-.552,0-.881-.006-.987-.018s-.19-.055-.253-.129-.094-.198-.094-.371v-.654h-1.643v-2.327h1.643v-.673h.427v.673h1.607v2.327h-1.607v.668c0,.049.024.08.075.094.05.015.337.021.862.021.151,0,.271,0,.356,0,.086,0,.146-.042.184-.123.037-.082.059-.211.066-.39l.413.129ZM36.088,45.521v-.591h-1.205v.591h1.205ZM36.088,46.491v-.586h-1.205v.586h1.205ZM37.7,45.521v-.591h-1.186v.591h1.186ZM37.7,46.491v-.586h-1.186v.586h1.186Z"/>
      <path d="M39.479,45.117c.248.145.471.308.668.49.021.018.032.033.032.047,0,.011-.009.029-.027.054l-.211.284c-.023.031-.042.047-.055.047-.009,0-.021-.008-.037-.023-.2-.205-.424-.382-.673-.53-.019-.014-.028-.026-.028-.037,0-.008.008-.022.023-.042l.207-.256c.026-.031.047-.047.062-.047.01,0,.022.005.038.014ZM39.172,47.871c.091-.107.17-.227.237-.358.188-.383.341-.759.459-1.13.075.08.163.16.265.242.067.053.102.094.102.124,0,.021-.01.057-.028.11-.117.359-.262.713-.434,1.062-.036.068-.06.13-.07.185-.011.039-.032.059-.063.059-.026,0-.056-.009-.087-.027-.122-.069-.248-.157-.38-.266ZM39.681,43.898c.229.14.454.311.673.514.019.019.028.031.028.037,0,.01-.01.029-.028.059l-.216.289c-.021.029-.038.044-.049.044-.01,0-.022-.007-.038-.021-.215-.231-.441-.418-.677-.559-.022-.014-.033-.024-.033-.032,0-.01.011-.027.033-.054l.211-.254c.023-.024.042-.037.056-.037.01,0,.023.005.04.014ZM43,46.908c.112.076.234.129.365.157.053.014.086.024.099.032.013.012.019.031.019.059,0,.013,0,.032-.002.059-.022.348-.1.578-.232.694-.081.065-.213.111-.396.138-.183.027-.447.04-.794.04-.413,0-.696-.009-.851-.028-.117-.014-.208-.039-.272-.077-.134-.075-.201-.224-.201-.445v-1.607l-.385.119c-.014.005-.024.007-.03.007-.018,0-.027-.018-.03-.054l-.045-.37v-.019c0-.019.019-.034.054-.045.171-.042.316-.082.437-.119v-.532c0-.252-.013-.458-.038-.619.207.005.373.015.5.028.058.01.086.026.086.052,0,.011-.008.04-.025.087-.019.052-.028.186-.028.403v.434l.495-.15v-.581c0-.314-.013-.546-.038-.696.227.006.394.017.499.03.055.005.082.021.082.047,0,.021-.009.056-.027.105-.023.055-.035.215-.035.48v.472l.398-.122c.191-.055.359-.107.501-.157.093-.031.14-.048.141-.049h.012c.025,0,.038.015.038.044l-.01.485c-.019.698-.061,1.142-.127,1.329-.056.162-.188.243-.396.243-.091,0-.159-.003-.204-.009-.049-.005-.077-.015-.087-.03-.009-.015-.019-.055-.028-.122-.016-.116-.052-.227-.109-.333.098.023.179.035.241.035.081,0,.134-.033.157-.101.035-.104.059-.412.067-.926l-.595.181v.874l.009.733c0,.025-.003.04-.009.046-.007.005-.023.008-.05.008h-.389c-.025,0-.04-.003-.045-.009-.005-.007-.007-.021-.007-.045l.01-.733v-.725l-.495.147v1.59c0,.107.024.175.073.201.051.034.311.052.777.052s.741-.04.816-.12c.065-.071.101-.268.105-.588Z"/>
    </g>
    <g>
      <path d="M30.778,50.344h-1.23l-.071.76h.01c.127-.175.325-.25.613-.25.641,0,.815.537.815,1.065,0,.73-.212,1.235-1.07,1.235-.849,0-.985-.557-.985-.929v-.09h.65c0,.222.038.547.33.547.273,0,.396-.217.396-.65,0-.552-.085-.707-.392-.707-.193,0-.297.117-.32.306h-.608l.122-1.814h1.74v.527Z"/>
      <path d="M32.667,52.652v.735h-.622v-.735h.622Z"/>
      <path d="M35.814,53.088h-2.056c0-.594.24-1.004.735-1.461l.273-.255c.297-.269.349-.42.349-.764,0-.278-.117-.415-.33-.415-.339,0-.372.297-.377.65h-.65v-.127c0-.618.325-.967,1.037-.967.67,0,1,.335,1,.91,0,.434-.137.717-.519,1.061l-.378.349c-.197.18-.311.363-.344.49h1.259v.528Z"/>
      <path d="M37.429,49.722l.477,2.489h.014l.5-2.489h.702l-.773,3.366h-.872l-.773-3.366h.727Z"/>
      <path d="M43.1,52.112c.01.387.075.599.372.599.33,0,.373-.245.373-.537,0-.298-.066-.571-.438-.571h-.227v-.442h.222c.283,0,.387-.255.387-.528,0-.312-.104-.438-.325-.438-.293,0-.345.227-.345.542h-.622c0-.655.349-.985.98-.985.604,0,.962.269.962.858,0,.4-.193.664-.509.735v.009c.429.066.594.368.594.788,0,.447-.184,1.014-1.108,1.014-.646,0-.966-.392-.966-1.028v-.014h.65Z"/>
      <path d="M46.983,53.088h-2.056c0-.594.24-1.004.735-1.461l.273-.255c.297-.269.349-.42.349-.764,0-.278-.117-.415-.33-.415-.339,0-.372.297-.377.65h-.65v-.127c0-.618.325-.967,1.037-.967.67,0,1,.335,1,.91,0,.434-.137.717-.519,1.061l-.378.349c-.197.18-.311.363-.344.49h1.259v.528Z"/>
      <path d="M48.461,49.75c.806,0,1.047.438,1.047,1.622,0,.929-.053,1.782-1.047,1.782-.807,0-1.047-.438-1.047-1.622,0-.924.052-1.782,1.047-1.782ZM48.093,51.679c0,.839.075,1.032.368,1.032.297,0,.367-.264.367-1.122v-.363c0-.839-.075-1.032-.367-1.032-.297,0-.368.264-.368,1.122v.363Z"/>
      <path d="M50.034,50.552h.622v.259h.01c.165-.23.368-.325.642-.325.297,0,.514.146.584.405h.01c.099-.269.335-.405.642-.405.429,0,.632.269.632.759v1.844h-.651v-1.772c0-.212-.07-.33-.254-.33-.208,0-.34.142-.34.434v1.669h-.65v-1.772c0-.212-.071-.33-.255-.33-.207,0-.34.142-.34.434v1.669h-.65v-2.536Z"/>
      <path d="M54.895,49.722h.683l1.133,3.366h-.691l-.229-.749h-1.133l-.237.749h-.674l1.149-3.366ZM54.832,51.787h.784l-.382-1.235h-.008l-.395,1.235Z"/>
    </g>
    <g>
      <rect x="39.726" y="50.894" width="2.387" height=".35"/>
      <rect x="39.726" y="51.978" width=".512" height=".35"/>
      <rect x="41.601" y="51.978" width=".512" height=".35"/>
      <rect x="40.664" y="51.978" width=".512" height=".35"/>
    </g>
    <g>
      <path d="M5.485,57.104h-.01c.179.368.397.675.655.917-.067.095-.123.205-.165.33-.026.055-.047.082-.062.082s-.04-.024-.074-.072c-.169-.238-.297-.451-.384-.639.002.541.008,1.104.02,1.688.004.124.008.287.013.49,0,.091.002.143.002.157,0,.024-.003.04-.01.044-.007.006-.021.008-.044.008h-.424c-.027,0-.044-.004-.049-.01s-.008-.02-.008-.042c0-.015.003-.13.008-.347.015-.666.024-1.271.029-1.814-.143.404-.34.777-.591,1.118-.036.048-.062.073-.081.073-.021,0-.039-.026-.054-.078-.051-.156-.108-.279-.173-.37.385-.44.668-.952.852-1.535h-.13l-.539.009c-.026,0-.043-.002-.049-.009s-.008-.021-.008-.042v-.342c0-.025.003-.041.01-.045.007-.005.022-.008.047-.008l.539.01h.16v-.297c0-.285-.014-.508-.04-.668.166.004.339.017.52.037.058.006.086.022.086.049,0,.021-.01.056-.029.102-.028.051-.042.209-.042.475v.303h.024l.539-.01c.028,0,.045.004.05.01s.007.021.007.043v.342c0,.025-.003.039-.01.045-.007.004-.022.006-.047.006l-.539-.009ZM5.648,59.769c.287-.301.474-.664.561-1.092.079-.385.118-.996.118-1.836l-.01-.869c0-.028.003-.045.01-.052.007-.005.022-.007.047-.007l.482.01h.562l.486-.01c.03,0,.048.004.055.012.005.006.007.021.007.047l-.01.839v2.593c0,.079.009.125.025.138.022.016.064.023.125.023.067,0,.118-.022.152-.067.04-.051.06-.308.06-.771.097.088.204.15.322.188.059.02.094.035.104.047.013.012.02.035.02.07,0,.012,0,.031-.003.057-.006.27-.026.466-.062.588-.024.089-.062.158-.112.209-.108.092-.275.138-.5.138-.251,0-.416-.024-.495-.073-.093-.047-.14-.162-.14-.349v-3.211h-.63v.571c0,.916-.062,1.612-.188,2.089-.099.376-.258.692-.478.949-.059.062-.096.091-.11.091-.02,0-.052-.025-.096-.076-.086-.096-.187-.178-.303-.244Z"/>
      <path d="M9.959,57.045v-.574c-.146.032-.251.055-.317.065-.051.012-.084.017-.101.017-.024,0-.044-.011-.059-.032-.009-.014-.022-.046-.042-.1-.051-.11-.102-.196-.152-.258.447-.066.828-.162,1.142-.287.072-.025.146-.064.222-.115.113.096.211.189.295.281.028.031.042.061.042.086,0,.035-.027.055-.081.059-.028.002-.087.02-.178.053-.124.045-.223.078-.295.1v.706l.433-.009c.026,0,.042.002.047.009s.008.021.008.044v.34c0,.027-.004.043-.01.047-.007.006-.021.008-.045.008l-.394-.01c.113.247.286.49.52.729-.065.096-.121.195-.167.299-.021.055-.041.082-.064.082-.017,0-.04-.023-.071-.068-.102-.156-.193-.322-.273-.5.004.499.01.998.02,1.496.002.104.005.24.01.412.002.076.003.121.003.134,0,.024-.004.04-.013.044-.005.006-.02.008-.044.008h-.398c-.026,0-.042-.004-.047-.01s-.008-.02-.008-.042c0-.008.003-.11.008-.308.015-.572.023-1.122.027-1.646-.122.402-.29.76-.505,1.072-.029.043-.054.064-.071.064-.021,0-.041-.027-.06-.082-.062-.164-.121-.284-.177-.359.323-.383.561-.824.711-1.324h-.052l-.492.01c-.027,0-.044-.004-.049-.01s-.008-.021-.008-.045v-.34c0-.025.004-.041.01-.047.007-.004.022-.006.047-.006l.492.009h.138ZM12.645,58.575v.643l.01.846c0,.025-.004.04-.013.045-.005.004-.02.007-.044.007h-.418c-.026,0-.042-.003-.047-.009-.005-.007-.008-.021-.008-.043l.01-.846v-.643h-.568v.225c0,.025-.003.041-.009.047-.006.005-.021.008-.048.008h-.389c-.026,0-.042-.004-.047-.012-.005-.005-.008-.02-.008-.043l.011-.935v-.469l-.011-.673c0-.025.004-.039.011-.045.006-.004.021-.006.044-.006l.677.009h.337v-.255c0-.304-.014-.535-.042-.697.212.007.389.018.532.033.054.006.081.024.081.055,0,.023-.009.053-.027.091-.022.05-.034.22-.034.509v.265h.401l.677-.009c.025,0,.042.002.049.009.005.007.008.021.008.042l-.011.576v.547l.011.926c0,.023-.003.037-.009.043s-.022.008-.048.008h-.399c-.026,0-.042-.002-.047-.009s-.007-.021-.007-.042v-.197h-.625ZM12.135,58.14v-1.021h-.568v1.021h.568ZM12.645,58.14h.625v-1.021h-.625v1.021Z"/>
    </g>
    <g>
      <circle cx="15.036" cy="40.324" r=".377"/>
      <circle cx="15.036" cy="41.604" r=".377"/>
    </g>
    <g>
      <circle cx="25.113" cy="46.156" r=".377"/>
      <circle cx="25.113" cy="47.436" r=".377"/>
    </g>
    <g>
      <circle cx="24.858" cy="52.312" r=".377"/>
      <circle cx="24.858" cy="53.592" r=".377"/>
    </g>
    <g>
      <circle cx="15.234" cy="58.072" r=".377"/>
      <circle cx="15.234" cy="59.351" r=".377"/>
    </g>
    <g>
      <path d="M31.462,31.606c-8.849,0-16.048-5.68-16.048-12.662s7.199-12.662,16.048-12.662,16.048,5.68,16.048,12.662-7.199,12.662-16.048,12.662ZM31.462,7.229c-8.326,0-15.1,5.255-15.1,11.714s6.774,11.714,15.1,11.714,15.1-5.255,15.1-11.714-6.774-11.714-15.1-11.714Z"/>
      <g id="c">
        <path d="M33.604,25.85c-1.681,0-3.281-.659-4.514-1.863-1.345-1.313-2.099-3.099-2.121-5.028-.044-3.845,2.896-7.011,6.554-7.059l.028,2.167c-2.465.032-4.446,2.215-4.415,4.867.016,1.35.537,2.594,1.467,3.502.825.805,1.889,1.246,3.001,1.246.018,0,.036,0,.054,0l.028,2.167c-.028,0-.056,0-.083,0Z"/>
      </g>
      <g id="c1" data-name="c">
        <path d="M38.751,25.85c-1.681,0-3.281-.659-4.514-1.863-1.346-1.313-2.099-3.099-2.121-5.028-.044-3.845,2.896-7.011,6.554-7.059l.028,2.167c-2.465.032-4.446,2.215-4.416,4.867.016,1.35.537,2.594,1.467,3.502.825.805,1.889,1.246,3.001,1.246.018,0,.036,0,.054,0l.028,2.167c-.028,0-.056,0-.083,0Z"/>
      </g>
      <path d="M38.937,19.143c.006.367.364.462.688.462.338,0,.577-.123.577-.347,0-.186-.152-.264-.397-.304l-.484-.078c-.255-.04-.635-.138-.635-.537,0-.373.309-.623.855-.623.428,0,.88.149.909.643h-.316c-.027-.16-.123-.378-.635-.378-.233,0-.496.095-.496.335,0,.126.087.227.35.27l.523.086c.168.029.644.106.644.525,0,.522-.488.671-.918.671-.482,0-.981-.161-.981-.726h.317Z"/>
      <g id="c2" data-name="c">
        <path d="M28.458,25.85c-1.681,0-3.281-.659-4.514-1.863-1.345-1.313-2.099-3.099-2.121-5.028-.044-3.845,2.896-7.011,6.554-7.059l.028,2.167c-2.465.032-4.446,2.215-4.415,4.867.016,1.35.537,2.594,1.467,3.502.825.805,1.889,1.246,3.001,1.246.018,0,.036,0,.054,0l.028,2.167c-.028,0-.056,0-.083,0Z"/>
      </g>
    </g>
    <rect x="62.133" y="3.81" width="140.315" height="35.433" rx="2.66" ry="2.66"/>
    <g>
      <path d="M8.448,53.398c-.018.247-.058.424-.12.531-.062.106-.141.174-.235.201s-.326.041-.694.041c-.552,0-.881-.006-.987-.018s-.19-.055-.253-.129-.094-.198-.094-.371v-.654h-1.643v-2.327h1.643v-.673h.427v.673h1.607v2.327h-1.607v.668c0,.049.024.08.075.094.05.015.337.021.862.021.151,0,.271,0,.356,0,.086,0,.146-.042.184-.123.037-.082.059-.211.066-.39l.413.129ZM6.064,51.651v-.591h-1.205v.591h1.205ZM6.064,52.622v-.586h-1.205v.586h1.205ZM7.677,51.651v-.591h-1.186v.591h1.186ZM7.677,52.622v-.586h-1.186v.586h1.186Z"/>
      <path d="M9.332,51.258c.251.146.46.297.625.45.02.021.028.035.028.044,0,.013-.01.033-.03.062l-.201.293c-.021.029-.037.044-.05.044-.011,0-.024-.008-.04-.025-.162-.166-.369-.33-.621-.492-.021-.014-.032-.027-.032-.04,0-.014.009-.032.028-.056l.196-.266c.018-.021.034-.032.05-.032.012,0,.027.006.047.019ZM9.016,54.002c.082-.12.149-.246.201-.377.15-.367.271-.735.361-1.104.076.081.159.152.248.215.08.054.119.097.119.129,0,.018-.007.053-.021.105-.089.34-.21.689-.361,1.051-.036.094-.056.156-.059.188-.006.048-.023.072-.052.072-.021,0-.049-.01-.082-.028-.134-.076-.253-.16-.355-.251ZM9.468,50.034c.212.128.422.289.628.483.021.023.033.039.033.049,0,.011-.01.028-.028.052l-.216.293c-.025.029-.041.044-.049.044-.007,0-.02-.009-.038-.027-.188-.203-.397-.375-.626-.516-.021-.016-.032-.028-.032-.038,0-.008.012-.024.035-.052l.201-.265c.022-.026.04-.04.054-.04.008,0,.021.006.038.017ZM11.333,53.841c.127.011.232.017.316.017.07,0,.117-.012.141-.035.019-.021.028-.059.028-.113v-.953h-.159l-.565.009c-.026,0-.042-.003-.047-.009-.004-.007-.007-.021-.007-.045l.01-.445v-.736l-.01-.445c0-.026.003-.042.01-.047.006-.004.021-.007.044-.007l.57.01c.053-.135.098-.275.136-.422h-1.003v.745c0,.716-.04,1.275-.12,1.681-.084.43-.225.809-.422,1.137-.037.061-.066.091-.087.091-.02,0-.051-.027-.091-.082-.073-.094-.168-.178-.284-.253.223-.303.369-.658.441-1.066.061-.352.091-.849.091-1.493l-.009-1.155c0-.026.003-.042.009-.047.007-.005.021-.007.045-.007l.661.01h1.574l.659-.01c.028,0,.044.003.049.01.007.006.01.021.01.044v.354c0,.024-.004.039-.012.044-.007.005-.022.007-.047.007l-.659-.009h-.307c-.045.154-.095.295-.147.422h.302l.565-.01c.026,0,.042.003.047.01.005.006.007.021.007.044l-.01.445v.736l.01.445c0,.025-.003.04-.008.046-.006.005-.021.008-.046.008l-.565-.009h-.168v.431l.009.633c0,.197-.053.331-.159.403-.083.06-.246.092-.49.096-.079,0-.126-.007-.141-.021-.016-.013-.031-.054-.047-.122-.024-.123-.066-.235-.124-.335ZM10.613,53.897c.195-.225.338-.458.427-.7.038-.091.062-.179.073-.263.139.031.266.071.379.119.052.021.078.043.078.066,0,.027-.013.051-.038.067-.021.018-.044.059-.067.124-.111.281-.238.52-.38.715-.042.062-.074.092-.097.092-.012,0-.043-.019-.091-.057-.089-.071-.184-.126-.284-.164ZM12.61,51.415h-1.118v.298h1.118v-.298ZM12.61,52.385v-.328h-1.118v.328h1.118ZM13.412,53.822c-.097.048-.188.109-.274.185-.058.049-.091.073-.101.073-.016,0-.048-.034-.096-.102-.158-.219-.309-.498-.45-.839-.007-.017-.01-.028-.01-.035,0-.016.022-.031.065-.047l.266-.096c.024-.011.041-.017.049-.017.011,0,.021.015.033.045.129.318.302.596.518.832Z"/>
      <path d="M15.581,50.897h-.844c-.105.419-.199.767-.278,1.043h.267v-.815h.38v.815h.356v.385h-.356v.537c.144-.036.273-.074.39-.115l.077.385c-.192.058-.348.101-.467.129v.953h-.38v-.848c-.198.058-.418.108-.66.152l-.115-.373c.208-.039.467-.099.775-.178v-.643h-.675v-.37c.111-.335.209-.687.293-1.058h-.352v-.384h.437c.039-.153.074-.334.107-.542l.377.043c-.019.133-.049.299-.091.499h.759v.384ZM18.216,51.08l-.229.33c-.198-.106-.363-.204-.495-.293v.251h-1.319v-.221l-.412.284-.27-.308c.592-.386,1.018-.766,1.277-1.139l.389.119c-.006.018-.033.062-.082.136.242.291.623.57,1.142.84ZM16.823,53.826c0,.102-.022.182-.068.239-.047.058-.099.094-.156.108-.058.014-.168.021-.33.021l-.12-.394.206.007c.067,0,.102-.025.102-.077v-.37h-.403v.857h-.361v-2.606h1.132v2.215ZM16.456,52.317v-.321h-.403v.321h.403ZM16.456,52.999v-.33h-.403v.33h.403ZM17.335,51.012c-.166-.12-.335-.273-.507-.459-.144.152-.308.306-.492.459h.999ZM17.405,53.48h-.368v-1.763h.368v1.763ZM17.981,53.822c0,.262-.174.394-.522.394-.049,0-.117-.003-.206-.007l-.127-.403h.394c.062,0,.092-.034.092-.101v-2.154h.37v2.271Z"/>
      <path d="M18.788,53.822c.628-.31,1.111-.765,1.45-1.364.289-.515.448-1.095.479-1.741h-.596l-.478.009c-.028,0-.046-.003-.052-.009-.005-.007-.007-.021-.007-.043v-.405c0-.024.004-.04.012-.044.006-.005.021-.008.047-.008l.478.01h.614l.48-.01c.042,0,.063.02.063.057-.003.044-.005.085-.005.124,0,.101.011.237.033.41.151,1.317.773,2.307,1.867,2.968-.12.112-.215.233-.283.363-.037.073-.066.109-.087.109-.016,0-.052-.021-.11-.062-.857-.632-1.406-1.425-1.645-2.379-.14.526-.379,1.007-.718,1.441-.295.381-.646.696-1.05.946-.065.039-.103.059-.11.059-.019,0-.052-.038-.101-.114-.075-.125-.17-.23-.283-.316Z"/>
    </g>
    <g>
      <path d="M5.324,38.89h-.066v1.69c.239-.096.452-.189.638-.281,0,.04-.002.082-.002.126,0,.073.002.142.007.204.005.042.007.071.007.087,0,.034-.01.061-.03.079-.014.012-.048.031-.101.059-.394.185-.813.354-1.259.509-.096.038-.149.062-.162.073-.034.021-.06.032-.077.032-.021,0-.041-.022-.059-.067-.044-.108-.088-.26-.134-.455.185-.033.333-.068.445-.105l.228-.072v-1.878h-.049l-.495.012c-.024,0-.039-.003-.044-.009-.005-.007-.007-.021-.007-.045v-.365c0-.025.003-.04.009-.045.007-.005.021-.007.042-.007l.495.009h.614l.499-.009c.026,0,.042.003.047.009.005.007.007.021.007.043v.365c0,.026-.003.042-.01.047-.006.005-.021.007-.044.007l-.499-.012ZM7.82,39.549h-.701c-.049.545-.137.98-.265,1.305-.226.552-.654,1.013-1.287,1.383-.058.031-.095.047-.11.047-.023,0-.06-.033-.109-.101-.088-.114-.181-.204-.279-.271.656-.271,1.1-.686,1.331-1.245.112-.285.187-.658.221-1.117h-.192l-.623.009c-.025,0-.041-.003-.047-.009-.005-.007-.008-.021-.008-.043v-.37c0-.026.004-.042.01-.047s.021-.007.045-.007l.623.01h.216c.005-.101.007-.254.007-.462,0-.244-.012-.456-.035-.638.208.006.385.018.532.033.055.004.082.025.082.062,0,.018-.012.055-.035.11-.025.064-.038.226-.038.485,0,.092-.003.229-.009.408h.489l.629-.01c.039,0,.059.02.059.059-.007.111-.01.26-.01.445-.006.869-.055,1.554-.146,2.056-.07.399-.286.6-.646.6-.167,0-.291-.003-.37-.009-.08-.004-.127-.013-.141-.028-.013-.015-.023-.06-.033-.136-.025-.147-.062-.271-.11-.371.197.03.375.045.534.045.09,0,.155-.027.197-.082.041-.052.071-.138.092-.258.081-.486.124-1.104.129-1.854Z"/>
      <path d="M9.754,38.784l-.614.01c-.025,0-.04-.003-.045-.01-.005-.006-.007-.021-.007-.042v-.333c0-.026.003-.043.01-.049.004-.005.019-.007.042-.007l.614.009h1.157c0-.195-.012-.337-.035-.427.226.007.396.016.514.028.048.005.072.022.072.052,0,.014-.009.043-.028.087-.012.039-.019.126-.019.26h1.19l.609-.009c.028,0,.045.004.05.012.005.006.007.021.007.044v.333c0,.025-.003.04-.01.045-.006.004-.021.007-.047.007l-.609-.01h-1.492c.084.05.137.082.156.097.039.024.059.049.059.072,0,.018-.018.034-.054.052-.031.014-.064.043-.101.087-.092.117-.189.227-.293.33.021.018.095.085.223.204.041-.046.146-.166.316-.361.08-.099.143-.192.188-.283.141.079.258.159.352.239.034.031.052.057.052.077s-.021.04-.063.059c-.037.021-.093.069-.166.147-.229.261-.486.516-.773.764.18-.012.411-.035.695-.067-.04-.072-.087-.147-.141-.226-.009-.016-.014-.027-.014-.035,0-.011.018-.024.054-.042l.226-.119c.017-.01.029-.015.037-.015.011,0,.024.013.04.038.125.169.271.425.436.769.008.018.012.029.012.037,0,.013-.017.027-.049.045l-.261.139c-.019.011-.033.016-.044.016-.019,0-.034-.018-.047-.054l-.087-.216c-.341.052-.654.092-.939.12l.459.042c.049.006.072.025.072.059,0,.018-.009.045-.027.082-.013.028-.02.1-.02.216h1.271l.601-.01c.024,0,.039.003.044.01.003.005.005.019.005.042v.352c0,.025-.002.04-.007.045-.005.004-.019.007-.042.007l-.601-.01h-1.271v.321l.01.509c0,.024-.003.04-.01.047-.006.005-.021.007-.044.007h-.413c-.024,0-.039-.003-.044-.01-.005-.006-.007-.021-.007-.044l.009-.509v-.321h-1.219l-.6.01c-.033,0-.05-.018-.05-.052v-.352c0-.034.017-.052.05-.052l.6.01h1.219c0-.166-.01-.297-.03-.394-.205.02-.347.032-.427.037-.056.008-.114.024-.173.049-.031.013-.055.02-.07.02-.023,0-.043-.023-.059-.068-.027-.109-.047-.228-.062-.354-.071.047-.173.109-.305.189-.13.08-.224.138-.281.174-.075.04-.123.075-.146.105-.024.032-.048.049-.07.049-.029,0-.052-.014-.067-.042-.062-.122-.124-.265-.188-.429.089-.028.194-.071.316-.129.315-.152.568-.293.759-.422.012.059.04.146.087.262.022.067.033.106.033.117,0,.022-.022.049-.068.08l.194.007c.015,0,.031,0,.052-.002.093-.077.226-.198.398-.363-.206-.202-.421-.386-.645-.554-.021-.014-.032-.026-.032-.037,0-.013.008-.027.023-.045l.196-.206c.025-.028.045-.042.059-.042.01,0,.022.006.038.019l.129.097c.097-.116.168-.204.213-.266.021-.029.044-.07.07-.124h-1.104ZM9.543,38.918c.229.172.438.372.623.6.013.018.019.031.019.043,0,.016-.016.035-.047.059l-.265.206c-.023.021-.043.03-.059.03-.013,0-.025-.009-.037-.025-.171-.242-.363-.455-.579-.638-.018-.016-.026-.027-.026-.035,0-.01.014-.025.04-.047l.239-.188c.025-.019.042-.028.052-.028.011,0,.024.008.04.023ZM12.789,38.838c.152.116.268.208.344.277.025.026.038.055.038.086s-.024.053-.073.063c-.047.011-.102.042-.166.092-.148.117-.309.23-.48.34-.062.042-.103.063-.119.063-.027,0-.061-.034-.102-.102-.032-.053-.097-.123-.191-.211.173-.102.362-.237.566-.407.093-.085.153-.151.184-.202ZM12.465,39.811c.324.189.604.388.842.596.016.021.023.037.023.045,0,.014-.008.031-.023.051l-.246.27c-.021.025-.041.038-.061.038-.015,0-.032-.011-.055-.033-.228-.251-.48-.464-.759-.638-.022-.017-.033-.03-.033-.039,0-.008.012-.025.035-.052l.19-.218c.019-.023.034-.035.047-.035.008,0,.021.005.039.016Z"/>
      <path d="M19.876,41.301v-2.357h-.665v-.443h.062c.443,0,.717-.169.782-.537h.5v3.338h-.679Z"/>
      <path d="M22.91,40.866v.735h-.622v-.735h.622Z"/>
      <path d="M25.384,38.812c0-.255-.081-.405-.307-.405-.358,0-.415.358-.415.849v.165h.01c.112-.175.334-.288.627-.288.594,0,.815.443.815,1.042,0,.764-.335,1.193-1.08,1.193-.934,0-1.051-.745-1.051-1.561,0-.943.019-1.844,1.122-1.844.48,0,.919.203.929.849h-.65ZM25.067,40.924c.33,0,.368-.283.368-.66,0-.452-.104-.632-.368-.632-.269,0-.372.18-.372.632.004.382.057.66.372.66Z"/>
      <path d="M26.876,37.935h.65l.372,2.489h.01l.396-2.489h.65l.396,2.489h.01l.372-2.489h.651l-.613,3.366h-.759l-.377-2.442h-.01l-.377,2.442h-.76l-.612-3.366Z"/>
    </g>
    <g>
      <path d="M168.234,52.151h-1.3v1.862h.916c1.049,0,1.419-.236,1.419-.975,0-.606-.34-.887-1.034-.887h-.001Z"/>
      <g>
        <path d="M151.847,53.629h-.842l-.163.975h.887c.901,0,.916-.99.118-.975Z"/>
        <path d="M151.951,51.693h-.65l-.163.916h.709c.695,0,.828-.916.103-.916h0Z"/>
        <path d="M156.251,51.649c-.532-.236-1.197.236-1.463,1.049-.266.827-.059,1.685.473,1.921.532.236,1.197-.236,1.463-1.049.281-.813.074-1.67-.473-1.921Z"/>
      </g>
      <polygon points="137.914 53.126 138.534 53.126 138.342 52.166 137.914 53.126"/>
      <g>
        <path d="M197.75,50.221h-.002s-2.484,0-2.484,0v.389c-.456-.3-1.068-.451-1.826-.451-.718,0-1.286.12-1.741.351h-11.804v1.123l-1.433-1.123h-5.792l-.709,1.359-.798-1.374-8.718.015.458-.724h-6.945c-.517,0-1.034.148-1.492.443-.192.118-.355.251-.517.399-.443-.532-.901-.857-1.655-.857h-11.747l-.384,1.167-.192-1.153h-2.571l-.089.207-.251-.089c-1.345-.473-2.645-.31-3.871.443-1.271.783-1.877,2.024-1.714,3.576.089.931.68,1.758,1.566,2.231.65.325,1.374.429,2.098.31h2.29l.562-1.256.222,1.256,13.727-.015c.606,0,1.241-.31,1.714-.768.355.384.827.68,1.359.798.695.163,1.433.03,2.083-.369.029-.015.059-.044.089-.059l-.059.399h2.793l.074-.473c.295.015.547-.015.783-.251h7.24c1.315,0,2.113-.399,2.556-.901l.547.901h8.156v-1.138l1.463,1.138h11.002c.402.167.924.277,1.614.277.738,0,1.382-.156,1.914-.465v.377h2.374v-1.616h.035c2.477,0,2.997-1.119,2.997-2.058,0-.755-.38-2.02-2.922-2.02ZM144.209,55.58h-.001s-.133-3.045-.133-3.045l-1.315,3.044h-.68l-.561-2.748-.872,2.748h-1.714l-.251-1.478h-1.167l-.665,1.478h-1.064l.148-.34s-.015,0-.03.015c-1.581.901-3.428,0-3.576-1.433-.118-1.241.34-2.157,1.3-2.748.709-.429,1.773-.827,3.133-.355-.074.488-.163,1.005-.163,1.005-.709-.325-1.936-.222-2.645.399-.872.754-.68,1.581-.473,1.951.325.591,1.093.65,1.537.458l.089-.488h-.783l.148-.916h1.877l-.281,1.788,1.891-4.285h1.241l.665,3.99,1.3-3.99h1.005l.488,2.704,1.153-2.704h1.212l.192,4.95h-1.005ZM148.729,51.693h-1.772l-.133.872h1.552l-.163,1.064h-1.537l-.148.872h1.773l-.163,1.064h-2.822l.783-4.935h2.793l-.163,1.063ZM151.935,55.549h-2.275l.783-4.891h-.015s1.345-.015,1.891,0c.68.015,1.951,1.049.68,2.379,1.241,1.138-.133,2.512-1.064,2.512ZM157.802,53.614c-.31,1.359-1.478,2.261-2.601,1.995s-1.773-1.581-1.463-2.94c.31-1.359,1.478-2.246,2.601-1.995,1.108.266,1.773,1.581,1.463,2.94ZM160.137,55.638c-.295,0-.517-.221-.517-.517,0-.28.236-.502.517-.502.295,0,.517.221.517.502,0,.295-.236.517-.517.517ZM159.457,53.496l-.31,2.069h-1.02l.369-2.335-1.197-2.601h1.167l.621,1.611,1.005-1.611h1.182l-1.817,2.867ZM172.253,54.81h0s-.665,0-.665,0l-.03-.044-1.359-2.246c.044.163.074.34.074.547,0,1.153-.768,1.744-2.261,1.744h-2.852l-.03-.044-1.404-2.497-.99,1.788h.99v.768h-2.438l.089-.148,1.936-3.251.03-.044h.872l.03.044,1.699,2.807v-2.867h2.29c.694,0,1.226.177,1.581.517l-.222-.355-.089-.148h1.138l.03.044,1.286,2.202,1.197-2.202.03-.059h1.064l-.089.148-1.877,3.251-.03.044ZM181.666,54.823v.002h-.68l-.03-.03-2.586-2.054v2.083h-1.685l-.03-.059-1.404-2.497-.99,1.788h.99v.768h-2.453l.089-.163,1.936-3.236.03-.059h.872l.03.059,1.699,2.807v-2.867h.68l.03.03,2.586,2.024v-2.054h.916v3.458ZM185.892,52.653h-1.005v-.473h-1.936v1.817h1.936v-.532h1.005v.488c0,.65-.236.872-.946.872h-2.024c-.709,0-.946-.222-.946-.872v-1.714c0-.65.236-.872.946-.872h2.024c.709,0,.946.207.946.872v.414ZM189.94,54.825h-3.724v-3.458h3.679v.783h-2.689v.502h1.581v.754h-1.581v.606h2.734v.813ZM194.941,54.823h0c-.338.213-.852.401-1.591.401-1.19,0-1.804-.363-2.03-.852l.777-.063c.188.276.589.514,1.278.514.451,0,.777-.125,1.002-.263,0-.013.276-.163.276-.501,0-.351-.338-.514-.338-.514-.213-.1-.464-.175-1.115-.363-.689-.188-.977-.288-1.215-.426-.263-.15-.514-.388-.514-.777,0-.276.138-.539.476-.727.338-.2.827-.313,1.491-.313,1.065,0,1.641.351,1.829.827l-.764.05c-.15-.238-.464-.464-1.115-.464-.338,0-.677.063-.877.188-.175.1-.276.238-.276.413,0,.213.15.388.388.489.238.113.489.188,1.153.351.614.175.94.276,1.19.426.263.175.489.426.489.777,0,.313-.163.601-.514.827ZM197.672,53.519h.001s-.251,0-.251,0v-.426h.213c.99,0,1.428-.238,1.428-.852,0-.551-.414-.827-1.341-.827h-.865v3.721h-.814v-4.135h1.704c1.554,0,2.143.476,2.143,1.24,0,.915-.752,1.278-2.218,1.278Z"/>
        <path d="M160.137,54.691c-.237,0-.429.193-.429.429,0,.252.193.429.429.429s.414-.178.429-.429c0-.237-.192-.429-.429-.429ZM160.285,55.416l-.163-.251h-.118v.251h-.074v-.576h.251c.044,0,.089,0,.133.03.029.015.059.074.059.118,0,.118-.073.162-.176.163l.177.265h-.089Z"/>
        <path d="M160.3,54.988c0-.074-.059-.089-.133-.089h-.163v.192h.104c.074,0,.192.015.192-.103Z"/>
      </g>
      <g>
        <path d="M200.733,54.662h-.427v-.229h1.131v.229h-.431v1.269h-.274v-1.269h.001Z"/>
        <path d="M202.869,55.319c-.009-.193-.02-.427-.018-.629h-.007c-.049.182-.111.384-.177.573l-.22.649h-.209l-.2-.64c-.057-.191-.111-.396-.151-.582h-.004c-.007.195-.016.433-.027.638l-.034.602h-.255l.1-1.498h.36l.195.602c.054.175.1.353.138.52h.007c.041-.162.091-.347.149-.522l.206-.6h.355l.087,1.498h-.267l-.029-.611h0Z"/>
      </g>
    </g>
  </g>
    <g fill="#231f20" data-background="background" xml:space="preserve">
    <text class="barcode" transform="translate(74.439 25.02) scale(1 1.74)">*AB123456789*</text>
    <g transform="translate(95.876 35.284)">
      <text data-serial-part="prefix" class="serial" style="letter-spacing: -0.90pt;">AB</text>
      <text data-serial-part="middle" class="serial" x="13.81" textLength="57.85" transform="scale(.87 1)" lengthAdjust="spacingAndGlyphs">12345678</text>
      <text data-serial-part="suffix" class="serial" x="65.4" y="-0.16" textLength="7" lengthAdjust="spacingAndGlyphs">9</text>
    </g>
    <path d="M168.204,27.028v9.248h-6.654v-9.248h6.654M168.704,26.528h-7.654v10.248h7.654v-10.248h0Z"/>
  </g>
</svg>