<?xml version="1.0" encoding="UTF-8"?>
<svg id="Layer_1" xmlns="http://www.w3.org/2000/svg" width="156.801" height="49.084" version="1.1" xmlns:xlink="http://www.w3.org/1999/xlink" viewBox="0 0 156.801 49.084">
  <defs>
    <style type="text/css">
      <![CDATA[
        @font-face {
          font-family: "OCR-B";
          src: url('fonts/OCR-B.otf') format('opentype');
          font-weight: normal;
          font-style: normal;
        }
        @font-face {
          font-family: "Libre Barcode 39";
          src: url('fonts/LibreBarcode39-Regular.ttf') format('TrueType');
          font-weight: normal;
          font-style: normal;
        }
        .serial {
          font-family: "OCR-B", "OCR B Std";
          font-size: 10.285px;
          letter-spacing: -0.023em;
          text-transform: uppercase;
        }
        .barcode {
          font-family: "Libre Barcode 39";
          letter-spacing: 0;
          font-size: 19.993px;
          font-weight: 400;
          font-style: normal;
          text-transform: uppercase;
        }
      ]]>
    </style>
    <clipPath id="clippath">
      <rect x="109.871" y="35.14" width="8.504" height="9.866" fill="none"/>
    </clipPath>
  </defs>
  <g>
    <rect x=".306" y=".306" width="156.189" height="48.472" rx="3.685" ry="3.685" fill="#fff" data-background="background"/>
    <rect x=".306" y=".306" width="156.189" height="48.472" rx="3.685" ry="3.685" fill="none" stroke="#a8a8ab" stroke-width="0.25pt" stroke-dasharray="0.9pt" data-stroke="stroke"/>
  </g>
  <g fill="#000" data-foreground="foreground">
    <g clip-path="url(#clippath)">
      <g>
        <circle cx="109.793" cy="35.384" r=".189"/>
        <circle cx="109.793" cy="36.556" r=".189"/>
        <circle cx="110.335" cy="35.97" r=".189"/>
        <circle cx="109.793" cy="37.728" r=".189"/>
        <circle cx="110.335" cy="38.314" r=".189"/>
        <circle cx="109.793" cy="38.901" r=".189"/>
        <circle cx="110.335" cy="39.487" r=".189"/>
        <circle cx="109.793" cy="40.073" r=".189"/>
        <circle cx="110.335" cy="40.659" r=".189"/>
        <circle cx="109.793" cy="42.417" r=".189"/>
        <circle cx="110.335" cy="41.831" r=".189"/>
        <circle cx="109.793" cy="44.762" r=".189"/>
        <circle cx="110.335" cy="43.004" r=".189"/>
        <circle cx="109.793" cy="43.59" r=".189"/>
        <circle cx="110.335" cy="44.176" r=".189"/>
        <circle cx="109.793" cy="41.245" r=".189"/>
        <circle cx="110.878" cy="35.384" r=".189"/>
        <path d="M110.878,36.368c-.105,0-.19.084-.19.188,0,.104.085.188.19.188s.19-.084.19-.188-.085-.188-.19-.188Z"/>
        <path d="M110.878,37.54c-.105,0-.19.084-.19.188s.085.188.19.188.19-.084.19-.188-.085-.188-.19-.188Z"/>
        <circle cx="110.878" cy="38.901" r=".189"/>
        <circle cx="110.878" cy="40.073" r=".189"/>
        <circle cx="110.878" cy="42.417" r=".189"/>
        <circle cx="110.878" cy="44.762" r=".189"/>
        <circle cx="110.878" cy="43.59" r=".189"/>
        <circle cx="110.878" cy="41.245" r=".189"/>
        <circle cx="110.335" cy="37.142" r=".189"/>
        <circle cx="111.421" cy="35.97" r=".189"/>
        <circle cx="111.421" cy="38.314" r=".189"/>
        <circle cx="111.421" cy="39.487" r=".189"/>
        <circle cx="111.421" cy="40.659" r=".189"/>
        <circle cx="111.421" cy="41.831" r=".189"/>
        <circle cx="111.421" cy="43.004" r=".189"/>
        <circle cx="111.421" cy="44.176" r=".189"/>
        <circle cx="111.963" cy="35.384" r=".189"/>
        <circle cx="111.963" cy="36.556" r=".189"/>
        <circle cx="111.963" cy="37.728" r=".189"/>
        <circle cx="111.963" cy="38.901" r=".189"/>
        <path d="M111.963,39.884c-.105,0-.19.084-.19.188,0,.104.085.188.19.188s.19-.084.19-.188-.085-.188-.19-.188Z"/>
        <circle cx="111.963" cy="42.417" r=".189"/>
        <circle cx="111.963" cy="44.762" r=".189"/>
        <path d="M111.963,43.401c-.105,0-.19.084-.19.188,0,.104.085.188.19.188s.19-.084.19-.188-.085-.188-.19-.188Z"/>
        <circle cx="111.963" cy="41.245" r=".189"/>
        <circle cx="111.421" cy="37.142" r=".189"/>
        <circle cx="112.506" cy="35.97" r=".189"/>
        <circle cx="112.506" cy="38.314" r=".189"/>
        <circle cx="112.506" cy="39.487" r=".189"/>
        <circle cx="112.506" cy="40.659" r=".189"/>
        <circle cx="112.506" cy="41.831" r=".189"/>
        <circle cx="112.506" cy="43.004" r=".189"/>
        <circle cx="112.506" cy="44.176" r=".189"/>
        <path d="M113.049,35.195c-.105,0-.19.084-.19.188s.085.188.19.188.19-.084.19-.188-.085-.188-.19-.188Z"/>
        <path d="M113.049,36.368c-.105,0-.19.084-.19.188,0,.104.085.188.19.188s.19-.084.19-.188-.085-.188-.19-.188Z"/>
        <path d="M113.049,37.54c-.105,0-.19.084-.19.188,0,.104.085.188.19.188s.19-.084.19-.188-.085-.188-.19-.188Z"/>
        <path d="M113.049,38.712c-.105,0-.19.084-.19.188,0,.104.085.188.19.188s.19-.084.19-.188-.085-.188-.19-.188Z"/>
        <path d="M113.049,39.884c-.105,0-.19.084-.19.188,0,.104.085.188.19.188s.19-.084.19-.188-.085-.188-.19-.188Z"/>
        <circle cx="113.049" cy="42.417" r=".189"/>
        <path d="M113.049,44.573c-.105,0-.19.084-.19.188,0,.104.085.188.19.188s.19-.084.19-.188-.085-.188-.19-.188Z"/>
        <circle cx="113.049" cy="43.59" r=".189"/>
        <path d="M113.049,41.057c-.105,0-.19.084-.19.188,0,.104.085.188.19.188s.19-.084.19-.188-.085-.188-.19-.188Z"/>
        <circle cx="112.506" cy="37.142" r=".189"/>
        <circle cx="113.591" cy="35.97" r=".189"/>
        <circle cx="113.591" cy="38.314" r=".189"/>
        <circle cx="113.591" cy="39.487" r=".189"/>
        <circle cx="113.591" cy="40.659" r=".189"/>
        <circle cx="113.591" cy="41.831" r=".189"/>
        <circle cx="113.591" cy="43.004" r=".189"/>
        <circle cx="113.591" cy="44.176" r=".189"/>
        <circle cx="114.134" cy="35.384" r=".189"/>
        <circle cx="114.134" cy="36.556" r=".189"/>
        <path d="M114.134,37.54c-.105,0-.19.084-.19.188s.085.188.19.188.19-.084.19-.188-.085-.188-.19-.188Z"/>
        <path d="M114.134,38.712c-.105,0-.19.084-.19.188,0,.104.085.188.19.188s.19-.084.19-.188-.085-.188-.19-.188Z"/>
        <circle cx="114.134" cy="40.073" r=".189"/>
        <circle cx="114.134" cy="42.417" r=".189"/>
        <circle cx="114.134" cy="44.762" r=".189"/>
        <path d="M114.134,43.401c-.105,0-.19.084-.19.188,0,.104.085.188.19.188s.19-.084.19-.188-.085-.188-.19-.188Z"/>
        <circle cx="114.134" cy="41.245" r=".189"/>
        <circle cx="113.591" cy="37.142" r=".189"/>
        <circle cx="114.677" cy="35.97" r=".189"/>
        <circle cx="114.677" cy="38.314" r=".189"/>
        <circle cx="114.677" cy="39.487" r=".189"/>
        <circle cx="114.677" cy="40.659" r=".189"/>
        <circle cx="114.677" cy="41.831" r=".189"/>
        <circle cx="114.677" cy="43.004" r=".189"/>
        <circle cx="114.677" cy="44.176" r=".189"/>
        <path d="M115.219,35.195c-.105,0-.19.084-.19.188s.085.188.19.188.19-.084.19-.188-.085-.188-.19-.188Z"/>
        <path d="M115.219,36.368c-.105,0-.19.084-.19.188s.085.188.19.188.19-.084.19-.188-.085-.188-.19-.188Z"/>
        <circle cx="115.219" cy="37.728" r=".189"/>
        <circle cx="115.219" cy="38.901" r=".189"/>
        <circle cx="115.219" cy="40.073" r=".189"/>
        <circle cx="115.219" cy="42.417" r=".189"/>
        <path d="M115.219,44.573c-.105,0-.19.084-.19.188,0,.104.085.188.19.188s.19-.084.19-.188-.085-.188-.19-.188Z"/>
        <path d="M115.219,43.401c-.105,0-.19.084-.19.188,0,.104.085.188.19.188s.19-.084.19-.188-.085-.188-.19-.188Z"/>
        <path d="M115.219,41.057c-.105,0-.19.084-.19.188,0,.104.085.188.19.188s.19-.084.19-.188-.085-.188-.19-.188Z"/>
        <circle cx="114.677" cy="37.142" r=".189"/>
        <circle cx="115.762" cy="35.97" r=".189"/>
        <circle cx="115.762" cy="38.314" r=".189"/>
        <circle cx="115.762" cy="39.487" r=".189"/>
        <circle cx="115.762" cy="40.659" r=".189"/>
        <circle cx="115.762" cy="41.831" r=".189"/>
        <circle cx="115.762" cy="43.004" r=".189"/>
        <circle cx="115.762" cy="44.176" r=".189"/>
        <path d="M116.305,35.195c-.105,0-.19.084-.19.188,0,.104.085.188.19.188s.19-.084.19-.188-.085-.188-.19-.188Z"/>
        <path d="M116.305,36.368c-.105,0-.19.084-.19.188,0,.104.085.188.19.188s.19-.084.19-.188-.085-.188-.19-.188Z"/>
        <path d="M116.305,37.54c-.105,0-.19.084-.19.188,0,.104.085.188.19.188s.19-.084.19-.188-.085-.188-.19-.188Z"/>
        <path d="M116.305,38.712c-.105,0-.19.084-.19.188,0,.104.085.188.19.188s.19-.084.19-.188-.085-.188-.19-.188Z"/>
        <path d="M116.305,39.884c-.105,0-.19.084-.19.188,0,.104.085.188.19.188s.19-.084.19-.188-.085-.188-.19-.188Z"/>
        <circle cx="116.305" cy="42.417" r=".189"/>
        <path d="M116.305,44.573c-.105,0-.19.084-.19.188,0,.104.085.188.19.188s.19-.084.19-.188-.085-.188-.19-.188Z"/>
        <path d="M116.305,43.401c-.105,0-.19.084-.19.188,0,.104.085.188.19.188s.19-.084.19-.188-.085-.188-.19-.188Z"/>
        <path d="M116.305,41.057c-.105,0-.19.084-.19.188,0,.104.085.188.19.188s.19-.084.19-.188-.085-.188-.19-.188Z"/>
        <circle cx="115.762" cy="37.142" r=".189"/>
        <circle cx="116.847" cy="35.97" r=".189"/>
        <circle cx="116.847" cy="38.314" r=".189"/>
        <circle cx="116.847" cy="39.487" r=".189"/>
        <circle cx="116.847" cy="40.659" r=".189"/>
        <circle cx="116.847" cy="41.831" r=".189"/>
        <circle cx="116.847" cy="43.004" r=".189"/>
        <circle cx="116.847" cy="44.176" r=".189"/>
        <circle cx="117.39" cy="35.384" r=".189"/>
        <circle cx="117.39" cy="36.556" r=".189"/>
        <path d="M117.39,37.54c-.105,0-.19.084-.19.188s.085.188.19.188.19-.084.19-.188-.085-.188-.19-.188Z"/>
        <circle cx="117.39" cy="38.901" r=".189"/>
        <circle cx="117.39" cy="40.073" r=".189"/>
        <circle cx="117.39" cy="42.417" r=".189"/>
        <path d="M117.39,44.573c-.105,0-.19.084-.19.188s.085.188.19.188.19-.084.19-.188-.085-.188-.19-.188Z"/>
        <circle cx="117.39" cy="43.59" r=".189"/>
        <path d="M117.39,41.057c-.105,0-.19.084-.19.188,0,.104.085.188.19.188s.19-.084.19-.188-.085-.188-.19-.188Z"/>
        <circle cx="116.847" cy="37.142" r=".189"/>
        <circle cx="117.933" cy="35.97" r=".189"/>
        <circle cx="117.933" cy="38.314" r=".189"/>
        <circle cx="117.933" cy="39.487" r=".189"/>
        <circle cx="117.933" cy="40.659" r=".189"/>
        <circle cx="117.933" cy="41.831" r=".189"/>
        <circle cx="117.933" cy="43.004" r=".189"/>
        <circle cx="117.933" cy="44.176" r=".189"/>
        <circle cx="118.475" cy="35.384" r=".189"/>
        <circle cx="118.475" cy="36.556" r=".189"/>
        <path d="M118.475,37.54c-.105,0-.19.084-.19.188,0,.104.085.188.19.188s.19-.084.19-.188-.085-.188-.19-.188Z"/>
        <circle cx="118.475" cy="38.901" r=".189"/>
        <path d="M118.475,39.884c-.105,0-.19.084-.19.188,0,.104.085.188.19.188s.19-.084.19-.188-.085-.188-.19-.188Z"/>
        <circle cx="118.475" cy="42.417" r=".189"/>
        <circle cx="118.475" cy="44.762" r=".189"/>
        <path d="M118.475,43.401c-.105,0-.19.084-.19.188,0,.104.085.188.19.188s.19-.084.19-.188-.085-.188-.19-.188Z"/>
        <path d="M118.475,41.057c-.105,0-.19.084-.19.188,0,.104.085.188.19.188s.19-.084.19-.188-.085-.188-.19-.188Z"/>
        <circle cx="117.933" cy="37.142" r=".189"/>
      </g>
    </g>
    <g xml:space="preserve">
      <text transform="translate(38.854 43.833)" class="serial" data-serial-part="numbers">MG123456789</text>
      <g transform="translate(16.322 33.471) scale(1 2.019)">
        <text class="barcode">*MG123456789*</text>
      </g>
    </g>
  </g>
</svg>