<?xml version="1.0" encoding="UTF-8"?>
<svg id="Layer_1" xmlns="http://www.w3.org/2000/svg" width="34.088mm" height="9.188mm" version="1.1" viewBox="0 0 96.628 26.045">
  <g fill="#404041" data-background="background">
    <rect x=".125" y=".125" width="96.378" height="25.795" rx="3.969" ry="3.969"/>
  </g>
  <g fill="none" stroke="none" stroke-width="0.25pt" stroke-dasharray="0.9pt" data-stroke="stroke">
    <rect x=".125" y=".125" width="96.378" height="25.795" rx="3.969" ry="3.969"/>
  </g>
  <g fill="#fff" data-foreground="foreground">
    <g>
      <path d="M9.428,3.17h.616l.626,2.541h.01l.698-2.541h.621l.68,2.541h.01l.646-2.541h.616l-.956,3.323h-.616l-.694-2.541h-.01l-.708,2.541h-.626l-.912-3.323h-.001Z"/>
      <path d="M15.156,3.17h.645l1.335,3.323h-.65l-.325-.879h-1.383l-.325.879h-.626l1.33-3.323h-.001ZM14.942,5.171h1.058l-.519-1.429h-.015s-.524,1.429-.524,1.429Z"/>
      <path d="M17.468,3.17h1.654c.757,0,1.146.335,1.146.898,0,.638-.461.801-.573.838v.009c.209.028.515.177.515.703,0,.386.059.74.189.875h-.65c-.092-.144-.092-.326-.092-.489,0-.609-.132-.879-.689-.879h-.893v1.368h-.606v-3.323h0ZM18.074,4.683h.994c.384,0,.592-.181.592-.53,0-.424-.286-.507-.602-.507h-.984v1.038h0Z"/>
      <path d="M20.861,3.17h.641l1.581,2.448h.01v-2.448h.578v3.323h-.641l-1.577-2.443h-.015v2.443h-.577v-3.323Z"/>
      <path d="M24.391,3.17h.606v3.323h-.606v-3.323Z"/>
      <path d="M25.717,3.17h.641l1.581,2.448h.01v-2.448h.578v3.323h-.641l-1.577-2.443h-.015v2.443h-.577v-3.323Z"/>
      <path d="M32.268,6.493h-.388l-.093-.391c-.325.354-.621.47-1.043.47-1.038,0-1.659-.791-1.659-1.741s.621-1.74,1.659-1.74c.757,0,1.393.386,1.484,1.135h-.592c-.058-.438-.456-.661-.893-.661-.742,0-1.053.628-1.053,1.266s.311,1.266,1.053,1.266c.621.009.961-.349.971-.912h-.922v-.442h1.475v1.75h0Z"/>
      <path d="M32.897,4.138h.675v.628h-.675s0-.628,0-.628ZM32.897,5.865h.675v.628h-.675v-.628Z"/>
      <path d="M35.631,3.17h1.654c.757,0,1.146.335,1.146.898,0,.638-.461.801-.573.838v.009c.209.028.515.177.515.703,0,.386.059.74.189.875h-.65c-.092-.144-.092-.326-.092-.489,0-.609-.132-.879-.689-.879h-.893v1.368h-.606v-3.323h0ZM36.237,4.683h.994c.384,0,.593-.181.593-.53,0-.424-.287-.507-.603-.507h-.984v1.038h0Z"/>
      <path d="M39.049,3.17h2.494v.502h-1.888v.87h1.746v.475h-1.746v.973h1.921v.502h-2.527v-3.323h0Z"/>
      <path d="M43.034,3.17h.646l1.334,3.323h-.65l-.325-.879h-1.383l-.325.879h-.626l1.33-3.323h0ZM42.82,5.171h1.058l-.519-1.429h-.015l-.524,1.429Z"/>
      <path d="M45.347,3.17h1.436c1.067,0,1.529.745,1.529,1.661s-.462,1.662-1.529,1.662h-1.436v-3.323ZM45.953,6.019h.597c.951,0,1.154-.521,1.154-1.187s-.203-1.187-1.154-1.187h-.597v2.374Z"/>
      <path d="M49.871,3.17h2.805v.502h-1.102v2.82h-.606v-2.82h-1.097s0-.502,0-.502Z"/>
      <path d="M53.065,3.17h.606v1.322h1.577v-1.322h.606v3.323h-.606v-1.499h-1.577v1.499h-.606v-3.323Z"/>
      <path d="M56.586,3.17h2.494v.502h-1.888v.87h1.746v.475h-1.746v.973h1.921v.502h-2.527v-3.323h0Z"/>
      <path d="M60.994,3.17h.606v3.323h-.606v-3.323Z"/>
      <path d="M62.319,3.17h.641l1.581,2.448h.01v-2.448h.578v3.323h-.641l-1.577-2.443h-.015v2.443h-.577s0-3.323,0-3.323Z"/>
      <path d="M66.247,5.386c0,.512.394.712.878.712.534,0,.733-.251.733-.503,0-.256-.146-.358-.286-.409-.243-.088-.559-.149-1.034-.275-.592-.153-.767-.498-.767-.842,0-.666.641-.977,1.267-.977.723,0,1.329.368,1.329,1.061h-.606c-.028-.428-.33-.586-.747-.586-.281,0-.636.098-.636.433,0,.233.165.363.413.428.053.014.819.205.999.256.456.13.675.503.675.847,0,.745-.689,1.042-1.378,1.042-.791,0-1.432-.363-1.446-1.187,0,0,.606,0,.606,0Z"/>
      <path d="M68.666,3.17h2.805v.502h-1.102v2.82h-.606v-2.82h-1.097s0-.502,0-.502Z"/>
      <path d="M71.875,3.17h1.654c.757,0,1.146.335,1.146.898,0,.638-.461.801-.573.838v.009c.209.028.515.177.515.703,0,.386.059.74.189.875h-.65c-.092-.144-.092-.326-.092-.489,0-.609-.132-.879-.689-.879h-.893v1.368h-.606v-3.323h0ZM72.481,4.683h.994c.384,0,.593-.181.593-.53,0-.424-.287-.507-.603-.507h-.984v1.038h0Z"/>
      <path d="M75.254,3.17h.606v1.936c0,.447.029.963.815.963s.814-.517.814-.963v-1.936h.607v2.126c0,.852-.568,1.275-1.422,1.275s-1.422-.423-1.422-1.275v-2.126h.002Z"/>
      <path d="M81.137,4.227c-.103-.381-.359-.661-.864-.661-.742,0-1.053.628-1.053,1.266s.311,1.266,1.053,1.266c.539,0,.835-.386.883-.871h.593c-.049.796-.636,1.345-1.476,1.345-1.038,0-1.659-.791-1.659-1.741s.621-1.74,1.659-1.74c.781.004,1.397.418,1.471,1.135h-.607Z"/>
      <path d="M81.973,3.17h2.805v.502h-1.102v2.82h-.606v-2.82h-1.097s0-.502,0-.502Z"/>
      <path d="M85.182,3.17h.606v3.323h-.606v-3.323Z"/>
      <path d="M89.666,4.832c0,.95-.621,1.741-1.659,1.741s-1.659-.791-1.659-1.741.621-1.74,1.659-1.74,1.659.791,1.659,1.74ZM86.954,4.832c0,.638.311,1.266,1.053,1.266s1.053-.628,1.053-1.266-.311-1.266-1.053-1.266-1.053.628-1.053,1.266Z"/>
      <path d="M90.198,3.17h.641l1.581,2.448h.01v-2.448h.578v3.323h-.641l-1.577-2.443h-.015v2.443h-.577v-3.323Z"/>
      <path d="M11.54,8.82h1.684c.621,0,1.028.271,1.028.824,0,.335-.18.577-.495.707v.01c.423.088.65.404.65.856,0,.521-.378.926-1.276.926h-1.591v-3.323ZM12.146,10.211h.989c.291,0,.51-.163.51-.461,0-.335-.18-.456-.51-.456h-.989v.917ZM12.146,11.668h1.072c.368,0,.582-.19.582-.526,0-.325-.214-.512-.582-.512h-1.072v1.038Z"/>
      <path d="M18.092,10.482c0,.949-.621,1.74-1.659,1.74s-1.659-.791-1.659-1.74.621-1.741,1.659-1.741,1.659.791,1.659,1.741ZM15.38,10.482c0,.638.311,1.266,1.053,1.266s1.053-.628,1.053-1.266-.311-1.267-1.053-1.267-1.053.629-1.053,1.267Z"/>
      <path d="M21.782,10.482c0,.949-.621,1.74-1.659,1.74s-1.659-.791-1.659-1.74.621-1.741,1.659-1.741,1.659.791,1.659,1.741ZM19.07,10.482c0,.638.311,1.266,1.053,1.266s1.053-.628,1.053-1.266-.311-1.267-1.053-1.267-1.053.629-1.053,1.267Z"/>
      <path d="M22.338,8.82h.606v1.513l1.543-1.513h.747l-1.383,1.327,1.479,1.996h-.757l-1.135-1.587-.495.47v1.117h-.606v-3.323h.001Z"/>
      <path d="M25.664,8.82h.606v2.82h1.761v.503h-2.367v-3.323Z"/>
      <path d="M28.45,8.82h2.494v.503h-1.888v.87h1.746v.475h-1.746v.973h1.921v.503h-2.527v-3.323h0Z"/>
      <path d="M31.18,8.82h2.805v.503h-1.102v2.82h-.606v-2.82h-1.097v-.503Z"/>
      <path d="M35.738,8.82h1.684c.621,0,1.028.271,1.028.824,0,.335-.18.577-.495.707v.01c.423.088.65.404.65.856,0,.521-.378.926-1.276.926h-1.591v-3.323ZM36.345,10.211h.989c.291,0,.51-.163.51-.461,0-.335-.18-.456-.51-.456h-.989v.917ZM36.345,11.668h1.072c.368,0,.582-.19.582-.526,0-.325-.214-.512-.582-.512h-1.072v1.038Z"/>
      <path d="M39.156,8.82h2.494v.503h-1.888v.87h1.746v.475h-1.746v.973h1.921v.503h-2.527v-3.323h0Z"/>
      <path d="M42.215,8.82h2.392v.503h-1.785v.87h1.567v.475h-1.567v1.476h-.606v-3.323h0Z"/>
      <path d="M48.227,10.482c0,.949-.621,1.74-1.659,1.74s-1.659-.791-1.659-1.74.621-1.741,1.659-1.741,1.659.791,1.659,1.741ZM45.515,10.482c0,.638.311,1.266,1.053,1.266s1.053-.628,1.053-1.266-.311-1.267-1.053-1.267-1.053.629-1.053,1.267Z"/>
      <path d="M48.784,8.82h1.654c.757,0,1.146.335,1.146.898,0,.638-.461.801-.573.838v.009c.209.028.515.178.515.703,0,.387.059.74.189.875h-.65c-.092-.145-.092-.326-.092-.488,0-.61-.132-.88-.689-.88h-.893v1.368h-.606v-3.323h0ZM49.39,10.333h.994c.384,0,.592-.182.592-.53,0-.424-.286-.508-.602-.508h-.984s0,1.038,0,1.038Z"/>
      <path d="M52.202,8.82h2.494v.503h-1.888v.87h1.746v.475h-1.746v.973h1.921v.503h-2.527v-3.323h0Z"/>
      <path d="M57.008,11.036c0,.512.394.712.878.712.534,0,.733-.251.733-.503,0-.256-.146-.358-.286-.409-.243-.089-.559-.149-1.034-.274-.592-.154-.767-.498-.767-.843,0-.665.641-.978,1.267-.978.723,0,1.329.368,1.329,1.062h-.606c-.029-.429-.33-.587-.747-.587-.281,0-.636.098-.636.434,0,.232.165.362.413.428.053.014.819.205.999.256.456.131.675.503.675.848,0,.744-.689,1.042-1.378,1.042-.791,0-1.432-.363-1.446-1.187h.606Z"/>
      <path d="M59.757,8.82h2.494v.503h-1.888v.87h1.746v.475h-1.746v.973h1.921v.503h-2.527v-3.323h0Z"/>
      <path d="M62.485,8.82h2.805v.503h-1.102v2.82h-.606v-2.82h-1.097s0-.503,0-.503Z"/>
      <path d="M65.655,8.82h.606v1.937c0,.446.029.963.815.963s.814-.517.814-.963v-1.937h.607v2.127c0,.852-.568,1.275-1.422,1.275s-1.422-.424-1.422-1.275v-2.127h.002Z"/>
      <path d="M69.2,8.82h1.528c.989,0,1.179.614,1.179,1.029,0,.409-.189,1.023-1.179,1.019h-.922v1.275h-.606v-3.323ZM69.806,10.393h.888c.271,0,.606-.13.606-.549,0-.438-.276-.55-.597-.55h-.897v1.099Z"/>
      <path d="M76.922,10.482c0,.949-.621,1.74-1.659,1.74s-1.659-.791-1.659-1.74.621-1.741,1.659-1.741,1.659.791,1.659,1.741ZM74.21,10.482c0,.638.311,1.266,1.053,1.266s1.053-.628,1.053-1.266-.311-1.267-1.053-1.267-1.053.629-1.053,1.267Z"/>
      <path d="M77.478,8.82h1.654c.757,0,1.146.335,1.146.898,0,.638-.461.801-.573.838v.009c.209.028.515.178.515.703,0,.387.059.74.189.875h-.65c-.092-.145-.092-.326-.092-.488,0-.61-.132-.88-.689-.88h-.893v1.368h-.606v-3.323h0ZM78.085,10.333h.994c.384,0,.593-.182.593-.53,0-.424-.287-.508-.603-.508h-.984s0,1.038,0,1.038Z"/>
      <path d="M82.207,8.82h.606v1.937c0,.446.029.963.815.963s.814-.517.814-.963v-1.937h.607v2.127c0,.852-.568,1.275-1.422,1.275s-1.422-.424-1.422-1.275v-2.127h.002Z"/>
      <path d="M86.148,11.036c0,.512.394.712.878.712.534,0,.733-.251.733-.503,0-.256-.146-.358-.286-.409-.243-.089-.559-.149-1.034-.274-.592-.154-.767-.498-.767-.843,0-.665.641-.978,1.267-.978.723,0,1.329.368,1.329,1.062h-.606c-.029-.429-.33-.587-.747-.587-.281,0-.636.098-.636.434,0,.232.165.362.413.428.053.014.819.205.999.256.456.131.675.503.675.848,0,.744-.689,1.042-1.378,1.042-.791,0-1.432-.363-1.446-1.187h.606,0Z"/>
      <path d="M88.897,8.82h2.494v.503h-1.888v.87h1.746v.475h-1.746v.973h1.921v.503h-2.527v-3.323h0Z"/>
      <path d="M34.286,16.132c0,.949-.621,1.74-1.659,1.74s-1.659-.791-1.659-1.74.621-1.741,1.659-1.741,1.659.791,1.659,1.741ZM31.574,16.132c0,.638.311,1.266,1.053,1.266s1.053-.628,1.053-1.266-.311-1.267-1.053-1.267-1.053.629-1.053,1.267Z"/>
      <path d="M34.843,14.47h2.392v.503h-1.785v.87h1.567v.475h-1.567v1.476h-.606v-3.323h0Z"/>
      <path d="M38.741,14.47h2.805v.503h-1.102v2.82h-.606v-2.82h-1.097v-.503Z"/>
      <path d="M41.935,14.47h.606v1.322h1.577v-1.322h.606v3.323h-.606v-1.499h-1.577v1.499h-.606s0-3.323,0-3.323Z"/>
      <path d="M45.456,14.47h.606v3.323h-.606s0-3.323,0-3.323Z"/>
      <path d="M47.203,16.686c0,.512.394.712.878.712.534,0,.733-.251.733-.503,0-.256-.146-.358-.286-.409-.243-.089-.559-.149-1.034-.274-.592-.154-.767-.498-.767-.843,0-.665.641-.978,1.267-.978.723,0,1.329.368,1.329,1.062h-.606c-.029-.429-.33-.587-.747-.587-.281,0-.636.098-.636.434,0,.232.165.362.413.428.053.014.819.205.999.256.456.131.675.503.675.848,0,.744-.689,1.042-1.378,1.042-.791,0-1.432-.363-1.446-1.187h.606Z"/>
      <path d="M51.699,16.686c0,.512.394.712.878.712.534,0,.733-.251.733-.503,0-.256-.146-.358-.286-.409-.243-.089-.559-.149-1.034-.274-.592-.154-.767-.498-.767-.843,0-.665.641-.978,1.267-.978.723,0,1.329.368,1.329,1.062h-.606c-.029-.429-.33-.587-.747-.587-.281,0-.636.098-.636.434,0,.232.165.362.413.428.053.014.819.205.999.256.456.131.675.503.675.848,0,.744-.689,1.042-1.378,1.042-.791,0-1.432-.363-1.446-1.187h.606Z"/>
      <path d="M55.349,16.491l-1.301-2.021h.704l.917,1.489.902-1.489h.68l-1.296,2.021v1.303h-.606v-1.303Z"/>
      <path d="M57.991,16.686c0,.512.394.712.878.712.534,0,.733-.251.733-.503,0-.256-.146-.358-.286-.409-.243-.089-.559-.149-1.034-.274-.592-.154-.767-.498-.767-.843,0-.665.641-.978,1.267-.978.723,0,1.329.368,1.329,1.062h-.606c-.028-.429-.33-.587-.747-.587-.281,0-.636.098-.636.434,0,.232.165.362.413.428.053.014.819.205.999.256.456.131.675.503.675.848,0,.744-.689,1.042-1.378,1.042-.791,0-1.432-.363-1.446-1.187h.606Z"/>
      <path d="M60.41,14.47h2.805v.503h-1.102v2.82h-.606v-2.82h-1.097v-.503Z"/>
      <path d="M63.619,14.47h2.494v.503h-1.888v.87h1.746v.475h-1.746v.973h1.921v.503h-2.527v-3.323h0Z"/>
      <path d="M66.668,14.47h.854l.956,2.602h.01l.932-2.602h.845v3.323h-.578v-2.564h-.01l-.961,2.564h-.499l-.961-2.564h-.01v2.564h-.577v-3.323h0Z"/>
      <path d="M70.96,17.166h.675v.628h-.675v-.628Z"/>
    </g>
    <g>
      <path d="M2.421,20.893h.792l.361,2.401h.012l.384-2.401h.861l.407,2.401h.012l.372-2.401h.758l-.666,3.382h-.9l-.407-2.401h-.012l-.385,2.401h-.918s-.671-3.382-.671-3.382Z"/>
      <path d="M6.353,20.893h.792l.361,2.401h.012l.384-2.401h.861l.407,2.401h.011l.373-2.401h.758l-.666,3.382h-.9l-.407-2.401h-.012l-.384,2.401h-.918s-.672-3.382-.672-3.382Z"/>
      <path d="M10.286,20.893h.792l.361,2.401h.012l.384-2.401h.861l.407,2.401h.012l.372-2.401h.758l-.666,3.382h-.9l-.407-2.401h-.012l-.385,2.401h-.918s-.671-3.382-.671-3.382Z"/>
      <path d="M15.337,23.294v.98h-.822v-.98h.822Z"/>
      <path d="M15.979,20.893h.84v.396h.013c.185-.333.503-.483.871-.483.548,0,.872.295.872.961v2.509h-.878v-2.332c0-.34-.114-.472-.375-.472-.3,0-.465.183-.465.56v2.244h-.878v-3.382h0Z"/>
      <path d="M19.074,19.736h.878v.742h-.878v-.742ZM19.074,20.893h.878v3.382h-.878v-3.382Z"/>
      <path d="M20.454,20.893h.84v.396h.013c.185-.333.503-.483.871-.483.548,0,.872.295.872.961v2.509h-.878v-2.332c0-.34-.114-.472-.375-.472-.3,0-.465.183-.465.56v2.244h-.878v-3.382h0Z"/>
      <path d="M23.708,19.924h.878v.969h.51v.591h-.51v1.829c0,.264.058.371.312.371.069,0,.14-.007.197-.013v.604c-.191.019-.369.038-.573.038-.687,0-.814-.208-.814-.893v-1.937h-.445v-.591h.445v-.969h0Z"/>
      <path d="M26.036,22.715v.271c0,.396.107.786.433.786.292,0,.413-.22.464-.635h.789c-.031.785-.413,1.226-1.24,1.226-1.272,0-1.324-.968-1.324-1.811,0-.905.179-1.747,1.362-1.747,1.024,0,1.253.679,1.253,1.716v.194h-1.737ZM26.932,22.201c-.019-.516-.082-.805-.445-.805-.35,0-.451.358-.451.672v.133h.896Z"/>
      <path d="M28.113,20.893h.84v.396h.013c.185-.333.503-.483.871-.483.548,0,.872.295.872.961v2.509h-.878v-2.332c0-.34-.114-.472-.375-.472-.3,0-.465.183-.465.56v2.244h-.878v-3.382h0Z"/>
      <path d="M32.932,23.917h-.013c-.19.314-.433.446-.776.446-.719,0-1.05-.521-1.05-1.779s.331-1.778,1.05-1.778c.331,0,.554.132.738.402h.013v-1.421h.878v4.488h-.84s0-.358,0-.358ZM32.43,23.697c.389,0,.465-.378.465-1.113s-.076-1.112-.465-1.112c-.382,0-.458.377-.458,1.112s.076,1.113.458,1.113Z"/>
      <path d="M35.474,20.805c1.056-.02,1.349.604,1.349,1.778,0,1.157-.344,1.779-1.349,1.779-1.057.019-1.35-.604-1.35-1.779,0-1.156.344-1.778,1.35-1.778ZM35.474,23.772c.356,0,.471-.346.471-1.188s-.114-1.188-.471-1.188c-.433,0-.471.496-.471,1.188s.038,1.188.471,1.188Z"/>
      <path d="M38.258,23.294v.98h-.822v-.98h.822Z"/>
      <path d="M40.382,22.112c0-.326-.062-.679-.386-.679-.423,0-.492.378-.492,1.157,0,.836.075,1.182.461,1.182.287,0,.417-.245.417-.792h.822c0,.887-.367,1.383-1.276,1.383-.859,0-1.282-.421-1.282-1.779,0-1.389.566-1.778,1.356-1.778s1.202.509,1.202,1.307h-.822,0Z"/>
      <path d="M42.75,20.805c1.033-.02,1.32.604,1.32,1.778,0,1.157-.337,1.779-1.32,1.779-1.033.019-1.32-.604-1.32-1.779,0-1.156.337-1.778,1.32-1.778ZM42.75,23.772c.349,0,.461-.346.461-1.188s-.112-1.188-.461-1.188c-.424,0-.461.496-.461,1.188s.037,1.188.461,1.188Z"/>
      <path d="M44.421,20.893h.822v.346h.013c.218-.309.485-.434.846-.434.393,0,.679.194.772.54h.013c.131-.358.441-.54.847-.54.566,0,.834.357.834,1.012v2.458h-.859v-2.364c0-.282-.093-.439-.336-.439-.274,0-.448.188-.448.578v2.226h-.859v-2.364c0-.282-.093-.439-.336-.439-.273,0-.448.188-.448.578v2.226h-.859v-3.382l-.002-.002Z"/>
    </g>
    <g>
      <path d="M51.254,21.387c.952-.016,1.217.502,1.217,1.48,0,.963-.311,1.481-1.217,1.481-.952.016-1.217-.502-1.217-1.481,0-.963.311-1.48,1.217-1.48ZM51.254,23.856c.321,0,.425-.288.425-.989s-.104-.989-.425-.989c-.391,0-.425.414-.425.989s.034.989.425.989Z"/>
      <path d="M52.789,21.46h.758v.377h.012c.16-.272.384-.45.711-.45.046,0,.098.005.144.01v.691c-.08-.006-.167-.011-.247-.011-.275,0-.585.131-.585.508v1.69h-.792v-2.815h0Z"/>
      <path d="M56.913,22.475c0-.271-.052-.564-.321-.564-.352,0-.408.313-.408.963,0,.695.062.983.383.983.237,0,.347-.204.347-.659h.683c0,.738-.306,1.151-1.061,1.151-.714,0-1.065-.351-1.065-1.481,0-1.156.471-1.48,1.127-1.48s.999.424.999,1.088h-.684Z"/>
      <path d="M57.868,22.323v-.068c0-.648.44-.868.978-.868.849,0,1.009.355,1.009.863v1.481c0,.262.016.382.088.544h-.683c-.046-.089-.067-.199-.088-.293h-.01c-.166.293-.367.366-.709.366-.497,0-.673-.429-.673-.806,0-.529.212-.743.704-.88l.403-.109c.212-.058.284-.142.284-.33,0-.215-.093-.346-.331-.346-.217,0-.331.146-.331.367v.078h-.642,0ZM59.172,22.867c-.098.073-.217.121-.305.142-.29.062-.404.204-.404.455,0,.215.078.393.27.393s.439-.125.439-.435v-.555Z"/>
      <path d="M60.294,20.538h.714v3.737h-.714v-3.737Z"/>
      <path d="M61.442,20.538h.714v3.737h-.714v-3.737Z"/>
    </g>
    <g>
      <path d="M64.596,24.275v-2.617h-.712v-.491h.065c.475,0,.768-.188.839-.597h.535v3.705h-.728,0Z"/>
      <path d="M67.998,22.312v-.01c-.384-.105-.515-.445-.515-.712,0-.728.398-1.021,1.05-1.021s1.051.293,1.051,1.021c0,.267-.131.606-.516.712v.01c.404.084.606.45.606.916,0,.424-.146,1.12-1.142,1.12s-1.142-.696-1.142-1.12c0-.466.202-.832.606-.916h.002ZM68.533,23.856c.328,0,.414-.288.414-.639,0-.355-.086-.638-.414-.638s-.414.282-.414.638c0,.351.086.639.414.639ZM68.533,22.087c.212,0,.354-.173.354-.519,0-.335-.116-.508-.354-.508s-.354.173-.354.508c0,.346.142.519.354.519Z"/>
      <path d="M70.864,20.57c.864,0,1.121.486,1.121,1.8,0,1.031-.055,1.979-1.121,1.979-.863,0-1.121-.486-1.121-1.801,0-1.025.056-1.978,1.121-1.978ZM70.471,22.71c0,.932.081,1.146.394,1.146.318,0,.395-.293.395-1.245v-.403c0-.932-.081-1.146-.395-1.146-.318,0-.394.293-.394,1.246v.403h0Z"/>
      <path d="M73.196,20.57c.864,0,1.121.486,1.121,1.8,0,1.031-.055,1.979-1.121,1.979-.863,0-1.121-.486-1.121-1.801,0-1.025.056-1.978,1.121-1.978ZM72.803,22.71c0,.932.081,1.146.394,1.146.318,0,.395-.293.395-1.245v-.403c0-.932-.081-1.146-.395-1.146-.318,0-.394.293-.394,1.246v.403h0Z"/>
      <path d="M78.027,24.275h-2.202c0-.659.258-1.115.788-1.622l.293-.283c.318-.298.374-.466.374-.848,0-.309-.127-.461-.354-.461-.364,0-.399.33-.404.723h-.697v-.142c0-.686.349-1.072,1.111-1.072.717,0,1.07.371,1.07,1.01,0,.481-.146.796-.556,1.178l-.403.387c-.213.199-.334.403-.369.545h1.349v.586h0Z"/>
      <path d="M80.213,21.229h-1.318l-.075.843h.01c.137-.194.349-.277.656-.277.688,0,.874.597.874,1.183,0,.812-.228,1.371-1.146,1.371-.909,0-1.056-.617-1.056-1.031v-.1h.697c0,.246.04.607.354.607.293,0,.424-.24.424-.723,0-.612-.091-.784-.419-.784-.207,0-.318.131-.344.34h-.651l.132-2.015h1.863v.586h0Z"/>
      <path d="M82.545,21.229h-1.318l-.075.843h.01c.137-.194.349-.277.656-.277.688,0,.874.597.874,1.183,0,.812-.228,1.371-1.146,1.371-.909,0-1.056-.617-1.056-1.031v-.1h.697c0,.246.04.607.354.607.293,0,.424-.24.424-.723,0-.612-.091-.784-.419-.784-.207,0-.318.131-.344.34h-.651l.132-2.015h1.863v.586h0Z"/>
      <path d="M84.906,23.192c.011.429.081.664.399.664.354,0,.398-.271.398-.597,0-.329-.07-.633-.47-.633h-.242v-.492h.237c.303,0,.414-.282.414-.586,0-.346-.111-.487-.349-.487-.312,0-.368.252-.368.603h-.667c0-.728.374-1.094,1.051-1.094.646,0,1.03.298,1.03.952,0,.445-.207.738-.546.816v.011c.46.073.637.408.637.874,0,.497-.197,1.125-1.187,1.125-.692,0-1.036-.435-1.036-1.141v-.016h.699Z"/>
      <path d="M88.754,20.643v.575c-.591.863-.935,2.01-1.051,3.057h-.763c.111-.895.414-1.999,1.116-2.983h-1.505v-.648h2.203Z"/>
      <path d="M89.983,20.57c.864,0,1.121.486,1.121,1.8,0,1.031-.055,1.979-1.121,1.979-.863,0-1.121-.486-1.121-1.801,0-1.025.056-1.978,1.121-1.978ZM89.59,22.71c0,.932.081,1.146.394,1.146.318,0,.395-.293.395-1.245v-.403c0-.932-.081-1.146-.395-1.146-.318,0-.394.293-.394,1.246v.403h0Z"/>
      <path d="M92.315,20.57c.864,0,1.121.486,1.121,1.8,0,1.031-.055,1.979-1.121,1.979-.863,0-1.121-.486-1.121-1.801,0-1.025.056-1.978,1.121-1.978ZM91.922,22.71c0,.932.081,1.146.394,1.146.318,0,.395-.293.395-1.245v-.403c0-.932-.081-1.146-.395-1.146-.318,0-.394.293-.394,1.246v.403h0Z"/>
    </g>
    <rect x="65.987" y="22.529" width="1.248" height=".665"/>
    <rect x="74.451" y="22.529" width="1.248" height=".665"/>
    <rect x="82.892" y="22.529" width="1.248" height=".665"/>
    <path d="M8.857,8.136l-3.352-5.807c-.073-.127-.256-.127-.329,0l-3.352,5.807c-.073.127.018.285.164.285h6.705c.146,0,.237-.158.164-.285ZM5.603,7.956c-.074.074-.163.11-.266.11s-.193-.037-.266-.11c-.074-.073-.109-.162-.109-.265,0-.102.036-.19.109-.263.074-.073.163-.109.266-.109s.193.037.266.109c.074.073.109.162.109.263,0,.104-.036.193-.109.265ZM5.709,4.013l-.305,2.743h-.129l-.298-2.743c-.013-.119-.02-.209-.02-.268,0-.142.038-.256.113-.342.076-.086.166-.129.273-.129s.195.043.269.129c.073.086.11.213.11.383,0,.054-.005.13-.014.227h0Z"/>
  </g>
</svg>