<?xml version="1.0" encoding="UTF-8"?>
<svg id="Layer_1" xmlns="http://www.w3.org/2000/svg" version="1.1" viewBox="0 0 140.5 40.5">
  <!-- Generator: Adobe Illustrator 29.5.0, SVG Export Plug-In . SVG Version: 2.1.0 Build 137)  -->
  <defs>
    <style>
      .st0 {
        font-family: OCRB, 'OCR B Sharp';
        font-size: 5.8px;
        letter-spacing: -0.023em;
      }

      .st0, .st1 {
        fill: #231f20;
      }

      .st2 {
        fill: #a7a7aa;
      }
    </style>
  </defs>
  <g>
    <circle cx="89" cy="30.8" r=".1"/>
    <circle cx="89.6" cy="31.3" r=".1"/>
    <circle cx="90.2" cy="30.8" r=".1"/>
    <circle cx="88.4" cy="31.3" r=".1"/>
    <circle cx="90.8" cy="31.3" r=".1"/>
    <circle cx="91.4" cy="30.8" r=".1"/>
    <circle cx="92" cy="31.3" r=".1"/>
    <circle cx="92.6" cy="30.8" r=".1"/>
    <circle cx="89" cy="31.9" r=".1"/>
    <circle cx="89.6" cy="32.5" r=".1"/>
    <circle cx="90.2" cy="31.9" r=".1"/>
    <circle cx="88.4" cy="32.5" r=".1"/>
    <circle cx="90.8" cy="32.5" r=".1"/>
    <circle cx="91.4" cy="31.9" r=".1"/>
    <circle cx="92" cy="32.5" r=".1"/>
    <circle cx="92.6" cy="31.9" r=".1"/>
    <circle cx="89" cy="33" r=".2"/>
    <circle cx="89.6" cy="33.7" r=".2"/>
    <circle cx="90.2" cy="33" r=".2"/>
    <circle cx="88.4" cy="33.7" r=".2"/>
    <circle cx="90.8" cy="33.7" r=".2"/>
    <circle cx="91.4" cy="33" r=".2"/>
    <circle cx="92" cy="33.7" r=".2"/>
    <circle cx="92.6" cy="33" r=".2"/>
    <circle cx="89" cy="34.2" r=".2"/>
    <circle cx="89.6" cy="34.9" r=".2"/>
    <circle cx="90.2" cy="34.2" r=".2"/>
    <circle cx="88.4" cy="34.9" r=".2"/>
    <circle cx="90.8" cy="34.9" r=".2"/>
    <circle cx="91.4" cy="34.2" r=".2"/>
    <circle cx="92" cy="34.9" r=".2"/>
    <circle cx="92.6" cy="34.2" r=".2"/>
    <circle cx="89" cy="35.5" r=".2"/>
    <circle cx="89.6" cy="36.1" r=".2"/>
    <circle cx="90.2" cy="35.5" r=".2"/>
    <circle cx="88.4" cy="36.1" r=".2"/>
    <circle cx="90.8" cy="36.1" r=".2"/>
    <circle cx="91.4" cy="35.5" r=".2"/>
    <circle cx="92" cy="36.1" r=".2"/>
    <circle cx="92.6" cy="35.5" r=".2"/>
    <circle cx="89" cy="36.7" r=".2"/>
    <circle cx="89.6" cy="37.3" r=".2"/>
    <circle cx="90.2" cy="36.7" r=".2"/>
    <circle cx="88.4" cy="37.3" r=".2"/>
    <circle cx="90.8" cy="37.3" r=".2"/>
    <circle cx="91.4" cy="36.7" r=".2"/>
    <circle cx="92" cy="37.3" r=".2"/>
    <circle cx="92.6" cy="36.7" r=".2"/>
  </g>
  <path class="st2" d="M136.3,0h-.9v.2h.9v-.2h0ZM134.6,0h-.9v.2h.9v-.2h0ZM132.8,0h-.9v.2h.9v-.2h0ZM131,0h-.9v.2h.9v-.2h0ZM129.3,0h-.9v.2h.9v-.2h0ZM127.5,0h-.9v.2h.9v-.2h0ZM125.8,0h-.9v.2h.9v-.2h0ZM124,0h-.9v.2h.9v-.2h0ZM122.2,0h-.9v.2h.9v-.2h0ZM120.5,0h-.9v.2h.9v-.2h0ZM118.7,0h-.9v.2h.9v-.2h0ZM117,0h-.9v.2h.9v-.2h0ZM115.2,0h-.9v.2h.9v-.2h0ZM113.5,0h-.9v.2h.9v-.2h0ZM111.7,0h-.9v.2h.9v-.2h0ZM109.9,0h-.9v.2h.9v-.2h0ZM108.2,0h-.9v.2h.9v-.2h0ZM106.4,0h-.9v.2h.9v-.2h0ZM104.7,0h-.9v.2h.9v-.2h0ZM102.9,0h-.9v.2h.9v-.2h0ZM101.2,0h-.9v.2h.9v-.2h0ZM99.4,0h-.9v.2h.9v-.2h0ZM97.6,0h-.9v.2h.9v-.2h0ZM95.9,0h-.9v.2h.9v-.2h0ZM94.1,0h-.9v.2h.9v-.2h0ZM92.4,0h-.9v.2h.9v-.2h0ZM90.6,0h-.9v.2h.9v-.2h0ZM88.8,0h-.9v.2h.9v-.2h0ZM87.1,0h-.9v.2h.9v-.2h0ZM85.3,0h-.9v.2h.9v-.2h0ZM83.6,0h-.9v.2h.9v-.2h0ZM81.8,0h-.9v.2h.9v-.2h0ZM80.1,0h-.9v.2h.9v-.2h0ZM78.3,0h-.9v.2h.9v-.2h0ZM76.5,0h-.9v.2h.9v-.2h0ZM74.8,0h-.9v.2h.9v-.2h0ZM73,0h-.9v.2h.9v-.2h0ZM71.3,0h-.9v.2h.9v-.2h0ZM69.5,0h-.9v.2h.9v-.2h0ZM67.8,0h-.9v.2h.9v-.2h0ZM66,0h-.9v.2h.9v-.2h0ZM64.2,0h-.9v.2h.9v-.2h0ZM62.5,0h-.9v.2h.9v-.2h0ZM60.7,0h-.9v.2h.9v-.2h0ZM59,0h-.9v.2h.9v-.2h0ZM57.2,0h-.9v.2h.9v-.2h0ZM55.4,0h-.9v.2h.9v-.2h0ZM53.7,0h-.9v.2h.9v-.2h0ZM51.9,0h-.9v.2h.9v-.2h0ZM50.2,0h-.9v.2h.9v-.2h0ZM48.4,0h-.9v.2h.9v-.2h0ZM46.7,0h-.9v.2h.9v-.2h0ZM44.9,0h-.9v.2h.9v-.2h0ZM43.1,0h-.9v.2h.9v-.2h0ZM41.4,0h-.9v.2h.9v-.2h0ZM39.6,0h-.9v.2h.9v-.2h0ZM37.9,0h-.9v.2h.9v-.2h0ZM36.1,0h-.9v.2h.9v-.2h0ZM34.4,0h-.9v.2h.9v-.2h0ZM32.6,0h-.9v.2h.9v-.2h0ZM30.8,0h-.9v.2h.9v-.2h0ZM29.1,0h-.9v.2h.9v-.2h0ZM27.3,0h-.9v.2h.9v-.2h0ZM25.6,0h-.9v.2h.9v-.2h0ZM23.8,0h-.9v.2h.9v-.2h0ZM22,0h-.9v.2h.9v-.2h0ZM20.3,0h-.9v.2h.9v-.2h0ZM18.5,0h-.9v.2h.9v-.2h0ZM16.8,0h-.9v.2h.9v-.2h0ZM15,0h-.9v.2h.9v-.2h0ZM13.3,0h-.9v.2h.9v-.2h0ZM11.5,0h-.9v.2h.9v-.2h0ZM9.7,0h-.9v.2h.9v-.2h0ZM8,0h-.9v.2h.9v-.2h0ZM6.2,0h-.9v.2h.9v-.2h0ZM4.5,0h-.3c-.2,0-.4,0-.7,0v.2c0,0,.1,0,.1,0,0,0,0,0,0,0,0,0,0,0,0,0,0,0,0,0,0,0,0,0,0,0,0,0,0,0,0,0,0,0,0,0,0,0,0,0,0,0,0,0,0,0,0,0,0,0,0,0h0s0,0,0,0c0,0,0,0,0,0,0,0,0,0,0,0,0,0,0,0,0,0h0s0,0,0,0c0,0,0,0,0,0,0,0,0,0,0,0,0,0,0,0,0,0,0,0,0,0,0,0,0,0,0,0,0,0,0,0,0,0,0,0,0,0,0,0,0,0,0,0,0,0,0,0,0,0,0,0,0,0,0,0,0,0,0,0,0,0,0,0,0,0,0,0,0,0,0,0s0,0,0,0c0,0,0,0,0,0,0,0,0,0,0,0,0,0,0,0,0,0,0,0,0,0,0,0,0,0,0,0,0,0,0,0,0,0,0,0,0,0,0,0,0,0,0,0,0,0,0,0,0,0,0,0,0,0,0,0,0,0,0,0,0,0,0,0,0,0,0,0,0,0,0,0,0,0,0,0,0,0,0,0,0,0,0,0,0,0,0,0,0,0,0,0,0,0,0,0,0,0,0,0,0,0,0,0,0,0,0,0,0,0,0,0,0,0,0,0,0,0,0,0,0,0,0,0,0,0,0,0,0,0,0,0,0,0,0,0,0,0,0,0,0,0,0,0,0,0,0,0,0,0,0,0,0,0,0,0,0,0,0,0,0,0,0,0,0,0,0,0,0,0,0,0,0,0,0,0,0,0,0,0,0,0,0,0,0,0h0s0,0,0,0c0,0,0,0,0,0,0,0,0,0,0,0,0,0,0,0,0,0,0,0,0,0,0,0,0,0,0,0,0,0,0,0,0,0,0,0,0,0,0,0,0,0,0,0,0,0,0,0,0,0,0,0,0,0h0s0,0,0,0c0,0,0,0,0,0,0,0,0,0,0,0,0,0,0,0,0,0,0,0,0,0,0,0,0,0,0,0,0,0,0,0,0,0,0,0,0,0,0,0,0,0,0,0,0,0,0,0,0,0,0,0,0,0,0,0,0,0,0,0,0,0,0,0,0,0,0,0,0,0,0,0,0,0,0,0,0,0,0,0,0,0,0,0,0,0,0,0,0,0,0,0,0,0,0,0,0,0,0,0,0,0,0,0,0,0,0,0,0,0,0,0,0,0,0,0,0,0,0,0,0,0,0,0,0,0,0,0,0,0,0,0,0,0,0,0,0,0,0,0,0,0,0,0,0,0,0,0,0,0h0s0,0,0,0c0,0,0,0,0,0,0,0,0,0,0,0,0,0,0,0,0,0,0,0,0,0,0,0,0,0,0,0,0,0,0,0,0,0,0,0,0,0,0,0,0,0,0,0,0,0,0,0,0,0,0,0,0,0,0,0,0,0,0,0h0s0,0,0,0c0,0,0,0,0,0,0,0,0,0,0,0,0,0,0,0,0,0,0,0,0,0,0,0,0,0,0,0,0,0,0,0,0,0,0,0,0,0,0,0,0,0,0,0,0,0,0,0,0,0,0,0,0,0,0,0,0,0,0,0,0,0,0,0,0,0,0,0,0,0,0,0,0,0,0,0,0,0,0,0,0,0,0,0,0,0,0,0,0,0,0,0,0,0,0,0h0s0,0,0,0h0s0,0,0,0h0s0,0,0,0h0s0,0,0,0h0s0,0,0,0h.3v-.2h0ZM2.7.3c-.3.1-.6.3-.8.4v.2c.2,0,.2,0,.2,0,0,0,0,0,0,0,0,0,0,0,0,0,0,0,0,0,0,0,0,0,0,0,0,0,0,0,0,0,0,0,0,0,0,0,0,0,0,0,0,0,0,0,0,0,0,0,0,0,0,0,0,0,0,0,0,0,0,0,0,0,0,0,0,0,0,0,0,0,0,0,0,0h0s0,0,0,0c0,0,0,0,0,0,0,0,0,0,0,0,0,0,0,0,0,0,0,0,0,0,0,0,0,0,0,0,0,0,0,0,0,0,0,0,0,0,0,0,0,0,0,0,0,0,0,0,0,0,0,0,0,0,0,0,0,0,0,0h0s0,0,0,0c0,0,0,0,0,0,0,0,0,0,0,0,0,0,0,0,0,0,0,0,0,0,0,0,0,0,0,0,0,0,0,0,0,0,0,0,0,0,0,0,0,0,0,0,0,0,0,0h0s0,0,0,0c0,0,0,0,0,0,0,0,0,0,0,0,0,0,0,0,0,0,0,0,0,0,0,0,0,0,0,0,0,0,0,0,0,0,0,0,0,0,0,0,0,0,0,0,0,0,0,0h0s0,0,0,0c0,0,0,0,0,0,0,0,0,0,0,0,0,0,0,0,0,0,0,0,0,0,0,0,0,0,0,0,0,0h0s0,0,0,0h0s0,0,0,0c0,0,0,0,0,0,0,0,0,0,0,0,0,0,0,0,0,0,0,0,0,0,0,0,0,0,0,0,0,0,0,0,0,0,0,0h0s0,0,0,0c0,0,0,0,0,0,0,0,0,0,0,0,0,0,0,0,0,0,0,0,0,0,0,0h0s0,0,0,0h0s0,0,0,0c0,0,0,0,0,0,0,0,0,0,0,0,0,0,0,0,0,0,0,0,0,0,0,0h0s0,0,0,0h0s0,0,0,0c0,0,0,0,0,0,0,0,0,0,0,0h0s0,0,0,0h0s0,0,0,0c0,0,0,0,0,0,0,0,0,0,0,0,0,0,0,0,0,0,0,0,0,0,0,0,0,0,0,0,0,0,0,0,0,0,0,0h0s0,0,0,0c0,0,0,0,0,0,0,0,0,0,0,0,0,0,0,0,0,0,0,0,0,0,0,0,0,0,0,0,0,0,0,0,0,0,0,0,0,0,0,0,0,0,0,0,0,0,0,0,0,0,0,0,0,0,0,0,0,0,0,0,0,0,0,0,0,0,0,0,0,0,0,0,0,0,0,0,0,0,0,0,0,0,0,0,0,0,0,0,0,0,0,0,0,0,0,0,0,0,0,0,0,0,0,0,0,0,0,0,0,0,0,0,0,0,0,0,0,0,0,0,0,0,0,0,0,0,0,0,0,0,0,0,0,0,0,0,0,0,0,0,0,0,0,0,0,0,0,0,0,0,0,0,0,0,0,0,0,0,0,0,0,0,0,0,0,0,0,0,0,0,0,0,0,0,0,0,0,0,0,0,0,0,0,0,0,0,0,0,0,0,0,0,0,0,0,0,0,0,0,0,0,0,0,0,0,0,0,0,0,0,0,0,0,0,0,0,0,0,0,0,0,0,0,0,0,0,0,0,0,0,0,0,0,0,0,0,0,0,0,0,0,0,0,0,0,0,0,0,0,0,0,0,0,0,0,0,0,0,0,0,0,0,0,0,0,0,0,0,0,0,0,0,0,0,0,0,0,0,0,0,0,0,0,0,0,0,0,0,0,0,0,0,0,0,0,0,0,0,0,0v-.2h0ZM1.1,1.3c-.2.2-.4.5-.6.7h.2c0,0,0,0,.1,0,0,0,0,0,0,0,0,0,0,0,0,0,0,0,0,0,0,0,0,0,0,0,0,0,0,0,0,0,0,0,0,0,0,0,0,0,0,0,0,0,0,0,0,0,0,0,0,0,0,0,0,0,0,0,0,0,0,0,0,0,0,0,0,0,0,0,0,0,0,0,0,0,0,0,0,0,0,0h0c.1-.2.2-.3.4-.5l-.2-.2h0ZM.2,2.9c0,.3-.2.6-.2.9h.2c0-.3,0-.6.2-.8h-.2ZM.2,4.8h-.2v.9h.2v-.9H.2ZM.2,6.5h-.2v.9h.2v-.9H.2ZM.2,8.3h-.2v.9h.2v-.9H.2ZM.2,10h-.2v.9h.2v-.9H.2ZM.2,11.8h-.2v.9h.2v-.9H.2ZM.2,13.6h-.2v.9h.2v-.9H.2ZM.2,15.3h-.2v.9h.2v-.9H.2ZM.2,17.1h-.2v.9h.2v-.9H.2ZM.2,18.8h-.2v.9h.2v-.9H.2ZM.2,20.6h-.2v.9h.2v-.9H.2ZM.2,22.3h-.2v.9h.2v-.9H.2ZM.2,24.1h-.2v.9h.2v-.9H.2ZM.2,25.9h-.2v.9h.2v-.9H.2ZM.2,27.6h-.2v.9h.2v-.9H.2ZM.2,29.4h-.2v.9h.2v-.9H.2ZM.2,31.1h-.2v.9h.2v-.9H.2ZM.2,32.9h-.2v.9h.2v-.9H.2ZM.2,34.6h-.2v.9h.2v-.9H.2ZM.3,36.4H0c0,.3,0,.6.1.9h.2c0-.1,0-.1,0-.2,0,0,0,0,0,0,0,0,0,0,0,0,0,0,0,0,0,0,0,0,0,0,0,0,0,0,0,0,0,0,0,0,0,0,0,0,0,0,0,0,0,0,0,0,0,0,0,0,0,0,0,0,0,0,0,0,0,0,0,0,0,0,0,0,0,0,0,0,0,0,0,0,0,0,0,0,0,0,0,0,0,0,0,0,0,0,0,0,0,0h0s0,0,0,0c0,0,0,0,0,0,0,0,0,0,0,0,0,0,0,0,0,0,0,0,0,0,0,0,0,0,0,0,0,0,0,0,0,0,0,0,0,0,0,0,0,0,0,0,0,0,0,0,0,0,0,0,0,0,0,0,0,0,0,0,0,0,0,0,0,0,0-.2,0-.4,0-.7,0,0,0,0,0,0,0,0,0,0,0,0,0,0,0,0,0,0H.3ZM.7,38.1h-.2c.1.4.3.7.5.9l.2-.2s0,0-.1-.1c0,0,0,0,0,0,0,0,0,0,0,0h0s0,0,0,0c0,0,0,0,0,0,0,0,0,0,0,0,0,0,0,0,0,0,0,0,0,0,0,0,0,0,0,0,0,0,0,0,0,0,0,0,0,0,0,0,0,0,0,0,0,0,0,0,0,0,0,0,0,0,0,0,0,0,0,0,0,0,0,0,0,0,0,0,0,0,0,0,0,0,0,0,0,0,0,0,0,0,0,0,0,0,0,0,0,0,0,0,0,0,0,0,0,0,0,0,0,0,0,0,0,0,0,0,0,0,0,0,0,0,0,0,0,0,0,0,0,0,0,0,0,0h0s0,0,0,0h0c-.1-.2-.2-.3-.3-.5h0ZM1.8,39.4l-.2.2c.2.2.5.3.8.5v-.2c.1,0,.1,0,.1,0,0,0,0,0,0,0,0,0,0,0,0,0,0,0,0,0,0,0,0,0,0,0,0,0,0,0,0,0,0,0,0,0,0,0,0,0,0,0,0,0,0,0,0,0,0,0,0,0,0,0,0,0,0,0-.1,0-.3-.1-.4-.2,0,0,0,0,0,0,0,0,0,0,0,0,0,0,0,0,0,0h0s0,0,0,0c0,0,0,0,0,0,0,0,0,0,0,0,0,0,0,0,0,0,0,0,0,0,0,0,0,0,0,0,0,0,0,0,0,0,0,0,0,0,0,0,0,0,0,0,0,0,0,0,0,0,0,0,0,0,0,0,0,0,0,0,0,0,0,0,0,0,0,0,0,0,0,0,0,0,0,0,0,0,0,0,0,0,0,0,0,0,0,0,0,0,0,0,0,0,0,0h0s0,0,0,0c0,0,0,0,0,0,0,0,0,0,0,0,0,0,0,0,0,0,0,0-.2-.1-.2-.2h0ZM3.4,40.1v.2c.2,0,.5,0,.8,0h0v-.2h0s0,0,0,0h0s0,0,0,0,0,0,0,0c0,0,0,0,0,0,0,0,0,0,0,0h0s0,0,0,0c0,0,0,0,0,0,0,0,0,0,0,0,0,0,0,0,0,0,0,0,0,0,0,0h0s0,0,0,0c0,0,0,0,0,0-.1,0-.2,0-.3,0h0s0,0,0,0c0,0,0,0,0,0,0,0,0,0,0,0,0,0,0,0,0,0,0,0,0,0,0,0,0,0,0,0,0,0,0,0,0,0,0,0,0,0,0,0,0,0,0,0,0,0,0,0,0,0,0,0,0,0,0,0,0,0,0,0s0,0,0,0c0,0,0,0,0,0,0,0,0,0,0,0,0,0,0,0,0,0,0,0,0,0,0,0,0,0,0,0,0,0,0,0,0,0,0,0,0,0,0,0,0,0,0,0,0,0,0,0,0,0,0,0,0,0,0,0,0,0,0,0,0,0,0,0,0,0,0,0,0,0,0,0,0,0,0,0,0,0,0,0,0,0,0,0,0,0,0,0,0,0,0,0,0,0,0,0,0,0,0,0,0,0,0,0,0,0,0,0,0,0,0,0,0,0,0,0,0,0,0,0,0,0,0,0,0,0,0,0,0,0,0,0,0,0,0,0,0,0,0,0-.2,0-.2,0h0ZM6.1,40.2h-.9v.2h.9v-.2h0ZM7.8,40.2h-.9v.2h.9v-.2h0ZM9.6,40.2h-.9v.2h.9v-.2h0ZM11.3,40.2h-.9v.2h.9v-.2h0ZM13.1,40.2h-.9v.2h.9v-.2h0ZM14.8,40.2h-.9v.2h.9v-.2h0ZM16.6,40.2h-.9v.2h.9v-.2h0ZM18.4,40.2h-.9v.2h.9v-.2h0ZM20.1,40.2h-.9v.2h.9v-.2h0ZM21.9,40.2h-.9v.2h.9v-.2h0ZM23.6,40.2h-.9v.2h.9v-.2h0ZM25.4,40.2h-.9v.2h.9v-.2h0ZM27.1,40.2h-.9v.2h.9v-.2h0ZM28.9,40.2h-.9v.2h.9v-.2h0ZM30.7,40.2h-.9v.2h.9v-.2h0ZM32.4,40.2h-.9v.2h.9v-.2h0ZM34.2,40.2h-.9v.2h.9v-.2h0ZM35.9,40.2h-.9v.2h.9v-.2h0ZM37.7,40.2h-.9v.2h.9v-.2h0ZM39.5,40.2h-.9v.2h.9v-.2h0ZM41.2,40.2h-.9v.2h.9v-.2h0ZM43,40.2h-.9v.2h.9v-.2h0ZM44.7,40.2h-.9v.2h.9v-.2h0ZM46.5,40.2h-.9v.2h.9v-.2h0ZM48.2,40.2h-.9v.2h.9v-.2h0ZM50,40.2h-.9v.2h.9v-.2h0ZM51.8,40.2h-.9v.2h.9v-.2h0ZM53.5,40.2h-.9v.2h.9v-.2h0ZM55.3,40.2h-.9v.2h.9v-.2h0ZM57,40.2h-.9v.2h.9v-.2h0ZM58.8,40.2h-.9v.2h.9v-.2h0ZM60.5,40.2h-.9v.2h.9v-.2h0ZM62.3,40.2h-.9v.2h.9v-.2h0ZM64.1,40.2h-.9v.2h.9v-.2h0ZM65.8,40.2h-.9v.2h.9v-.2h0ZM67.6,40.2h-.9v.2h.9v-.2h0ZM69.3,40.2h-.9v.2h.9v-.2h0ZM71.1,40.2h-.9v.2h.9v-.2h0ZM72.9,40.2h-.9v.2h.9v-.2h0ZM74.6,40.2h-.9v.2h.9v-.2h0ZM76.4,40.2h-.9v.2h.9v-.2h0ZM78.1,40.2h-.9v.2h.9v-.2h0ZM79.9,40.2h-.9v.2h.9v-.2h0ZM81.6,40.2h-.9v.2h.9v-.2h0ZM83.4,40.2h-.9v.2h.9v-.2h0ZM85.2,40.2h-.9v.2h.9v-.2h0ZM86.9,40.2h-.9v.2h.9v-.2h0ZM88.7,40.2h-.9v.2h.9v-.2h0ZM90.4,40.2h-.9v.2h.9v-.2h0ZM92.2,40.2h-.9v.2h.9v-.2h0ZM93.9,40.2h-.9v.2h.9v-.2h0ZM95.7,40.2h-.9v.2h.9v-.2h0ZM97.5,40.2h-.9v.2h.9v-.2h0ZM99.2,40.2h-.9v.2h.9v-.2h0ZM101,40.2h-.9v.2h.9v-.2h0ZM102.7,40.2h-.9v.2h.9v-.2h0ZM104.5,40.2h-.9v.2h.9v-.2h0ZM106.3,40.2h-.9v.2h.9v-.2h0ZM108,40.2h-.9v.2h.9v-.2h0ZM109.8,40.2h-.9v.2h.9v-.2h0ZM111.5,40.2h-.9v.2h.9v-.2h0ZM113.3,40.2h-.9v.2h.9v-.2h0ZM115,40.2h-.9v.2h.9v-.2h0ZM116.8,40.2h-.9v.2h.9v-.2h0ZM118.6,40.2h-.9v.2h.9v-.2h0ZM120.3,40.2h-.9v.2h.9v-.2h0ZM122.1,40.2h-.9v.2h.9v-.2h0ZM123.8,40.2h-.9v.2h.9v-.2h0ZM125.6,40.2h-.9v.2h.9v-.2h0ZM127.3,40.2h-.9v.2h.9v-.2h0ZM129.1,40.2h-.9v.2h.9v-.2h0ZM130.9,40.2h-.9v.2h.9v-.2h0ZM132.6,40.2h-.9v.2h.9v-.2h0ZM134.4,40.2h-.9v.2h.9v-.2h0ZM136.1,40.2h-.9v.2h.9v-.2h0ZM137.9,39.9c-.2,0-.4.2-.6.2h0s0,0,0,0h0s0,0,0,0c0,0,0,0,0,0,0,0,0,0,0,0,0,0,0,0,0,0h0s0,0,0,0c0,0,0,0,0,0,0,0,0,0,0,0,0,0,0,0,0,0,0,0,0,0,0,0,0,0,0,0,0,0,0,0,0,0,0,0,0,0,0,0,0,0,0,0,0,0,0,0,0,0,0,0,0,0,0,0-.1,0-.2,0v.2c.4,0,.7-.1.9-.3v-.2h0ZM139.3,38.9s0,0,0,0c0,0,0,0,0,0,0,0,0,0,0,0,0,0,0,0,0,0,0,0,0,0,0,0,0,0,0,0,0,0,0,0,0,0,0,0,0,0,0,0,0,0,0,0,0,0,0,0,0,0,0,0,0,0,0,0,0,0,0,0,0,0,0,0,0,0,0,0,0,0,0,0,0,0,0,0,0,0,0,0,0,0,0,0h0s0,0,0,0h0s0,0,0,0c0,0,0,0,0,0,0,0,0,0,0,0,0,0,0,0,0,0h0s0,0,0,0c0,0,0,0,0,0,0,0,0,0,0,0,0,0,0,0,0,0,0,0,0,0,0,0,0,0,0,0,0,0,0,0,0,0,0,0,0,0,0,0,0,0,0,0,0,0,0,0,0,0,0,0,0,0,0,0,0,0,0,0,0,0,0,0,0,0,0,0,0,0,0,0,0,0,0,0,0,0,0,0,0,0,0,0,0,0,0,0,0,0,0,0,0,0,0,0,0,0,0,0,0,0,0,0,0,0,0,0,0,0,0,0,0,0,0,0,0,0,0,0,0,0,0,0,0,0,0,0,0,0,0,0,0,0,0,0,0,0,0,0,0,0,0,0,0,0,0,0,0,0,0,0,0,0,0,0,0,0,0,0,0,0,0,0,0,0,0,0,0,0,0,0,0,0,0,0,0,0,0,0,0,0,0,0,0,0h0s0,0,0,0c0,0,0,0,0,0,0,0,0,0,0,0,0,0,0,0,0,0,0,0,0,0,0,0,0,0,0,0,0,0,0,0,0,0,0,0,0,0,0,0,0,0,0,0,0,0,0,0,0,0,0,0,0,0,0,0,0,0,0,0,0,0,0,0,0,0,0,0,0,0,0,0h0s0,0,0,0c0,0,0,0,0,0,0,0,0,0,0,0,0,0,0,0,0,0,0,0,0,0,0,0,0,0,0,0,0,0,0,0,0,0,0,0,0,0,0,0,0,0,0,0,0,0,0,0,0,0,0,0,0,0,0,0,0,0,0,0,0,0,0,0,0,0,0,0,0,0,0,0,0,0,0,0,0,0,0,0,0,0,0,0,0,0,0,0,0,0,0,0,0,0,0,0,0,0,0,0,0,0,0,0,0,0,0,0,0,0,0,0,0,0,0,0,0,0,0,0,0,0,0,0,0,0,0,0,0,0,0,0,0,0,0,0,0,0,0,0,0,0,0,0,0,0,0,0,0,0,0,0,0,0,0,0,0,0,0,0,0,0,0,0,0,0,0,0,0,0,0,0,0,0,0,0,0,0,0,0,0,0,0,0,0,0,0,0,0,0,0,0,0,0,0,0,0,0,0,0,0,0,0,0,0,0,0,0,0,0,0,0,0,0,0,0,0,0,0,0,0,0,0,0,0,0,0,0,0,0,0,0,0,0,0,0,0,0,0,0,0,0,0,0,0,0,0,0,0,0,0,0,0,0,0,0,0,0,0,0,0,0,0,0,0,0,0,0,0,0,0,0,0,0,0,0,0,0,0,0,0,0,0,0,0,0,0,0,0,0,0,0,0,0,0,0,0,0,0,0,0,0,0,0,0,0,0,0,0,0,0,0,0,0,0,0,0,0,0,0,0,0,0,0,0,0,0,0,0,0,0,0,0,0,0,0h0s0,0,0,0c0,0,0,0,0,0,0,0,0,0,0,0,0,0,0,0,0,0h0c0,0-.1.1-.2.2v.2c.4-.2.6-.4.8-.6l-.2-.2h0ZM140.1,37.4s0,0,0,.1h0s0,0,0,0c0,0,0,0,0,0h0s0,0,0,0c0,0,0,0,0,0,0,0,0,0,0,0,0,0,0,0,0,0h0s0,0,0,0c0,0,0,0,0,0,0,0,0,0,0,0,0,0,0,0,0,0,0,0,0,0,0,0,0,0,0,0,0,0,0,0,0,0,0,0,0,0,0,0,0,0,0,0,0,0,0,0,0,0,0,0,0,0,0,0,0,0,0,0,0,0,0,0,0,0,0,0,0,0,0,0,0,0,0,0,0,0,0,0,0,0,0,0,0,0,0,0,0,0,0,0,0,0,0,0,0,0,0,0,0,0,0,0,0,0,0,0,0,0,0,0,0,0,0,0,0,0,0,0,0,0,0,0,0,0,0,0,0,0,0,0,0,0,0,0,0,0,0,0,0,0,0,0,0,0,0,0,0,0,0,0,0,0,0,0,0,0,0,0,0,0,0,0,0,0,0,0,0,0,0,0,0,0,0,0,0,0,0,0,0,0,0,0,0,0,0,0,0,0,0,0,0,0,0,0,0,0,0,0,0,0,0,0,0,0,0,0,0,0,0,0,0,0,0,0,0,0,0,0,0,0,0,0,0,0,0,0,0,0,0,0,0,0,0,0,0,0,0,0,0,0,0,0,0,0,0,0,0,0,0,0,0,0,0,0,0,0,0,0,0,0,0,0,0,0,0,0,0,0,0,0,0,0,0,0,0,0,0,0,0,0,0,0,0,0,0,0,0,0,0,0,0,0,0,0,0,0,0,0,0,0,0,0,0,0,0,0,0,0,0,0,0,0,0,0,0,0,0,0,0,0,0,0,0,0,0,0,0,0,0,0,0,0,0,0,0,0,0,0,0,0,0,0,0,0,0,0,0,0,0,0,0,0,0,0,0,0,0,0,0,0,0,0,0,0,0,0,0,0,0,0,0,0,0,0,0,0,0,0,0,0,0,0,0,0,0,0,0,0,0,0,0,0,0,0,0,0,0,0,0,0,0,0,0,0,0,0,0,0,0,0,0,0,0,0,0,0,0,0,0,0,0,0,0,0,0,0,0,0,0,0,0,0,0,0,0,0,0,0,0,0,0,0,0,0,0,0,0,0,0,0,0,0,0,0,0,0,0,0,0,0,0,0,0,0,0,0h0s0,0,0,0h0s0,0,0,0c0,0,0,0,0,0,0,0,0,0,0,0,0,0,0,0,0,0h0s0,0,0,0c0,0,0,0,0,0,0,0,0,0,0,0,0,0,0,0,0,0,0,0,0,0,0,0,0,0,0,0,0,0,0,0,0,0,0,0,0,0,0,0,0,0h0s0,0,0,0c0,0,0,0,0,0,0,0,0,0,0,0,0,0,0,0,0,0,0,0,0,0,0,0,0,0,0,0,0,0h0s0,0,0,0c0,0,0,0,0,0,0,0,0,0,0,0,0,0,0,0,0,0,0,0,0,0,0,0,0,0,0,0,0,0,0,0,0,0,0,0,0,0,0,0,0,0,0,0,0,0,0,0,0,0,0,0,0,0,0,0,0,0,0,0,0,0,0,0,0,0,0,0,0,0,0,0,0,0,0,0,0,0,0,0,0,0,0,0,0,0,0,0,0,0,0,0,0,0,0,0,0,0,0,0,0,0,0,0,0,0,0,0,0,0,0,0,0,0,0,0,0,0,0,0,0,0,0,0,0,0,0,0,0,0,0,0,0,0,0,0,0,0,0,0,0,0,0,0,0,0,0,0,0,0,0,0,0,0,0,0,0,0,0,0,0,0,0,0,0,0,0,0,0,0,0,0,0,0,0,0,0,0,0,0,0,0,0,.1-.1.2h.2c.2-.2.3-.4.4-.7h-.2ZM140.5,35.6h-.2v.6h0s0,0,0,0h0s0,0,0,0,0,0,0,0c0,0,0,0,0,0s0,0,0,0c0,0,0,0,0,0,0,0,0,0,0,0,0,0,0,0,0,0,0,0,0,0,0,0,0,0,0,0,0,0,0,0,0,0,0,0,0,0,0,0,0,0,0,0,0,0,0,0,0,0,0,0,0,0,0,0,0,0,0,0,0,0,0,0,0,0,0,0,0,0,0,0,0,0,0,0,0,0,0,0,0,0,0,0,0,0,0,0,0,0,0,0,0,0,0,0,0,0,0,0,0,0,0,0,0,0,0,0h0s0,0,0,0c0,0,0,0,0,0,0,0,0,0,0,0,0,0,0,0,0,0,0,0,0,0,0,0,0,0,0,0,0,0,0,0,0,0,0,0,0,0,0,0,0,0,0,0,0,0,0,0h0s0,0,0,0h.2c0,0,0-.2,0-.3v-.6h0ZM140.5,33.9h-.2v.9h.2v-.9h0ZM140.5,32.1h-.2v.9h.2v-.9h0ZM140.5,30.4h-.2v.9h.2v-.9h0ZM140.5,28.6h-.2v.9h.2v-.9h0ZM140.5,26.8h-.2v.9h.2v-.9h0ZM140.5,25.1h-.2v.9h.2v-.9h0ZM140.5,23.3h-.2v.9h.2v-.9h0ZM140.5,21.6h-.2v.9h.2v-.9h0ZM140.5,19.8h-.2v.9h.2v-.9h0ZM140.5,18.1h-.2v.9h.2v-.9h0ZM140.5,16.3h-.2v.9h.2v-.9h0ZM140.5,14.5h-.2v.9h.2v-.9h0ZM140.5,12.8h-.2v.9h.2v-.9h0ZM140.5,11h-.2v.9h.2v-.9h0ZM140.5,9.3h-.2v.9h.2v-.9h0ZM140.5,7.5h-.2v.9h.2v-.9h0ZM140.5,5.7h-.2v.9h.2v-.9h0ZM140.5,4h-.2s0,0,0,0c0,0,0,0,0,0,0,0,0,0,0,0,0,0,0,0,0,0,0,0,0,0,0,0,0,0,0,0,0,0,0,0,0,0,0,0,0,0,0,0,0,0,0,0,0,0,0,0,0,0,0,0,0,0,0,0,0,0,0,0,0,0,0,0,0,0h0s0,0,0,.1h0s0,0,0,0h0s0,0,0,0c0,0,0,0,0,0,0,0,0,0,0,0,0,0,0,0,0,0,0,0,0,0,0,0,0,0,0,0,0,0,0,0,0,0,0,0,0,0,0,0,0,0,0,0,0,0,0,0s0,0,0,0c0,0,0,0,0,0h0s0,0,0,0h0s0,0,0,0h0v.7h.2v-.6c0,0,0-.2,0-.2h0ZM140,2.2h-.2c0,.2.1.4.2.5,0,0,0,0,0,0,0,0,0,0,0,0,0,0,0,0,0,0,0,0,0,0,0,0h0s0,0,0,0c0,0,0,0,0,0,0,0,0,0,0,0,0,0,0,0,0,0,0,0,0,0,0,0,0,0,0,0,0,0,0,0,0,0,0,0,0,0,0,0,0,0,0,0,0,0,0,0,0,0,0,0,0,0h0s0,0,0,0c0,0,0,0,0,0h0s0,0,0,0c0,0,0,0,0,0,0,0,0,0,0,0,0,0,0,0,0,0,0,0,0,0,0,0,0,0,0,0,0,0,0,0,0,0,0,0,0,0,0,0,0,0,0,0,0,0,0,0,0,0,0,0,0,0,0,0,0,0,0,0,0,0,0,0,0,0,0,0,0,0,0,0,0,0,0,0,0,0,0,0,0,0,0,0,0,0,0,0,0,0,0,0,0,0,0,0,0,0,0,0,0,0,0,0,0,0,0,0,0,0,0,0,0,0h0c0,0,0,.1,0,.2,0,0,0,0,0,0,0,0,0,0,0,0,0,0,0,0,0,0,0,0,0,0,0,0,0,0,0,0,0,0,0,0,0,0,0,0s0,0,0,0c0,0,0,0,0,0,0,0,0,0,0,0,0,0,0,0,0,0,0,0,0,0,0,0,0,0,0,0,0,0,0,0,0,0,0,0,0,0,0,0,0,0,0,0,0,0,0,0h.2c0-.4-.2-.7-.4-.9h0ZM138.8.8v.2c0,0,0,.2.2.3,0,0,0,0,0,0,0,0,0,0,0,0,0,0,0,0,0,0,0,0,0,0,0,0,0,0,0,0,0,0,0,0,0,0,0,0h0s0,0,0,0c0,0,0,0,0,0,0,0,0,0,0,0,0,0,0,0,0,0,0,0,0,0,0,0,0,0,0,0,0,0,0,0,0,0,0,0,0,0,0,0,0,0,0,0,0,0,0,0,0,0,0,0,0,0,0,0,0,0,0,0,0,0,0,0,0,0,0,0,0,0,0,0,0,0,0,0,0,0,0,0,0,0,0,0,0,0,0,0,0,0,0,0,0,0,0,0,0,0,0,0,0,0,0,0,0,0,0,0,0,0,0,0,0,0,0,0,0,0,0,0,0,0,0,0,0,0,0,0,0,0,0,0,0,0,0,0,0,0,0,0,0,0,0,0,0,0,.2.2.2.2l.2-.2c-.2-.2-.4-.4-.7-.6h0ZM137.1,0v.2c0,0,.2,0,.3,0h0s0,0,0,0c0,0,0,0,0,0,0,0,0,0,0,0h0s0,0,0,0c0,0,0,0,0,0,0,0,0,0,0,0,0,0,0,0,0,0,0,0,0,0,0,0,0,0,0,0,0,0,0,0,0,0,0,0,0,0,0,0,0,0,0,0,0,0,0,0h0s0,0,0,0c0,0,0,0,0,0,0,0,0,0,0,0,0,0,0,0,0,0,0,0,0,0,0,0,0,0,0,0,0,0,0,0,0,0,0,0h0s0,0,0,0c0,0,0,0,0,0,0,0,0,0,0,0,0,0,0,0,0,0,0,0,0,0,0,0,0,0,0,0,0,0,0,0,0,0,0,0,0,0,0,0,0,0,0,0,0,0,0,0,0,0,0,0,0,0,0,0,0,0,0,0,0,0,0,0,0,0,0,0,0,0,0,0h0s0,0,0,0c.1,0,.2,0,.3.1v-.2c-.2-.1-.5-.2-.8-.3h0Z"/>
  <text id="serial" class="st0" transform="translate(48 36.2)"><tspan x="0" y="0">AU559851191</tspan></text>
  <g>
    <path class="st1" d="M8.2,28.9V4.8h.6v24.1h-.6ZM10.6,28.9V4.8h.6v24.1h-.6ZM11.8,28.9V4.8h1.8v24.1h-1.8ZM14.2,28.9V4.8h1.8v24.1h-1.8ZM16.6,28.9V4.8h.6v24.1h-.6Z"/>
    <path class="st1" d="M17.8,28.9V4.8h1.8v24.1h-1.8ZM20.2,28.9V4.8h.6v24.1h-.6ZM21.4,28.9V4.8h.6v24.1h-.6ZM23.8,28.9V4.8h.6v24.1h-.6ZM25,28.9V4.8h1.8v24.1h-1.8Z"/>
    <path class="st1" d="M27.4,28.9V4.8h1.8v24.1h-1.8ZM31,28.9V4.8h.6v24.1h-.6ZM32.2,28.9V4.8h.6v24.1h-.6ZM33.4,28.9V4.8h.6v24.1h-.6ZM34.6,28.9V4.8h1.8v24.1h-1.8Z"/>
    <path class="st1" d="M37,28.9V4.8h1.8v24.1h-1.8ZM39.4,28.9V4.8h.6v24.1h-.6ZM41.8,28.9V4.8h1.8v24.1h-1.8ZM44.2,28.9V4.8h.6v24.1h-.6ZM45.4,28.9V4.8h.6v24.1h-.6Z"/>
    <path class="st1" d="M46.6,28.9V4.8h1.8v24.1h-1.8ZM49,28.9V4.8h.6v24.1h-.6ZM51.4,28.9V4.8h1.8v24.1h-1.8ZM53.8,28.9V4.8h.6v24.1h-.6ZM55,28.9V4.8h.6v24.1h-.6Z"/>
    <path class="st1" d="M56.2,28.9V4.8h.6v24.1h-.6ZM57.4,28.9V4.8h1.8v24.1h-1.8ZM61,28.9V4.8h.6v24.1h-.6ZM62.2,28.9V4.8h1.8v24.1h-1.8ZM64.6,28.9V4.8h.6v24.1h-.6Z"/>
    <path class="st1" d="M65.8,28.9V4.8h1.8v24.1h-1.8ZM68.2,28.9V4.8h.6v24.1h-.6ZM70.6,28.9V4.8h.6v24.1h-.6ZM71.8,28.9V4.8h1.8v24.1h-1.8ZM74.2,28.9V4.8h.6v24.1h-.6Z"/>
    <path class="st1" d="M75.4,28.9V4.8h1.8v24.1h-1.8ZM77.8,28.9V4.8h.6v24.1h-.6ZM80.2,28.9V4.8h1.8v24.1h-1.8ZM82.6,28.9V4.8h.6v24.1h-.6ZM83.8,28.9V4.8h.6v24.1h-.6Z"/>
    <path class="st1" d="M85,28.9V4.8h1.8v24.1h-1.8ZM87.4,28.9V4.8h.6v24.1h-.6ZM89.8,28.9V4.8h.6v24.1h-.6ZM91,28.9V4.8h.6v24.1h-.6ZM92.2,28.9V4.8h1.8v24.1h-1.8Z"/>
    <path class="st1" d="M94.6,28.9V4.8h1.8v24.1h-1.8ZM97,28.9V4.8h.6v24.1h-.6ZM99.4,28.9V4.8h.6v24.1h-.6ZM100.6,28.9V4.8h.6v24.1h-.6ZM101.8,28.9V4.8h1.8v24.1h-1.8Z"/>
    <path class="st1" d="M104.2,28.9V4.8h.6v24.1h-.6ZM105.4,28.9V4.8h1.8v24.1h-1.8ZM109,28.9V4.8h.6v24.1h-.6ZM110.2,28.9V4.8h1.8v24.1h-1.8ZM112.6,28.9V4.8h.6v24.1h-.6Z"/>
    <path class="st1" d="M113.8,28.9V4.8h1.8v24.1h-1.8ZM116.2,28.9V4.8h.6v24.1h-.6ZM118.5,28.9V4.8h.6v24.1h-.6ZM119.7,28.9V4.8h.6v24.1h-.6ZM120.9,28.9V4.8h1.8v24.1h-1.8Z"/>
    <path class="st1" d="M123.3,28.9V4.8h.6v24.1h-.6ZM125.7,28.9V4.8h.6v24.1h-.6ZM126.9,28.9V4.8h1.8v24.1h-1.8ZM129.3,28.9V4.8h1.8v24.1h-1.8ZM131.7,28.9V4.8h.6v24.1h-.6Z"/>
  </g>
</svg>
